<?xml version="1.0" standalone="no"?>
<!DOCTYPE svg PUBLIC "-//W3C//DTD SVG 1.1//EN" "http://www.w3.org/Graphics/SVG/1.1/DTD/svg11.dtd" >
<svg xmlns="http://www.w3.org/2000/svg" xmlns:xlink="http://www.w3.org/1999/xlink" version="1.1">
<metadata>
Created by FontForge 20161003 at Wed Oct 11 12:35:08 2017
 By www-data
Copyright (c) ELM, 2005. All rights reserved.
</metadata>
<defs>
<font id="BaskervilleI" horiz-adv-x="2048" >
  <font-face 
    font-family="BaskervilleI"
    font-weight="400"
    font-style="italic"
    font-stretch="normal"
    units-per-em="2048"
    panose-1="2 0 5 3 0 0 0 9 0 3"
    ascent="1638"
    descent="-410"
    x-height="926"
    cap-height="1376"
    bbox="-360 -586 2423 2052"
    underline-thickness="96"
    underline-position="-425"
    slope="-12"
    unicode-range="U+0020-FB02"
  />
<missing-glyph horiz-adv-x="1229" 
d="M102 -362h1024v1806h-1024v-1806zM217 -248v1577h795v-1577h-795z" />
    <glyph glyph-name=".notdef" horiz-adv-x="1229" 
d="M102 -362h1024v1806h-1024v-1806zM217 -248v1577h795v-1577h-795z" />
    <glyph glyph-name=".null" horiz-adv-x="0" 
 />
    <glyph glyph-name="nonmarkingreturn" horiz-adv-x="682" 
 />
    <glyph glyph-name="space" unicode=" " horiz-adv-x="559" 
 />
    <glyph glyph-name="exclam" unicode="!" horiz-adv-x="616" 
d="M350 1227l-133 -758q-2 -10 -2 -25q0 -24 23 -24q17 0 29 31q1 2 1 4l262 722q3 9 6 16q29 78 29 110q0 45 -27.5 73.5t-70.5 28.5q-47 0 -73 -36q-24 -32 -44 -142zM25 82q0 -45 31 -76t77 -31t77 31q32 32 32 76q0 45 -32 76.5t-77 31.5q-46 0 -77 -31t-31 -77z" />
    <glyph glyph-name="quotedbl" unicode="&#x22;" horiz-adv-x="678" 
d="M518 864l68 457q2 24 2 41q0 48 -22 74t-62 26q-41 0 -63.5 -26.5t-22.5 -75.5q0 -10 3 -33q1 -3 1 -6l65 -457h31zM190 864l66 457q0 4 1 7q3 26 3 34q0 48 -22.5 74t-63.5 26q-40 0 -62 -26t-22 -74q0 -10 4 -41l64 -457h32z" />
    <glyph glyph-name="numbersign" unicode="#" horiz-adv-x="1575" 
d="M700 868h291l-102 -286h-289zM778 1456l-166 -471h-348l-43 -117h348l-100 -286h-322l-43 -115h324l-166 -469h131l166 469h287l-166 -469h133l166 469h330l43 115h-332l100 286h310l40 117h-307l166 471h-131l-168 -471h-287l168 471h-133z" />
    <glyph glyph-name="dollar" unicode="$" horiz-adv-x="1118" 
d="M481 887l117 442q18 2 45 2q67 0 125 -12l-137 -516q-75 41 -126 70q-7 4 -15 9zM436 909q-53 37 -82.5 86t-29.5 99q0 89 58 149t163 78zM482 37l153 575q151 -112 151 -266q0 -127 -85 -213q-85 -87 -219 -96zM262 57l176 666q87 -53 150 -86l-158 -600q-70 0 -168 20z
M115 -303h51l84 313q53 -13 168 -18l-78 -295h55l76 295q208 12 334 123q127 112 127 280q0 124 -66.5 224t-187.5 159l139 528q68 -20 68 -85v-35q0 -86 78 -86q29 0 46 18t17 49q0 51 -55 102q-54 53 -142 81l54 192h-58l-49 -180q-56 8 -112 8q-7 0 -28.5 -1t-27.5 -1
l45 174h-51l-47 -178q-171 -24 -262.5 -110t-91.5 -222q0 -186 194 -287l-182 -673q-82 22 -91 141q-1 5 -1 10q-3 40 -20.5 63t-45.5 23q-38 0 -60 -21.5t-22 -60.5q0 -55 63 -114q63 -57 165 -90z" />
    <glyph glyph-name="percent" unicode="%" horiz-adv-x="1763" 
d="M1130 229q0 68 26 160q26 87 71 170q93 164 213 164q73 0 118 -63q46 -62 46 -168q0 -194 -92 -334q-92 -138 -214 -138q-168 0 -168 209zM1286 -35q139 0 248 154q111 155 111 362q0 139 -59.5 214t-168.5 75q-176 0 -307 -143t-131 -340q0 -145 84 -234q85 -88 223 -88
zM268 836q0 211 127 407q36 54 84 83.5t99 29.5q68 0 113 -66q46 -65 46 -170q0 -187 -93 -325t-214 -138q-70 0 -117 50q-45 49 -45 129zM461 -102l917 1575h-73q-52 -95 -154 -153q-101 -56 -217 -56q-59 0 -105.5 16.5t-97.5 56.5q-47 38 -86 53t-88 15q-78 0 -155.5 -35
t-139.5 -98q-68 -70 -105.5 -161t-37.5 -187q0 -138 78 -227q79 -87 202 -87q198 0 316 234q65 127 65 268q0 67 -20 141q92 -39 178 -39q139 0 246 70l-811 -1386h88z" />
    <glyph glyph-name="ampersand" unicode="&#x26;" horiz-adv-x="1796" 
d="M1290 813q4 0 21 -1t22 -1q190 0 296 89q106 88 106 249q0 118 -74 198t-182 80q-74 0 -119 -37.5t-45 -97.5q0 -32 24.5 -52.5t63.5 -20.5q65 0 94 67q1 2 3 8q20 47 52 47q48 0 84 -49q37 -49 37 -118q0 -106 -85.5 -161t-250.5 -55h-34l-173 5h-14q-146 0 -235 -78
q-88 -76 -88 -201q0 -89 53 -151q52 -60 131 -60q53 0 83 25.5t30 70.5q0 40 -24 65t-62 25q-25 0 -61 -14t-46 -14q-24 0 -39.5 17.5t-15.5 43.5q0 69 61 109.5t166 40.5q134 0 209.5 -78t75.5 -217q0 -187 -146 -303q-145 -115 -385 -115q-243 0 -413 117
q-106 74 -163 168.5t-57 195.5q0 91 39.5 162.5t108.5 104.5q68 -84 147 -84q53 0 82 23.5t29 66.5q0 38 -35 67t-84 29q-63 0 -98 -23q-76 90 -76 174q0 85 50 143q49 58 124 58q54 0 113 -38q61 -38 82 -38q29 0 47 19t18 49q0 43 -52 73q-50 31 -126 31q-123 0 -218 -95
q-93 -94 -93 -224q0 -97 59 -195q-211 -121 -211 -395q0 -247 188 -399t498 -152q171 0 303 52.5t213 152.5q129 158 129 336q0 98 -35.5 177.5t-101.5 127.5z" />
    <glyph glyph-name="quotesingle" unicode="'" horiz-adv-x="348" 
d="M190 864l66 457q0 4 1 7q3 26 3 34q0 48 -22.5 74t-63.5 26q-84 0 -84 -102q0 -17 2 -39l66 -457h32z" />
    <glyph glyph-name="parenleft" unicode="(" horiz-adv-x="678" 
d="M354 -395q-147 278 -147 594q0 378 120 678t349 493l-27 33q-272 -203 -424 -476q-153 -273 -153 -554q0 -387 243 -791z" />
    <glyph glyph-name="parenright" unicode=")" horiz-adv-x="678" 
d="M262 1380q148 -280 148 -594q0 -379 -121 -678q-120 -299 -348 -493l26 -33q272 203 424 476q154 274 154 554q0 385 -244 791z" />
    <glyph glyph-name="asterisk" unicode="*" horiz-adv-x="1024" 
d="M500 1014q-87 48 -152 140q-3 4 -6.5 8.5t-6 8t-3.5 4.5q-54 64 -105 64q-35 0 -58.5 -23t-23.5 -57q0 -31 21.5 -55.5t60.5 -36.5q5 0 95 -16q93 -17 165 -60q-82 -49 -206 -63q-44 -5 -52 -8q-84 -27 -84 -93q0 -33 22 -56t54 -23q58 0 106 56q1 1 23 30q71 96 150 137
v-13q0 -74 -35 -168q-35 -93 -35 -120q0 -39 23 -63.5t59 -24.5q37 0 59.5 26.5t22.5 69.5q0 24 -35 114q-35 91 -35 162v17q89 -51 152 -140q5 -9 17 -23q54 -63 104 -63q34 0 58 23.5t24 56.5q0 29 -22.5 55t-57.5 38q-27 5 -100 16q-93 15 -162 57q83 50 206 65
q39 5 52 9q84 25 84 92q0 34 -22 57t-54 23q-59 0 -107 -58q-2 -2 -22 -28q-73 -98 -150 -137v12q0 75 35 168q35 94 35 121q0 38 -23.5 63t-58.5 25q-37 0 -59.5 -26.5t-22.5 -69.5q0 -24 35 -115q35 -90 35 -162v-16z" />
    <glyph glyph-name="plus" unicode="+" horiz-adv-x="1706" 
d="M795 1221v-551h-541v-117h541v-553h118v553h539v117h-539v551h-118z" />
    <glyph glyph-name="comma" unicode="," horiz-adv-x="559" 
d="M195 2q1 -2 1 -5t1 -4q6 -18 6 -26q0 -65 -72 -140q-71 -74 -192 -130l18 -33q165 63 252.5 157.5t87.5 209.5q0 70 -38.5 114.5t-98.5 44.5q-54 0 -85.5 -29.5t-31.5 -80.5q0 -39 28.5 -62.5t75.5 -23.5q21 0 48 8z" />
    <glyph glyph-name="hyphen" unicode="-" horiz-adv-x="674" 
d="M16 383h500l35 129h-498z" />
    <glyph glyph-name="period" unicode="." horiz-adv-x="559" 
d="M100 84q0 -45 31 -76t76 -31q46 0 77 31t31 76q0 46 -30.5 77.5t-75.5 31.5q-46 0 -77.5 -31.5t-31.5 -77.5z" />
    <glyph glyph-name="slash" unicode="/" horiz-adv-x="559" 
d="M-156 -190h82l711 1593h-84z" />
    <glyph glyph-name="zero" unicode="0" horiz-adv-x="1118" 
d="M209 266q0 117 49 326q66 288 133 450q131 322 324 322q182 0 182 -252q0 -140 -49 -346q-48 -209 -133 -428q-69 -176 -143 -255t-169 -79q-93 0 -143.5 68t-50.5 194zM408 -35q131 0 251.5 93t217.5 270q79 144 119 302q42 159 42 310q0 222 -87 343q-86 122 -242 122
q-123 0 -240.5 -87.5t-216.5 -252.5q-180 -300 -180 -627q0 -225 88 -349t248 -124z" />
    <glyph glyph-name="one" unicode="1" horiz-adv-x="1118" 
d="M373 257q-2 -6 -5.5 -19.5t-4.5 -18.5q-41 -153 -138 -168q-7 -1 -16 -2t-22 -2.5t-23 -2.5q-71 -8 -72 -28q0 -20 29 -20q1 0 4 0.5t8 1t10 0.5q111 10 242 10q134 0 261 -10q8 0 16.5 -0.5t13 -1t6.5 -0.5q12 0 20.5 4.5t8.5 9.5q0 27 -52 31q-9 1 -23 2.5t-15 1.5
q-74 11 -91 22q-18 13 -18 42q0 39 23 120l292 1104q3 12 8.5 29.5t9 28.5t3.5 12q0 14 -21 14q-5 0 -28 -13q-178 -91 -363 -91q-39 0 -39 -21q0 -22 29 -22q1 0 21 1t30 1q85 0 113 -16q28 -15 28 -56q0 -21 -10 -61l-2 -6z" />
    <glyph glyph-name="two" unicode="2" horiz-adv-x="1118" 
d="M53 0h643q6 0 40 -2t38 -2q32 0 51 61q3 11 8 26q23 66 59 138q36 71 36 78q0 20 -19 20q-17 0 -60 -72t-83 -85q-37 -12 -135 -16q-112 -5 -316 -5h-104h-68q141 126 412 335q28 22 74 58t61 48q176 139 244 243q67 103 67 219q0 162 -104 260q-103 99 -276 99
q-174 0 -284 -101t-110 -255q0 -166 45 -166q12 0 16.5 6t4.5 20q0 8 -4 33t-4 51q0 125 80 203q81 78 210 78q117 0 182.5 -65.5t65.5 -180.5q0 -105 -65 -209q-64 -103 -279 -303l-481 -453q-29 -23 -29 -43q1 -22 37 -22q3 0 21.5 2t25.5 2z" />
    <glyph glyph-name="three" unicode="3" horiz-adv-x="1118" 
d="M655 825q155 77 226 158.5t71 181.5q0 110 -83 175t-226 65q-87 0 -168 -21q-80 -19 -100 -38q-11 -11 -23 -54q-12 -44 -12 -84q0 -5 5.5 -9.5t12.5 -4.5q6 0 36 11q126 44 231 44q91 0 141.5 -38.5t50.5 -108.5q0 -101 -87 -176t-253 -117q-55 -13 -141 -24
q-92 -12 -92 -42q0 -11 10.5 -18.5t28.5 -7.5q14 0 68 16q59 17 102 17q113 0 171 -50t58 -147q0 -163 -120 -295t-326 -195q-94 -28 -205 -43q-57 -6 -69 -13q-15 -6 -15 -19q0 -23 55 -23q54 0 137 16q85 15 174 42q104 32 169 61q66 31 124 72q117 81 184 196
q66 114 66 232q0 96 -54 160.5t-147 80.5z" />
    <glyph glyph-name="four" unicode="4" horiz-adv-x="1118" 
d="M442 -16l174 16l123 481h179q24 0 39.5 24t15.5 58q0 15 -6 17l-46 -11q-41 -10 -83 -10h-76l147 565q20 77 49 161q31 93 31 116q0 16 -22 16q-13 0 -42 -29q-6 -6 -7 -8l-875 -845q-18 -17 -18 -33q0 -8 13 -12q14 -3 68 -3h472zM147 559q53 71 199 211
q135 130 416 379l-160 -590h-455z" />
    <glyph glyph-name="five" unicode="5" horiz-adv-x="1118" 
d="M391 1006l56 190q69 -10 176 -10q175 0 304 53q128 54 128 109q-1 18 -21 18l-4 -1q-1 -1 -2 -1.5t-3.5 -1t-4.5 -1.5q-88 -36 -207 -36q-145 0 -303 66q-36 14 -41 14q-17 0 -34 -77q-2 -11 -19 -81q-34 -131 -83 -265q-46 -125 -46 -128q0 -16 22 -16q1 0 4 0.5t8 1
t10 0.5q70 8 126 8q135 0 209.5 -68.5t74.5 -191.5q0 -171 -133 -317q-134 -148 -358 -218q-99 -31 -207 -41q-50 -6 -65 -12t-15 -18q0 -13 14.5 -18t53.5 -5q109 0 249 38q139 38 244 97q165 93 269 251q104 160 104 314q0 171 -108.5 260t-317.5 89q-40 0 -80 -2z" />
    <glyph glyph-name="six" unicode="6" horiz-adv-x="1118" 
d="M444 -35q220 0 370 159q151 158 151 390q0 146 -77 229q-76 84 -210 84q-73 0 -129.5 -26t-108.5 -84q-25 -30 -42 -61.5t-17 -49.5q0 -22 12 -22q16 0 39 35q10 17 25 36q50 60 86 80q37 21 84 21q78 0 122 -60t44 -168q0 -216 -106 -370t-251 -154q-100 0 -153.5 67.5
t-53.5 194.5q0 124 41.5 271.5t118.5 293.5q75 143 161.5 239t203.5 165q114 67 254 108q48 14 61.5 22.5t13.5 20.5q0 19 -39 19q-58 0 -196 -53t-266 -135q-228 -147 -366 -375q-138 -226 -138 -451q0 -202 97 -314t269 -112z" />
    <glyph glyph-name="seven" unicode="7" horiz-adv-x="1118" 
d="M188 4l-1 -2l-1 -2q-12 -18 -12 -25q0 -8 14 -8h162q47 0 61 26q2 3 17 42q78 214 193 440l434 857q8 14 8 20t-6.5 11t-16.5 5h-594q-44 0 -59.5 8.5t-22.5 33.5q-2 10 -4 39q-1 40 -20 40q-13 0 -24 -32l-3 -9l-110 -410q-6 -25 -6 -28q0 -23 14 -23q19 0 40 60
q10 30 26 68q25 60 59.5 84t95.5 24h496q12 -1 12 -11q0 -8 -6 -16z" />
    <glyph glyph-name="eight" unicode="8" horiz-adv-x="1118" 
d="M657 782q-137 118 -180 186q-43 67 -43 142q0 110 74 181t190 71q106 0 166 -65.5t60 -182.5q0 -96 -73 -187t-194 -145zM487 692q139 -117 190 -199q50 -80 50 -171q0 -145 -81.5 -225.5t-227.5 -80.5q-122 0 -191 69.5t-69 190.5q0 263 329 416zM453 725
q-422 -158 -422 -442q0 -143 103 -230q104 -86 278 -86q212 0 338 114q127 114 127 302q0 194 -191 367q365 135 365 360q0 126 -96 208q-95 83 -242 83q-185 0 -304 -104q-118 -103 -118 -263q0 -153 162 -309z" />
    <glyph glyph-name="nine" unicode="9" horiz-adv-x="1118" 
d="M37 -18q0 -17 24 -17q89 0 236 50q143 50 256 128q226 159 357 383q132 224 132 445q0 200 -98 316t-264 116q-244 0 -414 -221q-53 -70 -83.5 -156.5t-30.5 -167.5q0 -150 78 -237q80 -86 214 -86q78 0 137 29.5t115 97.5q21 25 36.5 56t15.5 44q0 24 -17 24t-35 -34
q-16 -31 -30 -50q-76 -90 -166 -90q-77 0 -125 61q-47 62 -47 163q0 98 38 207t105 198q90 121 217 121q100 0 151.5 -73t51.5 -214q0 -186 -111 -448q-127 -305 -364 -480q-116 -83 -316 -131q-12 -4 -18 -4q-28 -6 -36.5 -12t-8.5 -18z" />
    <glyph glyph-name="colon" unicode=":" horiz-adv-x="616" 
d="M39 88q0 -45 31.5 -76.5t76.5 -31.5q46 0 77.5 31.5t31.5 76.5t-31.5 76t-77.5 31t-77 -30.5t-31 -76.5zM240 782q0 -45 30.5 -75.5t75.5 -30.5q46 0 77.5 31t31.5 75q0 46 -32 77.5t-77 31.5q-46 0 -76 -31t-30 -78z" />
    <glyph glyph-name="semicolon" unicode=";" horiz-adv-x="616" 
d="M170 4q6 -23 6 -35q0 -65 -72 -141q-70 -75 -192 -131l18 -33q162 61 251 158.5t89 214.5q0 66 -38.5 109.5t-98.5 43.5q-54 0 -85.5 -29.5t-31.5 -80.5q0 -38 29.5 -62t77.5 -24q17 0 47 10zM240 778q0 -46 30.5 -77t75.5 -31q46 0 77.5 31.5t31.5 76.5q0 46 -31 76.5
t-76 30.5q-46 0 -77 -30.5t-31 -76.5z" />
    <glyph glyph-name="less" unicode="&#x3c;" horiz-adv-x="1706" 
d="M1442 1145l-1178 -483v-103l1178 -483v129l-1000 405l1000 408v127z" />
    <glyph glyph-name="equal" unicode="=" horiz-adv-x="1706" 
d="M254 477v-117h1198v117h-1198zM254 860v-117h1198v117h-1198z" />
    <glyph glyph-name="greater" unicode="&#x3e;" horiz-adv-x="1706" 
d="M264 1145v-127l1000 -408l-1000 -405v-129l1178 483v103z" />
    <glyph glyph-name="question" unicode="?" horiz-adv-x="1006" 
d="M250 82q0 -46 31 -77.5t77 -31.5q45 0 76 31.5t31 77.5t-31 77t-76 31q-46 0 -77 -31t-31 -77zM426 758q-73 -66 -103 -115.5t-30 -101.5q0 -71 47 -118q47 -46 121 -46q100 0 176 88l-29 29q-24 -30 -59 -48t-68 -18q-34 0 -54.5 18t-20.5 48q0 36 26.5 73t91.5 90
l154 125q98 82 137 150q39 69 39 155q0 141 -90 228q-89 88 -234 88q-118 0 -195 -65q-75 -64 -75 -167q0 -77 49 -126q49 -48 129 -48q70 0 113 37.5t43 98.5q0 41 -22 65.5t-60 24.5q-32 0 -53 -19.5t-21 -48.5q0 -32 25 -57q26 -24 26 -25q0 -13 -16 -21t-43 -8
q-53 0 -86 33.5t-33 87.5q0 83 60 136q62 53 157 53q87 0 143 -56t56 -141q0 -70 -31 -128t-102 -122z" />
    <glyph glyph-name="at" unicode="@" horiz-adv-x="2019" 
d="M1190 336q12 -211 207 -211q139 0 258 108q104 95 163 236q58 138 58 297q0 312 -207 499q-205 187 -553 187q-372 0 -635 -221q-164 -136 -250 -313t-86 -381q0 -197 78.5 -358.5t229.5 -274.5q239 -185 616 -185q357 0 655 222l-30 36q-285 -206 -613 -206
q-350 0 -581 196q-124 105 -181 234.5t-57 304.5q0 407 264 663q242 234 617 234q141 0 267 -43.5t216 -122.5q203 -179 203 -455q0 -174 -65 -315t-187 -231q-39 -30 -84.5 -48t-79.5 -18q-43 0 -68.5 27.5t-25.5 74.5q0 44 17 104q1 2 1 5l170 610h-143l-53 -180
q-44 195 -221 195q-76 0 -155 -36t-144 -100q-89 -84 -138 -192t-49 -217q0 -153 76 -244q77 -92 201 -92q185 0 309 211zM1098 965q74 0 120 -60q48 -60 48 -153q0 -90 -34 -198q-35 -109 -91 -202q-112 -178 -242 -178q-68 0 -108.5 54t-40.5 147q0 99 42 225
q44 128 115 234q47 69 92 100t99 31z" />
    <glyph glyph-name="at" unicode="&#xa0;" horiz-adv-x="2019" 
d="M1190 336q12 -211 207 -211q139 0 258 108q104 95 163 236q58 138 58 297q0 312 -207 499q-205 187 -553 187q-372 0 -635 -221q-164 -136 -250 -313t-86 -381q0 -197 78.5 -358.5t229.5 -274.5q239 -185 616 -185q357 0 655 222l-30 36q-285 -206 -613 -206
q-350 0 -581 196q-124 105 -181 234.5t-57 304.5q0 407 264 663q242 234 617 234q141 0 267 -43.5t216 -122.5q203 -179 203 -455q0 -174 -65 -315t-187 -231q-39 -30 -84.5 -48t-79.5 -18q-43 0 -68.5 27.5t-25.5 74.5q0 44 17 104q1 2 1 5l170 610h-143l-53 -180
q-44 195 -221 195q-76 0 -155 -36t-144 -100q-89 -84 -138 -192t-49 -217q0 -153 76 -244q77 -92 201 -92q185 0 309 211zM1098 965q74 0 120 -60q48 -60 48 -153q0 -90 -34 -198q-35 -109 -91 -202q-112 -178 -242 -178q-68 0 -108.5 54t-40.5 147q0 99 42 225
q44 128 115 234q47 69 92 100t99 31z" />
    <glyph glyph-name="A" unicode="A" horiz-adv-x="1341" 
d="M827 563l-14 -368v-9q-6 -117 -62 -135q-20 -7 -61 -13l-18 -3q-30 -3 -38.5 -7.5t-8.5 -15.5q0 -18 34 -18q7 0 85 6q80 6 151 6q102 0 204 -9q11 -1 21 -1q21 0 29 4.5t8 15.5q0 16 -44 22q-31 4 -48 9q-43 12 -59.5 37.5t-16.5 79.5v24l49 1172v10q0 37 -16 37
q-79 0 -145 -98q-11 -16 -25 -37l-789 -1114q-67 -97 -174 -123h-1q-33 -11 -33 -23q0 -8 8 -14t18 -6q11 0 67 7q55 7 111 7q61 0 129 -6t74 -6q29 0 29 20q0 7 -7 13t-16 6q-63 0 -99 17t-36 46q0 34 48 117q57 97 233 350h413zM457 627l397 553l-25 -553h-372z" />
    <glyph glyph-name="B" unicode="B" horiz-adv-x="1346" 
d="M420 1133l-254 -922q-24 -84 -44 -113q-20 -30 -57 -43q-25 -9 -69 -14h-3q-48 -7 -48 -27q0 -9 12.5 -15.5t30.5 -6.5q6 0 28 3q99 11 185 11q50 0 143 -3t137 -3q224 0 344 31q121 31 195 104q115 118 115 283q0 138 -100 220t-294 103q232 31 340.5 113t108.5 225
q0 148 -106.5 219.5t-327.5 71.5q-22 0 -124 -2t-106 -2q-89 0 -174 7q-14 1 -26 1q-20 0 -32.5 -6t-12.5 -14q0 -16 50 -21q4 0 11.5 -0.5t10.5 -1.5q49 -5 70 -23t21 -55q0 -35 -24 -120zM514 771l133 482q12 45 37.5 61.5t83.5 16.5q233 0 233 -217q0 -171 -105.5 -258.5
t-311.5 -87.5q-53 0 -70 3zM375 254l125 465q8 0 34 1t33 1q192 0 278.5 -56t86.5 -180q0 -97 -34 -193q-35 -98 -85 -149t-122.5 -74.5t-180.5 -23.5q-156 0 -156 96q0 30 21 113z" />
    <glyph glyph-name="C" unicode="C" horiz-adv-x="1341" 
d="M1077 36l76 298q16 60 16 74q0 9 -6.5 15.5t-15.5 6.5q-22 0 -51 -65q-4 -8 -27 -58q-157 -297 -436 -297q-338 0 -338 422q0 170 56 355q57 183 155 323q180 256 389 256q135 0 208 -85.5t73 -242.5q0 -2 -1 -12t-1 -14q0 -35 22 -35q16 0 24 32q2 8 3 11l57 297
q0 1 1 6t1 6q0 27 -22 27q-12 0 -32 -24q-20 -23 -30 -23q-9 0 -43 19q-138 75 -272 75q-147 0 -282 -61q-137 -62 -234 -171q-133 -148 -207 -322q-72 -173 -72 -345q0 -254 137 -397q138 -142 383 -142q132 0 379 98q23 0 32 -33q11 -32 23 -32q11 0 21 11t14 27z" />
    <glyph glyph-name="D" unicode="D" horiz-adv-x="1470" 
d="M420 1123l-252 -912q-24 -85 -45 -114q-19 -28 -56 -42q-25 -9 -69 -14q-2 0 -3 -1q-46 -6 -46 -26q0 -22 41 -22q6 0 30 3q111 13 228 13q50 0 134 -4q85 -4 153 -4q216 0 366 59q146 58 268 193q211 234 211 551q0 275 -178 423t-512 148q-234 0 -327 -10
q-97 -10 -97 -33q0 -19 86 -27q9 -1 20 -1q36 -4 52 -22t16 -54q0 -29 -16 -89q-1 -4 -2.5 -9t-1.5 -6zM633 1188q26 86 52 108q29 23 87 23q191 0 298 -113q108 -112 108 -311q0 -146 -40 -296q-41 -152 -112 -280q-72 -131 -190 -199.5t-271 -68.5q-121 0 -164 22t-43 81
q0 58 17 118z" />
    <glyph glyph-name="E" unicode="E" horiz-adv-x="1360" 
d="M408 1133l-254 -922q-25 -86 -45 -115q-19 -27 -54 -41q-25 -9 -69 -14h-3q-49 -7 -49 -27q0 -22 41 -22h3t4 0.5t5.5 1t6.5 0.5q111 12 237 12q107 0 407 -5q302 -5 404 -5q30 122 55 213q31 108 31 119q0 24 -18 24q-16 0 -47 -66q-33 -68 -76 -116q-63 -69 -144 -97
t-272 -28q-135 0 -178 22t-43 78t14 106l121 460h129q112 0 150 -39q39 -39 39 -152q0 -6 -1 -23.5t-1 -21.5q0 -20 22 -20q21 0 37 117q10 80 21 135q11 69 35 161q24 86 24 95q0 28 -14 28q-16 0 -38 -57t-46 -90q-34 -46 -84 -66q-50 -18 -156 -18h-104l104 364
q19 66 35 117q3 8 10.5 33.5t11.5 38.5h144q201 0 261 -28q62 -27 99 -97q12 -23 28 -78q17 -53 36 -53q18 0 18 41l-1 9q-1 9 -4 31t-6 46q-11 90 -11 166v18q-81 -5 -223 -6q-190 -2 -373 -2q-97 0 -195 7t-119 7q-19 0 -32 -6t-13 -14q0 -10 10 -14.5t41 -6.5q11 0 21 -2
q50 -5 71 -23t21 -55q0 -30 -24 -120z" />
    <glyph glyph-name="F" unicode="F" horiz-adv-x="1233" 
d="M373 219l137 492h129q111 0 149 -39q39 -39 39 -152q0 -6 -2 -23.5t-2 -21.5q0 -20 25 -20q21 0 37 118q9 71 20 133q11 65 37 163q23 87 23 94q0 28 -17 28q-16 0 -36 -56q-19 -55 -46 -91q-33 -46 -83 -66q-49 -18 -156 -18h-105l105 364q26 93 34 117q5 15 13.5 42
t9.5 30h129q199 0 260 -27q60 -26 98 -98q15 -28 29 -78q15 -53 35 -53q18 0 18 41q0 6 -10 86t-10 166v18q-166 -8 -492 -8q-186 0 -366 12q-9 0 -17.5 0.5t-13 1t-6.5 0.5q-20 0 -32.5 -6t-12.5 -14q0 -10 9.5 -14.5t41.5 -6.5q11 0 21 -2q50 -5 71 -23t21 -55
q0 -31 -25 -120l-254 -922q-22 -84 -44 -113q-20 -30 -57 -43q-25 -9 -69 -14q-2 0 -3 -1q-46 -6 -46 -26q0 -22 41 -22q1 0 4 0.5t9 1t11 0.5q96 12 189 12q133 0 260 -12q5 0 9.5 -0.5t7 -1t5 -0.5h3.5q14 0 24 6.5t10 13.5q0 21 -49 24q-44 1 -73 9q-54 12 -54 76
q0 41 17 98z" />
    <glyph glyph-name="G" unicode="G" horiz-adv-x="1460" 
d="M1174 80l57 326q8 43 31 64t70 28q11 2 32 3q41 2 41 19q0 23 -35 23q-1 0 -58 -6q-63 -5 -112 -5q-74 0 -183 8q-100 9 -122 9q-43 0 -43 -21q0 -22 54 -25q28 -1 52 -5q41 -8 53 -26q13 -17 13 -73q0 -188 -102 -290.5t-289 -102.5q-165 0 -253.5 107t-88.5 307
q0 194 69 396q69 205 183 347q157 199 350 199q149 0 231 -84.5t82 -237.5q0 -7 -1 -20t-1 -14q0 -39 25 -39t34 75q3 26 11 77q7 46 26 119q19 66 19 83q0 10 -6 16t-15 6q-14 0 -33 -28q-19 -27 -32 -27q-11 0 -50 24q-151 93 -306 93q-308 0 -545 -275
q-118 -135 -183 -303q-65 -169 -65 -335q0 -246 141 -386q140 -139 391 -139q124 0 279 57q36 14 47 17q123 41 203 41q2 0 13.5 -1t15.5 -1z" />
    <glyph glyph-name="H" unicode="H" horiz-adv-x="1683" 
d="M1255 219l273 983q17 59 35 82q19 23 49 35q22 9 56 14q38 6 38 23q0 9 -10 15.5t-25 6.5q-10 0 -21 -1q-116 -11 -229 -11q-90 0 -175 7q-15 1 -27 1q-20 0 -32.5 -6t-12.5 -14q0 -18 48 -21q5 0 13.5 -0.5t12.5 -1.5q47 -5 68 -23.5t21 -54.5q0 -38 -24 -120l-109 -396
h-688l131 465q19 60 36 82q19 23 48 35q28 11 74 14q47 3 47 23q0 8 -11 14t-28 6q-11 0 -24 -1q-111 -9 -220 -9q-113 0 -210 7q-11 1 -21 1q-20 0 -32.5 -6t-12.5 -14q0 -16 50 -21q4 0 11.5 -0.5t10.5 -1.5q50 -5 71 -23t21 -55q0 -31 -25 -120l-254 -922
q-22 -84 -44 -113q-20 -30 -57 -43q-25 -9 -69 -14q-2 0 -3 -1q-46 -6 -46 -26q0 -22 41 -22q2 0 5.5 0.5t10 1t11.5 0.5q97 12 186 12q127 0 252 -12q6 0 11.5 -0.5t8.5 -1t4 -0.5q9 0 17 7t8 13q0 20 -43 24q-32 4 -68 13q-47 12 -47 72q0 42 17 98l127 457h688l-127 -465
q-24 -84 -44 -113q-20 -30 -57 -43q-25 -9 -69 -14q-2 0 -4 -1q-45 -6 -45 -26q0 -22 41 -22q5 0 28 3q99 11 183 11q128 0 252 -12q4 0 8.5 -0.5t7 -1t5 -0.5h3.5q9 0 17 7t8 13q-1 20 -42 24q-34 4 -67 13q-47 12 -47 72q0 46 16 98z" />
    <glyph glyph-name="I" unicode="I" horiz-adv-x="782" 
d="M373 219l274 983q17 59 35 82q19 23 49 35q28 11 74 14q47 3 47 23q0 8 -11 14t-28 6q-11 0 -24 -1q-111 -9 -220 -9q-113 0 -210 7q-11 1 -21 1q-20 0 -32.5 -6t-12.5 -14q0 -16 50 -21q4 0 11.5 -0.5t10.5 -1.5q50 -5 71 -23t21 -55q0 -31 -25 -120l-254 -922
q-22 -84 -44 -113q-20 -30 -57 -43q-25 -9 -69 -14q-2 0 -3 -1q-46 -6 -46 -26q0 -22 41 -22q2 0 5.5 0.5t10 1t11.5 0.5q97 12 186 12q127 0 252 -12q6 0 11.5 -0.5t8.5 -1t4 -0.5q9 0 17 7t8 13q0 20 -43 24q-32 4 -68 13q-47 12 -47 72q0 42 17 98z" />
    <glyph glyph-name="J" unicode="J" horiz-adv-x="905" 
d="M508 1133l-358 -1299q-58 -205 -115 -287q-58 -84 -139 -84q-38 0 -60 15.5t-22 40.5q0 6 1 22.5t1 20.5q0 94 -90 94q-36 0 -59 -24.5t-23 -63.5q0 -65 67 -105q67 -41 174 -41q180 0 292 115q113 116 185 375l359 1290q17 59 35 82q19 23 49 35q29 11 75 14q48 3 48 23
q0 8 -11 14t-28 6q-11 0 -24 -1q-111 -9 -220 -9q-113 0 -210 7q-11 1 -21 1q-20 0 -32.5 -6t-12.5 -14q0 -17 49 -21q4 0 11 -0.5t10 -1.5q50 -5 71.5 -23t21.5 -55q0 -35 -24 -120z" />
    <glyph glyph-name="K" unicode="K" horiz-adv-x="1462" 
d="M373 219l125 443l49 28l350 -543q12 -18 12 -43q0 -24 -13 -35.5t-52 -21.5q-24 -6 -43 -6q-27 -4 -34 -8.5t-7 -16.5q0 -22 37 -22q7 0 34 3q93 9 175 9q138 0 268 -12q6 0 11.5 -0.5t8.5 -1t4 -0.5q29 0 29 20q0 19 -41 24q-30 5 -47 9q-71 22 -125 102l-412 627
q305 215 571 454q47 42 50 44q50 36 107 51q59 15 59 33q0 6 -9.5 12t-23.5 6q-1 0 -11 -1t-15 -1q-66 -8 -152 -8q-100 0 -159 6q-9 0 -28.5 1t-21.5 1q-35 0 -35 -18q0 -20 49 -23q32 -2 44 -4q63 -11 63 -57q0 -60 -177 -201q-172 -137 -499 -336l133 469q19 60 36 82
q19 23 48 35q28 11 74 14q47 3 47 23q0 8 -11 14t-28 6q-9 0 -25 -2q-1 0 -31 -2q-112 -8 -188 -8q-94 0 -191 7q-9 1 -19 1q-14 2 -21 2q-20 0 -32.5 -6t-12.5 -14q0 -16 50 -21q4 0 11.5 -0.5t10.5 -1.5q50 -5 71 -23t21 -55q0 -31 -25 -120l-254 -922q-22 -84 -44 -113
q-20 -30 -57 -43q-25 -9 -69 -14q-2 0 -3 -1q-46 -6 -46 -26q0 -22 41 -22q2 0 5.5 0.5t10 1t11.5 0.5q97 12 186 12q127 0 252 -12q6 0 11.5 -0.5t8.5 -1t4 -0.5q9 0 17 7t8 13q0 20 -43 24q-32 4 -68 13q-47 12 -47 72q0 42 17 98z" />
    <glyph glyph-name="L" unicode="L" horiz-adv-x="1233" 
d="M365 219l274 983q17 59 35 82q19 23 49 35q28 11 74 14q47 3 47 23q0 8 -11 14t-28 6q-11 0 -24 -1q-111 -9 -220 -9q-113 0 -210 7q-11 1 -21 1q-20 0 -32.5 -6t-12.5 -14q0 -16 50 -21q4 0 11.5 -0.5t10.5 -1.5q49 -5 70.5 -23t21.5 -55q0 -31 -25 -120l-254 -922
q-22 -84 -44 -113q-20 -30 -57 -43q-25 -9 -69 -14q-2 0 -3 -1q-46 -6 -46 -26q0 -22 41 -22q15 0 48 4q37 4 64 6q15 1 56 1q23 1 125 1h297q39 0 307 -6q35 -1 71 -1.5t70 -1.5t49 -1q24 111 57 216q33 106 33 107q0 29 -20 29q-19 0 -56 -75q-36 -74 -79 -117
q-56 -58 -165 -84q-107 -25 -306 -25q-131 0 -163 15q-32 17 -32 61q0 42 17 98z" />
    <glyph glyph-name="M" unicode="M" horiz-adv-x="1907" 
d="M440 1128l-262 -895q-42 -139 -102 -167q-38 -20 -87 -27q-50 -8 -50 -23q0 -8 9 -14t23 -6l22 2q69 8 122 8q126 0 239 -10q5 0 11 -0.5t9.5 -1t4.5 -0.5q15 0 26 5.5t11 12.5q0 17 -44 23q-36 5 -67 14q-59 17 -59 88q0 64 53 265l2 8l231 862l211 -1233
q5 -21 10.5 -27t16.5 -6q18 0 47 47l699 1184l-179 -1026q-20 -127 -101 -156q-27 -9 -69 -14q-2 0 -3 -1q-46 -6 -46 -26q0 -22 41 -22q2 0 5.5 0.5t10 1t11.5 0.5q98 12 186 12q128 0 252 -12q5 0 9.5 -0.5t7 -1t5 -0.5h3.5q8 0 16 7t8 13q0 20 -42 24q-21 1 -42 5
q-73 16 -73 74q0 28 4 49l172 983q13 74 27 107.5t38 48.5q28 17 80 23q53 6 53 24t-30 18h-15h-4q-69 -6 -135 -6q-45 0 -110 5q-3 1 -7 1h-20q-22 0 -35.5 -10t-30.5 -39l-620 -1038l-183 1055q-6 32 -51 32q-4 0 -14 -2q-36 -4 -117 -4q-72 0 -153 6h-4q-18 2 -25 2
q-8 0 -15.5 -6t-7.5 -12q0 -18 53 -23q10 -1 25.5 -2.5t16.5 -1.5q36 -5 50.5 -16.5t14.5 -34.5q0 -36 -33 -146z" />
    <glyph glyph-name="N" unicode="N" horiz-adv-x="1569" 
d="M270 330l201 800l533 -1118q21 -47 53 -47q30 0 47 66l211 807q43 165 91 299q42 118 73 149q30 29 103 42q3 1 7 1q32 4 42.5 9.5t10.5 17.5q0 22 -34 22q-1 0 -13 -1t-18 -1t-11 -1q-102 -11 -177 -11q-84 0 -168 10q-5 0 -11.5 0.5t-10 1t-5.5 0.5q-31 0 -31 -22
q0 -17 42 -23q40 -6 65 -14q65 -23 65 -96q0 -60 -30 -181l-203 -809l-529 1094q-14 29 -23.5 36t-33.5 7q-14 0 -61 -3t-76 -3q-44 0 -81 4q-36 4 -44 4q-14 0 -23.5 -6t-9.5 -14q0 -19 47 -24q50 -5 78 -13q27 -10 46.5 -35t37.5 -74q-1 -41 -12 -77l-158 -595
q-46 -173 -92 -299q-44 -119 -72 -147q-34 -31 -110 -45q-32 -4 -43 -9.5t-11 -17.5q0 -22 37 -22q7 0 32 3q102 11 187 11q83 0 166 -10q5 0 11.5 -0.5t10 -1t5.5 -0.5q32 0 33 22q0 18 -45 25h-2q-36 5 -61 14q-36 12 -51 34.5t-15 62.5q0 58 30 178z" />
    <glyph glyph-name="O" unicode="O" horiz-adv-x="1460" 
d="M283 401q0 179 63 379t168 350q162 234 354 234q141 0 223 -99q83 -100 83 -268q0 -139 -40 -295q-40 -159 -112 -305q-189 -389 -451 -389q-137 0 -212.5 103t-75.5 290zM578 -33q136 0 267 57q132 57 232 160q138 141 213 320q76 177 76 364q0 249 -132 393t-360 144
q-138 0 -265 -54t-226 -155q-297 -297 -297 -700q0 -251 130 -390t362 -139z" />
    <glyph glyph-name="P" unicode="P" horiz-adv-x="1346" 
d="M367 219l118 436q127 -12 211 -12q278 0 433 110q155 111 155 308q0 163 -121 236q-119 73 -395 73q-38 0 -109 -3t-102 -3q-67 0 -150 5q-21 1 -40 2.5t-27 2.5h-8q-20 0 -32.5 -6t-12.5 -14q0 -10 9.5 -14.5t41.5 -6.5q11 0 21 -2q49 -5 70.5 -23t21.5 -55
q0 -31 -25 -120l-254 -922q-22 -84 -44 -113q-20 -30 -57 -43q-25 -9 -69 -14q-2 0 -3 -1q-46 -6 -46 -26q0 -22 41 -22q5 0 28 3q101 11 185 11q127 0 252 -12q4 0 8.5 -0.5t7 -1t5 -0.5h3.5q9 0 17 7t8 13q0 20 -43 24q-32 4 -68 13q-47 12 -47 72q0 41 17 98zM500 701
l133 481q25 94 56 120q31 27 130 27q125 0 195.5 -64t70.5 -178q0 -181 -115 -287t-315 -106q-56 0 -155 7z" />
    <glyph glyph-name="Q" unicode="Q" horiz-adv-x="1460" 
d="M485 -12l-108 -68q-7 -4 -24 -15q-90 -58 -138 -71q-5 -2 -28 -3q-28 -4 -41 -7q-54 -12 -54 -53q0 -21 12.5 -34t32.5 -13q19 0 104 46t165 46q94 0 184 -38q88 -39 215 -143q23 -18 39 -32q212 -174 379 -174q147 0 245 102q42 42 73 109q30 65 30 104q0 12 -5 20.5
t-12 8.5q-11 0 -28 -38q-15 -34 -37 -63q-79 -90 -186 -90q-91 0 -318 111q-14 7 -34.5 17t-28.5 14q-300 145 -441 145q-53 0 -129 -23l154 101q50 30 152 45q104 14 153 33q135 51 228 128q94 80 175 214q74 122 114 254t40 253q0 237 -135 384t-350 147
q-160 0 -306.5 -76.5t-265.5 -222.5q-221 -273 -221 -612q0 -219 100 -347.5t295 -158.5zM283 401q0 179 63 379t168 350q162 234 354 234q141 0 223 -99q83 -100 83 -268q0 -139 -40 -295q-40 -159 -112 -305q-189 -389 -451 -389q-137 0 -212.5 103t-75.5 290z" />
    <glyph glyph-name="R" unicode="R" horiz-adv-x="1460" 
d="M510 729l133 485q18 65 55 89q38 24 136 24q136 0 212 -61.5t76 -171.5q0 -166 -133 -266q-132 -99 -356 -99h-123zM367 220l127 458q78 2 127 2q149 0 205 -49q57 -49 57 -174q0 -7 -2 -47l-9 -144q0 -4 -1 -18t-1 -19q0 -128 56 -187.5t176 -59.5q93 0 169 44
q75 45 75 87q0 14 -11 14q-4 0 -53 -34q-47 -34 -102 -34t-81.5 38.5t-29.5 122.5l-6 151q-6 144 -73 217q-66 74 -222 114q272 23 410.5 122t138.5 270q0 276 -434 276q-92 0 -193 -4q-100 -4 -149 -4q-66 0 -217 14q-17 0 -27 -6.5t-10 -15.5q0 -10 9.5 -14.5t41.5 -6.5
q11 0 21 -2q49 -5 70.5 -23t21.5 -55q0 -31 -25 -120l-254 -922q-22 -84 -44 -113q-20 -30 -57 -43q-25 -9 -69 -14q-2 0 -3 -1q-46 -6 -46 -26q0 -22 41 -22q5 0 28 3q99 11 183 11q127 0 252 -12q4 0 8.5 -0.5t7 -1t5 -0.5h3.5q9 0 17 7t8 13q0 20 -42 24q-31 4 -67 13
q-49 13 -49 72q0 34 19 99z" />
    <glyph glyph-name="S" unicode="S" horiz-adv-x="1124" 
d="M74 37q15 0 32 26q16 27 29 27q7 0 48 -26q45 -28 75 -44q102 -55 236 -55q200 0 309 108q110 110 110 304q0 104 -62 204t-271 285q-162 144 -162 273q0 95 65 157t166 62q125 0 200 -81t75 -218v-23q0 -39 20 -41q21 0 28 67q8 57 15 95q11 59 27 114q16 54 16 58
q0 10 -6 16.5t-16 6.5q-12 0 -32 -24q-20 -23 -34 -23q-5 0 -104 49t-203 49q-157 0 -264 -99q-105 -98 -105 -243q0 -177 309 -472q6 -6 14.5 -14t10.5 -10q148 -142 148 -291q0 -117 -74 -191q-73 -73 -191 -73q-120 0 -210 75q-91 77 -113 195q-7 35 -11 76q-7 66 -26 66
q-25 0 -31 -82q-4 -68 -12 -114q-6 -42 -18 -100q-11 -60 -11 -69q0 -8 6.5 -14t16.5 -6z" />
    <glyph glyph-name="T" unicode="T" horiz-adv-x="1341" 
d="M616 221l299 1104h99q104 0 180.5 -31.5t112.5 -89.5q23 -39 32 -105q10 -67 33 -67q17 0 19 25l-7 307q-43 4 -100 4h-1022q-32 0 -69 -4l-76 -278q-2 -6 -2 -11q0 -10 5 -17t11 -7q19 0 42 57t48 86q112 131 354 131h150l-305 -1114q-24 -86 -45 -115q-21 -27 -62 -41
q-31 -10 -77 -14h-5q-2 0 -4 -1q-49 -6 -49 -26q0 -22 47 -22q2 0 5.5 0.5t11 1t13.5 0.5q107 12 206 12q132 0 263 -12q5 0 10 -0.5t8.5 -1t6 -0.5h3.5q12 0 23 6.5t11 13.5q0 21 -52 25q-48 5 -81 12q-55 12 -55 74q0 33 18 98z" />
    <glyph glyph-name="U" unicode="U" horiz-adv-x="1577" 
d="M233 535q-32 -117 -32 -216q0 -170 113.5 -261t326.5 -91q132 0 229.5 38.5t173.5 119.5q55 59 103 175q51 122 110 333l144 516q36 120 96 151q26 14 67 26q5 1 11 3q41 6 41 25q0 9 -10 15.5t-25 6.5q-1 0 -4.5 -0.5t-9.5 -1t-11 -0.5q-88 -8 -155 -8q-87 0 -156 8
q-7 0 -21 1l-14 1q-36 0 -36 -24q0 -10 8.5 -14.5t40.5 -8.5q3 0 6 -1q7 -1 19.5 -3.5l17.5 -3.5q65 -13 65 -88q0 -78 -47 -286q-43 -192 -127 -460q-79 -254 -184 -356q-103 -100 -279 -100q-152 0 -233.5 71.5t-81.5 204.5q0 78 29 182l176 633q27 94 50 137t54 56
q31 14 72 14q2 0 3 1q46 6 46 26t-35 20q-9 0 -20 -1q-98 -9 -197 -9q-129 0 -250 9q-11 1 -20 1q-18 0 -29.5 -6.5t-11.5 -15.5q0 -16 44 -21q45 -5 66 -12q32 -11 44 -28.5t12 -53.5q0 -48 -33 -174z" />
    <glyph glyph-name="V" unicode="V" horiz-adv-x="1341" 
d="M342 1182l-45 -1159v-17q0 -24 7.5 -33.5t25.5 -9.5q37 0 71 47l844 1161q55 75 85 105q34 34 59 43q21 10 52 17q35 9 36 24q0 18 -37 18q-7 0 -21 -2q-4 0 -8 -1q-74 -11 -129 -11q-54 0 -130 6q-26 2 -27 2q-24 2 -38 2q-45 0 -45 -20q0 -18 49 -19q35 -2 48 -4
q59 -10 59 -57q0 -70 -192 -340l-525 -731l37 973q6 122 64 143q30 10 77 15q48 4 48 24q0 18 -27 18q-20 0 -106 -6q-85 -6 -152 -6q-53 0 -110 4t-85 4h-18q-21 0 -28 -4t-7 -14q1 -16 45 -22q34 -5 49 -9q41 -12 57.5 -37t16.5 -78v-26z" />
    <glyph glyph-name="W" unicode="W" horiz-adv-x="1907" 
d="M309 27v-17q0 -45 29 -45q20 0 37 12q19 12 51 58q280 397 641 1044l-37 -1067v-6q0 -41 37 -41q36 0 140 149q113 164 397 640q73 123 155 271q130 234 178 273q25 19 64 33q39 13 39 27q0 5 -8 9.5t-17 4.5q-1 0 -14 -1t-19 -1q-44 -4 -96 -4q-102 0 -157 6
q-9 0 -25.5 1t-17.5 1q-18 0 -29.5 -6t-11.5 -14q0 -16 31 -23q1 0 4 -1l3 -1q33 0 54 -8q27 -11 37 -26t10 -44q0 -63 -133 -298q-128 -227 -434 -705l30 893q5 95 13 125q9 33 28 43q28 16 77 22q50 6 50 25q0 16 -37 16q-11 0 -25 -1q-120 -5 -216 -5q-76 0 -147 7
q-12 1 -23 1q-50 0 -52 -24q0 -10 12.5 -16.5t30.5 -6.5q2 0 10 1t11 1q88 0 88 -74q0 -64 -128 -291q-130 -231 -443 -716l39 936q1 109 45 127q34 16 86 22q51 7 51 23q0 20 -35 20q-1 0 -9.5 -0.5t-28.5 -2t-41 -2.5q-82 -5 -144 -5q-95 0 -217 5q-14 1 -25 1
q-35 0 -35 -20q0 -16 38 -22q1 -1 3 -1q41 0 80 -14q51 -21 51 -115v-24z" />
    <glyph glyph-name="X" unicode="X" horiz-adv-x="1341" 
d="M602 670l-246 -277q-48 -55 -144 -170q-90 -109 -116 -129q-46 -36 -125 -51q-29 -7 -38 -11.5t-9 -13.5q0 -20 39 -20q14 0 31 1q108 7 223 7q74 0 144 -10q4 0 8.5 -0.5t6.5 -1t3 -0.5q10 0 17 6t7 14q0 18 -46 24q-30 3 -46 7q-39 9 -54 22t-15 37q0 34 50 114
q49 79 130 169l205 227l153 -348q47 -105 47 -160q0 -28 -13.5 -42t-49.5 -21q-16 -3 -40 -6q-48 -5 -48 -25q0 -7 9 -13.5t20 -6.5q6 0 20 2q9 0 36 3q109 9 200 9q78 0 180 -8q4 0 8.5 -0.5t7 -1t5 -0.5h3.5q14 -2 19 -2q16 0 26.5 6t10.5 14q0 19 -36 22q-37 3 -53 9
q-67 23 -106 115l-264 604l383 420q57 63 96 92q43 32 86 47q21 7 38 10q36 7 36 23q0 18 -29 18q-8 0 -18 -2q-48 -4 -172 -4q-135 0 -178 4q-14 2 -19 2q-41 0 -41 -22q0 -17 47 -22q18 -1 31 -3q42 -6 57 -18t15 -39q0 -38 -54 -103l-299 -358l-161 379q-23 47 -23 76
q0 31 22.5 46.5t75.5 20.5q1 0 2.5 0.5t3 0.5t4 0.5t4.5 0.5q44 5 44 19q0 11 -12.5 18.5t-32.5 7.5q-9 0 -18 -1q-91 -9 -187 -9h-67q-48 2 -111 2q-4 0 -42 2t-46 2q-37 0 -37 -22q0 -17 42 -20t72 -15q58 -24 101 -123z" />
    <glyph glyph-name="Y" unicode="Y" horiz-adv-x="1110" 
d="M514 221l98 359l488 594q4 4 14 17t15 19q77 96 110 107q6 2 31 8q37 7 37 23q0 20 -35 20q-8 0 -18 -2q-43 -4 -150 -4q-96 0 -149 8q-16 2 -23 2q-33 0 -33 -24q0 -15 40 -19q27 -2 38 -4q38 -8 55 -23t17 -40q0 -50 -80 -163q-87 -123 -254 -313l-115 -131l-135 512
q-14 54 -14 86q0 30 12.5 45t44.5 23q15 4 51 7q51 4 51 24t-35 20q-7 0 -25 -2q-9 0 -19 -1q-87 -7 -173 -7q-55 0 -137 8q-11 0 -36.5 1t-28.5 1q-54 0 -54 -22q0 -19 40 -23t58 -12q40 -17 58 -84l166 -631l-105 -389q-22 -85 -44 -115q-21 -27 -62 -41q-31 -10 -78 -14
h-4q-2 0 -4 -1q-49 -6 -49 -26q0 -22 47 -22q2 0 5.5 0.5t11 1t13.5 0.5q109 12 212 12q137 0 265 -12q5 0 11 -0.5t8.5 -1t3.5 -0.5q11 0 21 7t10 13q0 21 -52 25q-50 5 -81 12q-55 12 -55 74q0 44 16 98z" />
    <glyph glyph-name="Z" unicode="Z" horiz-adv-x="1229" 
d="M13 48q-13 -20 -13 -30t11 -14t42 -4h871q16 0 42 6q57 148 77 199q44 111 44 121q0 16 -18 16q-15 0 -41 -44q-29 -49 -47 -71q-77 -98 -180 -139q-101 -39 -289 -39h-272l942 1283q6 8 6 18t-6.5 14t-26.5 4h-774q-31 0 -41 -6q-27 -66 -77 -164q-44 -90 -44 -100
q0 -27 17 -27q12 0 69 71q58 71 123 118q93 65 287 65h235z" />
    <glyph glyph-name="bracketleft" unicode="[" horiz-adv-x="674" 
d="M444 1368l-487 -1759h373l12 59h-240l465 1639h242l12 61h-377z" />
    <glyph glyph-name="backslash" unicode="\" horiz-adv-x="559" 
d="M35 1403l430 -1593h82l-428 1593h-84z" />
    <glyph glyph-name="bracketright" unicode="]" horiz-adv-x="674" 
d="M117 -391l487 1759h-373l-12 -61h240l-465 -1637h-242l-12 -61h377z" />
    <glyph glyph-name="asciicircum" unicode="^" 
d="M934 1462l-522 -565h90l520 436l518 -436h92l-520 565h-178z" />
    <glyph glyph-name="underscore" unicode="_" horiz-adv-x="1024" 
d="M0 -365v-118h1024v118h-1024z" />
    <glyph glyph-name="grave" unicode="`" horiz-adv-x="1024" 
d="M774 1036l-223 314q-31 41 -64 41q-24 0 -38.5 -14t-14.5 -36q0 -25 45 -69l15 -15l225 -221h55z" />
    <glyph glyph-name="a" unicode="a" horiz-adv-x="1010" 
d="M115 160q0 180 157 467q141 256 275 256q48 0 77 -33t29 -88q0 -90 -48 -236q-48 -145 -130 -293q-64 -116 -121 -167.5t-121 -51.5q-52 0 -85 40.5t-33 105.5zM530 256q-28 -105 -28 -162q0 -60 32 -91.5t93 -31.5q89 0 160 89.5t118 261.5l-33 12q-54 -148 -105 -226.5
t-93 -78.5q-21 0 -34 14t-13 37q0 64 26 162l172 595q6 19 6 42q0 34 -81 34q-22 0 -27 -16l-31 -109q-15 64 -57 100t-103 36q-88 0 -193 -69q-104 -67 -192 -185q-80 -110 -125 -226t-45 -211q0 -121 59.5 -191.5t162.5 -70.5q213 0 331 285z" />
    <glyph glyph-name="b" unicode="b" horiz-adv-x="901" 
d="M88 432l-12 -44q-33 -124 -33 -185q0 -108 52 -168t147 -60q107 0 208.5 59.5t186.5 170.5q75 97 119 216q43 116 43 222q0 132 -54.5 208.5t-148.5 76.5q-175 0 -309 -246l227 793l-315 -39l-13 -50q1 1 6 1q28 4 44 4q49 0 68.5 -11t19.5 -39q-2 -20 -7 -41l-2 -6z
M166 147q0 85 45 242q48 157 86 234q63 119 132.5 186.5t129.5 67.5q47 0 75 -39t28 -107q0 -95 -38 -227q-36 -124 -106 -264q-113 -226 -244 -226q-108 0 -108 133z" />
    <glyph glyph-name="c" unicode="c" horiz-adv-x="786" 
d="M608 268l-33 19q-135 -267 -301 -267q-59 0 -91.5 42t-32.5 118q0 109 50 268q52 160 136 302q79 135 178 135q25 0 42 -8t17 -19q0 -2 -14 -27q-14 -23 -14 -51q0 -27 19 -43t52 -16q27 0 47.5 24t20.5 56q0 55 -47 91t-121 36q-91 0 -193 -72q-104 -73 -188 -199
q-135 -198 -135 -403q0 -139 63 -210t187 -71q230 0 358 295z" />
    <glyph glyph-name="d" unicode="d" horiz-adv-x="1020" 
d="M537 301q-27 -151 -27 -203q0 -54 31.5 -89.5t79.5 -35.5q183 0 288 336l-35 15q-115 -289 -198 -289q-18 0 -28.5 18t-10.5 49q0 49 25 180q26 137 69 298l234 895l-316 -39l-12 -50q2 1 5 1.5t5 0.5q25 3 37 3q50 0 70 -11.5t20 -38.5q0 -5 -5 -32q-1 -11 -3 -15
l-115 -489q-54 119 -157 119q-90 0 -187 -69t-182 -193q-69 -101 -107 -210t-38 -206q0 -130 59 -201.5t166 -71.5q106 0 187.5 81t144.5 247zM117 174q0 102 45 238q47 139 127 274q59 100 113 146.5t110 46.5q49 0 76.5 -38t27.5 -106q0 -93 -39 -224q-38 -128 -108 -263
q-62 -120 -118 -175t-115 -55q-56 0 -87.5 41.5t-31.5 114.5z" />
    <glyph glyph-name="e" unicode="e" horiz-adv-x="784" 
d="M596 252l-35 20q-170 -252 -299 -252q-60 0 -87.5 30.5t-27.5 96.5q0 52 19 128l16 69q502 181 502 432q0 67 -42 108.5t-110 41.5q-92 0 -205 -90q-113 -89 -206 -240q-57 -90 -88 -191t-31 -192q0 -113 56 -177.5t155 -64.5q113 0 206.5 68.5t176.5 212.5zM197 393
q57 221 144 358q87 136 167 136q34 0 53 -24t19 -66q0 -96 -110 -217q-109 -119 -273 -187z" />
    <glyph glyph-name="f" unicode="f" horiz-adv-x="678" 
d="M238 815l-230 -995l-2 -9q-79 -337 -170 -337q-50 0 -70 65q-5 15 -6 19q-17 49 -63 49q-49 0 -49 -56q0 -54 42 -85t117 -31q139 0 219 111q81 113 169 477l190 792h207l4 49h-199l47 193q86 356 254 356q80 0 99 -75q1 -4 2.5 -9t1.5 -6q7 -22 23 -35.5t36 -13.5
q21 0 36 15.5t15 35.5q0 55 -57 92q-56 37 -143 37q-141 0 -240 -105t-174 -335l-49 -150h-182l-9 -49h181z" />
    <glyph glyph-name="g" unicode="g" horiz-adv-x="1006" 
d="M236 276q-240 -48 -240 -215q0 -66 56.5 -108t178.5 -66l240 -45q79 -15 113 -49t34 -96q0 -96 -84 -156q-83 -61 -221 -61q-132 0 -221 65q-88 64 -88 158q0 83 98 152q-37 18 -73 18q-63 0 -105 -45q-43 -46 -43 -113q0 -123 114 -201q112 -79 296 -79q207 0 320 85
q114 84 114 236q0 109 -62 165t-217 83l-182 33q-151 29 -151 100q0 31 26 54.5t73 35.5q24 6 94 11q66 0 112 10q140 24 230 143q91 119 91 279q0 59 -20 121q41 30 60 39.5t36 9.5q35 0 35 -52v-8q0 -25 16.5 -41t42.5 -16q31 0 48.5 21t17.5 57q0 49 -30 78.5t-79 29.5
q-67 0 -168 -80q-78 95 -213 95q-161 0 -273 -120q-112 -119 -112 -294q0 -82 32.5 -138t103.5 -96zM233 440q0 76 27 171t72 171q57 97 149 97q123 0 123 -152q0 -189 -73 -319q-72 -129 -173 -129q-56 0 -90.5 44t-34.5 117z" />
    <glyph glyph-name="h" unicode="h" horiz-adv-x="1010" 
d="M117 0q90 388 232 626t269 238q62 0 62 -76q0 -54 -31 -149l-112 -342q-37 -108 -37 -172q0 -141 125 -141q86 0 155.5 75.5t134.5 241.5l-32 18q-127 -276 -213 -276q-19 0 -30 12.5t-11 34.5q0 37 16 82l113 338q47 149 47 231q0 87 -41.5 135t-116.5 48
q-155 0 -364 -328l237 879l-315 -39l-12 -50q1 1 5 1q28 4 44 4q50 0 70 -11.5t20 -38.5q0 -14 -8 -46l-349 -1295h142z" />
    <glyph glyph-name="i" unicode="i" horiz-adv-x="559" 
d="M125 399q-74 -188 -74 -284q0 -66 33 -103t92 -37q80 0 151 75t140 233l-29 18q-76 -147 -128 -210q-51 -60 -97 -60q-17 0 -28 12.5t-11 32.5q0 42 74 239l59 158q45 122 62 186q18 69 18 117q0 68 -34.5 108t-92.5 40q-140 0 -268 -297l35 -15q54 118 108 186t94 68
q17 0 27 -13.5t10 -35.5q0 -60 -65 -221zM307 1335q0 -37 24.5 -61.5t61.5 -24.5q36 0 62 25t26 61q0 37 -25 61.5t-61 24.5q-37 0 -62.5 -24.5t-25.5 -61.5z" />
    <glyph glyph-name="j" unicode="j" horiz-adv-x="559" 
d="M291 729l-174 -672q-97 -375 -152 -478q-56 -101 -133 -101q-56 0 -71 58q-1 4 -3 10t-2 8q-14 53 -59 53q-26 0 -41.5 -18t-15.5 -48q0 -48 46 -77t124 -29q166 0 276 156q109 155 199 532l94 395q32 132 41 191q12 68 12 106q0 53 -24 82t-68 29q-73 0 -163 -87
q-89 -87 -159 -231l33 -16q64 117 127 188q63 70 103 70q9 0 15.5 -10.5t6.5 -26.5q0 -36 -12 -84zM371 1335q0 -37 24.5 -61.5t61.5 -24.5q36 0 62 25t26 61t-25.5 61t-60.5 25q-36 0 -62 -25.5t-26 -60.5z" />
    <glyph glyph-name="k" unicode="k" horiz-adv-x="901" 
d="M217 426q66 212 155 328q90 116 185 116q33 0 52.5 -19.5t19.5 -53.5q0 -87 -108 -185t-304 -186zM96 0l103 367l127 63q26 12 41 12q36 0 55.5 -24.5t19.5 -69.5q0 -32 -12 -107t-12 -116q0 -74 35 -114t100 -40q82 0 141 62.5t107 199.5l-35 17q-87 -213 -156 -213
q-45 0 -45 74q0 14 5 62t5 69q0 119 -40 165q-39 48 -142 58q203 96 280 166q81 72 81 153q0 64 -41 101t-111 37q-183 0 -323 -244l206 797l-315 -39l-12 -50q1 1 5 1q28 4 44 4q50 0 70 -11.5t20 -38.5q0 -15 -8 -46l-336 -1295h143z" />
    <glyph glyph-name="l" unicode="l" horiz-adv-x="559" 
d="M328 1295l-283 -1004q-29 -102 -29 -174q0 -71 37 -108.5t107 -37.5q92 0 164.5 76.5t132.5 235.5l-35 16q-55 -129 -112.5 -201.5t-104.5 -72.5q-51 0 -51 71q0 57 22 133l348 1246l-315 -39l-12 -50q1 1 5 1q28 4 44 4q50 0 70 -11.5t20 -38.5q0 -19 -8 -46z" />
    <glyph glyph-name="m" unicode="m" horiz-adv-x="1456" 
d="M203 0l121 362q75 225 170 366q96 140 168 140q51 0 51 -63q0 -49 -45 -205l-179 -600h138l108 346q67 214 178 368t183 154q55 0 55 -71q0 -31 -10 -68q-8 -34 -35 -117l-119 -348q-33 -96 -33 -151q0 -60 34 -99t85 -39q89 0 162 79t141 251l-30 14
q-75 -150 -126.5 -216t-95.5 -66q-18 0 -30.5 10t-12.5 25q0 31 15 78l123 378q49 153 49 244q0 72 -33 113t-90 41q-90 0 -176.5 -87t-180.5 -270q41 146 41 211q0 68 -30.5 107t-83.5 39q-94 0 -188.5 -99t-180.5 -288q31 154 31 225q0 162 -113 162q-83 0 -152 -82
t-132 -256l34 -17q123 289 203 289q45 0 45 -53q0 -105 -84 -406l-112 -401h137z" />
    <glyph glyph-name="n" unicode="n" horiz-adv-x="1124" 
d="M215 0l55 174q1 4 6 19t8 26q104 334 244 516q102 133 185 133q67 0 67 -82q0 -66 -35 -159l-110 -326q-28 -88 -34 -117q-7 -34 -7 -67q0 -70 33.5 -108t95.5 -38q159 0 262 228l39 88l-33 18q-68 -144 -122.5 -212t-102.5 -68q-43 0 -43 51q0 29 18 86l136 420
q26 84 26 151q0 89 -43.5 141t-118.5 52q-95 0 -196 -104t-195 -298q37 152 37 240q0 79 -29.5 120.5t-85.5 41.5q-89 0 -161.5 -83.5t-137.5 -262.5l37 -13q66 156 116 224.5t97 68.5q41 0 41 -59q0 -61 -23 -184q-24 -126 -61 -250l-110 -367h145z" />
    <glyph glyph-name="o" unicode="o" horiz-adv-x="895" 
d="M295 -29q88 0 169.5 44t143.5 124q158 208 158 453q0 150 -72 242q-71 92 -188 92q-87 0 -174.5 -54t-159.5 -151q-149 -207 -149 -447q0 -143 71.5 -223t200.5 -80zM158 190q0 90 32 224q31 131 84 250q100 219 226 219q131 0 131 -201q0 -107 -34 -244
q-35 -140 -91 -260q-38 -81 -90.5 -124.5t-112.5 -43.5q-68 0 -106.5 48t-38.5 132z" />
    <glyph glyph-name="p" unicode="p" horiz-adv-x="1010" 
d="M133 -326l105 400q43 -105 157 -105q182 0 326 191q81 108 127 235q47 130 47 240q0 133 -61 210q-60 79 -160 79q-160 0 -312 -271l132 496q12 50 12 59q0 29 -84 29q-21 0 -30 -8.5t-15 -32.5l-60 -238q-27 -105 -144 -196q-42 -33 -44 -35q-79 -65 -117 -125t-47 -131
l41 -6q14 76 61 139q50 66 205 189l-280 -1098q-40 -150 -78 -186t-121 -38l-8 -34h451l13 37q-76 3 -108 18.5t-32 48.5q0 22 4 46q3 21 20 87zM268 162q0 120 41 260q42 137 117 262q113 188 215 188q53 0 82 -39.5t29 -113.5q0 -83 -39 -225q-49 -179 -105 -277
q-52 -99 -111 -151t-118 -52q-50 0 -80.5 40t-30.5 108z" />
    <glyph glyph-name="q" unicode="q" horiz-adv-x="895" 
d="M504 -378l317 1227q6 23 6 36q0 14 -24 24.5t-60 10.5q-13 0 -19 -6.5t-11 -26.5l-33 -116q-5 75 -46 118t-110 43q-80 0 -174 -61q-95 -61 -176 -166t-129 -235q-47 -130 -47 -243q0 -123 55 -190.5t156 -67.5q175 0 303 221l-150 -555q-28 -104 -63 -130t-124 -29
l-9 -39h467l12 41q-7 0 -13 1q-138 9 -138 70q0 39 10 73zM139 170q0 170 135 440q74 146 137 211q63 64 132 64q46 0 73 -42t27 -114t-32 -192q-31 -115 -89 -248q-50 -118 -126 -191t-142 -73q-53 0 -84 38.5t-31 106.5z" />
    <glyph glyph-name="r" unicode="r" horiz-adv-x="782" 
d="M221 0l123 375q77 231 147 357t121 126q18 0 23.5 -5t5.5 -22q0 -1 -1 -8t-1 -8q0 -65 66 -65q29 0 49 23t20 56q0 45 -26 71t-70 26q-87 0 -164 -92q-76 -91 -160 -299q25 129 25 208q0 89 -31.5 136t-91.5 47q-72 0 -136.5 -76t-135.5 -244l36 -12q120 268 195 268
q21 0 33 -21.5t12 -60.5q0 -140 -45 -327q-43 -187 -141 -453h147z" />
    <glyph glyph-name="s" unicode="s" horiz-adv-x="676" 
d="M168 -29q141 0 227 76q88 76 88 195q0 63 -30 129t-111 168q-2 3 -12.5 16t-18.5 23q-92 118 -92 174q0 59 42.5 97t109.5 38q39 0 64.5 -14.5t25.5 -36.5q0 -4 -2 -19t-2 -20q0 -24 14.5 -39t38.5 -15q57 0 57 62q0 49 -53 85t-133 36q-113 0 -192 -71q-78 -71 -78 -173
q0 -95 125 -255q5 -6 11.5 -14.5t8.5 -11.5q71 -89 92 -136q21 -46 21 -97q0 -72 -52 -115t-141 -43q-54 0 -89.5 16t-35.5 40q0 9 3 34.5t3 30.5q0 32 -15.5 52t-41.5 20t-44.5 -23t-18.5 -55q0 -69 63 -111.5t168 -42.5z" />
    <glyph glyph-name="t" unicode="t" horiz-adv-x="559" 
d="M207 856l-172 -590q-29 -94 -29 -151q0 -66 36.5 -103t102.5 -37q96 0 165 74q68 72 136 254l-38 14q-60 -144 -109 -211q-47 -63 -94 -63q-55 0 -55 63q0 43 36 177l162 573h170v45h-158l68 252q4 20 4 35q0 19 -15.5 26t-60.5 7q-21 0 -33.5 -12.5t-21.5 -41.5
l-80 -266h-170v-45h156z" />
    <glyph glyph-name="u" unicode="u" horiz-adv-x="1124" 
d="M797 901l-58 -181q-1 -3 -5.5 -18.5t-8.5 -27.5q-102 -335 -242 -514q-102 -133 -184 -133q-32 0 -50 22t-18 62q0 51 35 159l111 330q26 78 33 113q8 40 8 71q0 70 -33.5 108t-95.5 38q-159 0 -262 -228l-39 -88l32 -18q69 146 124 214.5t102 68.5q20 0 31.5 -14.5
t11.5 -39.5q0 -27 -19 -84l-135 -426q-29 -92 -29 -153q0 -88 44 -139.5t118 -51.5q95 0 196 104t195 298q-34 -140 -34 -242q0 -160 112 -160q90 0 162.5 83.5t136.5 260.5l-35 15q-66 -158 -115.5 -226.5t-97.5 -68.5q-40 0 -40 61q0 67 22 183q21 108 61 249l111 373
h-145z" />
    <glyph glyph-name="v" unicode="v" horiz-adv-x="1006" 
d="M379 762q-21 -43 -94 -181q-148 -277 -148 -391q0 -104 58.5 -161.5t164.5 -57.5q115 0 220.5 81.5t189.5 234.5q127 238 127 479q0 102 -16 130q-15 30 -56 30q-29 0 -46 -25.5t-17 -71.5q0 -21 7 -81q7 -59 7 -109q0 -137 -40 -264q-39 -128 -107 -219
q-43 -58 -97 -90.5t-106 -32.5q-70 0 -103.5 53t-33.5 164t31 235q30 121 88 242q12 25 37 68q40 67 40 96q0 15 -8.5 25t-21.5 10q-16 0 -24.5 -11t-14.5 -43q-10 -51 -34.5 -74.5t-68.5 -23.5q-29 0 -87 37q-56 37 -99 37q-53 0 -89 -38t-36 -93q0 -30 9.5 -49t23.5 -19
q22 0 22 27v18q0 13 9 24t20 11q19 0 66 -16q50 -15 81 -15q72 0 146 64z" />
    <glyph glyph-name="w" unicode="w" horiz-adv-x="1346" 
d="M582 168v-23q0 -79 45.5 -126.5t122.5 -47.5q199 0 344 256q67 121 104 266q39 149 39 289q0 144 -78 144q-28 0 -44.5 -18t-16.5 -48q0 -19 13 -106t13 -164q0 -219 -99 -390t-212 -171q-106 0 -106 147q0 89 34 225l93 363q0 5 1 8q3 10 3 14q0 22 -20.5 35t-53.5 13
q-24 0 -35 -11.5t-22 -52.5l-117 -457q-34 -131 -94 -202.5t-136 -71.5q-56 0 -86 45t-30 129q0 77 32 210q32 128 86 259q22 51 63 120q40 70 40 91q0 13 -10 22t-25 9q-24 0 -33 -45q-3 -15 -6 -25q-11 -42 -31 -59t-57 -17q-34 0 -86 41t-92 41q-52 0 -85.5 -39
t-33.5 -100q0 -30 9.5 -51t21.5 -21q12 1 16 7.5t4 29.5v12q0 16 8.5 26.5t20.5 10.5q3 0 42 -14t71 -14q81 0 170 61l-45 -72q-130 -206 -178 -320q-50 -117 -50 -202q0 -95 51 -149t140 -54q90 0 168.5 52t126.5 145z" />
    <glyph glyph-name="x" unicode="x" horiz-adv-x="891" 
d="M352 375l111 -312q15 -41 46 -66.5t66 -25.5q71 0 126.5 75t86.5 214l-40 12q-48 -174 -113 -174q-22 0 -36 14.5t-26 49.5l-118 352l176 258q29 45 50 61.5t48 16.5q17 0 30 -14t13 -33q0 -44 -74 -156l31 -24q107 123 107 217q0 38 -24 62t-62 24q-39 0 -73.5 -28
t-84.5 -99l-160 -228l-39 123q-41 135 -76 183q-36 49 -90 49q-67 0 -118 -75t-76 -212l39 -8q23 95 45.5 134.5t52.5 39.5q37 0 59 -74l97 -303l-168 -278q-26 -43 -55.5 -69t-51.5 -26q-45 0 -45 47q0 38 64 146l-35 20q-98 -136 -98 -207q0 -40 26 -65t68 -25t74 28
q34 28 85 112z" />
    <glyph glyph-name="y" unicode="y" horiz-adv-x="786" 
d="M-2 528l41 1q5 172 17 223q14 57 46 57q26 0 50 -39q23 -37 61 -147q106 -307 106 -619q0 -106 -30 -180q-28 -74 -103 -152q-52 -56 -96 -75q-42 -19 -115 -19q-38 0 -54 2h-13q-46 0 -71 -19t-25 -53q0 -37 20.5 -54t65.5 -17q73 0 179 77t206 207q180 236 281 499
q100 260 100 495q0 114 -22 162.5t-73 48.5q-29 0 -49 -19t-20 -45q0 -30 41 -74q40 -43 52 -84q13 -38 13 -106q0 -218 -172 -536q-10 383 -88 625q-77 239 -182 239q-80 0 -124 -89t-44 -249q0 -6 1 -29t1 -31z" />
    <glyph glyph-name="z" unicode="z" horiz-adv-x="786" 
d="M16 84l-4 -6q-4 -5 -7 -9q-28 -32 -28 -57q0 -19 7.5 -27t25.5 -8q30 0 41 47q1 5 3 12l1 7q20 74 95 74q58 0 149 -62q11 -7 13 -9q89 -62 180 -62q94 0 146 48.5t52 135.5q0 28 -6 90h-35v-8q0 -65 -25.5 -95t-80.5 -30q-28 0 -120 22q-95 23 -163 23q-51 0 -118 -14
l471 656q2 3 19 22q34 34 34 61q0 14 -10 24.5t-23 10.5q-34 0 -45 -50l-2 -10q-8 -34 -26 -48.5t-52 -14.5q-41 0 -120 52t-132 52q-75 0 -124 -49q-50 -48 -50 -121q0 -27 12 -65l35 2q2 58 18.5 83t53.5 25q18 0 75 -19t103 -19q60 0 137 28z" />
    <glyph glyph-name="braceleft" unicode="{" horiz-adv-x="1024" 
d="M846 1516h-10q-216 0 -298 -74q-81 -74 -81 -273v-213q0 -158 -58 -216q-59 -59 -223 -74v-60q164 -14 222 -73q59 -61 59 -218v-213q0 -198 81 -272q82 -74 298 -74h10v51q-141 1 -195 55q-51 53 -51 208v143q0 226 -61 308q-62 83 -226 114q165 32 226 113
q61 82 61 309v143q0 157 52 209q53 55 194 56v51z" />
    <glyph glyph-name="bar" unicode="|" horiz-adv-x="1024" 
d="M449 1565v-2048h126v2048h-126z" />
    <glyph glyph-name="braceright" unicode="}" horiz-adv-x="1024" 
d="M178 1516v-51q141 -1 194 -56q52 -52 52 -209v-143q0 -227 61 -309q61 -81 226 -113q-164 -31 -226 -114q-61 -82 -61 -308v-143q0 -156 -52 -208q-52 -54 -194 -55v-51h10q215 0 297 74q82 73 82 272v213q0 157 59 218q58 59 222 73v60q-164 15 -223 74q-58 58 -58 216
v213q0 200 -82 273q-82 74 -297 74h-10z" />
    <glyph glyph-name="asciitilde" unicode="~" horiz-adv-x="1706" 
d="M1530 758q-117 -83 -208 -119.5t-177 -36.5q-89 0 -254 59q-7 3 -13.5 5.5t-12.5 4.5l-9 3q-111 40 -175 52q-58 13 -116 13q-178 0 -387 -145v-133q119 84 211 122q93 38 174 38q99 0 302 -72q30 -11 87 -31q108 -35 191 -35q185 0 387 144v131z" />
    <glyph glyph-name="exclamdown" unicode="&#xa1;" horiz-adv-x="616" 
d="M262 152l135 757q2 10 2 25q0 22 -22 22q-18 0 -30 -30l-1 -2l-264 -725q-22 -57 -27 -80q-6 -25 -6 -45q0 -45 27.5 -73t70.5 -28q47 0 71 34q24 32 44 145zM588 1294q0 46 -31 77.5t-76 31.5q-44 0 -76 -32t-32 -77t31.5 -75.5t76.5 -30.5q46 0 76.5 30t30.5 76z" />
    <glyph glyph-name="cent" unicode="&#xa2;" horiz-adv-x="1118" 
d="M332 59q-86 35 -86 156q0 171 119 395q121 231 245 260zM209 -297h59l99 295h26q128 0 223 82q56 48 95 109q41 64 41 83q0 8 -5.5 14.5t-13.5 6.5q-15 0 -44 -51q-26 -48 -56 -84q-98 -117 -227 -117q-4 0 -12.5 1t-10.5 1l285 831q30 -3 40.5 -10t10.5 -22q0 -8 -9 -34
q-8 -26 -8 -42q0 -25 17 -40t43 -15q34 0 55 20t21 53q0 53 -41 86.5t-115 40.5l82 240h-59l-82 -242q-164 -23 -318 -180q-103 -106 -158 -223.5t-55 -231.5q0 -102 56 -172.5t161 -99.5z" />
    <glyph glyph-name="sterling" unicode="&#xa3;" horiz-adv-x="1118" 
d="M326 150q-29 -72 -67 -105t-91 -33q-46 0 -73 24.5t-27 65.5q0 48 29.5 75.5t80.5 27.5q79 0 148 -55zM383 111q99 -80 170 -111q72 -31 160 -31q147 0 239 127q31 41 50 89q20 49 20 69q0 10 -5.5 18.5t-12.5 8.5q-17 0 -42 -43q-27 -45 -47 -62q-71 -65 -204 -65
q-76 0 -247 70l-30 12.5t-24 9.5q114 179 145 495h299l10 64h-299q43 319 107 461q63 141 162 141q86 0 111 -105q1 -1 1 -4q13 -50 33 -71t53 -21q76 0 76 74t-68 121t-176 47q-194 0 -315 -165t-156 -478h-260l-14 -64h268q-9 -97 -15 -260q-6 -159 -20 -209
q-80 35 -151 35q-84 0 -133.5 -46.5t-49.5 -125.5q0 -54 38 -88.5t98 -34.5q71 0 123.5 32.5t105.5 109.5z" />
    <glyph glyph-name="currency" unicode="&#xa4;" horiz-adv-x="1241" 
d="M623 1200q129 0 221 -92t92 -221t-92 -223q-92 -93 -221 -93q-131 0 -223 92q-91 92 -91 224q0 129 92 221t222 92zM158 1419l-72 -73l207 -205q-88 -115 -88 -256t88 -256l-207 -205l72 -74l207 207q111 -88 256 -88q147 0 260 88l204 -207l72 74l-205 205
q86 113 86 256q0 141 -86 256l205 205l-72 73l-204 -207q-119 91 -260 91q-137 0 -256 -91z" />
    <glyph glyph-name="yen" unicode="&#xa5;" horiz-adv-x="1165" 
d="M602 584l160 188h362l17 57h-334l283 345q4 4 14 17t15 19q75 96 110 107q6 2 31 8q36 7 36 23q0 22 -34 22l-12 -2q-1 0 -3.5 -0.5t-3.5 -1.5q-41 -4 -149 -4q-82 0 -138 8q-4 0 -9.5 0.5t-10.5 1.5h-4q-33 0 -33 -24q0 -21 39 -21h18q13 0 21 -2q38 -8 55 -23t17 -40
q0 -50 -80 -163q-87 -123 -254 -313l-115 -131l-135 512q-14 54 -14 86q0 30 12.5 45t44.5 23q29 6 51 6q2 0 3 1q48 6 48 24q0 20 -35 20q-7 0 -25 -2q-10 0 -21 -1q-83 -7 -158 -7q-41 0 -93 4q-5 0 -16.5 0.5t-15.5 1.5q-34 2 -68 2q-53 0 -53 -20q0 -10 8 -15t33 -8h2
q37 -4 55 -12q39 -17 58 -85l104 -401h-305l-17 -57h340l41 -188h-432l-16 -58h432l-86 -315q-24 -91 -45 -116q-20 -27 -59 -40q-31 -10 -78 -14h-4h-4q-52 -7 -52 -27q0 -22 47 -22q1 0 4.5 0.5t9.5 1t11 0.5q112 12 225 12t224 -12q4 0 8.5 -0.5t7 -1t5 -0.5h3.5
q11 0 21 7t10 13q0 21 -52 25q-50 5 -81 12q-58 13 -58 74q0 33 19 98l84 305h469l14 58h-469z" />
    <glyph glyph-name="brokenbar" unicode="&#xa6;" horiz-adv-x="1024" 
d="M449 408v-758h126v758h-126zM449 1432v-758h126v758h-126z" />
    <glyph glyph-name="section" unicode="&#xa7;" horiz-adv-x="1024" 
d="M250 676q0 67 45 112q45 46 113 46q61 0 109 -36q49 -35 145 -180q67 -103 67 -169t-46 -111q-45 -45 -112 -45q-62 0 -118 44q-54 44 -136 167q-67 101 -67 172zM500 264q58 -16 92 -16q104 0 171 70q68 71 68 178q0 62 -32 131q-31 67 -111 168l-102 127
q-92 113 -120 166q-28 55 -28 104q0 75 54 123q53 49 139 49q55 0 95 -20q40 -19 40 -46q0 -12 -31 -50q-30 -39 -30 -72t25 -54.5t63 -21.5q41 0 65.5 29t24.5 79q0 83 -70 138q-70 57 -176 57q-134 0 -216 -73q-83 -74 -83 -189q0 -121 139 -279q-54 12 -90 12
q-102 0 -171 -71t-69 -176q0 -63 30 -127q28 -61 110 -164l102 -127q90 -113 120 -171t30 -108q0 -76 -58 -128q-56 -52 -143 -52q-65 0 -107.5 20.5t-42.5 51.5q0 14 36 56t36 75t-24.5 56.5t-59.5 23.5q-44 0 -72 -30t-28 -77q0 -90 77 -153q77 -64 193 -64q132 0 214 72
q83 72 83 184q0 134 -143 299z" />
    <glyph glyph-name="dieresis" unicode="&#xa8;" horiz-adv-x="1024" 
d="M379 1188q0 -37 25.5 -63.5t60.5 -26.5q37 0 62.5 26t25.5 64q0 35 -26 60.5t-62 25.5q-33 0 -60 -27q-26 -26 -26 -59zM762 1188q0 -37 25.5 -63.5t60.5 -26.5q37 0 61.5 25.5t24.5 64.5q0 35 -25.5 60.5t-60.5 25.5q-33 0 -60 -27q-26 -26 -26 -59z" />
    <glyph glyph-name="copyright" unicode="&#xa9;" horiz-adv-x="1683" 
d="M1120 1096q-11 -62 -63 -62q-10 0 -82 34t-148 34q-169 0 -285 -126q-116 -127 -116 -312q0 -175 118 -297q118 -123 285 -123q227 0 342 209l-34 24q-113 -174 -283 -174q-266 0 -266 381q0 184 62.5 278.5t185.5 94.5q212 0 280 -275h41l-2 314h-35zM844 1303
q119 0 233.5 -48t200.5 -135q85 -85 132.5 -201.5t47.5 -240.5q0 -253 -182 -440q-176 -181 -434 -181q-256 0 -434 181q-89 87 -136 200.5t-47 239.5q0 124 46.5 237.5t134.5 202.5q87 88 201 136.5t237 48.5zM844 1382q-142 0 -272 -53.5t-228 -152.5
q-99 -101 -152 -229.5t-53 -268.5q0 -294 207 -498q208 -205 496 -205q293 0 495 205q207 209 207 498q0 142 -55 271q-53 130 -152 229q-98 98 -227 150q-129 54 -266 54z" />
    <glyph glyph-name="ordfeminine" unicode="&#xaa;" horiz-adv-x="758" 
d="M80 588l-14 -92h596l14 92h-596zM666 1325q-13 34 -45 54t-74 20q-69 0 -152 -50q-80 -49 -145 -132q-58 -76 -90.5 -156.5t-32.5 -147.5q0 -90 47.5 -143t128.5 -53q71 0 130 37.5t95 105.5q-6 -25 -6 -47q0 -46 27 -71t78 -25q142 0 215 258l-41 14
q-31 -102 -65.5 -157.5t-67.5 -55.5q-31 0 -31 35q0 50 16 102l121 418q4 20 4 33t-17 21t-46 8q-31 0 -37 -21zM551 1356q34 0 55 -23.5t21 -62.5q0 -52 -25 -131q-26 -84 -67 -168q-57 -109 -102.5 -158t-92.5 -49q-42 0 -65 26.5t-23 73.5q0 120 110 320q97 172 189 172z
" />
    <glyph glyph-name="guillemotleft" unicode="&#xab;" horiz-adv-x="848" 
d="M340 436q90 -99 160 -196q76 -105 90 -105q10 0 10 17q0 22 -29 85q-24 52 -104 191q148 150 203 215q47 58 47 82q-2 8 -10 8q-10 0 -129 -104q-116 -103 -238 -193zM61 436q80 -87 160 -197q77 -104 88 -104q10 0 10 17q0 22 -29 85q-24 52 -104 191q155 156 204 215
q46 56 46 82q0 8 -8 8q-10 0 -129 -104q-116 -103 -238 -193z" />
    <glyph glyph-name="logicalnot" unicode="&#xac;" horiz-adv-x="1706" 
d="M254 858v-117h1083v-385h115v502h-1198z" />
    <glyph glyph-name="sfthyphen" unicode="&#xad;" horiz-adv-x="674" 
d="M16 383h500l35 129h-498z" />
    <glyph glyph-name="registered" unicode="&#xae;" horiz-adv-x="1683" 
d="M729 719v262q0 72 105 72q90 0 143 -44.5t53 -117.5q0 -83 -61.5 -128.5t-173.5 -45.5q-24 0 -66 2zM469 1092v-43q76 -5 101 -25q26 -21 26 -76v-516q0 -55 -27.5 -76.5t-99.5 -24.5v-40h385v40q-72 4 -98.5 25.5t-26.5 75.5v248h33q168 0 207 -133q6 -23 9 -96
q3 -72 21 -113q32 -66 127 -66q79 0 119.5 45.5t40.5 133.5v12h-43q0 -133 -67 -133q-46 0 -59 88q-4 37 -11 63q-23 86 -71 133q-50 50 -142 78q148 27 217.5 75t69.5 124q0 92 -86 146q-85 55 -232 55h-393zM844 1303q119 0 233.5 -48t200.5 -135q86 -82 132 -201
q48 -117 48 -241q0 -253 -182 -440q-176 -181 -434 -181q-256 0 -434 181q-183 181 -183 440q0 124 46.5 237.5t134.5 202.5t201.5 137t236.5 48zM844 1382q-142 0 -272 -53.5t-228 -152.5q-99 -101 -152 -229.5t-53 -268.5q0 -294 207 -498q101 -100 227 -152.5t263 -52.5
q294 0 495 201q102 102 157.5 232.5t55.5 267.5q0 141 -53 272t-150 228q-98 98 -229 152q-130 54 -268 54z" />
    <glyph glyph-name="overscore" unicode="&#xaf;" horiz-adv-x="1024" 
d="M389 1133h512l23 106h-512z" />
    <glyph glyph-name="overscore" unicode="&#x2c9;" horiz-adv-x="1024" 
d="M389 1133h512l23 106h-512z" />
    <glyph glyph-name="degree" unicode="&#xb0;" horiz-adv-x="674" 
d="M338 1372q83 0 142 -59t59 -142q0 -84 -59 -143t-142 -59t-144 59q-59 59 -59 143q0 83 59 142q61 59 144 59zM338 1454q-119 0 -201 -82t-82 -201q0 -117 81 -200q82 -82 200 -82t201 83q84 82 84 199t-83 200t-200 83z" />
    <glyph glyph-name="plusminus" unicode="&#xb1;" horiz-adv-x="1706" 
d="M254 158v-117h1198v117h-1198zM795 1180v-344h-541v-117h541v-344h118v344h539v117h-539v344h-118z" />
    <glyph glyph-name="twosuperior" unicode="&#xb2;" horiz-adv-x="737" 
d="M35 547h424q6 0 26.5 -1t24.5 -1q20 0 34 35q2 4 4.5 10.5t2.5 7.5q13 36 38 82q23 43 23 47q0 12 -12 12q-11 0 -40 -44q-28 -43 -54 -52q-50 -12 -297 -12h-70h-45q93 77 272 201q15 11 35.5 25.5t33 23t20.5 14.5q116 84 161 146q46 62 46 133q0 97 -70 155
q-69 60 -182 60q-115 0 -188 -61q-72 -60 -72 -152q0 -101 30 -101q8 1 10 3.5t3 13.5l-3 19q-2 19 -2 30q0 75 53 122q53 48 138 48q78 0 121 -39t43 -109q0 -63 -44 -127q-42 -61 -184 -180l-317 -272q-18 -15 -18 -27t24 -12q2 0 14 1t17 1z" />
    <glyph glyph-name="threesuperior" unicode="&#xb3;" horiz-adv-x="737" 
d="M432 1042q103 47 150 95.5t47 107.5q0 67 -55.5 106.5t-149.5 39.5q-59 0 -111 -13q-55 -14 -65 -24q-7 -6 -15 -32t-8 -50q0 -8 13 -8q3 0 23 6q83 26 151 26q60 0 93.5 -23t33.5 -65q0 -60 -57 -105t-167 -71q-38 -9 -94 -15q-59 -8 -59 -24t24 -16q10 0 46 10t67 10
q152 0 152 -118q0 -97 -80 -177q-79 -78 -215 -116q-57 -16 -134 -27h-2q-35 -4 -45 -7.5t-10 -12.5q0 -13 37 -13q78 0 205 35q126 37 192 80q78 48 122 116t44 140q0 57 -35.5 96t-97.5 49z" />
    <glyph glyph-name="acute" unicode="&#xb4;" horiz-adv-x="1024" 
d="M559 1036l271 222l1 1q60 49 60 80q0 22 -14 38t-33 16q-32 0 -80 -56l-262 -301h57z" />
    <glyph glyph-name="mu" unicode="&#xb5;" horiz-adv-x="1120" 
d="M164 193q29 -216 223 -216q191 0 281 218v-23q0 -88 40.5 -139t108.5 -51q154 0 230 163q40 93 40 150q0 37 -26 37q-20 0 -39 -61q-19 -58 -41 -93q-44 -69 -117 -69q-40 0 -66 30t-26 78q0 39 21 137l114 531h-149l-111 -510q-60 -269 -258 -269q-76 0 -118 46t-42 129
q0 47 13 112l104 492h-147l-109 -514q-41 -198 -105 -427q-65 -236 -65 -274q0 -41 21.5 -64.5t58.5 -23.5q77 0 112 272q26 209 52 339z" />
    <glyph glyph-name="paragraph" unicode="&#xb6;" horiz-adv-x="1024" 
d="M948 1479h-479q-178 0 -286 -96q-107 -96 -107 -253q0 -151 101 -246q100 -94 274 -102v-782h96v1401h182v-1401h94v1401h125v78z" />
    <glyph glyph-name="middot" unicode="&#xb7;" horiz-adv-x="559" 
d="M172 723q0 -46 31 -77.5t76 -31.5t76.5 32t31.5 77t-30.5 75.5t-75.5 30.5q-47 0 -78 -30t-31 -76z" />
    <glyph glyph-name="cedilla" unicode="&#xb8;" horiz-adv-x="1024" 
d="M59 -371q177 -69 273 -69q94 0 152 46q59 45 59 118t-46.5 116t-125.5 43q-16 0 -46 -3q-3 -1 -6 -1l62 121h-55l-97 -190q45 8 82 8q60 0 91.5 -24t31.5 -68q0 -101 -127 -101q-83 0 -221 68z" />
    <glyph glyph-name="onesuperior" unicode="&#xb9;" horiz-adv-x="739" 
d="M246 701q-1 -3 -3 -10.5t-4 -12.5q-25 -91 -91 -100q-20 -4 -43 -5q-44 -5 -44 -16q1 -12 19 -12q6 0 13 1q87 5 161 5t172 -5q13 -1 25 -1q18 0 18 8q0 16 -37 19q-9 1 -22 1q-46 6 -59 13.5t-13 25.5t14 72l195 664q2 7 5 17t5 16.5t2 7.5q0 2 -4 5t-8 3q-1 0 -20 -8
q-119 -54 -240 -54q-25 0 -25 -12q0 -14 19 -14l6 1q6 0 14.5 0.5t13.5 0.5q55 0 74 -9t19 -34q0 -11 -9 -42z" />
    <glyph glyph-name="ordmasculine" unicode="&#xba;" horiz-adv-x="672" 
d="M387 762q-49 0 -76.5 33.5t-27.5 93.5q0 83 30 191q31 108 78 186q55 92 125 92q46 0 70 -34.5t24 -98.5q0 -78 -23 -175q-23 -94 -63 -180q-23 -51 -59 -79.5t-78 -28.5zM84 588l-16 -92h464l19 92h-467zM524 1401q-67 0 -135 -39t-121 -109q-108 -145 -108 -303
q0 -110 56 -170.5t159 -60.5q150 0 243 119q115 140 115 307q0 117 -57 186q-55 70 -152 70z" />
    <glyph glyph-name="guillemotright" unicode="&#xbb;" horiz-adv-x="848" 
d="M686 432q-84 93 -160 196q-76 105 -90 105q-10 0 -10 -16q0 -23 29 -86q24 -52 104 -191q-157 -159 -204 -216q-46 -55 -46 -81q0 -2 3.5 -5t6.5 -3q12 0 128 103q128 112 239 194zM406 432q-78 85 -160 196q-77 105 -88 105q-13 0 -13 -16q0 -23 27 -80q35 -68 109 -197
q-157 -159 -204 -216q-46 -55 -46 -81q0 -8 8 -8q11 0 127 103q122 107 240 194z" />
    <glyph glyph-name="onequarter" unicode="&#xbc;" horiz-adv-x="1751" 
d="M1325 -8l111 8l75 270h113q16 0 25.5 12.5t9.5 32.5q0 8 -4 9l-29 -6q-30 -5 -51 -5h-49l94 316q10 37 30 90q19 51 19 65q0 11 -14 11q-8 0 -31 -23l-551 -473q-10 -7 -10 -18q0 -9 51 -9h297zM1139 313q71 83 387 330l-101 -330h-286zM362 -33h87l937 1436h-83z
M236 746q-1 -2 -2.5 -6.5l-3 -9t-2.5 -8.5q-25 -83 -84 -91q-14 -1 -33 -3q-52 -6 -52 -18q0 -10 17 -10q6 0 15 1q82 5 153 5q69 0 162 -5q13 -1 24 -1q19 0 19 8q-2 16 -35 17q-4 0 -12 0.5t-11 1.5q-43 5 -55 12t-12 25q0 16 14 67l184 618q2 7 5.5 16.5t5.5 16t2 7.5
q0 8 -13 8q-1 0 -19 -8q-111 -52 -229 -52q-24 0 -24 -12t18 -12l13 1q13 1 20 1q52 0 70 -8.5t18 -32.5q0 -19 -6 -37z" />
    <glyph glyph-name="onehalf" unicode="&#xbd;" horiz-adv-x="1751" 
d="M1079 0h406q6 0 25.5 -1t23.5 -1q18 0 32 35q1 3 3 8t2 6q17 42 37 77q22 38 22 44q0 10 -10 10q-12 0 -39 -40q-25 -40 -51 -48q-22 -5 -84 -8q-86 -2 -201 -2h-65h-43q94 73 252 182q82 56 92 64q112 79 154 136q42 58 42 124q0 90 -66 145q-64 55 -173 55
q-108 0 -179 -57q-69 -55 -69 -143q0 -92 29 -92q12 0 12 14l-2 18q-2 19 -2 29q0 70 50 114q52 44 132 44q73 0 114.5 -36.5t41.5 -101.5q0 -61 -42 -119q-38 -54 -175 -167l-304 -254q-16 -17 -16 -25q0 -12 23 -12q2 0 13 1t15 1zM362 -33h87l937 1436h-83zM236 746
q-1 -2 -2.5 -6.5l-3 -9t-2.5 -8.5q-25 -83 -84 -91q-14 -1 -33 -3q-52 -6 -52 -18q0 -10 17 -10q6 0 15 1q82 5 153 5q69 0 162 -5q13 -1 24 -1q19 0 19 8q-2 16 -35 17q-4 0 -12 0.5t-11 1.5q-43 5 -55 12t-12 25q0 16 14 67l184 618q2 7 5.5 16.5t5.5 16t2 7.5q0 8 -13 8
q-1 0 -19 -8q-111 -52 -229 -52q-24 0 -24 -12t18 -12l13 1q13 1 20 1q52 0 70 -8.5t18 -32.5q0 -19 -6 -37z" />
    <glyph glyph-name="threequarters" unicode="&#xbe;" horiz-adv-x="1751" 
d="M1325 -8l111 8l75 270h113q16 0 25.5 12.5t9.5 32.5q0 8 -4 9l-29 -6q-30 -5 -51 -5h-49l94 316q10 37 30 90q19 51 19 65q0 11 -14 11q-8 0 -31 -23l-551 -473q-10 -7 -10 -18q0 -9 51 -9h297zM1139 313q71 83 387 330l-101 -330h-286zM362 -33h87l937 1436h-83z
M414 1065q97 43 141.5 88.5t44.5 101.5q0 62 -52 98t-142 36q-54 0 -107 -12q-51 -11 -63 -21q-7 -7 -14 -31.5t-7 -46.5q0 -2 3 -5t7 -3q3 0 23 6q80 27 145 27q57 0 89 -22.5t32 -61.5q0 -115 -213 -164q-40 -9 -89 -14q-58 -6 -58 -23q0 -14 24 -14q8 0 43 9q36 9 64 9
q145 0 145 -111q0 -91 -76 -164q-77 -74 -207 -110q-72 -18 -129 -23q-33 -4 -42 -7.5t-9 -10.5q0 -14 35 -14q75 0 195 32q84 26 113 38q38 16 71 38q74 46 116 109.5t42 130.5q0 53 -33.5 89t-91.5 46z" />
    <glyph glyph-name="questiondown" unicode="&#xbf;" horiz-adv-x="1006" 
d="M741 1294q0 46 -31 77.5t-77 31.5q-45 0 -76 -31.5t-31 -77.5q0 -45 31 -76.5t76 -31.5q46 0 77 31t31 77zM565 618q73 66 103 115.5t30 102.5q0 70 -48 117q-46 46 -120 46q-98 0 -176 -90l29 -26q24 30 58 47.5t67 17.5q35 0 56.5 -18t21.5 -47q0 -36 -27 -73t-94 -91
l-152 -125q-96 -78 -137 -150q-39 -70 -39 -157q0 -140 89 -229q88 -87 233 -87q119 0 195 66q77 68 77 168q0 78 -49 126t-129 48q-70 0 -113 -37.5t-43 -97.5q0 -42 22 -66t60 -24q32 0 53 19t21 48q0 32 -26 56q-25 25 -25 26q0 12 16 19.5t43 7.5q53 0 86 -33.5
t33 -87.5q0 -83 -60 -135q-60 -51 -157 -51q-89 0 -144 54t-55 140q0 71 31.5 130t101.5 122z" />
    <glyph glyph-name="Agrave" unicode="&#xc0;" horiz-adv-x="1341" 
d="M827 563l-14 -368v-9q-6 -117 -62 -135q-20 -7 -61 -13l-18 -3q-30 -3 -38.5 -7.5t-8.5 -15.5q0 -18 34 -18q7 0 85 6q80 6 151 6q102 0 204 -9q11 -1 21 -1q21 0 29 4.5t8 15.5q0 16 -44 22q-31 4 -48 9q-43 12 -59.5 37.5t-16.5 79.5v24l49 1172v10q0 37 -16 37
q-79 0 -145 -98q-11 -16 -25 -37l-789 -1114q-67 -97 -174 -123h-1q-33 -11 -33 -23q0 -8 8 -14t18 -6q11 0 67 7q55 7 111 7q61 0 129 -6t74 -6q29 0 29 20q0 7 -7 13t-16 6q-63 0 -99 17t-36 46q0 34 48 117q57 97 233 350h413zM457 627l397 553l-25 -553h-372zM1124 1515
l-223 314q-31 41 -64 41q-24 0 -38.5 -14t-14.5 -36q0 -25 45 -69l15 -15l225 -221h55z" />
    <glyph glyph-name="Aacute" unicode="&#xc1;" horiz-adv-x="1341" 
d="M827 563l-14 -368v-9q-6 -117 -62 -135q-20 -7 -61 -13l-18 -3q-30 -3 -38.5 -7.5t-8.5 -15.5q0 -18 34 -18q7 0 85 6q80 6 151 6q102 0 204 -9q11 -1 21 -1q21 0 29 4.5t8 15.5q0 16 -44 22q-31 4 -48 9q-43 12 -59.5 37.5t-16.5 79.5v24l49 1172v10q0 37 -16 37
q-79 0 -145 -98q-11 -16 -25 -37l-789 -1114q-67 -97 -174 -123h-1q-33 -11 -33 -23q0 -8 8 -14t18 -6q11 0 67 7q55 7 111 7q61 0 129 -6t74 -6q29 0 29 20q0 7 -7 13t-16 6q-63 0 -99 17t-36 46q0 34 48 117q57 97 233 350h413zM457 627l397 553l-25 -553h-372zM909 1515
l271 222l1 1q60 49 60 80q0 22 -14 38t-33 16q-32 0 -80 -56l-262 -301h57z" />
    <glyph glyph-name="Acircumflex" unicode="&#xc2;" horiz-adv-x="1341" 
d="M827 563l-14 -368v-9q-6 -117 -62 -135q-20 -7 -61 -13l-18 -3q-30 -3 -38.5 -7.5t-8.5 -15.5q0 -18 34 -18q7 0 85 6q80 6 151 6q102 0 204 -9q11 -1 21 -1q21 0 29 4.5t8 15.5q0 16 -44 22q-31 4 -48 9q-43 12 -59.5 37.5t-16.5 79.5v24l49 1172v10q0 37 -16 37
q-79 0 -145 -98q-11 -16 -25 -37l-789 -1114q-67 -97 -174 -123h-1q-33 -11 -33 -23q0 -8 8 -14t18 -6q11 0 67 7q55 7 111 7q61 0 129 -6t74 -6q29 0 29 20q0 7 -7 13t-16 6q-63 0 -99 17t-36 46q0 34 48 117q57 97 233 350h413zM457 627l397 553l-25 -553h-372zM1247 1515
l-156 348h-104l-283 -348h54l270 244l174 -244h45z" />
    <glyph glyph-name="Atilde" unicode="&#xc3;" horiz-adv-x="1341" 
d="M827 563l-14 -368v-9q-6 -117 -62 -135q-20 -7 -61 -13l-18 -3q-30 -3 -38.5 -7.5t-8.5 -15.5q0 -18 34 -18q7 0 85 6q80 6 151 6q102 0 204 -9q11 -1 21 -1q21 0 29 4.5t8 15.5q0 16 -44 22q-31 4 -48 9q-43 12 -59.5 37.5t-16.5 79.5v24l49 1172v10q0 37 -16 37
q-79 0 -145 -98q-11 -16 -25 -37l-789 -1114q-67 -97 -174 -123h-1q-33 -11 -33 -23q0 -8 8 -14t18 -6q11 0 67 7q55 7 111 7q61 0 129 -6t74 -6q29 0 29 20q0 7 -7 13t-16 6q-63 0 -99 17t-36 46q0 34 48 117q57 97 233 350h413zM457 627l397 553l-25 -553h-372zM1296 1782
h-39q-24 -86 -102 -86q-26 0 -53 8l-138 35q-46 12 -77 12q-66 0 -106 -42.5t-58 -131.5h41q12 42 35 61t61 19q24 0 76 -13l131 -35q32 -8 63 -8q62 0 102.5 44t63.5 137z" />
    <glyph glyph-name="Adieresis" unicode="&#xc4;" horiz-adv-x="1341" 
d="M827 563l-14 -368v-9q-6 -117 -62 -135q-20 -7 -61 -13l-18 -3q-30 -3 -38.5 -7.5t-8.5 -15.5q0 -18 34 -18q7 0 85 6q80 6 151 6q102 0 204 -9q11 -1 21 -1q21 0 29 4.5t8 15.5q0 16 -44 22q-31 4 -48 9q-43 12 -59.5 37.5t-16.5 79.5v24l49 1172v10q0 37 -16 37
q-79 0 -145 -98q-11 -16 -25 -37l-789 -1114q-67 -97 -174 -123h-1q-33 -11 -33 -23q0 -8 8 -14t18 -6q11 0 67 7q55 7 111 7q61 0 129 -6t74 -6q29 0 29 20q0 7 -7 13t-16 6q-63 0 -99 17t-36 46q0 34 48 117q57 97 233 350h413zM457 627l397 553l-25 -553h-372zM729 1667
q0 -37 25.5 -63.5t60.5 -26.5q37 0 62.5 26t25.5 64q0 35 -26 60.5t-62 25.5q-33 0 -60 -27q-26 -26 -26 -59zM1112 1667q0 -37 25.5 -63.5t60.5 -26.5q37 0 61.5 25.5t24.5 64.5q0 35 -25.5 60.5t-60.5 25.5q-33 0 -60 -27q-26 -26 -26 -59z" />
    <glyph glyph-name="Aring" unicode="&#xc5;" horiz-adv-x="1341" 
d="M850 1702q0 68 45 114t113 46q66 0 111 -47q46 -46 46 -113t-45 -112q-46 -44 -112 -44q-68 0 -113 45t-45 111zM774 1704q0 -99 67 -166q68 -68 167 -68q97 0 165 68t68 166q0 97 -68 165t-165 68q-99 0 -167 -68q-67 -67 -67 -165zM827 563l-14 -368v-9
q-6 -117 -62 -135q-20 -7 -61 -13l-18 -3q-30 -3 -38.5 -7.5t-8.5 -15.5q0 -18 34 -18q7 0 85 6q80 6 151 6q102 0 204 -9q11 -1 21 -1q21 0 29 4.5t8 15.5q0 16 -44 22q-31 4 -48 9q-43 12 -59.5 37.5t-16.5 79.5v24l49 1172v10q0 37 -16 37q-79 0 -145 -98
q-11 -16 -25 -37l-789 -1114q-67 -97 -174 -123h-1q-33 -11 -33 -23q0 -8 8 -14t18 -6q11 0 67 7q55 7 111 7q61 0 129 -6t74 -6q29 0 29 20q0 7 -7 13t-16 6q-63 0 -99 17t-36 46q0 34 48 117q57 97 233 350h413zM457 627l397 553l-25 -553h-372z" />
    <glyph glyph-name="AE" unicode="&#xc6;" horiz-adv-x="1835" 
d="M504 735l395 498q18 22 25 22q10 0 10 -16q0 -8 -2 -14l-141 -490h-287zM774 688l-127 -477q-24 -87 -45 -115q-18 -27 -56 -41q-25 -9 -69 -14h-3q-48 -7 -48 -27t41 -20q8 0 17 1q118 11 239 11q106 0 408 -5t403 -5q30 124 56 214q32 111 32 118q0 24 -20 24
q-17 0 -47 -66q-28 -66 -74 -116q-63 -69 -144 -97t-272 -28q-135 0 -178 22t-43 78q0 53 14 107l113 436h129q112 0 149 -39q39 -37 39 -151q0 -6 -1 -25t-1 -22q0 -19 23 -19q19 0 36 117q13 88 21 133q14 81 37 163q24 85 24 93q0 29 -16 29q-15 0 -38 -57
q-22 -59 -46 -91q-35 -47 -84 -66q-49 -18 -156 -18h-104l111 389q23 90 59 189h143q198 0 260 -27q61 -27 99 -98q12 -23 28 -78q17 -53 35 -53q19 0 19 41l-1 9q-1 9 -4 31t-6 46q-10 80 -10 166v18q-23 -3 -176 -6q-206 -2 -387 -2q-239 0 -433 13q-17 1 -30 1
q-43 0 -43 -20q0 -10 9.5 -14.5t39.5 -6.5q11 0 21 -2q50 -5 71 -21t21 -48q0 -57 -51 -121l-797 -998q-67 -84 -106 -100q-11 -5 -39 -9q-29 -5 -29 -18q0 -22 31 -22q1 0 7 0.5t20.5 2t29.5 2.5q58 5 102 5q49 0 116 -5q17 -1 33.5 -2.5t23.5 -2t8 -0.5q32 0 32 20
q0 19 -53 24q-19 2 -30 3q-37 5 -53.5 19t-16.5 40q0 25 23 63q22 39 102 138l307 387h305z" />
    <glyph glyph-name="Ccedilla" unicode="&#xc7;" horiz-adv-x="1341" 
d="M1077 36l76 298q16 60 16 74q0 9 -6.5 15.5t-15.5 6.5q-22 0 -51 -65q-4 -8 -27 -58q-157 -297 -436 -297q-338 0 -338 422q0 170 56 355q57 183 155 323q180 256 389 256q135 0 208 -85.5t73 -242.5q0 -2 -1 -12t-1 -14q0 -35 22 -35q16 0 24 32q2 8 3 11l57 297
q0 1 1 6t1 6q0 27 -22 27q-12 0 -32 -24q-20 -23 -30 -23q-9 0 -43 19q-138 75 -272 75q-147 0 -282 -61q-137 -62 -234 -171q-133 -148 -207 -322q-72 -173 -72 -345q0 -254 137 -397q138 -142 383 -142q132 0 379 98q23 0 32 -33q11 -32 23 -32q11 0 21 11t14 27z
M325 -371q177 -69 273 -69q94 0 152 46q59 45 59 118t-46.5 116t-125.5 43q-16 0 -46 -3q-3 -1 -6 -1l62 121h-55l-97 -190q45 8 82 8q60 0 91.5 -24t31.5 -68q0 -101 -127 -101q-83 0 -221 68z" />
    <glyph glyph-name="Egrave" unicode="&#xc8;" horiz-adv-x="1360" 
d="M408 1133l-254 -922q-25 -86 -45 -115q-19 -27 -54 -41q-25 -9 -69 -14h-3q-49 -7 -49 -27q0 -22 41 -22h3t4 0.5t5.5 1t6.5 0.5q111 12 237 12q107 0 407 -5q302 -5 404 -5q30 122 55 213q31 108 31 119q0 24 -18 24q-16 0 -47 -66q-33 -68 -76 -116q-63 -69 -144 -97
t-272 -28q-135 0 -178 22t-43 78t14 106l121 460h129q112 0 150 -39q39 -39 39 -152q0 -6 -1 -23.5t-1 -21.5q0 -20 22 -20q21 0 37 117q10 80 21 135q11 69 35 161q24 86 24 95q0 28 -14 28q-16 0 -38 -57t-46 -90q-34 -46 -84 -66q-50 -18 -156 -18h-104l104 364
q19 66 35 117q3 8 10.5 33.5t11.5 38.5h144q201 0 261 -28q62 -27 99 -97q12 -23 28 -78q17 -53 36 -53q18 0 18 41l-1 9q-1 9 -4 31t-6 46q-11 90 -11 166v18q-81 -5 -223 -6q-190 -2 -373 -2q-97 0 -195 7t-119 7q-19 0 -32 -6t-13 -14q0 -10 10 -14.5t41 -6.5q11 0 21 -2
q50 -5 71 -23t21 -55q0 -30 -24 -120zM975 1515l-223 314q-31 41 -64 41q-24 0 -38.5 -14t-14.5 -36q0 -25 45 -69l15 -15l225 -221h55z" />
    <glyph glyph-name="Eacute" unicode="&#xc9;" horiz-adv-x="1360" 
d="M408 1133l-254 -922q-25 -86 -45 -115q-19 -27 -54 -41q-25 -9 -69 -14h-3q-49 -7 -49 -27q0 -22 41 -22h3t4 0.5t5.5 1t6.5 0.5q111 12 237 12q107 0 407 -5q302 -5 404 -5q30 122 55 213q31 108 31 119q0 24 -18 24q-16 0 -47 -66q-33 -68 -76 -116q-63 -69 -144 -97
t-272 -28q-135 0 -178 22t-43 78t14 106l121 460h129q112 0 150 -39q39 -39 39 -152q0 -6 -1 -23.5t-1 -21.5q0 -20 22 -20q21 0 37 117q10 80 21 135q11 69 35 161q24 86 24 95q0 28 -14 28q-16 0 -38 -57t-46 -90q-34 -46 -84 -66q-50 -18 -156 -18h-104l104 364
q19 66 35 117q3 8 10.5 33.5t11.5 38.5h144q201 0 261 -28q62 -27 99 -97q12 -23 28 -78q17 -53 36 -53q18 0 18 41l-1 9q-1 9 -4 31t-6 46q-11 90 -11 166v18q-81 -5 -223 -6q-190 -2 -373 -2q-97 0 -195 7t-119 7q-19 0 -32 -6t-13 -14q0 -10 10 -14.5t41 -6.5q11 0 21 -2
q50 -5 71 -23t21 -55q0 -30 -24 -120zM760 1515l271 222l1 1q60 49 60 80q0 22 -14 38t-33 16q-32 0 -80 -56l-262 -301h57z" />
    <glyph glyph-name="Ecircumflex" unicode="&#xca;" horiz-adv-x="1360" 
d="M408 1133l-254 -922q-25 -86 -45 -115q-19 -27 -54 -41q-25 -9 -69 -14h-3q-49 -7 -49 -27q0 -22 41 -22h3t4 0.5t5.5 1t6.5 0.5q111 12 237 12q107 0 407 -5q302 -5 404 -5q30 122 55 213q31 108 31 119q0 24 -18 24q-16 0 -47 -66q-33 -68 -76 -116q-63 -69 -144 -97
t-272 -28q-135 0 -178 22t-43 78t14 106l121 460h129q112 0 150 -39q39 -39 39 -152q0 -6 -1 -23.5t-1 -21.5q0 -20 22 -20q21 0 37 117q10 80 21 135q11 69 35 161q24 86 24 95q0 28 -14 28q-16 0 -38 -57t-46 -90q-34 -46 -84 -66q-50 -18 -156 -18h-104l104 364
q19 66 35 117q3 8 10.5 33.5t11.5 38.5h144q201 0 261 -28q62 -27 99 -97q12 -23 28 -78q17 -53 36 -53q18 0 18 41l-1 9q-1 9 -4 31t-6 46q-11 90 -11 166v18q-81 -5 -223 -6q-190 -2 -373 -2q-97 0 -195 7t-119 7q-19 0 -32 -6t-13 -14q0 -10 10 -14.5t41 -6.5q11 0 21 -2
q50 -5 71 -23t21 -55q0 -30 -24 -120zM1098 1515l-156 348h-104l-283 -348h54l270 244l174 -244h45z" />
    <glyph glyph-name="Edieresis" unicode="&#xcb;" horiz-adv-x="1360" 
d="M408 1133l-254 -922q-25 -86 -45 -115q-19 -27 -54 -41q-25 -9 -69 -14h-3q-49 -7 -49 -27q0 -22 41 -22h3t4 0.5t5.5 1t6.5 0.5q111 12 237 12q107 0 407 -5q302 -5 404 -5q30 122 55 213q31 108 31 119q0 24 -18 24q-16 0 -47 -66q-33 -68 -76 -116q-63 -69 -144 -97
t-272 -28q-135 0 -178 22t-43 78t14 106l121 460h129q112 0 150 -39q39 -39 39 -152q0 -6 -1 -23.5t-1 -21.5q0 -20 22 -20q21 0 37 117q10 80 21 135q11 69 35 161q24 86 24 95q0 28 -14 28q-16 0 -38 -57t-46 -90q-34 -46 -84 -66q-50 -18 -156 -18h-104l104 364
q19 66 35 117q3 8 10.5 33.5t11.5 38.5h144q201 0 261 -28q62 -27 99 -97q12 -23 28 -78q17 -53 36 -53q18 0 18 41l-1 9q-1 9 -4 31t-6 46q-11 90 -11 166v18q-81 -5 -223 -6q-190 -2 -373 -2q-97 0 -195 7t-119 7q-19 0 -32 -6t-13 -14q0 -10 10 -14.5t41 -6.5q11 0 21 -2
q50 -5 71 -23t21 -55q0 -30 -24 -120zM580 1667q0 -37 25.5 -63.5t60.5 -26.5q37 0 62.5 26t25.5 64q0 35 -26 60.5t-62 25.5q-33 0 -60 -27q-26 -26 -26 -59zM963 1667q0 -37 25.5 -63.5t60.5 -26.5q37 0 61.5 25.5t24.5 64.5q0 35 -25.5 60.5t-60.5 25.5q-33 0 -60 -27
q-26 -26 -26 -59z" />
    <glyph glyph-name="Igrave" unicode="&#xcc;" horiz-adv-x="782" 
d="M373 219l274 983q17 59 35 82q19 23 49 35q28 11 74 14q47 3 47 23q0 8 -11 14t-28 6q-11 0 -24 -1q-111 -9 -220 -9q-113 0 -210 7q-11 1 -21 1q-20 0 -32.5 -6t-12.5 -14q0 -16 50 -21q4 0 11.5 -0.5t10.5 -1.5q50 -5 71 -23t21 -55q0 -31 -25 -120l-254 -922
q-22 -84 -44 -113q-20 -30 -57 -43q-25 -9 -69 -14q-2 0 -3 -1q-46 -6 -46 -26q0 -22 41 -22q2 0 5.5 0.5t10 1t11.5 0.5q97 12 186 12q127 0 252 -12q6 0 11.5 -0.5t8.5 -1t4 -0.5q9 0 17 7t8 13q0 20 -43 24q-32 4 -68 13q-47 12 -47 72q0 42 17 98zM756 1515l-223 314
q-31 41 -64 41q-24 0 -38.5 -14t-14.5 -36q0 -25 45 -69l15 -15l225 -221h55z" />
    <glyph glyph-name="Iacute" unicode="&#xcd;" horiz-adv-x="782" 
d="M373 219l274 983q17 59 35 82q19 23 49 35q28 11 74 14q47 3 47 23q0 8 -11 14t-28 6q-11 0 -24 -1q-111 -9 -220 -9q-113 0 -210 7q-11 1 -21 1q-20 0 -32.5 -6t-12.5 -14q0 -16 50 -21q4 0 11.5 -0.5t10.5 -1.5q50 -5 71 -23t21 -55q0 -31 -25 -120l-254 -922
q-22 -84 -44 -113q-20 -30 -57 -43q-25 -9 -69 -14q-2 0 -3 -1q-46 -6 -46 -26q0 -22 41 -22q2 0 5.5 0.5t10 1t11.5 0.5q97 12 186 12q127 0 252 -12q6 0 11.5 -0.5t8.5 -1t4 -0.5q9 0 17 7t8 13q0 20 -43 24q-32 4 -68 13q-47 12 -47 72q0 42 17 98zM541 1515l271 222l1 1
q60 49 60 80q0 22 -14 38t-33 16q-32 0 -80 -56l-262 -301h57z" />
    <glyph glyph-name="Icircumflex" unicode="&#xce;" horiz-adv-x="782" 
d="M373 219l274 983q17 59 35 82q19 23 49 35q28 11 74 14q47 3 47 23q0 8 -11 14t-28 6q-11 0 -24 -1q-111 -9 -220 -9q-113 0 -210 7q-11 1 -21 1q-20 0 -32.5 -6t-12.5 -14q0 -16 50 -21q4 0 11.5 -0.5t10.5 -1.5q50 -5 71 -23t21 -55q0 -31 -25 -120l-254 -922
q-22 -84 -44 -113q-20 -30 -57 -43q-25 -9 -69 -14q-2 0 -3 -1q-46 -6 -46 -26q0 -22 41 -22q2 0 5.5 0.5t10 1t11.5 0.5q97 12 186 12q127 0 252 -12q6 0 11.5 -0.5t8.5 -1t4 -0.5q9 0 17 7t8 13q0 20 -43 24q-32 4 -68 13q-47 12 -47 72q0 42 17 98zM879 1515l-156 348
h-104l-283 -348h54l270 244l174 -244h45z" />
    <glyph glyph-name="Idieresis" unicode="&#xcf;" horiz-adv-x="782" 
d="M373 219l274 983q17 59 35 82q19 23 49 35q28 11 74 14q47 3 47 23q0 8 -11 14t-28 6q-11 0 -24 -1q-111 -9 -220 -9q-113 0 -210 7q-11 1 -21 1q-20 0 -32.5 -6t-12.5 -14q0 -16 50 -21q4 0 11.5 -0.5t10.5 -1.5q50 -5 71 -23t21 -55q0 -31 -25 -120l-254 -922
q-22 -84 -44 -113q-20 -30 -57 -43q-25 -9 -69 -14q-2 0 -3 -1q-46 -6 -46 -26q0 -22 41 -22q2 0 5.5 0.5t10 1t11.5 0.5q97 12 186 12q127 0 252 -12q6 0 11.5 -0.5t8.5 -1t4 -0.5q9 0 17 7t8 13q0 20 -43 24q-32 4 -68 13q-47 12 -47 72q0 42 17 98zM361 1667
q0 -37 25.5 -63.5t60.5 -26.5q37 0 62.5 26t25.5 64q0 35 -26 60.5t-62 25.5q-33 0 -60 -27q-26 -26 -26 -59zM744 1667q0 -37 25.5 -63.5t60.5 -26.5q37 0 61.5 25.5t24.5 64.5q0 35 -25.5 60.5t-60.5 25.5q-33 0 -60 -27q-26 -26 -26 -59z" />
    <glyph glyph-name="Eth" unicode="&#xd0;" horiz-adv-x="1475" 
d="M637 1188q24 86 51 108q29 23 88 23q191 0 298 -113q108 -112 108 -311q0 -148 -40 -298q-38 -148 -110 -278t-191 -199t-272 -69q-121 0 -162 22q-42 23 -42 81q0 61 16 118l115 410h329l17 51h-330zM424 1122l-105 -389h-309l-18 -51h309l-129 -471q-23 -85 -44 -115
q-18 -27 -55 -41q-25 -9 -69 -14h-3q-48 -7 -48 -27q0 -22 41 -22q6 0 30 3q111 13 228 13q49 0 136 -4t153 -4q216 0 366 59q146 57 269 193q210 235 210 551q0 275 -178 423t-512 148q-234 0 -327 -10q-97 -10 -97 -33q2 -20 85 -27q9 -1 19 -1q36 -4 52 -22t16 -54
q0 -31 -17 -94q-1 -5 -3 -11z" />
    <glyph glyph-name="Ntilde" unicode="&#xd1;" horiz-adv-x="1569" 
d="M270 330l201 800l533 -1118q21 -47 53 -47q30 0 47 66l211 807q43 165 91 299q42 118 73 149q30 29 103 42q3 1 7 1q32 4 42.5 9.5t10.5 17.5q0 22 -34 22q-1 0 -13 -1t-18 -1t-11 -1q-102 -11 -177 -11q-84 0 -168 10q-5 0 -11.5 0.5t-10 1t-5.5 0.5q-31 0 -31 -22
q0 -17 42 -23q40 -6 65 -14q65 -23 65 -96q0 -60 -30 -181l-203 -809l-529 1094q-14 29 -23.5 36t-33.5 7q-14 0 -61 -3t-76 -3q-44 0 -81 4q-36 4 -44 4q-14 0 -23.5 -6t-9.5 -14q0 -19 47 -24q50 -5 78 -13q27 -10 46.5 -35t37.5 -74q-1 -41 -12 -77l-158 -595
q-46 -173 -92 -299q-44 -119 -72 -147q-34 -31 -110 -45q-32 -4 -43 -9.5t-11 -17.5q0 -22 37 -22q7 0 32 3q102 11 187 11q83 0 166 -10q5 0 11.5 -0.5t10 -1t5.5 -0.5q32 0 33 22q0 18 -45 25h-2q-36 5 -61 14q-36 12 -51 34.5t-15 62.5q0 58 30 178zM1247 1782h-39
q-24 -86 -102 -86q-26 0 -53 8l-138 35q-46 12 -77 12q-66 0 -106 -42.5t-58 -131.5h41q12 42 35 61t61 19q24 0 76 -13l131 -35q32 -8 63 -8q62 0 102.5 44t63.5 137z" />
    <glyph glyph-name="Ograve" unicode="&#xd2;" horiz-adv-x="1460" 
d="M283 401q0 179 63 379t168 350q162 234 354 234q141 0 223 -99q83 -100 83 -268q0 -139 -40 -295q-40 -159 -112 -305q-189 -389 -451 -389q-137 0 -212.5 103t-75.5 290zM578 -33q136 0 267 57q132 57 232 160q138 141 213 320q76 177 76 364q0 249 -132 393t-360 144
q-138 0 -265 -54t-226 -155q-297 -297 -297 -700q0 -251 130 -390t362 -139zM1067 1515l-223 314q-31 41 -64 41q-24 0 -38.5 -14t-14.5 -36q0 -25 45 -69l15 -15l225 -221h55z" />
    <glyph glyph-name="Oacute" unicode="&#xd3;" horiz-adv-x="1460" 
d="M283 401q0 179 63 379t168 350q162 234 354 234q141 0 223 -99q83 -100 83 -268q0 -139 -40 -295q-40 -159 -112 -305q-189 -389 -451 -389q-137 0 -212.5 103t-75.5 290zM578 -33q136 0 267 57q132 57 232 160q138 141 213 320q76 177 76 364q0 249 -132 393t-360 144
q-138 0 -265 -54t-226 -155q-297 -297 -297 -700q0 -251 130 -390t362 -139zM852 1515l271 222l1 1q60 49 60 80q0 22 -14 38t-33 16q-32 0 -80 -56l-262 -301h57z" />
    <glyph glyph-name="Ocircumflex" unicode="&#xd4;" horiz-adv-x="1460" 
d="M283 401q0 179 63 379t168 350q162 234 354 234q141 0 223 -99q83 -100 83 -268q0 -139 -40 -295q-40 -159 -112 -305q-189 -389 -451 -389q-137 0 -212.5 103t-75.5 290zM578 -33q136 0 267 57q132 57 232 160q138 141 213 320q76 177 76 364q0 249 -132 393t-360 144
q-138 0 -265 -54t-226 -155q-297 -297 -297 -700q0 -251 130 -390t362 -139zM1190 1515l-156 348h-104l-283 -348h54l270 244l174 -244h45z" />
    <glyph glyph-name="Otilde" unicode="&#xd5;" horiz-adv-x="1460" 
d="M283 401q0 179 63 379t168 350q162 234 354 234q141 0 223 -99q83 -100 83 -268q0 -139 -40 -295q-40 -159 -112 -305q-189 -389 -451 -389q-137 0 -212.5 103t-75.5 290zM578 -33q136 0 267 57q132 57 232 160q138 141 213 320q76 177 76 364q0 249 -132 393t-360 144
q-138 0 -265 -54t-226 -155q-297 -297 -297 -700q0 -251 130 -390t362 -139zM1239 1782h-39q-24 -86 -102 -86q-26 0 -53 8l-138 35q-46 12 -77 12q-66 0 -106 -42.5t-58 -131.5h41q12 42 35 61t61 19q24 0 76 -13l131 -35q32 -8 63 -8q62 0 102.5 44t63.5 137z" />
    <glyph glyph-name="Odieresis" unicode="&#xd6;" horiz-adv-x="1460" 
d="M283 401q0 179 63 379t168 350q162 234 354 234q141 0 223 -99q83 -100 83 -268q0 -139 -40 -295q-40 -159 -112 -305q-189 -389 -451 -389q-137 0 -212.5 103t-75.5 290zM578 -33q136 0 267 57q132 57 232 160q138 141 213 320q76 177 76 364q0 249 -132 393t-360 144
q-138 0 -265 -54t-226 -155q-297 -297 -297 -700q0 -251 130 -390t362 -139zM672 1667q0 -37 25.5 -63.5t60.5 -26.5q37 0 62.5 26t25.5 64q0 35 -26 60.5t-62 25.5q-33 0 -60 -27q-26 -26 -26 -59zM1055 1667q0 -37 25.5 -63.5t60.5 -26.5q37 0 61.5 25.5t24.5 64.5
q0 35 -25.5 60.5t-60.5 25.5q-33 0 -60 -27q-26 -26 -26 -59z" />
    <glyph glyph-name="multiply" unicode="&#xd7;" horiz-adv-x="1706" 
d="M381 1169l-80 -82l475 -477l-475 -475l80 -82l477 475l475 -475l82 82l-475 475l475 477l-82 82l-475 -477z" />
    <glyph glyph-name="Oslash" unicode="&#xd8;" horiz-adv-x="1460" 
d="M371 109q-78 87 -78 282q0 156 59 357q71 236 176 380q166 230 377 230q79 0 125 -33zM426 51l661 1221q91 -102 91 -314q0 -166 -58 -348t-168 -358q-70 -115 -168 -177.5t-209 -62.5q-91 0 -149 39zM250 -276l145 268q89 -25 172 -25q160 0 303 67q144 68 246 189
q248 300 248 643q0 349 -236 477l148 271h-86l-131 -240q-93 31 -182 31q-136 0 -265.5 -58t-236.5 -167q-287 -290 -287 -701q0 -162 57 -270t181 -182l-164 -303h88z" />
    <glyph glyph-name="Ugrave" unicode="&#xd9;" horiz-adv-x="1577" 
d="M233 535q-32 -117 -32 -216q0 -170 113.5 -261t326.5 -91q132 0 229.5 38.5t173.5 119.5q55 59 103 175q51 122 110 333l144 516q36 120 96 151q26 14 67 26q5 1 11 3q41 6 41 25q0 9 -10 15.5t-25 6.5q-1 0 -4.5 -0.5t-9.5 -1t-11 -0.5q-88 -8 -155 -8q-87 0 -156 8
q-7 0 -21 1l-14 1q-36 0 -36 -24q0 -10 8.5 -14.5t40.5 -8.5q3 0 6 -1q7 -1 19.5 -3.5l17.5 -3.5q65 -13 65 -88q0 -78 -47 -286q-43 -192 -127 -460q-79 -254 -184 -356q-103 -100 -279 -100q-152 0 -233.5 71.5t-81.5 204.5q0 78 29 182l176 633q27 94 50 137t54 56
q31 14 72 14q2 0 3 1q46 6 46 26t-35 20q-9 0 -20 -1q-98 -9 -197 -9q-129 0 -250 9q-11 1 -20 1q-18 0 -29.5 -6.5t-11.5 -15.5q0 -16 44 -21q45 -5 66 -12q32 -11 44 -28.5t12 -53.5q0 -48 -33 -174zM1155 1515l-223 314q-31 41 -64 41q-24 0 -38.5 -14t-14.5 -36
q0 -25 45 -69l15 -15l225 -221h55z" />
    <glyph glyph-name="Uacute" unicode="&#xda;" horiz-adv-x="1577" 
d="M233 535q-32 -117 -32 -216q0 -170 113.5 -261t326.5 -91q132 0 229.5 38.5t173.5 119.5q55 59 103 175q51 122 110 333l144 516q36 120 96 151q26 14 67 26q5 1 11 3q41 6 41 25q0 9 -10 15.5t-25 6.5q-1 0 -4.5 -0.5t-9.5 -1t-11 -0.5q-88 -8 -155 -8q-87 0 -156 8
q-7 0 -21 1l-14 1q-36 0 -36 -24q0 -10 8.5 -14.5t40.5 -8.5q3 0 6 -1q7 -1 19.5 -3.5l17.5 -3.5q65 -13 65 -88q0 -78 -47 -286q-43 -192 -127 -460q-79 -254 -184 -356q-103 -100 -279 -100q-152 0 -233.5 71.5t-81.5 204.5q0 78 29 182l176 633q27 94 50 137t54 56
q31 14 72 14q2 0 3 1q46 6 46 26t-35 20q-9 0 -20 -1q-98 -9 -197 -9q-129 0 -250 9q-11 1 -20 1q-18 0 -29.5 -6.5t-11.5 -15.5q0 -16 44 -21q45 -5 66 -12q32 -11 44 -28.5t12 -53.5q0 -48 -33 -174zM940 1515l271 222l1 1q60 49 60 80q0 22 -14 38t-33 16q-32 0 -80 -56
l-262 -301h57z" />
    <glyph glyph-name="Ucircumflex" unicode="&#xdb;" horiz-adv-x="1577" 
d="M233 535q-32 -117 -32 -216q0 -170 113.5 -261t326.5 -91q132 0 229.5 38.5t173.5 119.5q55 59 103 175q51 122 110 333l144 516q36 120 96 151q26 14 67 26q5 1 11 3q41 6 41 25q0 9 -10 15.5t-25 6.5q-1 0 -4.5 -0.5t-9.5 -1t-11 -0.5q-88 -8 -155 -8q-87 0 -156 8
q-7 0 -21 1l-14 1q-36 0 -36 -24q0 -10 8.5 -14.5t40.5 -8.5q3 0 6 -1q7 -1 19.5 -3.5l17.5 -3.5q65 -13 65 -88q0 -78 -47 -286q-43 -192 -127 -460q-79 -254 -184 -356q-103 -100 -279 -100q-152 0 -233.5 71.5t-81.5 204.5q0 78 29 182l176 633q27 94 50 137t54 56
q31 14 72 14q2 0 3 1q46 6 46 26t-35 20q-9 0 -20 -1q-98 -9 -197 -9q-129 0 -250 9q-11 1 -20 1q-18 0 -29.5 -6.5t-11.5 -15.5q0 -16 44 -21q45 -5 66 -12q32 -11 44 -28.5t12 -53.5q0 -48 -33 -174zM1278 1515l-156 348h-104l-283 -348h54l270 244l174 -244h45z" />
    <glyph glyph-name="Udieresis" unicode="&#xdc;" horiz-adv-x="1577" 
d="M233 535q-32 -117 -32 -216q0 -170 113.5 -261t326.5 -91q132 0 229.5 38.5t173.5 119.5q55 59 103 175q51 122 110 333l144 516q36 120 96 151q26 14 67 26q5 1 11 3q41 6 41 25q0 9 -10 15.5t-25 6.5q-1 0 -4.5 -0.5t-9.5 -1t-11 -0.5q-88 -8 -155 -8q-87 0 -156 8
q-7 0 -21 1l-14 1q-36 0 -36 -24q0 -10 8.5 -14.5t40.5 -8.5q3 0 6 -1q7 -1 19.5 -3.5l17.5 -3.5q65 -13 65 -88q0 -78 -47 -286q-43 -192 -127 -460q-79 -254 -184 -356q-103 -100 -279 -100q-152 0 -233.5 71.5t-81.5 204.5q0 78 29 182l176 633q27 94 50 137t54 56
q31 14 72 14q2 0 3 1q46 6 46 26t-35 20q-9 0 -20 -1q-98 -9 -197 -9q-129 0 -250 9q-11 1 -20 1q-18 0 -29.5 -6.5t-11.5 -15.5q0 -16 44 -21q45 -5 66 -12q32 -11 44 -28.5t12 -53.5q0 -48 -33 -174zM760 1667q0 -37 25.5 -63.5t60.5 -26.5q37 0 62.5 26t25.5 64
q0 35 -26 60.5t-62 25.5q-33 0 -60 -27q-26 -26 -26 -59zM1143 1667q0 -37 25.5 -63.5t60.5 -26.5q37 0 61.5 25.5t24.5 64.5q0 35 -25.5 60.5t-60.5 25.5q-33 0 -60 -27q-26 -26 -26 -59z" />
    <glyph glyph-name="Yacute" unicode="&#xdd;" horiz-adv-x="1110" 
d="M514 221l98 359l488 594q4 4 14 17t15 19q77 96 110 107q6 2 31 8q37 7 37 23q0 20 -35 20q-8 0 -18 -2q-43 -4 -150 -4q-96 0 -149 8q-16 2 -23 2q-33 0 -33 -24q0 -15 40 -19q27 -2 38 -4q38 -8 55 -23t17 -40q0 -50 -80 -163q-87 -123 -254 -313l-115 -131l-135 512
q-14 54 -14 86q0 30 12.5 45t44.5 23q15 4 51 7q51 4 51 24t-35 20q-7 0 -25 -2q-9 0 -19 -1q-87 -7 -173 -7q-55 0 -137 8q-11 0 -36.5 1t-28.5 1q-54 0 -54 -22q0 -19 40 -23t58 -12q40 -17 58 -84l166 -631l-105 -389q-22 -85 -44 -115q-21 -27 -62 -41q-31 -10 -78 -14
h-4q-2 0 -4 -1q-49 -6 -49 -26q0 -22 47 -22q2 0 5.5 0.5t11 1t13.5 0.5q109 12 212 12q137 0 265 -12q5 0 11 -0.5t8.5 -1t3.5 -0.5q11 0 21 7t10 13q0 21 -52 25q-50 5 -81 12q-55 12 -55 74q0 44 16 98zM704 1515l271 222l1 1q60 49 60 80q0 22 -14 38t-33 16
q-32 0 -80 -56l-262 -301h57z" />
    <glyph glyph-name="Thorn" unicode="&#xde;" horiz-adv-x="1262" 
d="M627 1157q19 78 40 112q20 30 58 44q26 9 73 15q48 6 48 26q0 22 -41 22q-9 0 -60 -6t-94 -6q-143 0 -289 9q-17 1 -30 1q-20 0 -32.5 -6t-12.5 -14q0 -16 50 -21q4 0 11.5 -0.5t10.5 -1.5q49 -5 70.5 -23t21.5 -55q0 -31 -25 -120l-254 -922q-22 -84 -44 -113
q-20 -30 -57 -43q-25 -9 -69 -14q-2 0 -3 -1q-46 -6 -46 -26q0 -22 41 -22q5 0 28 3q101 11 185 11q131 0 252 -12q4 0 8.5 -0.5t7 -1t5 -0.5h3.5q9 0 17 7t8 13q0 20 -43 24q-32 4 -68 13q-47 12 -47 72q0 37 17 99l34 126q122 -12 211 -12q278 0 432 111q156 111 156 307
q0 164 -121 236q-121 73 -399 73h-78zM414 392l135 480q28 96 57 122q31 26 127 26q126 0 197 -64.5t71 -177.5q0 -180 -116 -287q-115 -106 -316 -106q-60 0 -155 7z" />
    <glyph glyph-name="germandbls" unicode="&#xdf;" horiz-adv-x="938" 
d="M135 -18l230 985q64 277 112 364q47 84 119 84q121 0 121 -192q0 -129 -46 -231q-45 -103 -114 -134q-27 -12 -70 -16q-45 -4 -45 -21q0 -15 35 -23q33 -5 55 -14q56 -22 80.5 -61.5t24.5 -108.5q0 -117 -34 -243q-34 -127 -91 -221q-30 -53 -68 -83t-71 -30
q-31 0 -31 29q0 6 9 29q9 24 9 40q0 25 -18 42.5t-45 17.5q-29 0 -47.5 -21.5t-18.5 -56.5q0 -59 41.5 -94t110.5 -35q73 0 143 40t127 115q63 84 97 182.5t34 194.5q0 240 -217 289l2 18q140 31 213.5 122.5t73.5 234.5q0 121 -70 197q-69 77 -180 77q-162 0 -267 -186
q-104 -186 -224 -740l-172 -788q-32 -141 -62 -201.5t-67 -60.5q-24 0 -42 47q-20 47 -53 47q-27 0 -44 -17.5t-17 -43.5q0 -36 34.5 -59t88.5 -23q117 0 203 131q83 130 151 418z" />
    <glyph glyph-name="agrave" unicode="&#xe0;" horiz-adv-x="1010" 
d="M115 160q0 180 157 467q141 256 275 256q48 0 77 -33t29 -88q0 -90 -48 -236q-48 -145 -130 -293q-64 -116 -121 -167.5t-121 -51.5q-52 0 -85 40.5t-33 105.5zM530 256q-28 -105 -28 -162q0 -60 32 -91.5t93 -31.5q89 0 160 89.5t118 261.5l-33 12q-54 -148 -105 -226.5
t-93 -78.5q-21 0 -34 14t-13 37q0 64 26 162l172 595q6 19 6 42q0 34 -81 34q-22 0 -27 -16l-31 -109q-15 64 -57 100t-103 36q-88 0 -193 -69q-104 -67 -192 -185q-80 -110 -125 -226t-45 -211q0 -121 59.5 -191.5t162.5 -70.5q213 0 331 285zM756 1036l-223 314
q-31 41 -64 41q-24 0 -38.5 -14t-14.5 -36q0 -25 45 -69l15 -15l225 -221h55z" />
    <glyph glyph-name="aacute" unicode="&#xe1;" horiz-adv-x="1010" 
d="M115 160q0 180 157 467q141 256 275 256q48 0 77 -33t29 -88q0 -90 -48 -236q-48 -145 -130 -293q-64 -116 -121 -167.5t-121 -51.5q-52 0 -85 40.5t-33 105.5zM530 256q-28 -105 -28 -162q0 -60 32 -91.5t93 -31.5q89 0 160 89.5t118 261.5l-33 12q-54 -148 -105 -226.5
t-93 -78.5q-21 0 -34 14t-13 37q0 64 26 162l172 595q6 19 6 42q0 34 -81 34q-22 0 -27 -16l-31 -109q-15 64 -57 100t-103 36q-88 0 -193 -69q-104 -67 -192 -185q-80 -110 -125 -226t-45 -211q0 -121 59.5 -191.5t162.5 -70.5q213 0 331 285zM541 1036l271 222l1 1
q60 49 60 80q0 22 -14 38t-33 16q-32 0 -80 -56l-262 -301h57z" />
    <glyph glyph-name="acircumflex" unicode="&#xe2;" horiz-adv-x="1010" 
d="M115 160q0 180 157 467q141 256 275 256q48 0 77 -33t29 -88q0 -90 -48 -236q-48 -145 -130 -293q-64 -116 -121 -167.5t-121 -51.5q-52 0 -85 40.5t-33 105.5zM530 256q-28 -105 -28 -162q0 -60 32 -91.5t93 -31.5q89 0 160 89.5t118 261.5l-33 12q-54 -148 -105 -226.5
t-93 -78.5q-21 0 -34 14t-13 37q0 64 26 162l172 595q6 19 6 42q0 34 -81 34q-22 0 -27 -16l-31 -109q-15 64 -57 100t-103 36q-88 0 -193 -69q-104 -67 -192 -185q-80 -110 -125 -226t-45 -211q0 -121 59.5 -191.5t162.5 -70.5q213 0 331 285zM879 1036l-156 348h-104
l-283 -348h54l270 244l174 -244h45z" />
    <glyph glyph-name="atilde" unicode="&#xe3;" horiz-adv-x="1010" 
d="M115 160q0 180 157 467q141 256 275 256q48 0 77 -33t29 -88q0 -90 -48 -236q-48 -145 -130 -293q-64 -116 -121 -167.5t-121 -51.5q-52 0 -85 40.5t-33 105.5zM530 256q-28 -105 -28 -162q0 -60 32 -91.5t93 -31.5q89 0 160 89.5t118 261.5l-33 12q-54 -148 -105 -226.5
t-93 -78.5q-21 0 -34 14t-13 37q0 64 26 162l172 595q6 19 6 42q0 34 -81 34q-22 0 -27 -16l-31 -109q-15 64 -57 100t-103 36q-88 0 -193 -69q-104 -67 -192 -185q-80 -110 -125 -226t-45 -211q0 -121 59.5 -191.5t162.5 -70.5q213 0 331 285zM928 1303h-39
q-24 -86 -102 -86q-26 0 -53 8l-138 35q-46 12 -77 12q-66 0 -106 -42.5t-58 -131.5h41q12 42 35 61t61 19q24 0 76 -13l131 -35q32 -8 63 -8q62 0 102.5 44t63.5 137z" />
    <glyph glyph-name="adieresis" unicode="&#xe4;" horiz-adv-x="1010" 
d="M115 160q0 180 157 467q141 256 275 256q48 0 77 -33t29 -88q0 -90 -48 -236q-48 -145 -130 -293q-64 -116 -121 -167.5t-121 -51.5q-52 0 -85 40.5t-33 105.5zM530 256q-28 -105 -28 -162q0 -60 32 -91.5t93 -31.5q89 0 160 89.5t118 261.5l-33 12q-54 -148 -105 -226.5
t-93 -78.5q-21 0 -34 14t-13 37q0 64 26 162l172 595q6 19 6 42q0 34 -81 34q-22 0 -27 -16l-31 -109q-15 64 -57 100t-103 36q-88 0 -193 -69q-104 -67 -192 -185q-80 -110 -125 -226t-45 -211q0 -121 59.5 -191.5t162.5 -70.5q213 0 331 285zM361 1188q0 -37 25.5 -63.5
t60.5 -26.5q37 0 62.5 26t25.5 64q0 35 -26 60.5t-62 25.5q-33 0 -60 -27q-26 -26 -26 -59zM744 1188q0 -37 25.5 -63.5t60.5 -26.5q37 0 61.5 25.5t24.5 64.5q0 35 -25.5 60.5t-60.5 25.5q-33 0 -60 -27q-26 -26 -26 -59z" />
    <glyph glyph-name="aring" unicode="&#xe5;" horiz-adv-x="1010" 
d="M477 1225q0 67 45 112t113 45q67 0 112 -45q46 -45 46 -112t-46 -113q-45 -45 -112 -45q-66 0 -113 45q-45 46 -45 113zM403 1225q0 -99 68 -167q67 -67 166 -67q98 0 165 67q68 68 68 167q0 97 -68 165t-165 68q-98 0 -166 -68t-68 -165zM115 160q0 180 157 467
q141 256 275 256q48 0 77 -33t29 -88q0 -90 -48 -236q-48 -145 -130 -293q-64 -116 -121 -167.5t-121 -51.5q-52 0 -85 40.5t-33 105.5zM530 256q-28 -105 -28 -162q0 -60 32 -91.5t93 -31.5q89 0 160 89.5t118 261.5l-33 12q-54 -148 -105 -226.5t-93 -78.5q-21 0 -34 14
t-13 37q0 64 26 162l172 595q6 19 6 42q0 34 -81 34q-22 0 -27 -16l-31 -109q-15 64 -57 100t-103 36q-88 0 -193 -69q-104 -67 -192 -185q-80 -110 -125 -226t-45 -211q0 -121 59.5 -191.5t162.5 -70.5q213 0 331 285z" />
    <glyph glyph-name="ae" unicode="&#xe6;" horiz-adv-x="1221" 
d="M465 147q21 -83 79 -129.5t140 -46.5q104 0 201 74q95 73 159 205l-28 20q-68 -116 -147.5 -181.5t-151.5 -65.5q-111 0 -111 137q0 79 37 192q239 80 369 195q131 116 131 244q0 63 -38 98t-108 35q-40 0 -100 -16q-57 -15 -79 -19q-28 -4 -45 -6q-116 -17 -189 -35
q-63 -15 -127 -41q-219 -89 -347 -257q-128 -167 -128 -362q0 -98 51 -158q53 -59 137 -59q152 0 295 176zM460 204q-143 -165 -245 -165q-42 0 -65 32.5t-23 92.5q0 117 72 261q72 145 182 243q186 164 428 176q-330 -278 -349 -640zM655 393q68 236 146 360
q80 128 157 128q37 0 56.5 -21t19.5 -59q0 -109 -105 -225q-103 -113 -274 -183z" />
    <glyph glyph-name="ccedilla" unicode="&#xe7;" horiz-adv-x="786" 
d="M608 268l-33 19q-135 -267 -301 -267q-59 0 -91.5 42t-32.5 118q0 109 50 268q52 160 136 302q79 135 178 135q25 0 42 -8t17 -19q0 -2 -14 -27q-14 -23 -14 -51q0 -27 19 -43t52 -16q27 0 47.5 24t20.5 56q0 55 -47 91t-121 36q-91 0 -193 -72q-104 -73 -188 -199
q-135 -198 -135 -403q0 -139 63 -210t187 -71q230 0 358 295zM-60 -371q177 -69 273 -69q94 0 152 46q59 45 59 118t-46.5 116t-125.5 43q-16 0 -46 -3q-3 -1 -6 -1l62 121h-55l-97 -190q45 8 82 8q60 0 91.5 -24t31.5 -68q0 -101 -127 -101q-83 0 -221 68z" />
    <glyph glyph-name="egrave" unicode="&#xe8;" horiz-adv-x="784" 
d="M596 252l-35 20q-170 -252 -299 -252q-60 0 -87.5 30.5t-27.5 96.5q0 52 19 128l16 69q502 181 502 432q0 67 -42 108.5t-110 41.5q-92 0 -205 -90q-113 -89 -206 -240q-57 -90 -88 -191t-31 -192q0 -113 56 -177.5t155 -64.5q113 0 206.5 68.5t176.5 212.5zM197 393
q57 221 144 358q87 136 167 136q34 0 53 -24t19 -66q0 -96 -110 -217q-109 -119 -273 -187zM676 1036l-223 314q-31 41 -64 41q-24 0 -38.5 -14t-14.5 -36q0 -25 45 -69l15 -15l225 -221h55z" />
    <glyph glyph-name="eacute" unicode="&#xe9;" horiz-adv-x="784" 
d="M596 252l-35 20q-170 -252 -299 -252q-60 0 -87.5 30.5t-27.5 96.5q0 52 19 128l16 69q502 181 502 432q0 67 -42 108.5t-110 41.5q-92 0 -205 -90q-113 -89 -206 -240q-57 -90 -88 -191t-31 -192q0 -113 56 -177.5t155 -64.5q113 0 206.5 68.5t176.5 212.5zM197 393
q57 221 144 358q87 136 167 136q34 0 53 -24t19 -66q0 -96 -110 -217q-109 -119 -273 -187zM461 1036l271 222l1 1q60 49 60 80q0 22 -14 38t-33 16q-32 0 -80 -56l-262 -301h57z" />
    <glyph glyph-name="ecircumflex" unicode="&#xea;" horiz-adv-x="784" 
d="M596 252l-35 20q-170 -252 -299 -252q-60 0 -87.5 30.5t-27.5 96.5q0 52 19 128l16 69q502 181 502 432q0 67 -42 108.5t-110 41.5q-92 0 -205 -90q-113 -89 -206 -240q-57 -90 -88 -191t-31 -192q0 -113 56 -177.5t155 -64.5q113 0 206.5 68.5t176.5 212.5zM197 393
q57 221 144 358q87 136 167 136q34 0 53 -24t19 -66q0 -96 -110 -217q-109 -119 -273 -187zM799 1036l-156 348h-104l-283 -348h54l270 244l174 -244h45z" />
    <glyph glyph-name="edieresis" unicode="&#xeb;" horiz-adv-x="784" 
d="M596 252l-35 20q-170 -252 -299 -252q-60 0 -87.5 30.5t-27.5 96.5q0 52 19 128l16 69q502 181 502 432q0 67 -42 108.5t-110 41.5q-92 0 -205 -90q-113 -89 -206 -240q-57 -90 -88 -191t-31 -192q0 -113 56 -177.5t155 -64.5q113 0 206.5 68.5t176.5 212.5zM197 393
q57 221 144 358q87 136 167 136q34 0 53 -24t19 -66q0 -96 -110 -217q-109 -119 -273 -187zM281 1188q0 -37 25.5 -63.5t60.5 -26.5q37 0 62.5 26t25.5 64q0 35 -26 60.5t-62 25.5q-33 0 -60 -27q-26 -26 -26 -59zM664 1188q0 -37 25.5 -63.5t60.5 -26.5q37 0 61.5 25.5
t24.5 64.5q0 35 -25.5 60.5t-60.5 25.5q-33 0 -60 -27q-26 -26 -26 -59z" />
    <glyph glyph-name="igrave" unicode="&#xec;" horiz-adv-x="559" 
d="M125 399q-74 -188 -74 -284q0 -66 33 -103t92 -37q80 0 151 75t140 233l-29 18q-76 -147 -128 -210q-51 -60 -97 -60q-17 0 -28 12.5t-11 32.5q0 42 74 239l59 158q45 122 62 186q18 69 18 117q0 68 -34.5 108t-92.5 40q-140 0 -268 -297l35 -15q54 118 108 186t94 68
q17 0 27 -13.5t10 -35.5q0 -60 -65 -221zM446 1036l-223 314q-31 41 -64 41q-24 0 -38.5 -14t-14.5 -36q0 -25 45 -69l15 -15l225 -221h55z" />
    <glyph glyph-name="iacute" unicode="&#xed;" horiz-adv-x="559" 
d="M125 399q-74 -188 -74 -284q0 -66 33 -103t92 -37q80 0 151 75t140 233l-29 18q-76 -147 -128 -210q-51 -60 -97 -60q-17 0 -28 12.5t-11 32.5q0 42 74 239l59 158q45 122 62 186q18 69 18 117q0 68 -34.5 108t-92.5 40q-140 0 -268 -297l35 -15q54 118 108 186t94 68
q17 0 27 -13.5t10 -35.5q0 -60 -65 -221zM231 1036l271 222l1 1q60 49 60 80q0 22 -14 38t-33 16q-32 0 -80 -56l-262 -301h57z" />
    <glyph glyph-name="icircumflex" unicode="&#xee;" horiz-adv-x="559" 
d="M125 399q-74 -188 -74 -284q0 -66 33 -103t92 -37q80 0 151 75t140 233l-29 18q-76 -147 -128 -210q-51 -60 -97 -60q-17 0 -28 12.5t-11 32.5q0 42 74 239l59 158q45 122 62 186q18 69 18 117q0 68 -34.5 108t-92.5 40q-140 0 -268 -297l35 -15q54 118 108 186t94 68
q17 0 27 -13.5t10 -35.5q0 -60 -65 -221zM569 1036l-156 348h-104l-283 -348h54l270 244l174 -244h45z" />
    <glyph glyph-name="idieresis" unicode="&#xef;" horiz-adv-x="559" 
d="M125 399q-74 -188 -74 -284q0 -66 33 -103t92 -37q80 0 151 75t140 233l-29 18q-76 -147 -128 -210q-51 -60 -97 -60q-17 0 -28 12.5t-11 32.5q0 42 74 239l59 158q45 122 62 186q18 69 18 117q0 68 -34.5 108t-92.5 40q-140 0 -268 -297l35 -15q54 118 108 186t94 68
q17 0 27 -13.5t10 -35.5q0 -60 -65 -221zM51 1188q0 -37 25.5 -63.5t60.5 -26.5q37 0 62.5 26t25.5 64q0 35 -26 60.5t-62 25.5q-33 0 -60 -27q-26 -26 -26 -59zM434 1188q0 -37 25.5 -63.5t60.5 -26.5q37 0 61.5 25.5t24.5 64.5q0 35 -25.5 60.5t-60.5 25.5q-33 0 -60 -27
q-26 -26 -26 -59z" />
    <glyph glyph-name="eth" unicode="&#xf0;" horiz-adv-x="838" 
d="M549 809q-59 18 -98 18q-75 0 -153 -48t-140 -134q-135 -189 -135 -391q0 -136 63 -209.5t180 -73.5q179 0 302 171q124 170 124 425q0 305 -196 578l290 145l-24 47l-301 -145q-103 120 -182 186q-80 70 -117 70q-12 0 -12 -12q0 -15 88 -97q88 -81 157 -178l-284 -141
l24 -49l293 143q91 -151 121 -305zM143 168q0 80 29 201q27 114 76 223q90 196 203 196q56 0 87 -44.5t31 -127.5q0 -169 -82 -385q-45 -119 -95.5 -173t-117.5 -54q-62 0 -96.5 43t-34.5 121z" />
    <glyph glyph-name="ntilde" unicode="&#xf1;" horiz-adv-x="1124" 
d="M215 0l55 174q1 4 6 19t8 26q104 334 244 516q102 133 185 133q67 0 67 -82q0 -66 -35 -159l-110 -326q-28 -88 -34 -117q-7 -34 -7 -67q0 -70 33.5 -108t95.5 -38q159 0 262 228l39 88l-33 18q-68 -144 -122.5 -212t-102.5 -68q-43 0 -43 51q0 29 18 86l136 420
q26 84 26 151q0 89 -43.5 141t-118.5 52q-95 0 -196 -104t-195 -298q37 152 37 240q0 79 -29.5 120.5t-85.5 41.5q-89 0 -161.5 -83.5t-137.5 -262.5l37 -13q66 156 116 224.5t97 68.5q41 0 41 -59q0 -61 -23 -184q-24 -126 -61 -250l-110 -367h145zM934 1303h-39
q-24 -86 -102 -86q-26 0 -53 8l-138 35q-46 12 -77 12q-66 0 -106 -42.5t-58 -131.5h41q12 42 35 61t61 19q24 0 76 -13l131 -35q32 -8 63 -8q62 0 102.5 44t63.5 137z" />
    <glyph glyph-name="ograve" unicode="&#xf2;" horiz-adv-x="895" 
d="M295 -29q88 0 169.5 44t143.5 124q158 208 158 453q0 150 -72 242q-71 92 -188 92q-87 0 -174.5 -54t-159.5 -151q-149 -207 -149 -447q0 -143 71.5 -223t200.5 -80zM158 190q0 90 32 224q31 131 84 250q100 219 226 219q131 0 131 -201q0 -107 -34 -244
q-35 -140 -91 -260q-38 -81 -90.5 -124.5t-112.5 -43.5q-68 0 -106.5 48t-38.5 132zM711 1036l-223 314q-31 41 -64 41q-24 0 -38.5 -14t-14.5 -36q0 -25 45 -69l15 -15l225 -221h55z" />
    <glyph glyph-name="oacute" unicode="&#xf3;" horiz-adv-x="895" 
d="M295 -29q88 0 169.5 44t143.5 124q158 208 158 453q0 150 -72 242q-71 92 -188 92q-87 0 -174.5 -54t-159.5 -151q-149 -207 -149 -447q0 -143 71.5 -223t200.5 -80zM158 190q0 90 32 224q31 131 84 250q100 219 226 219q131 0 131 -201q0 -107 -34 -244
q-35 -140 -91 -260q-38 -81 -90.5 -124.5t-112.5 -43.5q-68 0 -106.5 48t-38.5 132zM496 1036l271 222l1 1q60 49 60 80q0 22 -14 38t-33 16q-32 0 -80 -56l-262 -301h57z" />
    <glyph glyph-name="ocircumflex" unicode="&#xf4;" horiz-adv-x="895" 
d="M295 -29q88 0 169.5 44t143.5 124q158 208 158 453q0 150 -72 242q-71 92 -188 92q-87 0 -174.5 -54t-159.5 -151q-149 -207 -149 -447q0 -143 71.5 -223t200.5 -80zM158 190q0 90 32 224q31 131 84 250q100 219 226 219q131 0 131 -201q0 -107 -34 -244
q-35 -140 -91 -260q-38 -81 -90.5 -124.5t-112.5 -43.5q-68 0 -106.5 48t-38.5 132zM834 1036l-156 348h-104l-283 -348h54l270 244l174 -244h45z" />
    <glyph glyph-name="otilde" unicode="&#xf5;" horiz-adv-x="895" 
d="M295 -29q88 0 169.5 44t143.5 124q158 208 158 453q0 150 -72 242q-71 92 -188 92q-87 0 -174.5 -54t-159.5 -151q-149 -207 -149 -447q0 -143 71.5 -223t200.5 -80zM158 190q0 90 32 224q31 131 84 250q100 219 226 219q131 0 131 -201q0 -107 -34 -244
q-35 -140 -91 -260q-38 -81 -90.5 -124.5t-112.5 -43.5q-68 0 -106.5 48t-38.5 132zM883 1303h-39q-24 -86 -102 -86q-26 0 -53 8l-138 35q-46 12 -77 12q-66 0 -106 -42.5t-58 -131.5h41q12 42 35 61t61 19q24 0 76 -13l131 -35q32 -8 63 -8q62 0 102.5 44t63.5 137z" />
    <glyph glyph-name="odieresis" unicode="&#xf6;" horiz-adv-x="895" 
d="M295 -29q88 0 169.5 44t143.5 124q158 208 158 453q0 150 -72 242q-71 92 -188 92q-87 0 -174.5 -54t-159.5 -151q-149 -207 -149 -447q0 -143 71.5 -223t200.5 -80zM158 190q0 90 32 224q31 131 84 250q100 219 226 219q131 0 131 -201q0 -107 -34 -244
q-35 -140 -91 -260q-38 -81 -90.5 -124.5t-112.5 -43.5q-68 0 -106.5 48t-38.5 132zM316 1188q0 -37 25.5 -63.5t60.5 -26.5q37 0 62.5 26t25.5 64q0 35 -26 60.5t-62 25.5q-33 0 -60 -27q-26 -26 -26 -59zM699 1188q0 -37 25.5 -63.5t60.5 -26.5q37 0 61.5 25.5t24.5 64.5
q0 35 -25.5 60.5t-60.5 25.5q-33 0 -60 -27q-26 -26 -26 -59z" />
    <glyph glyph-name="divide" unicode="&#xf7;" horiz-adv-x="1706" 
d="M854 365q-47 0 -81 -34q-34 -33 -34 -81t33.5 -81.5t81.5 -33.5t81 34q34 34 34 81t-34 81t-81 34zM254 670v-117h1198v117h-1198zM854 1085q-47 0 -81 -34q-34 -33 -34 -80q0 -48 33 -81.5t82 -33.5q48 0 81.5 33.5t33.5 81.5q0 47 -34 80q-33 34 -81 34z" />
    <glyph glyph-name="oslash" unicode="&#xf8;" horiz-adv-x="895" 
d="M616 790q15 -53 15 -104q0 -109 -34 -248q-35 -144 -91 -260q-79 -168 -205 -168q-53 0 -98 39zM170 102q-12 46 -12 86q0 90 32 226q33 134 84 250q103 219 224 219q49 0 86 -37zM127 20l-147 -260h63l133 234q55 -23 109 -23q195 0 323 168q158 211 158 441
q0 192 -104 290l137 254h-62l-125 -223q-54 25 -106 25q-87 0 -174.5 -54t-159.5 -151q-149 -203 -149 -447q0 -169 104 -254z" />
    <glyph glyph-name="ugrave" unicode="&#xf9;" horiz-adv-x="1124" 
d="M797 901l-58 -181q-1 -3 -5.5 -18.5t-8.5 -27.5q-102 -335 -242 -514q-102 -133 -184 -133q-32 0 -50 22t-18 62q0 51 35 159l111 330q26 78 33 113q8 40 8 71q0 70 -33.5 108t-95.5 38q-159 0 -262 -228l-39 -88l32 -18q69 146 124 214.5t102 68.5q20 0 31.5 -14.5
t11.5 -39.5q0 -27 -19 -84l-135 -426q-29 -92 -29 -153q0 -88 44 -139.5t118 -51.5q95 0 196 104t195 298q-34 -140 -34 -242q0 -160 112 -160q90 0 162.5 83.5t136.5 260.5l-35 15q-66 -158 -115.5 -226.5t-97.5 -68.5q-40 0 -40 61q0 67 22 183q21 108 61 249l111 373
h-145zM768 1036l-223 314q-31 41 -64 41q-24 0 -38.5 -14t-14.5 -36q0 -25 45 -69l15 -15l225 -221h55z" />
    <glyph glyph-name="uacute" unicode="&#xfa;" horiz-adv-x="1124" 
d="M797 901l-58 -181q-1 -3 -5.5 -18.5t-8.5 -27.5q-102 -335 -242 -514q-102 -133 -184 -133q-32 0 -50 22t-18 62q0 51 35 159l111 330q26 78 33 113q8 40 8 71q0 70 -33.5 108t-95.5 38q-159 0 -262 -228l-39 -88l32 -18q69 146 124 214.5t102 68.5q20 0 31.5 -14.5
t11.5 -39.5q0 -27 -19 -84l-135 -426q-29 -92 -29 -153q0 -88 44 -139.5t118 -51.5q95 0 196 104t195 298q-34 -140 -34 -242q0 -160 112 -160q90 0 162.5 83.5t136.5 260.5l-35 15q-66 -158 -115.5 -226.5t-97.5 -68.5q-40 0 -40 61q0 67 22 183q21 108 61 249l111 373
h-145zM553 1036l271 222l1 1q60 49 60 80q0 22 -14 38t-33 16q-32 0 -80 -56l-262 -301h57z" />
    <glyph glyph-name="ucircumflex" unicode="&#xfb;" horiz-adv-x="1124" 
d="M797 901l-58 -181q-1 -3 -5.5 -18.5t-8.5 -27.5q-102 -335 -242 -514q-102 -133 -184 -133q-32 0 -50 22t-18 62q0 51 35 159l111 330q26 78 33 113q8 40 8 71q0 70 -33.5 108t-95.5 38q-159 0 -262 -228l-39 -88l32 -18q69 146 124 214.5t102 68.5q20 0 31.5 -14.5
t11.5 -39.5q0 -27 -19 -84l-135 -426q-29 -92 -29 -153q0 -88 44 -139.5t118 -51.5q95 0 196 104t195 298q-34 -140 -34 -242q0 -160 112 -160q90 0 162.5 83.5t136.5 260.5l-35 15q-66 -158 -115.5 -226.5t-97.5 -68.5q-40 0 -40 61q0 67 22 183q21 108 61 249l111 373
h-145zM891 1036l-156 348h-104l-283 -348h54l270 244l174 -244h45z" />
    <glyph glyph-name="udieresis" unicode="&#xfc;" horiz-adv-x="1124" 
d="M797 901l-58 -181q-1 -3 -5.5 -18.5t-8.5 -27.5q-102 -335 -242 -514q-102 -133 -184 -133q-32 0 -50 22t-18 62q0 51 35 159l111 330q26 78 33 113q8 40 8 71q0 70 -33.5 108t-95.5 38q-159 0 -262 -228l-39 -88l32 -18q69 146 124 214.5t102 68.5q20 0 31.5 -14.5
t11.5 -39.5q0 -27 -19 -84l-135 -426q-29 -92 -29 -153q0 -88 44 -139.5t118 -51.5q95 0 196 104t195 298q-34 -140 -34 -242q0 -160 112 -160q90 0 162.5 83.5t136.5 260.5l-35 15q-66 -158 -115.5 -226.5t-97.5 -68.5q-40 0 -40 61q0 67 22 183q21 108 61 249l111 373
h-145zM373 1188q0 -37 25.5 -63.5t60.5 -26.5q37 0 62.5 26t25.5 64q0 35 -26 60.5t-62 25.5q-33 0 -60 -27q-26 -26 -26 -59zM756 1188q0 -37 25.5 -63.5t60.5 -26.5q37 0 61.5 25.5t24.5 64.5q0 35 -25.5 60.5t-60.5 25.5q-33 0 -60 -27q-26 -26 -26 -59z" />
    <glyph glyph-name="yacute" unicode="&#xfd;" horiz-adv-x="786" 
d="M-2 528l41 1q5 172 17 223q14 57 46 57q26 0 50 -39q23 -37 61 -147q106 -307 106 -619q0 -106 -30 -180q-28 -74 -103 -152q-52 -56 -96 -75q-42 -19 -115 -19q-38 0 -54 2h-13q-46 0 -71 -19t-25 -53q0 -37 20.5 -54t65.5 -17q73 0 179 77t206 207q180 236 281 499
q100 260 100 495q0 114 -22 162.5t-73 48.5q-29 0 -49 -19t-20 -45q0 -30 41 -74q40 -43 52 -84q13 -38 13 -106q0 -218 -172 -536q-10 383 -88 625q-77 239 -182 239q-80 0 -124 -89t-44 -249q0 -6 1 -29t1 -31zM440 1036l271 222l1 1q60 49 60 80q0 22 -14 38t-33 16
q-32 0 -80 -56l-262 -301h57z" />
    <glyph glyph-name="thorn" unicode="&#xfe;" horiz-adv-x="1010" 
d="M268 170q0 114 42 252q44 142 116 262q113 188 215 188q53 0 82 -39.5t29 -113.5q0 -81 -39 -225q-43 -160 -105 -277q-52 -99 -111 -151t-118 -52q-52 0 -81.5 41.5t-29.5 114.5zM133 -326l105 400q43 -105 157 -105q182 0 326 191q80 107 127 235q47 129 47 240
q0 133 -61 210q-60 79 -160 79q-136 0 -260 -187l190 738l-315 -39l-13 -50q2 1 6 1q28 4 44 4q50 0 70 -11.5t20 -38.5q0 -17 -8 -47l-416 -1599q-41 -154 -77 -187q-39 -36 -122 -37l-8 -34h451l13 37q-83 4 -112 21q-28 15 -28 52q0 33 24 127z" />
    <glyph glyph-name="ydieresis" unicode="&#xff;" horiz-adv-x="786" 
d="M-2 528l41 1q5 172 17 223q14 57 46 57q26 0 50 -39q23 -37 61 -147q106 -307 106 -619q0 -106 -30 -180q-28 -74 -103 -152q-52 -56 -96 -75q-42 -19 -115 -19q-38 0 -54 2h-13q-46 0 -71 -19t-25 -53q0 -37 20.5 -54t65.5 -17q73 0 179 77t206 207q180 236 281 499
q100 260 100 495q0 114 -22 162.5t-73 48.5q-29 0 -49 -19t-20 -45q0 -30 41 -74q40 -43 52 -84q13 -38 13 -106q0 -218 -172 -536q-10 383 -88 625q-77 239 -182 239q-80 0 -124 -89t-44 -249q0 -6 1 -29t1 -31zM260 1188q0 -37 25.5 -63.5t60.5 -26.5q37 0 62.5 26
t25.5 64q0 35 -26 60.5t-62 25.5q-33 0 -60 -27q-26 -26 -26 -59zM643 1188q0 -37 25.5 -63.5t60.5 -26.5q37 0 61.5 25.5t24.5 64.5q0 35 -25.5 60.5t-60.5 25.5q-33 0 -60 -27q-26 -26 -26 -59z" />
    <glyph glyph-name="Amacron" unicode="&#x100;" horiz-adv-x="1341" 
d="M827 563l-14 -368v-9q-6 -117 -62 -135q-20 -7 -61 -13l-18 -3q-30 -3 -38.5 -7.5t-8.5 -15.5q0 -18 34 -18q7 0 85 6q80 6 151 6q102 0 204 -9q11 -1 21 -1q21 0 29 4.5t8 15.5q0 16 -44 22q-31 4 -48 9q-43 12 -59.5 37.5t-16.5 79.5v24l49 1172v10q0 37 -16 37
q-79 0 -145 -98q-11 -16 -25 -37l-789 -1114q-67 -97 -174 -123h-1q-33 -11 -33 -23q0 -8 8 -14t18 -6q11 0 67 7q55 7 111 7q61 0 129 -6t74 -6q29 0 29 20q0 7 -7 13t-16 6q-63 0 -99 17t-36 46q0 34 48 117q57 97 233 350h413zM457 627l397 553l-25 -553h-372zM739 1612
h512l23 106h-512z" />
    <glyph glyph-name="amacron" unicode="&#x101;" horiz-adv-x="1010" 
d="M115 160q0 180 157 467q141 256 275 256q48 0 77 -33t29 -88q0 -90 -48 -236q-48 -145 -130 -293q-64 -116 -121 -167.5t-121 -51.5q-52 0 -85 40.5t-33 105.5zM530 256q-28 -105 -28 -162q0 -60 32 -91.5t93 -31.5q89 0 160 89.5t118 261.5l-33 12q-54 -148 -105 -226.5
t-93 -78.5q-21 0 -34 14t-13 37q0 64 26 162l172 595q6 19 6 42q0 34 -81 34q-22 0 -27 -16l-31 -109q-15 64 -57 100t-103 36q-88 0 -193 -69q-104 -67 -192 -185q-80 -110 -125 -226t-45 -211q0 -121 59.5 -191.5t162.5 -70.5q213 0 331 285zM371 1133h512l23 106h-512z
" />
    <glyph glyph-name="Abreve" unicode="&#x102;" horiz-adv-x="1341" 
d="M827 563l-14 -368v-9q-6 -117 -62 -135q-20 -7 -61 -13l-18 -3q-30 -3 -38.5 -7.5t-8.5 -15.5q0 -18 34 -18q7 0 85 6q80 6 151 6q102 0 204 -9q11 -1 21 -1q21 0 29 4.5t8 15.5q0 16 -44 22q-31 4 -48 9q-43 12 -59.5 37.5t-16.5 79.5v24l49 1172v10q0 37 -16 37
q-79 0 -145 -98q-11 -16 -25 -37l-789 -1114q-67 -97 -174 -123h-1q-33 -11 -33 -23q0 -8 8 -14t18 -6q11 0 67 7q55 7 111 7q61 0 129 -6t74 -6q29 0 29 20q0 7 -7 13t-16 6q-63 0 -99 17t-36 46q0 34 48 117q57 97 233 350h413zM457 627l397 553l-25 -553h-372zM756 1822
q3 -138 54 -203t156 -65q104 0 191 65.5t166 202.5h-49q-125 -159 -303 -159q-76 0 -116.5 38.5t-51.5 120.5h-47z" />
    <glyph glyph-name="abreve" unicode="&#x103;" horiz-adv-x="1010" 
d="M115 160q0 180 157 467q141 256 275 256q48 0 77 -33t29 -88q0 -90 -48 -236q-48 -145 -130 -293q-64 -116 -121 -167.5t-121 -51.5q-52 0 -85 40.5t-33 105.5zM530 256q-28 -105 -28 -162q0 -60 32 -91.5t93 -31.5q89 0 160 89.5t118 261.5l-33 12q-54 -148 -105 -226.5
t-93 -78.5q-21 0 -34 14t-13 37q0 64 26 162l172 595q6 19 6 42q0 34 -81 34q-22 0 -27 -16l-31 -109q-15 64 -57 100t-103 36q-88 0 -193 -69q-104 -67 -192 -185q-80 -110 -125 -226t-45 -211q0 -121 59.5 -191.5t162.5 -70.5q213 0 331 285zM388 1343q3 -138 54 -203
t156 -65q104 0 191 65.5t166 202.5h-49q-125 -159 -303 -159q-76 0 -116.5 38.5t-51.5 120.5h-47z" />
    <glyph glyph-name="Aogonek" unicode="&#x104;" horiz-adv-x="1341" 
d="M827 563l-14 -368q0 -11 -2 -39v-6q0 -84 -74 -103q-9 -2 -35 -6t-32 -6q-28 -2 -36.5 -6.5t-8.5 -16.5q0 -10 7 -14t27 -4q5 0 87 6t163 6h70q-205 -143 -205 -297q0 -65 43 -107t111 -42q65 0 118 36t84 103l-24 14q-31 -42 -59.5 -60t-63.5 -18q-48 0 -77 33t-29 86
q0 138 153 250q4 0 51 -5q31 -3 39 -3q21 0 29 4.5t8 15.5q0 17 -48 23q-37 6 -44 8q-43 12 -59.5 37.5t-16.5 79.5v24l49 1172v10q0 37 -16 37q-78 0 -142 -94q-9 -13 -28 -41l-789 -1114q-35 -50 -75.5 -79t-98.5 -44q-21 -6 -27.5 -10.5t-6.5 -12.5t8 -14t18 -6
q11 0 67 7q55 7 111 7q61 0 129 -6t74 -6q29 0 29 20q0 7 -7 13t-16 6q-63 0 -99 16.5t-36 46.5q0 34 48 117q57 97 233 350h413zM457 627l397 553l-25 -553h-372z" />
    <glyph glyph-name="aogonek" unicode="&#x105;" horiz-adv-x="1010" 
d="M115 160q0 173 157 467q141 256 275 256q48 0 77 -33t29 -88q0 -80 -42 -214q-39 -130 -113 -274q-72 -140 -134 -200t-131 -60q-53 0 -85.5 40t-32.5 106zM530 256q-28 -102 -28 -162q0 -125 131 -125h6q-77 -51 -121.5 -122t-44.5 -138q0 -65 43 -107q44 -42 111 -42
q65 0 118 36t84 103l-24 14q-32 -42 -60.5 -60t-62.5 -18q-48 0 -77.5 33t-29.5 86q0 114 137 231q39 34 50 46q99 104 143 291l-33 12q-54 -148 -105 -226.5t-93 -78.5q-20 0 -33.5 14.5t-13.5 36.5q0 66 26 162l172 595q6 19 6 42q0 34 -81 34q-22 0 -27 -16l-31 -109
q-15 64 -57.5 100t-102.5 36q-78 0 -175 -58t-179 -155q-92 -114 -147 -242q-54 -129 -54 -236q0 -121 59.5 -191.5t162.5 -70.5q108 0 189 69.5t142 215.5z" />
    <glyph glyph-name="Cacute" unicode="&#x106;" horiz-adv-x="1341" 
d="M1077 36l76 298q16 60 16 74q0 9 -6.5 15.5t-15.5 6.5q-22 0 -51 -65q-4 -8 -27 -58q-157 -297 -436 -297q-338 0 -338 422q0 170 56 355q57 183 155 323q180 256 389 256q135 0 208 -85.5t73 -242.5q0 -2 -1 -12t-1 -14q0 -35 22 -35q16 0 24 32q2 8 3 11l57 297
q0 1 1 6t1 6q0 27 -22 27q-12 0 -32 -24q-20 -23 -30 -23q-9 0 -43 19q-138 75 -272 75q-147 0 -282 -61q-137 -62 -234 -171q-133 -148 -207 -322q-72 -173 -72 -345q0 -254 137 -397q138 -142 383 -142q132 0 379 98q23 0 32 -33q11 -32 23 -32q11 0 21 11t14 27z
M844 1515l271 222l1 1q60 49 60 80q0 22 -14 38t-33 16q-32 0 -80 -56l-262 -301h57z" />
    <glyph glyph-name="cacute" unicode="&#x107;" horiz-adv-x="786" 
d="M608 268l-33 19q-135 -267 -301 -267q-59 0 -91.5 42t-32.5 118q0 109 50 268q52 160 136 302q79 135 178 135q25 0 42 -8t17 -19q0 -2 -14 -27q-14 -23 -14 -51q0 -27 19 -43t52 -16q27 0 47.5 24t20.5 56q0 55 -47 91t-121 36q-91 0 -193 -72q-104 -73 -188 -199
q-135 -198 -135 -403q0 -139 63 -210t187 -71q230 0 358 295zM440 1036l271 222l1 1q60 49 60 80q0 22 -14 38t-33 16q-32 0 -80 -56l-262 -301h57z" />
    <glyph glyph-name="Ccircumflex" unicode="&#x108;" horiz-adv-x="1341" 
d="M1077 36l76 298q16 60 16 74q0 9 -6.5 15.5t-15.5 6.5q-22 0 -51 -65q-4 -8 -27 -58q-157 -297 -436 -297q-338 0 -338 422q0 170 56 355q57 183 155 323q180 256 389 256q135 0 208 -85.5t73 -242.5q0 -2 -1 -12t-1 -14q0 -35 22 -35q16 0 24 32q2 8 3 11l57 297
q0 1 1 6t1 6q0 27 -22 27q-12 0 -32 -24q-20 -23 -30 -23q-9 0 -43 19q-138 75 -272 75q-147 0 -282 -61q-137 -62 -234 -171q-133 -148 -207 -322q-72 -173 -72 -345q0 -254 137 -397q138 -142 383 -142q132 0 379 98q23 0 32 -33q11 -32 23 -32q11 0 21 11t14 27z
M1182 1515l-156 348h-104l-283 -348h54l270 244l174 -244h45z" />
    <glyph glyph-name="ccircumflex" unicode="&#x109;" horiz-adv-x="786" 
d="M608 268l-33 19q-135 -267 -301 -267q-59 0 -91.5 42t-32.5 118q0 109 50 268q52 160 136 302q79 135 178 135q25 0 42 -8t17 -19q0 -2 -14 -27q-14 -23 -14 -51q0 -27 19 -43t52 -16q27 0 47.5 24t20.5 56q0 55 -47 91t-121 36q-91 0 -193 -72q-104 -73 -188 -199
q-135 -198 -135 -403q0 -139 63 -210t187 -71q230 0 358 295zM778 1036l-156 348h-104l-283 -348h54l270 244l174 -244h45z" />
    <glyph glyph-name="Cdot" unicode="&#x10a;" horiz-adv-x="1341" 
d="M1077 36l76 298q16 60 16 74q0 9 -6.5 15.5t-15.5 6.5q-22 0 -51 -65q-4 -8 -27 -58q-157 -297 -436 -297q-338 0 -338 422q0 170 56 355q57 183 155 323q180 256 389 256q135 0 208 -85.5t73 -242.5q0 -2 -1 -12t-1 -14q0 -35 22 -35q16 0 24 32q2 8 3 11l57 297
q0 1 1 6t1 6q0 27 -22 27q-12 0 -32 -24q-20 -23 -30 -23q-9 0 -43 19q-138 75 -272 75q-147 0 -282 -61q-137 -62 -234 -171q-133 -148 -207 -322q-72 -173 -72 -345q0 -254 137 -397q138 -142 383 -142q132 0 379 98q23 0 32 -33q11 -32 23 -32q11 0 21 11t14 27z
M850 1667q0 -38 27 -66q28 -28 65 -28q40 0 66.5 27t26.5 67q0 36 -28 64t-65 28q-35 0 -64 -29q-28 -28 -28 -63z" />
    <glyph glyph-name="cdot" unicode="&#x10b;" horiz-adv-x="786" 
d="M608 268l-33 19q-135 -267 -301 -267q-59 0 -91.5 42t-32.5 118q0 109 50 268q52 160 136 302q79 135 178 135q25 0 42 -8t17 -19q0 -2 -14 -27q-14 -23 -14 -51q0 -27 19 -43t52 -16q27 0 47.5 24t20.5 56q0 55 -47 91t-121 36q-91 0 -193 -72q-104 -73 -188 -199
q-135 -198 -135 -403q0 -139 63 -210t187 -71q230 0 358 295zM446 1188q0 -38 27 -66q28 -28 65 -28q40 0 66.5 27t26.5 67q0 36 -28 64t-65 28q-35 0 -64 -29q-28 -28 -28 -63z" />
    <glyph glyph-name="Ccaron" unicode="&#x10c;" horiz-adv-x="1341" 
d="M1077 36l76 298q16 60 16 74q0 9 -6.5 15.5t-15.5 6.5q-22 0 -51 -65q-4 -8 -27 -58q-157 -297 -436 -297q-338 0 -338 422q0 170 56 355q57 183 155 323q180 256 389 256q135 0 208 -85.5t73 -242.5q0 -2 -1 -12t-1 -14q0 -35 22 -35q16 0 24 32q2 8 3 11l57 297
q0 1 1 6t1 6q0 27 -22 27q-12 0 -32 -24q-20 -23 -30 -23q-9 0 -43 19q-138 75 -272 75q-147 0 -282 -61q-137 -62 -234 -171q-133 -148 -207 -322q-72 -173 -72 -345q0 -254 137 -397q138 -142 383 -142q132 0 379 98q23 0 32 -33q11 -32 23 -32q11 0 21 11t14 27z
M703 1863l153 -348h107l280 348h-53l-270 -243l-174 243h-43z" />
    <glyph glyph-name="ccaron" unicode="&#x10d;" horiz-adv-x="786" 
d="M608 268l-33 19q-135 -267 -301 -267q-59 0 -91.5 42t-32.5 118q0 109 50 268q52 160 136 302q79 135 178 135q25 0 42 -8t17 -19q0 -2 -14 -27q-14 -23 -14 -51q0 -27 19 -43t52 -16q27 0 47.5 24t20.5 56q0 55 -47 91t-121 36q-91 0 -193 -72q-104 -73 -188 -199
q-135 -198 -135 -403q0 -139 63 -210t187 -71q230 0 358 295zM299 1384l153 -348h107l280 348h-53l-270 -243l-174 243h-43z" />
    <glyph glyph-name="Dcaron" unicode="&#x10e;" horiz-adv-x="1470" 
d="M420 1123l-252 -912q-24 -85 -45 -114q-19 -28 -56 -42q-25 -9 -69 -14q-2 0 -3 -1q-46 -6 -46 -26q0 -22 41 -22q6 0 30 3q111 13 228 13q50 0 134 -4q85 -4 153 -4q216 0 366 59q146 58 268 193q211 234 211 551q0 275 -178 423t-512 148q-234 0 -327 -10
q-97 -10 -97 -33q0 -19 86 -27q9 -1 20 -1q36 -4 52 -22t16 -54q0 -29 -16 -89q-1 -4 -2.5 -9t-1.5 -6zM633 1188q26 86 52 108q29 23 87 23q191 0 298 -113q108 -112 108 -311q0 -146 -40 -296q-41 -152 -112 -280q-72 -131 -190 -199.5t-271 -68.5q-121 0 -164 22t-43 81
q0 58 17 118zM744 1863l153 -348h107l280 348h-53l-270 -243l-174 243h-43z" />
    <glyph glyph-name="dcaron" unicode="&#x10f;" horiz-adv-x="1294" 
d="M537 301q-27 -151 -27 -203q0 -54 31.5 -89.5t79.5 -35.5q183 0 288 336l-35 15q-115 -289 -198 -289q-18 0 -28.5 18t-10.5 49q0 49 25 180q26 137 69 298l234 895l-316 -39l-12 -50q2 1 5 1.5t5 0.5q25 3 37 3q50 0 70 -11.5t20 -38.5q0 -5 -5 -32q-1 -11 -3 -15
l-115 -489q-54 119 -157 119q-90 0 -187 -69t-182 -193q-69 -101 -107 -210t-38 -206q0 -130 59 -201.5t166 -71.5q106 0 187.5 81t144.5 247zM117 174q0 102 45 238q47 139 127 274q59 100 113 146.5t110 46.5q49 0 76.5 -38t27.5 -106q0 -93 -39 -224q-38 -128 -108 -263
q-62 -120 -118 -175t-115 -55q-56 0 -87.5 41.5t-31.5 114.5zM1321 1264q6 -24 6 -31q0 -48 -50 -103t-142 -108l18 -31q109 32 183 121q75 92 75 186q0 67 -32 104.5t-89 37.5q-40 0 -67 -27.5t-27 -66.5q0 -86 98 -86q16 0 27 4z" />
    <glyph glyph-name="Dslash" unicode="&#x110;" horiz-adv-x="1475" 
d="M637 1188q24 86 51 108q29 23 88 23q191 0 298 -113q108 -112 108 -311q0 -148 -40 -298q-38 -148 -110 -278t-191 -199t-272 -69q-121 0 -162 22q-42 23 -42 81q0 61 16 118l115 410h329l17 51h-330zM424 1122l-105 -389h-309l-18 -51h309l-129 -471q-23 -85 -44 -115
q-18 -27 -55 -41q-25 -9 -69 -14h-3q-48 -7 -48 -27q0 -22 41 -22q6 0 30 3q111 13 228 13q49 0 136 -4t153 -4q216 0 366 59q146 57 269 193q210 235 210 551q0 275 -178 423t-512 148q-234 0 -327 -10q-97 -10 -97 -33q2 -20 85 -27q9 -1 19 -1q36 -4 52 -22t16 -54
q0 -31 -17 -94q-1 -5 -3 -11z" />
    <glyph glyph-name="dslash" unicode="&#x111;" horiz-adv-x="1024" 
d="M541 301q-1 -7 -6 -32q-21 -126 -21 -171q0 -54 31.5 -89.5t79.5 -35.5q186 0 288 336l-32 15q-116 -289 -201 -289q-17 0 -28 18.5t-11 48.5q0 48 25 177q25 132 69 301l139 534h209l11 45h-209l84 316l-316 -39l-12 -50q1 1 6 1q28 4 43 4q50 0 69 -11t19 -39
q0 -17 -6 -47l-33 -135h-233l-12 -45h233l-72 -309q-53 119 -155 119q-90 0 -187 -70q-98 -70 -182 -192q-70 -105 -108.5 -214t-38.5 -202q0 -129 59.5 -201t165.5 -72q107 0 188.5 80.5t143.5 247.5zM123 174q0 90 39 215t110 256q66 122 125.5 178t120.5 56
q48 0 75.5 -38t27.5 -106q0 -181 -129 -450q-66 -137 -127.5 -202t-124.5 -65q-55 0 -86 41.5t-31 114.5z" />
    <glyph glyph-name="Emacron" unicode="&#x112;" horiz-adv-x="1360" 
d="M408 1133l-254 -922q-25 -86 -45 -115q-19 -27 -54 -41q-25 -9 -69 -14h-3q-49 -7 -49 -27q0 -22 41 -22h3t4 0.5t5.5 1t6.5 0.5q111 12 237 12q107 0 407 -5q302 -5 404 -5q30 122 55 213q31 108 31 119q0 24 -18 24q-16 0 -47 -66q-33 -68 -76 -116q-63 -69 -144 -97
t-272 -28q-135 0 -178 22t-43 78t14 106l121 460h129q112 0 150 -39q39 -39 39 -152q0 -6 -1 -23.5t-1 -21.5q0 -20 22 -20q21 0 37 117q10 80 21 135q11 69 35 161q24 86 24 95q0 28 -14 28q-16 0 -38 -57t-46 -90q-34 -46 -84 -66q-50 -18 -156 -18h-104l104 364
q19 66 35 117q3 8 10.5 33.5t11.5 38.5h144q201 0 261 -28q62 -27 99 -97q12 -23 28 -78q17 -53 36 -53q18 0 18 41l-1 9q-1 9 -4 31t-6 46q-11 90 -11 166v18q-81 -5 -223 -6q-190 -2 -373 -2q-97 0 -195 7t-119 7q-19 0 -32 -6t-13 -14q0 -10 10 -14.5t41 -6.5q11 0 21 -2
q50 -5 71 -23t21 -55q0 -30 -24 -120zM590 1612h512l23 106h-512z" />
    <glyph glyph-name="emacron" unicode="&#x113;" horiz-adv-x="784" 
d="M596 252l-35 20q-170 -252 -299 -252q-60 0 -87.5 30.5t-27.5 96.5q0 52 19 128l16 69q502 181 502 432q0 67 -42 108.5t-110 41.5q-92 0 -205 -90q-113 -89 -206 -240q-57 -90 -88 -191t-31 -192q0 -113 56 -177.5t155 -64.5q113 0 206.5 68.5t176.5 212.5zM197 393
q57 221 144 358q87 136 167 136q34 0 53 -24t19 -66q0 -96 -110 -217q-109 -119 -273 -187zM291 1133h512l23 106h-512z" />
    <glyph glyph-name="Ebreve" unicode="&#x114;" horiz-adv-x="1360" 
d="M408 1133l-254 -922q-25 -86 -45 -115q-19 -27 -54 -41q-25 -9 -69 -14h-3q-49 -7 -49 -27q0 -22 41 -22h3t4 0.5t5.5 1t6.5 0.5q111 12 237 12q107 0 407 -5q302 -5 404 -5q30 122 55 213q31 108 31 119q0 24 -18 24q-16 0 -47 -66q-33 -68 -76 -116q-63 -69 -144 -97
t-272 -28q-135 0 -178 22t-43 78t14 106l121 460h129q112 0 150 -39q39 -39 39 -152q0 -6 -1 -23.5t-1 -21.5q0 -20 22 -20q21 0 37 117q10 80 21 135q11 69 35 161q24 86 24 95q0 28 -14 28q-16 0 -38 -57t-46 -90q-34 -46 -84 -66q-50 -18 -156 -18h-104l104 364
q19 66 35 117q3 8 10.5 33.5t11.5 38.5h144q201 0 261 -28q62 -27 99 -97q12 -23 28 -78q17 -53 36 -53q18 0 18 41l-1 9q-1 9 -4 31t-6 46q-11 90 -11 166v18q-81 -5 -223 -6q-190 -2 -373 -2q-97 0 -195 7t-119 7q-19 0 -32 -6t-13 -14q0 -10 10 -14.5t41 -6.5q11 0 21 -2
q50 -5 71 -23t21 -55q0 -30 -24 -120zM607 1822q3 -138 54 -203t156 -65q104 0 191 65.5t166 202.5h-49q-125 -159 -303 -159q-76 0 -116.5 38.5t-51.5 120.5h-47z" />
    <glyph glyph-name="ebreve" unicode="&#x115;" horiz-adv-x="784" 
d="M596 252l-35 20q-170 -252 -299 -252q-60 0 -87.5 30.5t-27.5 96.5q0 52 19 128l16 69q502 181 502 432q0 67 -42 108.5t-110 41.5q-92 0 -205 -90q-113 -89 -206 -240q-57 -90 -88 -191t-31 -192q0 -113 56 -177.5t155 -64.5q113 0 206.5 68.5t176.5 212.5zM197 393
q57 221 144 358q87 136 167 136q34 0 53 -24t19 -66q0 -96 -110 -217q-109 -119 -273 -187zM308 1343q3 -138 54 -203t156 -65q104 0 191 65.5t166 202.5h-49q-125 -159 -303 -159q-76 0 -116.5 38.5t-51.5 120.5h-47z" />
    <glyph glyph-name="Edot" unicode="&#x116;" horiz-adv-x="1360" 
d="M408 1133l-254 -922q-25 -86 -45 -115q-19 -27 -54 -41q-25 -9 -69 -14h-3q-49 -7 -49 -27q0 -22 41 -22h3t4 0.5t5.5 1t6.5 0.5q111 12 237 12q107 0 407 -5q302 -5 404 -5q30 122 55 213q31 108 31 119q0 24 -18 24q-16 0 -47 -66q-33 -68 -76 -116q-63 -69 -144 -97
t-272 -28q-135 0 -178 22t-43 78t14 106l121 460h129q112 0 150 -39q39 -39 39 -152q0 -6 -1 -23.5t-1 -21.5q0 -20 22 -20q21 0 37 117q10 80 21 135q11 69 35 161q24 86 24 95q0 28 -14 28q-16 0 -38 -57t-46 -90q-34 -46 -84 -66q-50 -18 -156 -18h-104l104 364
q19 66 35 117q3 8 10.5 33.5t11.5 38.5h144q201 0 261 -28q62 -27 99 -97q12 -23 28 -78q17 -53 36 -53q18 0 18 41l-1 9q-1 9 -4 31t-6 46q-11 90 -11 166v18q-81 -5 -223 -6q-190 -2 -373 -2q-97 0 -195 7t-119 7q-19 0 -32 -6t-13 -14q0 -10 10 -14.5t41 -6.5q11 0 21 -2
q50 -5 71 -23t21 -55q0 -30 -24 -120zM766 1667q0 -38 27 -66q28 -28 65 -28q40 0 66.5 27t26.5 67q0 36 -28 64t-65 28q-35 0 -64 -29q-28 -28 -28 -63z" />
    <glyph glyph-name="edot" unicode="&#x117;" horiz-adv-x="784" 
d="M596 252l-35 20q-170 -252 -299 -252q-60 0 -87.5 30.5t-27.5 96.5q0 52 19 128l16 69q502 181 502 432q0 67 -42 108.5t-110 41.5q-92 0 -205 -90q-113 -89 -206 -240q-57 -90 -88 -191t-31 -192q0 -113 56 -177.5t155 -64.5q113 0 206.5 68.5t176.5 212.5zM197 393
q57 221 144 358q87 136 167 136q34 0 53 -24t19 -66q0 -96 -110 -217q-109 -119 -273 -187zM467 1188q0 -38 27 -66q28 -28 65 -28q40 0 66.5 27t26.5 67q0 36 -28 64t-65 28q-35 0 -64 -29q-28 -28 -28 -63z" />
    <glyph glyph-name="Eogonek" unicode="&#x118;" horiz-adv-x="1360" 
d="M408 1133l-254 -922q-26 -88 -45 -116q-20 -30 -54 -40q-30 -9 -71 -14h-2q-48 -7 -48 -27q0 -22 41 -22l18 2q107 12 238 12q113 0 282 -3q99 -1 371 -7q-90 -62 -141 -138t-51 -149q0 -65 42 -107q44 -42 110 -42q65 0 119 36.5t86 102.5l-25 14q-57 -78 -125 -78
q-48 0 -77 33t-29 86q0 130 145 242h104q26 112 55 213q31 108 31 119q0 24 -18 24q-16 0 -50 -73t-91 -127q-57 -57 -137 -83q-76 -24 -261 -24q-135 0 -178 22t-43 78q0 52 14 106l121 460h129q112 0 150 -39q39 -39 39 -152q0 -6 -1 -23.5t-1 -21.5q0 -20 22 -20
q21 0 38 122q9 67 20 130q11 69 35 161q24 86 24 95q0 28 -14 28q-17 0 -41 -62q-25 -63 -54 -100q-27 -36 -80 -53q-48 -16 -149 -16h-104l104 364q19 66 35 117q3 8 10.5 33.5t11.5 38.5h144q203 0 263 -28q63 -27 97 -97q11 -21 28 -78q17 -53 36 -53q18 0 18 41
q0 19 -10 86t-10 123q0 8 -1 31.5t-1 29.5q-77 -4 -219 -6q-190 -2 -377 -2q-95 0 -193 7t-121 7q-19 0 -32 -6t-13 -14q0 -10 11 -14.5t45 -6.5q3 0 16 -1.5t16 -2.5q76 -7 76 -76q0 -38 -24 -120z" />
    <glyph glyph-name="eogonek" unicode="&#x119;" horiz-adv-x="784" 
d="M596 252l-35 20q-167 -252 -299 -252q-60 0 -87.5 30.5t-27.5 96.5q2 60 19 128l16 69q502 182 502 432q0 67 -42 108.5t-110 41.5q-85 0 -187 -75q-103 -77 -193 -208q-72 -102 -111 -214.5t-39 -215.5q0 -113 56 -177.5t155 -64.5q33 0 83 10q-116 -113 -116 -225
q0 -65 42 -107q44 -42 110 -42q65 0 119 36.5t86 102.5l-25 16q-58 -79 -125 -79q-48 0 -77 32.5t-29 85.5q0 59 28 111q28 50 107 123l3 3q122 113 177 214zM197 393q55 221 144 357q89 137 167 137q34 0 53 -24t19 -66q0 -95 -112 -217q-111 -123 -271 -187z" />
    <glyph glyph-name="Ecaron" unicode="&#x11a;" horiz-adv-x="1360" 
d="M408 1133l-254 -922q-25 -86 -45 -115q-19 -27 -54 -41q-25 -9 -69 -14h-3q-49 -7 -49 -27q0 -22 41 -22h3t4 0.5t5.5 1t6.5 0.5q111 12 237 12q107 0 407 -5q302 -5 404 -5q30 122 55 213q31 108 31 119q0 24 -18 24q-16 0 -47 -66q-33 -68 -76 -116q-63 -69 -144 -97
t-272 -28q-135 0 -178 22t-43 78t14 106l121 460h129q112 0 150 -39q39 -39 39 -152q0 -6 -1 -23.5t-1 -21.5q0 -20 22 -20q21 0 37 117q10 80 21 135q11 69 35 161q24 86 24 95q0 28 -14 28q-16 0 -38 -57t-46 -90q-34 -46 -84 -66q-50 -18 -156 -18h-104l104 364
q19 66 35 117q3 8 10.5 33.5t11.5 38.5h144q201 0 261 -28q62 -27 99 -97q12 -23 28 -78q17 -53 36 -53q18 0 18 41l-1 9q-1 9 -4 31t-6 46q-11 90 -11 166v18q-81 -5 -223 -6q-190 -2 -373 -2q-97 0 -195 7t-119 7q-19 0 -32 -6t-13 -14q0 -10 10 -14.5t41 -6.5q11 0 21 -2
q50 -5 71 -23t21 -55q0 -30 -24 -120zM619 1863l153 -348h107l280 348h-53l-270 -243l-174 243h-43z" />
    <glyph glyph-name="ecaron" unicode="&#x11b;" horiz-adv-x="784" 
d="M596 252l-35 20q-170 -252 -299 -252q-60 0 -87.5 30.5t-27.5 96.5q0 52 19 128l16 69q502 181 502 432q0 67 -42 108.5t-110 41.5q-92 0 -205 -90q-113 -89 -206 -240q-57 -90 -88 -191t-31 -192q0 -113 56 -177.5t155 -64.5q113 0 206.5 68.5t176.5 212.5zM197 393
q57 221 144 358q87 136 167 136q34 0 53 -24t19 -66q0 -96 -110 -217q-109 -119 -273 -187zM320 1384l153 -348h107l280 348h-53l-270 -243l-174 243h-43z" />
    <glyph glyph-name="Gcircumflex" unicode="&#x11c;" horiz-adv-x="1460" 
d="M1174 80l57 326q8 43 31 64t70 28q11 2 32 3q41 2 41 19q0 23 -35 23q-1 0 -58 -6q-63 -5 -112 -5q-74 0 -183 8q-100 9 -122 9q-43 0 -43 -21q0 -22 54 -25q28 -1 52 -5q41 -8 53 -26q13 -17 13 -73q0 -188 -102 -290.5t-289 -102.5q-165 0 -253.5 107t-88.5 307
q0 194 69 396q69 205 183 347q157 199 350 199q149 0 231 -84.5t82 -237.5q0 -7 -1 -20t-1 -14q0 -39 25 -39t34 75q3 26 11 77q7 46 26 119q19 66 19 83q0 10 -6 16t-15 6q-14 0 -33 -28q-19 -27 -32 -27q-11 0 -50 24q-151 93 -306 93q-308 0 -545 -275
q-118 -135 -183 -303q-65 -169 -65 -335q0 -246 141 -386q140 -139 391 -139q124 0 279 57q36 14 47 17q123 41 203 41q2 0 13.5 -1t15.5 -1zM1216 1515l-156 348h-104l-283 -348h54l270 244l174 -244h45z" />
    <glyph glyph-name="gcircumflex" unicode="&#x11d;" horiz-adv-x="1006" 
d="M236 276q-240 -48 -240 -215q0 -66 56.5 -108t178.5 -66l240 -45q79 -15 113 -49t34 -96q0 -96 -84 -156q-83 -61 -221 -61q-132 0 -221 65q-88 64 -88 158q0 83 98 152q-37 18 -73 18q-63 0 -105 -45q-43 -46 -43 -113q0 -123 114 -201q112 -79 296 -79q207 0 320 85
q114 84 114 236q0 109 -62 165t-217 83l-182 33q-151 29 -151 100q0 31 26 54.5t73 35.5q24 6 94 11q66 0 112 10q140 24 230 143q91 119 91 279q0 59 -20 121q41 30 60 39.5t36 9.5q35 0 35 -52v-8q0 -25 16.5 -41t42.5 -16q31 0 48.5 21t17.5 57q0 49 -30 78.5t-79 29.5
q-67 0 -168 -80q-78 95 -213 95q-161 0 -273 -120q-112 -119 -112 -294q0 -82 32.5 -138t103.5 -96zM233 440q0 76 27 171t72 171q57 97 149 97q123 0 123 -152q0 -189 -73 -319q-72 -129 -173 -129q-56 0 -90.5 44t-34.5 117zM889 1036l-156 348h-104l-283 -348h54l270 244
l174 -244h45z" />
    <glyph glyph-name="Gbreve" unicode="&#x11e;" horiz-adv-x="1460" 
d="M1174 80l57 326q8 43 31 64t70 28q11 2 32 3q41 2 41 19q0 23 -35 23q-1 0 -58 -6q-63 -5 -112 -5q-74 0 -183 8q-100 9 -122 9q-43 0 -43 -21q0 -22 54 -25q28 -1 52 -5q41 -8 53 -26q13 -17 13 -73q0 -188 -102 -290.5t-289 -102.5q-165 0 -253.5 107t-88.5 307
q0 194 69 396q69 205 183 347q157 199 350 199q149 0 231 -84.5t82 -237.5q0 -7 -1 -20t-1 -14q0 -39 25 -39t34 75q3 26 11 77q7 46 26 119q19 66 19 83q0 10 -6 16t-15 6q-14 0 -33 -28q-19 -27 -32 -27q-11 0 -50 24q-151 93 -306 93q-308 0 -545 -275
q-118 -135 -183 -303q-65 -169 -65 -335q0 -246 141 -386q140 -139 391 -139q124 0 279 57q36 14 47 17q123 41 203 41q2 0 13.5 -1t15.5 -1zM725 1822q3 -138 54 -203t156 -65q104 0 191 65.5t166 202.5h-49q-125 -159 -303 -159q-76 0 -116.5 38.5t-51.5 120.5h-47z" />
    <glyph glyph-name="gbreve" unicode="&#x11f;" horiz-adv-x="1006" 
d="M236 276q-240 -48 -240 -215q0 -66 56.5 -108t178.5 -66l240 -45q79 -15 113 -49t34 -96q0 -96 -84 -156q-83 -61 -221 -61q-132 0 -221 65q-88 64 -88 158q0 83 98 152q-37 18 -73 18q-63 0 -105 -45q-43 -46 -43 -113q0 -123 114 -201q112 -79 296 -79q207 0 320 85
q114 84 114 236q0 109 -62 165t-217 83l-182 33q-151 29 -151 100q0 31 26 54.5t73 35.5q24 6 94 11q66 0 112 10q140 24 230 143q91 119 91 279q0 59 -20 121q41 30 60 39.5t36 9.5q35 0 35 -52v-8q0 -25 16.5 -41t42.5 -16q31 0 48.5 21t17.5 57q0 49 -30 78.5t-79 29.5
q-67 0 -168 -80q-78 95 -213 95q-161 0 -273 -120q-112 -119 -112 -294q0 -82 32.5 -138t103.5 -96zM233 440q0 76 27 171t72 171q57 97 149 97q123 0 123 -152q0 -189 -73 -319q-72 -129 -173 -129q-56 0 -90.5 44t-34.5 117zM398 1343q3 -138 54 -203t156 -65
q104 0 191 65.5t166 202.5h-49q-125 -159 -303 -159q-76 0 -116.5 38.5t-51.5 120.5h-47z" />
    <glyph glyph-name="Gdot" unicode="&#x120;" horiz-adv-x="1460" 
d="M1174 80l57 326q8 43 31 64t70 28q11 2 32 3q41 2 41 19q0 23 -35 23q-1 0 -58 -6q-63 -5 -112 -5q-74 0 -183 8q-100 9 -122 9q-43 0 -43 -21q0 -22 54 -25q28 -1 52 -5q41 -8 53 -26q13 -17 13 -73q0 -188 -102 -290.5t-289 -102.5q-165 0 -253.5 107t-88.5 307
q0 194 69 396q69 205 183 347q157 199 350 199q149 0 231 -84.5t82 -237.5q0 -7 -1 -20t-1 -14q0 -39 25 -39t34 75q3 26 11 77q7 46 26 119q19 66 19 83q0 10 -6 16t-15 6q-14 0 -33 -28q-19 -27 -32 -27q-11 0 -50 24q-151 93 -306 93q-308 0 -545 -275
q-118 -135 -183 -303q-65 -169 -65 -335q0 -246 141 -386q140 -139 391 -139q124 0 279 57q36 14 47 17q123 41 203 41q2 0 13.5 -1t15.5 -1zM884 1667q0 -38 27 -66q28 -28 65 -28q40 0 66.5 27t26.5 67q0 36 -28 64t-65 28q-35 0 -64 -29q-28 -28 -28 -63z" />
    <glyph glyph-name="gdot" unicode="&#x121;" horiz-adv-x="1006" 
d="M236 276q-240 -48 -240 -215q0 -66 56.5 -108t178.5 -66l240 -45q79 -15 113 -49t34 -96q0 -96 -84 -156q-83 -61 -221 -61q-132 0 -221 65q-88 64 -88 158q0 83 98 152q-37 18 -73 18q-63 0 -105 -45q-43 -46 -43 -113q0 -123 114 -201q112 -79 296 -79q207 0 320 85
q114 84 114 236q0 109 -62 165t-217 83l-182 33q-151 29 -151 100q0 31 26 54.5t73 35.5q24 6 94 11q66 0 112 10q140 24 230 143q91 119 91 279q0 59 -20 121q41 30 60 39.5t36 9.5q35 0 35 -52v-8q0 -25 16.5 -41t42.5 -16q31 0 48.5 21t17.5 57q0 49 -30 78.5t-79 29.5
q-67 0 -168 -80q-78 95 -213 95q-161 0 -273 -120q-112 -119 -112 -294q0 -82 32.5 -138t103.5 -96zM233 440q0 76 27 171t72 171q57 97 149 97q123 0 123 -152q0 -189 -73 -319q-72 -129 -173 -129q-56 0 -90.5 44t-34.5 117zM557 1188q0 -38 27 -66q28 -28 65 -28
q40 0 66.5 27t26.5 67q0 36 -28 64t-65 28q-35 0 -64 -29q-28 -28 -28 -63z" />
    <glyph glyph-name="Gcedilla" unicode="&#x122;" horiz-adv-x="1460" 
d="M1174 80l57 326q8 43 31 64t70 28q11 2 32 3q41 2 41 19q0 23 -35 23q-1 0 -58 -6q-63 -5 -112 -5q-74 0 -183 8q-100 9 -122 9q-43 0 -43 -21q0 -22 54 -25q28 -1 52 -5q41 -8 53 -26q13 -17 13 -73q0 -188 -102 -290.5t-289 -102.5q-165 0 -253.5 107t-88.5 307
q0 194 69 396q69 205 183 347q157 199 350 199q149 0 231 -84.5t82 -237.5q0 -7 -1 -20t-1 -14q0 -39 25 -39t34 75q3 26 11 77q7 46 26 119q19 66 19 83q0 10 -6 16t-15 6q-14 0 -33 -28q-19 -27 -32 -27q-11 0 -50 24q-151 93 -306 93q-308 0 -545 -275
q-118 -135 -183 -303q-65 -169 -65 -335q0 -246 141 -386q140 -139 391 -139q124 0 279 57q36 14 47 17q123 41 203 41q2 0 13.5 -1t15.5 -1zM278 -371q177 -69 273 -69q94 0 152 46q59 45 59 118t-46.5 116t-125.5 43q-16 0 -46 -3q-3 -1 -6 -1l62 121h-55l-97 -190
q45 8 82 8q60 0 91.5 -24t31.5 -68q0 -101 -127 -101q-83 0 -221 68z" />
    <glyph glyph-name="gcedilla" unicode="&#x123;" horiz-adv-x="1006" 
d="M236 276q-240 -48 -240 -215q0 -66 56.5 -108t178.5 -66l240 -45q79 -15 113 -49t34 -96q0 -96 -84 -156q-83 -61 -221 -61q-132 0 -221 65q-88 64 -88 158q0 83 98 152q-37 18 -73 18q-63 0 -105 -45q-43 -46 -43 -113q0 -123 114 -201q112 -79 296 -79q207 0 320 85
q114 84 114 236q0 109 -62 165t-217 83l-182 33q-151 29 -151 100q0 31 26 54.5t73 35.5q24 6 94 11q66 0 112 10q140 24 230 143q91 119 91 279q0 59 -20 121q41 30 60 39.5t36 9.5q35 0 35 -52v-8q0 -25 16.5 -41t42.5 -16q31 0 48.5 21t17.5 57q0 49 -30 78.5t-79 29.5
q-67 0 -168 -80q-78 95 -213 95q-161 0 -273 -120q-112 -119 -112 -294q0 -82 32.5 -138t103.5 -96zM233 440q0 76 27 171t72 171q57 97 149 97q123 0 123 -152q0 -189 -73 -319q-72 -129 -173 -129q-56 0 -90.5 44t-34.5 117zM551 1036l271 222l1 1q60 49 60 80
q0 22 -14 38t-33 16q-32 0 -80 -56l-262 -301h57z" />
    <glyph glyph-name="Hcircumflex" unicode="&#x124;" horiz-adv-x="1683" 
d="M1255 219l273 983q17 59 35 82q19 23 49 35q22 9 56 14q38 6 38 23q0 9 -10 15.5t-25 6.5q-10 0 -21 -1q-116 -11 -229 -11q-90 0 -175 7q-15 1 -27 1q-20 0 -32.5 -6t-12.5 -14q0 -18 48 -21q5 0 13.5 -0.5t12.5 -1.5q47 -5 68 -23.5t21 -54.5q0 -38 -24 -120l-109 -396
h-688l131 465q19 60 36 82q19 23 48 35q28 11 74 14q47 3 47 23q0 8 -11 14t-28 6q-11 0 -24 -1q-111 -9 -220 -9q-113 0 -210 7q-11 1 -21 1q-20 0 -32.5 -6t-12.5 -14q0 -16 50 -21q4 0 11.5 -0.5t10.5 -1.5q50 -5 71 -23t21 -55q0 -31 -25 -120l-254 -922
q-22 -84 -44 -113q-20 -30 -57 -43q-25 -9 -69 -14q-2 0 -3 -1q-46 -6 -46 -26q0 -22 41 -22q2 0 5.5 0.5t10 1t11.5 0.5q97 12 186 12q127 0 252 -12q6 0 11.5 -0.5t8.5 -1t4 -0.5q9 0 17 7t8 13q0 20 -43 24q-32 4 -68 13q-47 12 -47 72q0 42 17 98l127 457h688l-127 -465
q-24 -84 -44 -113q-20 -30 -57 -43q-25 -9 -69 -14q-2 0 -4 -1q-45 -6 -45 -26q0 -22 41 -22q5 0 28 3q99 11 183 11q128 0 252 -12q4 0 8.5 -0.5t7 -1t5 -0.5h3.5q9 0 17 7t8 13q-1 20 -42 24q-34 4 -67 13q-47 12 -47 72q0 46 16 98zM1329 1515l-156 348h-104l-283 -348
h54l270 244l174 -244h45z" />
    <glyph glyph-name="hcircumflex" unicode="&#x125;" horiz-adv-x="1010" 
d="M117 0q90 388 232 626t269 238q62 0 62 -76q0 -54 -31 -149l-112 -342q-37 -108 -37 -172q0 -141 125 -141q86 0 155.5 75.5t134.5 241.5l-32 18q-127 -276 -213 -276q-19 0 -30 12.5t-11 34.5q0 37 16 82l113 338q47 149 47 231q0 87 -41.5 135t-116.5 48
q-155 0 -364 -328l237 879l-315 -39l-12 -50q1 1 5 1q28 4 44 4q50 0 70 -11.5t20 -38.5q0 -14 -8 -46l-349 -1295h142zM690 1587l-156 348h-104l-283 -348h54l270 244l174 -244h45z" />
    <glyph glyph-name="Hbar" unicode="&#x126;" horiz-adv-x="1683" 
d="M571 940h689l-56 -203h-688zM1255 219l201 721h258l17 53h-261l58 209q15 54 33.5 79t50.5 38q20 7 51 12q43 7 43 25t-37 18q-10 0 -22 -1q-102 -7 -226 -7q-93 0 -178 7q-13 1 -24 1q-20 0 -32.5 -6t-12.5 -14q0 -18 48 -21q5 0 13.5 -0.5t12.5 -1.5q47 -5 68 -23.5
t21 -54.5q0 -35 -24 -120l-39 -140h-686l59 209q17 59 35 82q19 23 49 35q28 11 74 14q47 3 47 23q0 18 -39 18q-11 0 -24 -1q-113 -7 -246 -7q-94 0 -181 7q-13 1 -24 1q-20 0 -32.5 -6t-12.5 -14q0 -16 50 -21q4 0 11.5 -0.5t10.5 -1.5q50 -5 71 -23t21 -55
q0 -31 -25 -120l-39 -140h-258l-18 -53h262l-201 -729q-24 -84 -45 -114q-19 -29 -56 -46q-18 -6 -64 -11q-54 -6 -54 -26q0 -22 41 -22q5 0 31 3q99 11 182 11q127 0 252 -12q6 0 11.5 -0.5t8.5 -1t4 -0.5q9 0 17 7t8 13q0 19 -43 25q-37 4 -67 14q-48 11 -48 70
q0 41 17 98l127 457h688l-127 -465q-25 -89 -45 -117q-19 -28 -56 -43q-18 -6 -66 -11q-54 -6 -54 -26q0 -9 12.5 -15.5t30.5 -6.5q6 0 30 3q97 11 181 11q128 0 252 -12q4 0 8.5 -0.5t7 -1t5 -0.5h3.5q9 0 17 7t8 13q0 19 -42 25q-37 4 -67 14q-47 11 -47 70q0 44 16 98z
" />
    <glyph glyph-name="hbar" unicode="&#x127;" horiz-adv-x="1014" 
d="M123 0q91 388 232 626q142 238 270 238q59 0 59 -76q0 -58 -31 -149l-112 -342q-37 -112 -37 -172q0 -141 127 -141q87 0 156 75t135 242l-33 18q-126 -276 -215 -276q-19 0 -30 12.5t-11 34.5q0 37 16 82l113 338q49 142 49 240q0 80 -43 127t-117 47q-155 0 -364 -328
l139 518h252l12 45h-250l86 316l-315 -39l-12 -50q1 0 2.5 0.5t3 0.5t4 0.5t4.5 0.5q19 3 27 3q55 0 75.5 -11t20.5 -39q0 -11 -6 -37l-2 -10l-37 -135h-209l-12 -45h211l-301 -1114h143z" />
    <glyph glyph-name="Itilde" unicode="&#x128;" horiz-adv-x="782" 
d="M373 219l274 983q17 59 35 82q19 23 49 35q28 11 74 14q47 3 47 23q0 8 -11 14t-28 6q-11 0 -24 -1q-111 -9 -220 -9q-113 0 -210 7q-11 1 -21 1q-20 0 -32.5 -6t-12.5 -14q0 -16 50 -21q4 0 11.5 -0.5t10.5 -1.5q50 -5 71 -23t21 -55q0 -31 -25 -120l-254 -922
q-22 -84 -44 -113q-20 -30 -57 -43q-25 -9 -69 -14q-2 0 -3 -1q-46 -6 -46 -26q0 -22 41 -22q2 0 5.5 0.5t10 1t11.5 0.5q97 12 186 12q127 0 252 -12q6 0 11.5 -0.5t8.5 -1t4 -0.5q9 0 17 7t8 13q0 20 -43 24q-32 4 -68 13q-47 12 -47 72q0 42 17 98zM928 1782h-39
q-24 -86 -102 -86q-26 0 -53 8l-138 35q-46 12 -77 12q-66 0 -106 -42.5t-58 -131.5h41q12 42 35 61t61 19q24 0 76 -13l131 -35q32 -8 63 -8q62 0 102.5 44t63.5 137z" />
    <glyph glyph-name="itilde" unicode="&#x129;" horiz-adv-x="559" 
d="M125 399q-74 -188 -74 -284q0 -66 33 -103t92 -37q80 0 151 75t140 233l-29 18q-76 -147 -128 -210q-51 -60 -97 -60q-17 0 -28 12.5t-11 32.5q0 42 74 239l59 158q45 122 62 186q18 69 18 117q0 68 -34.5 108t-92.5 40q-140 0 -268 -297l35 -15q54 118 108 186t94 68
q17 0 27 -13.5t10 -35.5q0 -60 -65 -221zM618 1303h-39q-24 -86 -102 -86q-26 0 -53 8l-138 35q-46 12 -77 12q-66 0 -106 -42.5t-58 -131.5h41q12 42 35 61t61 19q24 0 76 -13l131 -35q32 -8 63 -8q62 0 102.5 44t63.5 137z" />
    <glyph glyph-name="Imacron" unicode="&#x12a;" horiz-adv-x="782" 
d="M373 219l274 983q17 59 35 82q19 23 49 35q28 11 74 14q47 3 47 23q0 8 -11 14t-28 6q-11 0 -24 -1q-111 -9 -220 -9q-113 0 -210 7q-11 1 -21 1q-20 0 -32.5 -6t-12.5 -14q0 -16 50 -21q4 0 11.5 -0.5t10.5 -1.5q50 -5 71 -23t21 -55q0 -31 -25 -120l-254 -922
q-22 -84 -44 -113q-20 -30 -57 -43q-25 -9 -69 -14q-2 0 -3 -1q-46 -6 -46 -26q0 -22 41 -22q2 0 5.5 0.5t10 1t11.5 0.5q97 12 186 12q127 0 252 -12q6 0 11.5 -0.5t8.5 -1t4 -0.5q9 0 17 7t8 13q0 20 -43 24q-32 4 -68 13q-47 12 -47 72q0 42 17 98zM371 1612h512l23 106
h-512z" />
    <glyph glyph-name="imacron" unicode="&#x12b;" horiz-adv-x="559" 
d="M125 399q-74 -188 -74 -284q0 -66 33 -103t92 -37q80 0 151 75t140 233l-29 18q-76 -147 -128 -210q-51 -60 -97 -60q-17 0 -28 12.5t-11 32.5q0 42 74 239l59 158q45 122 62 186q18 69 18 117q0 68 -34.5 108t-92.5 40q-140 0 -268 -297l35 -15q54 118 108 186t94 68
q17 0 27 -13.5t10 -35.5q0 -60 -65 -221zM61 1133h512l23 106h-512z" />
    <glyph glyph-name="Ibreve" unicode="&#x12c;" horiz-adv-x="782" 
d="M373 219l274 983q17 59 35 82q19 23 49 35q28 11 74 14q47 3 47 23q0 8 -11 14t-28 6q-11 0 -24 -1q-111 -9 -220 -9q-113 0 -210 7q-11 1 -21 1q-20 0 -32.5 -6t-12.5 -14q0 -16 50 -21q4 0 11.5 -0.5t10.5 -1.5q50 -5 71 -23t21 -55q0 -31 -25 -120l-254 -922
q-22 -84 -44 -113q-20 -30 -57 -43q-25 -9 -69 -14q-2 0 -3 -1q-46 -6 -46 -26q0 -22 41 -22q2 0 5.5 0.5t10 1t11.5 0.5q97 12 186 12q127 0 252 -12q6 0 11.5 -0.5t8.5 -1t4 -0.5q9 0 17 7t8 13q0 20 -43 24q-32 4 -68 13q-47 12 -47 72q0 42 17 98zM388 1822
q3 -138 54 -203t156 -65q104 0 191 65.5t166 202.5h-49q-125 -159 -303 -159q-76 0 -116.5 38.5t-51.5 120.5h-47z" />
    <glyph glyph-name="ibreve" unicode="&#x12d;" horiz-adv-x="559" 
d="M125 399q-74 -188 -74 -284q0 -66 33 -103t92 -37q80 0 151 75t140 233l-29 18q-76 -147 -128 -210q-51 -60 -97 -60q-17 0 -28 12.5t-11 32.5q0 42 74 239l59 158q45 122 62 186q18 69 18 117q0 68 -34.5 108t-92.5 40q-140 0 -268 -297l35 -15q54 118 108 186t94 68
q17 0 27 -13.5t10 -35.5q0 -60 -65 -221zM78 1343q3 -138 54 -203t156 -65q104 0 191 65.5t166 202.5h-49q-125 -159 -303 -159q-76 0 -116.5 38.5t-51.5 120.5h-47z" />
    <glyph glyph-name="Iogonek" unicode="&#x12e;" horiz-adv-x="782" 
d="M373 219l274 983q17 59 35 82q19 23 49 35q28 11 74 14q47 3 47 23q0 8 -11 14t-28 6q-11 0 -24 -1q-111 -9 -220 -9q-113 0 -210 7q-11 1 -21 1q-20 0 -32.5 -6t-12.5 -14q0 -16 50 -21q4 0 11.5 -0.5t10.5 -1.5q50 -5 71 -23t21 -55q0 -31 -25 -120l-254 -922
q-22 -84 -44 -113q-20 -30 -57 -43q-25 -9 -69 -14q-2 0 -3 -1q-46 -6 -46 -26q0 -22 41 -22q2 0 5.5 0.5t10 1t11.5 0.5q97 12 186 12q127 0 252 -12q6 0 11.5 -0.5t8.5 -1t4 -0.5q9 0 17 7t8 13q0 20 -43 24q-32 4 -68 13q-47 12 -47 72q0 42 17 98zM399 31h-43
q-117 -73 -180.5 -156.5t-63.5 -165.5q0 -66 42.5 -107.5t109.5 -41.5q66 0 119.5 36.5t85.5 102.5l-25 14q-57 -78 -125 -78q-47 0 -76.5 33t-29.5 86q0 136 186 277z" />
    <glyph glyph-name="iogonek" unicode="&#x12f;" horiz-adv-x="559" 
d="M125 399q-74 -188 -74 -284q0 -66 33 -103t92 -37q80 0 151 75t140 233l-29 18q-76 -147 -128 -210q-51 -60 -97 -60q-17 0 -28 12.5t-11 32.5q0 42 74 239l59 158q45 122 62 186q18 69 18 117q0 68 -34.5 108t-92.5 40q-140 0 -268 -297l35 -15q54 118 108 186t94 68
q17 0 27 -13.5t10 -35.5q0 -60 -65 -221zM307 1335q0 -37 24.5 -61.5t61.5 -24.5q36 0 62 25t26 61q0 37 -25 61.5t-61 24.5q-37 0 -62.5 -24.5t-25.5 -61.5zM289 31h-43q-117 -73 -180.5 -156.5t-63.5 -165.5q0 -66 42.5 -107.5t109.5 -41.5q66 0 119.5 36.5t85.5 102.5
l-25 14q-57 -78 -125 -78q-47 0 -76.5 33t-29.5 86q0 136 186 277z" />
    <glyph glyph-name="Idot" unicode="&#x130;" horiz-adv-x="782" 
d="M373 219l274 983q17 59 35 82q19 23 49 35q28 11 74 14q47 3 47 23q0 8 -11 14t-28 6q-11 0 -24 -1q-111 -9 -220 -9q-113 0 -210 7q-11 1 -21 1q-20 0 -32.5 -6t-12.5 -14q0 -16 50 -21q4 0 11.5 -0.5t10.5 -1.5q50 -5 71 -23t21 -55q0 -31 -25 -120l-254 -922
q-22 -84 -44 -113q-20 -30 -57 -43q-25 -9 -69 -14q-2 0 -3 -1q-46 -6 -46 -26q0 -22 41 -22q2 0 5.5 0.5t10 1t11.5 0.5q97 12 186 12q127 0 252 -12q6 0 11.5 -0.5t8.5 -1t4 -0.5q9 0 17 7t8 13q0 20 -43 24q-32 4 -68 13q-47 12 -47 72q0 42 17 98zM547 1667
q0 -38 27 -66q28 -28 65 -28q40 0 66.5 27t26.5 67q0 36 -28 64t-65 28q-35 0 -64 -29q-28 -28 -28 -63z" />
    <glyph glyph-name="dotlessi" unicode="&#x131;" horiz-adv-x="559" 
d="M125 399q-74 -188 -74 -284q0 -66 33 -103t92 -37q80 0 151 75t140 233l-29 18q-76 -147 -128 -210q-51 -60 -97 -60q-17 0 -28 12.5t-11 32.5q0 42 74 239l59 158q45 122 62 186q18 69 18 117q0 68 -34.5 108t-92.5 40q-140 0 -268 -297l35 -15q54 118 108 186t94 68
q17 0 27 -13.5t10 -35.5q0 -60 -65 -221z" />
    <glyph glyph-name="IJ" unicode="&#x132;" horiz-adv-x="1628" 
d="M1231 1133l-359 -1299q-55 -200 -114 -286q-58 -85 -140 -85q-36 0 -58.5 15.5t-22.5 40.5q0 6 1 22.5t1 20.5q0 94 -90 94q-36 0 -59 -24.5t-23 -63.5q0 -65 67 -105q68 -41 174 -41q180 0 292 115q113 116 185 375l359 1290q14 55 33 79.5t51 37.5q24 8 74 13
q49 4 49 24q0 7 -12 13.5t-27 6.5q-11 0 -24 -1q-111 -9 -220 -9q-116 0 -213 7q-10 1 -18 1q-20 0 -32.5 -6t-12.5 -14q0 -17 53 -22q19 -2 33 -3q77 -11 77 -76q0 -35 -24 -120zM373 219l274 983q17 59 34 81q20 25 50 36q24 8 73 13q48 4 48 24q0 7 -12 13.5t-27 6.5
q-11 0 -24 -1q-111 -9 -220 -9q-117 0 -212 7q-11 1 -19 1q-20 0 -32.5 -6t-12.5 -14q0 -18 55 -22q20 -2 33 -3q76 -8 76 -76q0 -34 -25 -120l-254 -922q-22 -83 -44 -114q-21 -30 -57 -42q-26 -9 -69 -14h-2q-47 -8 -47 -27q0 -22 41 -22q6 0 28 3q99 11 185 11
q133 0 254 -12q6 0 11 -0.5t7.5 -1t3.5 -0.5q9 0 17 7t8 13q0 20 -45 25q-28 3 -53 8q-60 16 -60 76q0 41 17 98z" />
    <glyph glyph-name="ij" unicode="&#x133;" horiz-adv-x="1096" 
d="M307 1335q0 -37 24.5 -61.5t61.5 -24.5q36 0 62 25.5t26 60.5q0 37 -25 61.5t-61 24.5q-35 0 -61.5 -25.5t-26.5 -60.5zM125 399q-74 -184 -74 -284q0 -65 33.5 -102.5t91.5 -37.5q80 0 150.5 74.5t140.5 233.5l-29 18q-82 -156 -132 -214q-48 -56 -93 -56
q-18 0 -28.5 12t-10.5 33q0 42 74 239l59 158q80 209 80 303q0 67 -35 108.5t-92 41.5q-140 0 -268 -299l35 -15q53 117 108 185.5t94 68.5q17 0 27 -13.5t10 -35.5q0 -58 -65 -221zM825 729l-174 -672q-100 -383 -153 -481t-129 -98q-56 0 -76 65q-19 64 -62 64
q-25 0 -40 -18t-15 -48q0 -48 46 -77t124 -29q168 0 277 156q110 156 198 532l94 395q31 128 42 192q12 64 12 105q0 53 -24.5 82t-67.5 29q-72 0 -166 -89q-92 -89 -158 -229l35 -16q64 121 125 187q65 71 104 71q21 -2 21 -37q0 -27 -13 -84zM889 1335q0 -36 25 -61
t61 -25t62 25.5t26 60.5t-26 60.5t-62 25.5q-35 0 -60.5 -25t-25.5 -61z" />
    <glyph glyph-name="Jcircumflex" unicode="&#x134;" horiz-adv-x="905" 
d="M508 1133l-358 -1299q-58 -205 -115 -287q-58 -84 -139 -84q-38 0 -60 15.5t-22 40.5q0 6 1 22.5t1 20.5q0 94 -90 94q-36 0 -59 -24.5t-23 -63.5q0 -65 67 -105q67 -41 174 -41q180 0 292 115q113 116 185 375l359 1290q17 59 35 82q19 23 49 35q29 11 75 14q48 3 48 23
q0 8 -11 14t-28 6q-11 0 -24 -1q-111 -9 -220 -9q-113 0 -210 7q-11 1 -21 1q-20 0 -32.5 -6t-12.5 -14q0 -17 49 -21q4 0 11 -0.5t10 -1.5q50 -5 71.5 -23t21.5 -55q0 -35 -24 -120zM954 1515l-156 348h-104l-283 -348h54l270 244l174 -244h45z" />
    <glyph glyph-name="jcircumflex" unicode="&#x135;" horiz-adv-x="559" 
d="M291 729l-174 -672q-98 -378 -153 -479q-54 -100 -132 -100q-57 0 -74 65q-18 64 -61 64q-26 0 -41.5 -18t-15.5 -48q0 -48 46 -77t124 -29q168 0 276 156q109 155 199 532l94 395q32 134 41 192q12 64 12 105q0 53 -24 82t-68 29q-72 0 -164 -89q-90 -87 -158 -229
l33 -16q63 118 126 187q65 71 104 71q9 0 15.5 -10.5t6.5 -26.5q0 -31 -12 -84zM666 1036l-156 348h-104l-283 -348h54l270 244l174 -244h45z" />
    <glyph glyph-name="Kcedilla" unicode="&#x136;" horiz-adv-x="1462" 
d="M373 219l125 443l49 28l350 -543q12 -18 12 -43q0 -24 -13 -35.5t-52 -21.5q-24 -6 -43 -6q-27 -4 -34 -8.5t-7 -16.5q0 -22 37 -22q7 0 34 3q93 9 175 9q138 0 268 -12q6 0 11.5 -0.5t8.5 -1t4 -0.5q29 0 29 20q0 19 -41 24q-30 5 -47 9q-71 22 -125 102l-412 627
q305 215 571 454q47 42 50 44q50 36 107 51q59 15 59 33q0 6 -9.5 12t-23.5 6q-1 0 -11 -1t-15 -1q-66 -8 -152 -8q-100 0 -159 6q-9 0 -28.5 1t-21.5 1q-35 0 -35 -18q0 -20 49 -23q32 -2 44 -4q63 -11 63 -57q0 -60 -177 -201q-172 -137 -499 -336l133 469q19 60 36 82
q19 23 48 35q28 11 74 14q47 3 47 23q0 8 -11 14t-28 6q-9 0 -25 -2q-1 0 -31 -2q-112 -8 -188 -8q-94 0 -191 7q-9 1 -19 1q-14 2 -21 2q-20 0 -32.5 -6t-12.5 -14q0 -16 50 -21q4 0 11.5 -0.5t10.5 -1.5q50 -5 71 -23t21 -55q0 -31 -25 -120l-254 -922q-22 -84 -44 -113
q-20 -30 -57 -43q-25 -9 -69 -14q-2 0 -3 -1q-46 -6 -46 -26q0 -22 41 -22q2 0 5.5 0.5t10 1t11.5 0.5q97 12 186 12q127 0 252 -12q6 0 11.5 -0.5t8.5 -1t4 -0.5q9 0 17 7t8 13q0 20 -43 24q-32 4 -68 13q-47 12 -47 72q0 42 17 98zM551 -314q4 -21 4 -30q0 -49 -50 -105.5
t-141 -107.5l19 -29q109 32 182 120q74 89 74 185q0 67 -32 104.5t-89 37.5q-41 0 -67.5 -26.5t-26.5 -65.5q0 -42 25.5 -65t72.5 -23q9 0 29 5z" />
    <glyph glyph-name="kcedilla" unicode="&#x137;" horiz-adv-x="901" 
d="M217 426q66 212 155 328q90 116 185 116q33 0 52.5 -19.5t19.5 -53.5q0 -87 -108 -185t-304 -186zM96 0l103 367l127 63q26 12 41 12q36 0 55.5 -24.5t19.5 -69.5q0 -32 -12 -107t-12 -116q0 -74 35 -114t100 -40q82 0 141 62.5t107 199.5l-35 17q-87 -213 -156 -213
q-45 0 -45 74q0 14 5 62t5 69q0 119 -40 165q-39 48 -142 58q203 96 280 166q81 72 81 153q0 64 -41 101t-111 37q-183 0 -323 -244l206 797l-315 -39l-12 -50q1 1 5 1q28 4 44 4q50 0 70 -11.5t20 -38.5q0 -15 -8 -46l-336 -1295h143zM271 -314q4 -21 4 -30
q0 -49 -50 -105.5t-141 -107.5l19 -29q109 32 182 120q74 89 74 185q0 67 -32 104.5t-89 37.5q-41 0 -67.5 -26.5t-26.5 -65.5q0 -42 25.5 -65t72.5 -23q9 0 29 5z" />
    <glyph glyph-name="kra" unicode="&#x138;" horiz-adv-x="920" 
d="M270 457l74 268l2 6q24 85 80 111q21 11 58 18q38 9 38 25q0 18 -26 18q-2 0 -5.5 -0.5t-10 -1t-12.5 -0.5q-86 -8 -153 -8q-47 0 -114 5q-65 5 -66 5q-41 0 -41 -26q0 -8 59 -25q60 -16 60 -57q0 -14 -14 -67v-3l-152 -549v-2q-27 -94 -80 -115q-27 -10 -60 -16
q-50 -11 -50 -29q0 -10 5 -14t19 -4q5 0 70 6q64 6 121 6q59 0 121 -6q61 -6 65 -6q39 0 39 29q0 7 -60 24q-59 17 -59 55q0 25 15 73l57 204l78 65l288 -427q16 -23 39 -23q9 0 31 6t39 6q3 0 24.5 -6t30.5 -6q27 0 43.5 9.5t16.5 23.5l-42 26q-40 24 -85 88l-275 392
l201 172l14 12q140 121 213 137q1 0 5 1t7.5 2t7.5 1q42 8 42 31q0 5 -2.5 7t-13 3.5t-31.5 1.5q-13 0 -71 -5t-87 -5t-69 5q-9 1 -19.5 2.5t-15 2t-5.5 0.5q-32 0 -32 -26q0 -11 43 -21t43 -29q0 -25 -46 -71q-45 -46 -186 -162z" />
    <glyph glyph-name="Lacute" unicode="&#x139;" horiz-adv-x="1233" 
d="M365 219l274 983q17 59 35 82q19 23 49 35q28 11 74 14q47 3 47 23q0 8 -11 14t-28 6q-11 0 -24 -1q-111 -9 -220 -9q-113 0 -210 7q-11 1 -21 1q-20 0 -32.5 -6t-12.5 -14q0 -16 50 -21q4 0 11.5 -0.5t10.5 -1.5q49 -5 70.5 -23t21.5 -55q0 -31 -25 -120l-254 -922
q-22 -84 -44 -113q-20 -30 -57 -43q-25 -9 -69 -14q-2 0 -3 -1q-46 -6 -46 -26q0 -22 41 -22q15 0 48 4q37 4 64 6q15 1 56 1q23 1 125 1h297q39 0 307 -6q35 -1 71 -1.5t70 -1.5t49 -1q24 111 57 216q33 106 33 107q0 29 -20 29q-19 0 -56 -75q-36 -74 -79 -117
q-56 -58 -165 -84q-107 -25 -306 -25q-131 0 -163 15q-32 17 -32 61q0 42 17 98zM536 1515l271 222l1 1q60 49 60 80q0 22 -14 38t-33 16q-32 0 -80 -56l-262 -301h57z" />
    <glyph glyph-name="lacute" unicode="&#x13a;" horiz-adv-x="559" 
d="M328 1295l-283 -1004q-29 -102 -29 -174q0 -71 37 -108.5t107 -37.5q92 0 164.5 76.5t132.5 235.5l-35 16q-55 -129 -112.5 -201.5t-104.5 -72.5q-51 0 -51 71q0 57 22 133l348 1246l-315 -39l-12 -50q1 1 5 1q28 4 44 4q50 0 70 -11.5t20 -38.5q0 -19 -8 -46zM362 1587
l271 222l1 1q60 49 60 80q0 22 -14 38t-33 16q-32 0 -80 -56l-262 -301h57z" />
    <glyph glyph-name="Lcedilla" unicode="&#x13b;" horiz-adv-x="1233" 
d="M365 219l274 983q17 59 35 82q19 23 49 35q28 11 74 14q47 3 47 23q0 8 -11 14t-28 6q-11 0 -24 -1q-111 -9 -220 -9q-113 0 -210 7q-11 1 -21 1q-20 0 -32.5 -6t-12.5 -14q0 -16 50 -21q4 0 11.5 -0.5t10.5 -1.5q49 -5 70.5 -23t21.5 -55q0 -31 -25 -120l-254 -922
q-22 -84 -44 -113q-20 -30 -57 -43q-25 -9 -69 -14q-2 0 -3 -1q-46 -6 -46 -26q0 -22 41 -22q15 0 48 4q37 4 64 6q15 1 56 1q23 1 125 1h297q39 0 307 -6q35 -1 71 -1.5t70 -1.5t49 -1q24 111 57 216q33 106 33 107q0 29 -20 29q-19 0 -56 -75q-36 -74 -79 -117
q-56 -58 -165 -84q-107 -25 -306 -25q-131 0 -163 15q-32 17 -32 61q0 42 17 98zM436 -314q4 -21 4 -30q0 -49 -50 -105.5t-141 -107.5l19 -29q109 32 182 120q74 89 74 185q0 67 -32 104.5t-89 37.5q-41 0 -67.5 -26.5t-26.5 -65.5q0 -42 25.5 -65t72.5 -23q9 0 29 5z" />
    <glyph glyph-name="lcedilla" unicode="&#x13c;" horiz-adv-x="559" 
d="M328 1295l-283 -1004q-29 -102 -29 -174q0 -71 37 -108.5t107 -37.5q92 0 164.5 76.5t132.5 235.5l-35 16q-55 -129 -112.5 -201.5t-104.5 -72.5q-51 0 -51 71q0 57 22 133l348 1246l-315 -39l-12 -50q1 1 5 1q28 4 44 4q50 0 70 -11.5t20 -38.5q0 -19 -8 -46zM101 -314
q4 -21 4 -30q0 -49 -50 -105.5t-141 -107.5l19 -29q109 32 182 120q74 89 74 185q0 67 -32 104.5t-89 37.5q-41 0 -67.5 -26.5t-26.5 -65.5q0 -42 25.5 -65t72.5 -23q9 0 29 5z" />
    <glyph glyph-name="Lcaron" unicode="&#x13d;" horiz-adv-x="1233" 
d="M1190 1216q0 -1 0.5 -2.5l1 -3t0.5 -3.5q4 -15 4 -23q0 -49 -49.5 -104t-140.5 -107l18 -29q109 32 182 120q74 89 74 185q0 67 -32 104.5t-89 37.5q-40 0 -67 -27.5t-27 -67.5q0 -41 25.5 -63.5t72.5 -22.5q7 0 27 6zM365 219l274 983q17 59 34 81q20 25 50 36
q24 8 73 13q48 4 48 24q0 8 -11 14t-28 6q-11 0 -24 -1q-111 -9 -220 -9q-116 0 -213 7q-10 1 -18 1q-20 0 -32.5 -6t-12.5 -14q0 -18 54 -22q20 -1 34 -3q76 -8 76 -76q0 -34 -25 -120l-254 -922q-24 -84 -45 -114q-19 -30 -56 -42q-30 -9 -69 -14h-2q-47 -8 -47 -27
q0 -22 41 -22q7 0 16 1q115 11 240 11h334q7 0 282 -5q34 -1 109 -2.5t106 -2.5q22 107 56 216q34 105 34 107q0 12 -6 20.5t-14 8.5q-19 0 -56 -75q-36 -74 -79 -117q-57 -58 -165 -84q-106 -25 -306 -25q-129 0 -162 15t-33 61q0 41 17 98z" />
    <glyph glyph-name="lcaron" unicode="&#x13e;" horiz-adv-x="834" 
d="M328 1295l-283 -1004q-29 -102 -29 -174q0 -71 37 -108.5t107 -37.5q92 0 164.5 76.5t132.5 235.5l-35 16q-55 -129 -112.5 -201.5t-104.5 -72.5q-51 0 -51 71q0 57 22 133l348 1246l-315 -39l-12 -50q1 1 5 1q28 4 44 4q50 0 70 -11.5t20 -38.5q0 -19 -8 -46zM860 1264
q6 -24 6 -31q0 -48 -50 -103t-142 -108l18 -31q109 32 183 121q75 92 75 186q0 67 -32 104.5t-89 37.5q-40 0 -67 -27.5t-27 -66.5q0 -86 98 -86q16 0 27 4z" />
    <glyph glyph-name="Ldot" unicode="&#x13f;" horiz-adv-x="1792" 
d="M365 219l274 983q17 59 35 82q19 23 49 35q28 11 74 14q47 3 47 23q0 8 -11 14t-28 6q-11 0 -24 -1q-111 -9 -220 -9q-113 0 -210 7q-11 1 -21 1q-20 0 -32.5 -6t-12.5 -14q0 -16 50 -21q4 0 11.5 -0.5t10.5 -1.5q49 -5 70.5 -23t21.5 -55q0 -31 -25 -120l-254 -922
q-22 -84 -44 -113q-20 -30 -57 -43q-25 -9 -69 -14q-2 0 -3 -1q-46 -6 -46 -26q0 -22 41 -22q15 0 48 4q37 4 64 6q15 1 56 1q23 1 125 1h297q39 0 307 -6q35 -1 71 -1.5t70 -1.5t49 -1q24 111 57 216q33 106 33 107q0 29 -20 29q-19 0 -56 -75q-36 -74 -79 -117
q-56 -58 -165 -84q-107 -25 -306 -25q-131 0 -163 15q-32 17 -32 61q0 42 17 98zM1405 723q0 -46 31 -77.5t76 -31.5t76.5 32t31.5 77t-30.5 75.5t-75.5 30.5q-47 0 -78 -30t-31 -76z" />
    <glyph glyph-name="ldot" unicode="&#x140;" horiz-adv-x="1118" 
d="M328 1295l-283 -1004q-29 -102 -29 -174q0 -71 37 -108.5t107 -37.5q92 0 164.5 76.5t132.5 235.5l-35 16q-55 -129 -112.5 -201.5t-104.5 -72.5q-51 0 -51 71q0 57 22 133l348 1246l-315 -39l-12 -50q1 1 5 1q28 4 44 4q50 0 70 -11.5t20 -38.5q0 -19 -8 -46zM731 723
q0 -46 31 -77.5t76 -31.5t76.5 32t31.5 77t-30.5 75.5t-75.5 30.5q-47 0 -78 -30t-31 -76z" />
    <glyph glyph-name="Lslash" unicode="&#x141;" horiz-adv-x="1237" 
d="M371 220l137 493l438 254l23 73l-441 -254l115 416q17 59 35 82q19 23 49 35q28 11 74 14q47 3 47 23q0 8 -11 14t-28 6q-11 0 -24 -1q-110 -9 -218 -9q-113 0 -212 7q-11 1 -21 1q-20 0 -32.5 -6t-12.5 -14q0 -16 50 -21q4 0 11.5 -0.5t10.5 -1.5q50 -5 71 -23t21 -55
q0 -31 -25 -120l-129 -463l-338 -195l-18 -69l338 192l-107 -387q-25 -87 -45 -116q-19 -26 -54 -40q-25 -9 -69 -14h-3q-48 -7 -48 -27q0 -22 41 -22q16 0 49 4q38 4 65 6q15 1 56 1q23 1 125 1h295q38 0 307 -6q35 -1 71 -1.5t70 -1.5t49 -1q24 111 57 216q34 105 34 107
q0 13 -6 21t-15 8q-17 0 -55 -75q-39 -76 -80 -117q-56 -58 -165 -84q-107 -25 -306 -25q-131 0 -163 15q-32 17 -32 61q0 36 19 99z" />
    <glyph glyph-name="lslash" unicode="&#x142;" horiz-adv-x="569" 
d="M152 653l-103 -362q-29 -104 -29 -174q0 -71 37 -108.5t107 -37.5q92 0 165 76.5t132 235.5l-35 16q-55 -129 -112.5 -201.5t-104.5 -72.5q-51 0 -51 71q0 57 22 133l144 516l256 144l18 63l-256 -147l186 670l-315 -39l-12 -50q1 1 5 1q28 4 44 4q50 0 70 -11.5
t20 -38.5q0 -19 -8 -46l-162 -580l-252 -146l-16 -63z" />
    <glyph glyph-name="Nacute" unicode="&#x143;" horiz-adv-x="1569" 
d="M270 330l201 800l533 -1118q21 -47 53 -47q30 0 47 66l211 807q43 165 91 299q42 118 73 149q30 29 103 42q3 1 7 1q32 4 42.5 9.5t10.5 17.5q0 22 -34 22q-1 0 -13 -1t-18 -1t-11 -1q-102 -11 -177 -11q-84 0 -168 10q-5 0 -11.5 0.5t-10 1t-5.5 0.5q-31 0 -31 -22
q0 -17 42 -23q40 -6 65 -14q65 -23 65 -96q0 -60 -30 -181l-203 -809l-529 1094q-14 29 -23.5 36t-33.5 7q-14 0 -61 -3t-76 -3q-44 0 -81 4q-36 4 -44 4q-14 0 -23.5 -6t-9.5 -14q0 -19 47 -24q50 -5 78 -13q27 -10 46.5 -35t37.5 -74q-1 -41 -12 -77l-158 -595
q-46 -173 -92 -299q-44 -119 -72 -147q-34 -31 -110 -45q-32 -4 -43 -9.5t-11 -17.5q0 -22 37 -22q7 0 32 3q102 11 187 11q83 0 166 -10q5 0 11.5 -0.5t10 -1t5.5 -0.5q32 0 33 22q0 18 -45 25h-2q-36 5 -61 14q-36 12 -51 34.5t-15 62.5q0 58 30 178zM860 1515l271 222
l1 1q60 49 60 80q0 22 -14 38t-33 16q-32 0 -80 -56l-262 -301h57z" />
    <glyph glyph-name="nacute" unicode="&#x144;" horiz-adv-x="1124" 
d="M215 0l55 174q1 4 6 19t8 26q104 334 244 516q102 133 185 133q67 0 67 -82q0 -66 -35 -159l-110 -326q-28 -88 -34 -117q-7 -34 -7 -67q0 -70 33.5 -108t95.5 -38q159 0 262 228l39 88l-33 18q-68 -144 -122.5 -212t-102.5 -68q-43 0 -43 51q0 29 18 86l136 420
q26 84 26 151q0 89 -43.5 141t-118.5 52q-95 0 -196 -104t-195 -298q37 152 37 240q0 79 -29.5 120.5t-85.5 41.5q-89 0 -161.5 -83.5t-137.5 -262.5l37 -13q66 156 116 224.5t97 68.5q41 0 41 -59q0 -61 -23 -184q-24 -126 -61 -250l-110 -367h145zM547 1036l271 222l1 1
q60 49 60 80q0 22 -14 38t-33 16q-32 0 -80 -56l-262 -301h57z" />
    <glyph glyph-name="Ncedilla" unicode="&#x145;" horiz-adv-x="1569" 
d="M270 330l201 800l533 -1118q21 -47 53 -47q30 0 47 66l211 807q43 165 91 299q42 118 73 149q30 29 103 42q3 1 7 1q32 4 42.5 9.5t10.5 17.5q0 22 -34 22q-1 0 -13 -1t-18 -1t-11 -1q-102 -11 -177 -11q-84 0 -168 10q-5 0 -11.5 0.5t-10 1t-5.5 0.5q-31 0 -31 -22
q0 -17 42 -23q40 -6 65 -14q65 -23 65 -96q0 -60 -30 -181l-203 -809l-529 1094q-14 29 -23.5 36t-33.5 7q-14 0 -61 -3t-76 -3q-44 0 -81 4q-36 4 -44 4q-14 0 -23.5 -6t-9.5 -14q0 -19 47 -24q50 -5 78 -13q27 -10 46.5 -35t37.5 -74q-1 -41 -12 -77l-158 -595
q-46 -173 -92 -299q-44 -119 -72 -147q-34 -31 -110 -45q-32 -4 -43 -9.5t-11 -17.5q0 -22 37 -22q7 0 32 3q102 11 187 11q83 0 166 -10q5 0 11.5 -0.5t10 -1t5.5 -0.5q32 0 33 22q0 18 -45 25h-2q-36 5 -61 14q-36 12 -51 34.5t-15 62.5q0 58 30 178zM604 -314
q4 -21 4 -30q0 -49 -50 -105.5t-141 -107.5l19 -29q109 32 182 120q74 89 74 185q0 67 -32 104.5t-89 37.5q-41 0 -67.5 -26.5t-26.5 -65.5q0 -42 25.5 -65t72.5 -23q9 0 29 5z" />
    <glyph glyph-name="ncedilla" unicode="&#x146;" horiz-adv-x="1124" 
d="M215 0l55 174q1 4 6 19t8 26q104 334 244 516q102 133 185 133q67 0 67 -82q0 -66 -35 -159l-110 -326q-28 -88 -34 -117q-7 -34 -7 -67q0 -70 33.5 -108t95.5 -38q159 0 262 228l39 88l-33 18q-68 -144 -122.5 -212t-102.5 -68q-43 0 -43 51q0 29 18 86l136 420
q26 84 26 151q0 89 -43.5 141t-118.5 52q-95 0 -196 -104t-195 -298q37 152 37 240q0 79 -29.5 120.5t-85.5 41.5q-89 0 -161.5 -83.5t-137.5 -262.5l37 -13q66 156 116 224.5t97 68.5q41 0 41 -59q0 -61 -23 -184q-24 -126 -61 -250l-110 -367h145zM383 -314q4 -21 4 -30
q0 -49 -50 -105.5t-141 -107.5l19 -29q109 32 182 120q74 89 74 185q0 67 -32 104.5t-89 37.5q-41 0 -67.5 -26.5t-26.5 -65.5q0 -42 25.5 -65t72.5 -23q9 0 29 5z" />
    <glyph glyph-name="Ncaron" unicode="&#x147;" horiz-adv-x="1569" 
d="M270 330l201 800l533 -1118q21 -47 53 -47q30 0 47 66l211 807q43 165 91 299q42 118 73 149q30 29 103 42q3 1 7 1q32 4 42.5 9.5t10.5 17.5q0 22 -34 22q-1 0 -13 -1t-18 -1t-11 -1q-102 -11 -177 -11q-84 0 -168 10q-5 0 -11.5 0.5t-10 1t-5.5 0.5q-31 0 -31 -22
q0 -17 42 -23q40 -6 65 -14q65 -23 65 -96q0 -60 -30 -181l-203 -809l-529 1094q-14 29 -23.5 36t-33.5 7q-14 0 -61 -3t-76 -3q-44 0 -81 4q-36 4 -44 4q-14 0 -23.5 -6t-9.5 -14q0 -19 47 -24q50 -5 78 -13q27 -10 46.5 -35t37.5 -74q-1 -41 -12 -77l-158 -595
q-46 -173 -92 -299q-44 -119 -72 -147q-34 -31 -110 -45q-32 -4 -43 -9.5t-11 -17.5q0 -22 37 -22q7 0 32 3q102 11 187 11q83 0 166 -10q5 0 11.5 -0.5t10 -1t5.5 -0.5q32 0 33 22q0 18 -45 25h-2q-36 5 -61 14q-36 12 -51 34.5t-15 62.5q0 58 30 178zM719 1863l153 -348
h107l280 348h-53l-270 -243l-174 243h-43z" />
    <glyph glyph-name="ncaron" unicode="&#x148;" horiz-adv-x="1124" 
d="M215 0l55 174q1 4 6 19t8 26q104 334 244 516q102 133 185 133q67 0 67 -82q0 -66 -35 -159l-110 -326q-28 -88 -34 -117q-7 -34 -7 -67q0 -70 33.5 -108t95.5 -38q159 0 262 228l39 88l-33 18q-68 -144 -122.5 -212t-102.5 -68q-43 0 -43 51q0 29 18 86l136 420
q26 84 26 151q0 89 -43.5 141t-118.5 52q-95 0 -196 -104t-195 -298q37 152 37 240q0 79 -29.5 120.5t-85.5 41.5q-89 0 -161.5 -83.5t-137.5 -262.5l37 -13q66 156 116 224.5t97 68.5q41 0 41 -59q0 -61 -23 -184q-24 -126 -61 -250l-110 -367h145zM406 1384l153 -348h107
l280 348h-53l-270 -243l-174 243h-43z" />
    <glyph glyph-name="quoten" unicode="&#x149;" horiz-adv-x="1399" 
d="M301 1264q6 -24 6 -31q0 -48 -50 -103t-142 -108l18 -31q109 32 183 121q75 92 75 186q0 67 -32 104.5t-89 37.5q-40 0 -67 -27.5t-27 -66.5q0 -86 98 -86q16 0 27 4zM489 0l55 174q1 4 6 19t8 26q104 334 244 516q102 133 185 133q67 0 67 -82q0 -66 -35 -159l-110 -326
q-28 -88 -34 -117q-7 -34 -7 -67q0 -70 33.5 -108t95.5 -38q159 0 262 228l39 88l-33 18q-68 -144 -122.5 -212t-102.5 -68q-43 0 -43 51q0 29 18 86l136 420q26 84 26 151q0 89 -43.5 141t-118.5 52q-95 0 -196 -104t-195 -298q37 152 37 240q0 79 -29.5 120.5t-85.5 41.5
q-89 0 -161.5 -83.5t-137.5 -262.5l37 -13q66 156 116 224.5t97 68.5q41 0 41 -59q0 -61 -23 -184q-24 -126 -61 -250l-110 -367h145z" />
    <glyph glyph-name="Eng" unicode="&#x14a;" horiz-adv-x="1569" 
d="M270 330l201 800l555 -1157l-16 -57q-66 -231 -158 -337q-92 -105 -227 -105q-84 0 -84 51q0 5 1 23t1 22q0 45 -22 69.5t-62 24.5q-39 0 -62.5 -24.5t-23.5 -65.5q0 -64 66.5 -103.5t174.5 -39.5q186 0 296 143q110 142 216 549l189 715q49 186 91 300q44 118 73 148
q30 30 97 41q66 11 66 29q0 9 -7 12.5t-27 3.5q-2 0 -6.5 -0.5t-12.5 -1t-15 -0.5q-104 -8 -185 -8q-73 0 -167 8q-5 0 -10 0.5t-8.5 1t-6 0.5h-3.5q-31 0 -31 -18q0 -16 41 -24q42 -6 66 -15q35 -11 50 -32.5t15 -61.5q0 -51 -30 -181l-203 -809l-529 1094
q-14 30 -24.5 38.5t-32.5 8.5q-10 0 -62 -5t-75 -5q-34 0 -81 5q-11 1 -22.5 2.5t-16 2t-5.5 0.5q-14 0 -23.5 -6.5t-9.5 -15.5q0 -18 47 -23q46 -3 78 -12q50 -22 84 -111q-1 -41 -12 -77l-158 -595q-104 -391 -164 -446q0 -33 -82 -43t-82 -29q0 -22 35 -22q6 0 35 3
q102 11 186 11q75 0 165 -11q23 -3 28 -3q33 0 33 24q-1 18 -47 25q-36 5 -62 14q-35 13 -50 35t-15 62q0 51 30 178z" />
    <glyph glyph-name="eng" unicode="&#x14b;" horiz-adv-x="1022" 
d="M215 0l55 174q1 4 6 19t8 26q104 334 244 516q101 129 185 129q67 0 67 -78q0 -42 -32 -159l-232 -793q-63 -211 -110 -281q-48 -75 -117 -75q-60 0 -73 61q-2 11 -3 15q-17 53 -59 53q-26 0 -42 -18t-16 -48q0 -47 45 -75.5t121 -28.5q168 0 276 149q107 147 214 537
l125 459q26 89 26 151q0 88 -43.5 139.5t-118.5 51.5q-95 0 -196 -103t-195 -297q37 152 37 240q0 160 -115 160q-89 0 -161.5 -83t-137.5 -261l37 -13q68 161 117 228q49 69 96 69q41 0 41 -63q0 -62 -23 -185q-23 -124 -61 -249l-110 -367h145z" />
    <glyph glyph-name="Omacron" unicode="&#x14c;" horiz-adv-x="1460" 
d="M283 401q0 179 63 379t168 350q162 234 354 234q141 0 223 -99q83 -100 83 -268q0 -139 -40 -295q-40 -159 -112 -305q-189 -389 -451 -389q-137 0 -212.5 103t-75.5 290zM578 -33q136 0 267 57q132 57 232 160q138 141 213 320q76 177 76 364q0 249 -132 393t-360 144
q-138 0 -265 -54t-226 -155q-297 -297 -297 -700q0 -251 130 -390t362 -139zM682 1612h512l23 106h-512z" />
    <glyph glyph-name="omacron" unicode="&#x14d;" horiz-adv-x="895" 
d="M295 -29q88 0 169.5 44t143.5 124q158 208 158 453q0 150 -72 242q-71 92 -188 92q-87 0 -174.5 -54t-159.5 -151q-149 -207 -149 -447q0 -143 71.5 -223t200.5 -80zM158 190q0 90 32 224q31 131 84 250q100 219 226 219q131 0 131 -201q0 -107 -34 -244
q-35 -140 -91 -260q-38 -81 -90.5 -124.5t-112.5 -43.5q-68 0 -106.5 48t-38.5 132zM326 1133h512l23 106h-512z" />
    <glyph glyph-name="Obreve" unicode="&#x14e;" horiz-adv-x="1460" 
d="M283 401q0 179 63 379t168 350q162 234 354 234q141 0 223 -99q83 -100 83 -268q0 -139 -40 -295q-40 -159 -112 -305q-189 -389 -451 -389q-137 0 -212.5 103t-75.5 290zM578 -33q136 0 267 57q132 57 232 160q138 141 213 320q76 177 76 364q0 249 -132 393t-360 144
q-138 0 -265 -54t-226 -155q-297 -297 -297 -700q0 -251 130 -390t362 -139zM699 1822q3 -138 54 -203t156 -65q104 0 191 65.5t166 202.5h-49q-125 -159 -303 -159q-76 0 -116.5 38.5t-51.5 120.5h-47z" />
    <glyph glyph-name="obreve" unicode="&#x14f;" horiz-adv-x="895" 
d="M295 -29q88 0 169.5 44t143.5 124q158 208 158 453q0 150 -72 242q-71 92 -188 92q-87 0 -174.5 -54t-159.5 -151q-149 -207 -149 -447q0 -143 71.5 -223t200.5 -80zM158 190q0 90 32 224q31 131 84 250q100 219 226 219q131 0 131 -201q0 -107 -34 -244
q-35 -140 -91 -260q-38 -81 -90.5 -124.5t-112.5 -43.5q-68 0 -106.5 48t-38.5 132zM343 1343q3 -138 54 -203t156 -65q104 0 191 65.5t166 202.5h-49q-125 -159 -303 -159q-76 0 -116.5 38.5t-51.5 120.5h-47z" />
    <glyph glyph-name="Odblacute" unicode="&#x150;" horiz-adv-x="1460" 
d="M283 401q0 179 63 379t168 350q162 234 354 234q141 0 223 -99q83 -100 83 -268q0 -139 -40 -295q-40 -159 -112 -305q-189 -389 -451 -389q-137 0 -212.5 103t-75.5 290zM578 -33q136 0 267 57q132 57 232 160q138 141 213 320q76 177 76 364q0 249 -132 393t-360 144
q-138 0 -265 -54t-226 -155q-297 -297 -297 -700q0 -251 130 -390t362 -139zM1155 1804l-164 -289h52l186 230q43 53 43 75q0 23 -14 38.5t-35 15.5q-29 0 -68 -70zM907 1800l-135 -285h49l166 230q37 48 37 80q0 18 -14.5 33.5t-32.5 15.5q-19 0 -35.5 -17t-34.5 -57z" />
    <glyph glyph-name="odblacute" unicode="&#x151;" horiz-adv-x="895" 
d="M295 -29q88 0 169.5 44t143.5 124q158 208 158 453q0 150 -72 242q-71 92 -188 92q-87 0 -174.5 -54t-159.5 -151q-149 -207 -149 -447q0 -143 71.5 -223t200.5 -80zM158 190q0 90 32 224q31 131 84 250q100 219 226 219q131 0 131 -201q0 -107 -34 -244
q-35 -140 -91 -260q-38 -81 -90.5 -124.5t-112.5 -43.5q-68 0 -106.5 48t-38.5 132zM799 1325l-164 -289h52l186 230q43 53 43 75q0 23 -14 38.5t-35 15.5q-29 0 -68 -70zM551 1321l-135 -285h49l166 230q37 48 37 80q0 18 -14.5 33.5t-32.5 15.5q-19 0 -35.5 -17t-34.5 -57
z" />
    <glyph glyph-name="OE" unicode="&#x152;" horiz-adv-x="2144" 
d="M1180 252l120 459h130q112 0 149 -39q39 -39 39 -152q0 -6 -1 -23.5t-1 -21.5q0 -20 22 -20q20 0 37 117q11 80 21 135q14 77 36 162q23 87 23 94q0 28 -14 28q-15 0 -38 -57q-22 -57 -46 -90q-35 -46 -84 -66q-49 -18 -156 -18h-104l104 364q19 66 35 117q5 15 13.5 42
t9.5 30h143q201 0 261 -28q62 -27 99 -97q12 -23 28 -78q17 -53 36 -53q18 0 18 41l-1 9q-1 9 -4 31t-6 46q-11 90 -11 166v18h18h4q0 -2 -149 -5t-350 -3q-262 0 -547 14q-14 0 -29.5 0.5t-23.5 1t-11 0.5q-172 0 -325.5 -69.5t-276.5 -202.5q-117 -128 -182 -286
q-64 -156 -64 -318q0 -249 140.5 -379.5t408.5 -130.5q37 0 104 3q67 1 93 3q137 10 280 10q44 0 312 -5q270 -5 415 -5q25 102 57 214q32 111 32 118q-2 24 -19 24q-15 0 -47 -66q-33 -68 -76 -116q-63 -69 -144 -97t-272 -28q-135 0 -178 22t-43 78q0 62 15 107zM1008 330
q-45 -167 -116 -233q-70 -66 -200 -66q-180 0 -277.5 110t-97.5 314q0 187 69 368q71 184 194 322q169 190 419 190q104 0 163 -44t59 -122q0 -62 -15 -117z" />
    <glyph glyph-name="oe" unicode="&#x153;" horiz-adv-x="1343" 
d="M573 147q26 -92 75.5 -134t133.5 -42q210 0 367 275l-33 24q-68 -115 -150 -179q-80 -64 -153 -64q-104 0 -104 137q0 68 30 186q502 184 502 430q0 69 -41.5 107.5t-116.5 38.5q-66 0 -137 -37q-70 -36 -176 -125q-94 162 -246 162q-86 0 -177 -57q-90 -54 -167 -156
q-141 -192 -141 -404q0 -154 73 -246q74 -92 193 -92q155 0 268 176zM530 883q67 0 101.5 -42.5t34.5 -123.5q0 -95 -28 -220q-27 -128 -73 -241q-96 -244 -241 -244q-140 0 -140 189q0 114 31 242q32 131 84 239q100 201 231 201zM756 397q55 233 134 359.5t169 126.5
q38 0 60 -24t22 -64q0 -100 -109 -215q-110 -116 -276 -183z" />
    <glyph glyph-name="Racute" unicode="&#x154;" horiz-adv-x="1460" 
d="M510 729l133 485q18 65 55 89q38 24 136 24q136 0 212 -61.5t76 -171.5q0 -166 -133 -266q-132 -99 -356 -99h-123zM367 220l127 458q78 2 127 2q149 0 205 -49q57 -49 57 -174q0 -7 -2 -47l-9 -144q0 -4 -1 -18t-1 -19q0 -128 56 -187.5t176 -59.5q93 0 169 44
q75 45 75 87q0 14 -11 14q-4 0 -53 -34q-47 -34 -102 -34t-81.5 38.5t-29.5 122.5l-6 151q-6 144 -73 217q-66 74 -222 114q272 23 410.5 122t138.5 270q0 276 -434 276q-92 0 -193 -4q-100 -4 -149 -4q-66 0 -217 14q-17 0 -27 -6.5t-10 -15.5q0 -10 9.5 -14.5t41.5 -6.5
q11 0 21 -2q49 -5 70.5 -23t21.5 -55q0 -31 -25 -120l-254 -922q-22 -84 -44 -113q-20 -30 -57 -43q-25 -9 -69 -14q-2 0 -3 -1q-46 -6 -46 -26q0 -22 41 -22q5 0 28 3q99 11 183 11q127 0 252 -12q4 0 8.5 -0.5t7 -1t5 -0.5h3.5q9 0 17 7t8 13q0 20 -42 24q-31 4 -67 13
q-49 13 -49 72q0 34 19 99zM878 1515l271 222l1 1q60 49 60 80q0 22 -14 38t-33 16q-32 0 -80 -56l-262 -301h57z" />
    <glyph glyph-name="racute" unicode="&#x155;" horiz-adv-x="782" 
d="M221 0l123 375q77 231 147 357t121 126q18 0 23.5 -5t5.5 -22q0 -1 -1 -8t-1 -8q0 -65 66 -65q29 0 49 23t20 56q0 45 -26 71t-70 26q-87 0 -164 -92q-76 -91 -160 -299q25 129 25 208q0 89 -31.5 136t-91.5 47q-72 0 -136.5 -76t-135.5 -244l36 -12q120 268 195 268
q21 0 33 -21.5t12 -60.5q0 -140 -45 -327q-43 -187 -141 -453h147zM438 1036l271 222l1 1q60 49 60 80q0 22 -14 38t-33 16q-32 0 -80 -56l-262 -301h57z" />
    <glyph glyph-name="Rcedilla" unicode="&#x156;" horiz-adv-x="1460" 
d="M510 729l133 485q18 65 55 89q38 24 136 24q136 0 212 -61.5t76 -171.5q0 -166 -133 -266q-132 -99 -356 -99h-123zM367 220l127 458q78 2 127 2q149 0 205 -49q57 -49 57 -174q0 -7 -2 -47l-9 -144q0 -4 -1 -18t-1 -19q0 -128 56 -187.5t176 -59.5q93 0 169 44
q75 45 75 87q0 14 -11 14q-4 0 -53 -34q-47 -34 -102 -34t-81.5 38.5t-29.5 122.5l-6 151q-6 144 -73 217q-66 74 -222 114q272 23 410.5 122t138.5 270q0 276 -434 276q-92 0 -193 -4q-100 -4 -149 -4q-66 0 -217 14q-17 0 -27 -6.5t-10 -15.5q0 -10 9.5 -14.5t41.5 -6.5
q11 0 21 -2q49 -5 70.5 -23t21.5 -55q0 -31 -25 -120l-254 -922q-22 -84 -44 -113q-20 -30 -57 -43q-25 -9 -69 -14q-2 0 -3 -1q-46 -6 -46 -26q0 -22 41 -22q5 0 28 3q99 11 183 11q127 0 252 -12q4 0 8.5 -0.5t7 -1t5 -0.5h3.5q9 0 17 7t8 13q0 20 -42 24q-31 4 -67 13
q-49 13 -49 72q0 34 19 99zM551 -314q4 -21 4 -30q0 -49 -50 -105.5t-141 -107.5l19 -29q109 32 182 120q74 89 74 185q0 67 -32 104.5t-89 37.5q-41 0 -67.5 -26.5t-26.5 -65.5q0 -42 25.5 -65t72.5 -23q9 0 29 5z" />
    <glyph glyph-name="rcedilla" unicode="&#x157;" horiz-adv-x="782" 
d="M221 0l123 375q77 231 147 357t121 126q18 0 23.5 -5t5.5 -22q0 -1 -1 -8t-1 -8q0 -65 66 -65q29 0 49 23t20 56q0 45 -26 71t-70 26q-87 0 -164 -92q-76 -91 -160 -299q25 129 25 208q0 89 -31.5 136t-91.5 47q-72 0 -136.5 -76t-135.5 -244l36 -12q120 268 195 268
q21 0 33 -21.5t12 -60.5q0 -140 -45 -327q-43 -187 -141 -453h147zM152 -314q4 -21 4 -30q0 -49 -50 -105.5t-141 -107.5l19 -29q109 32 182 120q74 89 74 185q0 67 -32 104.5t-89 37.5q-41 0 -67.5 -26.5t-26.5 -65.5q0 -42 25.5 -65t72.5 -23q9 0 29 5z" />
    <glyph glyph-name="Rcaron" unicode="&#x158;" horiz-adv-x="1460" 
d="M510 729l133 485q18 65 55 89q38 24 136 24q136 0 212 -61.5t76 -171.5q0 -166 -133 -266q-132 -99 -356 -99h-123zM367 220l127 458q78 2 127 2q149 0 205 -49q57 -49 57 -174q0 -7 -2 -47l-9 -144q0 -4 -1 -18t-1 -19q0 -128 56 -187.5t176 -59.5q93 0 169 44
q75 45 75 87q0 14 -11 14q-4 0 -53 -34q-47 -34 -102 -34t-81.5 38.5t-29.5 122.5l-6 151q-6 144 -73 217q-66 74 -222 114q272 23 410.5 122t138.5 270q0 276 -434 276q-92 0 -193 -4q-100 -4 -149 -4q-66 0 -217 14q-17 0 -27 -6.5t-10 -15.5q0 -10 9.5 -14.5t41.5 -6.5
q11 0 21 -2q49 -5 70.5 -23t21.5 -55q0 -31 -25 -120l-254 -922q-22 -84 -44 -113q-20 -30 -57 -43q-25 -9 -69 -14q-2 0 -3 -1q-46 -6 -46 -26q0 -22 41 -22q5 0 28 3q99 11 183 11q127 0 252 -12q4 0 8.5 -0.5t7 -1t5 -0.5h3.5q9 0 17 7t8 13q0 20 -42 24q-31 4 -67 13
q-49 13 -49 72q0 34 19 99zM737 1863l153 -348h107l280 348h-53l-270 -243l-174 243h-43z" />
    <glyph glyph-name="rcaron" unicode="&#x159;" horiz-adv-x="782" 
d="M221 0l123 375q77 231 147 357t121 126q18 0 23.5 -5t5.5 -22q0 -1 -1 -8t-1 -8q0 -65 66 -65q29 0 49 23t20 56q0 45 -26 71t-70 26q-87 0 -164 -92q-76 -91 -160 -299q25 129 25 208q0 89 -31.5 136t-91.5 47q-72 0 -136.5 -76t-135.5 -244l36 -12q120 268 195 268
q21 0 33 -21.5t12 -60.5q0 -140 -45 -327q-43 -187 -141 -453h147zM297 1384l153 -348h107l280 348h-53l-270 -243l-174 243h-43z" />
    <glyph glyph-name="Sacute" unicode="&#x15a;" horiz-adv-x="1124" 
d="M74 37q15 0 32 26q16 27 29 27q7 0 48 -26q45 -28 75 -44q102 -55 236 -55q200 0 309 108q110 110 110 304q0 104 -62 204t-271 285q-162 144 -162 273q0 95 65 157t166 62q125 0 200 -81t75 -218v-23q0 -39 20 -41q21 0 28 67q8 57 15 95q11 59 27 114q16 54 16 58
q0 10 -6 16.5t-16 6.5q-12 0 -32 -24q-20 -23 -34 -23q-5 0 -104 49t-203 49q-157 0 -264 -99q-105 -98 -105 -243q0 -177 309 -472q6 -6 14.5 -14t10.5 -10q148 -142 148 -291q0 -117 -74 -191q-73 -73 -191 -73q-120 0 -210 75q-91 77 -113 195q-7 35 -11 76q-7 66 -26 66
q-25 0 -31 -82q-4 -68 -12 -114q-6 -42 -18 -100q-11 -60 -11 -69q0 -8 6.5 -14t16.5 -6zM711 1515l271 222l1 1q60 49 60 80q0 22 -14 38t-33 16q-32 0 -80 -56l-262 -301h57z" />
    <glyph glyph-name="sacute" unicode="&#x15b;" horiz-adv-x="676" 
d="M168 -29q141 0 227 76q88 76 88 195q0 63 -30 129t-111 168q-2 3 -12.5 16t-18.5 23q-92 118 -92 174q0 59 42.5 97t109.5 38q39 0 64.5 -14.5t25.5 -36.5q0 -4 -2 -19t-2 -20q0 -24 14.5 -39t38.5 -15q57 0 57 62q0 49 -53 85t-133 36q-113 0 -192 -71q-78 -71 -78 -173
q0 -95 125 -255q5 -6 11.5 -14.5t8.5 -11.5q71 -89 92 -136q21 -46 21 -97q0 -72 -52 -115t-141 -43q-54 0 -89.5 16t-35.5 40q0 9 3 34.5t3 30.5q0 32 -15.5 52t-41.5 20t-44.5 -23t-18.5 -55q0 -69 63 -111.5t168 -42.5zM385 1036l271 222l1 1q60 49 60 80q0 22 -14 38
t-33 16q-32 0 -80 -56l-262 -301h57z" />
    <glyph glyph-name="Scircumflex" unicode="&#x15c;" horiz-adv-x="1124" 
d="M74 37q15 0 32 26q16 27 29 27q7 0 48 -26q45 -28 75 -44q102 -55 236 -55q200 0 309 108q110 110 110 304q0 104 -62 204t-271 285q-162 144 -162 273q0 95 65 157t166 62q125 0 200 -81t75 -218v-23q0 -39 20 -41q21 0 28 67q8 57 15 95q11 59 27 114q16 54 16 58
q0 10 -6 16.5t-16 6.5q-12 0 -32 -24q-20 -23 -34 -23q-5 0 -104 49t-203 49q-157 0 -264 -99q-105 -98 -105 -243q0 -177 309 -472q6 -6 14.5 -14t10.5 -10q148 -142 148 -291q0 -117 -74 -191q-73 -73 -191 -73q-120 0 -210 75q-91 77 -113 195q-7 35 -11 76q-7 66 -26 66
q-25 0 -31 -82q-4 -68 -12 -114q-6 -42 -18 -100q-11 -60 -11 -69q0 -8 6.5 -14t16.5 -6zM1049 1515l-156 348h-104l-283 -348h54l270 244l174 -244h45z" />
    <glyph glyph-name="scircumflex" unicode="&#x15d;" horiz-adv-x="676" 
d="M168 -29q141 0 227 76q88 76 88 195q0 63 -30 129t-111 168q-2 3 -12.5 16t-18.5 23q-92 118 -92 174q0 59 42.5 97t109.5 38q39 0 64.5 -14.5t25.5 -36.5q0 -4 -2 -19t-2 -20q0 -24 14.5 -39t38.5 -15q57 0 57 62q0 49 -53 85t-133 36q-113 0 -192 -71q-78 -71 -78 -173
q0 -95 125 -255q5 -6 11.5 -14.5t8.5 -11.5q71 -89 92 -136q21 -46 21 -97q0 -72 -52 -115t-141 -43q-54 0 -89.5 16t-35.5 40q0 9 3 34.5t3 30.5q0 32 -15.5 52t-41.5 20t-44.5 -23t-18.5 -55q0 -69 63 -111.5t168 -42.5zM723 1036l-156 348h-104l-283 -348h54l270 244
l174 -244h45z" />
    <glyph glyph-name="Scedilla" unicode="&#x15e;" horiz-adv-x="1124" 
d="M74 37q15 0 32 26q16 27 29 27q7 0 48 -26q45 -28 75 -44q102 -55 236 -55q200 0 309 108q110 110 110 304q0 104 -62 204t-271 285q-162 144 -162 273q0 95 65 157t166 62q125 0 200 -81t75 -218v-23q0 -39 20 -41q21 0 28 67q8 57 15 95q11 59 27 114q16 54 16 58
q0 10 -6 16.5t-16 6.5q-12 0 -32 -24q-20 -23 -34 -23q-5 0 -104 49t-203 49q-157 0 -264 -99q-105 -98 -105 -243q0 -177 309 -472q6 -6 14.5 -14t10.5 -10q148 -142 148 -291q0 -117 -74 -191q-73 -73 -191 -73q-120 0 -210 75q-91 77 -113 195q-7 35 -11 76q-7 66 -26 66
q-25 0 -31 -82q-4 -68 -12 -114q-6 -42 -18 -100q-11 -60 -11 -69q0 -8 6.5 -14t16.5 -6zM110 -371q177 -69 273 -69q94 0 152 46q59 45 59 118t-46.5 116t-125.5 43q-16 0 -46 -3q-3 -1 -6 -1l62 121h-55l-97 -190q45 8 82 8q60 0 91.5 -24t31.5 -68q0 -101 -127 -101
q-83 0 -221 68z" />
    <glyph glyph-name="scedilla" unicode="&#x15f;" horiz-adv-x="676" 
d="M168 -29q141 0 227 76q88 76 88 195q0 63 -30 129t-111 168q-2 3 -12.5 16t-18.5 23q-92 118 -92 174q0 59 42.5 97t109.5 38q39 0 64.5 -14.5t25.5 -36.5q0 -4 -2 -19t-2 -20q0 -24 14.5 -39t38.5 -15q57 0 57 62q0 49 -53 85t-133 36q-113 0 -192 -71q-78 -71 -78 -173
q0 -95 125 -255q5 -6 11.5 -14.5t8.5 -11.5q71 -89 92 -136q21 -46 21 -97q0 -72 -52 -115t-141 -43q-54 0 -89.5 16t-35.5 40q0 9 3 34.5t3 30.5q0 32 -15.5 52t-41.5 20t-44.5 -23t-18.5 -55q0 -69 63 -111.5t168 -42.5zM-115 -371q177 -69 273 -69q94 0 152 46
q59 45 59 118t-46.5 116t-125.5 43q-16 0 -46 -3q-3 -1 -6 -1l62 121h-55l-97 -190q45 8 82 8q60 0 91.5 -24t31.5 -68q0 -101 -127 -101q-83 0 -221 68z" />
    <glyph glyph-name="Scaron" unicode="&#x160;" horiz-adv-x="1124" 
d="M74 37q15 0 32 26q16 27 29 27q7 0 48 -26q45 -28 75 -44q102 -55 236 -55q200 0 309 108q110 110 110 304q0 104 -62 204t-271 285q-162 144 -162 273q0 95 65 157t166 62q125 0 200 -81t75 -218v-23q0 -39 20 -41q21 0 28 67q8 57 15 95q11 59 27 114q16 54 16 58
q0 10 -6 16.5t-16 6.5q-12 0 -32 -24q-20 -23 -34 -23q-5 0 -104 49t-203 49q-157 0 -264 -99q-105 -98 -105 -243q0 -177 309 -472q6 -6 14.5 -14t10.5 -10q148 -142 148 -291q0 -117 -74 -191q-73 -73 -191 -73q-120 0 -210 75q-91 77 -113 195q-7 35 -11 76q-7 66 -26 66
q-25 0 -31 -82q-4 -68 -12 -114q-6 -42 -18 -100q-11 -60 -11 -69q0 -8 6.5 -14t16.5 -6zM570 1863l153 -348h107l280 348h-53l-270 -243l-174 243h-43z" />
    <glyph glyph-name="scaron" unicode="&#x161;" horiz-adv-x="676" 
d="M168 -29q141 0 227 76q88 76 88 195q0 63 -30 129t-111 168q-2 3 -12.5 16t-18.5 23q-92 118 -92 174q0 59 42.5 97t109.5 38q39 0 64.5 -14.5t25.5 -36.5q0 -4 -2 -19t-2 -20q0 -24 14.5 -39t38.5 -15q57 0 57 62q0 49 -53 85t-133 36q-113 0 -192 -71q-78 -71 -78 -173
q0 -95 125 -255q5 -6 11.5 -14.5t8.5 -11.5q71 -89 92 -136q21 -46 21 -97q0 -72 -52 -115t-141 -43q-54 0 -89.5 16t-35.5 40q0 9 3 34.5t3 30.5q0 32 -15.5 52t-41.5 20t-44.5 -23t-18.5 -55q0 -69 63 -111.5t168 -42.5zM244 1384l153 -348h107l280 348h-53l-270 -243
l-174 243h-43z" />
    <glyph glyph-name="Tcedilla" unicode="&#x162;" horiz-adv-x="1341" 
d="M616 221l299 1104h99q104 0 180.5 -31.5t112.5 -89.5q23 -39 32 -105q10 -67 33 -67q17 0 19 25l-7 307q-43 4 -100 4h-1022q-32 0 -69 -4l-76 -278q-2 -6 -2 -11q0 -10 5 -17t11 -7q19 0 42 57t48 86q112 131 354 131h150l-305 -1114q-24 -86 -45 -115q-21 -27 -62 -41
q-31 -10 -77 -14h-5q-2 0 -4 -1q-49 -6 -49 -26q0 -22 47 -22q2 0 5.5 0.5t11 1t13.5 0.5q107 12 206 12q132 0 263 -12q5 0 10 -0.5t8.5 -1t6 -0.5h3.5q12 0 23 6.5t11 13.5q0 21 -52 25q-48 5 -81 12q-55 12 -55 74q0 33 18 98zM492 -314q4 -21 4 -30q0 -49 -50 -105.5
t-141 -107.5l19 -29q109 32 182 120q74 89 74 185q0 67 -32 104.5t-89 37.5q-41 0 -67.5 -26.5t-26.5 -65.5q0 -42 25.5 -65t72.5 -23q9 0 29 5z" />
    <glyph glyph-name="tcedilla" unicode="&#x163;" horiz-adv-x="559" 
d="M207 856l-172 -590q-29 -94 -29 -151q0 -66 36.5 -103t102.5 -37q96 0 165 74q68 72 136 254l-38 14q-60 -144 -109 -211q-47 -63 -94 -63q-55 0 -55 63q0 43 36 177l162 573h170v45h-158l68 252q4 20 4 35q0 19 -15.5 26t-60.5 7q-21 0 -33.5 -12.5t-21.5 -41.5
l-80 -266h-170v-45h156zM125 -314q4 -21 4 -30q0 -49 -50 -105.5t-141 -107.5l19 -29q109 32 182 120q74 89 74 185q0 67 -32 104.5t-89 37.5q-41 0 -67.5 -26.5t-26.5 -65.5q0 -42 25.5 -65t72.5 -23q9 0 29 5z" />
    <glyph glyph-name="Tcaron" unicode="&#x164;" horiz-adv-x="1341" 
d="M616 221l299 1104h99q104 0 180.5 -31.5t112.5 -89.5q23 -39 32 -105q10 -67 33 -67q17 0 19 25l-7 307q-43 4 -100 4h-1022q-32 0 -69 -4l-76 -278q-2 -6 -2 -11q0 -10 5 -17t11 -7q19 0 42 57t48 86q112 131 354 131h150l-305 -1114q-24 -86 -45 -115q-21 -27 -62 -41
q-31 -10 -77 -14h-5q-2 0 -4 -1q-49 -6 -49 -26q0 -22 47 -22q2 0 5.5 0.5t11 1t13.5 0.5q107 12 206 12q132 0 263 -12q5 0 10 -0.5t8.5 -1t6 -0.5h3.5q12 0 23 6.5t11 13.5q0 21 -52 25q-48 5 -81 12q-55 12 -55 74q0 33 18 98zM678 1863l153 -348h107l280 348h-53
l-270 -243l-174 243h-43z" />
    <glyph glyph-name="tcaron" unicode="&#x165;" horiz-adv-x="834" 
d="M207 856l-172 -590q-29 -94 -29 -151q0 -66 36.5 -103t102.5 -37q96 0 165 74q68 72 136 254l-38 14q-60 -144 -109 -211q-47 -63 -94 -63q-55 0 -55 63q0 43 36 177l162 573h170v45h-158l68 252q4 20 4 35q0 19 -15.5 26t-60.5 7q-21 0 -33.5 -12.5t-21.5 -41.5
l-80 -266h-170v-45h156zM860 1264q6 -24 6 -31q0 -48 -50 -103t-142 -108l18 -31q109 32 183 121q75 92 75 186q0 67 -32 104.5t-89 37.5q-40 0 -67 -27.5t-27 -66.5q0 -86 98 -86q16 0 27 4z" />
    <glyph glyph-name="Tbar" unicode="&#x166;" horiz-adv-x="1341" 
d="M616 221l123 455h318l18 51h-321l161 598h99q104 0 180.5 -31.5t112.5 -89.5q21 -34 32 -104q11 -68 31 -68q21 0 21 25l-7 307q-25 4 -100 4h-1022q-26 0 -69 -4l-76 -278q-2 -6 -2 -11q0 -10 5 -17t11 -7q17 0 41 57q25 58 49 86q108 131 354 131h150l-164 -598h-319
l-17 -51h322l-127 -465q-22 -85 -44 -115q-20 -28 -63 -43q-30 -10 -82 -14q-53 -5 -53 -25q0 -22 47 -22q2 0 5.5 0.5t11 1t13.5 0.5q107 12 206 12q135 0 267 -12q5 0 10 -0.5t8.5 -1t6 -0.5h3.5q11 0 20.5 6.5t9.5 13.5q0 19 -49 25q-53 6 -83 16q-56 8 -56 70
q0 21 18 98z" />
    <glyph glyph-name="tbar" unicode="&#x167;" horiz-adv-x="559" 
d="M207 856l-57 -197h-181l-12 -45h180l-102 -348q-29 -94 -29 -151q0 -66 37 -103t102 -37q96 0 163 73q68 74 138 255l-38 14q-60 -144 -109 -211q-47 -63 -94 -63q-55 0 -55 63q0 43 36 177l95 331h225l12 45h-225l55 197h170v45h-158l68 252q4 20 4 35q0 18 -16.5 25.5
t-61.5 7.5q-20 0 -31.5 -11.5t-21.5 -42.5l-80 -266h-170v-45h156z" />
    <glyph glyph-name="Utilde" unicode="&#x168;" horiz-adv-x="1577" 
d="M233 535q-32 -117 -32 -216q0 -170 113.5 -261t326.5 -91q132 0 229.5 38.5t173.5 119.5q55 59 103 175q51 122 110 333l144 516q36 120 96 151q26 14 67 26q5 1 11 3q41 6 41 25q0 9 -10 15.5t-25 6.5q-1 0 -4.5 -0.5t-9.5 -1t-11 -0.5q-88 -8 -155 -8q-87 0 -156 8
q-7 0 -21 1l-14 1q-36 0 -36 -24q0 -10 8.5 -14.5t40.5 -8.5q3 0 6 -1q7 -1 19.5 -3.5l17.5 -3.5q65 -13 65 -88q0 -78 -47 -286q-43 -192 -127 -460q-79 -254 -184 -356q-103 -100 -279 -100q-152 0 -233.5 71.5t-81.5 204.5q0 78 29 182l176 633q27 94 50 137t54 56
q31 14 72 14q2 0 3 1q46 6 46 26t-35 20q-9 0 -20 -1q-98 -9 -197 -9q-129 0 -250 9q-11 1 -20 1q-18 0 -29.5 -6.5t-11.5 -15.5q0 -16 44 -21q45 -5 66 -12q32 -11 44 -28.5t12 -53.5q0 -48 -33 -174zM1327 1782h-39q-24 -86 -102 -86q-26 0 -53 8l-138 35q-46 12 -77 12
q-66 0 -106 -42.5t-58 -131.5h41q12 42 35 61t61 19q24 0 76 -13l131 -35q32 -8 63 -8q62 0 102.5 44t63.5 137z" />
    <glyph glyph-name="utilde" unicode="&#x169;" horiz-adv-x="1124" 
d="M797 901l-58 -181q-1 -3 -5.5 -18.5t-8.5 -27.5q-102 -335 -242 -514q-102 -133 -184 -133q-32 0 -50 22t-18 62q0 51 35 159l111 330q26 78 33 113q8 40 8 71q0 70 -33.5 108t-95.5 38q-159 0 -262 -228l-39 -88l32 -18q69 146 124 214.5t102 68.5q20 0 31.5 -14.5
t11.5 -39.5q0 -27 -19 -84l-135 -426q-29 -92 -29 -153q0 -88 44 -139.5t118 -51.5q95 0 196 104t195 298q-34 -140 -34 -242q0 -160 112 -160q90 0 162.5 83.5t136.5 260.5l-35 15q-66 -158 -115.5 -226.5t-97.5 -68.5q-40 0 -40 61q0 67 22 183q21 108 61 249l111 373
h-145zM940 1303h-39q-24 -86 -102 -86q-26 0 -53 8l-138 35q-46 12 -77 12q-66 0 -106 -42.5t-58 -131.5h41q12 42 35 61t61 19q24 0 76 -13l131 -35q32 -8 63 -8q62 0 102.5 44t63.5 137z" />
    <glyph glyph-name="Umacron" unicode="&#x16a;" horiz-adv-x="1577" 
d="M233 535q-32 -117 -32 -216q0 -170 113.5 -261t326.5 -91q132 0 229.5 38.5t173.5 119.5q55 59 103 175q51 122 110 333l144 516q36 120 96 151q26 14 67 26q5 1 11 3q41 6 41 25q0 9 -10 15.5t-25 6.5q-1 0 -4.5 -0.5t-9.5 -1t-11 -0.5q-88 -8 -155 -8q-87 0 -156 8
q-7 0 -21 1l-14 1q-36 0 -36 -24q0 -10 8.5 -14.5t40.5 -8.5q3 0 6 -1q7 -1 19.5 -3.5l17.5 -3.5q65 -13 65 -88q0 -78 -47 -286q-43 -192 -127 -460q-79 -254 -184 -356q-103 -100 -279 -100q-152 0 -233.5 71.5t-81.5 204.5q0 78 29 182l176 633q27 94 50 137t54 56
q31 14 72 14q2 0 3 1q46 6 46 26t-35 20q-9 0 -20 -1q-98 -9 -197 -9q-129 0 -250 9q-11 1 -20 1q-18 0 -29.5 -6.5t-11.5 -15.5q0 -16 44 -21q45 -5 66 -12q32 -11 44 -28.5t12 -53.5q0 -48 -33 -174zM770 1612h512l23 106h-512z" />
    <glyph glyph-name="umacron" unicode="&#x16b;" horiz-adv-x="1124" 
d="M797 901l-58 -181q-1 -3 -5.5 -18.5t-8.5 -27.5q-102 -335 -242 -514q-102 -133 -184 -133q-32 0 -50 22t-18 62q0 51 35 159l111 330q26 78 33 113q8 40 8 71q0 70 -33.5 108t-95.5 38q-159 0 -262 -228l-39 -88l32 -18q69 146 124 214.5t102 68.5q20 0 31.5 -14.5
t11.5 -39.5q0 -27 -19 -84l-135 -426q-29 -92 -29 -153q0 -88 44 -139.5t118 -51.5q95 0 196 104t195 298q-34 -140 -34 -242q0 -160 112 -160q90 0 162.5 83.5t136.5 260.5l-35 15q-66 -158 -115.5 -226.5t-97.5 -68.5q-40 0 -40 61q0 67 22 183q21 108 61 249l111 373
h-145zM383 1133h512l23 106h-512z" />
    <glyph glyph-name="Ubreve" unicode="&#x16c;" horiz-adv-x="1577" 
d="M233 535q-32 -117 -32 -216q0 -170 113.5 -261t326.5 -91q132 0 229.5 38.5t173.5 119.5q55 59 103 175q51 122 110 333l144 516q36 120 96 151q26 14 67 26q5 1 11 3q41 6 41 25q0 9 -10 15.5t-25 6.5q-1 0 -4.5 -0.5t-9.5 -1t-11 -0.5q-88 -8 -155 -8q-87 0 -156 8
q-7 0 -21 1l-14 1q-36 0 -36 -24q0 -10 8.5 -14.5t40.5 -8.5q3 0 6 -1q7 -1 19.5 -3.5l17.5 -3.5q65 -13 65 -88q0 -78 -47 -286q-43 -192 -127 -460q-79 -254 -184 -356q-103 -100 -279 -100q-152 0 -233.5 71.5t-81.5 204.5q0 78 29 182l176 633q27 94 50 137t54 56
q31 14 72 14q2 0 3 1q46 6 46 26t-35 20q-9 0 -20 -1q-98 -9 -197 -9q-129 0 -250 9q-11 1 -20 1q-18 0 -29.5 -6.5t-11.5 -15.5q0 -16 44 -21q45 -5 66 -12q32 -11 44 -28.5t12 -53.5q0 -48 -33 -174zM787 1822q3 -138 54 -203t156 -65q104 0 191 65.5t166 202.5h-49
q-125 -159 -303 -159q-76 0 -116.5 38.5t-51.5 120.5h-47z" />
    <glyph glyph-name="ubreve" unicode="&#x16d;" horiz-adv-x="1124" 
d="M797 901l-58 -181q-1 -3 -5.5 -18.5t-8.5 -27.5q-102 -335 -242 -514q-102 -133 -184 -133q-32 0 -50 22t-18 62q0 51 35 159l111 330q26 78 33 113q8 40 8 71q0 70 -33.5 108t-95.5 38q-159 0 -262 -228l-39 -88l32 -18q69 146 124 214.5t102 68.5q20 0 31.5 -14.5
t11.5 -39.5q0 -27 -19 -84l-135 -426q-29 -92 -29 -153q0 -88 44 -139.5t118 -51.5q95 0 196 104t195 298q-34 -140 -34 -242q0 -160 112 -160q90 0 162.5 83.5t136.5 260.5l-35 15q-66 -158 -115.5 -226.5t-97.5 -68.5q-40 0 -40 61q0 67 22 183q21 108 61 249l111 373
h-145zM400 1343q3 -138 54 -203t156 -65q104 0 191 65.5t166 202.5h-49q-125 -159 -303 -159q-76 0 -116.5 38.5t-51.5 120.5h-47z" />
    <glyph glyph-name="Uring" unicode="&#x16e;" horiz-adv-x="1577" 
d="M233 535q-32 -117 -32 -216q0 -170 113.5 -261t326.5 -91q132 0 229.5 38.5t173.5 119.5q55 59 103 175q51 122 110 333l144 516q36 120 96 151q26 14 67 26q5 1 11 3q41 6 41 25q0 9 -10 15.5t-25 6.5q-1 0 -4.5 -0.5t-9.5 -1t-11 -0.5q-88 -8 -155 -8q-87 0 -156 8
q-7 0 -21 1l-14 1q-36 0 -36 -24q0 -10 8.5 -14.5t40.5 -8.5q3 0 6 -1q7 -1 19.5 -3.5l17.5 -3.5q65 -13 65 -88q0 -78 -47 -286q-43 -192 -127 -460q-79 -254 -184 -356q-103 -100 -279 -100q-152 0 -233.5 71.5t-81.5 204.5q0 78 29 182l176 633q27 94 50 137t54 56
q31 14 72 14q2 0 3 1q46 6 46 26t-35 20q-9 0 -20 -1q-98 -9 -197 -9q-129 0 -250 9q-11 1 -20 1q-18 0 -29.5 -6.5t-11.5 -15.5q0 -16 44 -21q45 -5 66 -12q32 -11 44 -28.5t12 -53.5q0 -48 -33 -174zM893 1728q0 68 45 113t113 45q66 0 111 -46q46 -45 46 -112
q0 -66 -45 -111q-46 -44 -112 -44q-67 0 -113 44q-45 45 -45 111zM817 1728q0 -98 68 -166q68 -67 168 -67q98 0 165 67q68 68 68 166t-68 166t-165 68q-98 0 -168 -68q-68 -68 -68 -166z" />
    <glyph glyph-name="uring" unicode="&#x16f;" horiz-adv-x="1124" 
d="M797 901l-58 -181q-1 -3 -5.5 -18.5t-8.5 -27.5q-102 -335 -242 -514q-102 -133 -184 -133q-32 0 -50 22t-18 62q0 51 35 159l111 330q26 78 33 113q8 40 8 71q0 70 -33.5 108t-95.5 38q-159 0 -262 -228l-39 -88l32 -18q69 146 124 214.5t102 68.5q20 0 31.5 -14.5
t11.5 -39.5q0 -27 -19 -84l-135 -426q-29 -92 -29 -153q0 -88 44 -139.5t118 -51.5q95 0 196 104t195 298q-34 -140 -34 -242q0 -160 112 -160q90 0 162.5 83.5t136.5 260.5l-35 15q-66 -158 -115.5 -226.5t-97.5 -68.5q-40 0 -40 61q0 67 22 183q21 108 61 249l111 373
h-145zM506 1249q0 68 45 113t113 45q66 0 111 -46q46 -45 46 -112q0 -66 -45 -111q-46 -44 -112 -44q-67 0 -113 44q-45 45 -45 111zM430 1249q0 -98 68 -166q68 -67 168 -67q98 0 165 67q68 68 68 166t-68 166t-165 68q-98 0 -168 -68q-68 -68 -68 -166z" />
    <glyph glyph-name="Udblacute" unicode="&#x170;" horiz-adv-x="1577" 
d="M233 535q-32 -117 -32 -216q0 -170 113.5 -261t326.5 -91q132 0 229.5 38.5t173.5 119.5q55 59 103 175q51 122 110 333l144 516q36 120 96 151q26 14 67 26q5 1 11 3q41 6 41 25q0 9 -10 15.5t-25 6.5q-1 0 -4.5 -0.5t-9.5 -1t-11 -0.5q-88 -8 -155 -8q-87 0 -156 8
q-7 0 -21 1l-14 1q-36 0 -36 -24q0 -10 8.5 -14.5t40.5 -8.5q3 0 6 -1q7 -1 19.5 -3.5l17.5 -3.5q65 -13 65 -88q0 -78 -47 -286q-43 -192 -127 -460q-79 -254 -184 -356q-103 -100 -279 -100q-152 0 -233.5 71.5t-81.5 204.5q0 78 29 182l176 633q27 94 50 137t54 56
q31 14 72 14q2 0 3 1q46 6 46 26t-35 20q-9 0 -20 -1q-98 -9 -197 -9q-129 0 -250 9q-11 1 -20 1q-18 0 -29.5 -6.5t-11.5 -15.5q0 -16 44 -21q45 -5 66 -12q32 -11 44 -28.5t12 -53.5q0 -48 -33 -174zM1243 1804l-164 -289h52l186 230q43 53 43 75q0 23 -14 38.5t-35 15.5
q-29 0 -68 -70zM995 1800l-135 -285h49l166 230q37 48 37 80q0 18 -14.5 33.5t-32.5 15.5q-19 0 -35.5 -17t-34.5 -57z" />
    <glyph glyph-name="udblacute" unicode="&#x171;" horiz-adv-x="1124" 
d="M797 901l-58 -181q-1 -3 -5.5 -18.5t-8.5 -27.5q-102 -335 -242 -514q-102 -133 -184 -133q-32 0 -50 22t-18 62q0 51 35 159l111 330q26 78 33 113q8 40 8 71q0 70 -33.5 108t-95.5 38q-159 0 -262 -228l-39 -88l32 -18q69 146 124 214.5t102 68.5q20 0 31.5 -14.5
t11.5 -39.5q0 -27 -19 -84l-135 -426q-29 -92 -29 -153q0 -88 44 -139.5t118 -51.5q95 0 196 104t195 298q-34 -140 -34 -242q0 -160 112 -160q90 0 162.5 83.5t136.5 260.5l-35 15q-66 -158 -115.5 -226.5t-97.5 -68.5q-40 0 -40 61q0 67 22 183q21 108 61 249l111 373
h-145zM856 1325l-164 -289h52l186 230q43 53 43 75q0 23 -14 38.5t-35 15.5q-29 0 -68 -70zM608 1321l-135 -285h49l166 230q37 48 37 80q0 18 -14.5 33.5t-32.5 15.5q-19 0 -35.5 -17t-34.5 -57z" />
    <glyph glyph-name="Uogonek" unicode="&#x172;" horiz-adv-x="1577" 
d="M233 535q-32 -117 -32 -216q0 -170 113.5 -261t326.5 -91q132 0 229.5 38.5t173.5 119.5q55 59 103 175q51 122 110 333l144 516q36 120 96 151q26 14 67 26q5 1 11 3q41 6 41 25q0 9 -10 15.5t-25 6.5q-1 0 -4.5 -0.5t-9.5 -1t-11 -0.5q-88 -8 -155 -8q-87 0 -156 8
q-7 0 -21 1l-14 1q-36 0 -36 -24q0 -10 8.5 -14.5t40.5 -8.5q3 0 6 -1q7 -1 19.5 -3.5l17.5 -3.5q65 -13 65 -88q0 -78 -47 -286q-43 -192 -127 -460q-79 -254 -184 -356q-103 -100 -279 -100q-152 0 -233.5 71.5t-81.5 204.5q0 78 29 182l176 633q27 94 50 137t54 56
q31 14 72 14q2 0 3 1q46 6 46 26t-35 20q-9 0 -20 -1q-98 -9 -197 -9q-129 0 -250 9q-11 1 -20 1q-18 0 -29.5 -6.5t-11.5 -15.5q0 -16 44 -21q45 -5 66 -12q32 -11 44 -28.5t12 -53.5q0 -48 -33 -174zM796 31h-43q-117 -73 -180.5 -156.5t-63.5 -165.5q0 -66 42.5 -107.5
t109.5 -41.5q66 0 119.5 36.5t85.5 102.5l-25 14q-57 -78 -125 -78q-47 0 -76.5 33t-29.5 86q0 136 186 277z" />
    <glyph glyph-name="uogonek" unicode="&#x173;" horiz-adv-x="1124" 
d="M797 901l-58 -180q-2 -9 -17 -57q-97 -318 -239 -504q-102 -133 -184 -133q-32 0 -50 22t-18 62q0 51 35 159l111 330q25 76 32 111q9 39 9 73q0 70 -33.5 108t-95.5 38q-161 0 -262 -228l-39 -88l32 -18q69 146 124 214.5t102 68.5q20 0 31.5 -14.5t11.5 -39.5
q0 -27 -19 -84l-135 -426q-29 -87 -29 -153q0 -88 43.5 -138.5t118.5 -50.5q95 0 197 104q101 103 194 296q-34 -158 -34 -242q0 -160 120 -164q-74 -58 -114.5 -125.5t-40.5 -132.5t42 -107q44 -42 109 -42q66 0 119.5 36.5t85.5 102.5l-24 14q-61 -78 -125 -78
q-48 0 -77.5 33t-29.5 86q0 112 141 234q11 10 27 24.5t21 18.5q88 85 157 284l-35 15q-69 -167 -118 -231q-47 -62 -97 -62q-38 0 -38 59q0 62 22 181q21 113 61 251l111 373h-145z" />
    <glyph glyph-name="Wcircumflex" unicode="&#x174;" horiz-adv-x="1907" 
d="M309 27v-17q0 -45 29 -45q20 0 37 12q19 12 51 58q280 397 641 1044l-37 -1067v-6q0 -41 37 -41q36 0 140 149q113 164 397 640q73 123 155 271q130 234 178 273q25 19 64 33q39 13 39 27q0 5 -8 9.5t-17 4.5q-1 0 -14 -1t-19 -1q-44 -4 -96 -4q-102 0 -157 6
q-9 0 -25.5 1t-17.5 1q-18 0 -29.5 -6t-11.5 -14q0 -16 31 -23q1 0 4 -1l3 -1q33 0 54 -8q27 -11 37 -26t10 -44q0 -63 -133 -298q-128 -227 -434 -705l30 893q5 95 13 125q9 33 28 43q28 16 77 22q50 6 50 25q0 16 -37 16q-11 0 -25 -1q-120 -5 -216 -5q-76 0 -147 7
q-12 1 -23 1q-50 0 -52 -24q0 -10 12.5 -16.5t30.5 -6.5q2 0 10 1t11 1q88 0 88 -74q0 -64 -128 -291q-130 -231 -443 -716l39 936q1 109 45 127q34 16 86 22q51 7 51 23q0 20 -35 20q-1 0 -9.5 -0.5t-28.5 -2t-41 -2.5q-82 -5 -144 -5q-95 0 -217 5q-14 1 -25 1
q-35 0 -35 -20q0 -16 38 -22q1 -1 3 -1q41 0 80 -14q51 -21 51 -115v-24zM1440 1515l-156 348h-104l-283 -348h54l270 244l174 -244h45z" />
    <glyph glyph-name="wcircumflex" unicode="&#x175;" horiz-adv-x="1346" 
d="M582 168v-23q0 -79 45.5 -126.5t122.5 -47.5q199 0 344 256q67 121 104 266q39 149 39 289q0 144 -78 144q-28 0 -44.5 -18t-16.5 -48q0 -19 13 -106t13 -164q0 -219 -99 -390t-212 -171q-106 0 -106 147q0 89 34 225l93 363q0 5 1 8q3 10 3 14q0 22 -20.5 35t-53.5 13
q-24 0 -35 -11.5t-22 -52.5l-117 -457q-34 -131 -94 -202.5t-136 -71.5q-56 0 -86 45t-30 129q0 77 32 210q32 128 86 259q22 51 63 120q40 70 40 91q0 13 -10 22t-25 9q-24 0 -33 -45q-3 -15 -6 -25q-11 -42 -31 -59t-57 -17q-34 0 -86 41t-92 41q-52 0 -85.5 -39
t-33.5 -100q0 -30 9.5 -51t21.5 -21q12 1 16 7.5t4 29.5v12q0 16 8.5 26.5t20.5 10.5q3 0 42 -14t71 -14q81 0 170 61l-45 -72q-130 -206 -178 -320q-50 -117 -50 -202q0 -95 51 -149t140 -54q90 0 168.5 52t126.5 145zM1059 1036l-156 348h-104l-283 -348h54l270 244
l174 -244h45z" />
    <glyph glyph-name="Ycircumflex" unicode="&#x176;" horiz-adv-x="1110" 
d="M514 221l98 359l488 594q4 4 14 17t15 19q77 96 110 107q6 2 31 8q37 7 37 23q0 20 -35 20q-8 0 -18 -2q-43 -4 -150 -4q-96 0 -149 8q-16 2 -23 2q-33 0 -33 -24q0 -15 40 -19q27 -2 38 -4q38 -8 55 -23t17 -40q0 -50 -80 -163q-87 -123 -254 -313l-115 -131l-135 512
q-14 54 -14 86q0 30 12.5 45t44.5 23q15 4 51 7q51 4 51 24t-35 20q-7 0 -25 -2q-9 0 -19 -1q-87 -7 -173 -7q-55 0 -137 8q-11 0 -36.5 1t-28.5 1q-54 0 -54 -22q0 -19 40 -23t58 -12q40 -17 58 -84l166 -631l-105 -389q-22 -85 -44 -115q-21 -27 -62 -41q-31 -10 -78 -14
h-4q-2 0 -4 -1q-49 -6 -49 -26q0 -22 47 -22q2 0 5.5 0.5t11 1t13.5 0.5q109 12 212 12q137 0 265 -12q5 0 11 -0.5t8.5 -1t3.5 -0.5q11 0 21 7t10 13q0 21 -52 25q-50 5 -81 12q-55 12 -55 74q0 44 16 98zM1042 1515l-156 348h-104l-283 -348h54l270 244l174 -244h45z" />
    <glyph glyph-name="ycircumflex" unicode="&#x177;" horiz-adv-x="786" 
d="M-2 528l41 1q5 172 17 223q14 57 46 57q26 0 50 -39q23 -37 61 -147q106 -307 106 -619q0 -106 -30 -180q-28 -74 -103 -152q-52 -56 -96 -75q-42 -19 -115 -19q-38 0 -54 2h-13q-46 0 -71 -19t-25 -53q0 -37 20.5 -54t65.5 -17q73 0 179 77t206 207q180 236 281 499
q100 260 100 495q0 114 -22 162.5t-73 48.5q-29 0 -49 -19t-20 -45q0 -30 41 -74q40 -43 52 -84q13 -38 13 -106q0 -218 -172 -536q-10 383 -88 625q-77 239 -182 239q-80 0 -124 -89t-44 -249q0 -6 1 -29t1 -31zM778 1036l-156 348h-104l-283 -348h54l270 244l174 -244h45z
" />
    <glyph glyph-name="Ydieresis" unicode="&#x178;" horiz-adv-x="1110" 
d="M514 221l98 359l488 594q4 4 14 17t15 19q77 96 110 107q6 2 31 8q37 7 37 23q0 20 -35 20q-8 0 -18 -2q-43 -4 -150 -4q-96 0 -149 8q-16 2 -23 2q-33 0 -33 -24q0 -15 40 -19q27 -2 38 -4q38 -8 55 -23t17 -40q0 -50 -80 -163q-87 -123 -254 -313l-115 -131l-135 512
q-14 54 -14 86q0 30 12.5 45t44.5 23q15 4 51 7q51 4 51 24t-35 20q-7 0 -25 -2q-9 0 -19 -1q-87 -7 -173 -7q-55 0 -137 8q-11 0 -36.5 1t-28.5 1q-54 0 -54 -22q0 -19 40 -23t58 -12q40 -17 58 -84l166 -631l-105 -389q-22 -85 -44 -115q-21 -27 -62 -41q-31 -10 -78 -14
h-4q-2 0 -4 -1q-49 -6 -49 -26q0 -22 47 -22q2 0 5.5 0.5t11 1t13.5 0.5q109 12 212 12q137 0 265 -12q5 0 11 -0.5t8.5 -1t3.5 -0.5q11 0 21 7t10 13q0 21 -52 25q-50 5 -81 12q-55 12 -55 74q0 44 16 98zM524 1667q0 -37 25.5 -63.5t60.5 -26.5q37 0 62.5 26t25.5 64
q0 35 -26 60.5t-62 25.5q-33 0 -60 -27q-26 -26 -26 -59zM907 1667q0 -37 25.5 -63.5t60.5 -26.5q37 0 61.5 25.5t24.5 64.5q0 35 -25.5 60.5t-60.5 25.5q-33 0 -60 -27q-26 -26 -26 -59z" />
    <glyph glyph-name="Zacute" unicode="&#x179;" horiz-adv-x="1229" 
d="M13 48q-13 -20 -13 -30t11 -14t42 -4h871q16 0 42 6q57 148 77 199q44 111 44 121q0 16 -18 16q-15 0 -41 -44q-29 -49 -47 -71q-77 -98 -180 -139q-101 -39 -289 -39h-272l942 1283q6 8 6 18t-6.5 14t-26.5 4h-774q-31 0 -41 -6q-27 -66 -77 -164q-44 -90 -44 -100
q0 -27 17 -27q12 0 69 71q58 71 123 118q93 65 287 65h235zM764 1515l271 222l1 1q60 49 60 80q0 22 -14 38t-33 16q-32 0 -80 -56l-262 -301h57z" />
    <glyph glyph-name="zacute" unicode="&#x17a;" horiz-adv-x="786" 
d="M16 84l-4 -6q-4 -5 -7 -9q-28 -32 -28 -57q0 -19 7.5 -27t25.5 -8q30 0 41 47q1 5 3 12l1 7q20 74 95 74q58 0 149 -62q11 -7 13 -9q89 -62 180 -62q94 0 146 48.5t52 135.5q0 28 -6 90h-35v-8q0 -65 -25.5 -95t-80.5 -30q-28 0 -120 22q-95 23 -163 23q-51 0 -118 -14
l471 656q2 3 19 22q34 34 34 61q0 14 -10 24.5t-23 10.5q-34 0 -45 -50l-2 -10q-8 -34 -26 -48.5t-52 -14.5q-41 0 -120 52t-132 52q-75 0 -124 -49q-50 -48 -50 -121q0 -27 12 -65l35 2q2 58 18.5 83t53.5 25q18 0 75 -19t103 -19q60 0 137 28zM440 1036l271 222l1 1
q60 49 60 80q0 22 -14 38t-33 16q-32 0 -80 -56l-262 -301h57z" />
    <glyph glyph-name="Zdot" unicode="&#x17b;" horiz-adv-x="1229" 
d="M13 48q-13 -20 -13 -30t11 -14t42 -4h871q16 0 42 6q57 148 77 199q44 111 44 121q0 16 -18 16q-15 0 -41 -44q-29 -49 -47 -71q-77 -98 -180 -139q-101 -39 -289 -39h-272l942 1283q6 8 6 18t-6.5 14t-26.5 4h-774q-31 0 -41 -6q-27 -66 -77 -164q-44 -90 -44 -100
q0 -27 17 -27q12 0 69 71q58 71 123 118q93 65 287 65h235zM770 1667q0 -38 27 -66q28 -28 65 -28q40 0 66.5 27t26.5 67q0 36 -28 64t-65 28q-35 0 -64 -29q-28 -28 -28 -63z" />
    <glyph glyph-name="zdot" unicode="&#x17c;" horiz-adv-x="786" 
d="M16 84l-4 -6q-4 -5 -7 -9q-28 -32 -28 -57q0 -19 7.5 -27t25.5 -8q30 0 41 47q1 5 3 12l1 7q20 74 95 74q58 0 149 -62q11 -7 13 -9q89 -62 180 -62q94 0 146 48.5t52 135.5q0 28 -6 90h-35v-8q0 -65 -25.5 -95t-80.5 -30q-28 0 -120 22q-95 23 -163 23q-51 0 -118 -14
l471 656q2 3 19 22q34 34 34 61q0 14 -10 24.5t-23 10.5q-34 0 -45 -50l-2 -10q-8 -34 -26 -48.5t-52 -14.5q-41 0 -120 52t-132 52q-75 0 -124 -49q-50 -48 -50 -121q0 -27 12 -65l35 2q2 58 18.5 83t53.5 25q18 0 75 -19t103 -19q60 0 137 28zM446 1188q0 -38 27 -66
q28 -28 65 -28q40 0 66.5 27t26.5 67q0 36 -28 64t-65 28q-35 0 -64 -29q-28 -28 -28 -63z" />
    <glyph glyph-name="Zcaron" unicode="&#x17d;" horiz-adv-x="1229" 
d="M13 48q-13 -20 -13 -30t11 -14t42 -4h871q16 0 42 6q57 148 77 199q44 111 44 121q0 16 -18 16q-15 0 -41 -44q-29 -49 -47 -71q-77 -98 -180 -139q-101 -39 -289 -39h-272l942 1283q6 8 6 18t-6.5 14t-26.5 4h-774q-31 0 -41 -6q-27 -66 -77 -164q-44 -90 -44 -100
q0 -27 17 -27q12 0 69 71q58 71 123 118q93 65 287 65h235zM623 1863l153 -348h107l280 348h-53l-270 -243l-174 243h-43z" />
    <glyph glyph-name="zcaron" unicode="&#x17e;" horiz-adv-x="786" 
d="M16 84l-4 -6q-4 -5 -7 -9q-28 -32 -28 -57q0 -19 7.5 -27t25.5 -8q30 0 41 47q1 5 3 12l1 7q20 74 95 74q58 0 149 -62q11 -7 13 -9q89 -62 180 -62q94 0 146 48.5t52 135.5q0 28 -6 90h-35v-8q0 -65 -25.5 -95t-80.5 -30q-28 0 -120 22q-95 23 -163 23q-51 0 -118 -14
l471 656q2 3 19 22q34 34 34 61q0 14 -10 24.5t-23 10.5q-34 0 -45 -50l-2 -10q-8 -34 -26 -48.5t-52 -14.5q-41 0 -120 52t-132 52q-75 0 -124 -49q-50 -48 -50 -121q0 -27 12 -65l35 2q2 58 18.5 83t53.5 25q18 0 75 -19t103 -19q60 0 137 28zM299 1384l153 -348h107
l280 348h-53l-270 -243l-174 243h-43z" />
    <glyph glyph-name="slong" unicode="&#x17f;" horiz-adv-x="492" 
d="M238 815l-230 -995q-53 -231 -85 -288q-34 -58 -87 -58q-50 0 -70 65q-5 15 -6 19q-17 49 -63 49q-49 0 -49 -56q0 -54 42 -84t117 -30q139 0 219 111q81 111 169 475l249 1034q43 175 107.5 265.5t146.5 90.5q80 0 99 -75q1 -4 2.5 -9t1.5 -6q7 -22 23 -35.5t36 -13.5
q21 0 36 15.5t15 35.5q0 53 -57 91q-56 38 -137 38q-144 0 -245 -104q-98 -103 -175 -336l-49 -150h-182l-9 -49h181z" />
    <glyph glyph-name="uni018f" unicode="&#x18f;" horiz-adv-x="1466" 
d="M609 -32q121 7 241 58q142 61 244 171q130 141 204 318q74 178 74 349q0 254 -138 396q-137 143 -382 143q-149 0 -301 -64q-36 -16 -47 -16q-17 0 -29 22q-12 23 -23 23q-24 0 -32 -34l-70 -269q-14 -51 -14 -64q0 -24 20 -24t46 56q22 47 34 69q74 135 166.5 195.5
t224.5 60.5q171 0 254.5 -104.5t83.5 -317.5q0 -71 -19 -199h-1029q-31 -114 -31 -241q0 -251 130 -390q113 -120 305 -137q45 -3 88 -1zM609 10q-36 -3 -71 -1q-114 11 -180 102q-75 103 -75 292q0 133 34 272q165 1 813 1q-4 -19 -12.5 -40.5t-13.5 -37.5l-16 -47
q-93 -257 -224 -403q-120 -123 -255 -138z" />
    <glyph glyph-name="florin" unicode="&#x192;" horiz-adv-x="1118" 
d="M455 774l-125 -622q-83 -416 -138 -527q-54 -112 -139 -112q-62 0 -83 88q-1 7 -3 10q-7 28 -29 47.5t-47 19.5q-38 0 -61 -23.5t-23 -62.5q0 -60 56 -98q55 -39 143 -39q192 0 315 216q123 214 252 821l62 282h215l14 51h-219q66 312 115 417q49 106 119 106
q46 0 71 -61q8 -21 15 -32q17 -30 42 -47.5t50 -17.5q35 0 56.5 21.5t21.5 58.5q0 56 -56 95q-55 40 -135 40q-169 0 -290.5 -147.5t-186.5 -432.5h-178l-19 -51h185z" />
    <glyph glyph-name="Aringacute" unicode="&#x1fa;" horiz-adv-x="1341" 
d="M997 1849l195 88q59 29 59 66q0 21 -13.5 35t-35.5 14q-27 0 -63 -31l-197 -172h55zM887 1638q0 49 34 83t85 34q49 0 83.5 -34t34.5 -83q0 -50 -35 -85t-83 -35q-50 0 -85 35q-34 34 -34 85zM819 1636q0 -78 54 -132t133 -54q78 0 132 54t54 132q0 79 -54 133t-132 54
q-79 0 -133 -54t-54 -133zM827 563l-14 -368v-9q-6 -116 -61 -141q-26 -7 -78 -10q-49 -3 -49 -21q0 -22 26 -22q20 0 94 7q76 7 150 7q102 0 204 -12q5 0 10 -0.5t7.5 -1t3.5 -0.5q37 0 37 24q0 16 -44 21q-39 6 -48 8q-42 13 -59 39t-17 80v24l49 1172v10q0 37 -16 37
q-77 0 -141 -94q-5 -7 -15 -21.5t-14 -19.5l-789 -1114q-55 -79 -131 -110q-77 -32 -77 -36q0 -8 8 -14t18 -6q9 0 65 7q55 7 113 7q69 0 132 -7t71 -7q12 0 20.5 6.5t8.5 15.5q0 20 -49 27l-12.5 2.5t-8.5 1.5q-50 5 -69 16.5t-19 34.5q0 34 48 117q57 97 233 350h413z
M457 627l397 553l-25 -553h-372z" />
    <glyph glyph-name="aringacute" unicode="&#x1fb;" horiz-adv-x="1010" 
d="M637 1370l197 88q57 28 57 66q0 21 -14 35t-35 14q-28 0 -64 -31l-196 -172h55zM459 1159q0 -78 54 -132t132 -54t131 53q53 55 53 133t-53 131t-131 53t-133 -53q-53 -53 -53 -131zM526 1159q0 48 35 83q34 34 84 34q49 0 83 -34t34 -83q0 -50 -33.5 -84.5t-83.5 -34.5
q-51 0 -85 34t-34 85zM115 160q0 175 157 469q139 254 275 254q48 0 77 -33t29 -88q0 -90 -48 -236q-48 -145 -130 -293q-64 -116 -121 -167.5t-121 -51.5q-53 0 -85.5 40t-32.5 106zM530 256q-28 -116 -28 -162q0 -60 32 -91.5t93 -31.5q89 0 161 90.5t117 260.5l-33 12
q-54 -148 -105 -226.5t-93 -78.5q-22 0 -34.5 16t-12.5 43q0 61 26 154l172 595q6 24 6 44q0 32 -81 32q-22 0 -27 -16l-31 -109q-15 64 -57 100t-103 36q-88 0 -193 -69q-104 -67 -192 -185q-80 -110 -125 -226t-45 -211q0 -121 59.5 -191.5t162.5 -70.5q108 0 189 69.5
t142 215.5z" />
    <glyph glyph-name="AEacute" unicode="&#x1fc;" horiz-adv-x="1835" 
d="M504 735l395 498q18 22 25 22q10 0 10 -16q0 -8 -2 -14l-141 -490h-287zM774 688l-127 -477q-24 -87 -45 -115q-18 -27 -56 -41q-25 -9 -69 -14h-3q-48 -7 -48 -27t41 -20q8 0 17 1q118 11 239 11q106 0 408 -5t403 -5q30 124 56 214q32 111 32 118q0 24 -20 24
q-17 0 -47 -66q-28 -66 -74 -116q-63 -69 -144 -97t-272 -28q-135 0 -178 22t-43 78q0 53 14 107l113 436h129q112 0 149 -39q39 -37 39 -151q0 -6 -1 -25t-1 -22q0 -19 23 -19q19 0 36 117q13 88 21 133q14 81 37 163q24 85 24 93q0 29 -16 29q-15 0 -38 -57
q-22 -59 -46 -91q-35 -47 -84 -66q-49 -18 -156 -18h-104l111 389q23 90 59 189h143q198 0 260 -27q61 -27 99 -98q12 -23 28 -78q17 -53 35 -53q19 0 19 41l-1 9q-1 9 -4 31t-6 46q-10 80 -10 166v18q-23 -3 -176 -6q-206 -2 -387 -2q-239 0 -433 13q-17 1 -30 1
q-43 0 -43 -20q0 -10 9.5 -14.5t39.5 -6.5q11 0 21 -2q50 -5 71 -21t21 -48q0 -57 -51 -121l-797 -998q-67 -84 -106 -100q-11 -5 -39 -9q-29 -5 -29 -18q0 -22 31 -22q1 0 7 0.5t20.5 2t29.5 2.5q58 5 102 5q49 0 116 -5q17 -1 33.5 -2.5t23.5 -2t8 -0.5q32 0 32 20
q0 19 -53 24q-19 2 -30 3q-37 5 -53.5 19t-16.5 40q0 25 23 63q22 39 102 138l307 387h305zM1067 1515l271 222l1 1q60 49 60 80q0 22 -14 38t-33 16q-32 0 -80 -56l-262 -301h57z" />
    <glyph glyph-name="aeacute" unicode="&#x1fd;" horiz-adv-x="1221" 
d="M465 147q21 -83 79 -129.5t140 -46.5q104 0 201 74q95 73 159 205l-28 20q-68 -116 -147.5 -181.5t-151.5 -65.5q-111 0 -111 137q0 79 37 192q239 80 369 195q131 116 131 244q0 63 -38 98t-108 35q-40 0 -100 -16q-57 -15 -79 -19q-28 -4 -45 -6q-116 -17 -189 -35
q-63 -15 -127 -41q-219 -89 -347 -257q-128 -167 -128 -362q0 -98 51 -158q53 -59 137 -59q152 0 295 176zM460 204q-143 -165 -245 -165q-42 0 -65 32.5t-23 92.5q0 117 72 261q72 145 182 243q186 164 428 176q-330 -278 -349 -640zM655 393q68 236 146 360
q80 128 157 128q37 0 56.5 -21t19.5 -59q0 -109 -105 -225q-103 -113 -274 -183zM657 1036l271 222l1 1q60 49 60 80q0 22 -14 38t-33 16q-32 0 -80 -56l-262 -301h57z" />
    <glyph glyph-name="Oslashacute" unicode="&#x1fe;" horiz-adv-x="1460" 
d="M371 109q-78 87 -78 282q0 156 59 357q71 236 176 380q166 230 377 230q79 0 125 -33zM426 51l661 1221q91 -102 91 -314q0 -166 -58 -348t-168 -358q-70 -115 -168 -177.5t-209 -62.5q-91 0 -149 39zM250 -276l145 268q89 -25 172 -25q160 0 303 67q144 68 246 189
q248 300 248 643q0 349 -236 477l148 271h-86l-131 -240q-93 31 -182 31q-136 0 -265.5 -58t-236.5 -167q-287 -290 -287 -701q0 -162 57 -270t181 -182l-164 -303h88zM878 1515l271 222l1 1q60 49 60 80q0 22 -14 38t-33 16q-32 0 -80 -56l-262 -301h57z" />
    <glyph glyph-name="oslashacute" unicode="&#x1ff;" horiz-adv-x="895" 
d="M616 790q15 -53 15 -104q0 -109 -34 -248q-35 -144 -91 -260q-79 -168 -205 -168q-53 0 -98 39zM170 102q-12 46 -12 86q0 90 32 226q33 134 84 250q103 219 224 219q49 0 86 -37zM127 20l-147 -260h63l133 234q55 -23 109 -23q195 0 323 168q158 211 158 441
q0 192 -104 290l137 254h-62l-125 -223q-54 25 -106 25q-87 0 -174.5 -54t-159.5 -151q-149 -203 -149 -447q0 -169 104 -254zM496 1036l271 222l1 1q60 49 60 80q0 22 -14 38t-33 16q-32 0 -80 -56l-262 -301h57z" />
    <glyph glyph-name="uni0259" unicode="&#x259;" horiz-adv-x="823" 
d="M50 11q70 -41 111 -41h32q149 2 286 104q98 93 169 266q23 62 37 152q14 91 4 155q-6 139 -73 209q-68 72 -140 72q-195 0 -309 -217l34 -19q104 189 253 189q30 0 64 -42q35 -42 39 -118q2 -56 -4 -119l-2 -16q-303 -54 -481 -223q-110 -92 -92 -243q17 -84 72 -109z
M192 9h-9q-34 0 -61 23.5t-29 60.5q-15 101 67 231q170 184 384 213q-5 -35 -17 -84q-9 -43 -31 -106q-12 -48 -38 -111q-26 -68 -63 -127q-34 -46 -87 -80q-46 -22 -116 -20z" />
    <glyph glyph-name="circumflex" unicode="&#x2c6;" horiz-adv-x="1024" 
d="M897 1036l-156 348h-104l-283 -348h54l270 244l174 -244h45z" />
    <glyph glyph-name="caron" unicode="&#x2c7;" horiz-adv-x="1024" 
d="M418 1384l153 -348h107l280 348h-53l-270 -243l-174 243h-43z" />
    <glyph glyph-name="breve" unicode="&#x2d8;" horiz-adv-x="1024" 
d="M406 1343q3 -138 54 -203t156 -65q104 0 191 65.5t166 202.5h-49q-125 -159 -303 -159q-76 0 -116.5 38.5t-51.5 120.5h-47z" />
    <glyph glyph-name="dotaccent" unicode="&#x2d9;" horiz-adv-x="1024" 
d="M565 1188q0 -38 27 -66q28 -28 65 -28q40 0 66.5 27t26.5 67q0 36 -28 64t-65 28q-35 0 -64 -29q-28 -28 -28 -63z" />
    <glyph glyph-name="ring" unicode="&#x2da;" horiz-adv-x="1024" 
d="M512 1249q0 68 45 113t113 45q66 0 111 -46q46 -45 46 -112q0 -66 -45 -111q-46 -44 -112 -44q-67 0 -113 44q-45 45 -45 111zM436 1249q0 -98 68 -166q68 -67 168 -67q98 0 165 67q68 68 68 166t-68 166t-165 68q-98 0 -168 -68q-68 -68 -68 -166z" />
    </font>
</defs>
</svg>
