<?xml version="1.0" standalone="no"?>
<!DOCTYPE svg PUBLIC "-//W3C//DTD SVG 1.1//EN" "http://www.w3.org/Graphics/SVG/1.1/DTD/svg11.dtd" >
<svg xmlns="http://www.w3.org/2000/svg" xmlns:xlink="http://www.w3.org/1999/xlink" version="1.1">
<metadata>
Created by FontForge 20161003 at Wed Oct 11 12:35:42 2017
 By www-data
Copyright (c) ELM, 2005. All rights reserved.
</metadata>
<defs>
<font id="Baskerville" horiz-adv-x="2048" >
  <font-face 
    font-family="Baskerville"
    font-weight="400"
    font-stretch="normal"
    units-per-em="2048"
    panose-1="2 0 5 3 0 0 0 2 0 3"
    ascent="1638"
    descent="-410"
    x-height="901"
    cap-height="1374"
    bbox="-342 -598 2355 2105"
    underline-thickness="115"
    underline-position="-456"
    unicode-range="U+0020-FB02"
  />
<missing-glyph horiz-adv-x="1229" 
d="M102 -362h1024v1806h-1024v-1806zM217 -248v1577h795v-1577h-795z" />
    <glyph glyph-name=".notdef" horiz-adv-x="1229" 
d="M102 -362h1024v1806h-1024v-1806zM217 -248v1577h795v-1577h-795z" />
    <glyph glyph-name=".null" horiz-adv-x="0" 
 />
    <glyph glyph-name="nonmarkingreturn" horiz-adv-x="682" 
 />
    <glyph glyph-name="space" unicode=" " horiz-adv-x="561" 
 />
    <glyph glyph-name="exclam" unicode="!" horiz-adv-x="616" 
d="M285 340h47v156q0 217 43 466q43 251 43 293q0 70 -28.5 109t-80.5 39q-51 0 -80.5 -40.5t-29.5 -111.5q0 -21 43 -269t43 -484v-158zM193 94q0 -48 33 -81t81 -33q49 0 83 33t34 81q0 49 -34 83q-33 34 -81 34t-82 -34t-34 -83z" />
    <glyph glyph-name="quotedbl" unicode="&#x22;" horiz-adv-x="678" 
d="M518 864l68 457q2 24 2 41q0 48 -22 74t-62 26q-41 0 -63.5 -26.5t-22.5 -75.5q0 -10 3 -33q1 -3 1 -6l65 -457h31zM190 864l66 457q0 4 1 7q3 26 3 34q0 48 -22.5 74t-63.5 26q-40 0 -62 -26t-22 -74q0 -10 4 -41l64 -457h32z" />
    <glyph glyph-name="numbersign" unicode="#" horiz-adv-x="1575" 
d="M700 868h291l-102 -286h-289zM778 1456l-166 -471h-348l-43 -117h348l-100 -286h-322l-43 -115h324l-166 -469h131l166 469h287l-166 -469h133l166 469h330l43 115h-332l100 286h310l40 117h-307l166 471h-131l-168 -471h-287l168 471h-133z" />
    <glyph glyph-name="dollar" unicode="$" horiz-adv-x="1124" 
d="M686 66v505q96 -43 141 -103.5t45 -145.5q0 -208 -186 -256zM485 44v622q87 -33 146 -64v-557q-23 -4 -78 -4q-51 0 -68 3zM486 868l-1 453q24 8 60 8q55 0 85 -6l1 -522q-71 34 -119 55q-22 10 -26 12zM428 893q-170 76 -170 203q0 74 44 128t126 81v-412zM428 -291h57
v289q6 0 29 -1t31 -1q33 0 86 4v-291h55v303q311 78 311 379q0 133 -71 222q-72 90 -240 163v539q80 -10 109.5 -32t29.5 -71q0 -10 -3 -32t-3 -25q0 -39 20.5 -60.5t57.5 -21.5q72 0 72 74q0 79 -77 138q-78 59 -206 77v158h-55l-1 -154q-31 4 -69 4q-35 0 -75 -4l-1 154
h-57v-164q-142 -41 -218.5 -125.5t-76.5 -200.5q0 -114 66 -191q65 -75 229 -149v-645q-78 6 -124 31.5t-46 62.5l3 24q3 24 3 38q0 42 -25 67t-67 25q-39 0 -62.5 -25t-23.5 -65q0 -77 94 -135q93 -56 248 -70v-289z" />
    <glyph glyph-name="percent" unicode="%" horiz-adv-x="1634" 
d="M1063 229q0 68 26 160q24 86 70 170q95 164 215 164q74 0 119 -63t45 -168q0 -194 -93 -334q-91 -138 -214 -138q-168 0 -168 209zM1221 -35q137 0 246 154q110 155 110 362q0 138 -59.5 213.5t-167.5 75.5q-177 0 -308 -143t-131 -340q0 -146 85 -234t225 -88zM201 836
q0 216 127 407q35 53 84 83t100 30q70 0 113 -66q45 -66 45 -170q0 -187 -93 -325q-92 -138 -212 -138q-71 0 -118 50q-46 50 -46 129zM393 -102l920 1575h-76q-53 -96 -153 -153q-101 -56 -216 -56q-114 0 -204 73q-48 38 -86.5 53t-88.5 15q-78 0 -155 -35t-139 -98
q-69 -70 -106.5 -161t-37.5 -187q0 -138 78 -227q79 -87 203 -87q197 0 315 234q66 129 66 268q0 63 -21 141q92 -39 178 -39q142 0 248 70l-813 -1386h88z" />
    <glyph glyph-name="ampersand" unicode="&#x26;" horiz-adv-x="1569" 
d="M606 766q-168 233 -168 377q0 93 48 152q50 59 124 59q87 0 132.5 -65.5t45.5 -188.5q0 -192 -182 -334zM807 209q-69 -76 -135.5 -111t-143.5 -35q-100 0 -164 73q-65 74 -65 183q0 87 49 164t139 131q126 -203 320 -405zM842 172q115 -113 193 -156q79 -43 165 -43
q110 0 201 58q92 59 92 112q0 9 -5 15t-11 6q-5 0 -57 -40t-115 -40q-114 0 -338 242q78 106 161 257q87 158 129 158q9 0 16 -5.5t7 -12.5q0 -4 -2 -18t-2 -17q0 -106 92 -106q50 0 81.5 30t31.5 78q0 62 -42 100.5t-108 38.5q-97 0 -190 -116q-19 -25 -83 -143
q-61 -112 -128 -203q-101 100 -293 362q283 203 283 406q0 114 -80 191t-197 77q-136 0 -231 -104q-93 -103 -93 -257q0 -169 146 -387q-338 -192 -338 -432q0 -111 82 -184q83 -72 213 -72q241 0 420 205z" />
    <glyph glyph-name="quotesingle" unicode="'" horiz-adv-x="348" 
d="M190 864l66 457q0 4 1 7q3 26 3 34q0 48 -22.5 74t-63.5 26q-84 0 -84 -102q0 -17 2 -39l66 -457h32z" />
    <glyph glyph-name="parenleft" unicode="(" horiz-adv-x="676" 
d="M559 -428l43 37q-157 172 -231 389q-74 216 -74 500q0 272 75 486t230 384l-41 37q-221 -239 -321 -460q-101 -222 -101 -464q0 -485 420 -909z" />
    <glyph glyph-name="parenright" unicode=")" horiz-adv-x="676" 
d="M137 1405l-41 -37q155 -172 229 -388t74 -501q0 -274 -74 -487t-229 -381l41 -39q221 238 321 459q101 223 101 465q0 484 -422 909z" />
    <glyph glyph-name="asterisk" unicode="*" horiz-adv-x="1024" 
d="M500 1014q-87 48 -152 140q-3 4 -6.5 8.5t-6 8t-3.5 4.5q-54 64 -105 64q-35 0 -58.5 -23t-23.5 -57q0 -31 21.5 -55.5t60.5 -36.5q5 0 95 -16q93 -17 165 -60q-82 -49 -206 -63q-44 -5 -52 -8q-84 -27 -84 -93q0 -33 22 -56t54 -23q58 0 106 56q1 1 23 30q71 96 150 137
v-13q0 -74 -35 -168q-35 -93 -35 -120q0 -39 23 -63.5t59 -24.5q37 0 59.5 26.5t22.5 69.5q0 24 -35 114q-35 91 -35 162v17q89 -51 152 -140q5 -9 17 -23q54 -63 104 -63q34 0 58 23.5t24 56.5q0 29 -22.5 55t-57.5 38q-27 5 -100 16q-93 15 -162 57q83 50 206 65
q39 5 52 9q84 25 84 92q0 34 -22 57t-54 23q-59 0 -107 -58q-2 -2 -22 -28q-73 -98 -150 -137v12q0 75 35 168q35 94 35 121q0 38 -23.5 63t-58.5 25q-37 0 -59.5 -26.5t-22.5 -69.5q0 -24 35 -115q35 -90 35 -162v-16z" />
    <glyph glyph-name="plus" unicode="+" horiz-adv-x="1706" 
d="M795 1221v-551h-541v-117h541v-553h118v553h539v117h-539v551h-118z" />
    <glyph glyph-name="comma" unicode="," horiz-adv-x="561" 
d="M334 16q8 -18 8 -36q0 -56 -56 -124q-55 -68 -153 -130l25 -33q133 61 206 155q74 95 74 201q0 75 -43.5 121.5t-113.5 46.5q-48 0 -80.5 -32.5t-32.5 -80.5q0 -46 28 -76t72 -30q30 0 66 18z" />
    <glyph glyph-name="hyphen" unicode="-" horiz-adv-x="680" 
d="M94 387h496v139h-496v-139z" />
    <glyph glyph-name="period" unicode="." horiz-adv-x="561" 
d="M166 100q0 -48 33 -81t82 -33q48 0 81 33t33 81t-34 81q-33 34 -80 34q-48 0 -81.5 -33.5t-33.5 -81.5z" />
    <glyph glyph-name="slash" unicode="/" horiz-adv-x="557" 
d="M31 -190l518 1593h-80l-518 -1593h80z" />
    <glyph glyph-name="zero" unicode="0" horiz-adv-x="1124" 
d="M303 688q0 342 65 507t199 165q137 0 202 -164q65 -165 65 -516q0 -356 -64 -512q-63 -156 -205 -156q-133 0 -197.5 166t-64.5 510zM104 678q0 -275 123 -483q75 -125 154 -177q80 -53 188 -53q198 0 328 203q135 211 135 514t-127 500q-72 114 -154 168.5t-182 54.5
q-198 0 -332 -206q-133 -205 -133 -521z" />
    <glyph glyph-name="one" unicode="1" horiz-adv-x="1124" 
d="M487 193q0 -74 -21 -107t-72 -43q-7 -1 -25 -3.5t-25 -3.5q-5 -1 -10 -1h-2q-53 -8 -53 -27q0 -18 43 -18q12 0 27 1q105 7 218 7q131 0 242 -7q13 -1 25 -1q45 0 45 18q0 20 -54 27h-2q-5 0 -10 1q-8 1 -19 2.5t-18 2.5t-12 2q-54 12 -74 44q-20 34 -20 112v936
q0 121 7 226q1 13 1 23q0 35 -10 35q-4 0 -22 -9q-100 -51 -230 -71q-8 -1 -71 -8q-70 -7 -71 -26q0 -12 13.5 -16.5t56.5 -6.5q7 0 14 -1q58 -6 65 -7q34 -6 49 -35.5t15 -89.5v-956z" />
    <glyph glyph-name="two" unicode="2" horiz-adv-x="1124" 
d="M289 174q44 93 332 322l43 34q3 2 16 12.5t23 18.5q151 117 208 195q80 107 80 256q0 176 -124 284q-124 109 -328 109q-184 0 -302 -98q-116 -98 -116 -248q0 -103 64 -173q65 -71 155 -71q74 0 136 35q61 34 61 65q0 11 -12 11q-4 0 -31 -10q-28 -9 -58 -9
q-79 0 -130 59q-50 61 -50 154q0 100 70 169t174 69q132 0 208 -85q76 -83 76 -233q0 -215 -131 -389q-54 -71 -158 -172q-105 -102 -137 -137q-104 -112 -182 -217q-70 -94 -70 -123q0 -8 21 -8q4 0 21.5 3t23.5 3h606q69 0 82 -10q14 -11 14 -49q0 -6 -2 -21.5t-2 -19.5
q0 -23 23 -23q14 0 16 20l48 233q0 1 0.5 7.5t0.5 12.5q0 14 -9.5 20t-35.5 6q-23 0 -110 -4t-185 -4q-171 0 -329 6z" />
    <glyph glyph-name="three" unicode="3" horiz-adv-x="1124" 
d="M584 782q159 87 233 176t74 193q0 111 -93 182q-92 72 -241 72q-157 0 -273 -92t-116 -203q0 -79 52 -128q53 -50 132 -50q57 0 110 32q54 33 54 56q0 10 -14 10q-4 0 -32 -9q-27 -9 -52 -9q-50 0 -88 42q-37 41 -37 97q0 91 60 149q61 58 157 58q92 0 141 -58.5
t49 -166.5q0 -132 -56 -221q-56 -88 -210 -183q-36 -21 -50 -29q-81 -46 -81 -84q0 -13 13.5 -24.5t31.5 -11.5q21 0 58 49q3 5 7 9q44 57 78.5 79t77.5 22q107 0 159 -81.5t52 -247.5q0 -193 -76 -293.5t-223 -100.5q-66 0 -104.5 29.5t-63.5 101.5q-25 76 -46 94
q-19 19 -54 19q-45 0 -70.5 -24t-25.5 -68q0 -84 94 -142q95 -59 233 -59q229 0 398 164q143 140 143 324q0 150 -103 238q-103 89 -276 89h-22z" />
    <glyph glyph-name="four" unicode="4" horiz-adv-x="1124" 
d="M631 522h-504l504 633v-633zM623 449v-273q0 -59 -23.5 -89t-75.5 -36q-4 0 -7 -1q-30 -3 -40 -3q-4 0 -7 -1q-75 -8 -75 -28q0 -24 39 -24q1 0 11.5 0.5t35 2t51.5 2.5q105 5 187 5q86 0 161 -4q76 -4 93 -4q51 0 51 24q0 14 -48 24l-15 3q-51 0 -82 6q-42 8 -59 36.5
t-17 94.5v265h209q23 0 38 10t15 26t-16 26.5t-41 10.5h-201v840q0 55 -25 55q-13 0 -45 -39l-657 -823q-37 -45 -37 -70q0 -15 11 -25.5t26 -10.5h543z" />
    <glyph glyph-name="five" unicode="5" horiz-adv-x="1124" 
d="M289 733l14 430q92 -24 189 -24q209 0 305 116q31 37 51 84q20 48 20 74q0 15 -18 17q-6 0 -25 -24q-22 -26 -37 -38q-80 -63 -194 -63q-83 0 -138 13.5t-102 45.5q-12 8 -33 25q-23 20 -36 20t-18 -8.5t-7 -34.5l-22 -673q-1 -22 -6 -55q-5 -37 -5 -44q0 -27 12 -43
t31 -16q41 0 41 51q0 3 -2 27t-2 34q0 59 72 114q74 56 160 56q126 0 185.5 -83t59.5 -259q0 -222 -79.5 -338.5t-231.5 -116.5q-73 0 -113 27t-63 92l-9 27q-32 96 -93 96q-38 0 -63.5 -25.5t-25.5 -64.5q0 -85 95 -144t241 -59q234 0 386 149q153 148 153 378
q0 174 -105 277q-104 104 -280 104q-90 0 -170.5 -38t-136.5 -106z" />
    <glyph glyph-name="six" unicode="6" horiz-adv-x="1124" 
d="M303 639q142 188 297 188q126 0 185 -92.5t59 -292.5q0 -204 -70.5 -317t-198.5 -113q-140 0 -208 120t-68 366q0 93 4 141zM301 713v12q0 303 75 465t214 162q96 0 165 -128l1 -1q43 -78 102 -78q39 0 63.5 22t24.5 58q0 78 -83 128t-214 50q-197 0 -321 -125
q-109 -110 -168 -284q-60 -176 -60 -382q0 -301 124 -474q125 -173 335 -173q211 0 347 144q136 143 136 366q0 187 -112 300q-112 114 -295 114q-91 0 -171.5 -42.5t-162.5 -133.5z" />
    <glyph glyph-name="seven" unicode="7" horiz-adv-x="1124" 
d="M899 1200q-299 -572 -412 -821q-108 -239 -108 -316q0 -46 23.5 -72t66.5 -26q98 0 153 256q15 69 35 154q114 446 310 878q41 90 41 101q0 14 -35 14h-615q-53 0 -68.5 13.5t-15.5 52.5q0 12 3 35q4 20 4 30q0 31 -23 31q-20 0 -27 -33l-102 -495q-2 -10 -2 -17
q0 -31 25 -31q21 0 34 55q12 43 19 64q27 76 59 102q32 25 98 25h537z" />
    <glyph glyph-name="eight" unicode="8" horiz-adv-x="1124" 
d="M694 791q-217 81 -311 159t-94 174q0 104 75 172q77 68 191 68q122 0 192 -79q72 -79 72 -214q0 -174 -125 -280zM457 682q1 -2 6 -3q414 -187 414 -372q0 -133 -87 -213q-86 -78 -233 -78q-139 0 -213 82.5t-74 237.5q0 116 45 199.5t142 146.5zM412 702
q-155 -92 -224 -185t-69 -208q0 -153 119 -248q118 -94 313 -94q203 0 331 115q130 115 130 295q0 120 -65.5 213.5t-207.5 175.5q213 142 213 321q0 132 -110 224t-271 92q-173 0 -291 -105q-118 -103 -118 -249q0 -207 250 -347z" />
    <glyph glyph-name="nine" unicode="9" horiz-adv-x="1124" 
d="M840 731q-142 -188 -297 -188q-126 0 -185 92.5t-59 292.5q0 204 70.5 317t197.5 113q141 0 209 -119.5t68 -366.5q0 -93 -4 -141zM842 657v-12q0 -301 -75 -465q-75 -162 -214 -162q-96 0 -165 129h-1q-43 78 -102 78q-40 0 -64 -22t-24 -58q0 -79 82 -128
q83 -50 215 -50q197 0 319 125q108 110 168 285q61 174 61 381q0 301 -124 473q-123 174 -334 174q-212 0 -348 -144q-136 -142 -136 -366q0 -186 111 -300q113 -114 295 -114q92 0 173 42.5t163 133.5z" />
    <glyph glyph-name="colon" unicode=":" horiz-adv-x="616" 
d="M195 784q0 -48 32 -80t80 -32q49 0 82 32.5t33 79.5q0 48 -33 81q-33 34 -80 34t-81 -34q-33 -33 -33 -81zM195 100q0 -49 32 -81.5t80 -32.5q49 0 82 33t33 81t-33 81q-33 34 -80 34t-81 -34q-33 -33 -33 -81z" />
    <glyph glyph-name="semicolon" unicode=";" horiz-adv-x="616" 
d="M186 788q0 -46 32 -80q34 -32 79 -32q46 0 79 33q34 34 34 79q0 47 -33 80q-31 33 -78 33t-80 -33t-33 -80zM352 16q10 -19 10 -36q0 -56 -56.5 -125t-153.5 -129l24 -33q135 62 207 155q74 95 74 201q0 75 -43.5 121.5t-114.5 46.5q-48 0 -80.5 -32.5t-32.5 -80.5
q0 -46 29 -76t74 -30q30 0 63 18z" />
    <glyph glyph-name="less" unicode="&#x3c;" horiz-adv-x="1706" 
d="M1442 1145l-1178 -483v-103l1178 -483v129l-1000 405l1000 408v127z" />
    <glyph glyph-name="equal" unicode="=" horiz-adv-x="1706" 
d="M254 477v-117h1198v117h-1198zM254 860v-117h1198v117h-1198z" />
    <glyph glyph-name="greater" unicode="&#x3e;" horiz-adv-x="1706" 
d="M264 1145v-127l1000 -408l-1000 -405v-129l1178 483v103z" />
    <glyph glyph-name="question" unicode="?" horiz-adv-x="901" 
d="M223 92q0 -49 34 -83t83 -34t82 34t33 83t-34 83q-33 34 -81 34q-49 0 -83 -34t-34 -83zM305 317h49v236h27q190 0 290.5 83t100.5 241q0 119 -49 229q-49 111 -135 186q-58 50 -139 82q-80 31 -154 31q-58 0 -93.5 -24.5t-35.5 -63.5q0 -84 108 -84q24 0 84 9q62 9 97 9
q114 0 184 -82q72 -81 72 -211q0 -114 -70.5 -173.5t-206.5 -59.5h-129v-408z" />
    <glyph glyph-name="at" unicode="@" horiz-adv-x="2019" 
d="M1190 336q12 -211 207 -211q139 0 258 108q104 95 163 236q58 138 58 297q0 312 -207 499q-205 187 -553 187q-372 0 -635 -221q-164 -136 -250 -313t-86 -381q0 -197 78.5 -358.5t229.5 -274.5q239 -185 616 -185q357 0 655 222l-30 36q-285 -206 -613 -206
q-350 0 -581 196q-124 105 -181 234.5t-57 304.5q0 407 264 663q242 234 617 234q141 0 267 -43.5t216 -122.5q203 -179 203 -455q0 -174 -65 -315t-187 -231q-39 -30 -84.5 -48t-79.5 -18q-43 0 -68.5 27.5t-25.5 74.5q0 44 17 104q1 2 1 5l170 610h-143l-53 -180
q-44 195 -221 195q-76 0 -155 -36t-144 -100q-89 -84 -138 -192t-49 -217q0 -153 76 -244q77 -92 201 -92q185 0 309 211zM1098 965q74 0 120 -60q48 -60 48 -153q0 -90 -34 -198q-35 -109 -91 -202q-112 -178 -242 -178q-68 0 -108.5 54t-40.5 147q0 99 42 225
q44 128 115 234q47 69 92 100t99 31z" />
    <glyph glyph-name="at" unicode="&#xa0;" horiz-adv-x="2019" 
d="M1190 336q12 -211 207 -211q139 0 258 108q104 95 163 236q58 138 58 297q0 312 -207 499q-205 187 -553 187q-372 0 -635 -221q-164 -136 -250 -313t-86 -381q0 -197 78.5 -358.5t229.5 -274.5q239 -185 616 -185q357 0 655 222l-30 36q-285 -206 -613 -206
q-350 0 -581 196q-124 105 -181 234.5t-57 304.5q0 407 264 663q242 234 617 234q141 0 267 -43.5t216 -122.5q203 -179 203 -455q0 -174 -65 -315t-187 -231q-39 -30 -84.5 -48t-79.5 -18q-43 0 -68.5 27.5t-25.5 74.5q0 44 17 104q1 2 1 5l170 610h-143l-53 -180
q-44 195 -221 195q-76 0 -155 -36t-144 -100q-89 -84 -138 -192t-49 -217q0 -153 76 -244q77 -92 201 -92q185 0 309 211zM1098 965q74 0 120 -60q48 -60 48 -153q0 -90 -34 -198q-35 -109 -91 -202q-112 -178 -242 -178q-68 0 -108.5 54t-40.5 147q0 99 42 225
q44 128 115 234q47 69 92 100t99 31z" />
    <glyph glyph-name="A" unicode="A" horiz-adv-x="1356" 
d="M354 500h518l95 -250q30 -77 30 -131q0 -32 -26.5 -49t-85.5 -23q-60 -11 -60 -29q1 -22 54 -22q41 0 124 6t123 6q72 0 149 -4t111 -4q41 0 41 20q0 12 -9.5 17.5t-37.5 9.5q-43 5 -67 16q-37 15 -65 52.5t-58 111.5l-453 1141q-17 43 -39 43q-21 0 -36 -39l-457 -1089
q-41 -98 -72.5 -145t-66.5 -64q-34 -18 -81 -27q-42 -6 -42 -24q0 -23 51 -23q18 0 70 4t102 4q58 0 121 -6q65 -6 69 -6q39 0 39 18q0 13 -9 19t-34 10q-11 0 -47 12q-67 27 -67 103q0 50 26 116zM377 559l246 592l229 -592h-475z" />
    <glyph glyph-name="B" unicode="B" horiz-adv-x="1462" 
d="M838 737q333 67 333 307q0 167 -127.5 247.5t-390.5 80.5q-57 0 -128 -4q-69 -4 -107 -4q-125 0 -238 7q-17 1 -30 1q-39 0 -39 -20q0 -16 49 -22q3 -1 6 -1q49 -4 78 -16q37 -18 52 -52q15 -33 15 -110v-922q0 -79 -15 -114q-13 -32 -53 -52q-29 -14 -77 -18q-3 0 -6 -1
q-49 -6 -49 -26q0 -22 39 -22q10 0 23 1q120 9 245 9q53 0 175 -5t152 -5q281 0 423.5 92.5t142.5 273.5q0 327 -473 375zM528 805v446q0 52 20 64q21 12 103 12q152 0 226.5 -74t74.5 -225q0 -148 -85.5 -215.5t-274.5 -67.5q-40 0 -52 10.5t-12 49.5zM528 238v401
q0 41 15 51q14 10 92 10h18q214 0 315 -80t101 -249q0 -148 -85 -236q-84 -88 -226 -88q-122 0 -176 45t-54 146z" />
    <glyph glyph-name="C" unicode="C" horiz-adv-x="1462" 
d="M1343 51v408q0 8 -4.5 14t-11.5 6q-14 0 -35 -68q-22 -71 -45 -124q-54 -128 -158 -198.5t-239 -70.5q-229 0 -364 174q-134 176 -134 474q0 322 132 508t358 186q302 0 415 -287q12 -28 20 -63q10 -39 26 -39q22 0 22 28v3q-2 16 -2 24l-10 301q-2 25 -7.5 35t-17.5 10
t-27 -39q-13 -39 -32 -39q-10 0 -47 19q-175 88 -353 88q-195 0 -351 -80t-255 -231q-123 -194 -123 -435q0 -315 207 -508q93 -85 221.5 -132.5t268.5 -47.5q193 0 360 92q15 8 30 19q44 28 66 28q29 0 41 -39q12 -38 27 -38q22 0 22 22z" />
    <glyph glyph-name="D" unicode="D" horiz-adv-x="1575" 
d="M303 1159v-928q0 -81 -15 -115q-14 -33 -53 -53q-31 -14 -77 -18q-3 0 -6 -1q-48 -6 -50 -26q0 -20 37 -20q11 0 24 1q101 7 216 7q51 0 156 -4t198 -4q742 0 742 676q0 334 -207 521q-206 187 -576 187q-37 0 -142 -5t-140 -5q-105 0 -235 8q-7 0 -15 0.5t-12.5 1
t-6.5 0.5q-37 0 -39 -22q0 -13 46 -20q3 0 5 -0.5t3 -0.5q57 -5 80 -16q36 -16 52 -52q15 -35 15 -112zM520 328v891q0 69 24 91q26 23 120 23q295 0 428 -166q135 -167 135 -530q0 -310 -110 -450t-351 -140q-136 0 -191 61t-55 220z" />
    <glyph glyph-name="E" unicode="E" horiz-adv-x="1350" 
d="M524 352v340h37q125 0 187 -28q64 -27 94 -91q11 -23 23 -73q10 -43 24 -43q22 0 22 37q0 4 -6 90q-6 87 -6 170q0 51 5 133t5 86q0 35 -24 35q-19 0 -29 -61t-31 -95q-35 -56 -97 -81t-204 -31v470q0 77 20 94q22 17 134 17h16q187 0 262 -25q75 -24 113 -84
q21 -34 28 -87q9 -54 29 -54q23 0 23 33q0 10 -4 41q-4 32 -4 65q0 34 3 70q3 38 3 41q0 28 -20 39q-19 10 -103 10h-45q-102 0 -270 -3t-236 -3q-155 0 -291 7q-17 1 -30 1q-37 0 -37 -20q0 -15 49 -22q3 -1 6 -1q49 -4 78 -16q36 -17 50 -50q15 -33 15 -112v-922
q0 -82 -14 -116q-14 -32 -52 -50q-29 -14 -77 -18q-3 0 -5 -1q-50 -6 -50 -26q0 -22 37 -22q10 0 23 1q120 9 245 9q364 0 702 -9q32 -1 58 -1q45 0 56 8t11 49q0 45 4 106t4 101q0 38 -4.5 50t-17.5 12q-18 0 -30 -52q-12 -54 -34 -90q-41 -70 -117 -98q-78 -29 -227 -29
q-185 0 -243 49t-58 250z" />
    <glyph glyph-name="F" unicode="F" horiz-adv-x="1241" 
d="M537 229v437q38 2 75 2q95 0 147 -20q53 -20 87 -64q25 -34 37 -90t28 -56q9 0 15 11.5t6 29.5q0 13 -4 101q-4 89 -4 198q0 60 3 125q1 10 1 19q0 47 -23 47q-17 0 -31 -68q-13 -66 -49 -108q-35 -42 -92 -59q-57 -16 -198 -21v432q0 138 20 158q16 16 150 16
q166 0 257 -27q90 -25 134 -86q24 -33 41 -86q17 -51 34 -51q19 0 19 31q0 2 -3 19q-11 70 -13 148v36q-1 31 -5 40q-7 29 -77 29q-26 0 -58 -1q-260 -7 -563 -7q-149 0 -279 7q-17 1 -30 1q-39 0 -39 -20q0 -15 49 -22q3 -1 6 -1q49 -4 78 -16q38 -18 53 -52
q15 -33 15 -110v-922q0 -79 -15 -114q-15 -33 -52 -51q-27 -14 -79 -19q-2 0 -5 -1q-50 -8 -50 -26q0 -22 37 -22q11 0 24 1q120 9 244 9q134 0 264 -9q13 -1 25 -1q37 0 39 22q0 19 -53 27h-5h-2q-60 5 -88 18q-39 17 -56 50q-15 32 -15 116z" />
    <glyph glyph-name="G" unicode="G" horiz-adv-x="1573" 
d="M1407 150q-10 69 -10 163v23q0 90 11 121q10 30 40 49q31 18 65 22q1 1 7 3q32 11 32 26q0 8 -11 14.5t-28 6.5q-4 0 -28 -3q-101 -10 -209 -10q-99 0 -200 10q-28 3 -36 3q-21 0 -34 -6.5t-13 -16.5q0 -18 40 -25q1 0 4 -0.5t4 -1.5q25 -1 67 -14q34 -13 53 -53.5
t19 -102.5q0 -174 -86.5 -256t-270.5 -82q-222 0 -346 172q-125 173 -125 480q0 339 128.5 515.5t375.5 176.5q147 0 242 -70t147 -216q7 -19 15 -53q11 -44 26 -44q18 0 19 25l12 301v22q0 23 -4.5 31t-16.5 8q-11 0 -26 -33q-15 -32 -31 -32q-14 0 -62 22q-180 80 -352 80
q-321 0 -524 -212q-201 -211 -201 -550q0 -289 185 -477q194 -199 495 -199q184 0 404 118q29 16 65 34q55 26 158 31z" />
    <glyph glyph-name="H" unicode="H" horiz-adv-x="1796" 
d="M315 1151v-922q0 -82 -14 -116q-14 -32 -52 -50q-29 -14 -77 -18q-3 0 -5 -1q-50 -6 -50 -26q0 -22 37 -22q10 0 23 1q120 9 245 9q124 0 244 -9q13 -1 24 -1q37 0 37 22q0 20 -49 27h-4q-41 0 -79 19q-37 18 -52 51q-15 35 -15 114v449h740v-449q0 -83 -15 -116
q-14 -32 -50 -49q-28 -15 -79 -19q-2 0 -5 -1q-50 -8 -50 -26q0 -22 37 -22q11 0 24 1q120 9 244 9q125 0 245 -9q13 -1 23 -1q37 0 37 22q0 20 -50 26q-2 1 -5 1q-48 4 -77 18q-38 18 -52 50q-14 34 -14 116v922q0 78 14 112q15 34 51 50q29 12 78 16q3 0 6 1q49 6 49 22
q0 20 -37 20q-15 0 -33 -1q-113 -7 -235 -7q-131 0 -244 7q-13 1 -24 1q-37 0 -37 -18q0 -10 11.5 -15t45.5 -10q52 -5 76 -16q37 -16 51 -50q15 -33 15 -112v-410h-740v410q0 81 19 118t65 50q40 10 66 10q1 1 4 1.5t4 0.5q41 8 41 23q0 18 -37 18q-11 0 -24 -1
q-113 -7 -244 -7q-122 0 -235 7q-18 1 -33 1q-37 0 -37 -20q0 -15 49 -22q3 -1 6 -1q49 -4 78 -16q37 -16 51 -50t14 -112z" />
    <glyph glyph-name="I" unicode="I" horiz-adv-x="899" 
d="M555 229v922q0 81 19 118t65 50q33 10 76 10q2 1 6 1q3 1 5 1q48 7 48 23q0 8 -16.5 13t-38.5 5q-12 0 -25 -1q-115 -7 -245 -7q-121 0 -234 7q-17 1 -33 1q-22 0 -40.5 -6t-18.5 -14q0 -15 58 -22q3 -1 7 -1q59 -4 88 -16q38 -18 53 -52q15 -33 15 -110v-922
q0 -80 -16 -113q-16 -34 -58 -53q-28 -13 -87 -18h-3h-4q-53 -8 -53 -27q0 -22 41 -22q12 0 27 1q127 9 258 9q129 0 259 -9q15 -1 27 -1q39 0 39 22q0 18 -50 26q-2 1 -5 1q-59 5 -91 19q-41 18 -57 53t-16 112z" />
    <glyph glyph-name="J" unicode="J" horiz-adv-x="901" 
d="M379 -207q0 -173 -49 -235q-49 -64 -170 -64q-59 0 -93 23q-32 22 -67 108q-24 60 -84 60q-40 0 -63 -21.5t-23 -56.5q0 -74 82 -119q81 -45 219 -45q149 0 247.5 44t158.5 136q28 48 42 110q13 59 13 189v1229q0 83 18 119.5t64 48.5q40 10 67 10q1 1 4 1t5 1
q41 8 41 23q-1 18 -37 18q-12 0 -25 -1q-113 -7 -244 -7q-121 0 -234 7q-18 1 -34 1q-37 0 -37 -20q0 -15 49 -22q3 -1 7 -1q48 -5 77 -16q37 -16 51 -50q15 -33 15 -112v-1358z" />
    <glyph glyph-name="K" unicode="K" horiz-adv-x="1573" 
d="M539 528l137 125l131 -155q276 -327 276 -394q0 -27 -17.5 -39.5t-66.5 -19.5q-26 -4 -30 -4q-54 -7 -54 -25q1 -22 46 -22q12 0 59 3q170 9 315 9q65 0 176 -10q33 0 33 24q0 15 -34 21q-20 3 -31 6q-62 20 -200 183q-12 14 -13 15l-461 558q94 110 239 292
q136 171 168 195q48 39 107 39q1 1 2 1q2 1 3 1q24 7 24 19q0 22 -39 22q-23 0 -79 -4q-55 -4 -108 -4q-46 0 -102 4t-86 4q-39 0 -39 -18q0 -13 11 -18t48 -7q8 -2 13 -2q84 -11 84 -74t-140 -245q-138 -178 -372 -412v555q0 81 19 118t65 50q39 10 67 10q1 1 4 1.5t4 0.5
q41 8 41 23q0 18 -37 18q-11 0 -24 -1q-115 -7 -246 -7q-121 0 -233 7q-17 1 -33 1q-39 0 -39 -20q0 -15 49 -22q3 -1 6 -1q49 -4 78 -16q37 -16 51 -50q15 -33 15 -112v-922q0 -83 -15 -116q-14 -32 -50 -49q-28 -15 -79 -19q-2 0 -5 -1q-50 -8 -50 -26q0 -22 37 -22
q11 0 24 1q120 9 244 9q125 0 245 -9q13 -1 23 -1q39 0 39 22q0 20 -50 26q-2 1 -5 1q-48 4 -77 18q-39 20 -54 52q-14 36 -14 114v299z" />
    <glyph glyph-name="L" unicode="L" horiz-adv-x="1350" 
d="M514 299v852q0 83 18 119.5t64 48.5q40 10 68 10q1 1 4 1.5t4 0.5q41 8 41 23q-1 18 -37 18q-12 0 -25 -1q-113 -7 -243 -7q-122 0 -235 7q-18 1 -34 1q-37 0 -37 -20q1 -16 50 -22q3 -1 6 -1q50 -5 78 -16q36 -17 50 -50q15 -33 15 -112v-922q0 -83 -15 -116
q-14 -32 -51 -50q-31 -14 -77 -18q-3 0 -6 -1q-48 -6 -50 -26q1 -22 37 -22q13 0 30 1q215 11 439 11q276 0 575 -14q14 0 29.5 -0.5t23.5 -1t11 -0.5q27 0 35 9.5t8 41.5l4 274q0 25 -3 31t-13 6q-20 0 -37 -69q-16 -68 -45 -109q-46 -64 -132 -93.5t-230 -29.5
q-197 0 -258 49q-62 50 -62 197z" />
    <glyph glyph-name="M" unicode="M" horiz-adv-x="1911" 
d="M309 264q0 -96 -16 -135q-15 -38 -53 -61q-21 -12 -70 -22q-3 -1 -6 -1q-29 -4 -39 -9.5t-10 -15.5q0 -24 75 -24q36 0 81 4q6 2 36 3q32 3 49 3q37 0 74 -4q39 -4 47 -4q7 0 25 -1t20 -1q45 0 45 22q0 18 -33 25l-8 2q-36 0 -70 19q-46 22 -65 61q-18 40 -18 137v926
l487 -1157q12 -25 25 -25q5 0 13.5 10t14.5 25l486 1137v-949q0 -79 -15 -114q-15 -33 -52 -51q-28 -15 -79 -19q-2 0 -5 -1q-48 -6 -50 -26q0 -22 37 -22q11 0 24 1q121 9 248 9q117 0 233 -9q11 -1 21 -1q35 0 35 22q0 17 -41 25q-2 0 -5 0.5t-5 1.5q-44 4 -73 18
q-37 20 -50 53q-14 36 -14 113v889q0 135 63 180q38 27 104 31q1 1 4 1t5 1q37 7 37 23q0 12 -11 17t-38 5t-99 -3t-119 -3q-9 0 -32 1t-27 1q-30 6 -33 6q-42 0 -57 -39l-438 -1020l-426 1004q-15 35 -28 45t-40 10h-19q-32 -8 -126 -8q-48 0 -103 4t-80 4q-19 0 -31 -6
t-12 -16q0 -20 48 -27h2q20 0 46 -6q49 -11 73.5 -28t37.5 -48v-983z" />
    <glyph glyph-name="N" unicode="N" horiz-adv-x="1686" 
d="M379 262v891l915 -1139q39 -49 68 -49q18 0 25.5 13t7.5 49v1097q0 90 15 127t54 58q26 12 73 20h3l3 1q44 11 44 24q0 20 -35 20q-10 0 -39 -3q-3 -1 -8 -1q-57 -4 -119 -4q-44 0 -124 5t-91 5q-34 0 -34 -20q0 -8 7 -14.5t15 -6.5q92 0 132 -48t40 -161v-841l-839 1050
q-29 39 -70 39q-13 0 -55 -6q-8 0 -32 -1t-30 -1q-47 0 -91 4t-58 4q-56 0 -56 -20q0 -18 43 -24q2 -1 4 -1q3 0 6 -1q32 -6 36 -7q43 -13 72.5 -36t55.5 -64v-957q0 -94 -15 -135q-15 -38 -54 -61q-20 -10 -60 -21q-4 -1 -9.5 -2.5t-6.5 -1.5q-49 0 -49 -23q0 -22 49 -22
q22 0 78 3t90 3q74 0 159 -6q7 0 14.5 -0.5t11 -1t5.5 -0.5q43 0 43 22q0 17 -38 25h-3q-41 5 -67 16q-47 25 -67 67q-19 41 -19 136z" />
    <glyph glyph-name="O" unicode="O" horiz-adv-x="1686" 
d="M348 690q0 302 138 486q139 184 362 184q228 0 361 -181q134 -182 134 -493q0 -307 -137 -492q-136 -184 -362 -184q-221 0 -359 187q-137 188 -137 493zM96 680q0 -159 54 -284.5t167 -231.5q214 -197 531 -197q147 0 287 55q143 56 243 150q101 95 157 229
q56 136 56 283q0 295 -178 485q-103 110 -251 173q-144 61 -306 61q-323 0 -549 -221q-211 -211 -211 -502z" />
    <glyph glyph-name="P" unicode="P" horiz-adv-x="1241" 
d="M528 645h7q98 -8 131 -8q255 0 394 97q140 98 140 272q0 179 -139.5 271.5t-411.5 92.5q-17 0 -94 -3q-75 -3 -133 -3q-122 0 -235 7q-18 1 -33 1q-37 0 -37 -20q0 -15 49 -22q3 -1 6 -1q49 -4 78 -16q37 -16 51 -50t14 -112v-922q0 -82 -14 -116q-14 -32 -52 -50
q-29 -14 -77 -18q-3 0 -5 -1q-50 -6 -50 -26q0 -22 37 -22q10 0 23 1q120 9 245 9q124 0 244 -9q13 -1 24 -1q39 0 39 22q0 18 -50 26q-3 1 -5 1q-51 4 -79 19q-37 18 -52 51q-15 35 -15 114v416zM529 696l-1 561q0 38 26 54t89 16q164 0 244 -80.5t80 -245.5
q0 -162 -76.5 -238.5t-239.5 -76.5q-49 0 -122 10z" />
    <glyph glyph-name="Q" unicode="Q" horiz-adv-x="1686" 
d="M350 686q0 310 140 494q139 184 376 184q215 0 348 -187q134 -187 134 -491q0 -306 -141 -490t-369 -184q-227 0 -358 179q-130 179 -130 495zM741 -29q-35 -17 -117 -68q-91 -57 -157 -85q-54 -24 -72 -40.5t-18 -41.5q0 -14 10.5 -23.5t26.5 -9.5q15 0 95 59
q79 58 159 58q70 0 150 -42q81 -43 218 -159q1 -1 7 -5.5t10 -8.5q164 -140 295 -140q134 0 228 96q95 97 95 222q0 29 -20 29q-14 0 -47 -41q-75 -97 -183 -97q-86 0 -236 66q-160 69 -202 82q-141 45 -297 45h-37q68 60 235 98q164 37 238 68q214 90 345 275
q130 184 130 399q0 170 -83 327q-82 156 -222 246q-190 123 -438 123q-312 0 -539 -215q-219 -208 -219 -508q0 -288 175 -481t470 -228z" />
    <glyph glyph-name="R" unicode="R" horiz-adv-x="1460" 
d="M510 737v520q0 47 21 63.5t79 16.5q184 0 271.5 -83t87.5 -257q0 -171 -94 -244t-314 -73q-31 0 -41 10.5t-10 46.5zM510 229v361q0 25 7.5 34t29.5 9q36 0 57.5 -10.5t42.5 -36.5l443 -555q15 -19 32 -26t56 -7h47q33 4 49 4q66 0 133 -7q7 -1 14 -1q8 -2 15 -2
q13 0 22.5 5.5t9.5 12.5q0 15 -46 34q-1 1 -3 1q-102 38 -155 102l-445 521q188 24 284.5 115.5t96.5 244.5q0 181 -122.5 265.5t-385.5 84.5q-39 0 -184 -5t-207 -5q-112 0 -149 4h-17q-37 0 -37 -20q1 -16 50 -22q3 -1 6 -1q48 -5 77 -16q37 -16 51 -50q15 -33 15 -112
v-922q0 -83 -15 -116q-14 -32 -50 -49q-28 -14 -78 -19q-3 0 -6 -1q-48 -6 -50 -26q1 -22 37 -22q11 0 24 1q120 9 244 9q125 0 245 -9q13 -1 24 -1q36 0 37 22q-2 20 -50 26q-3 1 -6 1q-46 4 -77 18q-37 18 -52 50q-14 34 -14 116z" />
    <glyph glyph-name="S" unicode="S" horiz-adv-x="1126" 
d="M111 373q0 -19 3 -80q3 -60 3 -100q0 -51 -6 -102q-1 -15 -2.5 -28t-2.5 -19v-5q0 -29 21 -29q13 0 29 31t30 31q9 0 49 -23q154 -88 306 -88q210 0 350 116q139 117 139 294q0 154 -91 257q-90 105 -325 210q-1 0 -3.5 1.5t-7 3.5t-7.5 3q-295 130 -295 278
q0 104 70 168t188 64q99 0 174.5 -51.5t120.5 -149.5q11 -23 26 -75q13 -52 38 -52q13 1 17.5 11.5t4.5 45.5q0 21 -3 63t-3 62q0 37 3 82t3 54q0 20 -7.5 32.5t-19.5 12.5q-15 0 -30 -38q-14 -38 -33 -38q-10 0 -48 20q-127 70 -251 70q-176 0 -292 -104
q-114 -103 -114 -263q0 -123 72.5 -220.5t206.5 -153.5q10 -5 60 -25q236 -96 302 -178q54 -71 54 -168q0 -131 -79.5 -205t-219.5 -74q-123 0 -215 68t-138 192q-8 24 -20 79q-12 61 -35 61q-14 -1 -18 -7.5t-4 -33.5z" />
    <glyph glyph-name="T" unicode="T" horiz-adv-x="1491" 
d="M852 229v1033q0 37 19 50t98 13h35q217 0 283 -18q67 -18 97 -64q25 -36 36 -104q12 -68 26 -68q10 0 13 6t3 29v231q0 28 -11.5 37.5t-45.5 9.5q-23 0 -52 -1q-283 -13 -608 -13q-324 0 -607 13q-29 1 -52 1q-34 0 -46.5 -10t-12.5 -37v-231q0 -20 4 -27.5t14 -7.5
q14 0 24 67q11 69 35 105q32 45 99 63q66 19 237 19h82q74 0 96 -14q21 -14 21 -49v-1033q0 -81 -16 -114q-16 -34 -58 -52q-29 -13 -87 -18h-3h-4q-53 -8 -53 -27q0 -22 39 -22q11 0 24 1q131 9 264 9q135 0 263 -9q13 -1 24 -1q41 0 41 22q0 19 -53 27h-4h-3q-59 5 -87 18
q-42 18 -58 52q-16 33 -16 114z" />
    <glyph glyph-name="U" unicode="U" horiz-adv-x="1688" 
d="M311 1151v-748q0 -438 523 -438q304 0 433 136q130 136 130 460v590q0 83 18 119.5t64 48.5q39 10 67 10q1 1 4 1.5t4 0.5q41 8 41 23q0 18 -36 18q-18 0 -73 -4q-53 -4 -108 -4q-58 0 -118 4t-82 4q-39 0 -39 -20q0 -15 49 -22q3 -1 6 -1q49 -4 78 -16q37 -18 52 -52
q15 -33 15 -110v-641q0 -243 -107.5 -357t-334.5 -114q-193 0 -284 95t-91 298v719q0 81 19 118t65 50q40 10 66 10q1 1 4 1.5t4 0.5q41 8 41 23q0 18 -35 18q-11 0 -25 -1q-113 -7 -245 -7q-121 0 -233 7q-18 1 -33 1q-39 0 -39 -20q0 -16 49 -22q3 -1 6 -1q49 -4 78 -16
q37 -18 52 -52q15 -33 15 -110z" />
    <glyph glyph-name="V" unicode="V" horiz-adv-x="1569" 
d="M852 219l-289 799q-42 118 -53 157q-14 51 -14 72q0 36 22 55t71 25q9 1 24 3q47 4 49 24q0 18 -31 18q-11 0 -24 -1q-128 -9 -263 -9q-119 0 -220 10q-5 0 -10 0.5t-8 1t-4 0.5q-36 0 -36 -20q0 -10 10.5 -15.5t44.5 -11.5q15 -1 59 -12q61 -16 127 -193q17 -44 19 -49
l389 -1024q12 -36 29.5 -59t29.5 -23q23 0 55 53q31 52 84 189l347 862q52 130 88 182q37 51 79 68q16 6 46 6q1 1 4 1.5t4 0.5q32 9 32 23q0 20 -36 20q-1 0 -8.5 -0.5t-24.5 -2t-34 -2.5q-68 -5 -120 -5t-127 5q-18 1 -36 2.5t-26 2t-9 0.5q-35 0 -35 -20q0 -12 45 -20
q33 -4 63 -11q31 -6 47.5 -29t16.5 -59q0 -43 -46 -178q-42 -127 -128 -340z" />
    <glyph glyph-name="W" unicode="W" horiz-adv-x="2021" 
d="M737 242q-1 2 -17 54.5t-27 90.5q-238 777 -238 848q0 39 22.5 58.5t81.5 31.5q17 3 42 6q40 4 40 21q0 22 -57 22q-26 0 -121 -5t-133 -5q-97 0 -208 6q-8 0 -17.5 0.5t-14.5 1t-8 0.5q-22 0 -29.5 -4t-7.5 -14q0 -21 53 -29q23 -3 37 -6q39 -11 59 -37q22 -26 46 -100
l354 -1108q0 -2 1 -4q34 -103 69 -103q22 0 39.5 26t35.5 87l299 987l295 -1001q17 -58 31 -78.5t35 -20.5q39 0 76 121l321 1032q33 107 57 143q25 37 62 52q23 10 39 10q47 15 47 31q0 18 -31 18q-19 0 -41 -2q-7 0 -34 -4t-52 -4q-65 0 -169 8q-36 2 -37 2q-24 2 -38 2
q-43 0 -43 -22q2 -21 44 -25q6 0 12 -1l12 -2t8 -1q49 -8 75 -35t26 -69q0 -127 -68 -342l-188 -613l-314 1024q0 1 -2 7q-22 79 -55 79q-18 0 -29 -15.5t-26 -65.5z" />
    <glyph glyph-name="X" unicode="X" horiz-adv-x="1571" 
d="M700 649l-302 -392q-23 -30 -27 -35q-95 -125 -168 -154q-23 -9 -60 -18q-49 -12 -49 -32q0 -22 56 -22q7 0 87 5q82 5 130 5q46 0 111 -5q15 -1 32 -2.5t24 -2t9 -0.5q39 0 39 22q0 14 -10.5 19.5t-46.5 9.5q-15 4 -27 4q-42 7 -60 24t-18 50q0 67 96 190l223 287
l291 -373q68 -89 68 -133q-2 -39 -82 -46q-8 0 -11 -1q-42 -3 -58.5 -10.5t-16.5 -22.5q0 -10 10.5 -14t40.5 -4q47 0 120 4h11q28 2 63 3q23 1 109 1q56 0 153 -5q8 -1 17 -1q7 0 12 -1q22 -3 31 -3q47 0 47 24q0 14 -33 26q-2 1 -4 1q-84 21 -141 90l-489 625l299 389
l9 12q99 127 173 156q29 10 49 10q1 1 3 1t3 1q33 12 33 25q0 20 -39 20q-1 0 -15.5 -1t-21.5 -1t-13 -1q-91 -11 -155 -11q-32 0 -89 5q-55 5 -56 5q-24 2 -43 2q-18 0 -29.5 -6t-11.5 -14q0 -16 41 -24q4 0 6 -1q4 0 7 -1q8 -1 23 -3.5l21 -3.5q59 -12 59 -66
q0 -33 -43 -112q-42 -79 -108 -162l-139 -174l-281 360q-55 72 -55 115q0 46 94 47q2 0 6 1l4 1q34 4 42.5 8.5t8.5 16.5q0 7 -8.5 13.5t-19.5 6.5h-5q-4 -1 -10.5 -1.5t-11.5 -0.5q-76 -12 -244 -12q-106 0 -177 6q-8 0 -13 1q-39 3 -55 3q-45 0 -45 -22q-3 -10 12.5 -15.5
t23.5 -5.5q94 -28 148 -96z" />
    <glyph glyph-name="Y" unicode="Y" horiz-adv-x="1460" 
d="M829 229v326q128 193 275 443q136 234 153 255q53 68 129 78q1 1 7 3q28 10 28 24q0 16 -26 16q-5 0 -15 -2h-2q-77 -6 -155 -6q-88 0 -143 4q-26 2 -42 2q-41 0 -41 -20q0 -17 48 -26q6 -1 18.5 -3.5l17.5 -3.5q58 -12 58 -80q0 -79 -234 -462q-96 -160 -110 -183
l-275 530q-45 85 -45 129q0 61 86 78q13 3 36 3q36 2 36 20q0 12 -11 17t-38 5q-4 0 -35 -1t-45 -1q-16 0 -81 -4t-130 -4q-53 0 -141 5q-7 1 -14 1q-24 2 -36 2q-45 0 -45 -22q1 -22 52 -29q6 -1 14.5 -2t11.5 -2q57 -10 118 -121q8 -14 9 -16l354 -641v-312
q0 -82 -14 -116q-14 -32 -52 -50q-29 -14 -79 -18q-3 0 -5 -1q-50 -6 -50 -26q0 -22 39 -22q11 0 24 1q119 9 244 9q124 0 244 -9q13 -1 24 -1q37 0 37 22q0 18 -50 26q-3 1 -5 1q-51 4 -79 19q-35 16 -51 49q-14 34 -14 116z" />
    <glyph glyph-name="Z" unicode="Z" horiz-adv-x="1231" 
d="M133 0h940q39 0 49.5 9t10.5 42v37q0 78 9 164t9 92q0 33 -21 33q-16 0 -32 -66q-17 -68 -41 -112q-43 -79 -122 -113q-78 -33 -222 -33h-383l780 1262l6 10q12 18 12 25q0 18 -45 18h-874q-33 0 -43 -6.5t-10 -30.5v-45q0 -67 -7 -129q-6 -66 -6 -70q0 -43 19 -43
q18 0 31 60t36 98q37 62 96 88q57 25 185 25h367l-783 -1276q-10 -17 -10 -23q0 -9 10 -12.5t39 -3.5z" />
    <glyph glyph-name="bracketleft" unicode="[" horiz-adv-x="672" 
d="M164 -401h436v65h-299v1643h299v61h-436v-1769z" />
    <glyph glyph-name="backslash" unicode="\" horiz-adv-x="557" 
d="M528 -190h80l-516 1593h-80z" />
    <glyph glyph-name="bracketright" unicode="]" horiz-adv-x="672" 
d="M508 -401v1769h-436v-61h299v-1643h-299v-65h436z" />
    <glyph glyph-name="asciicircum" unicode="^" 
d="M934 1462l-522 -565h90l520 436l518 -436h92l-520 565h-178z" />
    <glyph glyph-name="underscore" unicode="_" horiz-adv-x="1024" 
d="M0 -365v-118h1024v118h-1024z" />
    <glyph glyph-name="grave" unicode="`" horiz-adv-x="1024" 
d="M680 1036l-287 299q-34 35 -54.5 47.5t-41.5 12.5q-33 0 -54.5 -20.5t-21.5 -51.5q0 -41 64 -82l329 -205h66z" />
    <glyph glyph-name="a" unicode="a" horiz-adv-x="1012" 
d="M639 516v-287q0 -66 -77 -122t-161 -56q-63 0 -100 41t-37 111q0 90 86 162q84 72 289 151zM633 115q14 -66 62.5 -105t117.5 -39q64 0 116 37q54 37 54 70q0 18 -18 18q-7 0 -36 -20q-26 -19 -48 -19q-68 0 -68 111v520q0 121 -85.5 178.5t-266.5 57.5q-161 0 -258 -48
t-97 -122q0 -34 20 -55t52 -21q40 0 58 19q20 19 30 87q6 47 53 73t123 26q101 0 149 -39t48 -121v-162q-342 -124 -455 -208q-110 -83 -110 -193q0 -86 56 -136.5t153 -50.5q200 0 350 142z" />
    <glyph glyph-name="b" unicode="b" horiz-adv-x="1120" 
d="M268 96q146 -123 305 -123q214 0 337 131q124 130 124 357q0 203 -117 330t-305 127q-99 0 -175 -31.5t-118 -89.5v616v21q0 26 -4 33.5t-16 7.5t-48 -9q-68 -12 -144 -22l-50 -6l-2 -1q-59 -6 -59 -24q0 -10 10 -15t41 -7q1 -1 5 -1q34 -5 49 -10q27 -9 36 -34
q10 -24 10 -101v-1208v-17q1 -26 13 -26q10 0 22 12zM313 264v344q0 123 62 186.5t180 63.5q138 0 214 -106q77 -107 77 -295q0 -211 -78.5 -319.5t-230.5 -108.5q-224 0 -224 235z" />
    <glyph glyph-name="c" unicode="c" horiz-adv-x="899" 
d="M59 438q0 -218 125 -343q125 -124 346 -124q131 0 222 47q90 47 90 107q0 25 -27 25q-16 0 -37 -28q-20 -28 -33 -38q-54 -49 -172 -49q-144 0 -227 107q-82 107 -82 300q0 206 79 322q79 117 216 117q55 0 81 -15t52 -78q15 -34 34.5 -48.5t49.5 -14.5q31 0 48.5 17.5
t17.5 48.5q0 58 -74 96q-73 39 -188 39q-218 0 -355 -125q-79 -72 -122.5 -166.5t-43.5 -196.5z" />
    <glyph glyph-name="d" unicode="d" horiz-adv-x="1243" 
d="M860 135q14 -97 26 -130q10 -30 27 -30q11 0 69 19q56 18 112 31q4 1 12.5 2.5t13.5 2.5q60 12 60 29q-1 10 -8 14t-32 7q-34 0 -59 12q-63 34 -63 148v1206q0 29 -25 29q-1 0 -8.5 -1t-28.5 -4t-40 -6q-67 -10 -146 -16q-15 -2 -39 -3q-51 -3 -51 -22t43 -23
q48 -5 65 -11q28 -10 38 -27.5t10 -56.5v-512q-113 129 -306 129q-190 0 -316 -140t-126 -352q0 -194 128 -325q127 -130 321 -130q96 0 173.5 38.5t149.5 121.5zM842 602v-278q0 -135 -73 -212q-72 -77 -198 -77q-131 0 -207 108q-75 108 -75 297q0 196 78 310t211 114
q123 0 193.5 -69.5t70.5 -192.5z" />
    <glyph glyph-name="e" unicode="e" horiz-adv-x="1016" 
d="M299 621q18 123 85 192.5t169 69.5q90 0 146 -59q55 -58 55 -156q0 -26 -8.5 -36.5t-28.5 -10.5h-418zM287 561h600q35 0 44 8.5t9 36.5q0 130 -112 224q-113 96 -271 96q-208 0 -348 -152q-65 -71 -100 -161.5t-35 -186.5q0 -195 133 -325t340 -130q142 0 249 62
q107 63 107 125q0 22 -20 22q-15 0 -38 -24q-8 -9 -20 -21q-51 -46 -101 -66t-116 -20q-146 0 -237 114q-92 116 -92 296q0 51 8 102z" />
    <glyph glyph-name="f" unicode="f" horiz-adv-x="659" 
d="M399 176v637h207q29 0 39 5.5t10 19.5q0 28 -63 28h-193v308q0 112 50 176.5t137 64.5q116 0 145 -78q2 -5 7 -20q19 -64 75 -64q28 0 47 18.5t19 45.5q0 65 -71 102t-196 37q-206 0 -298 -108q-91 -106 -91 -351v-131h-125q-39 0 -39 -28q0 -25 43 -25h121v-637
q0 -65 -11 -85q-10 -18 -45 -32q-29 -12 -66 -16q-1 -1 -4 -1t-5 -1q-37 -7 -37 -25q0 -20 35 -20q2 0 78 6t151 6q77 0 163 -6t91 -6q43 0 43 20q0 17 -47 25q-2 0 -5 0.5t-5 1.5q-49 4 -88 16q-45 14 -58 33q-14 20 -14 84z" />
    <glyph glyph-name="g" unicode="g" horiz-adv-x="1128" 
d="M305 600q0 130 55 207q56 78 144 78q100 0 156.5 -76t56.5 -213q0 -134 -55.5 -209.5t-153.5 -75.5q-95 0 -149 77t-54 212zM358 297q-93 -18 -141.5 -65t-48.5 -119q0 -97 82.5 -142t264.5 -47q205 -1 279 -46q72 -44 72 -152q0 -111 -83 -174.5t-228 -63.5
q-151 0 -239 57q-87 57 -87 154q0 102 79 157q11 8 11 11q0 13 -18.5 21t-50.5 8q-60 0 -107 -51q-47 -53 -47 -119q0 -127 122 -208t317 -81q216 0 341 95t125 259t-106 239q-107 75 -349 81h-42q-236 4 -238 67q0 42 43 61q44 20 209 33q193 16 284 93t91 223
q0 108 -76 211q63 39 90 39q29 0 69 -38q41 -38 68 -38t45.5 19t18.5 46q0 43 -34 68t-91 25q-68 0 -166 -68l-33 -21q-111 95 -268 95q-165 0 -275 -95q-108 -95 -108 -237q0 -102 59 -179.5t166 -117.5z" />
    <glyph glyph-name="h" unicode="h" horiz-adv-x="1241" 
d="M399 752v690q0 32 -22 33q-3 0 -80 -17q-87 -19 -149 -28q-4 -1 -16 -3q-66 -11 -66 -28q0 -9 8.5 -13.5t34.5 -9.5q35 -5 57 -14q26 -10 37 -31q10 -19 10 -78v-1077q0 -62 -11 -84q-11 -20 -38 -33q-20 -7 -48 -14q-2 0 -5 -0.5t-5 -1.5q-40 -6 -40 -25q0 -22 32 -22
q4 0 71 6t134 6q66 0 135 -6t72 -6q31 0 31 18q0 12 -8.5 18.5t-32.5 10.5q-33 4 -58 16q-28 13 -39 34q-10 19 -10 83v387q0 125 76 210t184 85q193 0 193 -217v-465q0 -62 -11 -84q-11 -20 -38 -33q-20 -7 -48 -14q-2 0 -5 -0.5t-5 -1.5q-41 -6 -41 -25q0 -22 31 -22
q3 0 72 6t135 6t134 -6t71 -6q33 0 33 18q0 12 -8.5 18.5t-32.5 10.5q-33 4 -58 16q-28 13 -39 34q-10 19 -10 83v477q0 130 -78 199.5t-225 69.5q-210 0 -324 -170z" />
    <glyph glyph-name="i" unicode="i" horiz-adv-x="565" 
d="M160 1354q0 -44 31 -74.5t75 -30.5t74.5 30.5t30.5 74.5t-31 75t-74 31q-44 0 -75 -31t-31 -75zM197 733v-557q0 -60 -11 -82t-39 -35q-23 -12 -57 -16q-26 -6 -33.5 -12t-7.5 -17q0 -18 31 -18q1 0 70 6t137 6q67 0 135 -6t70 -6q32 0 32 18q0 13 -8 19t-33 10
q-35 5 -57 16q-28 13 -39 33q-10 20 -10 84v729q0 31 -23 31q-5 0 -74 -25q-70 -24 -141 -39l-17.5 -3.5t-18.5 -3.5q-46 -7 -48 -25q0 -13 36 -16q3 -1 7 -1q41 0 60 -8q22 -8 30.5 -25t8.5 -57z" />
    <glyph glyph-name="j" unicode="j" horiz-adv-x="565" 
d="M197 1352q0 -44 31 -74.5t75 -30.5t74.5 30.5t30.5 74.5t-31 75t-74 31q-44 0 -75 -31t-31 -75zM242 -225q0 -153 -50 -223t-159 -70q-104 0 -139 76l-1 1q-1 1 -1 2q-31 70 -80 70q-72 0 -72 -67q0 -57 79 -91q78 -36 206 -36q195 0 296 90t101 266v1108q0 37 -21 37
q-2 0 -17 -6q-85 -35 -210 -62l-5 -1q-93 -18 -93 -38q0 -15 45 -20h6q43 0 63 -6q29 -9 40.5 -33.5t11.5 -81.5v-915z" />
    <glyph glyph-name="k" unicode="k" horiz-adv-x="1126" 
d="M229 1253v-1077q0 -64 -10 -84q-11 -20 -39 -33q-23 -12 -57 -16q-26 -6 -33.5 -12t-7.5 -17q0 -18 31 -18q1 0 70 6t136 6q68 0 136 -6q67 -6 69 -6q33 0 33 18q0 12 -8.5 18.5t-32.5 10.5q-34 4 -57 16q-29 13 -39 33t-10 84v238q6 2 12 2q24 0 74 -54l317 -344
q14 -16 43 -16q1 0 5 0.5t12.5 1t17.5 0.5q44 2 63 2q23 0 42 -1t44 -1q32 0 44 5t12 18q0 7 -15 14q-1 1 -2 1t-2 1q-65 22 -139 100l-383 392l156 172q107 121 166 143q14 6 38 10h2q31 7 31 25q0 11 -9 14.5t-44 3.5q-13 0 -62 -3t-85 -3q-42 0 -85 3t-45 3q-14 0 -19 -4
t-5 -14q0 -19 42 -27q2 0 21 -4q28 -5 39 -13t11 -24q0 -25 -39 -76t-131 -147l-131 -137v985q-1 18 -5 25t-16 8q-7 0 -82 -18q-70 -17 -142 -28q-3 -1 -9.5 -1.5t-9.5 -0.5q-60 -9 -60 -30q0 -12 43 -21q4 0 7 -1q26 -6 48 -13q29 -12 39 -33t10 -76z" />
    <glyph glyph-name="l" unicode="l" horiz-adv-x="563" 
d="M377 176v1266q0 33 -21 33q-3 -1 -23 -6q-97 -25 -204 -39q-2 -1 -5 -1.5t-5 -0.5q-70 -10 -70 -31q1 -8 9 -12t35 -9q3 0 6 -1q26 -6 48 -13q29 -12 39.5 -33.5t10.5 -75.5v-1077q0 -62 -11 -84q-10 -20 -39 -33q-23 -12 -57 -16q-26 -6 -33.5 -12t-7.5 -17
q0 -18 31 -18q1 0 70 6t137 6q67 0 136 -6t71 -6q30 0 30 18q0 13 -8 19t-33 10q-35 5 -57 16q-28 13 -39 33q-10 20 -10 84z" />
    <glyph glyph-name="m" unicode="m" horiz-adv-x="1806" 
d="M393 741q-6 124 -14 158q-7 33 -27 33q-10 0 -73 -22q-64 -21 -121 -33q-5 -2 -13 -3q-65 -14 -65 -30q0 -9 7.5 -12.5t33.5 -6.5h3q35 -4 52 -12q27 -13 38 -44q11 -30 11 -101v-492q0 -64 -10 -84q-11 -20 -39 -33q-23 -12 -57 -16q-26 -6 -33.5 -12t-7.5 -17
q0 -18 31 -18q1 0 70 6t136 6q68 0 137 -6t70 -6q31 0 31 18q0 12 -8.5 18.5t-32.5 10.5q-34 4 -57 16q-29 13 -39 33t-10 84v385q0 137 65 217q66 80 176 80q88 0 133 -51t45 -150v-481q0 -59 -11 -83q-10 -21 -39 -33q-27 -13 -56 -17q-26 -6 -33.5 -12t-7.5 -17
q0 -18 31 -18q1 0 70 6t136 6q69 0 136 -6t69 -6q31 0 31 18q0 12 -8.5 18.5t-32.5 10.5q-32 5 -55 16q-29 13 -39 33t-10 84v385q0 138 64 217q65 80 175 80q88 0 133 -51t45 -150v-481q0 -64 -10 -84q-11 -20 -39 -33q-23 -12 -57 -16q-26 -6 -33.5 -12t-7.5 -17
q0 -18 31 -18q1 0 70 6t136 6q68 0 137 -6t70 -6q31 0 31 18q0 12 -8.5 18.5t-32.5 10.5q-34 4 -57 16q-29 13 -39 33t-10 84v451q0 155 -69.5 227t-217.5 72q-103 0 -188.5 -46.5t-141.5 -134.5q-18 87 -89 134t-183 47q-210 0 -322 -185z" />
    <glyph glyph-name="n" unicode="n" horiz-adv-x="1245" 
d="M225 176q0 -64 -10 -84q-11 -20 -39 -33q-20 -7 -48 -14q-2 0 -5 -0.5t-4 -1.5q-41 -6 -41 -25q0 -22 31 -22q2 0 71 6q70 6 135 6q67 0 134 -6t71 -6q33 0 33 18q0 12 -8.5 18.5t-32.5 10.5q-34 4 -57 16q-28 13 -39 34q-10 19 -10 83v387q0 125 75 210t183 85
q192 0 192 -217v-465q0 -64 -10 -84t-39 -33q-20 -7 -48 -14q-2 0 -5 -0.5t-4 -1.5q-41 -6 -41 -25q0 -22 32 -22q3 0 71 6t134 6t135 -6t72 -6q31 0 31 18q0 12 -8.5 18.5t-32.5 10.5q-33 4 -58 16q-28 13 -39 34q-10 19 -10 83v477q0 131 -78.5 202t-224.5 71
q-217 0 -338 -195q-1 10 -2.5 34t-2.5 34q-10 133 -42 133q-7 0 -69 -22q-60 -20 -121 -33q-6 -1 -15 -3q-65 -14 -65 -30q0 -14 38 -20q4 0 5 -1q33 0 55 -12q28 -15 38.5 -45t10.5 -98v-492z" />
    <glyph glyph-name="o" unicode="o" horiz-adv-x="1126" 
d="M272 446q0 201 78 321q80 120 207 120q141 0 217 -114q78 -113 78 -318q0 -217 -75 -329t-220 -112q-136 0 -210.5 112.5t-74.5 319.5zM74 449q0 -208 139 -343t354 -135q200 0 340 144q69 70 106.5 159.5t37.5 184.5q0 87 -39 174.5t-109 157.5q-140 135 -330 135
q-211 0 -355 -138q-144 -136 -144 -339z" />
    <glyph glyph-name="p" unicode="p" horiz-adv-x="1245" 
d="M393 -391v495q102 -122 279 -122q200 0 330 133q131 134 131 342q0 207 -127 337q-126 132 -322 132q-197 0 -305 -156q-1 9 -3.5 30t-3.5 33q-12 117 -38 117q-10 0 -72 -22q-64 -21 -121 -33q-19 -4 -21 -4q-57 -11 -57 -27q1 -13 36 -19q3 -1 5 -1h2q35 -4 54 -13
q27 -14 38 -44t11 -101v-1077q0 -63 -10 -82q-11 -19 -39 -33q-24 -11 -57 -16q-26 -6 -34 -12.5t-8 -16.5q0 -18 31 -18q2 0 6.5 0.5t12 1t14.5 0.5q90 10 178 10q67 0 136 -6q70 -6 71 -6q31 0 31 18q0 12 -8.5 18.5t-32.5 10.5q-33 4 -58 16q-28 14 -39 33q-10 19 -10 82
zM383 432q0 197 19 261q20 69 65 108q76 67 178 67q137 0 211 -108t74 -309q0 -192 -78 -300t-215 -108q-60 0 -120 29q-58 28 -89 73q-25 37 -35 98q-10 59 -10 189z" />
    <glyph glyph-name="q" unicode="q" horiz-adv-x="1135" 
d="M287 434q0 210 78 326q78 117 217 117q63 0 115 -26.5t83 -74.5q23 -34 32 -94q9 -62 9 -201q0 -167 -14 -243q-13 -72 -49 -117q-34 -41 -87.5 -64.5t-113.5 -23.5q-129 0 -199.5 105t-70.5 296zM981 -397v1134q0 56 4 135q0 29 -20 29q-7 0 -47 -27q-41 -26 -74 -26
l-90 38q-88 38 -189 38q-207 0 -345 -140t-138 -348q0 -197 125 -330q126 -131 313 -131q183 0 281 121v-493q0 -62 -11 -82t-38 -33q-24 -11 -57 -16q-26 -6 -34 -12.5t-8 -16.5q0 -18 31 -18l8 1q7 0 24.5 1.5t37.5 2.5q78 5 137 5q60 0 135 -5q20 -1 37.5 -2.5t24.5 -1.5
l8 -1q32 0 32 18q0 12 -7.5 18t-33.5 11q-33 5 -57 16q-28 14 -39 33q-10 19 -10 82z" />
    <glyph glyph-name="r" unicode="r" horiz-adv-x="895" 
d="M406 715q-7 55 -10 89q-13 130 -28 130q-16 0 -86 -19q-66 -18 -150 -34q-75 -16 -75 -33q0 -13 8.5 -18t36.5 -5q38 0 62 -8q40 -15 57 -53.5t17 -116.5v-471q0 -62 -11 -84q-11 -20 -39 -33q-23 -12 -57 -16q-26 -6 -33.5 -12t-7.5 -17q0 -18 31 -18q1 0 70 6t137 6
q67 0 136 -6t71 -6q30 0 30 18q0 12 -8.5 18.5t-32.5 10.5q-35 5 -57 16q-29 13 -39 33t-10 84v387q0 124 58 200q59 77 149 77q60 0 84 -57q3 -7 8 -17q22 -45 67 -45q32 0 51 22t19 60q0 48 -43 78t-113 30q-95 0 -172.5 -52t-119.5 -144z" />
    <glyph glyph-name="s" unicode="s" horiz-adv-x="782" 
d="M102 262v-256q0 -18 17 -18q11 0 33 18q22 19 36 19q8 0 34 -13q90 -43 171 -43q145 0 225 76q82 76 82 209q0 149 -100 221q-31 23 -104 61q-79 43 -90 50q-113 64 -142 99q-28 34 -28 83q0 50 39 81.5t102 31.5q118 0 188 -135q9 -18 17 -38q16 -40 32 -40q17 0 17 22
v209q0 9 -5 16t-12 7q-3 0 -27 -15q-25 -14 -50 -14q-11 0 -63 16q-56 17 -101 17q-117 0 -188 -70q-72 -69 -72 -180q0 -86 56 -154q54 -64 196 -139q6 -4 14 -8q194 -105 194 -203q0 -64 -52 -109q-51 -45 -126 -45q-147 0 -229 168q-13 27 -23 61q-11 38 -24 38
q-7 0 -12 -7t-5 -16z" />
    <glyph glyph-name="t" unicode="t" horiz-adv-x="672" 
d="M172 840v-607q0 -141 54 -199q54 -57 184 -57q98 0 172 42q73 43 73 90q0 11 -7 19.5t-17 8.5q-9 0 -54 -49q-43 -49 -100 -49q-68 0 -99.5 43.5t-31.5 140.5v617h184q62 0 62 30q0 19 -11 25t-49 6h-188v205q0 29 -18 29q-10 0 -44 -55q-33 -54 -75 -99q-35 -38 -88 -78
q-49 -36 -49 -45q0 -18 39 -18h63z" />
    <glyph glyph-name="u" unicode="u" horiz-adv-x="1243" 
d="M840 725v-389q0 -126 -75 -212q-75 -85 -183 -85q-193 0 -193 219v586q0 34 -9 46.5t-32 12.5q-20 0 -57 -3q-38 -3 -53 -3q-38 0 -79 4t-59 4q-39 0 -39 -18q0 -13 8.5 -19.5t35.5 -11.5q30 -5 55 -14q27 -13 38 -33t11 -84v-438q0 -163 72.5 -237.5t230.5 -74.5
q222 0 338 193q1 -4 1.5 -13.5t0.5 -14.5q12 -173 43 -173q11 0 71 22q59 20 121 34q2 0 28 5q50 9 50 25q0 13 -36 20q-2 0 -4 0.5t-3 0.5q-36 4 -53 12q-27 14 -38 43q-11 31 -11 102v613q0 34 -9 46.5t-32 12.5q-19 0 -57 -3t-54 -3q-41 0 -81 4t-54 4q-41 0 -41 -18
q0 -13 8.5 -19.5t34.5 -11.5q30 -5 56 -14q27 -13 38 -33t11 -84z" />
    <glyph glyph-name="v" unicode="v" horiz-adv-x="1018" 
d="M592 199l-193 444q-49 114 -49 158q0 42 45 53q23 6 37 6q2 0 3 1q38 6 38 20q0 18 -43 18q-5 0 -59 -3q-52 -3 -101 -3q-66 0 -127 4q-60 4 -80 4q-34 0 -34 -18q0 -19 34 -25l8 -2q26 -7 46 -16q27 -11 63 -92l285 -687q12 -32 13 -35q21 -55 46 -55q23 0 35 29
l254 639q34 86 61 138q24 44 46 63q10 8 36 20l1 1q24 11 24 20q0 18 -37 18q-8 0 -45 -3q-38 -3 -68 -3q-33 0 -69 4t-51 4q-31 0 -31 -18q0 -14 37 -24q1 -1 2 -1q42 -11 59 -27.5t17 -46.5q0 -33 -41 -154q-42 -124 -162 -431z" />
    <glyph glyph-name="w" unicode="w" horiz-adv-x="1468" 
d="M725 631l242 -617q9 -27 16.5 -35t20.5 -8q25 0 38 41l236 703q18 57 35 85.5t41 43.5q22 16 46 16q2 1 8 3q19 7 19 18q0 20 -30 20q-23 0 -76 -3t-82 -3q-34 0 -70 3q-35 3 -36 3q-39 0 -39 -18q0 -16 35 -22q1 -1 4 -1q2 0 13 -2.5t17 -3.5q37 -9 51.5 -25t14.5 -47
q0 -40 -12 -77l-156 -504l-260 678l-2 4q-7 18 -19 18q-9 0 -20 -23v-1l-240 -654l-159 499q-11 32 -11 64q0 58 70 70q2 0 13 1.5t13 2.5q27 3 35 6.5t8 12.5q0 24 -40 24q-9 0 -18 -1q-81 -7 -173 -7q-74 0 -167 5q-11 1 -19 1q-39 0 -39 -20q0 -16 31 -23h2q28 -5 44 -14
q54 -26 74 -90l240 -758q10 -25 33 -25q19 1 33 30z" />
    <glyph glyph-name="x" unicode="x" horiz-adv-x="1124" 
d="M467 418l-186 -230q-96 -117 -155 -135q-28 -8 -40 -10h-1q-44 -11 -44 -31q0 -6 6.5 -11t15.5 -5q7 0 15 1q71 7 158 7q62 0 137 -5q9 -1 16 -1q39 0 39 18q0 16 -36 23q-12 3 -35 10q-48 20 -48 60q0 22 23 51l172 215l192 -236l3 -3q30 -38 30 -58q0 -28 -67 -35h-3
h-1q-34 -4 -45 -9.5t-11 -17.5q0 -18 41 -18q8 0 18 1q97 5 183 5q105 0 195 -7q9 -1 18 -1q37 0 39 20q0 8 -72 39q-71 31 -133 105l-283 338l205 247q79 96 147 113q10 3 29 6q29 5 29 21q0 18 -31 18q-15 0 -60 -4t-93 -4q-37 0 -88 3q-49 3 -64 3q-35 0 -35 -18
q0 -20 50 -28q3 -1 5 -1q38 -8 50 -17.5t12 -29.5q0 -35 -53 -100l-136 -166l-194 245q-16 23 -16 41q0 25 57 32q57 9 57 24q0 20 -37 20q-20 0 -75 -4t-111 -4q-76 0 -169 5q-11 1 -19 1q-35 0 -35 -18q0 -11 46 -29q48 -17 85 -63z" />
    <glyph glyph-name="y" unicode="y" horiz-adv-x="1018" 
d="M582 207l-207 528q-14 36 -15 60q0 25 16.5 38.5t55.5 20.5q2 1 7.5 1.5t8.5 0.5q46 7 46 23q0 10 -12.5 17t-30.5 7q-10 0 -87 -5t-120 -5q-45 0 -105 5q-15 1 -29 2.5t-20 1.5l-6 1q-20 0 -34.5 -6.5t-14.5 -15.5q0 -11 7.5 -17t28.5 -10q23 -6 38 -12q40 -19 79 -110
q1 -2 2.5 -6t2.5 -6l268 -628q22 -55 22 -78q0 -38 -63 -175q-10 -22 -14 -31q-39 -88 -67 -138q-23 -40 -42 -57q-17 -13 -49 -28q-86 -39 -86 -101q0 -28 15 -45t40 -17q95 0 360 642l5 12l262 637q46 111 86 133q12 6 27 11q28 10 28 22q0 22 -39 22q-6 0 -37 -4t-67 -4
q-38 0 -75 4q-36 4 -50 4q-37 0 -37 -22q0 -15 35 -20q8 -1 17.5 -3t10.5 -2q33 -8 47.5 -22.5t14.5 -38.5q0 -42 -31 -115z" />
    <glyph glyph-name="z" unicode="z" horiz-adv-x="903" 
d="M293 45l520 825q6 10 6 23q0 8 -67 8h-564q-47 0 -57 -34q-10 -33 -10 -150q0 -29 22 -29q19 0 29 40q6 27 16 48q22 46 63 63q42 17 138 17h217l-518 -811q0 -1 -1 -1l-1 -2q-12 -18 -12 -28q0 -14 18 -14h699q26 0 26 39v18q0 25 6 70q6 47 6 66q0 34 -20 34
q-18 0 -35 -51q-17 -52 -35 -76q-22 -31 -86 -43q-63 -12 -262 -12h-98z" />
    <glyph glyph-name="braceleft" unicode="{" horiz-adv-x="1024" 
d="M846 1516h-10q-216 0 -298 -74q-81 -74 -81 -273v-213q0 -158 -58 -216q-59 -59 -223 -74v-60q164 -14 222 -73q59 -61 59 -218v-213q0 -198 81 -272q82 -74 298 -74h10v51q-141 1 -195 55q-51 53 -51 208v143q0 226 -61 308q-62 83 -226 114q165 32 226 113
q61 82 61 309v143q0 157 52 209q53 55 194 56v51z" />
    <glyph glyph-name="bar" unicode="|" horiz-adv-x="1024" 
d="M449 1565v-2048h126v2048h-126z" />
    <glyph glyph-name="braceright" unicode="}" horiz-adv-x="1024" 
d="M178 1516v-51q141 -1 194 -56q52 -52 52 -209v-143q0 -227 61 -309q61 -81 226 -113q-164 -31 -226 -114q-61 -82 -61 -308v-143q0 -156 -52 -208q-52 -54 -194 -55v-51h10q215 0 297 74q82 73 82 272v213q0 157 59 218q58 59 222 73v60q-164 15 -223 74q-58 58 -58 216
v213q0 200 -82 273q-82 74 -297 74h-10z" />
    <glyph glyph-name="asciitilde" unicode="~" horiz-adv-x="1706" 
d="M1530 758q-117 -83 -208 -119.5t-177 -36.5q-89 0 -254 59q-7 3 -13.5 5.5t-12.5 4.5l-9 3q-111 40 -175 52q-58 13 -116 13q-178 0 -387 -145v-133q119 84 211 122q93 38 174 38q99 0 302 -72q30 -11 87 -31q108 -35 191 -35q185 0 387 144v131z" />
    <glyph glyph-name="exclamdown" unicode="&#xa1;" horiz-adv-x="616" 
d="M332 1042h-49v-155q0 -213 -42 -467q-42 -252 -42 -293q0 -70 28.5 -108.5t79.5 -38.5q52 0 81.5 40t29.5 111q0 23 -43 269q-43 248 -43 485v157zM424 1288q0 48 -34 81q-34 34 -83 34q-48 0 -81 -33.5t-33 -81.5q0 -49 33 -83t81 -34t82 34q35 35 35 83z" />
    <glyph glyph-name="cent" unicode="&#xa2;" horiz-adv-x="1124" 
d="M461 180q-43 54 -62.5 122.5t-19.5 166.5q0 208 80 324t221 116q24 0 59 -10zM512 127l285 729q8 -19 12 -29q30 -73 80 -73q32 0 49.5 17t17.5 48q0 73 -129 115l103 262h-70l-101 -250q-49 6 -85 6q-208 0 -354 -143q-144 -143 -144 -350q0 -293 236 -406l-115 -291h72
l102 265q75 -27 178 -27q130 0 218 46q89 47 89 106q0 26 -26 26q-16 0 -37 -27q-20 -28 -33 -38q-58 -52 -170 -52q-92 0 -178 66z" />
    <glyph glyph-name="sterling" unicode="&#xa3;" horiz-adv-x="1124" 
d="M440 141q-32 -55 -89 -90q-58 -35 -111 -35q-55 0 -84 26t-29 73q0 46 30.5 73t82.5 27q110 0 200 -74zM487 109l45 -27q2 -1 9 -5.5t13 -7.5q163 -100 271 -100q111 0 185 77q73 76 73 192q0 20 -20 20q-8 0 -22 -23q-12 -23 -21 -30q-74 -74 -205 -74t-285 57
q64 138 64 308q0 56 -25 186h320v74h-332q-45 167 -58 235q-16 83 -16 142q0 103 54 167q55 64 143 64q78 0 119.5 -34t56.5 -111q12 -55 33.5 -78t60.5 -23q32 0 55 23t23 57q0 84 -93 145q-94 62 -226 62q-182 0 -283 -102q-100 -101 -100 -285q0 -104 45 -262h-240v-74
h262q74 -202 74 -365q0 -43 -6 -101q-104 56 -205 56q-82 0 -132 -45.5t-50 -120.5q0 -65 43 -102t121 -37q76 0 142.5 38t106.5 104z" />
    <glyph glyph-name="currency" unicode="&#xa4;" horiz-adv-x="1241" 
d="M623 1200q129 0 221 -92t92 -221t-92 -223q-92 -93 -221 -93q-131 0 -223 92q-91 92 -91 224q0 129 92 221t222 92zM158 1419l-72 -73l207 -205q-88 -115 -88 -256t88 -256l-207 -205l72 -74l207 207q111 -88 256 -88q147 0 260 88l204 -207l72 74l-205 205
q86 113 86 256q0 141 -86 256l205 205l-72 73l-204 -207q-119 91 -260 91q-137 0 -256 -91z" />
    <glyph glyph-name="yen" unicode="&#xa5;" horiz-adv-x="1280" 
d="M885 834l200 333q45 76 78 111t70 47q18 6 33 6l1 1q38 11 38 26q-2 16 -27 16q-5 0 -13 -2q-61 -6 -139 -6q-124 0 -173 4q-22 2 -29 2q-43 0 -43 -20q0 -17 49 -26q7 -1 19.5 -3.5l17.5 -3.5q57 -12 57 -80q0 -79 -233 -462q-71 -117 -111 -183l-274 530
q-46 87 -46 129q0 64 84 78q14 3 37 3q35 2 35 20q0 13 -9 17.5t-38 4.5q-19 0 -38 -1t-46 -1q-104 -8 -178 -8q-42 0 -124 5q-8 1 -17 1q-22 2 -39 2q-45 0 -45 -22q0 -21 50 -29q6 -1 14.5 -2.5t10.5 -1.5q60 -11 124 -127l5 -10l193 -348h-313v-62h344l104 -186h-448v-62
h473v-295q0 -83 -15 -116q-14 -32 -50 -49q-28 -15 -79 -19q-2 0 -5 -1q-50 -8 -50 -26q0 -22 37 -22q11 0 24 1q114 9 228 9q103 0 220 -8q5 0 9.5 -0.5t7 -1t5 -0.5h3.5q39 0 39 22q0 20 -49 26q-3 1 -6 1q-48 4 -77 18q-39 20 -54 52q-14 36 -14 114v295h516v62h-492
l115 186h377v62h-344z" />
    <glyph glyph-name="brokenbar" unicode="&#xa6;" horiz-adv-x="1024" 
d="M449 408v-758h126v758h-126zM449 1432v-758h126v758h-126z" />
    <glyph glyph-name="section" unicode="&#xa7;" horiz-adv-x="1024" 
d="M244 657q0 64 43 106t110 42q54 0 119.5 -41.5t155.5 -132.5q57 -59 80.5 -102.5t23.5 -88.5q0 -61 -47 -103t-115 -42q-106 0 -276 176q-94 98 -94 186zM575 262h5q28 -4 47 -4q112 0 180 71q67 71 67 193q0 76 -47 149q-45 72 -176 181l-141 117q-112 92 -141 136
q-29 47 -29 99q0 69 47 111.5t123 42.5q63 0 104 -16.5t41 -41.5q0 -14 -33 -50q-32 -37 -32 -70q0 -37 23 -59.5t61 -22.5q49 0 76.5 28.5t27.5 77.5q0 85 -74 142t-190 57q-126 0 -202 -69t-76 -179q0 -85 46 -158q47 -74 160 -163q-32 6 -55 6q-104 0 -170 -69
q-65 -68 -65 -175q0 -76 48 -162q48 -84 132 -153l198 -164q85 -69 115 -117q33 -50 33 -102q0 -75 -49.5 -119.5t-132.5 -44.5q-70 0 -116 24q-46 22 -46 54q0 4 36 41q36 36 36 73q0 39 -25 61.5t-68 22.5q-45 0 -73.5 -31t-28.5 -81q0 -82 84 -144q84 -63 203 -63
q128 0 205 73q79 73 79 191q0 82 -48 152q-47 71 -159 155z" />
    <glyph glyph-name="dieresis" unicode="&#xa8;" horiz-adv-x="1024" 
d="M215 1190q0 -43 28.5 -71.5t69.5 -28.5q42 0 71.5 29t29.5 71q0 40 -31 70q-30 30 -70 30q-39 0 -69 -30q-29 -31 -29 -70zM596 1190q0 -43 29 -71.5t71 -28.5t70.5 28.5t28.5 71.5q0 40 -29.5 70t-69.5 30t-70 -30t-30 -70z" />
    <glyph glyph-name="copyright" unicode="&#xa9;" horiz-adv-x="1683" 
d="M1120 1096q-11 -62 -63 -62q-10 0 -82 34t-148 34q-169 0 -285 -126q-116 -127 -116 -312q0 -175 118 -297q118 -123 285 -123q227 0 342 209l-34 24q-113 -174 -283 -174q-266 0 -266 381q0 184 62.5 278.5t185.5 94.5q212 0 280 -275h41l-2 314h-35zM844 1303
q119 0 233.5 -48t200.5 -135q85 -85 132.5 -201.5t47.5 -240.5q0 -253 -182 -440q-176 -181 -434 -181q-256 0 -434 181q-89 87 -136 200.5t-47 239.5q0 124 46.5 237.5t134.5 202.5q87 88 201 136.5t237 48.5zM844 1382q-142 0 -272 -53.5t-228 -152.5
q-99 -101 -152 -229.5t-53 -268.5q0 -294 207 -498q208 -205 496 -205q293 0 495 205q207 209 207 498q0 142 -55 271q-53 130 -152 229q-98 98 -227 150q-129 54 -266 54z" />
    <glyph glyph-name="ordfeminine" unicode="&#xaa;" horiz-adv-x="760" 
d="M96 594v-102h598v102h-598zM471 1104v-195q0 -43 -54 -84q-53 -39 -112 -39q-47 0 -72.5 27t-25.5 78q0 59 60 108t204 105zM618 1231q0 172 -272 172q-124 0 -200 -36t-76 -91q0 -27 17.5 -44.5t45.5 -17.5q34 0 51.5 15.5t22.5 51.5q6 42 36 61.5t89 19.5
q75 0 107 -27.5t32 -93.5v-96q-263 -89 -345 -147q-81 -58 -81 -136q0 -64 45 -102.5t121 -38.5q150 0 260 92q13 -42 50.5 -67t88.5 -25q52 0 93 28q42 29 42 50q0 20 -22 20q-11 0 -30 -13t-31 -13q-44 0 -44 69v369z" />
    <glyph glyph-name="guillemotleft" unicode="&#xab;" horiz-adv-x="885" 
d="M571 463q95 111 150 193q57 86 57 108q0 8 -3 11t-11 3t-118 -110q-107 -107 -228 -205q120 -100 227 -207q109 -109 119 -109q14 0 14 15q0 23 -57 107q-59 86 -150 194zM256 463q96 115 149 193q58 85 58 108q0 14 -14 14q-9 0 -119 -110q-107 -107 -228 -205
q120 -100 227 -207q109 -109 120 -109q14 0 14 15q0 24 -58 107q-57 83 -149 194z" />
    <glyph glyph-name="logicalnot" unicode="&#xac;" horiz-adv-x="1706" 
d="M254 858v-117h1083v-385h115v502h-1198z" />
    <glyph glyph-name="sfthyphen" unicode="&#xad;" horiz-adv-x="680" 
d="M94 387h496v139h-496v-139z" />
    <glyph glyph-name="registered" unicode="&#xae;" horiz-adv-x="1683" 
d="M729 719v262q0 72 105 72q90 0 143 -44.5t53 -117.5q0 -83 -61.5 -128.5t-173.5 -45.5q-24 0 -66 2zM469 1092v-43q76 -5 101 -25q26 -21 26 -76v-516q0 -55 -27.5 -76.5t-99.5 -24.5v-40h385v40q-72 4 -98.5 25.5t-26.5 75.5v248h33q168 0 207 -133q6 -23 9 -96
q3 -72 21 -113q32 -66 127 -66q79 0 119.5 45.5t40.5 133.5v12h-43q0 -133 -67 -133q-46 0 -59 88q-4 37 -11 63q-23 86 -71 133q-50 50 -142 78q148 27 217.5 75t69.5 124q0 92 -86 146q-85 55 -232 55h-393zM844 1303q119 0 233.5 -48t200.5 -135q86 -82 132 -201
q48 -117 48 -241q0 -253 -182 -440q-176 -181 -434 -181q-256 0 -434 181q-183 181 -183 440q0 124 46.5 237.5t134.5 202.5t201.5 137t236.5 48zM844 1382q-142 0 -272 -53.5t-228 -152.5q-99 -101 -152 -229.5t-53 -268.5q0 -294 207 -498q101 -100 227 -152.5t263 -52.5
q294 0 495 201q102 102 157.5 232.5t55.5 267.5q0 141 -53 272t-150 228q-98 98 -229 152q-130 54 -268 54z" />
    <glyph glyph-name="overscore" unicode="&#xaf;" horiz-adv-x="1024" 
d="M246 1126h516v127h-516v-127z" />
    <glyph glyph-name="overscore" unicode="&#x2c9;" horiz-adv-x="1024" 
d="M246 1126h516v127h-516v-127z" />
    <glyph glyph-name="degree" unicode="&#xb0;" horiz-adv-x="674" 
d="M338 1372q83 0 142 -59t59 -142q0 -84 -59 -143t-142 -59t-144 59q-59 59 -59 143q0 83 59 142q61 59 144 59zM338 1454q-119 0 -201 -82t-82 -201q0 -117 81 -200q82 -82 200 -82t201 83q84 82 84 199t-83 200t-200 83z" />
    <glyph glyph-name="plusminus" unicode="&#xb1;" horiz-adv-x="1706" 
d="M254 158v-117h1198v117h-1198zM795 1180v-344h-541v-117h541v-344h118v344h539v117h-539v344h-118z" />
    <glyph glyph-name="twosuperior" unicode="&#xb2;" horiz-adv-x="741" 
d="M190 651q29 55 215 189l33 24q2 1 15 10.5t23 17.5q91 66 126 107q51 66 51 154q0 108 -82 172q-81 66 -215 66q-122 0 -199 -60q-77 -59 -77 -149q0 -60 42 -104q43 -42 103 -42q49 0 89 21t40 39q0 6 -10 6q-1 0 -10 -3q-22 -7 -45 -7q-53 0 -86 35t-33 92q0 61 46 101
q46 42 114 42q88 0 138 -51t50 -140q0 -130 -86 -233q-34 -42 -103 -103q-74 -66 -91 -83q-77 -74 -122 -129q-46 -56 -46 -74q0 -6 14 -6q4 0 15 2t14 2h401q44 0 54 -5.5t10 -29.5q0 -4 -1.5 -13.5t-1.5 -11.5q0 -14 15 -14q6 0 10 12l31 140q2 6 2 12q0 16 -31 16
q-8 0 -72 -3q-65 -3 -122 -3q-123 0 -218 4z" />
    <glyph glyph-name="threesuperior" unicode="&#xb3;" horiz-adv-x="741" 
d="M385 1016q106 52 154.5 105t48.5 116q0 67 -61 110q-62 44 -158 44q-105 0 -182 -56q-76 -55 -76 -123q0 -46 34.5 -76t87.5 -30q38 0 72 19q35 20 35 34q0 6 -8 6q-1 0 -10.5 -3t-22.5 -6t-23 -3q-33 0 -58 25.5t-25 58.5q0 55 40 90t103 35q61 0 94 -35t33 -100
q0 -80 -38 -133q-39 -54 -138 -109q-15 -8 -35 -19q-51 -27 -51 -48q0 -9 8.5 -16t19.5 -7q15 0 43 35q32 35 54 48t49 13q139 0 139 -198q0 -236 -197 -236q-43 0 -68.5 18t-41.5 60q-17 43 -29.5 55t-36.5 12q-63 0 -63 -55q0 -50 61 -86q62 -35 154 -35q151 0 262 99
q94 85 94 194q0 91 -67 144t-183 53h-14z" />
    <glyph glyph-name="acute" unicode="&#xb4;" horiz-adv-x="1024" 
d="M328 1036h67l330 205q61 40 61 82q0 32 -20 52t-53 20q-21 0 -41.5 -12.5t-55.5 -47.5z" />
    <glyph glyph-name="mu" unicode="&#xb5;" horiz-adv-x="1120" 
d="M164 193q29 -216 223 -216q191 0 281 218v-23q0 -88 40.5 -139t108.5 -51q154 0 230 163q40 93 40 150q0 37 -26 37q-20 0 -39 -61q-19 -58 -41 -93q-44 -69 -117 -69q-40 0 -66 30t-26 78q0 39 21 137l114 531h-149l-111 -510q-60 -269 -258 -269q-76 0 -118 46t-42 129
q0 47 13 112l104 492h-147l-109 -514q-41 -198 -105 -427q-65 -236 -65 -274q0 -41 21.5 -64.5t58.5 -23.5q77 0 112 272q26 209 52 339z" />
    <glyph glyph-name="paragraph" unicode="&#xb6;" horiz-adv-x="1024" 
d="M948 1479h-479q-178 0 -286 -96q-107 -96 -107 -253q0 -151 101 -246q100 -94 274 -102v-782h96v1401h182v-1401h94v1401h125v78z" />
    <glyph glyph-name="middot" unicode="&#xb7;" horiz-adv-x="561" 
d="M166 723q0 -49 33 -82t82 -33q48 0 80 33t32 82q0 48 -33 81q-31 34 -79 34t-81.5 -33.5t-33.5 -81.5z" />
    <glyph glyph-name="cedilla" unicode="&#xb8;" horiz-adv-x="1024" 
d="M244 -371q110 -43 171 -58q70 -17 122 -17q102 0 160.5 47t58.5 129q0 77 -48 120.5t-135 43.5q-30 -2 -61 -6v112h-63v-188q35 6 61 6q54 0 84.5 -24t30.5 -66q0 -48 -29.5 -70.5t-93.5 -22.5q-95 0 -223 72z" />
    <glyph glyph-name="onesuperior" unicode="&#xb9;" horiz-adv-x="741" 
d="M322 662q0 -43 -14.5 -63t-48.5 -25q-8 -2 -24 -4l-16 -3q-22 -2 -29.5 -5.5t-7.5 -10.5q1 -10 29 -10h18q67 4 144 4q90 0 161 -4h15q30 0 31 10q-1 13 -37 16q-1 0 -16.5 2t-22.5 4q-36 6 -50 25.5t-14 67.5v561q0 68 6 137v14q0 21 -6 21q-2 0 -16 -6
q-67 -31 -149 -43q-24 -4 -47 -5q-48 -5 -48 -16q0 -12 45 -12q5 0 21 -2l32 -4q44 -6 44 -74v-575z" />
    <glyph glyph-name="ordmasculine" unicode="&#xba;" horiz-adv-x="848" 
d="M424 762q-96 0 -151 81q-56 82 -56 220t56 220q56 81 151 81t152 -82q57 -81 57 -219q0 -139 -57 -220t-152 -81zM801 1063q0 142 -111 241q-109 99 -266 99q-156 0 -266 -99q-109 -99 -109 -241q0 -143 109 -243q110 -99 266 -99q157 0 266 100q111 101 111 242z
M102 594v-102h643v102h-643z" />
    <glyph glyph-name="guillemotright" unicode="&#xbb;" horiz-adv-x="885" 
d="M625 463q-95 -115 -150 -196q-57 -83 -57 -105q0 -15 14 -15q8 0 117 109q105 105 229 207q-126 105 -227 206q-109 109 -119 109q-8 0 -11 -3t-3 -11q0 -22 57 -106q57 -82 150 -195zM309 463q-95 -115 -150 -196q-57 -83 -57 -105q0 -15 15 -15q8 0 117 109
q105 105 229 207q-126 105 -227 206q-109 109 -119 109q-15 0 -15 -14q0 -22 57 -106q57 -82 150 -195z" />
    <glyph glyph-name="onequarter" unicode="&#xbc;" horiz-adv-x="1757" 
d="M1448 293h-318l318 354v-354zM1444 252v-154q0 -63 -63 -69q-14 -2 -29 -2q-2 -1 -6.5 -1.5t-6.5 -0.5q-39 -5 -39 -15q2 -14 25 -14q1 0 61 3t117 3q31 0 101 -2q16 0 30 -0.5t21 -1t8 -0.5q33 0 33 14q0 8 -36 14q-4 0 -5 1q-34 0 -51 4q-26 4 -37 19.5t-11 51.5v150
h132q34 0 34 20q0 9 -10.5 15t-25.5 6h-127v469q-1 32 -15 33q-9 -1 -28 -22l-414 -462q-25 -28 -25 -39q0 -20 25 -20h342zM367 -33h86l938 1436h-84zM307 711q0 -41 -13 -59.5t-46 -24.5q-1 -1 -6 -1q-23 -3 -31 -3q-1 -1 -4 -1.5t-5 -0.5q-24 -4 -26 -15q0 -10 27 -10
q8 0 19 1q68 3 134 3q80 0 153 -3q9 -1 15 -1q29 0 29 10t-26 15q-1 0 -4.5 0.5t-4.5 1.5q-8 0 -31 3q-5 0 -6 1q-33 6 -46 24t-13 62v524q0 57 5 127q1 8 1 14q0 19 -8 19q-1 0 -13 -5q-63 -29 -144 -40q-27 -4 -49 -5q-42 -5 -42 -14q0 -12 45 -12q6 -1 26.5 -3.5
t22.5 -2.5q41 -7 41 -70v-534z" />
    <glyph glyph-name="onehalf" unicode="&#xbd;" horiz-adv-x="1757" 
d="M1233 98q26 50 202 175l33 24q15 10 27 19q93 63 129 108q51 57 51 143q0 98 -79 158q-77 61 -205 61q-117 0 -191 -54t-74 -138q0 -57 41 -98q41 -39 99 -39q47 0 84 19q39 20 39 36q-1 6 -9 6h-2q-1 -1 -3 -1.5t-4 -0.5q-27 -8 -46 -8q-49 0 -81 33.5t-32 85.5
q0 56 44 94q45 39 110 39q84 0 131 -47.5t47 -130.5q0 -122 -82 -217q-32 -39 -101 -99q-19 -16 -38.5 -33t-30.5 -26.5t-16 -13.5q-72 -69 -114 -121q-44 -55 -44 -70q0 -6 12 -6q2 0 13.5 2t15.5 2h381q42 0 52 -5q10 -6 10 -28q0 -3 -1.5 -11.5t-1.5 -10.5q0 -15 15 -15
q6 1 10 13l29 129q2 8 2 12q0 14 -29 14q-2 0 -10 -0.5t-24.5 -1t-34.5 -0.5q-82 -2 -117 -2q-118 0 -207 4zM367 -33h86l938 1436h-84zM307 711q0 -41 -13 -59.5t-46 -24.5q-1 -1 -6 -1q-23 -3 -31 -3q-1 -1 -4 -1.5t-5 -0.5q-24 -4 -26 -15q0 -10 27 -10q8 0 19 1
q68 3 134 3q80 0 153 -3q9 -1 15 -1q29 0 29 10t-26 15q-1 0 -4.5 0.5t-4.5 1.5q-8 0 -31 3q-5 0 -6 1q-33 6 -46 24t-13 62v524q0 57 5 127q1 8 1 14q0 19 -8 19q-1 0 -13 -5q-63 -29 -144 -40q-27 -4 -49 -5q-42 -5 -42 -14q0 -12 45 -12q6 -1 26.5 -3.5t22.5 -2.5
q41 -7 41 -70v-534z" />
    <glyph glyph-name="threequarters" unicode="&#xbe;" horiz-adv-x="1759" 
d="M1448 293h-318l318 354v-354zM1444 252v-154q0 -63 -63 -69q-14 -2 -29 -2q-2 -1 -6.5 -1.5t-6.5 -0.5q-39 -5 -39 -15q2 -14 25 -14q1 0 61 3t117 3q31 0 101 -2q16 0 30 -0.5t21 -1t8 -0.5q33 0 33 14q0 8 -36 14q-4 0 -5 1q-34 0 -51 4q-26 4 -37 19.5t-11 51.5v150
h132q34 0 34 20q0 9 -10.5 15t-25.5 6h-127v469q-1 32 -15 33q-9 -1 -28 -22l-414 -462q-25 -28 -25 -39q0 -20 25 -20h342zM367 -33h86l938 1436h-84zM369 1040q100 50 146 99.5t46 107.5q0 62 -58 102t-153 40q-98 0 -171 -51t-73 -113q0 -44 32.5 -72.5t82.5 -28.5
q35 0 70 18q35 20 35 32q0 6 -11 6l-3 -1q-4 -1 -9.5 -3t-12 -3.5t-13.5 -2.5t-13 -1q-32 0 -56 23.5t-24 54.5q0 51 38.5 83t99.5 32q57 0 87.5 -32t30.5 -93q0 -74 -34 -123t-131 -104l-8 -4l-12 -6l-12 -6q-53 -26 -53 -46q0 -8 9 -15t20 -7q13 0 37 29q1 2 4 5
q49 56 98 56q134 0 134 -185q0 -108 -48 -164.5t-141 -56.5q-41 0 -65 16.5t-41 57.5q-14 39 -27 51.5t-35 12.5q-61 0 -61 -52q0 -46 59 -79q60 -33 148 -33q144 0 249 92q91 77 91 180q0 84 -65 134t-175 50h-12z" />
    <glyph glyph-name="questiondown" unicode="&#xbf;" horiz-adv-x="901" 
d="M713 1286q0 48 -35 83q-34 34 -82 34q-49 0 -82 -33.5t-33 -83.5q0 -48 33 -83q34 -34 82 -34t82 34q35 35 35 83zM631 1061h-49v-234h-25q-190 0 -291.5 -84t-101.5 -241q0 -119 49 -229q50 -110 135 -185q58 -50 139 -82q80 -31 154 -31q57 0 93 24.5t36 63.5
q0 84 -108 84q-26 0 -85 -10q-57 -10 -96 -10q-112 0 -184 82q-72 83 -72 213q0 231 275 231h131v408z" />
    <glyph glyph-name="Agrave" unicode="&#xc0;" horiz-adv-x="1356" 
d="M354 500h518l95 -250q30 -77 30 -131q0 -32 -26.5 -49t-85.5 -23q-60 -11 -60 -29q1 -22 54 -22q41 0 124 6t123 6q72 0 149 -4t111 -4q41 0 41 20q0 12 -9.5 17.5t-37.5 9.5q-43 5 -67 16q-37 15 -65 52.5t-58 111.5l-453 1141q-17 43 -39 43q-21 0 -36 -39l-457 -1089
q-41 -98 -72.5 -145t-66.5 -64q-34 -18 -81 -27q-42 -6 -42 -24q0 -23 51 -23q18 0 70 4t102 4q58 0 121 -6q65 -6 69 -6q39 0 39 18q0 13 -9 19t-34 10q-11 0 -47 12q-67 27 -67 103q0 50 26 116zM377 559l246 592l229 -592h-475zM873 1515l-287 299q-34 35 -54.5 47.5
t-41.5 12.5q-33 0 -54.5 -20.5t-21.5 -51.5q0 -41 64 -82l329 -205h66z" />
    <glyph glyph-name="Aacute" unicode="&#xc1;" horiz-adv-x="1356" 
d="M354 500h518l95 -250q30 -77 30 -131q0 -32 -26.5 -49t-85.5 -23q-60 -11 -60 -29q1 -22 54 -22q41 0 124 6t123 6q72 0 149 -4t111 -4q41 0 41 20q0 12 -9.5 17.5t-37.5 9.5q-43 5 -67 16q-37 15 -65 52.5t-58 111.5l-453 1141q-17 43 -39 43q-21 0 -36 -39l-457 -1089
q-41 -98 -72.5 -145t-66.5 -64q-34 -18 -81 -27q-42 -6 -42 -24q0 -23 51 -23q18 0 70 4t102 4q58 0 121 -6q65 -6 69 -6q39 0 39 18q0 13 -9 19t-34 10q-11 0 -47 12q-67 27 -67 103q0 50 26 116zM377 559l246 592l229 -592h-475zM521 1515h67l330 205q61 40 61 82
q0 32 -20 52t-53 20q-21 0 -41.5 -12.5t-55.5 -47.5z" />
    <glyph glyph-name="Acircumflex" unicode="&#xc2;" horiz-adv-x="1356" 
d="M354 500h518l95 -250q30 -77 30 -131q0 -32 -26.5 -49t-85.5 -23q-60 -11 -60 -29q1 -22 54 -22q41 0 124 6t123 6q72 0 149 -4t111 -4q41 0 41 20q0 12 -9.5 17.5t-37.5 9.5q-43 5 -67 16q-37 15 -65 52.5t-58 111.5l-453 1141q-17 43 -39 43q-21 0 -36 -39l-457 -1089
q-41 -98 -72.5 -145t-66.5 -64q-34 -18 -81 -27q-42 -6 -42 -24q0 -23 51 -23q18 0 70 4t102 4q58 0 121 -6q65 -6 69 -6q39 0 39 18q0 13 -9 19t-34 10q-11 0 -47 12q-67 27 -67 103q0 50 26 116zM377 559l246 592l229 -592h-475zM406 1515h59l232 209l233 -209h58
l-232 348h-117z" />
    <glyph glyph-name="Atilde" unicode="&#xc3;" horiz-adv-x="1356" 
d="M354 500h518l95 -250q30 -77 30 -131q0 -32 -26.5 -49t-85.5 -23q-60 -11 -60 -29q1 -22 54 -22q41 0 124 6t123 6q72 0 149 -4t111 -4q41 0 41 20q0 12 -9.5 17.5t-37.5 9.5q-43 5 -67 16q-37 15 -65 52.5t-58 111.5l-453 1141q-17 43 -39 43q-21 0 -36 -39l-457 -1089
q-41 -98 -72.5 -145t-66.5 -64q-34 -18 -81 -27q-42 -6 -42 -24q0 -23 51 -23q18 0 70 4t102 4q58 0 121 -6q65 -6 69 -6q39 0 39 18q0 13 -9 19t-34 10q-11 0 -47 12q-67 27 -67 103q0 50 26 116zM377 559l246 592l229 -592h-475zM984 1812h-52q-27 -86 -96 -86
q-13 0 -56 11l-108 28q-32 8 -63 8q-163 0 -199 -213h51q14 51 36.5 72t62.5 21q21 -2 49 -9l106 -26q37 -9 74 -11q153 0 195 205z" />
    <glyph glyph-name="Adieresis" unicode="&#xc4;" horiz-adv-x="1356" 
d="M354 500h518l95 -250q30 -77 30 -131q0 -32 -26.5 -49t-85.5 -23q-60 -11 -60 -29q1 -22 54 -22q41 0 124 6t123 6q72 0 149 -4t111 -4q41 0 41 20q0 12 -9.5 17.5t-37.5 9.5q-43 5 -67 16q-37 15 -65 52.5t-58 111.5l-453 1141q-17 43 -39 43q-21 0 -36 -39l-457 -1089
q-41 -98 -72.5 -145t-66.5 -64q-34 -18 -81 -27q-42 -6 -42 -24q0 -23 51 -23q18 0 70 4t102 4q58 0 121 -6q65 -6 69 -6q39 0 39 18q0 13 -9 19t-34 10q-11 0 -47 12q-67 27 -67 103q0 50 26 116zM377 559l246 592l229 -592h-475zM408 1669q0 -43 28.5 -71.5t69.5 -28.5
q42 0 71.5 29t29.5 71q0 40 -31 70q-30 30 -70 30q-39 0 -69 -30q-29 -31 -29 -70zM789 1669q0 -43 29 -71.5t71 -28.5t70.5 28.5t28.5 71.5q0 40 -29.5 70t-69.5 30t-70 -30t-30 -70z" />
    <glyph glyph-name="Aring" unicode="&#xc5;" horiz-adv-x="1356" 
d="M545 1720q0 63 43 106q44 44 106 44t106 -44t44 -106t-44 -106q-43 -43 -106 -43t-106 43t-43 106zM455 1720q0 -100 69 -171q69 -70 170 -70q102 0 172 70t70 171t-70 170q-70 70 -172 70q-101 0 -170 -69t-69 -171zM354 500h518l95 -250q30 -77 30 -131q0 -32 -26 -49
t-86 -25q-59 -9 -60 -27q1 -22 54 -22q41 0 124 6t123 6q72 0 149 -4t111 -4q41 0 41 20q0 12 -9.5 17.5t-37.5 9.5q-43 5 -67 16q-37 15 -65 52.5t-58 111.5l-453 1141q-17 43 -39 43q-21 0 -36 -39l-457 -1089q-41 -98 -72.5 -145t-66.5 -64q-34 -18 -81 -27
q-42 -6 -42 -24q0 -23 51 -23q18 0 70 4t102 4q58 0 121 -6q65 -6 69 -6q39 0 39 18q0 20 -44 29q-30 6 -45 12q-68 27 -68 103q0 50 26 116zM377 559l246 592l229 -592h-475z" />
    <glyph glyph-name="AE" unicode="&#xc6;" horiz-adv-x="1759" 
d="M934 352v340h37q125 0 187 -28q65 -27 93 -91q13 -27 24 -73q10 -43 23 -43q23 0 23 37q0 4 -6 90q-6 87 -6 170q0 51 5 133t5 86q0 35 -25 35q-18 0 -28 -61t-31 -95q-34 -55 -97 -81q-60 -23 -204 -31v470q0 77 20 94q22 17 133 17h17q187 0 261 -25q77 -24 114 -84
q21 -34 28 -87q9 -54 29 -54q23 0 23 33q0 3 -5 41q-4 32 -4 65q0 34 3 70q3 38 3 41q0 28 -20 39q-19 10 -102 10h-45q-109 0 -279 -3t-229 -3q-200 0 -361 7q-17 1 -31 1q-36 0 -36 -20q0 -16 52 -23l32 -4q54 -9 72 -21t18 -38q0 -18 -13 -39l-528 -1014
q-33 -65 -65 -99.5t-74 -52.5q-9 -4 -41 -13q-7 -1 -10 -3q-27 -4 -36.5 -9.5t-9.5 -17.5q0 -18 39 -18q19 0 43 2q4 0 11.5 0.5t21.5 1t26 0.5q62 2 79 2t79 -2q12 0 27 -0.5t23 -1t12 -0.5q26 -2 47 -2q45 0 45 20q0 17 -53 28q-10 2 -14 3q-54 10 -76.5 29.5t-22.5 56.5
q0 29 27 81q3 5 6 11l233 463h320v-463q0 -83 -15 -116q-14 -33 -51 -52q-25 -12 -72 -16h-3h-5q-53 -8 -53 -27q1 -22 37 -22q11 0 24 1q120 9 244 9q366 0 703 -9q32 -1 57 -1q46 0 57 8t11 49q0 45 4 106t4 101q0 38 -5 50t-18 12q-17 0 -29 -52q-12 -54 -34 -90
q-41 -69 -118 -98q-78 -29 -226 -29q-185 0 -243 49t-58 250zM426 739l268 510q11 20 17 21q12 -2 12 -19v-512h-297z" />
    <glyph glyph-name="Ccedilla" unicode="&#xc7;" horiz-adv-x="1462" 
d="M1343 51v408q0 8 -4.5 14t-11.5 6q-14 0 -35 -68q-22 -71 -45 -124q-54 -128 -158 -198.5t-239 -70.5q-229 0 -364 174q-134 176 -134 474q0 322 132 508t358 186q302 0 415 -287q12 -28 20 -63q10 -39 26 -39q22 0 22 28v3q-2 16 -2 24l-10 301q-2 25 -7.5 35t-17.5 10
t-27 -39q-13 -39 -32 -39q-10 0 -47 19q-175 88 -353 88q-195 0 -351 -80t-255 -231q-123 -194 -123 -435q0 -315 207 -508q93 -85 221.5 -132.5t268.5 -47.5q193 0 360 92q15 8 30 19q44 28 66 28q29 0 41 -39q12 -38 27 -38q22 0 22 22zM533 -371q110 -43 171 -58
q70 -17 122 -17q102 0 160.5 47t58.5 129q0 77 -48 120.5t-135 43.5q-30 -2 -61 -6v112h-63v-188q35 6 61 6q54 0 84.5 -24t30.5 -66q0 -48 -29.5 -70.5t-93.5 -22.5q-95 0 -223 72z" />
    <glyph glyph-name="Egrave" unicode="&#xc8;" horiz-adv-x="1350" 
d="M524 352v340h37q125 0 187 -28q64 -27 94 -91q11 -23 23 -73q10 -43 24 -43q22 0 22 37q0 4 -6 90q-6 87 -6 170q0 51 5 133t5 86q0 35 -24 35q-19 0 -29 -61t-31 -95q-35 -56 -97 -81t-204 -31v470q0 77 20 94q22 17 134 17h16q187 0 262 -25q75 -24 113 -84
q21 -34 28 -87q9 -54 29 -54q23 0 23 33q0 10 -4 41q-4 32 -4 65q0 34 3 70q3 38 3 41q0 28 -20 39q-19 10 -103 10h-45q-102 0 -270 -3t-236 -3q-155 0 -291 7q-17 1 -30 1q-37 0 -37 -20q0 -15 49 -22q3 -1 6 -1q49 -4 78 -16q36 -17 50 -50q15 -33 15 -112v-922
q0 -82 -14 -116q-14 -32 -52 -50q-29 -14 -77 -18q-3 0 -5 -1q-50 -6 -50 -26q0 -22 37 -22q10 0 23 1q120 9 245 9q364 0 702 -9q32 -1 58 -1q45 0 56 8t11 49q0 45 4 106t4 101q0 38 -4.5 50t-17.5 12q-18 0 -30 -52q-12 -54 -34 -90q-41 -70 -117 -98q-78 -29 -227 -29
q-185 0 -243 49t-58 250zM879 1515l-287 299q-34 35 -54.5 47.5t-41.5 12.5q-33 0 -54.5 -20.5t-21.5 -51.5q0 -41 64 -82l329 -205h66z" />
    <glyph glyph-name="Eacute" unicode="&#xc9;" horiz-adv-x="1350" 
d="M524 352v340h37q125 0 187 -28q64 -27 94 -91q11 -23 23 -73q10 -43 24 -43q22 0 22 37q0 4 -6 90q-6 87 -6 170q0 51 5 133t5 86q0 35 -24 35q-19 0 -29 -61t-31 -95q-35 -56 -97 -81t-204 -31v470q0 77 20 94q22 17 134 17h16q187 0 262 -25q75 -24 113 -84
q21 -34 28 -87q9 -54 29 -54q23 0 23 33q0 10 -4 41q-4 32 -4 65q0 34 3 70q3 38 3 41q0 28 -20 39q-19 10 -103 10h-45q-102 0 -270 -3t-236 -3q-155 0 -291 7q-17 1 -30 1q-37 0 -37 -20q0 -15 49 -22q3 -1 6 -1q49 -4 78 -16q36 -17 50 -50q15 -33 15 -112v-922
q0 -82 -14 -116q-14 -32 -52 -50q-29 -14 -77 -18q-3 0 -5 -1q-50 -6 -50 -26q0 -22 37 -22q10 0 23 1q120 9 245 9q364 0 702 -9q32 -1 58 -1q45 0 56 8t11 49q0 45 4 106t4 101q0 38 -4.5 50t-17.5 12q-18 0 -30 -52q-12 -54 -34 -90q-41 -70 -117 -98q-78 -29 -227 -29
q-185 0 -243 49t-58 250zM527 1515h67l330 205q61 40 61 82q0 32 -20 52t-53 20q-21 0 -41.5 -12.5t-55.5 -47.5z" />
    <glyph glyph-name="Ecircumflex" unicode="&#xca;" horiz-adv-x="1350" 
d="M524 352v340h37q125 0 187 -28q64 -27 94 -91q11 -23 23 -73q10 -43 24 -43q22 0 22 37q0 4 -6 90q-6 87 -6 170q0 51 5 133t5 86q0 35 -24 35q-19 0 -29 -61t-31 -95q-35 -56 -97 -81t-204 -31v470q0 77 20 94q22 17 134 17h16q187 0 262 -25q75 -24 113 -84
q21 -34 28 -87q9 -54 29 -54q23 0 23 33q0 10 -4 41q-4 32 -4 65q0 34 3 70q3 38 3 41q0 28 -20 39q-19 10 -103 10h-45q-102 0 -270 -3t-236 -3q-155 0 -291 7q-17 1 -30 1q-37 0 -37 -20q0 -15 49 -22q3 -1 6 -1q49 -4 78 -16q36 -17 50 -50q15 -33 15 -112v-922
q0 -82 -14 -116q-14 -32 -52 -50q-29 -14 -77 -18q-3 0 -5 -1q-50 -6 -50 -26q0 -22 37 -22q10 0 23 1q120 9 245 9q364 0 702 -9q32 -1 58 -1q45 0 56 8t11 49q0 45 4 106t4 101q0 38 -4.5 50t-17.5 12q-18 0 -30 -52q-12 -54 -34 -90q-41 -70 -117 -98q-78 -29 -227 -29
q-185 0 -243 49t-58 250zM412 1515h59l232 209l233 -209h58l-232 348h-117z" />
    <glyph glyph-name="Edieresis" unicode="&#xcb;" horiz-adv-x="1350" 
d="M524 352v340h37q125 0 187 -28q64 -27 94 -91q11 -23 23 -73q10 -43 24 -43q22 0 22 37q0 4 -6 90q-6 87 -6 170q0 51 5 133t5 86q0 35 -24 35q-19 0 -29 -61t-31 -95q-35 -56 -97 -81t-204 -31v470q0 77 20 94q22 17 134 17h16q187 0 262 -25q75 -24 113 -84
q21 -34 28 -87q9 -54 29 -54q23 0 23 33q0 10 -4 41q-4 32 -4 65q0 34 3 70q3 38 3 41q0 28 -20 39q-19 10 -103 10h-45q-102 0 -270 -3t-236 -3q-155 0 -291 7q-17 1 -30 1q-37 0 -37 -20q0 -15 49 -22q3 -1 6 -1q49 -4 78 -16q36 -17 50 -50q15 -33 15 -112v-922
q0 -82 -14 -116q-14 -32 -52 -50q-29 -14 -77 -18q-3 0 -5 -1q-50 -6 -50 -26q0 -22 37 -22q10 0 23 1q120 9 245 9q364 0 702 -9q32 -1 58 -1q45 0 56 8t11 49q0 45 4 106t4 101q0 38 -4.5 50t-17.5 12q-18 0 -30 -52q-12 -54 -34 -90q-41 -70 -117 -98q-78 -29 -227 -29
q-185 0 -243 49t-58 250zM414 1669q0 -43 28.5 -71.5t69.5 -28.5q42 0 71.5 29t29.5 71q0 40 -31 70q-30 30 -70 30q-39 0 -69 -30q-29 -31 -29 -70zM795 1669q0 -43 29 -71.5t71 -28.5t70.5 28.5t28.5 71.5q0 40 -29.5 70t-69.5 30t-70 -30t-30 -70z" />
    <glyph glyph-name="Igrave" unicode="&#xcc;" horiz-adv-x="899" 
d="M555 229v922q0 81 19 118t65 50q33 10 76 10q2 1 6 1q3 1 5 1q48 7 48 23q0 8 -16.5 13t-38.5 5q-12 0 -25 -1q-115 -7 -245 -7q-121 0 -234 7q-17 1 -33 1q-22 0 -40.5 -6t-18.5 -14q0 -15 58 -22q3 -1 7 -1q59 -4 88 -16q38 -18 53 -52q15 -33 15 -110v-922
q0 -80 -16 -113q-16 -34 -58 -53q-28 -13 -87 -18h-3h-4q-53 -8 -53 -27q0 -22 41 -22q12 0 27 1q127 9 258 9q129 0 259 -9q15 -1 27 -1q39 0 39 22q0 18 -50 26q-2 1 -5 1q-59 5 -91 19q-41 18 -57 53t-16 112zM619 1515l-287 299q-34 35 -54.5 47.5t-41.5 12.5
q-33 0 -54.5 -20.5t-21.5 -51.5q0 -41 64 -82l329 -205h66z" />
    <glyph glyph-name="Iacute" unicode="&#xcd;" horiz-adv-x="899" 
d="M555 229v922q0 81 19 118t65 50q33 10 76 10q2 1 6 1q3 1 5 1q48 7 48 23q0 8 -16.5 13t-38.5 5q-12 0 -25 -1q-115 -7 -245 -7q-121 0 -234 7q-17 1 -33 1q-22 0 -40.5 -6t-18.5 -14q0 -15 58 -22q3 -1 7 -1q59 -4 88 -16q38 -18 53 -52q15 -33 15 -110v-922
q0 -80 -16 -113q-16 -34 -58 -53q-28 -13 -87 -18h-3h-4q-53 -8 -53 -27q0 -22 41 -22q12 0 27 1q127 9 258 9q129 0 259 -9q15 -1 27 -1q39 0 39 22q0 18 -50 26q-2 1 -5 1q-59 5 -91 19q-41 18 -57 53t-16 112zM267 1515h67l330 205q61 40 61 82q0 32 -20 52t-53 20
q-21 0 -41.5 -12.5t-55.5 -47.5z" />
    <glyph glyph-name="Icircumflex" unicode="&#xce;" horiz-adv-x="899" 
d="M555 229v922q0 81 19 118t65 50q33 10 76 10q2 1 6 1q3 1 5 1q48 7 48 23q0 8 -16.5 13t-38.5 5q-12 0 -25 -1q-115 -7 -245 -7q-121 0 -234 7q-17 1 -33 1q-22 0 -40.5 -6t-18.5 -14q0 -15 58 -22q3 -1 7 -1q59 -4 88 -16q38 -18 53 -52q15 -33 15 -110v-922
q0 -80 -16 -113q-16 -34 -58 -53q-28 -13 -87 -18h-3h-4q-53 -8 -53 -27q0 -22 41 -22q12 0 27 1q127 9 258 9q129 0 259 -9q15 -1 27 -1q39 0 39 22q0 18 -50 26q-2 1 -5 1q-59 5 -91 19q-41 18 -57 53t-16 112zM152 1515h59l232 209l233 -209h58l-232 348h-117z" />
    <glyph glyph-name="Idieresis" unicode="&#xcf;" horiz-adv-x="899" 
d="M555 229v922q0 81 19 118t65 50q33 10 76 10q2 1 6 1q3 1 5 1q48 7 48 23q0 8 -16.5 13t-38.5 5q-12 0 -25 -1q-115 -7 -245 -7q-121 0 -234 7q-17 1 -33 1q-22 0 -40.5 -6t-18.5 -14q0 -15 58 -22q3 -1 7 -1q59 -4 88 -16q38 -18 53 -52q15 -33 15 -110v-922
q0 -80 -16 -113q-16 -34 -58 -53q-28 -13 -87 -18h-3h-4q-53 -8 -53 -27q0 -22 41 -22q12 0 27 1q127 9 258 9q129 0 259 -9q15 -1 27 -1q39 0 39 22q0 18 -50 26q-2 1 -5 1q-59 5 -91 19q-41 18 -57 53t-16 112zM154 1669q0 -43 28.5 -71.5t69.5 -28.5q42 0 71.5 29
t29.5 71q0 40 -31 70q-30 30 -70 30q-39 0 -69 -30q-29 -31 -29 -70zM535 1669q0 -43 29 -71.5t71 -28.5t70.5 28.5t28.5 71.5q0 40 -29.5 70t-69.5 30t-70 -30t-30 -70z" />
    <glyph glyph-name="Eth" unicode="&#xd0;" horiz-adv-x="1579" 
d="M307 1159v-418h-307v-65h307v-445q0 -84 -15 -117q-14 -33 -51 -51q-29 -14 -77 -18q-3 0 -6 -1q-49 -6 -49 -26t34 -20q11 0 24 1q101 7 216 7q51 0 156 -4t198 -4q742 0 742 676q0 333 -206 521q-205 187 -575 187q-38 0 -143 -5t-141 -5q-105 0 -235 8q-7 0 -15 0.5
t-12.5 1t-6.5 0.5q-36 0 -36 -22q0 -12 45 -20q5 0 6 -1h2q57 -5 80 -16q37 -17 50 -51q15 -33 15 -113zM524 328v348h346v65h-346v478q0 69 25 91q26 23 119 23q294 0 429 -167q136 -166 136 -529q0 -309 -111 -450q-110 -140 -352 -140q-136 0 -191 61t-55 220z" />
    <glyph glyph-name="Ntilde" unicode="&#xd1;" horiz-adv-x="1686" 
d="M379 262v891l915 -1139q39 -49 68 -49q18 0 25.5 13t7.5 49v1097q0 90 15 127t54 58q26 12 73 20h3l3 1q44 11 44 24q0 20 -35 20q-10 0 -39 -3q-3 -1 -8 -1q-57 -4 -119 -4q-44 0 -124 5t-91 5q-34 0 -34 -20q0 -8 7 -14.5t15 -6.5q92 0 132 -48t40 -161v-841l-839 1050
q-29 39 -70 39q-13 0 -55 -6q-8 0 -32 -1t-30 -1q-47 0 -91 4t-58 4q-56 0 -56 -20q0 -18 43 -24q2 -1 4 -1q3 0 6 -1q32 -6 36 -7q43 -13 72.5 -36t55.5 -64v-957q0 -94 -15 -135q-15 -38 -54 -61q-20 -10 -60 -21q-4 -1 -9.5 -2.5t-6.5 -1.5q-49 0 -49 -23q0 -22 49 -22
q22 0 78 3t90 3q74 0 159 -6q7 0 14.5 -0.5t11 -1t5.5 -0.5q43 0 43 22q0 17 -38 25h-3q-41 5 -67 16q-47 25 -67 67q-19 41 -19 136zM1131 1812h-52q-27 -86 -96 -86q-13 0 -56 11l-108 28q-32 8 -63 8q-163 0 -199 -213h51q14 51 36.5 72t62.5 21q21 -2 49 -9l106 -26
q37 -9 74 -11q153 0 195 205z" />
    <glyph glyph-name="Ograve" unicode="&#xd2;" horiz-adv-x="1686" 
d="M348 690q0 302 138 486q139 184 362 184q228 0 361 -181q134 -182 134 -493q0 -307 -137 -492q-136 -184 -362 -184q-221 0 -359 187q-137 188 -137 493zM96 680q0 -159 54 -284.5t167 -231.5q214 -197 531 -197q147 0 287 55q143 56 243 150q101 95 157 229
q56 136 56 283q0 295 -178 485q-103 110 -251 173q-144 61 -306 61q-323 0 -549 -221q-211 -211 -211 -502zM1012 1515l-287 299q-34 35 -54.5 47.5t-41.5 12.5q-33 0 -54.5 -20.5t-21.5 -51.5q0 -41 64 -82l329 -205h66z" />
    <glyph glyph-name="Oacute" unicode="&#xd3;" horiz-adv-x="1686" 
d="M348 690q0 302 138 486q139 184 362 184q228 0 361 -181q134 -182 134 -493q0 -307 -137 -492q-136 -184 -362 -184q-221 0 -359 187q-137 188 -137 493zM96 680q0 -159 54 -284.5t167 -231.5q214 -197 531 -197q147 0 287 55q143 56 243 150q101 95 157 229
q56 136 56 283q0 295 -178 485q-103 110 -251 173q-144 61 -306 61q-323 0 -549 -221q-211 -211 -211 -502zM660 1515h67l330 205q61 40 61 82q0 32 -20 52t-53 20q-21 0 -41.5 -12.5t-55.5 -47.5z" />
    <glyph glyph-name="Ocircumflex" unicode="&#xd4;" horiz-adv-x="1686" 
d="M348 690q0 302 138 486q139 184 362 184q228 0 361 -181q134 -182 134 -493q0 -307 -137 -492q-136 -184 -362 -184q-221 0 -359 187q-137 188 -137 493zM96 680q0 -159 54 -284.5t167 -231.5q214 -197 531 -197q147 0 287 55q143 56 243 150q101 95 157 229
q56 136 56 283q0 295 -178 485q-103 110 -251 173q-144 61 -306 61q-323 0 -549 -221q-211 -211 -211 -502zM545 1515h59l232 209l233 -209h58l-232 348h-117z" />
    <glyph glyph-name="Otilde" unicode="&#xd5;" horiz-adv-x="1686" 
d="M348 690q0 302 138 486q139 184 362 184q228 0 361 -181q134 -182 134 -493q0 -307 -137 -492q-136 -184 -362 -184q-221 0 -359 187q-137 188 -137 493zM96 680q0 -159 54 -284.5t167 -231.5q214 -197 531 -197q147 0 287 55q143 56 243 150q101 95 157 229
q56 136 56 283q0 295 -178 485q-103 110 -251 173q-144 61 -306 61q-323 0 -549 -221q-211 -211 -211 -502zM1123 1812h-52q-27 -86 -96 -86q-13 0 -56 11l-108 28q-32 8 -63 8q-163 0 -199 -213h51q14 51 36.5 72t62.5 21q21 -2 49 -9l106 -26q37 -9 74 -11q153 0 195 205z
" />
    <glyph glyph-name="Odieresis" unicode="&#xd6;" horiz-adv-x="1686" 
d="M348 690q0 302 138 486q139 184 362 184q228 0 361 -181q134 -182 134 -493q0 -307 -137 -492q-136 -184 -362 -184q-221 0 -359 187q-137 188 -137 493zM96 680q0 -159 54 -284.5t167 -231.5q214 -197 531 -197q147 0 287 55q143 56 243 150q101 95 157 229
q56 136 56 283q0 295 -178 485q-103 110 -251 173q-144 61 -306 61q-323 0 -549 -221q-211 -211 -211 -502zM547 1669q0 -43 28.5 -71.5t69.5 -28.5q42 0 71.5 29t29.5 71q0 40 -31 70q-30 30 -70 30q-39 0 -69 -30q-29 -31 -29 -70zM928 1669q0 -43 29 -71.5t71 -28.5
t70.5 28.5t28.5 71.5q0 40 -29.5 70t-69.5 30t-70 -30t-30 -70z" />
    <glyph glyph-name="multiply" unicode="&#xd7;" horiz-adv-x="1706" 
d="M381 1169l-80 -82l475 -477l-475 -475l80 -82l477 475l475 -475l82 82l-475 475l475 477l-82 82l-475 -477z" />
    <glyph glyph-name="Oslash" unicode="&#xd8;" horiz-adv-x="1686" 
d="M1217 1176q129 -160 129 -512q0 -291 -140 -473q-139 -181 -360 -181q-196 0 -326 144zM467 225q-121 190 -121 465q0 309 140 491q141 183 378 183q177 0 293 -125zM178 -203h98l183 264q191 -98 383 -98q157 0 300 57t253 164q96 94 147 225.5t51 286.5
q0 184 -74.5 325.5t-230.5 254.5l187 278h-105l-158 -233q-164 86 -356 86q-336 0 -555 -231q-100 -105 -153.5 -232.5t-53.5 -261.5q0 -360 289 -576z" />
    <glyph glyph-name="Ugrave" unicode="&#xd9;" horiz-adv-x="1688" 
d="M311 1151v-748q0 -438 523 -438q304 0 433 136q130 136 130 460v590q0 83 18 119.5t64 48.5q39 10 67 10q1 1 4 1.5t4 0.5q41 8 41 23q0 18 -36 18q-18 0 -73 -4q-53 -4 -108 -4q-58 0 -118 4t-82 4q-39 0 -39 -20q0 -15 49 -22q3 -1 6 -1q49 -4 78 -16q37 -18 52 -52
q15 -33 15 -110v-641q0 -243 -107.5 -357t-334.5 -114q-193 0 -284 95t-91 298v719q0 81 19 118t65 50q40 10 66 10q1 1 4 1.5t4 0.5q41 8 41 23q0 18 -35 18q-11 0 -25 -1q-113 -7 -245 -7q-121 0 -233 7q-18 1 -33 1q-39 0 -39 -20q0 -16 49 -22q3 -1 6 -1q49 -4 78 -16
q37 -18 52 -52q15 -33 15 -110zM1075 1515l-287 299q-34 35 -54.5 47.5t-41.5 12.5q-33 0 -54.5 -20.5t-21.5 -51.5q0 -41 64 -82l329 -205h66z" />
    <glyph glyph-name="Uacute" unicode="&#xda;" horiz-adv-x="1688" 
d="M311 1151v-748q0 -438 523 -438q304 0 433 136q130 136 130 460v590q0 83 18 119.5t64 48.5q39 10 67 10q1 1 4 1.5t4 0.5q41 8 41 23q0 18 -36 18q-18 0 -73 -4q-53 -4 -108 -4q-58 0 -118 4t-82 4q-39 0 -39 -20q0 -15 49 -22q3 -1 6 -1q49 -4 78 -16q37 -18 52 -52
q15 -33 15 -110v-641q0 -243 -107.5 -357t-334.5 -114q-193 0 -284 95t-91 298v719q0 81 19 118t65 50q40 10 66 10q1 1 4 1.5t4 0.5q41 8 41 23q0 18 -35 18q-11 0 -25 -1q-113 -7 -245 -7q-121 0 -233 7q-18 1 -33 1q-39 0 -39 -20q0 -16 49 -22q3 -1 6 -1q49 -4 78 -16
q37 -18 52 -52q15 -33 15 -110zM723 1515h67l330 205q61 40 61 82q0 32 -20 52t-53 20q-21 0 -41.5 -12.5t-55.5 -47.5z" />
    <glyph glyph-name="Ucircumflex" unicode="&#xdb;" horiz-adv-x="1688" 
d="M311 1151v-748q0 -438 523 -438q304 0 433 136q130 136 130 460v590q0 83 18 119.5t64 48.5q39 10 67 10q1 1 4 1.5t4 0.5q41 8 41 23q0 18 -36 18q-18 0 -73 -4q-53 -4 -108 -4q-58 0 -118 4t-82 4q-39 0 -39 -20q0 -15 49 -22q3 -1 6 -1q49 -4 78 -16q37 -18 52 -52
q15 -33 15 -110v-641q0 -243 -107.5 -357t-334.5 -114q-193 0 -284 95t-91 298v719q0 81 19 118t65 50q40 10 66 10q1 1 4 1.5t4 0.5q41 8 41 23q0 18 -35 18q-11 0 -25 -1q-113 -7 -245 -7q-121 0 -233 7q-18 1 -33 1q-39 0 -39 -20q0 -16 49 -22q3 -1 6 -1q49 -4 78 -16
q37 -18 52 -52q15 -33 15 -110zM608 1515h59l232 209l233 -209h58l-232 348h-117z" />
    <glyph glyph-name="Udieresis" unicode="&#xdc;" horiz-adv-x="1688" 
d="M311 1151v-748q0 -438 523 -438q304 0 433 136q130 136 130 460v590q0 83 18 119.5t64 48.5q39 10 67 10q1 1 4 1.5t4 0.5q41 8 41 23q0 18 -36 18q-18 0 -73 -4q-53 -4 -108 -4q-58 0 -118 4t-82 4q-39 0 -39 -20q0 -15 49 -22q3 -1 6 -1q49 -4 78 -16q37 -18 52 -52
q15 -33 15 -110v-641q0 -243 -107.5 -357t-334.5 -114q-193 0 -284 95t-91 298v719q0 81 19 118t65 50q40 10 66 10q1 1 4 1.5t4 0.5q41 8 41 23q0 18 -35 18q-11 0 -25 -1q-113 -7 -245 -7q-121 0 -233 7q-18 1 -33 1q-39 0 -39 -20q0 -16 49 -22q3 -1 6 -1q49 -4 78 -16
q37 -18 52 -52q15 -33 15 -110zM610 1669q0 -43 28.5 -71.5t69.5 -28.5q42 0 71.5 29t29.5 71q0 40 -31 70q-30 30 -70 30q-39 0 -69 -30q-29 -31 -29 -70zM991 1669q0 -43 29 -71.5t71 -28.5t70.5 28.5t28.5 71.5q0 40 -29.5 70t-69.5 30t-70 -30t-30 -70z" />
    <glyph glyph-name="Yacute" unicode="&#xdd;" horiz-adv-x="1460" 
d="M829 229v326q128 193 275 443q136 234 153 255q53 68 129 78q1 1 7 3q28 10 28 24q0 16 -26 16q-5 0 -15 -2h-2q-77 -6 -155 -6q-88 0 -143 4q-26 2 -42 2q-41 0 -41 -20q0 -17 48 -26q6 -1 18.5 -3.5l17.5 -3.5q58 -12 58 -80q0 -79 -234 -462q-96 -160 -110 -183
l-275 530q-45 85 -45 129q0 61 86 78q13 3 36 3q36 2 36 20q0 12 -11 17t-38 5q-4 0 -35 -1t-45 -1q-16 0 -81 -4t-130 -4q-53 0 -141 5q-7 1 -14 1q-24 2 -36 2q-45 0 -45 -22q1 -22 52 -29q6 -1 14.5 -2t11.5 -2q57 -10 118 -121q8 -14 9 -16l354 -641v-312
q0 -82 -14 -116q-14 -32 -52 -50q-29 -14 -79 -18q-3 0 -5 -1q-50 -6 -50 -26q0 -22 39 -22q11 0 24 1q119 9 244 9q124 0 244 -9q13 -1 24 -1q37 0 37 22q0 18 -50 26q-3 1 -5 1q-51 4 -79 19q-35 16 -51 49q-14 34 -14 116zM547 1515h67l330 205q61 40 61 82q0 32 -20 52
t-53 20q-21 0 -41.5 -12.5t-55.5 -47.5z" />
    <glyph glyph-name="Thorn" unicode="&#xde;" horiz-adv-x="1241" 
d="M528 393v561q0 38 26 54t89 16q164 0 244 -80.5t80 -245.5q0 -160 -75.5 -237.5t-229.5 -77.5q-43 0 -134 10zM528 229l1 111q84 -6 137 -6q254 0 393 97q141 97 141 271q0 175 -136 269q-136 96 -382 96q-49 0 -153 -6l-1 90q0 77 15 110q15 34 53 52q29 12 78 16
q3 0 6 1q49 7 49 22q0 20 -39 20q-16 0 -33 -1q-113 -7 -235 -7t-235 7q-18 1 -33 1q-37 0 -37 -20q0 -15 49 -22q3 -1 6 -1q49 -4 78 -16q37 -16 51 -50t14 -112v-922q0 -78 -14 -114q-13 -32 -51 -52q-32 -14 -80 -18h-4q-49 -7 -49 -27q0 -22 37 -22q10 0 23 1
q120 9 245 9q124 0 244 -9q13 -1 24 -1q17 0 28 6.5t11 15.5q0 20 -49 27h-4q-48 4 -80 18q-38 20 -53 52q-15 35 -15 114z" />
    <glyph glyph-name="germandbls" unicode="&#xdf;" horiz-adv-x="1157" 
d="M709 821q119 40 181 116t62 181q0 153 -103 244q-103 92 -271 92q-167 0 -271 -101q-102 -101 -102 -266v-874q0 -128 -47 -156q-29 -16 -71 -16q-24 -2 -32 -7t-8 -14q0 -8 12.5 -14t32.5 -6q15 0 70 3q57 3 100 3q57 0 110 -4q55 -4 72 -4q37 0 37 22q0 16 -33 23
q-32 8 -44 18q-29 26 -29 115v932q0 150 52.5 227.5t154.5 77.5q192 0 192 -303q0 -221 -104 -262q-32 -13 -82 -17q-51 -5 -51 -24q0 -22 55 -25q52 -1 86 -10q97 -25 141 -115q43 -87 43 -274q0 -194 -33.5 -281.5t-107.5 -87.5q-30 0 -43 13q-14 13 -21 66q-6 39 -22 56
t-47 17q-35 0 -56.5 -20.5t-21.5 -53.5q0 -57 57 -92t150 -35q156 0 249 110q93 109 93 296q0 177 -91 290.5t-259 145.5v14z" />
    <glyph glyph-name="agrave" unicode="&#xe0;" horiz-adv-x="1012" 
d="M639 516v-287q0 -66 -77 -122t-161 -56q-63 0 -100 41t-37 111q0 90 86 162q84 72 289 151zM633 115q14 -66 62.5 -105t117.5 -39q64 0 116 37q54 37 54 70q0 18 -18 18q-7 0 -36 -20q-26 -19 -48 -19q-68 0 -68 111v520q0 121 -85.5 178.5t-266.5 57.5q-161 0 -258 -48
t-97 -122q0 -34 20 -55t52 -21q40 0 58 19q20 19 30 87q6 47 53 73t123 26q101 0 149 -39t48 -121v-162q-342 -124 -455 -208q-110 -83 -110 -193q0 -86 56 -136.5t153 -50.5q200 0 350 142zM657 1036l-287 299q-34 35 -54.5 47.5t-41.5 12.5q-33 0 -54.5 -20.5t-21.5 -51.5
q0 -41 64 -82l329 -205h66z" />
    <glyph glyph-name="aacute" unicode="&#xe1;" horiz-adv-x="1012" 
d="M639 516v-287q0 -66 -77 -122t-161 -56q-63 0 -100 41t-37 111q0 90 86 162q84 72 289 151zM633 115q14 -66 62.5 -105t117.5 -39q64 0 116 37q54 37 54 70q0 18 -18 18q-7 0 -36 -20q-26 -19 -48 -19q-68 0 -68 111v520q0 121 -85.5 178.5t-266.5 57.5q-161 0 -258 -48
t-97 -122q0 -34 20 -55t52 -21q40 0 58 19q20 19 30 87q6 47 53 73t123 26q101 0 149 -39t48 -121v-162q-342 -124 -455 -208q-110 -83 -110 -193q0 -86 56 -136.5t153 -50.5q200 0 350 142zM305 1036h67l330 205q61 40 61 82q0 32 -20 52t-53 20q-21 0 -41.5 -12.5
t-55.5 -47.5z" />
    <glyph glyph-name="acircumflex" unicode="&#xe2;" horiz-adv-x="1012" 
d="M639 516v-287q0 -66 -77 -122t-161 -56q-63 0 -100 41t-37 111q0 90 86 162q84 72 289 151zM633 115q14 -66 62.5 -105t117.5 -39q64 0 116 37q54 37 54 70q0 18 -18 18q-7 0 -36 -20q-26 -19 -48 -19q-68 0 -68 111v520q0 121 -85.5 178.5t-266.5 57.5q-161 0 -258 -48
t-97 -122q0 -34 20 -55t52 -21q40 0 58 19q20 19 30 87q6 47 53 73t123 26q101 0 149 -39t48 -121v-162q-342 -124 -455 -208q-110 -83 -110 -193q0 -86 56 -136.5t153 -50.5q200 0 350 142zM190 1036h59l232 209l233 -209h58l-232 348h-117z" />
    <glyph glyph-name="atilde" unicode="&#xe3;" horiz-adv-x="1012" 
d="M639 516v-287q0 -66 -77 -122t-161 -56q-63 0 -100 41t-37 111q0 90 86 162q84 72 289 151zM633 115q14 -66 62.5 -105t117.5 -39q64 0 116 37q54 37 54 70q0 18 -18 18q-7 0 -36 -20q-26 -19 -48 -19q-68 0 -68 111v520q0 121 -85.5 178.5t-266.5 57.5q-161 0 -258 -48
t-97 -122q0 -34 20 -55t52 -21q40 0 58 19q20 19 30 87q6 47 53 73t123 26q101 0 149 -39t48 -121v-162q-342 -124 -455 -208q-110 -83 -110 -193q0 -86 56 -136.5t153 -50.5q200 0 350 142zM768 1333h-52q-27 -86 -96 -86q-13 0 -56 11l-108 28q-32 8 -63 8
q-163 0 -199 -213h51q14 51 36.5 72t62.5 21q21 -2 49 -9l106 -26q37 -9 74 -11q153 0 195 205z" />
    <glyph glyph-name="adieresis" unicode="&#xe4;" horiz-adv-x="1012" 
d="M639 516v-287q0 -66 -77 -122t-161 -56q-63 0 -100 41t-37 111q0 90 86 162q84 72 289 151zM633 115q14 -66 62.5 -105t117.5 -39q64 0 116 37q54 37 54 70q0 18 -18 18q-7 0 -36 -20q-26 -19 -48 -19q-68 0 -68 111v520q0 121 -85.5 178.5t-266.5 57.5q-161 0 -258 -48
t-97 -122q0 -34 20 -55t52 -21q40 0 58 19q20 19 30 87q6 47 53 73t123 26q101 0 149 -39t48 -121v-162q-342 -124 -455 -208q-110 -83 -110 -193q0 -86 56 -136.5t153 -50.5q200 0 350 142zM192 1190q0 -43 28.5 -71.5t69.5 -28.5q42 0 71.5 29t29.5 71q0 40 -31 70
q-30 30 -70 30q-39 0 -69 -30q-29 -31 -29 -70zM573 1190q0 -43 29 -71.5t71 -28.5t70.5 28.5t28.5 71.5q0 40 -29.5 70t-69.5 30t-70 -30t-30 -70z" />
    <glyph glyph-name="aring" unicode="&#xe5;" horiz-adv-x="1012" 
d="M340 1233q0 62 43 105q44 44 106 44q61 0 107 -44q45 -44 45 -105q0 -63 -45 -108q-44 -44 -107 -44q-62 0 -106 44q-43 44 -43 108zM250 1231q0 -101 70 -171q71 -69 172 -69t170 69t69 171t-70 172q-69 70 -169 70q-101 0 -172 -71q-70 -70 -70 -171zM639 516v-287
q0 -66 -77 -122t-161 -56q-63 0 -100 41t-37 111q0 90 86 162q84 72 289 151zM633 115q14 -66 62.5 -105t117.5 -39q64 0 116 37q54 37 54 70q0 18 -18 18q-7 0 -36 -20q-26 -19 -48 -19q-68 0 -68 111v520q0 121 -85.5 178.5t-266.5 57.5q-161 0 -258 -48t-97 -122
q0 -34 20 -55t52 -21q40 0 58 19q20 19 30 87q6 47 53 73t123 26q101 0 149 -39t48 -121v-162q-342 -124 -455 -208q-110 -83 -110 -193q0 -86 56 -136.5t153 -50.5q200 0 350 142z" />
    <glyph glyph-name="ae" unicode="&#xe6;" horiz-adv-x="1466" 
d="M780 616q15 122 81 192q68 71 163 71q88 0 139 -53t51 -144q0 -29 -6 -65zM614 498v-52q0 -149 33 -245q-140 -152 -264 -152q-59 0 -96 39t-37 100q0 99 79 168q79 68 285 142zM674 154q129 -189 358 -189q127 0 228 64q102 65 102 121q0 8 -7 15t-16 7q-5 0 -26 -21
q-99 -102 -215 -102q-144 0 -238 115t-94 297q0 22 6 77q0 4 0.5 12t1.5 11h561q45 0 56 8q10 7 10 31q0 131 -104 226q-103 96 -255 96q-180 0 -313 -121q-70 121 -297 121q-149 0 -241 -49q-93 -48 -93 -121q0 -33 21 -53.5t53 -20.5q38 0 55 17q18 17 29 85
q9 54 47.5 76.5t124.5 22.5t135 -39.5t49 -108.5v-180q-339 -125 -446 -207q-105 -80 -105 -186q0 -87 59.5 -140t158.5 -53q188 0 395 189z" />
    <glyph glyph-name="ccedilla" unicode="&#xe7;" horiz-adv-x="899" 
d="M59 438q0 -218 125 -343q125 -124 346 -124q131 0 222 47q90 47 90 107q0 25 -27 25q-16 0 -37 -28q-20 -28 -33 -38q-54 -49 -172 -49q-144 0 -227 107q-82 107 -82 300q0 206 79 322q79 117 216 117q55 0 81 -15t52 -78q15 -34 34.5 -48.5t49.5 -14.5q31 0 48.5 17.5
t17.5 48.5q0 58 -74 96q-73 39 -188 39q-218 0 -355 -125q-79 -72 -122.5 -166.5t-43.5 -196.5zM248 -371q110 -43 171 -58q70 -17 122 -17q102 0 160.5 47t58.5 129q0 77 -48 120.5t-135 43.5q-30 -2 -61 -6v112h-63v-188q35 6 61 6q54 0 84.5 -24t30.5 -66
q0 -48 -29.5 -70.5t-93.5 -22.5q-95 0 -223 72z" />
    <glyph glyph-name="egrave" unicode="&#xe8;" horiz-adv-x="1016" 
d="M299 621q18 123 85 192.5t169 69.5q90 0 146 -59q55 -58 55 -156q0 -26 -8.5 -36.5t-28.5 -10.5h-418zM287 561h600q35 0 44 8.5t9 36.5q0 130 -112 224q-113 96 -271 96q-208 0 -348 -152q-65 -71 -100 -161.5t-35 -186.5q0 -195 133 -325t340 -130q142 0 249 62
q107 63 107 125q0 22 -20 22q-15 0 -38 -24q-8 -9 -20 -21q-51 -46 -101 -66t-116 -20q-146 0 -237 114q-92 116 -92 296q0 51 8 102zM729 1036l-287 299q-34 35 -54.5 47.5t-41.5 12.5q-33 0 -54.5 -20.5t-21.5 -51.5q0 -41 64 -82l329 -205h66z" />
    <glyph glyph-name="eacute" unicode="&#xe9;" horiz-adv-x="1016" 
d="M299 621q18 123 85 192.5t169 69.5q90 0 146 -59q55 -58 55 -156q0 -26 -8.5 -36.5t-28.5 -10.5h-418zM287 561h600q35 0 44 8.5t9 36.5q0 130 -112 224q-113 96 -271 96q-208 0 -348 -152q-65 -71 -100 -161.5t-35 -186.5q0 -195 133 -325t340 -130q142 0 249 62
q107 63 107 125q0 22 -20 22q-15 0 -38 -24q-8 -9 -20 -21q-51 -46 -101 -66t-116 -20q-146 0 -237 114q-92 116 -92 296q0 51 8 102zM377 1036h67l330 205q61 40 61 82q0 32 -20 52t-53 20q-21 0 -41.5 -12.5t-55.5 -47.5z" />
    <glyph glyph-name="ecircumflex" unicode="&#xea;" horiz-adv-x="1016" 
d="M299 621q18 123 85 192.5t169 69.5q90 0 146 -59q55 -58 55 -156q0 -26 -8.5 -36.5t-28.5 -10.5h-418zM287 561h600q35 0 44 8.5t9 36.5q0 130 -112 224q-113 96 -271 96q-208 0 -348 -152q-65 -71 -100 -161.5t-35 -186.5q0 -195 133 -325t340 -130q142 0 249 62
q107 63 107 125q0 22 -20 22q-15 0 -38 -24q-8 -9 -20 -21q-51 -46 -101 -66t-116 -20q-146 0 -237 114q-92 116 -92 296q0 51 8 102zM262 1036h59l232 209l233 -209h58l-232 348h-117z" />
    <glyph glyph-name="edieresis" unicode="&#xeb;" horiz-adv-x="1016" 
d="M299 621q18 123 85 192.5t169 69.5q90 0 146 -59q55 -58 55 -156q0 -26 -8.5 -36.5t-28.5 -10.5h-418zM287 561h600q35 0 44 8.5t9 36.5q0 130 -112 224q-113 96 -271 96q-208 0 -348 -152q-65 -71 -100 -161.5t-35 -186.5q0 -195 133 -325t340 -130q142 0 249 62
q107 63 107 125q0 22 -20 22q-15 0 -38 -24q-8 -9 -20 -21q-51 -46 -101 -66t-116 -20q-146 0 -237 114q-92 116 -92 296q0 51 8 102zM264 1190q0 -43 28.5 -71.5t69.5 -28.5q42 0 71.5 29t29.5 71q0 40 -31 70q-30 30 -70 30q-39 0 -69 -30q-29 -31 -29 -70zM645 1190
q0 -43 29 -71.5t71 -28.5t70.5 28.5t28.5 71.5q0 40 -29.5 70t-69.5 30t-70 -30t-30 -70z" />
    <glyph glyph-name="igrave" unicode="&#xec;" horiz-adv-x="565" 
d="M197 733v-557q0 -60 -11 -82t-39 -35q-23 -12 -57 -16q-26 -6 -33.5 -12t-7.5 -17q0 -18 31 -18q1 0 70 6t137 6q67 0 135 -6t70 -6q32 0 32 18q0 13 -8 19t-33 10q-35 5 -57 16q-28 13 -39 33q-10 20 -10 84v729q0 31 -23 31q-5 0 -74 -25q-70 -24 -141 -39l-17.5 -3.5
t-18.5 -3.5q-46 -7 -48 -25q0 -13 36 -16q3 -1 7 -1q41 0 60 -8q22 -8 30.5 -25t8.5 -57zM451 1036l-287 299q-34 35 -54.5 47.5t-41.5 12.5q-33 0 -54.5 -20.5t-21.5 -51.5q0 -41 64 -82l329 -205h66z" />
    <glyph glyph-name="iacute" unicode="&#xed;" horiz-adv-x="565" 
d="M197 733v-557q0 -60 -11 -82t-39 -35q-23 -12 -57 -16q-26 -6 -33.5 -12t-7.5 -17q0 -18 31 -18q1 0 70 6t137 6q67 0 135 -6t70 -6q32 0 32 18q0 13 -8 19t-33 10q-35 5 -57 16q-28 13 -39 33q-10 20 -10 84v729q0 31 -23 31q-5 0 -74 -25q-70 -24 -141 -39l-17.5 -3.5
t-18.5 -3.5q-46 -7 -48 -25q0 -13 36 -16q3 -1 7 -1q41 0 60 -8q22 -8 30.5 -25t8.5 -57zM99 1036h67l330 205q61 40 61 82q0 32 -20 52t-53 20q-21 0 -41.5 -12.5t-55.5 -47.5z" />
    <glyph glyph-name="icircumflex" unicode="&#xee;" horiz-adv-x="565" 
d="M197 733v-557q0 -60 -11 -82t-39 -35q-23 -12 -57 -16q-26 -6 -33.5 -12t-7.5 -17q0 -18 31 -18q1 0 70 6t137 6q67 0 135 -6t70 -6q32 0 32 18q0 13 -8 19t-33 10q-35 5 -57 16q-28 13 -39 33q-10 20 -10 84v729q0 31 -23 31q-5 0 -74 -25q-70 -24 -141 -39l-17.5 -3.5
t-18.5 -3.5q-46 -7 -48 -25q0 -13 36 -16q3 -1 7 -1q41 0 60 -8q22 -8 30.5 -25t8.5 -57zM-16 1036h59l232 209l233 -209h58l-232 348h-117z" />
    <glyph glyph-name="idieresis" unicode="&#xef;" horiz-adv-x="565" 
d="M197 733v-557q0 -60 -11 -82t-39 -35q-23 -12 -57 -16q-26 -6 -33.5 -12t-7.5 -17q0 -18 31 -18q1 0 70 6t137 6q67 0 135 -6t70 -6q32 0 32 18q0 13 -8 19t-33 10q-35 5 -57 16q-28 13 -39 33q-10 20 -10 84v729q0 31 -23 31q-5 0 -74 -25q-70 -24 -141 -39l-17.5 -3.5
t-18.5 -3.5q-46 -7 -48 -25q0 -13 36 -16q3 -1 7 -1q41 0 60 -8q22 -8 30.5 -25t8.5 -57zM-14 1190q0 -43 28.5 -71.5t69.5 -28.5q42 0 71.5 29t29.5 71q0 40 -31 70q-30 30 -70 30q-39 0 -69 -30q-29 -31 -29 -70zM367 1190q0 -43 29 -71.5t71 -28.5t70.5 28.5t28.5 71.5
q0 40 -29.5 70t-69.5 30t-70 -30t-30 -70z" />
    <glyph glyph-name="eth" unicode="&#xf0;" horiz-adv-x="1126" 
d="M694 813q-62 12 -119 12q-198 0 -325 -120t-127 -306t126 -308q126 -120 318 -120q180 0 305 129q62 62 95.5 142.5t33.5 167.5q0 186 -95.5 357t-295.5 343l279 158l-31 51l-303 -170q-157 94 -332 192l-28 -34q149 -103 276 -207l-276 -152l28 -53l301 164
q104 -92 170 -246zM301 397q0 179 71 289q72 109 187 109q126 0 195 -102t69 -287q0 -195 -67 -295.5t-197 -100.5q-123 0 -190.5 101t-67.5 286z" />
    <glyph glyph-name="ntilde" unicode="&#xf1;" horiz-adv-x="1245" 
d="M225 176q0 -64 -10 -84q-11 -20 -39 -33q-20 -7 -48 -14q-2 0 -5 -0.5t-4 -1.5q-41 -6 -41 -25q0 -22 31 -22q2 0 71 6q70 6 135 6q67 0 134 -6t71 -6q33 0 33 18q0 12 -8.5 18.5t-32.5 10.5q-34 4 -57 16q-28 13 -39 34q-10 19 -10 83v387q0 125 75 210t183 85
q192 0 192 -217v-465q0 -64 -10 -84t-39 -33q-20 -7 -48 -14q-2 0 -5 -0.5t-4 -1.5q-41 -6 -41 -25q0 -22 32 -22q3 0 71 6t134 6t135 -6t72 -6q31 0 31 18q0 12 -8.5 18.5t-32.5 10.5q-33 4 -58 16q-28 13 -39 34q-10 19 -10 83v477q0 131 -78.5 202t-224.5 71
q-217 0 -338 -195q-1 10 -2.5 34t-2.5 34q-10 133 -42 133q-7 0 -69 -22q-60 -20 -121 -33q-6 -1 -15 -3q-65 -14 -65 -30q0 -14 38 -20q4 0 5 -1q33 0 55 -12q28 -15 38.5 -45t10.5 -98v-492zM902 1333h-52q-27 -86 -96 -86q-13 0 -56 11l-108 28q-32 8 -63 8
q-163 0 -199 -213h51q14 51 36.5 72t62.5 21q21 -2 49 -9l106 -26q37 -9 74 -11q153 0 195 205z" />
    <glyph glyph-name="ograve" unicode="&#xf2;" horiz-adv-x="1126" 
d="M272 446q0 201 78 321q80 120 207 120q141 0 217 -114q78 -113 78 -318q0 -217 -75 -329t-220 -112q-136 0 -210.5 112.5t-74.5 319.5zM74 449q0 -208 139 -343t354 -135q200 0 340 144q69 70 106.5 159.5t37.5 184.5q0 87 -39 174.5t-109 157.5q-140 135 -330 135
q-211 0 -355 -138q-144 -136 -144 -339zM731 1036l-287 299q-34 35 -54.5 47.5t-41.5 12.5q-33 0 -54.5 -20.5t-21.5 -51.5q0 -41 64 -82l329 -205h66z" />
    <glyph glyph-name="oacute" unicode="&#xf3;" horiz-adv-x="1126" 
d="M272 446q0 201 78 321q80 120 207 120q141 0 217 -114q78 -113 78 -318q0 -217 -75 -329t-220 -112q-136 0 -210.5 112.5t-74.5 319.5zM74 449q0 -208 139 -343t354 -135q200 0 340 144q69 70 106.5 159.5t37.5 184.5q0 87 -39 174.5t-109 157.5q-140 135 -330 135
q-211 0 -355 -138q-144 -136 -144 -339zM379 1036h67l330 205q61 40 61 82q0 32 -20 52t-53 20q-21 0 -41.5 -12.5t-55.5 -47.5z" />
    <glyph glyph-name="ocircumflex" unicode="&#xf4;" horiz-adv-x="1126" 
d="M272 446q0 201 78 321q80 120 207 120q141 0 217 -114q78 -113 78 -318q0 -217 -75 -329t-220 -112q-136 0 -210.5 112.5t-74.5 319.5zM74 449q0 -208 139 -343t354 -135q200 0 340 144q69 70 106.5 159.5t37.5 184.5q0 87 -39 174.5t-109 157.5q-140 135 -330 135
q-211 0 -355 -138q-144 -136 -144 -339zM264 1036h59l232 209l233 -209h58l-232 348h-117z" />
    <glyph glyph-name="otilde" unicode="&#xf5;" horiz-adv-x="1126" 
d="M272 446q0 201 78 321q80 120 207 120q141 0 217 -114q78 -113 78 -318q0 -217 -75 -329t-220 -112q-136 0 -210.5 112.5t-74.5 319.5zM74 449q0 -208 139 -343t354 -135q200 0 340 144q69 70 106.5 159.5t37.5 184.5q0 87 -39 174.5t-109 157.5q-140 135 -330 135
q-211 0 -355 -138q-144 -136 -144 -339zM842 1333h-52q-27 -86 -96 -86q-13 0 -56 11l-108 28q-32 8 -63 8q-163 0 -199 -213h51q14 51 36.5 72t62.5 21q21 -2 49 -9l106 -26q37 -9 74 -11q153 0 195 205z" />
    <glyph glyph-name="odieresis" unicode="&#xf6;" horiz-adv-x="1126" 
d="M272 446q0 201 78 321q80 120 207 120q141 0 217 -114q78 -113 78 -318q0 -217 -75 -329t-220 -112q-136 0 -210.5 112.5t-74.5 319.5zM74 449q0 -208 139 -343t354 -135q200 0 340 144q69 70 106.5 159.5t37.5 184.5q0 87 -39 174.5t-109 157.5q-140 135 -330 135
q-211 0 -355 -138q-144 -136 -144 -339zM266 1190q0 -43 28.5 -71.5t69.5 -28.5q42 0 71.5 29t29.5 71q0 40 -31 70q-30 30 -70 30q-39 0 -69 -30q-29 -31 -29 -70zM647 1190q0 -43 29 -71.5t71 -28.5t70.5 28.5t28.5 71.5q0 40 -29.5 70t-69.5 30t-70 -30t-30 -70z" />
    <glyph glyph-name="divide" unicode="&#xf7;" horiz-adv-x="1706" 
d="M854 365q-47 0 -81 -34q-34 -33 -34 -81t33.5 -81.5t81.5 -33.5t81 34q34 34 34 81t-34 81t-81 34zM254 670v-117h1198v117h-1198zM854 1085q-47 0 -81 -34q-34 -33 -34 -80q0 -48 33 -81.5t82 -33.5q48 0 81.5 33.5t33.5 81.5q0 47 -34 80q-33 34 -81 34z" />
    <glyph glyph-name="oslash" unicode="&#xf8;" horiz-adv-x="1126" 
d="M393 74l381 702q84 -92 84 -323q0 -211 -78.5 -327t-220.5 -116q-102 0 -166 64zM342 133q-72 124 -72 311q0 210 78 325q78 116 217 116q86 0 160 -58zM223 -240l133 246q87 -39 197 -39q215 0 357 138q143 140 143 348q0 123 -59 227t-171 178l144 268h-84l-129 -237
q-90 35 -189 35q-210 0 -353 -137q-142 -136 -142 -336q0 -123 60 -234t163 -178l-154 -279h84z" />
    <glyph glyph-name="ugrave" unicode="&#xf9;" horiz-adv-x="1243" 
d="M840 725v-389q0 -126 -75 -212q-75 -85 -183 -85q-193 0 -193 219v586q0 34 -9 46.5t-32 12.5q-20 0 -57 -3q-38 -3 -53 -3q-38 0 -79 4t-59 4q-39 0 -39 -18q0 -13 8.5 -19.5t35.5 -11.5q30 -5 55 -14q27 -13 38 -33t11 -84v-438q0 -163 72.5 -237.5t230.5 -74.5
q222 0 338 193q1 -4 1.5 -13.5t0.5 -14.5q12 -173 43 -173q11 0 71 22q59 20 121 34q2 0 28 5q50 9 50 25q0 13 -36 20q-2 0 -4 0.5t-3 0.5q-36 4 -53 12q-27 14 -38 43q-11 31 -11 102v613q0 34 -9 46.5t-32 12.5q-19 0 -57 -3t-54 -3q-41 0 -81 4t-54 4q-41 0 -41 -18
q0 -13 8.5 -19.5t34.5 -11.5q30 -5 56 -14q27 -13 38 -33t11 -84zM791 1036l-287 299q-34 35 -54.5 47.5t-41.5 12.5q-33 0 -54.5 -20.5t-21.5 -51.5q0 -41 64 -82l329 -205h66z" />
    <glyph glyph-name="uacute" unicode="&#xfa;" horiz-adv-x="1243" 
d="M840 725v-389q0 -126 -75 -212q-75 -85 -183 -85q-193 0 -193 219v586q0 34 -9 46.5t-32 12.5q-20 0 -57 -3q-38 -3 -53 -3q-38 0 -79 4t-59 4q-39 0 -39 -18q0 -13 8.5 -19.5t35.5 -11.5q30 -5 55 -14q27 -13 38 -33t11 -84v-438q0 -163 72.5 -237.5t230.5 -74.5
q222 0 338 193q1 -4 1.5 -13.5t0.5 -14.5q12 -173 43 -173q11 0 71 22q59 20 121 34q2 0 28 5q50 9 50 25q0 13 -36 20q-2 0 -4 0.5t-3 0.5q-36 4 -53 12q-27 14 -38 43q-11 31 -11 102v613q0 34 -9 46.5t-32 12.5q-19 0 -57 -3t-54 -3q-41 0 -81 4t-54 4q-41 0 -41 -18
q0 -13 8.5 -19.5t34.5 -11.5q30 -5 56 -14q27 -13 38 -33t11 -84zM439 1036h67l330 205q61 40 61 82q0 32 -20 52t-53 20q-21 0 -41.5 -12.5t-55.5 -47.5z" />
    <glyph glyph-name="ucircumflex" unicode="&#xfb;" horiz-adv-x="1243" 
d="M840 725v-389q0 -126 -75 -212q-75 -85 -183 -85q-193 0 -193 219v586q0 34 -9 46.5t-32 12.5q-20 0 -57 -3q-38 -3 -53 -3q-38 0 -79 4t-59 4q-39 0 -39 -18q0 -13 8.5 -19.5t35.5 -11.5q30 -5 55 -14q27 -13 38 -33t11 -84v-438q0 -163 72.5 -237.5t230.5 -74.5
q222 0 338 193q1 -4 1.5 -13.5t0.5 -14.5q12 -173 43 -173q11 0 71 22q59 20 121 34q2 0 28 5q50 9 50 25q0 13 -36 20q-2 0 -4 0.5t-3 0.5q-36 4 -53 12q-27 14 -38 43q-11 31 -11 102v613q0 34 -9 46.5t-32 12.5q-19 0 -57 -3t-54 -3q-41 0 -81 4t-54 4q-41 0 -41 -18
q0 -13 8.5 -19.5t34.5 -11.5q30 -5 56 -14q27 -13 38 -33t11 -84zM324 1036h59l232 209l233 -209h58l-232 348h-117z" />
    <glyph glyph-name="udieresis" unicode="&#xfc;" horiz-adv-x="1243" 
d="M840 725v-389q0 -126 -75 -212q-75 -85 -183 -85q-193 0 -193 219v586q0 34 -9 46.5t-32 12.5q-20 0 -57 -3q-38 -3 -53 -3q-38 0 -79 4t-59 4q-39 0 -39 -18q0 -13 8.5 -19.5t35.5 -11.5q30 -5 55 -14q27 -13 38 -33t11 -84v-438q0 -163 72.5 -237.5t230.5 -74.5
q222 0 338 193q1 -4 1.5 -13.5t0.5 -14.5q12 -173 43 -173q11 0 71 22q59 20 121 34q2 0 28 5q50 9 50 25q0 13 -36 20q-2 0 -4 0.5t-3 0.5q-36 4 -53 12q-27 14 -38 43q-11 31 -11 102v613q0 34 -9 46.5t-32 12.5q-19 0 -57 -3t-54 -3q-41 0 -81 4t-54 4q-41 0 -41 -18
q0 -13 8.5 -19.5t34.5 -11.5q30 -5 56 -14q27 -13 38 -33t11 -84zM326 1190q0 -43 28.5 -71.5t69.5 -28.5q42 0 71.5 29t29.5 71q0 40 -31 70q-30 30 -70 30q-39 0 -69 -30q-29 -31 -29 -70zM707 1190q0 -43 29 -71.5t71 -28.5t70.5 28.5t28.5 71.5q0 40 -29.5 70t-69.5 30
t-70 -30t-30 -70z" />
    <glyph glyph-name="yacute" unicode="&#xfd;" horiz-adv-x="1018" 
d="M582 207l-207 528q-14 36 -15 60q0 25 16.5 38.5t55.5 20.5q2 1 7.5 1.5t8.5 0.5q46 7 46 23q0 10 -12.5 17t-30.5 7q-10 0 -87 -5t-120 -5q-45 0 -105 5q-15 1 -29 2.5t-20 1.5l-6 1q-20 0 -34.5 -6.5t-14.5 -15.5q0 -11 7.5 -17t28.5 -10q23 -6 38 -12q40 -19 79 -110
q1 -2 2.5 -6t2.5 -6l268 -628q22 -55 22 -78q0 -38 -63 -175q-10 -22 -14 -31q-39 -88 -67 -138q-23 -40 -42 -57q-17 -13 -49 -28q-86 -39 -86 -101q0 -28 15 -45t40 -17q95 0 360 642l5 12l262 637q46 111 86 133q12 6 27 11q28 10 28 22q0 22 -39 22q-6 0 -37 -4t-67 -4
q-38 0 -75 4q-36 4 -50 4q-37 0 -37 -22q0 -15 35 -20q8 -1 17.5 -3t10.5 -2q33 -8 47.5 -22.5t14.5 -38.5q0 -42 -31 -115zM326 1036h67l330 205q61 40 61 82q0 32 -20 52t-53 20q-21 0 -41.5 -12.5t-55.5 -47.5z" />
    <glyph glyph-name="thorn" unicode="&#xfe;" horiz-adv-x="1241" 
d="M389 -391v495q102 -122 279 -122q200 0 329 133t129 342q0 206 -125 337q-125 132 -321 132q-100 0 -175.5 -38t-115.5 -108l-4 662q0 33 -20 33q-5 -1 -24 -6q-97 -25 -204 -39q-5 -2 -15 -3q-67 -10 -67 -28q0 -8 9 -13t35 -10q36 -5 57 -14q28 -12 38.5 -34t10.5 -75
l4 -1644q0 -63 -10 -82q-11 -19 -39 -33q-20 -7 -48 -14q-2 0 -5 -0.5t-5 -1.5q-41 -6 -41 -25q0 -22 31 -22q1 0 70 6q71 6 137 6q67 0 136 -6q70 -6 71 -6q31 0 31 18q0 12 -8.5 18.5t-32.5 10.5q-33 4 -58 16q-28 13 -39 34q-10 19 -10 81zM377 461q0 136 10 195
q11 65 35 100q33 51 90.5 81.5t120.5 30.5q144 0 218.5 -106t74.5 -311q0 -193 -79 -300q-79 -108 -216 -108q-60 0 -120 29q-58 28 -89 73q-24 34 -35 97q-10 59 -10 219z" />
    <glyph glyph-name="ydieresis" unicode="&#xff;" horiz-adv-x="1018" 
d="M582 207l-207 528q-14 36 -15 60q0 25 16.5 38.5t55.5 20.5q2 1 7.5 1.5t8.5 0.5q46 7 46 23q0 10 -12.5 17t-30.5 7q-10 0 -87 -5t-120 -5q-45 0 -105 5q-15 1 -29 2.5t-20 1.5l-6 1q-20 0 -34.5 -6.5t-14.5 -15.5q0 -11 7.5 -17t28.5 -10q23 -6 38 -12q40 -19 79 -110
q1 -2 2.5 -6t2.5 -6l268 -628q22 -55 22 -78q0 -38 -63 -175q-10 -22 -14 -31q-39 -88 -67 -138q-23 -40 -42 -57q-17 -13 -49 -28q-86 -39 -86 -101q0 -28 15 -45t40 -17q95 0 360 642l5 12l262 637q46 111 86 133q12 6 27 11q28 10 28 22q0 22 -39 22q-6 0 -37 -4t-67 -4
q-38 0 -75 4q-36 4 -50 4q-37 0 -37 -22q0 -15 35 -20q8 -1 17.5 -3t10.5 -2q33 -8 47.5 -22.5t14.5 -38.5q0 -42 -31 -115zM213 1190q0 -43 28.5 -71.5t69.5 -28.5q42 0 71.5 29t29.5 71q0 40 -31 70q-30 30 -70 30q-39 0 -69 -30q-29 -31 -29 -70zM594 1190
q0 -43 29 -71.5t71 -28.5t70.5 28.5t28.5 71.5q0 40 -29.5 70t-69.5 30t-70 -30t-30 -70z" />
    <glyph glyph-name="Amacron" unicode="&#x100;" horiz-adv-x="1356" 
d="M354 500h518l95 -250q30 -77 30 -131q0 -32 -26.5 -49t-85.5 -23q-60 -11 -60 -29q1 -22 54 -22q41 0 124 6t123 6q72 0 149 -4t111 -4q41 0 41 20q0 12 -9.5 17.5t-37.5 9.5q-43 5 -67 16q-37 15 -65 52.5t-58 111.5l-453 1141q-17 43 -39 43q-21 0 -36 -39l-457 -1089
q-41 -98 -72.5 -145t-66.5 -64q-34 -18 -81 -27q-42 -6 -42 -24q0 -23 51 -23q18 0 70 4t102 4q58 0 121 -6q65 -6 69 -6q39 0 39 18q0 13 -9 19t-34 10q-11 0 -47 12q-67 27 -67 103q0 50 26 116zM377 559l246 592l229 -592h-475zM439 1605h516v127h-516v-127z" />
    <glyph glyph-name="amacron" unicode="&#x101;" horiz-adv-x="1012" 
d="M639 516v-287q0 -66 -77 -122t-161 -56q-63 0 -100 41t-37 111q0 90 86 162q84 72 289 151zM633 115q14 -66 62.5 -105t117.5 -39q64 0 116 37q54 37 54 70q0 18 -18 18q-7 0 -36 -20q-26 -19 -48 -19q-68 0 -68 111v520q0 121 -85.5 178.5t-266.5 57.5q-161 0 -258 -48
t-97 -122q0 -34 20 -55t52 -21q40 0 58 19q20 19 30 87q6 47 53 73t123 26q101 0 149 -39t48 -121v-162q-342 -124 -455 -208q-110 -83 -110 -193q0 -86 56 -136.5t153 -50.5q200 0 350 142zM223 1126h516v127h-516v-127z" />
    <glyph glyph-name="Abreve" unicode="&#x102;" horiz-adv-x="1356" 
d="M354 500h518l95 -250q30 -77 30 -131q0 -32 -26.5 -49t-85.5 -23q-60 -11 -60 -29q1 -22 54 -22q41 0 124 6t123 6q72 0 149 -4t111 -4q41 0 41 20q0 12 -9.5 17.5t-37.5 9.5q-43 5 -67 16q-37 15 -65 52.5t-58 111.5l-453 1141q-17 43 -39 43q-21 0 -36 -39l-457 -1089
q-41 -98 -72.5 -145t-66.5 -64q-34 -18 -81 -27q-42 -6 -42 -24q0 -23 51 -23q18 0 70 4t102 4q58 0 121 -6q65 -6 69 -6q39 0 39 18q0 13 -9 19t-34 10q-11 0 -47 12q-67 27 -67 103q0 50 26 116zM377 559l246 592l229 -592h-475zM404 1825q21 -133 96 -202t197 -69
q123 0 197 68.5t94 202.5h-52q-16 -75 -73 -108.5t-166 -33.5t-166 34t-74 108h-53z" />
    <glyph glyph-name="abreve" unicode="&#x103;" horiz-adv-x="1012" 
d="M639 516v-287q0 -66 -77 -122t-161 -56q-63 0 -100 41t-37 111q0 90 86 162q84 72 289 151zM633 115q14 -66 62.5 -105t117.5 -39q64 0 116 37q54 37 54 70q0 18 -18 18q-7 0 -36 -20q-26 -19 -48 -19q-68 0 -68 111v520q0 121 -85.5 178.5t-266.5 57.5q-161 0 -258 -48
t-97 -122q0 -34 20 -55t52 -21q40 0 58 19q20 19 30 87q6 47 53 73t123 26q101 0 149 -39t48 -121v-162q-342 -124 -455 -208q-110 -83 -110 -193q0 -86 56 -136.5t153 -50.5q200 0 350 142zM188 1346q21 -133 96 -202t197 -69q123 0 197 68.5t94 202.5h-52
q-16 -75 -73 -108.5t-166 -33.5t-166 34t-74 108h-53z" />
    <glyph glyph-name="Aogonek" unicode="&#x104;" horiz-adv-x="1356" 
d="M354 500h518l95 -250q30 -86 30 -131q0 -49 -86 -69q-86 -18 -86 -32q1 -22 54 -22q37 0 119 6t128 6q30 0 112 -3q7 -1 15 -1q-217 -152 -217 -309q0 -63 45 -103q46 -41 115 -41q65 0 119.5 39t91.5 111l-31 18q-40 -73 -119 -73q-45 0 -72.5 32t-27.5 86
q0 114 150 238q62 -2 79 -2q41 0 41 20q0 12 -9.5 17.5t-37.5 9.5q-43 5 -67 16q-72 31 -123 164l-453 1141q-17 43 -39 43q-21 0 -36 -39l-457 -1089q-41 -98 -72.5 -145t-66.5 -64q-34 -18 -81 -27q-42 -6 -42 -24q0 -23 51 -23q19 0 71 4t101 4q56 0 119 -6q65 -6 71 -6
q39 0 39 18q0 19 -43 28q-33 8 -46 13q-68 27 -68 103q0 47 26 116zM377 559l246 592l229 -592h-475z" />
    <glyph glyph-name="aogonek" unicode="&#x105;" horiz-adv-x="1012" 
d="M639 516v-287q0 -68 -79 -123q-77 -55 -159 -55q-63 0 -100 41t-37 111q0 89 84 160t291 153zM633 115q12 -60 52.5 -96.5t100.5 -43.5q-174 -135 -174 -280q0 -62 44 -103t114 -41q65 0 119.5 39t91.5 111l-29 18q-40 -73 -118 -73q-46 0 -73.5 32t-27.5 86
q0 66 38.5 119t127.5 107q84 53 84 88q0 18 -18 18q-7 0 -36 -20q-26 -19 -48 -19q-68 0 -68 111v520q0 121 -86 178.5t-266 57.5q-161 0 -258 -48t-97 -122q0 -33 20.5 -54.5t51.5 -21.5q88 0 88 106q0 41 50 70q52 29 126 29q101 0 149 -39t48 -121v-162
q-366 -138 -464 -215q-101 -80 -101 -186q0 -86 56 -136.5t153 -50.5q96 0 187.5 37t162.5 105z" />
    <glyph glyph-name="Cacute" unicode="&#x106;" horiz-adv-x="1462" 
d="M1343 51v408q0 8 -4.5 14t-11.5 6q-14 0 -35 -68q-22 -71 -45 -124q-54 -128 -158 -198.5t-239 -70.5q-229 0 -364 174q-134 176 -134 474q0 322 132 508t358 186q302 0 415 -287q12 -28 20 -63q10 -39 26 -39q22 0 22 28v3q-2 16 -2 24l-10 301q-2 25 -7.5 35t-17.5 10
t-27 -39q-13 -39 -32 -39q-10 0 -47 19q-175 88 -353 88q-195 0 -351 -80t-255 -231q-123 -194 -123 -435q0 -315 207 -508q93 -85 221.5 -132.5t268.5 -47.5q193 0 360 92q15 8 30 19q44 28 66 28q29 0 41 -39q12 -38 27 -38q22 0 22 22zM637 1515h67l330 205q61 40 61 82
q0 32 -20 52t-53 20q-21 0 -41.5 -12.5t-55.5 -47.5z" />
    <glyph glyph-name="cacute" unicode="&#x107;" horiz-adv-x="899" 
d="M59 438q0 -218 125 -343q125 -124 346 -124q131 0 222 47q90 47 90 107q0 25 -27 25q-16 0 -37 -28q-20 -28 -33 -38q-54 -49 -172 -49q-144 0 -227 107q-82 107 -82 300q0 206 79 322q79 117 216 117q55 0 81 -15t52 -78q15 -34 34.5 -48.5t49.5 -14.5q31 0 48.5 17.5
t17.5 48.5q0 58 -74 96q-73 39 -188 39q-218 0 -355 -125q-79 -72 -122.5 -166.5t-43.5 -196.5zM351 1036h67l330 205q61 40 61 82q0 32 -20 52t-53 20q-21 0 -41.5 -12.5t-55.5 -47.5z" />
    <glyph glyph-name="Ccircumflex" unicode="&#x108;" horiz-adv-x="1462" 
d="M1343 51v408q0 8 -4.5 14t-11.5 6q-14 0 -35 -68q-22 -71 -45 -124q-54 -128 -158 -198.5t-239 -70.5q-229 0 -364 174q-134 176 -134 474q0 322 132 508t358 186q302 0 415 -287q12 -28 20 -63q10 -39 26 -39q22 0 22 28v3q-2 16 -2 24l-10 301q-2 25 -7.5 35t-17.5 10
t-27 -39q-13 -39 -32 -39q-10 0 -47 19q-175 88 -353 88q-195 0 -351 -80t-255 -231q-123 -194 -123 -435q0 -315 207 -508q93 -85 221.5 -132.5t268.5 -47.5q193 0 360 92q15 8 30 19q44 28 66 28q29 0 41 -39q12 -38 27 -38q22 0 22 22zM522 1515h59l232 209l233 -209h58
l-232 348h-117z" />
    <glyph glyph-name="ccircumflex" unicode="&#x109;" horiz-adv-x="899" 
d="M59 438q0 -218 125 -343q125 -124 346 -124q131 0 222 47q90 47 90 107q0 25 -27 25q-16 0 -37 -28q-20 -28 -33 -38q-54 -49 -172 -49q-144 0 -227 107q-82 107 -82 300q0 206 79 322q79 117 216 117q55 0 81 -15t52 -78q15 -34 34.5 -48.5t49.5 -14.5q31 0 48.5 17.5
t17.5 48.5q0 58 -74 96q-73 39 -188 39q-218 0 -355 -125q-79 -72 -122.5 -166.5t-43.5 -196.5zM236 1036h59l232 209l233 -209h58l-232 348h-117z" />
    <glyph glyph-name="Cdot" unicode="&#x10a;" horiz-adv-x="1462" 
d="M1343 51v408q0 8 -4.5 14t-11.5 6q-14 0 -35 -68q-22 -71 -45 -124q-54 -128 -158 -198.5t-239 -70.5q-229 0 -364 174q-134 176 -134 474q0 322 132 508t358 186q302 0 415 -287q12 -28 20 -63q10 -39 26 -39q22 0 22 28v3q-2 16 -2 24l-10 301q-2 25 -7.5 35t-17.5 10
t-27 -39q-13 -39 -32 -39q-10 0 -47 19q-175 88 -353 88q-195 0 -351 -80t-255 -231q-123 -194 -123 -435q0 -315 207 -508q93 -85 221.5 -132.5t268.5 -47.5q193 0 360 92q15 8 30 19q44 28 66 28q29 0 41 -39q12 -38 27 -38q22 0 22 22zM721 1669q0 -42 29.5 -71t70.5 -29
t70.5 29t29.5 71q0 41 -29.5 70.5t-70.5 29.5t-70.5 -29.5t-29.5 -70.5z" />
    <glyph glyph-name="cdot" unicode="&#x10b;" horiz-adv-x="899" 
d="M59 438q0 -218 125 -343q125 -124 346 -124q131 0 222 47q90 47 90 107q0 25 -27 25q-16 0 -37 -28q-20 -28 -33 -38q-54 -49 -172 -49q-144 0 -227 107q-82 107 -82 300q0 206 79 322q79 117 216 117q55 0 81 -15t52 -78q15 -34 34.5 -48.5t49.5 -14.5q31 0 48.5 17.5
t17.5 48.5q0 58 -74 96q-73 39 -188 39q-218 0 -355 -125q-79 -72 -122.5 -166.5t-43.5 -196.5zM435 1190q0 -42 29.5 -71t70.5 -29t70.5 29t29.5 71q0 41 -29.5 70.5t-70.5 29.5t-70.5 -29.5t-29.5 -70.5z" />
    <glyph glyph-name="Ccaron" unicode="&#x10c;" horiz-adv-x="1462" 
d="M1343 51v408q0 8 -4.5 14t-11.5 6q-14 0 -35 -68q-22 -71 -45 -124q-54 -128 -158 -198.5t-239 -70.5q-229 0 -364 174q-134 176 -134 474q0 322 132 508t358 186q302 0 415 -287q12 -28 20 -63q10 -39 26 -39q22 0 22 28v3q-2 16 -2 24l-10 301q-2 25 -7.5 35t-17.5 10
t-27 -39q-13 -39 -32 -39q-10 0 -47 19q-175 88 -353 88q-195 0 -351 -80t-255 -231q-123 -194 -123 -435q0 -315 207 -508q93 -85 221.5 -132.5t268.5 -47.5q193 0 360 92q15 8 30 19q44 28 66 28q29 0 41 -39q12 -38 27 -38q22 0 22 22zM522 1863l233 -348h117l232 348
h-58l-233 -210l-232 210h-59z" />
    <glyph glyph-name="ccaron" unicode="&#x10d;" horiz-adv-x="899" 
d="M59 438q0 -218 125 -343q125 -124 346 -124q131 0 222 47q90 47 90 107q0 25 -27 25q-16 0 -37 -28q-20 -28 -33 -38q-54 -49 -172 -49q-144 0 -227 107q-82 107 -82 300q0 206 79 322q79 117 216 117q55 0 81 -15t52 -78q15 -34 34.5 -48.5t49.5 -14.5q31 0 48.5 17.5
t17.5 48.5q0 58 -74 96q-73 39 -188 39q-218 0 -355 -125q-79 -72 -122.5 -166.5t-43.5 -196.5zM236 1384l233 -348h117l232 348h-58l-233 -210l-232 210h-59z" />
    <glyph glyph-name="Dcaron" unicode="&#x10e;" horiz-adv-x="1575" 
d="M303 1159v-928q0 -81 -15 -115q-14 -33 -53 -53q-31 -14 -77 -18q-3 0 -6 -1q-48 -6 -50 -26q0 -20 37 -20q11 0 24 1q101 7 216 7q51 0 156 -4t198 -4q742 0 742 676q0 334 -207 521q-206 187 -576 187q-37 0 -142 -5t-140 -5q-105 0 -235 8q-7 0 -15 0.5t-12.5 1
t-6.5 0.5q-37 0 -39 -22q0 -13 46 -20q3 0 5 -0.5t3 -0.5q57 -5 80 -16q36 -16 52 -52q15 -35 15 -112zM520 328v891q0 69 24 91q26 23 120 23q295 0 428 -166q135 -167 135 -530q0 -310 -110 -450t-351 -140q-136 0 -191 61t-55 220zM489 1863l233 -348h117l232 348h-58
l-233 -210l-232 210h-59z" />
    <glyph glyph-name="dcaron" unicode="&#x10f;" horiz-adv-x="1470" 
d="M860 135q14 -97 26 -130q10 -30 27 -30q11 0 69 19q56 18 112 31q4 1 12.5 2.5t13.5 2.5q60 12 60 29q-1 10 -8 14t-32 7q-34 0 -59 12q-63 34 -63 148v1206q0 29 -25 29q-1 0 -8.5 -1t-28.5 -4t-40 -6q-67 -10 -146 -16q-15 -2 -39 -3q-51 -3 -51 -22t43 -23
q48 -5 65 -11q28 -10 38 -27.5t10 -56.5v-512q-113 129 -306 129q-190 0 -316 -140t-126 -352q0 -194 128 -325q127 -130 321 -130q96 0 173.5 38.5t149.5 121.5zM842 602v-278q0 -135 -73 -212q-72 -77 -198 -77q-131 0 -207 108q-75 108 -75 297q0 196 78 310t211 114
q123 0 193.5 -69.5t70.5 -192.5zM1386 1257l2 -4q5 -16 7 -30q0 -46 -41 -108q-39 -60 -105 -107l23 -29q88 41 144 126q56 86 56 177q0 70 -37 113t-96 43q-41 0 -68.5 -29.5t-27.5 -73.5q0 -43 24 -69.5t64 -26.5q25 0 55 18z" />
    <glyph glyph-name="Dslash" unicode="&#x110;" horiz-adv-x="1579" 
d="M307 1159v-418h-307v-65h307v-445q0 -84 -15 -117q-14 -33 -51 -51q-29 -14 -77 -18q-3 0 -6 -1q-49 -6 -49 -26t34 -20q11 0 24 1q101 7 216 7q51 0 156 -4t198 -4q742 0 742 676q0 333 -206 521q-205 187 -575 187q-38 0 -143 -5t-141 -5q-105 0 -235 8q-7 0 -15 0.5
t-12.5 1t-6.5 0.5q-36 0 -36 -22q0 -12 45 -20q5 0 6 -1h2q57 -5 80 -16q37 -17 50 -51q15 -33 15 -113zM524 328v348h346v65h-346v478q0 69 25 91q26 23 119 23q294 0 429 -167q136 -166 136 -529q0 -309 -111 -450q-110 -140 -352 -140q-136 0 -191 61t-55 220z" />
    <glyph glyph-name="dslash" unicode="&#x111;" horiz-adv-x="1249" 
d="M860 135q0 -3 1 -6q25 -154 52 -154q11 0 71 19q58 18 110 31q4 1 12.5 2.5t13.5 2.5q60 12 60 29t-34 20q-3 1 -5 1h-2q-39 5 -58 12q-63 31 -63 137v875h231v53h-231v289q0 29 -25 29q-4 0 -86 -12q-93 -12 -164 -17h-6h-4q-53 -3 -53 -23q0 -19 43 -23q48 -5 65 -11
q27 -9 37.5 -27t10.5 -57v-148h-324v-53h324v-311q-110 129 -306 129q-187 0 -315 -140q-127 -139 -127 -352q0 -193 128 -324t321 -131q96 0 172 37.5t151 122.5zM842 602v-278q0 -135 -73 -212q-72 -77 -198 -77q-131 0 -207 108q-75 108 -75 297q0 196 78 310t211 114
q123 0 193.5 -69.5t70.5 -192.5z" />
    <glyph glyph-name="Emacron" unicode="&#x112;" horiz-adv-x="1350" 
d="M524 352v340h37q125 0 187 -28q64 -27 94 -91q11 -23 23 -73q10 -43 24 -43q22 0 22 37q0 4 -6 90q-6 87 -6 170q0 51 5 133t5 86q0 35 -24 35q-19 0 -29 -61t-31 -95q-35 -56 -97 -81t-204 -31v470q0 77 20 94q22 17 134 17h16q187 0 262 -25q75 -24 113 -84
q21 -34 28 -87q9 -54 29 -54q23 0 23 33q0 10 -4 41q-4 32 -4 65q0 34 3 70q3 38 3 41q0 28 -20 39q-19 10 -103 10h-45q-102 0 -270 -3t-236 -3q-155 0 -291 7q-17 1 -30 1q-37 0 -37 -20q0 -15 49 -22q3 -1 6 -1q49 -4 78 -16q36 -17 50 -50q15 -33 15 -112v-922
q0 -82 -14 -116q-14 -32 -52 -50q-29 -14 -77 -18q-3 0 -5 -1q-50 -6 -50 -26q0 -22 37 -22q10 0 23 1q120 9 245 9q364 0 702 -9q32 -1 58 -1q45 0 56 8t11 49q0 45 4 106t4 101q0 38 -4.5 50t-17.5 12q-18 0 -30 -52q-12 -54 -34 -90q-41 -70 -117 -98q-78 -29 -227 -29
q-185 0 -243 49t-58 250zM445 1605h516v127h-516v-127z" />
    <glyph glyph-name="emacron" unicode="&#x113;" horiz-adv-x="1016" 
d="M299 621q18 123 85 192.5t169 69.5q90 0 146 -59q55 -58 55 -156q0 -26 -8.5 -36.5t-28.5 -10.5h-418zM287 561h600q35 0 44 8.5t9 36.5q0 130 -112 224q-113 96 -271 96q-208 0 -348 -152q-65 -71 -100 -161.5t-35 -186.5q0 -195 133 -325t340 -130q142 0 249 62
q107 63 107 125q0 22 -20 22q-15 0 -38 -24q-8 -9 -20 -21q-51 -46 -101 -66t-116 -20q-146 0 -237 114q-92 116 -92 296q0 51 8 102zM295 1126h516v127h-516v-127z" />
    <glyph glyph-name="Ebreve" unicode="&#x114;" horiz-adv-x="1350" 
d="M524 352v340h37q125 0 187 -28q64 -27 94 -91q11 -23 23 -73q10 -43 24 -43q22 0 22 37q0 4 -6 90q-6 87 -6 170q0 51 5 133t5 86q0 35 -24 35q-19 0 -29 -61t-31 -95q-35 -56 -97 -81t-204 -31v470q0 77 20 94q22 17 134 17h16q187 0 262 -25q75 -24 113 -84
q21 -34 28 -87q9 -54 29 -54q23 0 23 33q0 10 -4 41q-4 32 -4 65q0 34 3 70q3 38 3 41q0 28 -20 39q-19 10 -103 10h-45q-102 0 -270 -3t-236 -3q-155 0 -291 7q-17 1 -30 1q-37 0 -37 -20q0 -15 49 -22q3 -1 6 -1q49 -4 78 -16q36 -17 50 -50q15 -33 15 -112v-922
q0 -82 -14 -116q-14 -32 -52 -50q-29 -14 -77 -18q-3 0 -5 -1q-50 -6 -50 -26q0 -22 37 -22q10 0 23 1q120 9 245 9q364 0 702 -9q32 -1 58 -1q45 0 56 8t11 49q0 45 4 106t4 101q0 38 -4.5 50t-17.5 12q-18 0 -30 -52q-12 -54 -34 -90q-41 -70 -117 -98q-78 -29 -227 -29
q-185 0 -243 49t-58 250zM410 1825q21 -133 96 -202t197 -69q123 0 197 68.5t94 202.5h-52q-16 -75 -73 -108.5t-166 -33.5t-166 34t-74 108h-53z" />
    <glyph glyph-name="ebreve" unicode="&#x115;" horiz-adv-x="1016" 
d="M299 621q18 123 85 192.5t169 69.5q90 0 146 -59q55 -58 55 -156q0 -26 -8.5 -36.5t-28.5 -10.5h-418zM287 561h600q35 0 44 8.5t9 36.5q0 130 -112 224q-113 96 -271 96q-208 0 -348 -152q-65 -71 -100 -161.5t-35 -186.5q0 -195 133 -325t340 -130q142 0 249 62
q107 63 107 125q0 22 -20 22q-15 0 -38 -24q-8 -9 -20 -21q-51 -46 -101 -66t-116 -20q-146 0 -237 114q-92 116 -92 296q0 51 8 102zM260 1346q21 -133 96 -202t197 -69q123 0 197 68.5t94 202.5h-52q-16 -75 -73 -108.5t-166 -33.5t-166 34t-74 108h-53z" />
    <glyph glyph-name="Edot" unicode="&#x116;" horiz-adv-x="1350" 
d="M524 352v340h37q125 0 187 -28q64 -27 94 -91q11 -23 23 -73q10 -43 24 -43q22 0 22 37q0 4 -6 90q-6 87 -6 170q0 51 5 133t5 86q0 35 -24 35q-19 0 -29 -61t-31 -95q-35 -56 -97 -81t-204 -31v470q0 77 20 94q22 17 134 17h16q187 0 262 -25q75 -24 113 -84
q21 -34 28 -87q9 -54 29 -54q23 0 23 33q0 10 -4 41q-4 32 -4 65q0 34 3 70q3 38 3 41q0 28 -20 39q-19 10 -103 10h-45q-102 0 -270 -3t-236 -3q-155 0 -291 7q-17 1 -30 1q-37 0 -37 -20q0 -15 49 -22q3 -1 6 -1q49 -4 78 -16q36 -17 50 -50q15 -33 15 -112v-922
q0 -82 -14 -116q-14 -32 -52 -50q-29 -14 -77 -18q-3 0 -5 -1q-50 -6 -50 -26q0 -22 37 -22q10 0 23 1q120 9 245 9q364 0 702 -9q32 -1 58 -1q45 0 56 8t11 49q0 45 4 106t4 101q0 38 -4.5 50t-17.5 12q-18 0 -30 -52q-12 -54 -34 -90q-41 -70 -117 -98q-78 -29 -227 -29
q-185 0 -243 49t-58 250zM611 1669q0 -42 29.5 -71t70.5 -29t70.5 29t29.5 71q0 41 -29.5 70.5t-70.5 29.5t-70.5 -29.5t-29.5 -70.5z" />
    <glyph glyph-name="edot" unicode="&#x117;" horiz-adv-x="1016" 
d="M299 621q18 123 85 192.5t169 69.5q90 0 146 -59q55 -58 55 -156q0 -26 -8.5 -36.5t-28.5 -10.5h-418zM287 561h600q35 0 44 8.5t9 36.5q0 130 -112 224q-113 96 -271 96q-208 0 -348 -152q-65 -71 -100 -161.5t-35 -186.5q0 -195 133 -325t340 -130q142 0 249 62
q107 63 107 125q0 22 -20 22q-15 0 -38 -24q-8 -9 -20 -21q-51 -46 -101 -66t-116 -20q-146 0 -237 114q-92 116 -92 296q0 51 8 102zM461 1190q0 -42 29.5 -71t70.5 -29t70.5 29t29.5 71q0 41 -29.5 70.5t-70.5 29.5t-70.5 -29.5t-29.5 -70.5z" />
    <glyph glyph-name="Eogonek" unicode="&#x118;" horiz-adv-x="1350" 
d="M524 352v340h29q127 0 187 -24q60 -22 94 -80q19 -35 29 -82q12 -49 26 -49q22 0 22 37q0 4 -6 90q-6 87 -6 170q0 51 5 133t5 86q0 35 -24 35q-19 0 -29 -61q-11 -62 -31 -95q-31 -56 -93 -81q-59 -23 -208 -31v470q0 78 21 95q22 16 149 16q179 0 250 -20
q68 -19 111 -70q30 -36 41 -99q10 -61 30 -61q23 0 23 33q0 10 -4 41q-4 32 -4 65q0 34 3 71q3 38 3 40q0 30 -22 39q-21 10 -119 10h-27h-74q-33 0 -177 -3t-255 -3q-157 0 -291 7q-17 1 -30 1q-37 0 -37 -20q0 -15 49 -22q3 -1 6 -1q50 -4 78 -16q37 -17 50 -51
q15 -33 15 -111v-922q0 -78 -14 -114q-13 -32 -51 -52q-32 -14 -78 -18h-4q-51 -7 -51 -27q0 -22 37 -22q11 0 26 1q208 9 471 9q199 0 446 -6q-210 -141 -210 -305q0 -62 44 -103t113 -41q66 0 121.5 39t91.5 111l-30 18q-40 -73 -119 -73q-46 0 -73 32t-27 86
q0 114 141 234h39q39 0 50 8t11 49q0 45 4 105q4 61 4 100q0 38 -4.5 50t-17.5 12q-19 0 -29 -51q-10 -49 -35 -91q-41 -70 -117 -98q-78 -29 -227 -29q-181 0 -241 48t-60 206v45z" />
    <glyph glyph-name="eogonek" unicode="&#x119;" horiz-adv-x="1016" 
d="M299 621q13 115 83 189q69 73 171 73q91 0 146 -58t55 -157q0 -47 -37 -47h-418zM287 561h600q35 0 44 8.5t9 36.5q0 128 -112 224q-111 96 -271 96q-204 0 -344 -146q-139 -145 -139 -354q0 -197 135 -326t348 -129q66 0 125 13q-158 -121 -158 -265q0 -61 45 -102
q46 -41 115 -41q65 0 119.5 39t91.5 111l-31 18q-41 -74 -119 -74q-45 0 -72.5 32.5t-27.5 86.5q0 60 43.5 126.5t118.5 121.5q42 30 69 64.5t27 56.5t-20 22q-3 0 -82 -66q-80 -65 -193 -65q-144 0 -237 115q-92 116 -92 295q0 51 8 102z" />
    <glyph glyph-name="Ecaron" unicode="&#x11a;" horiz-adv-x="1350" 
d="M524 352v340h37q125 0 187 -28q64 -27 94 -91q11 -23 23 -73q10 -43 24 -43q22 0 22 37q0 4 -6 90q-6 87 -6 170q0 51 5 133t5 86q0 35 -24 35q-19 0 -29 -61t-31 -95q-35 -56 -97 -81t-204 -31v470q0 77 20 94q22 17 134 17h16q187 0 262 -25q75 -24 113 -84
q21 -34 28 -87q9 -54 29 -54q23 0 23 33q0 10 -4 41q-4 32 -4 65q0 34 3 70q3 38 3 41q0 28 -20 39q-19 10 -103 10h-45q-102 0 -270 -3t-236 -3q-155 0 -291 7q-17 1 -30 1q-37 0 -37 -20q0 -15 49 -22q3 -1 6 -1q49 -4 78 -16q36 -17 50 -50q15 -33 15 -112v-922
q0 -82 -14 -116q-14 -32 -52 -50q-29 -14 -77 -18q-3 0 -5 -1q-50 -6 -50 -26q0 -22 37 -22q10 0 23 1q120 9 245 9q364 0 702 -9q32 -1 58 -1q45 0 56 8t11 49q0 45 4 106t4 101q0 38 -4.5 50t-17.5 12q-18 0 -30 -52q-12 -54 -34 -90q-41 -70 -117 -98q-78 -29 -227 -29
q-185 0 -243 49t-58 250zM412 1863l233 -348h117l232 348h-58l-233 -210l-232 210h-59z" />
    <glyph glyph-name="ecaron" unicode="&#x11b;" horiz-adv-x="1016" 
d="M299 621q18 123 85 192.5t169 69.5q90 0 146 -59q55 -58 55 -156q0 -26 -8.5 -36.5t-28.5 -10.5h-418zM287 561h600q35 0 44 8.5t9 36.5q0 130 -112 224q-113 96 -271 96q-208 0 -348 -152q-65 -71 -100 -161.5t-35 -186.5q0 -195 133 -325t340 -130q142 0 249 62
q107 63 107 125q0 22 -20 22q-15 0 -38 -24q-8 -9 -20 -21q-51 -46 -101 -66t-116 -20q-146 0 -237 114q-92 116 -92 296q0 51 8 102zM262 1384l233 -348h117l232 348h-58l-233 -210l-232 210h-59z" />
    <glyph glyph-name="Gcircumflex" unicode="&#x11c;" horiz-adv-x="1573" 
d="M1407 150q-10 69 -10 163v23q0 90 11 121q10 30 40 49q31 18 65 22q1 1 7 3q32 11 32 26q0 8 -11 14.5t-28 6.5q-4 0 -28 -3q-101 -10 -209 -10q-99 0 -200 10q-28 3 -36 3q-21 0 -34 -6.5t-13 -16.5q0 -18 40 -25q1 0 4 -0.5t4 -1.5q25 -1 67 -14q34 -13 53 -53.5
t19 -102.5q0 -174 -86.5 -256t-270.5 -82q-222 0 -346 172q-125 173 -125 480q0 339 128.5 515.5t375.5 176.5q147 0 242 -70t147 -216q7 -19 15 -53q11 -44 26 -44q18 0 19 25l12 301v22q0 23 -4.5 31t-16.5 8q-11 0 -26 -33q-15 -32 -31 -32q-14 0 -62 22q-180 80 -352 80
q-321 0 -524 -212q-201 -211 -201 -550q0 -289 185 -477q194 -199 495 -199q184 0 404 118q29 16 65 34q55 26 158 31zM487 1515h59l232 209l233 -209h58l-232 348h-117z" />
    <glyph glyph-name="gcircumflex" unicode="&#x11d;" horiz-adv-x="1128" 
d="M305 600q0 130 55 207q56 78 144 78q100 0 156.5 -76t56.5 -213q0 -134 -55.5 -209.5t-153.5 -75.5q-95 0 -149 77t-54 212zM358 297q-93 -18 -141.5 -65t-48.5 -119q0 -97 82.5 -142t264.5 -47q205 -1 279 -46q72 -44 72 -152q0 -111 -83 -174.5t-228 -63.5
q-151 0 -239 57q-87 57 -87 154q0 102 79 157q11 8 11 11q0 13 -18.5 21t-50.5 8q-60 0 -107 -51q-47 -53 -47 -119q0 -127 122 -208t317 -81q216 0 341 95t125 259t-106 239q-107 75 -349 81h-42q-236 4 -238 67q0 42 43 61q44 20 209 33q193 16 284 93t91 223
q0 108 -76 211q63 39 90 39q29 0 69 -38q41 -38 68 -38t45.5 19t18.5 46q0 43 -34 68t-91 25q-68 0 -166 -68l-33 -21q-111 95 -268 95q-165 0 -275 -95q-108 -95 -108 -237q0 -102 59 -179.5t166 -117.5zM266 1036h59l232 209l233 -209h58l-232 348h-117z" />
    <glyph glyph-name="Gbreve" unicode="&#x11e;" horiz-adv-x="1573" 
d="M1407 150q-10 69 -10 163v23q0 90 11 121q10 30 40 49q31 18 65 22q1 1 7 3q32 11 32 26q0 8 -11 14.5t-28 6.5q-4 0 -28 -3q-101 -10 -209 -10q-99 0 -200 10q-28 3 -36 3q-21 0 -34 -6.5t-13 -16.5q0 -18 40 -25q1 0 4 -0.5t4 -1.5q25 -1 67 -14q34 -13 53 -53.5
t19 -102.5q0 -174 -86.5 -256t-270.5 -82q-222 0 -346 172q-125 173 -125 480q0 339 128.5 515.5t375.5 176.5q147 0 242 -70t147 -216q7 -19 15 -53q11 -44 26 -44q18 0 19 25l12 301v22q0 23 -4.5 31t-16.5 8q-11 0 -26 -33q-15 -32 -31 -32q-14 0 -62 22q-180 80 -352 80
q-321 0 -524 -212q-201 -211 -201 -550q0 -289 185 -477q194 -199 495 -199q184 0 404 118q29 16 65 34q55 26 158 31zM485 1825q21 -133 96 -202t197 -69q123 0 197 68.5t94 202.5h-52q-16 -75 -73 -108.5t-166 -33.5t-166 34t-74 108h-53z" />
    <glyph glyph-name="gbreve" unicode="&#x11f;" horiz-adv-x="1128" 
d="M305 600q0 130 55 207q56 78 144 78q100 0 156.5 -76t56.5 -213q0 -134 -55.5 -209.5t-153.5 -75.5q-95 0 -149 77t-54 212zM358 297q-93 -18 -141.5 -65t-48.5 -119q0 -97 82.5 -142t264.5 -47q205 -1 279 -46q72 -44 72 -152q0 -111 -83 -174.5t-228 -63.5
q-151 0 -239 57q-87 57 -87 154q0 102 79 157q11 8 11 11q0 13 -18.5 21t-50.5 8q-60 0 -107 -51q-47 -53 -47 -119q0 -127 122 -208t317 -81q216 0 341 95t125 259t-106 239q-107 75 -349 81h-42q-236 4 -238 67q0 42 43 61q44 20 209 33q193 16 284 93t91 223
q0 108 -76 211q63 39 90 39q29 0 69 -38q41 -38 68 -38t45.5 19t18.5 46q0 43 -34 68t-91 25q-68 0 -166 -68l-33 -21q-111 95 -268 95q-165 0 -275 -95q-108 -95 -108 -237q0 -102 59 -179.5t166 -117.5zM264 1346q21 -133 96 -202t197 -69q123 0 197 68.5t94 202.5h-52
q-16 -75 -73 -108.5t-166 -33.5t-166 34t-74 108h-53z" />
    <glyph glyph-name="Gdot" unicode="&#x120;" horiz-adv-x="1573" 
d="M1407 150q-10 69 -10 163v23q0 90 11 121q10 30 40 49q31 18 65 22q1 1 7 3q32 11 32 26q0 8 -11 14.5t-28 6.5q-4 0 -28 -3q-101 -10 -209 -10q-99 0 -200 10q-28 3 -36 3q-21 0 -34 -6.5t-13 -16.5q0 -18 40 -25q1 0 4 -0.5t4 -1.5q25 -1 67 -14q34 -13 53 -53.5
t19 -102.5q0 -174 -86.5 -256t-270.5 -82q-222 0 -346 172q-125 173 -125 480q0 339 128.5 515.5t375.5 176.5q147 0 242 -70t147 -216q7 -19 15 -53q11 -44 26 -44q18 0 19 25l12 301v22q0 23 -4.5 31t-16.5 8q-11 0 -26 -33q-15 -32 -31 -32q-14 0 -62 22q-180 80 -352 80
q-321 0 -524 -212q-201 -211 -201 -550q0 -289 185 -477q194 -199 495 -199q184 0 404 118q29 16 65 34q55 26 158 31zM686 1669q0 -42 29.5 -71t70.5 -29t70.5 29t29.5 71q0 41 -29.5 70.5t-70.5 29.5t-70.5 -29.5t-29.5 -70.5z" />
    <glyph glyph-name="gdot" unicode="&#x121;" horiz-adv-x="1128" 
d="M305 600q0 130 55 207q56 78 144 78q100 0 156.5 -76t56.5 -213q0 -134 -55.5 -209.5t-153.5 -75.5q-95 0 -149 77t-54 212zM358 297q-93 -18 -141.5 -65t-48.5 -119q0 -97 82.5 -142t264.5 -47q205 -1 279 -46q72 -44 72 -152q0 -111 -83 -174.5t-228 -63.5
q-151 0 -239 57q-87 57 -87 154q0 102 79 157q11 8 11 11q0 13 -18.5 21t-50.5 8q-60 0 -107 -51q-47 -53 -47 -119q0 -127 122 -208t317 -81q216 0 341 95t125 259t-106 239q-107 75 -349 81h-42q-236 4 -238 67q0 42 43 61q44 20 209 33q193 16 284 93t91 223
q0 108 -76 211q63 39 90 39q29 0 69 -38q41 -38 68 -38t45.5 19t18.5 46q0 43 -34 68t-91 25q-68 0 -166 -68l-33 -21q-111 95 -268 95q-165 0 -275 -95q-108 -95 -108 -237q0 -102 59 -179.5t166 -117.5zM465 1190q0 -42 29.5 -71t70.5 -29t70.5 29t29.5 71
q0 41 -29.5 70.5t-70.5 29.5t-70.5 -29.5t-29.5 -70.5z" />
    <glyph glyph-name="Gcedilla" unicode="&#x122;" horiz-adv-x="1573" 
d="M1407 150q-10 69 -10 163v23q0 90 11 121q10 30 40 49q31 18 65 22q1 1 7 3q32 11 32 26q0 8 -11 14.5t-28 6.5q-4 0 -28 -3q-101 -10 -209 -10q-99 0 -200 10q-28 3 -36 3q-21 0 -34 -6.5t-13 -16.5q0 -18 40 -25q1 0 4 -0.5t4 -1.5q25 -1 67 -14q34 -13 53 -53.5
t19 -102.5q0 -174 -86.5 -256t-270.5 -82q-222 0 -346 172q-125 173 -125 480q0 339 128.5 515.5t375.5 176.5q147 0 242 -70t147 -216q7 -19 15 -53q11 -44 26 -44q18 0 19 25l12 301v22q0 23 -4.5 31t-16.5 8q-11 0 -26 -33q-15 -32 -31 -32q-14 0 -62 22q-180 80 -352 80
q-321 0 -524 -212q-201 -211 -201 -550q0 -289 185 -477q194 -199 495 -199q184 0 404 118q29 16 65 34q55 26 158 31zM518 -371q110 -43 171 -58q70 -17 122 -17q102 0 160.5 47t58.5 129q0 77 -48 120.5t-135 43.5q-30 -2 -61 -6v112h-63v-188q35 6 61 6q54 0 84.5 -24
t30.5 -66q0 -48 -29.5 -70.5t-93.5 -22.5q-95 0 -223 72z" />
    <glyph glyph-name="gcedilla" unicode="&#x123;" horiz-adv-x="1128" 
d="M305 600q0 130 55 207q56 78 144 78q100 0 156.5 -76t56.5 -213q0 -134 -55.5 -209.5t-153.5 -75.5q-95 0 -149 77t-54 212zM358 297q-93 -18 -141.5 -65t-48.5 -119q0 -97 82.5 -142t264.5 -47q205 -1 279 -46q72 -44 72 -152q0 -111 -83 -174.5t-228 -63.5
q-151 0 -239 57q-87 57 -87 154q0 102 79 157q11 8 11 11q0 13 -18.5 21t-50.5 8q-60 0 -107 -51q-47 -53 -47 -119q0 -127 122 -208t317 -81q216 0 341 95t125 259t-106 239q-107 75 -349 81h-42q-236 4 -238 67q0 42 43 61q44 20 209 33q193 16 284 93t91 223
q0 108 -76 211q63 39 90 39q29 0 69 -38q41 -38 68 -38t45.5 19t18.5 46q0 43 -34 68t-91 25q-68 0 -166 -68l-33 -21q-111 95 -268 95q-165 0 -275 -95q-108 -95 -108 -237q0 -102 59 -179.5t166 -117.5zM381 1036h67l330 205q61 40 61 82q0 32 -20 52t-53 20
q-21 0 -41.5 -12.5t-55.5 -47.5z" />
    <glyph glyph-name="Hcircumflex" unicode="&#x124;" horiz-adv-x="1796" 
d="M315 1151v-922q0 -82 -14 -116q-14 -32 -52 -50q-29 -14 -77 -18q-3 0 -5 -1q-50 -6 -50 -26q0 -22 37 -22q10 0 23 1q120 9 245 9q124 0 244 -9q13 -1 24 -1q37 0 37 22q0 20 -49 27h-4q-41 0 -79 19q-37 18 -52 51q-15 35 -15 114v449h740v-449q0 -83 -15 -116
q-14 -32 -50 -49q-28 -15 -79 -19q-2 0 -5 -1q-50 -8 -50 -26q0 -22 37 -22q11 0 24 1q120 9 244 9q125 0 245 -9q13 -1 23 -1q37 0 37 22q0 20 -50 26q-2 1 -5 1q-48 4 -77 18q-38 18 -52 50q-14 34 -14 116v922q0 78 14 112q15 34 51 50q29 12 78 16q3 0 6 1q49 6 49 22
q0 20 -37 20q-15 0 -33 -1q-113 -7 -235 -7q-131 0 -244 7q-13 1 -24 1q-37 0 -37 -18q0 -10 11.5 -15t45.5 -10q52 -5 76 -16q37 -16 51 -50q15 -33 15 -112v-410h-740v410q0 81 19 118t65 50q40 10 66 10q1 1 4 1.5t4 0.5q41 8 41 23q0 18 -37 18q-11 0 -24 -1
q-113 -7 -244 -7q-122 0 -235 7q-18 1 -33 1q-37 0 -37 -20q0 -15 49 -22q3 -1 6 -1q49 -4 78 -16q37 -16 51 -50t14 -112zM600 1515h59l232 209l233 -209h58l-232 348h-117z" />
    <glyph glyph-name="hcircumflex" unicode="&#x125;" horiz-adv-x="1241" 
d="M399 752v690q0 32 -22 33q-3 0 -80 -17q-87 -19 -149 -28q-4 -1 -16 -3q-66 -11 -66 -28q0 -9 8.5 -13.5t34.5 -9.5q35 -5 57 -14q26 -10 37 -31q10 -19 10 -78v-1077q0 -62 -11 -84q-11 -20 -38 -33q-20 -7 -48 -14q-2 0 -5 -0.5t-5 -1.5q-40 -6 -40 -25q0 -22 32 -22
q4 0 71 6t134 6q66 0 135 -6t72 -6q31 0 31 18q0 12 -8.5 18.5t-32.5 10.5q-33 4 -58 16q-28 13 -39 34q-10 19 -10 83v387q0 125 76 210t184 85q193 0 193 -217v-465q0 -62 -11 -84q-11 -20 -38 -33q-20 -7 -48 -14q-2 0 -5 -0.5t-5 -1.5q-41 -6 -41 -25q0 -22 31 -22
q3 0 72 6t135 6t134 -6t71 -6q33 0 33 18q0 12 -8.5 18.5t-32.5 10.5q-33 4 -58 16q-28 13 -39 34q-10 19 -10 83v477q0 130 -78 199.5t-225 69.5q-210 0 -324 -170zM12 1587h59l232 209l233 -209h58l-232 348h-117z" />
    <glyph glyph-name="Hbar" unicode="&#x126;" horiz-adv-x="1796" 
d="M528 940h740v-199h-740v199zM315 1151v-143h-258v-68h258v-711q0 -78 -14 -114q-13 -32 -51 -52q-24 -11 -80 -19q-53 -6 -53 -26q0 -22 37 -22q10 0 23 1q120 9 245 9q124 0 244 -9q13 -1 24 -1q17 0 28 6.5t11 15.5q0 20 -54 26q-55 8 -79 19q-39 20 -53 53
q-15 34 -15 113v449h740v-449q0 -79 -15 -114q-13 -32 -51 -52q-24 -11 -80 -19q-53 -6 -53 -26q0 -22 37 -22q11 0 24 1q120 9 244 9q125 0 245 -9q13 -1 23 -1q37 0 37 22q0 20 -54 26q-55 8 -79 19q-38 20 -51 52q-14 36 -14 114v711h260v68h-260v143q0 78 14 112
q15 34 52 50q26 11 78 17q54 6 54 22q0 20 -37 20q-17 0 -36 -1q-112 -7 -232 -7q-132 0 -245 7q-14 1 -25 1q-35 0 -35 -20q0 -15 55 -22q54 -6 78 -17q38 -20 51 -52q15 -32 15 -110v-143h-740v143q0 76 15 109q14 33 53 53q24 11 77 17q54 8 54 22q0 20 -35 20
q-11 0 -25 -1q-113 -7 -245 -7q-119 0 -232 7q-19 1 -36 1q-37 0 -37 -20q0 -16 54 -22q53 -6 79 -17q37 -16 51 -50t14 -112z" />
    <glyph glyph-name="hbar" unicode="&#x127;" horiz-adv-x="1247" 
d="M399 748v356h336v53h-336v284q2 8 2 17q0 16 -22 17l-76 -17q-85 -19 -149 -28q-4 -1 -16 -3q-66 -11 -66 -28q0 -15 39 -22t59 -15q29 -12 39 -33t10 -76v-96h-219v-53h219v-928q0 -64 -10 -84q-11 -20 -40 -33q-21 -10 -59 -17q-38 -8 -38 -24q0 -22 32 -22q2 0 70 6
t135 6q68 0 137 -6t70 -6q31 0 31 22q0 18 -40 25q-33 6 -58 16q-30 14 -40 33q-10 20 -10 84v387q0 125 75 210q76 85 183 85q195 0 195 -217v-465q0 -59 -11 -83q-10 -20 -41 -34q-25 -10 -58 -16q-39 -7 -40 -25q1 -22 33 -22q3 0 70 6t135 6q67 0 136 -6q70 -6 71 -6
q32 0 33 22q-1 18 -40 25q-33 6 -58 16q-31 14 -41 34q-11 24 -11 83v477q0 131 -77.5 200t-223.5 69q-210 0 -330 -174z" />
    <glyph glyph-name="Itilde" unicode="&#x128;" horiz-adv-x="899" 
d="M555 229v922q0 81 19 118t65 50q33 10 76 10q2 1 6 1q3 1 5 1q48 7 48 23q0 8 -16.5 13t-38.5 5q-12 0 -25 -1q-115 -7 -245 -7q-121 0 -234 7q-17 1 -33 1q-22 0 -40.5 -6t-18.5 -14q0 -15 58 -22q3 -1 7 -1q59 -4 88 -16q38 -18 53 -52q15 -33 15 -110v-922
q0 -80 -16 -113q-16 -34 -58 -53q-28 -13 -87 -18h-3h-4q-53 -8 -53 -27q0 -22 41 -22q12 0 27 1q127 9 258 9q129 0 259 -9q15 -1 27 -1q39 0 39 22q0 18 -50 26q-2 1 -5 1q-59 5 -91 19q-41 18 -57 53t-16 112zM730 1812h-52q-27 -86 -96 -86q-13 0 -56 11l-108 28
q-32 8 -63 8q-163 0 -199 -213h51q14 51 36.5 72t62.5 21q21 -2 49 -9l106 -26q37 -9 74 -11q153 0 195 205z" />
    <glyph glyph-name="itilde" unicode="&#x129;" horiz-adv-x="565" 
d="M197 733v-557q0 -60 -11 -82t-39 -35q-23 -12 -57 -16q-26 -6 -33.5 -12t-7.5 -17q0 -18 31 -18q1 0 70 6t137 6q67 0 135 -6t70 -6q32 0 32 18q0 13 -8 19t-33 10q-35 5 -57 16q-28 13 -39 33q-10 20 -10 84v729q0 31 -23 31q-5 0 -74 -25q-70 -24 -141 -39l-17.5 -3.5
t-18.5 -3.5q-46 -7 -48 -25q0 -13 36 -16q3 -1 7 -1q41 0 60 -8q22 -8 30.5 -25t8.5 -57zM562 1333h-52q-27 -86 -96 -86q-13 0 -56 11l-108 28q-32 8 -63 8q-163 0 -199 -213h51q14 51 36.5 72t62.5 21q21 -2 49 -9l106 -26q37 -9 74 -11q153 0 195 205z" />
    <glyph glyph-name="Imacron" unicode="&#x12a;" horiz-adv-x="899" 
d="M555 229v922q0 81 19 118t65 50q33 10 76 10q2 1 6 1q3 1 5 1q48 7 48 23q0 8 -16.5 13t-38.5 5q-12 0 -25 -1q-115 -7 -245 -7q-121 0 -234 7q-17 1 -33 1q-22 0 -40.5 -6t-18.5 -14q0 -15 58 -22q3 -1 7 -1q59 -4 88 -16q38 -18 53 -52q15 -33 15 -110v-922
q0 -80 -16 -113q-16 -34 -58 -53q-28 -13 -87 -18h-3h-4q-53 -8 -53 -27q0 -22 41 -22q12 0 27 1q127 9 258 9q129 0 259 -9q15 -1 27 -1q39 0 39 22q0 18 -50 26q-2 1 -5 1q-59 5 -91 19q-41 18 -57 53t-16 112zM185 1605h516v127h-516v-127z" />
    <glyph glyph-name="imacron" unicode="&#x12b;" horiz-adv-x="565" 
d="M197 733v-557q0 -60 -11 -82t-39 -35q-23 -12 -57 -16q-26 -6 -33.5 -12t-7.5 -17q0 -18 31 -18q1 0 70 6t137 6q67 0 135 -6t70 -6q32 0 32 18q0 13 -8 19t-33 10q-35 5 -57 16q-28 13 -39 33q-10 20 -10 84v729q0 31 -23 31q-5 0 -74 -25q-70 -24 -141 -39l-17.5 -3.5
t-18.5 -3.5q-46 -7 -48 -25q0 -13 36 -16q3 -1 7 -1q41 0 60 -8q22 -8 30.5 -25t8.5 -57zM17 1126h516v127h-516v-127z" />
    <glyph glyph-name="Ibreve" unicode="&#x12c;" horiz-adv-x="899" 
d="M555 229v922q0 81 19 118t65 50q33 10 76 10q2 1 6 1q3 1 5 1q48 7 48 23q0 8 -16.5 13t-38.5 5q-12 0 -25 -1q-115 -7 -245 -7q-121 0 -234 7q-17 1 -33 1q-22 0 -40.5 -6t-18.5 -14q0 -15 58 -22q3 -1 7 -1q59 -4 88 -16q38 -18 53 -52q15 -33 15 -110v-922
q0 -80 -16 -113q-16 -34 -58 -53q-28 -13 -87 -18h-3h-4q-53 -8 -53 -27q0 -22 41 -22q12 0 27 1q127 9 258 9q129 0 259 -9q15 -1 27 -1q39 0 39 22q0 18 -50 26q-2 1 -5 1q-59 5 -91 19q-41 18 -57 53t-16 112zM150 1825q21 -133 96 -202t197 -69q123 0 197 68.5t94 202.5
h-52q-16 -75 -73 -108.5t-166 -33.5t-166 34t-74 108h-53z" />
    <glyph glyph-name="ibreve" unicode="&#x12d;" horiz-adv-x="565" 
d="M197 733v-557q0 -60 -11 -82t-39 -35q-23 -12 -57 -16q-26 -6 -33.5 -12t-7.5 -17q0 -18 31 -18q1 0 70 6t137 6q67 0 135 -6t70 -6q32 0 32 18q0 13 -8 19t-33 10q-35 5 -57 16q-28 13 -39 33q-10 20 -10 84v729q0 31 -23 31q-5 0 -74 -25q-70 -24 -141 -39l-17.5 -3.5
t-18.5 -3.5q-46 -7 -48 -25q0 -13 36 -16q3 -1 7 -1q41 0 60 -8q22 -8 30.5 -25t8.5 -57zM-18 1346q21 -133 96 -202t197 -69q123 0 197 68.5t94 202.5h-52q-16 -75 -73 -108.5t-166 -33.5t-166 34t-74 108h-53z" />
    <glyph glyph-name="Iogonek" unicode="&#x12e;" horiz-adv-x="899" 
d="M555 229v922q0 81 19 118t65 50q33 10 76 10q2 1 6 1q3 1 5 1q48 7 48 23q0 8 -16.5 13t-38.5 5q-12 0 -25 -1q-115 -7 -245 -7q-121 0 -234 7q-17 1 -33 1q-22 0 -40.5 -6t-18.5 -14q0 -15 58 -22q3 -1 7 -1q59 -4 88 -16q38 -18 53 -52q15 -33 15 -110v-922
q0 -80 -16 -113q-16 -34 -58 -53q-28 -13 -87 -18h-3h-4q-53 -8 -53 -27q0 -22 41 -22q12 0 27 1q127 9 258 9q129 0 259 -9q15 -1 27 -1q39 0 39 22q0 18 -50 26q-2 1 -5 1q-59 5 -91 19q-41 18 -57 53t-16 112zM625 31h-51q-252 -164 -252 -336q0 -63 44 -103.5t114 -40.5
q66 0 121.5 39t91.5 111l-31 18q-40 -73 -119 -73q-45 0 -72.5 32t-27.5 86q0 123 182 267z" />
    <glyph glyph-name="iogonek" unicode="&#x12f;" horiz-adv-x="565" 
d="M160 1354q0 -44 31 -74.5t75 -30.5t74.5 30.5t30.5 74.5t-31 75t-74 31q-44 0 -75 -31t-31 -75zM197 733v-557q0 -60 -11 -82t-39 -35q-23 -12 -57 -16q-26 -6 -33.5 -12t-7.5 -17q0 -18 31 -18q1 0 70 6t137 6q67 0 135 -6t70 -6q32 0 32 18q0 13 -8 19t-33 10
q-35 5 -57 16q-28 13 -39 33q-10 20 -10 84v729q0 31 -23 31q-5 0 -74 -25q-70 -24 -141 -39l-17.5 -3.5t-18.5 -3.5q-46 -7 -48 -25q0 -13 36 -16q3 -1 7 -1q41 0 60 -8q22 -8 30.5 -25t8.5 -57zM457 31h-51q-252 -164 -252 -336q0 -63 44 -103.5t114 -40.5q66 0 121.5 39
t91.5 111l-31 18q-40 -73 -119 -73q-45 0 -72.5 32t-27.5 86q0 123 182 267z" />
    <glyph glyph-name="Idot" unicode="&#x130;" horiz-adv-x="899" 
d="M555 229v922q0 81 19 118t65 50q33 10 76 10q2 1 6 1q3 1 5 1q48 7 48 23q0 8 -16.5 13t-38.5 5q-12 0 -25 -1q-115 -7 -245 -7q-121 0 -234 7q-17 1 -33 1q-22 0 -40.5 -6t-18.5 -14q0 -15 58 -22q3 -1 7 -1q59 -4 88 -16q38 -18 53 -52q15 -33 15 -110v-922
q0 -80 -16 -113q-16 -34 -58 -53q-28 -13 -87 -18h-3h-4q-53 -8 -53 -27q0 -22 41 -22q12 0 27 1q127 9 258 9q129 0 259 -9q15 -1 27 -1q39 0 39 22q0 18 -50 26q-2 1 -5 1q-59 5 -91 19q-41 18 -57 53t-16 112zM351 1669q0 -42 29.5 -71t70.5 -29t70.5 29t29.5 71
q0 41 -29.5 70.5t-70.5 29.5t-70.5 -29.5t-29.5 -70.5z" />
    <glyph glyph-name="dotlessi" unicode="&#x131;" horiz-adv-x="565" 
d="M197 733v-557q0 -60 -11 -82t-39 -35q-23 -12 -57 -16q-26 -6 -33.5 -12t-7.5 -17q0 -18 31 -18q1 0 70 6t137 6q67 0 135 -6t70 -6q32 0 32 18q0 13 -8 19t-33 10q-35 5 -57 16q-28 13 -39 33q-10 20 -10 84v729q0 31 -23 31q-5 0 -74 -25q-70 -24 -141 -39l-17.5 -3.5
t-18.5 -3.5q-46 -7 -48 -25q0 -13 36 -16q3 -1 7 -1q41 0 60 -8q22 -8 30.5 -25t8.5 -57z" />
    <glyph glyph-name="IJ" unicode="&#x132;" horiz-adv-x="1692" 
d="M1169 -207q0 -172 -50 -236q-49 -63 -171 -63q-105 0 -153 120q-1 2 -2.5 6t-2.5 6q-24 59 -83 59q-41 0 -65 -21.5t-24 -56.5q0 -74 82 -119t222 -45q241 0 350 109q110 108 110 352v1247q0 82 17 118q17 35 57 48q36 12 70 12q2 1 5 1.5t5 0.5q43 7 43 23q0 18 -35 18
q-11 0 -24 -1q-112 -7 -244 -7q-119 0 -232 7q-19 1 -36 1q-39 0 -39 -20q0 -15 49 -22q3 -1 6 -1q50 -4 78 -16q37 -18 52 -52t15 -110v-1358zM555 229v922q0 79 17 116t59 50q36 12 69 12q2 1 6 1q3 1 5 1q43 7 43 23q0 18 -35 18q-12 0 -25 -1q-113 -7 -245 -7
q-118 0 -231 7q-19 1 -36 1q-39 0 -39 -20q1 -16 50 -22q3 -1 6 -1q53 -5 77 -16q38 -18 53 -52q15 -35 15 -110v-922q0 -82 -16 -114q-16 -33 -57 -51q-32 -15 -89 -19h-4q-55 -7 -55 -27q0 -22 41 -22q12 0 27 1q127 9 258 9q129 0 259 -9q15 -1 27 -1q39 0 39 22
q0 19 -53 27h-4q-57 5 -89 19q-40 16 -56.5 51.5t-16.5 107.5v6z" />
    <glyph glyph-name="ij" unicode="&#x133;" horiz-adv-x="1071" 
d="M197 733v-557q0 -64 -10 -84q-11 -21 -40 -33q-26 -11 -57 -16q-26 -6 -33.5 -12t-7.5 -17q0 -18 31 -18q1 0 70 6t137 6q67 0 135 -6t70 -6q32 0 32 18q0 12 -9.5 18t-39.5 11q-2 0 -4 1q-94 22 -94 103v758q0 31 -23 31q-5 0 -70 -22q-58 -20 -130 -37q-17 -5 -43 -9
q-56 -11 -56 -28q0 -13 34 -16q3 -1 7 -1q7 0 14 -1q32 -3 48 -9q22 -6 30.5 -22.5t8.5 -57.5zM160 1354q0 -44 31 -74.5t75 -30.5t74.5 30.5t30.5 74.5t-31 75t-74 31q-44 0 -75 -31t-31 -75zM702 1352q0 -43 31 -73t76 -30q44 0 74 29.5t30 73.5q0 45 -31 76
q-30 32 -73 32q-44 0 -76 -32q-31 -31 -31 -76zM748 -225q0 -153 -50 -223t-159 -70q-111 0 -142 82q-24 67 -80 67q-71 0 -71 -67q0 -57 79 -91q79 -36 205 -36q196 0 297 90t101 266v1108q0 35 -21 35q-2 0 -17 -6q-84 -34 -210 -60q-1 0 -11 -2q-87 -17 -87 -37
q0 -11 10.5 -14.5t50.5 -3.5q60 0 83 -26q22 -25 22 -97v-915z" />
    <glyph glyph-name="Jcircumflex" unicode="&#x134;" horiz-adv-x="901" 
d="M379 -207q0 -173 -49 -235q-49 -64 -170 -64q-59 0 -93 23q-32 22 -67 108q-24 60 -84 60q-40 0 -63 -21.5t-23 -56.5q0 -74 82 -119q81 -45 219 -45q149 0 247.5 44t158.5 136q28 48 42 110q13 59 13 189v1229q0 83 18 119.5t64 48.5q40 10 67 10q1 1 4 1t5 1
q41 8 41 23q-1 18 -37 18q-12 0 -25 -1q-113 -7 -244 -7q-121 0 -234 7q-18 1 -34 1q-37 0 -37 -20q0 -15 49 -22q3 -1 7 -1q48 -5 77 -16q37 -16 51 -50q15 -33 15 -112v-1358zM195 1515h59l232 209l233 -209h58l-232 348h-117z" />
    <glyph glyph-name="jcircumflex" unicode="&#x135;" horiz-adv-x="565" 
d="M242 -225q0 -153 -50 -223t-159 -70q-111 0 -142 82q-24 67 -79 67q-72 0 -72 -67q0 -57 79 -91q80 -36 206 -36q195 0 296 90t101 266v1108q0 37 -21 37q-2 0 -16 -6q-87 -37 -211 -62l-10 -2q-88 -16 -88 -37q0 -12 12 -16t49 -4q62 0 83 -25q22 -23 22 -96v-915z
M-16 1036h59l232 209l233 -209h58l-232 348h-117z" />
    <glyph glyph-name="Kcedilla" unicode="&#x136;" horiz-adv-x="1573" 
d="M539 528l137 125l131 -155q276 -327 276 -394q0 -27 -17.5 -39.5t-66.5 -19.5q-26 -4 -30 -4q-54 -7 -54 -25q1 -22 46 -22q12 0 59 3q170 9 315 9q65 0 176 -10q33 0 33 24q0 15 -34 21q-20 3 -31 6q-62 20 -200 183q-12 14 -13 15l-461 558q94 110 239 292
q136 171 168 195q48 39 107 39q1 1 2 1q2 1 3 1q24 7 24 19q0 22 -39 22q-23 0 -79 -4q-55 -4 -108 -4q-46 0 -102 4t-86 4q-39 0 -39 -18q0 -13 11 -18t48 -7q8 -2 13 -2q84 -11 84 -74t-140 -245q-138 -178 -372 -412v555q0 81 19 118t65 50q39 10 67 10q1 1 4 1.5t4 0.5
q41 8 41 23q0 18 -37 18q-11 0 -24 -1q-115 -7 -246 -7q-121 0 -233 7q-17 1 -33 1q-39 0 -39 -20q0 -15 49 -22q3 -1 6 -1q49 -4 78 -16q37 -16 51 -50q15 -33 15 -112v-922q0 -83 -15 -116q-14 -32 -50 -49q-28 -15 -79 -19q-2 0 -5 -1q-50 -8 -50 -26q0 -22 37 -22
q11 0 24 1q120 9 244 9q125 0 245 -9q13 -1 23 -1q39 0 39 22q0 20 -50 26q-2 1 -5 1q-48 4 -77 18q-39 20 -54 52q-14 36 -14 114v299zM817 -319q0 -3 1 -5q7 -18 7 -30q0 -47 -40 -106q-39 -60 -105 -107l22 -31q90 41 145 126q56 86 56 177q0 70 -37 113t-96 43
q-42 0 -69.5 -29.5t-27.5 -73.5q0 -43 24 -68.5t64 -25.5q29 0 56 17z" />
    <glyph glyph-name="kcedilla" unicode="&#x137;" horiz-adv-x="1126" 
d="M229 1253v-1077q0 -64 -10 -84q-11 -20 -39 -33q-23 -12 -57 -16q-26 -6 -33.5 -12t-7.5 -17q0 -18 31 -18q1 0 70 6t136 6q68 0 136 -6q67 -6 69 -6q33 0 33 18q0 12 -8.5 18.5t-32.5 10.5q-34 4 -57 16q-29 13 -39 33t-10 84v238q6 2 12 2q24 0 74 -54l317 -344
q14 -16 43 -16q1 0 5 0.5t12.5 1t17.5 0.5q44 2 63 2q23 0 42 -1t44 -1q32 0 44 5t12 18q0 7 -15 14q-1 1 -2 1t-2 1q-65 22 -139 100l-383 392l156 172q107 121 166 143q14 6 38 10h2q31 7 31 25q0 11 -9 14.5t-44 3.5q-13 0 -62 -3t-85 -3q-42 0 -85 3t-45 3q-14 0 -19 -4
t-5 -14q0 -19 42 -27q2 0 21 -4q28 -5 39 -13t11 -24q0 -25 -39 -76t-131 -147l-131 -137v985q-1 18 -5 25t-16 8q-7 0 -82 -18q-70 -17 -142 -28q-3 -1 -9.5 -1.5t-9.5 -0.5q-60 -9 -60 -30q0 -12 43 -21q4 0 7 -1q26 -6 48 -13q29 -12 39 -33t10 -76zM594 -319q0 -3 1 -5
q7 -18 7 -30q0 -47 -40 -106q-39 -60 -105 -107l22 -31q90 41 145 126q56 86 56 177q0 70 -37 113t-96 43q-42 0 -69.5 -29.5t-27.5 -73.5q0 -43 24 -68.5t64 -25.5q29 0 56 17z" />
    <glyph glyph-name="kra" unicode="&#x138;" horiz-adv-x="1126" 
d="M410 457v268q0 63 9 82q11 21 40 37q17 8 51 16q33 8 33 23q0 20 -31 20q-1 0 -4 -0.5t-8 -1t-10 -0.5q-91 -8 -171 -8q-59 0 -136 5q-20 1 -37.5 2.5t-25.5 1.5l-7 1q-31 0 -31 -20q0 -17 39 -24q40 -8 59 -15q28 -13 39 -35q10 -19 10 -84v-549q0 -64 -10 -84
q-11 -21 -38 -32q-23 -11 -61 -18q-38 -8 -38 -24q0 -22 31 -22q1 0 70 6t136 6q68 0 136 -6q67 -6 69 -6q33 0 33 22q0 16 -39 24q-38 8 -60 18q-27 11 -38 32q-10 20 -10 84v238q6 2 12 2q24 0 74 -54l317 -344q20 -22 43 -22q1 0 34 6t64 6q24 0 52 -6t34 -6q27 0 42.5 8
t15.5 21q0 3 -51 31q-50 28 -109 87l-383 392l156 172q107 121 166 137q23 10 42 16q29 8 29 25q0 11 -9 14.5t-44 3.5q-9 0 -66 -5t-88 -5q-32 0 -74 5q-11 1 -20.5 2.5t-13.5 1.5l-4 1q-17 0 -22 -4t-5 -14q0 -18 52 -30q53 -12 53 -38q0 -40 -165 -217l-5 -6z" />
    <glyph glyph-name="Lacute" unicode="&#x139;" horiz-adv-x="1350" 
d="M514 299v852q0 83 18 119.5t64 48.5q40 10 68 10q1 1 4 1.5t4 0.5q41 8 41 23q-1 18 -37 18q-12 0 -25 -1q-113 -7 -243 -7q-122 0 -235 7q-18 1 -34 1q-37 0 -37 -20q1 -16 50 -22q3 -1 6 -1q50 -5 78 -16q36 -17 50 -50q15 -33 15 -112v-922q0 -83 -15 -116
q-14 -32 -51 -50q-31 -14 -77 -18q-3 0 -6 -1q-48 -6 -50 -26q1 -22 37 -22q13 0 30 1q215 11 439 11q276 0 575 -14q14 0 29.5 -0.5t23.5 -1t11 -0.5q27 0 35 9.5t8 41.5l4 274q0 25 -3 31t-13 6q-20 0 -37 -69q-16 -68 -45 -109q-46 -64 -132 -93.5t-230 -29.5
q-197 0 -258 49q-62 50 -62 197zM238 1515h67l330 205q61 40 61 82q0 32 -20 52t-53 20q-21 0 -41.5 -12.5t-55.5 -47.5z" />
    <glyph glyph-name="lacute" unicode="&#x13a;" horiz-adv-x="563" 
d="M377 176v1266q0 33 -21 33q-3 -1 -23 -6q-97 -25 -204 -39q-2 -1 -5 -1.5t-5 -0.5q-70 -10 -70 -31q1 -8 9 -12t35 -9q3 0 6 -1q26 -6 48 -13q29 -12 39.5 -33.5t10.5 -75.5v-1077q0 -62 -11 -84q-10 -20 -39 -33q-23 -12 -57 -16q-26 -6 -33.5 -12t-7.5 -17
q0 -18 31 -18q1 0 70 6t137 6q67 0 136 -6t71 -6q30 0 30 18q0 13 -8 19t-33 10q-35 5 -57 16q-28 13 -39 33q-10 20 -10 84zM99 1587h67l330 205q61 40 61 82q0 32 -20 52t-53 20q-21 0 -41.5 -12.5t-55.5 -47.5z" />
    <glyph glyph-name="Lcedilla" unicode="&#x13b;" horiz-adv-x="1350" 
d="M514 299v852q0 83 18 119.5t64 48.5q40 10 68 10q1 1 4 1.5t4 0.5q41 8 41 23q-1 18 -37 18q-12 0 -25 -1q-113 -7 -243 -7q-122 0 -235 7q-18 1 -34 1q-37 0 -37 -20q1 -16 50 -22q3 -1 6 -1q50 -5 78 -16q36 -17 50 -50q15 -33 15 -112v-922q0 -83 -15 -116
q-14 -32 -51 -50q-31 -14 -77 -18q-3 0 -6 -1q-48 -6 -50 -26q1 -22 37 -22q13 0 30 1q215 11 439 11q276 0 575 -14q14 0 29.5 -0.5t23.5 -1t11 -0.5q27 0 35 9.5t8 41.5l4 274q0 25 -3 31t-13 6q-20 0 -37 -69q-16 -68 -45 -109q-46 -64 -132 -93.5t-230 -29.5
q-197 0 -258 49q-62 50 -62 197zM707 -319q0 -3 1 -5q7 -18 7 -30q0 -47 -40 -106q-39 -60 -105 -107l22 -31q90 41 145 126q56 86 56 177q0 70 -37 113t-96 43q-42 0 -69.5 -29.5t-27.5 -73.5q0 -43 24 -68.5t64 -25.5q29 0 56 17z" />
    <glyph glyph-name="lcedilla" unicode="&#x13c;" horiz-adv-x="563" 
d="M377 176v1266q0 33 -21 33q-3 -1 -23 -6q-97 -25 -204 -39q-2 -1 -5 -1.5t-5 -0.5q-70 -10 -70 -31q1 -8 9 -12t35 -9q3 0 6 -1q26 -6 48 -13q29 -12 39.5 -33.5t10.5 -75.5v-1077q0 -62 -11 -84q-10 -20 -39 -33q-23 -12 -57 -16q-26 -6 -33.5 -12t-7.5 -17
q0 -18 31 -18q1 0 70 6t137 6q67 0 136 -6t71 -6q30 0 30 18q0 13 -8 19t-33 10q-35 5 -57 16q-28 13 -39 33q-10 20 -10 84zM314 -319q0 -3 1 -5q7 -18 7 -30q0 -47 -40 -106q-39 -60 -105 -107l22 -31q90 41 145 126q56 86 56 177q0 70 -37 113t-96 43q-42 0 -69.5 -29.5
t-27.5 -73.5q0 -43 24 -68.5t64 -25.5q29 0 56 17z" />
    <glyph glyph-name="Lcaron" unicode="&#x13d;" horiz-adv-x="1350" 
d="M1112 1210q1 -1 1 -2q1 -2 1 -3q6 -18 6 -29q0 -47 -40 -108q-39 -60 -105 -107l20 -29q91 41 146 126q57 86 57 177q0 69 -36.5 111.5t-96.5 42.5q-42 0 -70 -29t-28 -72t25 -69.5t65 -26.5q25 0 55 18zM514 299v852q0 82 17 118q17 35 57 48q36 12 69 12q2 1 6 1
q3 1 5 1q43 7 43 23q0 18 -35 18q-11 0 -24 -1q-112 -7 -244 -7q-119 0 -232 7q-19 1 -37 1q-37 0 -37 -20q1 -16 50 -22q3 -1 6 -1q50 -4 78 -16q37 -17 50 -51q15 -33 15 -111v-922q0 -79 -15 -114q-13 -32 -50 -52q-32 -14 -78 -18h-4q-52 -7 -52 -27q0 -22 37 -22
q12 0 27 1q212 11 442 11q281 0 578 -14q14 0 28.5 -0.5t22 -1t10.5 -0.5q25 0 34 10.5t9 40.5l4 274q0 24 -3 30.5t-13 6.5q-20 0 -37 -69q-16 -68 -45 -109q-46 -64 -132 -93.5t-230 -29.5q-198 0 -259 49t-61 197z" />
    <glyph glyph-name="lcaron" unicode="&#x13e;" horiz-adv-x="791" 
d="M377 176v1266q0 33 -21 33q-3 -1 -23 -6q-97 -25 -204 -39q-2 -1 -5 -1.5t-5 -0.5q-70 -10 -70 -31q1 -8 9 -12t35 -9q3 0 6 -1q26 -6 48 -13q29 -12 39.5 -33.5t10.5 -75.5v-1077q0 -62 -11 -84q-10 -20 -39 -33q-23 -12 -57 -16q-26 -6 -33.5 -12t-7.5 -17
q0 -18 31 -18q1 0 70 6t137 6q67 0 136 -6t71 -6q30 0 30 18q0 13 -8 19t-33 10q-35 5 -57 16q-28 13 -39 33q-10 20 -10 84zM706 1257l2 -4q5 -16 7 -30q0 -46 -41 -108q-39 -60 -105 -107l23 -29q88 41 144 126q56 86 56 177q0 70 -37 113t-96 43q-41 0 -68.5 -29.5
t-27.5 -73.5q0 -43 24 -69.5t64 -26.5q25 0 55 18z" />
    <glyph glyph-name="Ldot" unicode="&#x13f;" horiz-adv-x="1911" 
d="M514 299v852q0 83 18 119.5t64 48.5q40 10 68 10q1 1 4 1.5t4 0.5q41 8 41 23q-1 18 -37 18q-12 0 -25 -1q-113 -7 -243 -7q-122 0 -235 7q-18 1 -34 1q-37 0 -37 -20q1 -16 50 -22q3 -1 6 -1q50 -5 78 -16q36 -17 50 -50q15 -33 15 -112v-922q0 -83 -15 -116
q-14 -32 -51 -50q-31 -14 -77 -18q-3 0 -6 -1q-48 -6 -50 -26q1 -22 37 -22q13 0 30 1q215 11 439 11q276 0 575 -14q14 0 29.5 -0.5t23.5 -1t11 -0.5q27 0 35 9.5t8 41.5l4 274q0 25 -3 31t-13 6q-20 0 -37 -69q-16 -68 -45 -109q-46 -64 -132 -93.5t-230 -29.5
q-197 0 -258 49q-62 50 -62 197zM1516 723q0 -49 33 -82t82 -33q48 0 80 33t32 82q0 48 -33 81q-31 34 -79 34t-81.5 -33.5t-33.5 -81.5z" />
    <glyph glyph-name="ldot" unicode="&#x140;" horiz-adv-x="1124" 
d="M377 176v1266q0 33 -21 33q-3 -1 -23 -6q-97 -25 -204 -39q-2 -1 -5 -1.5t-5 -0.5q-70 -10 -70 -31q1 -8 9 -12t35 -9q3 0 6 -1q26 -6 48 -13q29 -12 39.5 -33.5t10.5 -75.5v-1077q0 -62 -11 -84q-10 -20 -39 -33q-23 -12 -57 -16q-26 -6 -33.5 -12t-7.5 -17
q0 -18 31 -18q1 0 70 6t137 6q67 0 136 -6t71 -6q30 0 30 18q0 13 -8 19t-33 10q-35 5 -57 16q-28 13 -39 33q-10 20 -10 84zM729 723q0 -49 33 -82t82 -33q48 0 80 33t32 82q0 48 -33 81q-31 34 -79 34t-81.5 -33.5t-33.5 -81.5z" />
    <glyph glyph-name="Lslash" unicode="&#x141;" horiz-adv-x="1354" 
d="M518 299v418l371 258v84l-371 -258v350q0 81 19 118t65 50q40 10 66 10q1 1 4 1.5t4 0.5q41 8 41 23q-1 18 -37 18q-12 0 -25 -1q-113 -7 -243 -7q-122 0 -235 7q-18 1 -34 1q-37 0 -37 -20q1 -16 50 -22q3 -1 6 -1q50 -5 78 -16q36 -17 50 -50q15 -33 15 -112v-483
l-305 -215v-82l305 215v-357q0 -82 -14 -116q-14 -32 -52 -50q-29 -14 -77 -18q-3 0 -6 -1q-48 -6 -50 -26q1 -22 37 -22q13 0 30 1q215 11 439 11q276 0 575 -14q14 0 29.5 -0.5t23.5 -1t11 -0.5q27 0 35 9.5t8 41.5l6 274q0 22 -4 29.5t-14 7.5q-20 0 -37 -69
q-16 -68 -45 -109q-46 -64 -131.5 -93.5t-230.5 -29.5q-197 0 -258 49q-62 50 -62 197z" />
    <glyph glyph-name="lslash" unicode="&#x142;" horiz-adv-x="573" 
d="M381 176v588l192 135v68l-192 -133v608q0 33 -21 33q-1 0 -3.5 -1t-7.5 -2l-10 -2q-105 -27 -204 -40q-2 -1 -6 -1q-3 -1 -5 -1q-71 -11 -71 -31q1 -8 9 -12t35 -9q3 0 6 -1q29 -6 49 -13q28 -12 38.5 -33.5t10.5 -75.5v-538l-201 -137v-68l201 137v-471q0 -62 -11 -84
q-11 -20 -38 -33q-24 -11 -57 -16q-26 -6 -34 -12t-8 -17q0 -18 31 -18q1 0 70 6t137 6q67 0 136 -6t71 -6q30 0 30 18q0 13 -8 19t-33 10q-35 5 -57 16q-28 13 -39 33q-10 20 -10 84z" />
    <glyph glyph-name="Nacute" unicode="&#x143;" horiz-adv-x="1686" 
d="M379 262v891l915 -1139q39 -49 68 -49q18 0 25.5 13t7.5 49v1097q0 90 15 127t54 58q26 12 73 20h3l3 1q44 11 44 24q0 20 -35 20q-10 0 -39 -3q-3 -1 -8 -1q-57 -4 -119 -4q-44 0 -124 5t-91 5q-34 0 -34 -20q0 -8 7 -14.5t15 -6.5q92 0 132 -48t40 -161v-841l-839 1050
q-29 39 -70 39q-13 0 -55 -6q-8 0 -32 -1t-30 -1q-47 0 -91 4t-58 4q-56 0 -56 -20q0 -18 43 -24q2 -1 4 -1q3 0 6 -1q32 -6 36 -7q43 -13 72.5 -36t55.5 -64v-957q0 -94 -15 -135q-15 -38 -54 -61q-20 -10 -60 -21q-4 -1 -9.5 -2.5t-6.5 -1.5q-49 0 -49 -23q0 -22 49 -22
q22 0 78 3t90 3q74 0 159 -6q7 0 14.5 -0.5t11 -1t5.5 -0.5q43 0 43 22q0 17 -38 25h-3q-41 5 -67 16q-47 25 -67 67q-19 41 -19 136zM668 1515h67l330 205q61 40 61 82q0 32 -20 52t-53 20q-21 0 -41.5 -12.5t-55.5 -47.5z" />
    <glyph glyph-name="nacute" unicode="&#x144;" horiz-adv-x="1245" 
d="M225 176q0 -64 -10 -84q-11 -20 -39 -33q-20 -7 -48 -14q-2 0 -5 -0.5t-4 -1.5q-41 -6 -41 -25q0 -22 31 -22q2 0 71 6q70 6 135 6q67 0 134 -6t71 -6q33 0 33 18q0 12 -8.5 18.5t-32.5 10.5q-34 4 -57 16q-28 13 -39 34q-10 19 -10 83v387q0 125 75 210t183 85
q192 0 192 -217v-465q0 -64 -10 -84t-39 -33q-20 -7 -48 -14q-2 0 -5 -0.5t-4 -1.5q-41 -6 -41 -25q0 -22 32 -22q3 0 71 6t134 6t135 -6t72 -6q31 0 31 18q0 12 -8.5 18.5t-32.5 10.5q-33 4 -58 16q-28 13 -39 34q-10 19 -10 83v477q0 131 -78.5 202t-224.5 71
q-217 0 -338 -195q-1 10 -2.5 34t-2.5 34q-10 133 -42 133q-7 0 -69 -22q-60 -20 -121 -33q-6 -1 -15 -3q-65 -14 -65 -30q0 -14 38 -20q4 0 5 -1q33 0 55 -12q28 -15 38.5 -45t10.5 -98v-492zM439 1036h67l330 205q61 40 61 82q0 32 -20 52t-53 20q-21 0 -41.5 -12.5
t-55.5 -47.5z" />
    <glyph glyph-name="Ncedilla" unicode="&#x145;" horiz-adv-x="1686" 
d="M379 262v891l915 -1139q39 -49 68 -49q18 0 25.5 13t7.5 49v1097q0 90 15 127t54 58q26 12 73 20h3l3 1q44 11 44 24q0 20 -35 20q-10 0 -39 -3q-3 -1 -8 -1q-57 -4 -119 -4q-44 0 -124 5t-91 5q-34 0 -34 -20q0 -8 7 -14.5t15 -6.5q92 0 132 -48t40 -161v-841l-839 1050
q-29 39 -70 39q-13 0 -55 -6q-8 0 -32 -1t-30 -1q-47 0 -91 4t-58 4q-56 0 -56 -20q0 -18 43 -24q2 -1 4 -1q3 0 6 -1q32 -6 36 -7q43 -13 72.5 -36t55.5 -64v-957q0 -94 -15 -135q-15 -38 -54 -61q-20 -10 -60 -21q-4 -1 -9.5 -2.5t-6.5 -1.5q-49 0 -49 -23q0 -22 49 -22
q22 0 78 3t90 3q74 0 159 -6q7 0 14.5 -0.5t11 -1t5.5 -0.5q43 0 43 22q0 17 -38 25h-3q-41 5 -67 16q-47 25 -67 67q-19 41 -19 136zM899 -319q0 -3 1 -5q7 -18 7 -30q0 -47 -40 -106q-39 -60 -105 -107l22 -31q90 41 145 126q56 86 56 177q0 70 -37 113t-96 43
q-42 0 -69.5 -29.5t-27.5 -73.5q0 -43 24 -68.5t64 -25.5q29 0 56 17z" />
    <glyph glyph-name="ncedilla" unicode="&#x146;" horiz-adv-x="1245" 
d="M225 176q0 -64 -10 -84q-11 -20 -39 -33q-20 -7 -48 -14q-2 0 -5 -0.5t-4 -1.5q-41 -6 -41 -25q0 -22 31 -22q2 0 71 6q70 6 135 6q67 0 134 -6t71 -6q33 0 33 18q0 12 -8.5 18.5t-32.5 10.5q-34 4 -57 16q-28 13 -39 34q-10 19 -10 83v387q0 125 75 210t183 85
q192 0 192 -217v-465q0 -64 -10 -84t-39 -33q-20 -7 -48 -14q-2 0 -5 -0.5t-4 -1.5q-41 -6 -41 -25q0 -22 32 -22q3 0 71 6t134 6t135 -6t72 -6q31 0 31 18q0 12 -8.5 18.5t-32.5 10.5q-33 4 -58 16q-28 13 -39 34q-10 19 -10 83v477q0 131 -78.5 202t-224.5 71
q-217 0 -338 -195q-1 10 -2.5 34t-2.5 34q-10 133 -42 133q-7 0 -69 -22q-60 -20 -121 -33q-6 -1 -15 -3q-65 -14 -65 -30q0 -14 38 -20q4 0 5 -1q33 0 55 -12q28 -15 38.5 -45t10.5 -98v-492zM654 -319q0 -3 1 -5q7 -18 7 -30q0 -47 -40 -106q-39 -60 -105 -107l22 -31
q90 41 145 126q56 86 56 177q0 70 -37 113t-96 43q-42 0 -69.5 -29.5t-27.5 -73.5q0 -43 24 -68.5t64 -25.5q29 0 56 17z" />
    <glyph glyph-name="Ncaron" unicode="&#x147;" horiz-adv-x="1686" 
d="M379 262v891l915 -1139q39 -49 68 -49q18 0 25.5 13t7.5 49v1097q0 90 15 127t54 58q26 12 73 20h3l3 1q44 11 44 24q0 20 -35 20q-10 0 -39 -3q-3 -1 -8 -1q-57 -4 -119 -4q-44 0 -124 5t-91 5q-34 0 -34 -20q0 -8 7 -14.5t15 -6.5q92 0 132 -48t40 -161v-841l-839 1050
q-29 39 -70 39q-13 0 -55 -6q-8 0 -32 -1t-30 -1q-47 0 -91 4t-58 4q-56 0 -56 -20q0 -18 43 -24q2 -1 4 -1q3 0 6 -1q32 -6 36 -7q43 -13 72.5 -36t55.5 -64v-957q0 -94 -15 -135q-15 -38 -54 -61q-20 -10 -60 -21q-4 -1 -9.5 -2.5t-6.5 -1.5q-49 0 -49 -23q0 -22 49 -22
q22 0 78 3t90 3q74 0 159 -6q7 0 14.5 -0.5t11 -1t5.5 -0.5q43 0 43 22q0 17 -38 25h-3q-41 5 -67 16q-47 25 -67 67q-19 41 -19 136zM553 1863l233 -348h117l232 348h-58l-233 -210l-232 210h-59z" />
    <glyph glyph-name="ncaron" unicode="&#x148;" horiz-adv-x="1245" 
d="M225 176q0 -64 -10 -84q-11 -20 -39 -33q-20 -7 -48 -14q-2 0 -5 -0.5t-4 -1.5q-41 -6 -41 -25q0 -22 31 -22q2 0 71 6q70 6 135 6q67 0 134 -6t71 -6q33 0 33 18q0 12 -8.5 18.5t-32.5 10.5q-34 4 -57 16q-28 13 -39 34q-10 19 -10 83v387q0 125 75 210t183 85
q192 0 192 -217v-465q0 -64 -10 -84t-39 -33q-20 -7 -48 -14q-2 0 -5 -0.5t-4 -1.5q-41 -6 -41 -25q0 -22 32 -22q3 0 71 6t134 6t135 -6t72 -6q31 0 31 18q0 12 -8.5 18.5t-32.5 10.5q-33 4 -58 16q-28 13 -39 34q-10 19 -10 83v477q0 131 -78.5 202t-224.5 71
q-217 0 -338 -195q-1 10 -2.5 34t-2.5 34q-10 133 -42 133q-7 0 -69 -22q-60 -20 -121 -33q-6 -1 -15 -3q-65 -14 -65 -30q0 -14 38 -20q4 0 5 -1q33 0 55 -12q28 -15 38.5 -45t10.5 -98v-492zM324 1384l233 -348h117l232 348h-58l-233 -210l-232 210h-59z" />
    <glyph glyph-name="quoten" unicode="&#x149;" horiz-adv-x="1473" 
d="M143 1257l2 -4q5 -16 7 -30q0 -46 -41 -108q-39 -60 -105 -107l23 -29q89 41 144 126q56 86 56 177q0 70 -37 113t-96 43q-41 0 -68.5 -29.5t-27.5 -73.5q0 -43 24 -69.5t64 -26.5q25 0 55 18zM452 176q0 -64 -10 -84t-39 -33q-20 -7 -48 -14q-1 0 -4.5 -0.5t-4.5 -1.5
q-41 -6 -41 -25q0 -22 31 -22q2 0 71 6q71 6 135 6q66 0 134 -6t71 -6q33 0 33 18q0 12 -8.5 18.5t-32.5 10.5q-34 4 -57 16q-28 13 -39 34q-10 19 -10 83v387q0 125 75 210t183 85q192 0 192 -217v-465q0 -64 -10 -84q-11 -20 -39 -33q-20 -7 -48 -14q-1 0 -4.5 -0.5
t-4.5 -1.5q-41 -6 -41 -25q0 -22 32 -22q4 0 71 6t134 6q66 0 135 -6t72 -6q31 0 31 18q0 12 -8.5 18.5t-32.5 10.5q-33 4 -58 16q-28 13 -39 34q-10 19 -10 83v477q0 131 -78.5 202t-224.5 71q-217 0 -338 -195q-1 10 -2.5 34t-2.5 34q-10 133 -42 133q-7 0 -69 -22
q-60 -20 -121 -33q-6 -1 -15 -3q-65 -14 -65 -30q0 -14 38 -20q4 0 5 -1q32 0 55 -12q28 -15 38.5 -45t10.5 -98v-492z" />
    <glyph glyph-name="Eng" unicode="&#x14a;" horiz-adv-x="1686" 
d="M379 262v891l915 -1138q1 -1 2.5 -3.5t2.5 -3.5q32 -43 32 -82v-151q0 -141 -61 -214t-178 -73q-51 0 -80 23q-27 21 -64 112q-24 55 -80 55q-40 0 -64 -20.5t-24 -56.5q0 -71 78 -117q80 -47 205 -47q169 0 250.5 87t81.5 269v1331q0 89 15 128q15 40 54 67q19 7 72 13
q51 6 51 24q0 7 -10.5 13.5t-24.5 6.5q-3 0 -65 -5t-101 -5q-41 0 -121 5t-94 5q-34 0 -34 -20t45 -24q46 -5 67 -13q46 -24 64 -65q18 -40 18 -128v-841l-839 1050q-30 41 -72 41q-11 0 -53 -5t-62 -5q-35 0 -90 5t-59 5q-56 0 -56 -22q1 -17 45 -25q20 -3 43 -10
q78 -21 129 -98v-957q0 -94 -15 -135t-54 -63q-24 -14 -75 -21q-50 -8 -50 -25q0 -10 14 -17t35 -7t70 4t98 4q74 0 159 -6q7 0 14.5 -0.5t11 -1t5.5 -0.5q43 0 43 22q0 18 -42 25q-41 7 -66 23q-47 22 -67 62q-19 39 -19 134z" />
    <glyph glyph-name="eng" unicode="&#x14b;" horiz-adv-x="1188" 
d="M225 176q0 -64 -10 -84q-11 -21 -38 -32q-23 -11 -61 -18q-38 -8 -38 -24q0 -22 31 -22q1 0 70 6t136 6q69 0 136 -6t69 -6q33 0 33 22q0 16 -39 24q-36 7 -59 17q-29 13 -39 33t-10 84v387q0 125 75 210t183 85q192 0 192 -217v-866q0 -293 -184 -293q-41 0 -66.5 17.5
t-46.5 58.5q-1 1 -3 5q-34 72 -79 72q-31 0 -48 -18.5t-17 -52.5q0 -52 69 -90q70 -37 176 -37q182 0 280.5 92.5t98.5 263.5v860q0 130 -78 199.5t-225 69.5q-215 0 -338 -191q-1 10 -2.5 32.5t-2.5 32.5q-10 136 -38 136q-11 0 -74 -22t-120 -33q-5 -2 -13 -3
q-65 -14 -65 -30q0 -15 40 -19q39 -3 56 -12q27 -15 38 -46.5t11 -98.5v-492z" />
    <glyph glyph-name="Omacron" unicode="&#x14c;" horiz-adv-x="1686" 
d="M348 690q0 302 138 486q139 184 362 184q228 0 361 -181q134 -182 134 -493q0 -307 -137 -492q-136 -184 -362 -184q-221 0 -359 187q-137 188 -137 493zM96 680q0 -159 54 -284.5t167 -231.5q214 -197 531 -197q147 0 287 55q143 56 243 150q101 95 157 229
q56 136 56 283q0 295 -178 485q-103 110 -251 173q-144 61 -306 61q-323 0 -549 -221q-211 -211 -211 -502zM578 1605h516v127h-516v-127z" />
    <glyph glyph-name="omacron" unicode="&#x14d;" horiz-adv-x="1126" 
d="M272 446q0 201 78 321q80 120 207 120q141 0 217 -114q78 -113 78 -318q0 -217 -75 -329t-220 -112q-136 0 -210.5 112.5t-74.5 319.5zM74 449q0 -208 139 -343t354 -135q200 0 340 144q69 70 106.5 159.5t37.5 184.5q0 87 -39 174.5t-109 157.5q-140 135 -330 135
q-211 0 -355 -138q-144 -136 -144 -339zM297 1126h516v127h-516v-127z" />
    <glyph glyph-name="Obreve" unicode="&#x14e;" horiz-adv-x="1686" 
d="M348 690q0 302 138 486q139 184 362 184q228 0 361 -181q134 -182 134 -493q0 -307 -137 -492q-136 -184 -362 -184q-221 0 -359 187q-137 188 -137 493zM96 680q0 -159 54 -284.5t167 -231.5q214 -197 531 -197q147 0 287 55q143 56 243 150q101 95 157 229
q56 136 56 283q0 295 -178 485q-103 110 -251 173q-144 61 -306 61q-323 0 -549 -221q-211 -211 -211 -502zM543 1825q21 -133 96 -202t197 -69q123 0 197 68.5t94 202.5h-52q-16 -75 -73 -108.5t-166 -33.5t-166 34t-74 108h-53z" />
    <glyph glyph-name="obreve" unicode="&#x14f;" horiz-adv-x="1126" 
d="M272 446q0 201 78 321q80 120 207 120q141 0 217 -114q78 -113 78 -318q0 -217 -75 -329t-220 -112q-136 0 -210.5 112.5t-74.5 319.5zM74 449q0 -208 139 -343t354 -135q200 0 340 144q69 70 106.5 159.5t37.5 184.5q0 87 -39 174.5t-109 157.5q-140 135 -330 135
q-211 0 -355 -138q-144 -136 -144 -339zM262 1346q21 -133 96 -202t197 -69q123 0 197 68.5t94 202.5h-52q-16 -75 -73 -108.5t-166 -33.5t-166 34t-74 108h-53z" />
    <glyph glyph-name="Odblacute" unicode="&#x150;" horiz-adv-x="1686" 
d="M348 690q0 302 138 486q139 184 362 184q228 0 361 -181q134 -182 134 -493q0 -307 -137 -492q-136 -184 -362 -184q-221 0 -359 187q-137 188 -137 493zM96 680q0 -159 54 -284.5t167 -231.5q214 -197 531 -197q147 0 287 55q143 56 243 150q101 95 157 229
q56 136 56 283q0 295 -178 485q-103 110 -251 173q-144 61 -306 61q-323 0 -549 -221q-211 -211 -211 -502zM926 1515h59l203 215q41 46 41 78q0 27 -20 46.5t-48 19.5q-26 0 -47.5 -18.5t-44.5 -61.5zM651 1515h58l205 215q41 46 41 78q0 27 -20 46.5t-48 19.5
q-26 0 -47.5 -18.5t-44.5 -61.5z" />
    <glyph glyph-name="odblacute" unicode="&#x151;" horiz-adv-x="1126" 
d="M272 446q0 201 78 321q80 120 207 120q141 0 217 -114q78 -113 78 -318q0 -217 -75 -329t-220 -112q-136 0 -210.5 112.5t-74.5 319.5zM74 449q0 -208 139 -343t354 -135q200 0 340 144q69 70 106.5 159.5t37.5 184.5q0 87 -39 174.5t-109 157.5q-140 135 -330 135
q-211 0 -355 -138q-144 -136 -144 -339zM645 1036h59l203 215q41 46 41 78q0 27 -20 46.5t-48 19.5q-26 0 -47.5 -18.5t-44.5 -61.5zM370 1036h58l205 215q41 46 41 78q0 27 -20 46.5t-48 19.5q-26 0 -47.5 -18.5t-44.5 -61.5z" />
    <glyph glyph-name="OE" unicode="&#x152;" horiz-adv-x="2142" 
d="M1327 352v340h37q123 0 186 -27t92 -92q13 -27 24 -73q10 -43 24 -43q22 0 22 37q0 4 -6 90q-6 87 -6 170q0 51 5 133t5 86q0 35 -22 35q-18 0 -30 -61q-10 -59 -32 -95q-34 -56 -96 -81q-60 -23 -203 -31v470q0 77 20 94t132 17h16q187 0 262 -25q75 -24 113 -84
q21 -34 28 -87q9 -54 29 -54q23 0 23 33q0 10 -4 41q-4 32 -4 65q0 34 3 70q3 38 3 41q0 30 -19 39q-19 10 -100 10h-45q-137 0 -288 -4q-149 -4 -218 -4q-88 0 -247 11t-206 11q-311 0 -507 -195q-197 -195 -197 -501q0 -328 185 -513q187 -185 515 -185q54 0 225 8t257 8
q280 0 606 -8q16 0 33.5 -0.5t26.5 -1t13 -0.5q45 0 55 7q11 8 11 50q0 45 4 106t4 101q0 41 -3.5 51.5t-16.5 10.5q-17 0 -31 -53q-14 -54 -35 -89q-41 -69 -118 -98q-78 -29 -226 -29q-183 0 -242 48q-57 49 -57 251zM1112 977v-520q0 -130 -8 -194q-8 -59 -27 -99
q-28 -62 -99.5 -96.5t-172.5 -34.5q-205 0 -317 175q-111 176 -111 499q0 310 116.5 473t337.5 163q158 0 219 -76q62 -77 62 -290z" />
    <glyph glyph-name="oe" unicode="&#x153;" horiz-adv-x="1696" 
d="M266 455q0 197 77 313q77 117 206 117q125 0 201 -112q77 -112 77 -298q0 -217 -75 -339q-74 -120 -209 -120q-133 0 -205 113.5t-72 325.5zM1008 621q18 119 86 192q69 72 166 72q84 0 134 -54.5t50 -146.5q0 -10 -3 -48q-1 -7 -1 -15h-432zM913 143q114 -172 347 -172
q128 0 229 59q100 60 100 117q0 25 -18 25q-17 0 -41 -28q-27 -30 -37 -38q-75 -57 -172 -57q-144 0 -236 119q-92 121 -92 313q0 53 4 84h582q34 0 41.5 4.5t7.5 22.5q0 142 -103 238t-263 96q-204 0 -351 -166q-154 166 -364 166q-203 0 -342 -138t-139 -337
q0 -202 139 -341t342 -139q102 0 197.5 45t168.5 127z" />
    <glyph glyph-name="Racute" unicode="&#x154;" horiz-adv-x="1460" 
d="M510 737v520q0 47 21 63.5t79 16.5q184 0 271.5 -83t87.5 -257q0 -171 -94 -244t-314 -73q-31 0 -41 10.5t-10 46.5zM510 229v361q0 25 7.5 34t29.5 9q36 0 57.5 -10.5t42.5 -36.5l443 -555q15 -19 32 -26t56 -7h47q33 4 49 4q66 0 133 -7q7 -1 14 -1q8 -2 15 -2
q13 0 22.5 5.5t9.5 12.5q0 15 -46 34q-1 1 -3 1q-102 38 -155 102l-445 521q188 24 284.5 115.5t96.5 244.5q0 181 -122.5 265.5t-385.5 84.5q-39 0 -184 -5t-207 -5q-112 0 -149 4h-17q-37 0 -37 -20q1 -16 50 -22q3 -1 6 -1q48 -5 77 -16q37 -16 51 -50q15 -33 15 -112
v-922q0 -83 -15 -116q-14 -32 -50 -49q-28 -14 -78 -19q-3 0 -6 -1q-48 -6 -50 -26q1 -22 37 -22q11 0 24 1q120 9 244 9q125 0 245 -9q13 -1 24 -1q36 0 37 22q-2 20 -50 26q-3 1 -6 1q-46 4 -77 18q-37 18 -52 50q-14 34 -14 116zM547 1515h67l330 205q61 40 61 82
q0 32 -20 52t-53 20q-21 0 -41.5 -12.5t-55.5 -47.5z" />
    <glyph glyph-name="racute" unicode="&#x155;" horiz-adv-x="895" 
d="M406 715q-7 55 -10 89q-13 130 -28 130q-16 0 -86 -19q-66 -18 -150 -34q-75 -16 -75 -33q0 -13 8.5 -18t36.5 -5q38 0 62 -8q40 -15 57 -53.5t17 -116.5v-471q0 -62 -11 -84q-11 -20 -39 -33q-23 -12 -57 -16q-26 -6 -33.5 -12t-7.5 -17q0 -18 31 -18q1 0 70 6t137 6
q67 0 136 -6t71 -6q30 0 30 18q0 12 -8.5 18.5t-32.5 10.5q-35 5 -57 16q-29 13 -39 33t-10 84v387q0 124 58 200q59 77 149 77q60 0 84 -57q3 -7 8 -17q22 -45 67 -45q32 0 51 22t19 60q0 48 -43 78t-113 30q-95 0 -172.5 -52t-119.5 -144zM265 1036h67l330 205
q61 40 61 82q0 32 -20 52t-53 20q-21 0 -41.5 -12.5t-55.5 -47.5z" />
    <glyph glyph-name="Rcedilla" unicode="&#x156;" horiz-adv-x="1460" 
d="M510 737v520q0 47 21 63.5t79 16.5q184 0 271.5 -83t87.5 -257q0 -171 -94 -244t-314 -73q-31 0 -41 10.5t-10 46.5zM510 229v361q0 25 7.5 34t29.5 9q36 0 57.5 -10.5t42.5 -36.5l443 -555q15 -19 32 -26t56 -7h47q33 4 49 4q66 0 133 -7q7 -1 14 -1q8 -2 15 -2
q13 0 22.5 5.5t9.5 12.5q0 15 -46 34q-1 1 -3 1q-102 38 -155 102l-445 521q188 24 284.5 115.5t96.5 244.5q0 181 -122.5 265.5t-385.5 84.5q-39 0 -184 -5t-207 -5q-112 0 -149 4h-17q-37 0 -37 -20q1 -16 50 -22q3 -1 6 -1q48 -5 77 -16q37 -16 51 -50q15 -33 15 -112
v-922q0 -83 -15 -116q-14 -32 -50 -49q-28 -14 -78 -19q-3 0 -6 -1q-48 -6 -50 -26q1 -22 37 -22q11 0 24 1q120 9 244 9q125 0 245 -9q13 -1 24 -1q36 0 37 22q-2 20 -50 26q-3 1 -6 1q-46 4 -77 18q-37 18 -52 50q-14 34 -14 116zM762 -319q0 -3 1 -5q7 -18 7 -30
q0 -47 -40 -106q-39 -60 -105 -107l22 -31q90 41 145 126q56 86 56 177q0 70 -37 113t-96 43q-42 0 -69.5 -29.5t-27.5 -73.5q0 -43 24 -68.5t64 -25.5q29 0 56 17z" />
    <glyph glyph-name="rcedilla" unicode="&#x157;" horiz-adv-x="895" 
d="M406 715q-7 55 -10 89q-13 130 -28 130q-16 0 -86 -19q-66 -18 -150 -34q-75 -16 -75 -33q0 -13 8.5 -18t36.5 -5q38 0 62 -8q40 -15 57 -53.5t17 -116.5v-471q0 -62 -11 -84q-11 -20 -39 -33q-23 -12 -57 -16q-26 -6 -33.5 -12t-7.5 -17q0 -18 31 -18q1 0 70 6t137 6
q67 0 136 -6t71 -6q30 0 30 18q0 12 -8.5 18.5t-32.5 10.5q-35 5 -57 16q-29 13 -39 33t-10 84v387q0 124 58 200q59 77 149 77q60 0 84 -57q3 -7 8 -17q22 -45 67 -45q32 0 51 22t19 60q0 48 -43 78t-113 30q-95 0 -172.5 -52t-119.5 -144zM365 -319q0 -3 1 -5q7 -18 7 -30
q0 -47 -40 -106q-39 -60 -105 -107l22 -31q90 41 145 126q56 86 56 177q0 70 -37 113t-96 43q-42 0 -69.5 -29.5t-27.5 -73.5q0 -43 24 -68.5t64 -25.5q29 0 56 17z" />
    <glyph glyph-name="Rcaron" unicode="&#x158;" horiz-adv-x="1460" 
d="M510 737v520q0 47 21 63.5t79 16.5q184 0 271.5 -83t87.5 -257q0 -171 -94 -244t-314 -73q-31 0 -41 10.5t-10 46.5zM510 229v361q0 25 7.5 34t29.5 9q36 0 57.5 -10.5t42.5 -36.5l443 -555q15 -19 32 -26t56 -7h47q33 4 49 4q66 0 133 -7q7 -1 14 -1q8 -2 15 -2
q13 0 22.5 5.5t9.5 12.5q0 15 -46 34q-1 1 -3 1q-102 38 -155 102l-445 521q188 24 284.5 115.5t96.5 244.5q0 181 -122.5 265.5t-385.5 84.5q-39 0 -184 -5t-207 -5q-112 0 -149 4h-17q-37 0 -37 -20q1 -16 50 -22q3 -1 6 -1q48 -5 77 -16q37 -16 51 -50q15 -33 15 -112
v-922q0 -83 -15 -116q-14 -32 -50 -49q-28 -14 -78 -19q-3 0 -6 -1q-48 -6 -50 -26q1 -22 37 -22q11 0 24 1q120 9 244 9q125 0 245 -9q13 -1 24 -1q36 0 37 22q-2 20 -50 26q-3 1 -6 1q-46 4 -77 18q-37 18 -52 50q-14 34 -14 116zM432 1863l233 -348h117l232 348h-58
l-233 -210l-232 210h-59z" />
    <glyph glyph-name="rcaron" unicode="&#x159;" horiz-adv-x="895" 
d="M406 715q-7 55 -10 89q-13 130 -28 130q-16 0 -86 -19q-66 -18 -150 -34q-75 -16 -75 -33q0 -13 8.5 -18t36.5 -5q38 0 62 -8q40 -15 57 -53.5t17 -116.5v-471q0 -62 -11 -84q-11 -20 -39 -33q-23 -12 -57 -16q-26 -6 -33.5 -12t-7.5 -17q0 -18 31 -18q1 0 70 6t137 6
q67 0 136 -6t71 -6q30 0 30 18q0 12 -8.5 18.5t-32.5 10.5q-35 5 -57 16q-29 13 -39 33t-10 84v387q0 124 58 200q59 77 149 77q60 0 84 -57q3 -7 8 -17q22 -45 67 -45q32 0 51 22t19 60q0 48 -43 78t-113 30q-95 0 -172.5 -52t-119.5 -144zM150 1384l233 -348h117l232 348
h-58l-233 -210l-232 210h-59z" />
    <glyph glyph-name="Sacute" unicode="&#x15a;" horiz-adv-x="1126" 
d="M111 373q0 -19 3 -80q3 -60 3 -100q0 -51 -6 -102q-1 -15 -2.5 -28t-2.5 -19v-5q0 -29 21 -29q13 0 29 31t30 31q9 0 49 -23q154 -88 306 -88q210 0 350 116q139 117 139 294q0 154 -91 257q-90 105 -325 210q-1 0 -3.5 1.5t-7 3.5t-7.5 3q-295 130 -295 278
q0 104 70 168t188 64q99 0 174.5 -51.5t120.5 -149.5q11 -23 26 -75q13 -52 38 -52q13 1 17.5 11.5t4.5 45.5q0 21 -3 63t-3 62q0 37 3 82t3 54q0 20 -7.5 32.5t-19.5 12.5q-15 0 -30 -38q-14 -38 -33 -38q-10 0 -48 20q-127 70 -251 70q-176 0 -292 -104
q-114 -103 -114 -263q0 -123 72.5 -220.5t206.5 -153.5q10 -5 60 -25q236 -96 302 -178q54 -71 54 -168q0 -131 -79.5 -205t-219.5 -74q-123 0 -215 68t-138 192q-8 24 -20 79q-12 61 -35 61q-14 -1 -18 -7.5t-4 -33.5zM379 1515h67l330 205q61 40 61 82q0 32 -20 52t-53 20
q-21 0 -41.5 -12.5t-55.5 -47.5z" />
    <glyph glyph-name="sacute" unicode="&#x15b;" horiz-adv-x="782" 
d="M102 262v-256q0 -18 17 -18q11 0 33 18q22 19 36 19q8 0 34 -13q90 -43 171 -43q145 0 225 76q82 76 82 209q0 149 -100 221q-31 23 -104 61q-79 43 -90 50q-113 64 -142 99q-28 34 -28 83q0 50 39 81.5t102 31.5q118 0 188 -135q9 -18 17 -38q16 -40 32 -40q17 0 17 22
v209q0 9 -5 16t-12 7q-3 0 -27 -15q-25 -14 -50 -14q-11 0 -63 16q-56 17 -101 17q-117 0 -188 -70q-72 -69 -72 -180q0 -86 56 -154q54 -64 196 -139q6 -4 14 -8q194 -105 194 -203q0 -64 -52 -109q-51 -45 -126 -45q-147 0 -229 168q-13 27 -23 61q-11 38 -24 38
q-7 0 -12 -7t-5 -16zM207 1036h67l330 205q61 40 61 82q0 32 -20 52t-53 20q-21 0 -41.5 -12.5t-55.5 -47.5z" />
    <glyph glyph-name="Scircumflex" unicode="&#x15c;" horiz-adv-x="1126" 
d="M111 373q0 -19 3 -80q3 -60 3 -100q0 -51 -6 -102q-1 -15 -2.5 -28t-2.5 -19v-5q0 -29 21 -29q13 0 29 31t30 31q9 0 49 -23q154 -88 306 -88q210 0 350 116q139 117 139 294q0 154 -91 257q-90 105 -325 210q-1 0 -3.5 1.5t-7 3.5t-7.5 3q-295 130 -295 278
q0 104 70 168t188 64q99 0 174.5 -51.5t120.5 -149.5q11 -23 26 -75q13 -52 38 -52q13 1 17.5 11.5t4.5 45.5q0 21 -3 63t-3 62q0 37 3 82t3 54q0 20 -7.5 32.5t-19.5 12.5q-15 0 -30 -38q-14 -38 -33 -38q-10 0 -48 20q-127 70 -251 70q-176 0 -292 -104
q-114 -103 -114 -263q0 -123 72.5 -220.5t206.5 -153.5q10 -5 60 -25q236 -96 302 -178q54 -71 54 -168q0 -131 -79.5 -205t-219.5 -74q-123 0 -215 68t-138 192q-8 24 -20 79q-12 61 -35 61q-14 -1 -18 -7.5t-4 -33.5zM264 1515h59l232 209l233 -209h58l-232 348h-117z" />
    <glyph glyph-name="scircumflex" unicode="&#x15d;" horiz-adv-x="782" 
d="M102 262v-256q0 -18 17 -18q11 0 33 18q22 19 36 19q8 0 34 -13q90 -43 171 -43q145 0 225 76q82 76 82 209q0 149 -100 221q-31 23 -104 61q-79 43 -90 50q-113 64 -142 99q-28 34 -28 83q0 50 39 81.5t102 31.5q118 0 188 -135q9 -18 17 -38q16 -40 32 -40q17 0 17 22
v209q0 9 -5 16t-12 7q-3 0 -27 -15q-25 -14 -50 -14q-11 0 -63 16q-56 17 -101 17q-117 0 -188 -70q-72 -69 -72 -180q0 -86 56 -154q54 -64 196 -139q6 -4 14 -8q194 -105 194 -203q0 -64 -52 -109q-51 -45 -126 -45q-147 0 -229 168q-13 27 -23 61q-11 38 -24 38
q-7 0 -12 -7t-5 -16zM92 1036h59l232 209l233 -209h58l-232 348h-117z" />
    <glyph glyph-name="Scedilla" unicode="&#x15e;" horiz-adv-x="1126" 
d="M111 373q0 -19 3 -80q3 -60 3 -100q0 -51 -6 -102q-1 -15 -2.5 -28t-2.5 -19v-5q0 -29 21 -29q13 0 29 31t30 31q9 0 49 -23q154 -88 306 -88q210 0 350 116q139 117 139 294q0 154 -91 257q-90 105 -325 210q-1 0 -3.5 1.5t-7 3.5t-7.5 3q-295 130 -295 278
q0 104 70 168t188 64q99 0 174.5 -51.5t120.5 -149.5q11 -23 26 -75q13 -52 38 -52q13 1 17.5 11.5t4.5 45.5q0 21 -3 63t-3 62q0 37 3 82t3 54q0 20 -7.5 32.5t-19.5 12.5q-15 0 -30 -38q-14 -38 -33 -38q-10 0 -48 20q-127 70 -251 70q-176 0 -292 -104
q-114 -103 -114 -263q0 -123 72.5 -220.5t206.5 -153.5q10 -5 60 -25q236 -96 302 -178q54 -71 54 -168q0 -131 -79.5 -205t-219.5 -74q-123 0 -215 68t-138 192q-8 24 -20 79q-12 61 -35 61q-14 -1 -18 -7.5t-4 -33.5zM295 -371q110 -43 171 -58q70 -17 122 -17
q102 0 160.5 47t58.5 129q0 77 -48 120.5t-135 43.5q-30 -2 -61 -6v112h-63v-188q35 6 61 6q54 0 84.5 -24t30.5 -66q0 -48 -29.5 -70.5t-93.5 -22.5q-95 0 -223 72z" />
    <glyph glyph-name="scedilla" unicode="&#x15f;" horiz-adv-x="782" 
d="M102 262v-256q0 -18 17 -18q11 0 33 18q22 19 36 19q8 0 34 -13q90 -43 171 -43q145 0 225 76q82 76 82 209q0 149 -100 221q-31 23 -104 61q-79 43 -90 50q-113 64 -142 99q-28 34 -28 83q0 50 39 81.5t102 31.5q118 0 188 -135q9 -18 17 -38q16 -40 32 -40q17 0 17 22
v209q0 9 -5 16t-12 7q-3 0 -27 -15q-25 -14 -50 -14q-11 0 -63 16q-56 17 -101 17q-117 0 -188 -70q-72 -69 -72 -180q0 -86 56 -154q54 -64 196 -139q6 -4 14 -8q194 -105 194 -203q0 -64 -52 -109q-51 -45 -126 -45q-147 0 -229 168q-13 27 -23 61q-11 38 -24 38
q-7 0 -12 -7t-5 -16zM123 -371q110 -43 171 -58q70 -17 122 -17q102 0 160.5 47t58.5 129q0 77 -48 120.5t-135 43.5q-30 -2 -61 -6v112h-63v-188q35 6 61 6q54 0 84.5 -24t30.5 -66q0 -48 -29.5 -70.5t-93.5 -22.5q-95 0 -223 72z" />
    <glyph glyph-name="Scaron" unicode="&#x160;" horiz-adv-x="1126" 
d="M111 373q0 -19 3 -80q3 -60 3 -100q0 -51 -6 -102q-1 -15 -2.5 -28t-2.5 -19v-5q0 -29 21 -29q13 0 29 31t30 31q9 0 49 -23q154 -88 306 -88q210 0 350 116q139 117 139 294q0 154 -91 257q-90 105 -325 210q-1 0 -3.5 1.5t-7 3.5t-7.5 3q-295 130 -295 278
q0 104 70 168t188 64q99 0 174.5 -51.5t120.5 -149.5q11 -23 26 -75q13 -52 38 -52q13 1 17.5 11.5t4.5 45.5q0 21 -3 63t-3 62q0 37 3 82t3 54q0 20 -7.5 32.5t-19.5 12.5q-15 0 -30 -38q-14 -38 -33 -38q-10 0 -48 20q-127 70 -251 70q-176 0 -292 -104
q-114 -103 -114 -263q0 -123 72.5 -220.5t206.5 -153.5q10 -5 60 -25q236 -96 302 -178q54 -71 54 -168q0 -131 -79.5 -205t-219.5 -74q-123 0 -215 68t-138 192q-8 24 -20 79q-12 61 -35 61q-14 -1 -18 -7.5t-4 -33.5zM264 1863l233 -348h117l232 348h-58l-233 -210
l-232 210h-59z" />
    <glyph glyph-name="scaron" unicode="&#x161;" horiz-adv-x="782" 
d="M102 262v-256q0 -18 17 -18q11 0 33 18q22 19 36 19q8 0 34 -13q90 -43 171 -43q145 0 225 76q82 76 82 209q0 149 -100 221q-31 23 -104 61q-79 43 -90 50q-113 64 -142 99q-28 34 -28 83q0 50 39 81.5t102 31.5q118 0 188 -135q9 -18 17 -38q16 -40 32 -40q17 0 17 22
v209q0 9 -5 16t-12 7q-3 0 -27 -15q-25 -14 -50 -14q-11 0 -63 16q-56 17 -101 17q-117 0 -188 -70q-72 -69 -72 -180q0 -86 56 -154q54 -64 196 -139q6 -4 14 -8q194 -105 194 -203q0 -64 -52 -109q-51 -45 -126 -45q-147 0 -229 168q-13 27 -23 61q-11 38 -24 38
q-7 0 -12 -7t-5 -16zM92 1384l233 -348h117l232 348h-58l-233 -210l-232 210h-59z" />
    <glyph glyph-name="Tcedilla" unicode="&#x162;" horiz-adv-x="1491" 
d="M852 229v1033q0 37 19 50t98 13h35q217 0 283 -18q67 -18 97 -64q25 -36 36 -104q12 -68 26 -68q10 0 13 6t3 29v231q0 28 -11.5 37.5t-45.5 9.5q-23 0 -52 -1q-283 -13 -608 -13q-324 0 -607 13q-29 1 -52 1q-34 0 -46.5 -10t-12.5 -37v-231q0 -20 4 -27.5t14 -7.5
q14 0 24 67q11 69 35 105q32 45 99 63q66 19 237 19h82q74 0 96 -14q21 -14 21 -49v-1033q0 -81 -16 -114q-16 -34 -58 -52q-29 -13 -87 -18h-3h-4q-53 -8 -53 -27q0 -22 39 -22q11 0 24 1q131 9 264 9q135 0 263 -9q13 -1 24 -1q41 0 41 22q0 19 -53 27h-4h-3q-59 5 -87 18
q-42 18 -58 52q-16 33 -16 114zM776 -319q0 -3 1 -5q7 -18 7 -30q0 -47 -40 -106q-39 -60 -105 -107l22 -31q90 41 145 126q56 86 56 177q0 70 -37 113t-96 43q-42 0 -69.5 -29.5t-27.5 -73.5q0 -43 24 -68.5t64 -25.5q29 0 56 17z" />
    <glyph glyph-name="tcedilla" unicode="&#x163;" horiz-adv-x="672" 
d="M172 840v-607q0 -141 54 -199q54 -57 184 -57q98 0 172 42q73 43 73 90q0 11 -7 19.5t-17 8.5q-9 0 -54 -49q-43 -49 -100 -49q-68 0 -99.5 43.5t-31.5 140.5v617h184q62 0 62 30q0 19 -11 25t-49 6h-188v205q0 29 -18 29q-10 0 -44 -55q-33 -54 -75 -99q-35 -38 -88 -78
q-49 -36 -49 -45q0 -18 39 -18h63zM445 -319q0 -3 1 -5q7 -18 7 -30q0 -47 -40 -106q-39 -60 -105 -107l22 -31q90 41 145 126q56 86 56 177q0 70 -37 113t-96 43q-42 0 -69.5 -29.5t-27.5 -73.5q0 -43 24 -68.5t64 -25.5q29 0 56 17z" />
    <glyph glyph-name="Tcaron" unicode="&#x164;" horiz-adv-x="1491" 
d="M852 229v1033q0 37 19 50t98 13h35q217 0 283 -18q67 -18 97 -64q25 -36 36 -104q12 -68 26 -68q10 0 13 6t3 29v231q0 28 -11.5 37.5t-45.5 9.5q-23 0 -52 -1q-283 -13 -608 -13q-324 0 -607 13q-29 1 -52 1q-34 0 -46.5 -10t-12.5 -37v-231q0 -20 4 -27.5t14 -7.5
q14 0 24 67q11 69 35 105q32 45 99 63q66 19 237 19h82q74 0 96 -14q21 -14 21 -49v-1033q0 -81 -16 -114q-16 -34 -58 -52q-29 -13 -87 -18h-3h-4q-53 -8 -53 -27q0 -22 39 -22q11 0 24 1q131 9 264 9q135 0 263 -9q13 -1 24 -1q41 0 41 22q0 19 -53 27h-4h-3q-59 5 -87 18
q-42 18 -58 52q-16 33 -16 114zM446 1863l233 -348h117l232 348h-58l-233 -210l-232 210h-59z" />
    <glyph glyph-name="tcaron" unicode="&#x165;" horiz-adv-x="899" 
d="M172 840v-607q0 -141 54 -199q54 -57 184 -57q98 0 172 42q73 43 73 90q0 11 -7 19.5t-17 8.5q-9 0 -54 -49q-43 -49 -100 -49q-68 0 -99.5 43.5t-31.5 140.5v617h184q62 0 62 30q0 19 -11 25t-49 6h-188v205q0 29 -18 29q-10 0 -44 -55q-33 -54 -75 -99q-35 -38 -88 -78
q-49 -36 -49 -45q0 -18 39 -18h63zM815 1257l2 -4q5 -16 7 -30q0 -46 -41 -108q-39 -60 -105 -107l23 -29q89 41 144 126q56 86 56 177q0 70 -37 113t-96 43q-41 0 -68.5 -29.5t-27.5 -73.5q0 -43 24 -69.5t64 -26.5q25 0 55 18z" />
    <glyph glyph-name="Tbar" unicode="&#x166;" horiz-adv-x="1491" 
d="M852 229v447h326v65h-326v521q0 36 21 50q20 13 112 13h19q217 0 283 -18q67 -18 97 -64q26 -38 36 -104t28 -66q8 0 11 6.5t3 26.5v231q0 27 -12.5 37t-46.5 10q-21 0 -48 -1q-282 -13 -610 -13t-610 13q-27 1 -49 1q-34 0 -46.5 -10t-12.5 -37v-231q0 -33 16 -33t29 76
q14 78 51 115q33 34 101 47q70 14 261 14h19q93 0 113 -13q22 -13 22 -50v-521h-328v-65h328v-447q0 -81 -16 -114t-58 -52q-28 -13 -89 -19q-58 -4 -58 -26t39 -22q12 0 27 1q130 9 261 9q133 0 260 -9q15 -1 27 -1q41 0 41 22q0 21 -59 26q-59 6 -88 19q-42 19 -58 52
t-16 114z" />
    <glyph glyph-name="tbar" unicode="&#x167;" horiz-adv-x="690" 
d="M180 840v-174h-180v-52h180v-381q0 -139 54 -198q55 -58 184 -58q100 0 174 42q74 44 74 90q0 11 -7.5 19.5t-17.5 8.5q-9 0 -54 -49t-100 -49q-69 0 -101 44t-32 140v391h228v52h-228v174h187q33 0 47 6.5t14 21.5q0 19 -12 26t-47 7h-189v205q0 29 -20 29
q-12 0 -43 -55q-31 -53 -74 -99q-37 -41 -89 -78q-50 -36 -50 -45q0 -18 41 -18h61z" />
    <glyph glyph-name="Utilde" unicode="&#x168;" horiz-adv-x="1688" 
d="M311 1151v-748q0 -438 523 -438q304 0 433 136q130 136 130 460v590q0 83 18 119.5t64 48.5q39 10 67 10q1 1 4 1.5t4 0.5q41 8 41 23q0 18 -36 18q-18 0 -73 -4q-53 -4 -108 -4q-58 0 -118 4t-82 4q-39 0 -39 -20q0 -15 49 -22q3 -1 6 -1q49 -4 78 -16q37 -18 52 -52
q15 -33 15 -110v-641q0 -243 -107.5 -357t-334.5 -114q-193 0 -284 95t-91 298v719q0 81 19 118t65 50q40 10 66 10q1 1 4 1.5t4 0.5q41 8 41 23q0 18 -35 18q-11 0 -25 -1q-113 -7 -245 -7q-121 0 -233 7q-18 1 -33 1q-39 0 -39 -20q0 -16 49 -22q3 -1 6 -1q49 -4 78 -16
q37 -18 52 -52q15 -33 15 -110zM1186 1812h-52q-27 -86 -96 -86q-13 0 -56 11l-108 28q-32 8 -63 8q-163 0 -199 -213h51q14 51 36.5 72t62.5 21q21 -2 49 -9l106 -26q37 -9 74 -11q153 0 195 205z" />
    <glyph glyph-name="utilde" unicode="&#x169;" horiz-adv-x="1243" 
d="M840 725v-389q0 -126 -75 -212q-75 -85 -183 -85q-193 0 -193 219v586q0 34 -9 46.5t-32 12.5q-20 0 -57 -3q-38 -3 -53 -3q-38 0 -79 4t-59 4q-39 0 -39 -18q0 -13 8.5 -19.5t35.5 -11.5q30 -5 55 -14q27 -13 38 -33t11 -84v-438q0 -163 72.5 -237.5t230.5 -74.5
q222 0 338 193q1 -4 1.5 -13.5t0.5 -14.5q12 -173 43 -173q11 0 71 22q59 20 121 34q2 0 28 5q50 9 50 25q0 13 -36 20q-2 0 -4 0.5t-3 0.5q-36 4 -53 12q-27 14 -38 43q-11 31 -11 102v613q0 34 -9 46.5t-32 12.5q-19 0 -57 -3t-54 -3q-41 0 -81 4t-54 4q-41 0 -41 -18
q0 -13 8.5 -19.5t34.5 -11.5q30 -5 56 -14q27 -13 38 -33t11 -84zM902 1333h-52q-27 -86 -96 -86q-13 0 -56 11l-108 28q-32 8 -63 8q-163 0 -199 -213h51q14 51 36.5 72t62.5 21q21 -2 49 -9l106 -26q37 -9 74 -11q153 0 195 205z" />
    <glyph glyph-name="Umacron" unicode="&#x16a;" horiz-adv-x="1688" 
d="M311 1151v-748q0 -438 523 -438q304 0 433 136q130 136 130 460v590q0 83 18 119.5t64 48.5q39 10 67 10q1 1 4 1.5t4 0.5q41 8 41 23q0 18 -36 18q-18 0 -73 -4q-53 -4 -108 -4q-58 0 -118 4t-82 4q-39 0 -39 -20q0 -15 49 -22q3 -1 6 -1q49 -4 78 -16q37 -18 52 -52
q15 -33 15 -110v-641q0 -243 -107.5 -357t-334.5 -114q-193 0 -284 95t-91 298v719q0 81 19 118t65 50q40 10 66 10q1 1 4 1.5t4 0.5q41 8 41 23q0 18 -35 18q-11 0 -25 -1q-113 -7 -245 -7q-121 0 -233 7q-18 1 -33 1q-39 0 -39 -20q0 -16 49 -22q3 -1 6 -1q49 -4 78 -16
q37 -18 52 -52q15 -33 15 -110zM641 1605h516v127h-516v-127z" />
    <glyph glyph-name="umacron" unicode="&#x16b;" horiz-adv-x="1243" 
d="M840 725v-389q0 -126 -75 -212q-75 -85 -183 -85q-193 0 -193 219v586q0 34 -9 46.5t-32 12.5q-20 0 -57 -3q-38 -3 -53 -3q-38 0 -79 4t-59 4q-39 0 -39 -18q0 -13 8.5 -19.5t35.5 -11.5q30 -5 55 -14q27 -13 38 -33t11 -84v-438q0 -163 72.5 -237.5t230.5 -74.5
q222 0 338 193q1 -4 1.5 -13.5t0.5 -14.5q12 -173 43 -173q11 0 71 22q59 20 121 34q2 0 28 5q50 9 50 25q0 13 -36 20q-2 0 -4 0.5t-3 0.5q-36 4 -53 12q-27 14 -38 43q-11 31 -11 102v613q0 34 -9 46.5t-32 12.5q-19 0 -57 -3t-54 -3q-41 0 -81 4t-54 4q-41 0 -41 -18
q0 -13 8.5 -19.5t34.5 -11.5q30 -5 56 -14q27 -13 38 -33t11 -84zM357 1126h516v127h-516v-127z" />
    <glyph glyph-name="Ubreve" unicode="&#x16c;" horiz-adv-x="1688" 
d="M311 1151v-748q0 -438 523 -438q304 0 433 136q130 136 130 460v590q0 83 18 119.5t64 48.5q39 10 67 10q1 1 4 1.5t4 0.5q41 8 41 23q0 18 -36 18q-18 0 -73 -4q-53 -4 -108 -4q-58 0 -118 4t-82 4q-39 0 -39 -20q0 -15 49 -22q3 -1 6 -1q49 -4 78 -16q37 -18 52 -52
q15 -33 15 -110v-641q0 -243 -107.5 -357t-334.5 -114q-193 0 -284 95t-91 298v719q0 81 19 118t65 50q40 10 66 10q1 1 4 1.5t4 0.5q41 8 41 23q0 18 -35 18q-11 0 -25 -1q-113 -7 -245 -7q-121 0 -233 7q-18 1 -33 1q-39 0 -39 -20q0 -16 49 -22q3 -1 6 -1q49 -4 78 -16
q37 -18 52 -52q15 -33 15 -110zM606 1825q21 -133 96 -202t197 -69q123 0 197 68.5t94 202.5h-52q-16 -75 -73 -108.5t-166 -33.5t-166 34t-74 108h-53z" />
    <glyph glyph-name="ubreve" unicode="&#x16d;" horiz-adv-x="1243" 
d="M840 725v-389q0 -126 -75 -212q-75 -85 -183 -85q-193 0 -193 219v586q0 34 -9 46.5t-32 12.5q-20 0 -57 -3q-38 -3 -53 -3q-38 0 -79 4t-59 4q-39 0 -39 -18q0 -13 8.5 -19.5t35.5 -11.5q30 -5 55 -14q27 -13 38 -33t11 -84v-438q0 -163 72.5 -237.5t230.5 -74.5
q222 0 338 193q1 -4 1.5 -13.5t0.5 -14.5q12 -173 43 -173q11 0 71 22q59 20 121 34q2 0 28 5q50 9 50 25q0 13 -36 20q-2 0 -4 0.5t-3 0.5q-36 4 -53 12q-27 14 -38 43q-11 31 -11 102v613q0 34 -9 46.5t-32 12.5q-19 0 -57 -3t-54 -3q-41 0 -81 4t-54 4q-41 0 -41 -18
q0 -13 8.5 -19.5t34.5 -11.5q30 -5 56 -14q27 -13 38 -33t11 -84zM322 1346q21 -133 96 -202t197 -69q123 0 197 68.5t94 202.5h-52q-16 -75 -73 -108.5t-166 -33.5t-166 34t-74 108h-53z" />
    <glyph glyph-name="Uring" unicode="&#x16e;" horiz-adv-x="1688" 
d="M311 1151v-748q0 -438 523 -438q304 0 433 136q130 136 130 460v590q0 83 18 119.5t64 48.5q39 10 67 10q1 1 4 1.5t4 0.5q41 8 41 23q0 18 -36 18q-18 0 -73 -4q-53 -4 -108 -4q-58 0 -118 4t-82 4q-39 0 -39 -20q0 -15 49 -22q3 -1 6 -1q49 -4 78 -16q37 -18 52 -52
q15 -33 15 -110v-641q0 -243 -107.5 -357t-334.5 -114q-193 0 -284 95t-91 298v719q0 81 19 118t65 50q40 10 66 10q1 1 4 1.5t4 0.5q41 8 41 23q0 18 -35 18q-11 0 -25 -1q-113 -7 -245 -7q-121 0 -233 7q-18 1 -33 1q-39 0 -39 -20q0 -16 49 -22q3 -1 6 -1q49 -4 78 -16
q37 -18 52 -52q15 -33 15 -110zM757 1736q0 62 44 106t106 44q61 0 105 -44q45 -43 45 -106q0 -62 -44 -106q-43 -43 -106 -43q-64 0 -107 43t-43 106zM667 1736q0 -101 69 -171q70 -70 171 -70t171 70q71 71 71 171q0 101 -70 170q-70 70 -172 70q-100 0 -171 -69
q-69 -69 -69 -171z" />
    <glyph glyph-name="uring" unicode="&#x16f;" horiz-adv-x="1243" 
d="M840 725v-389q0 -126 -75 -212q-75 -85 -183 -85q-193 0 -193 219v586q0 34 -9 46.5t-32 12.5q-20 0 -57 -3q-38 -3 -53 -3q-38 0 -79 4t-59 4q-39 0 -39 -18q0 -13 8.5 -19.5t35.5 -11.5q30 -5 55 -14q27 -13 38 -33t11 -84v-438q0 -163 72.5 -237.5t230.5 -74.5
q222 0 338 193q1 -4 1.5 -13.5t0.5 -14.5q12 -173 43 -173q11 0 71 22q59 20 121 34q2 0 28 5q50 9 50 25q0 13 -36 20q-2 0 -4 0.5t-3 0.5q-36 4 -53 12q-27 14 -38 43q-11 31 -11 102v613q0 34 -9 46.5t-32 12.5q-19 0 -57 -3t-54 -3q-41 0 -81 4t-54 4q-41 0 -41 -18
q0 -13 8.5 -19.5t34.5 -11.5q30 -5 56 -14q27 -13 38 -33t11 -84zM473 1257q0 62 44 106t106 44q61 0 105 -44q45 -43 45 -106q0 -62 -44 -106q-43 -43 -106 -43q-64 0 -107 43t-43 106zM383 1257q0 -101 69 -171q70 -70 171 -70t171 70q71 71 71 171q0 101 -70 170
q-70 70 -172 70q-100 0 -171 -69q-69 -69 -69 -171z" />
    <glyph glyph-name="Udblacute" unicode="&#x170;" horiz-adv-x="1688" 
d="M311 1151v-748q0 -438 523 -438q304 0 433 136q130 136 130 460v590q0 83 18 119.5t64 48.5q39 10 67 10q1 1 4 1.5t4 0.5q41 8 41 23q0 18 -36 18q-18 0 -73 -4q-53 -4 -108 -4q-58 0 -118 4t-82 4q-39 0 -39 -20q0 -15 49 -22q3 -1 6 -1q49 -4 78 -16q37 -18 52 -52
q15 -33 15 -110v-641q0 -243 -107.5 -357t-334.5 -114q-193 0 -284 95t-91 298v719q0 81 19 118t65 50q40 10 66 10q1 1 4 1.5t4 0.5q41 8 41 23q0 18 -35 18q-11 0 -25 -1q-113 -7 -245 -7q-121 0 -233 7q-18 1 -33 1q-39 0 -39 -20q0 -16 49 -22q3 -1 6 -1q49 -4 78 -16
q37 -18 52 -52q15 -33 15 -110zM989 1515h59l203 215q41 46 41 78q0 27 -20 46.5t-48 19.5q-26 0 -47.5 -18.5t-44.5 -61.5zM714 1515h58l205 215q41 46 41 78q0 27 -20 46.5t-48 19.5q-26 0 -47.5 -18.5t-44.5 -61.5z" />
    <glyph glyph-name="udblacute" unicode="&#x171;" horiz-adv-x="1243" 
d="M840 725v-389q0 -126 -75 -212q-75 -85 -183 -85q-193 0 -193 219v586q0 34 -9 46.5t-32 12.5q-20 0 -57 -3q-38 -3 -53 -3q-38 0 -79 4t-59 4q-39 0 -39 -18q0 -13 8.5 -19.5t35.5 -11.5q30 -5 55 -14q27 -13 38 -33t11 -84v-438q0 -163 72.5 -237.5t230.5 -74.5
q222 0 338 193q1 -4 1.5 -13.5t0.5 -14.5q12 -173 43 -173q11 0 71 22q59 20 121 34q2 0 28 5q50 9 50 25q0 13 -36 20q-2 0 -4 0.5t-3 0.5q-36 4 -53 12q-27 14 -38 43q-11 31 -11 102v613q0 34 -9 46.5t-32 12.5q-19 0 -57 -3t-54 -3q-41 0 -81 4t-54 4q-41 0 -41 -18
q0 -13 8.5 -19.5t34.5 -11.5q30 -5 56 -14q27 -13 38 -33t11 -84zM705 1036h59l203 215q41 46 41 78q0 27 -20 46.5t-48 19.5q-26 0 -47.5 -18.5t-44.5 -61.5zM430 1036h58l205 215q41 46 41 78q0 27 -20 46.5t-48 19.5q-26 0 -47.5 -18.5t-44.5 -61.5z" />
    <glyph glyph-name="Uogonek" unicode="&#x172;" horiz-adv-x="1688" 
d="M311 1151v-748q0 -438 523 -438q304 0 433 136q130 136 130 460v590q0 83 18 119.5t64 48.5q39 10 67 10q1 1 4 1.5t4 0.5q41 8 41 23q0 18 -36 18q-18 0 -73 -4q-53 -4 -108 -4q-58 0 -118 4t-82 4q-39 0 -39 -20q0 -15 49 -22q3 -1 6 -1q49 -4 78 -16q37 -18 52 -52
q15 -33 15 -110v-641q0 -243 -107.5 -357t-334.5 -114q-193 0 -284 95t-91 298v719q0 81 19 118t65 50q40 10 66 10q1 1 4 1.5t4 0.5q41 8 41 23q0 18 -35 18q-11 0 -25 -1q-113 -7 -245 -7q-121 0 -233 7q-18 1 -33 1q-39 0 -39 -20q0 -16 49 -22q3 -1 6 -1q49 -4 78 -16
q37 -18 52 -52q15 -33 15 -110zM1018 31h-51q-252 -164 -252 -336q0 -63 44 -103.5t114 -40.5q66 0 121.5 39t91.5 111l-31 18q-40 -73 -119 -73q-45 0 -72.5 32t-27.5 86q0 123 182 267z" />
    <glyph glyph-name="uogonek" unicode="&#x173;" horiz-adv-x="1243" 
d="M840 725v-389q0 -127 -76 -212q-75 -85 -182 -85q-94 0 -143.5 53.5t-49.5 155.5v596q0 34 -9 46.5t-32 12.5q-18 0 -55 -3t-55 -3q-38 0 -79 4t-59 4q-39 0 -39 -18q0 -19 35 -27l6 -2q2 -1 5 -1.5t5 -0.5q28 -7 48 -14q28 -14 39 -33q10 -19 10 -84v-475
q0 -134 77.5 -204.5t225.5 -70.5q219 0 338 193q1 -9 2.5 -30.5t2.5 -33.5q11 -137 38 -137q16 0 85 25l30 10q-213 -143 -213 -307q0 -62 44 -103q46 -41 115 -41q65 0 120 39t91 111l-28 18q-40 -73 -119 -73q-46 0 -74.5 32.5t-28.5 85.5q0 63 52 139q52 75 112 107
q8 4 29 12l21 7q2 0 3 1q33 10 33 23t-37 20q-4 0 -6 1q-24 0 -45 8q-31 12 -44 43.5t-13 99.5v619q0 34 -9 46.5t-32 12.5q-17 0 -55 -3t-56 -3q-43 0 -83 4t-52 4q-41 0 -41 -18q0 -20 34 -27q1 0 4 -1l3 -1q2 -1 5 -1.5t5 -0.5q28 -7 48 -14q29 -14 39 -33t10 -84z" />
    <glyph glyph-name="Wcircumflex" unicode="&#x174;" horiz-adv-x="2021" 
d="M737 242q-1 2 -17 54.5t-27 90.5q-238 777 -238 848q0 39 22.5 58.5t81.5 31.5q17 3 42 6q40 4 40 21q0 22 -57 22q-26 0 -121 -5t-133 -5q-97 0 -208 6q-8 0 -17.5 0.5t-14.5 1t-8 0.5q-22 0 -29.5 -4t-7.5 -14q0 -21 53 -29q23 -3 37 -6q39 -11 59 -37q22 -26 46 -100
l354 -1108q0 -2 1 -4q34 -103 69 -103q22 0 39.5 26t35.5 87l299 987l295 -1001q17 -58 31 -78.5t35 -20.5q39 0 76 121l321 1032q33 107 57 143q25 37 62 52q23 10 39 10q47 15 47 31q0 18 -31 18q-19 0 -41 -2q-7 0 -34 -4t-52 -4q-65 0 -169 8q-36 2 -37 2q-24 2 -38 2
q-43 0 -43 -22q2 -21 44 -25q6 0 12 -1l12 -2t8 -1q49 -8 75 -35t26 -69q0 -127 -68 -342l-188 -613l-314 1024q0 1 -2 7q-22 79 -55 79q-18 0 -29 -15.5t-26 -65.5zM713 1515h59l232 209l233 -209h58l-232 348h-117z" />
    <glyph glyph-name="wcircumflex" unicode="&#x175;" horiz-adv-x="1468" 
d="M725 631l242 -617q9 -27 16.5 -35t20.5 -8q25 0 38 41l236 703q18 57 35 85.5t41 43.5q22 16 46 16q2 1 8 3q19 7 19 18q0 20 -30 20q-23 0 -76 -3t-82 -3q-34 0 -70 3q-35 3 -36 3q-39 0 -39 -18q0 -16 35 -22q1 -1 4 -1q2 0 13 -2.5t17 -3.5q37 -9 51.5 -25t14.5 -47
q0 -40 -12 -77l-156 -504l-260 678l-2 4q-7 18 -19 18q-9 0 -20 -23v-1l-240 -654l-159 499q-11 32 -11 64q0 58 70 70q2 0 13 1.5t13 2.5q27 3 35 6.5t8 12.5q0 24 -40 24q-9 0 -18 -1q-81 -7 -173 -7q-74 0 -167 5q-11 1 -19 1q-39 0 -39 -20q0 -16 31 -23h2q28 -5 44 -14
q54 -26 74 -90l240 -758q10 -25 33 -25q19 1 33 30zM436 1036h59l232 209l233 -209h58l-232 348h-117z" />
    <glyph glyph-name="Ycircumflex" unicode="&#x176;" horiz-adv-x="1460" 
d="M829 229v326q128 193 275 443q136 234 153 255q53 68 129 78q1 1 7 3q28 10 28 24q0 16 -26 16q-5 0 -15 -2h-2q-77 -6 -155 -6q-88 0 -143 4q-26 2 -42 2q-41 0 -41 -20q0 -17 48 -26q6 -1 18.5 -3.5l17.5 -3.5q58 -12 58 -80q0 -79 -234 -462q-96 -160 -110 -183
l-275 530q-45 85 -45 129q0 61 86 78q13 3 36 3q36 2 36 20q0 12 -11 17t-38 5q-4 0 -35 -1t-45 -1q-16 0 -81 -4t-130 -4q-53 0 -141 5q-7 1 -14 1q-24 2 -36 2q-45 0 -45 -22q1 -22 52 -29q6 -1 14.5 -2t11.5 -2q57 -10 118 -121q8 -14 9 -16l354 -641v-312
q0 -82 -14 -116q-14 -32 -52 -50q-29 -14 -79 -18q-3 0 -5 -1q-50 -6 -50 -26q0 -22 39 -22q11 0 24 1q119 9 244 9q124 0 244 -9q13 -1 24 -1q37 0 37 22q0 18 -50 26q-3 1 -5 1q-51 4 -79 19q-35 16 -51 49q-14 34 -14 116zM432 1515h59l232 209l233 -209h58l-232 348
h-117z" />
    <glyph glyph-name="ycircumflex" unicode="&#x177;" horiz-adv-x="1018" 
d="M582 207l-207 528q-14 36 -15 60q0 25 16.5 38.5t55.5 20.5q2 1 7.5 1.5t8.5 0.5q46 7 46 23q0 10 -12.5 17t-30.5 7q-10 0 -87 -5t-120 -5q-45 0 -105 5q-15 1 -29 2.5t-20 1.5l-6 1q-20 0 -34.5 -6.5t-14.5 -15.5q0 -11 7.5 -17t28.5 -10q23 -6 38 -12q40 -19 79 -110
q1 -2 2.5 -6t2.5 -6l268 -628q22 -55 22 -78q0 -38 -63 -175q-10 -22 -14 -31q-39 -88 -67 -138q-23 -40 -42 -57q-17 -13 -49 -28q-86 -39 -86 -101q0 -28 15 -45t40 -17q95 0 360 642l5 12l262 637q46 111 86 133q12 6 27 11q28 10 28 22q0 22 -39 22q-6 0 -37 -4t-67 -4
q-38 0 -75 4q-36 4 -50 4q-37 0 -37 -22q0 -15 35 -20q8 -1 17.5 -3t10.5 -2q33 -8 47.5 -22.5t14.5 -38.5q0 -42 -31 -115zM211 1036h59l232 209l233 -209h58l-232 348h-117z" />
    <glyph glyph-name="Ydieresis" unicode="&#x178;" horiz-adv-x="1460" 
d="M829 229v326q128 193 275 443q136 234 153 255q53 68 129 78q1 1 7 3q28 10 28 24q0 16 -26 16q-5 0 -15 -2h-2q-77 -6 -155 -6q-88 0 -143 4q-26 2 -42 2q-41 0 -41 -20q0 -17 48 -26q6 -1 18.5 -3.5l17.5 -3.5q58 -12 58 -80q0 -79 -234 -462q-96 -160 -110 -183
l-275 530q-45 85 -45 129q0 61 86 78q13 3 36 3q36 2 36 20q0 12 -11 17t-38 5q-4 0 -35 -1t-45 -1q-16 0 -81 -4t-130 -4q-53 0 -141 5q-7 1 -14 1q-24 2 -36 2q-45 0 -45 -22q1 -22 52 -29q6 -1 14.5 -2t11.5 -2q57 -10 118 -121q8 -14 9 -16l354 -641v-312
q0 -82 -14 -116q-14 -32 -52 -50q-29 -14 -79 -18q-3 0 -5 -1q-50 -6 -50 -26q0 -22 39 -22q11 0 24 1q119 9 244 9q124 0 244 -9q13 -1 24 -1q37 0 37 22q0 18 -50 26q-3 1 -5 1q-51 4 -79 19q-35 16 -51 49q-14 34 -14 116zM434 1669q0 -43 28.5 -71.5t69.5 -28.5
q42 0 71.5 29t29.5 71q0 40 -31 70q-30 30 -70 30q-39 0 -69 -30q-29 -31 -29 -70zM815 1669q0 -43 29 -71.5t71 -28.5t70.5 28.5t28.5 71.5q0 40 -29.5 70t-69.5 30t-70 -30t-30 -70z" />
    <glyph glyph-name="Zacute" unicode="&#x179;" horiz-adv-x="1231" 
d="M133 0h940q39 0 49.5 9t10.5 42v37q0 78 9 164t9 92q0 33 -21 33q-16 0 -32 -66q-17 -68 -41 -112q-43 -79 -122 -113q-78 -33 -222 -33h-383l780 1262l6 10q12 18 12 25q0 18 -45 18h-874q-33 0 -43 -6.5t-10 -30.5v-45q0 -67 -7 -129q-6 -66 -6 -70q0 -43 19 -43
q18 0 31 60t36 98q37 62 96 88q57 25 185 25h367l-783 -1276q-10 -17 -10 -23q0 -9 10 -12.5t39 -3.5zM432 1515h67l330 205q61 40 61 82q0 32 -20 52t-53 20q-21 0 -41.5 -12.5t-55.5 -47.5z" />
    <glyph glyph-name="zacute" unicode="&#x17a;" horiz-adv-x="903" 
d="M293 45l520 825q6 10 6 23q0 8 -67 8h-564q-47 0 -57 -34q-10 -33 -10 -150q0 -29 22 -29q19 0 29 40q6 27 16 48q22 46 63 63q42 17 138 17h217l-518 -811q0 -1 -1 -1l-1 -2q-12 -18 -12 -28q0 -14 18 -14h699q26 0 26 39v18q0 25 6 70q6 47 6 66q0 34 -20 34
q-18 0 -35 -51q-17 -52 -35 -76q-22 -31 -86 -43q-63 -12 -262 -12h-98zM269 1036h67l330 205q61 40 61 82q0 32 -20 52t-53 20q-21 0 -41.5 -12.5t-55.5 -47.5z" />
    <glyph glyph-name="Zdot" unicode="&#x17b;" horiz-adv-x="1231" 
d="M133 0h940q39 0 49.5 9t10.5 42v37q0 78 9 164t9 92q0 33 -21 33q-16 0 -32 -66q-17 -68 -41 -112q-43 -79 -122 -113q-78 -33 -222 -33h-383l780 1262l6 10q12 18 12 25q0 18 -45 18h-874q-33 0 -43 -6.5t-10 -30.5v-45q0 -67 -7 -129q-6 -66 -6 -70q0 -43 19 -43
q18 0 31 60t36 98q37 62 96 88q57 25 185 25h367l-783 -1276q-10 -17 -10 -23q0 -9 10 -12.5t39 -3.5zM516 1669q0 -42 29.5 -71t70.5 -29t70.5 29t29.5 71q0 41 -29.5 70.5t-70.5 29.5t-70.5 -29.5t-29.5 -70.5z" />
    <glyph glyph-name="zdot" unicode="&#x17c;" horiz-adv-x="903" 
d="M293 45l520 825q6 10 6 23q0 8 -67 8h-564q-47 0 -57 -34q-10 -33 -10 -150q0 -29 22 -29q19 0 29 40q6 27 16 48q22 46 63 63q42 17 138 17h217l-518 -811q0 -1 -1 -1l-1 -2q-12 -18 -12 -28q0 -14 18 -14h699q26 0 26 39v18q0 25 6 70q6 47 6 66q0 34 -20 34
q-18 0 -35 -51q-17 -52 -35 -76q-22 -31 -86 -43q-63 -12 -262 -12h-98zM353 1190q0 -42 29.5 -71t70.5 -29t70.5 29t29.5 71q0 41 -29.5 70.5t-70.5 29.5t-70.5 -29.5t-29.5 -70.5z" />
    <glyph glyph-name="Zcaron" unicode="&#x17d;" horiz-adv-x="1231" 
d="M133 0h940q39 0 49.5 9t10.5 42v37q0 78 9 164t9 92q0 33 -21 33q-16 0 -32 -66q-17 -68 -41 -112q-43 -79 -122 -113q-78 -33 -222 -33h-383l780 1262l6 10q12 18 12 25q0 18 -45 18h-874q-33 0 -43 -6.5t-10 -30.5v-45q0 -67 -7 -129q-6 -66 -6 -70q0 -43 19 -43
q18 0 31 60t36 98q37 62 96 88q57 25 185 25h367l-783 -1276q-10 -17 -10 -23q0 -9 10 -12.5t39 -3.5zM317 1863l233 -348h117l232 348h-58l-233 -210l-232 210h-59z" />
    <glyph glyph-name="zcaron" unicode="&#x17e;" horiz-adv-x="903" 
d="M293 45l520 825q6 10 6 23q0 8 -67 8h-564q-47 0 -57 -34q-10 -33 -10 -150q0 -29 22 -29q19 0 29 40q6 27 16 48q22 46 63 63q42 17 138 17h217l-518 -811q0 -1 -1 -1l-1 -2q-12 -18 -12 -28q0 -14 18 -14h699q26 0 26 39v18q0 25 6 70q6 47 6 66q0 34 -20 34
q-18 0 -35 -51q-17 -52 -35 -76q-22 -31 -86 -43q-63 -12 -262 -12h-98zM154 1384l233 -348h117l232 348h-58l-233 -210l-232 210h-59z" />
    <glyph glyph-name="slong" unicode="&#x17f;" horiz-adv-x="600" 
d="M399 176v998q0 112 50 176.5t137 64.5q116 0 145 -78q2 -5 7 -20q19 -64 75 -64q28 0 47 18.5t19 45.5q0 65 -71 102t-196 37q-206 0 -298 -108q-91 -106 -91 -351v-131h-125q-39 0 -39 -28q0 -25 43 -25h121v-637q0 -65 -11 -85q-10 -18 -44 -32q-21 -8 -70 -17
q-43 -6 -43 -24q0 -22 35 -22q8 0 37 3q103 9 192 9q65 0 132 -6t71 -6q35 0 35 22q0 16 -39 24q-42 8 -61 17q-34 13 -46 34q-12 23 -12 83z" />
    <glyph glyph-name="uni018f" unicode="&#x18f;" horiz-adv-x="1605" 
d="M1256 743q-58 -4 -907 -2h-250q-3 -29 -3 -61q0 -159 54 -284.5t167 -231.5q103 -96 240 -147q110 -40 173 -44q64 -6 75 -6q311 0 508 189q197 191 197 499q0 330 -204 538q-204 210 -525 210q-177 0 -354 -73q-37 -15 -45 -15q-18 0 -33 33q-15 34 -27 34
q-23 0 -24 -44l-11 -291q0 -15 6 -25t15 -10q18 0 32 42q9 30 13 39q48 125 160 195q112 72 256 72q226 0 349 -174q124 -174 138 -443zM1258 623l-4 -57v1q-24 -260 -154 -405q-126 -140 -305 -148q-178 3 -310 183q-136 184 -137 482q888 7 910 0v-54q-1 -1 0 -2z" />
    <glyph glyph-name="florin" unicode="&#x192;" horiz-adv-x="1124" 
d="M461 733q-2 -36 -7 -140t-9 -174q-44 -896 -214 -896q-49 0 -77 69q-3 7 -6 16q-26 56 -76 56q-36 0 -59 -23t-23 -57q0 -58 48 -94.5t126 -36.5q224 0 330 280q108 282 145 1000h217l8 55h-221l8 99q24 265 59 358q35 92 103 92q40 0 69 -50q13 -22 17 -27
q42 -54 92 -54q32 0 53 21t21 53q0 56 -48 90.5t-128 34.5q-169 0 -281 -163q-113 -162 -141 -454h-184l-11 -55h189z" />
    <glyph glyph-name="Aringacute" unicode="&#x1fa;" horiz-adv-x="1356" 
d="M514 1868h68l262 92q43 15 60.5 33.5t17.5 48.5q0 27 -17.5 45t-44.5 18q-46 0 -102 -45zM377 559l246 592l229 -592h-475zM354 500h518l95 -250q30 -77 30 -131q0 -31 -25 -47.5t-87 -26.5q-59 -9 -60 -27q1 -22 54 -22q41 0 124 6t123 6q65 0 152 -6t108 -6q41 0 41 24
q0 19 -53 27q-41 6 -62 13q-36 19 -64.5 57.5t-57.5 109.5l-453 1141q-17 43 -39 43q-21 0 -36 -39l-457 -1089q-40 -94 -71.5 -145t-67.5 -79q-32 -9 -75 -13q-48 -4 -48 -23q0 -27 51 -27q9 0 68 6q58 6 104 6q58 0 121 -6q65 -6 69 -6q39 0 39 18q0 17 -37 27
q-37 11 -53 18q-67 22 -67 99q0 44 26 116zM498 1653q0 -83 55 -138t137 -55q81 0 137 56t56 137q0 80 -56 136t-137 56t-137 -56q-55 -55 -55 -136zM578 1653q0 47 32.5 79.5t79.5 32.5q48 0 80.5 -32.5t32.5 -79.5q0 -48 -32.5 -80.5t-80.5 -32.5q-47 0 -79.5 32.5
t-32.5 80.5z" />
    <glyph glyph-name="aringacute" unicode="&#x1fb;" horiz-adv-x="1012" 
d="M373 1165q0 48 32.5 80.5t79.5 32.5q48 0 80.5 -32.5t32.5 -80.5q0 -47 -32.5 -79.5t-80.5 -32.5q-47 0 -79.5 32.5t-32.5 79.5zM293 1165q0 -82 55 -137t137 -55q81 0 137 56t56 136q0 81 -56 137t-137 56t-137 -56q-55 -55 -55 -137zM309 1378h68l262 95q44 15 61 32
t17 47q0 28 -18 47t-44 19q-44 0 -102 -45zM633 115q14 -66 62 -104t118 -38q63 0 116 36q54 36 54 69q0 18 -18 18q-6 0 -35 -23q-26 -22 -49 -22q-32 0 -50 31t-18 86v520q0 121 -85.5 178.5t-266.5 57.5q-161 0 -258 -48t-97 -122q0 -34 20 -55t52 -21q72 0 88 106
q7 46 53 72.5t121 26.5q102 0 150.5 -39.5t48.5 -120.5v-162q-342 -124 -455 -208q-110 -83 -110 -193q0 -86 56 -136.5t153 -50.5q196 0 350 142zM639 516v-287q0 -65 -77 -122q-77 -56 -161 -56q-64 0 -100.5 40.5t-36.5 111.5q0 90 86 162q84 72 289 151z" />
    <glyph glyph-name="AEacute" unicode="&#x1fc;" horiz-adv-x="1759" 
d="M934 352v340h37q125 0 187 -28q65 -27 93 -91q13 -27 24 -73q10 -43 23 -43q23 0 23 37q0 4 -6 90q-6 87 -6 170q0 51 5 133t5 86q0 35 -25 35q-18 0 -28 -61t-31 -95q-34 -55 -97 -81q-60 -23 -204 -31v470q0 77 20 94q22 17 133 17h17q187 0 261 -25q77 -24 114 -84
q21 -34 28 -87q9 -54 29 -54q23 0 23 33q0 3 -5 41q-4 32 -4 65q0 34 3 70q3 38 3 41q0 28 -20 39q-19 10 -102 10h-45q-109 0 -279 -3t-229 -3q-200 0 -361 7q-17 1 -31 1q-36 0 -36 -20q0 -16 52 -23l32 -4q54 -9 72 -21t18 -38q0 -18 -13 -39l-528 -1014
q-33 -65 -65 -99.5t-74 -52.5q-9 -4 -41 -13q-7 -1 -10 -3q-27 -4 -36.5 -9.5t-9.5 -17.5q0 -18 39 -18q19 0 43 2q4 0 11.5 0.5t21.5 1t26 0.5q62 2 79 2t79 -2q12 0 27 -0.5t23 -1t12 -0.5q26 -2 47 -2q45 0 45 20q0 17 -53 28q-10 2 -14 3q-54 10 -76.5 29.5t-22.5 56.5
q0 29 27 81q3 5 6 11l233 463h320v-463q0 -83 -15 -116q-14 -33 -51 -52q-25 -12 -72 -16h-3h-5q-53 -8 -53 -27q1 -22 37 -22q11 0 24 1q120 9 244 9q366 0 703 -9q32 -1 57 -1q46 0 57 8t11 49q0 45 4 106t4 101q0 38 -5 50t-18 12q-17 0 -29 -52q-12 -54 -34 -90
q-41 -69 -118 -98q-78 -29 -226 -29q-185 0 -243 49t-58 250zM426 739l268 510q11 20 17 21q12 -2 12 -19v-512h-297zM697 1515h67l330 205q61 40 61 82q0 32 -20 52t-53 20q-21 0 -41.5 -12.5t-55.5 -47.5z" />
    <glyph glyph-name="aeacute" unicode="&#x1fd;" horiz-adv-x="1466" 
d="M780 616q15 122 81 192q68 71 163 71q88 0 139 -53t51 -144q0 -29 -6 -65zM614 498v-52q0 -149 33 -245q-140 -152 -264 -152q-59 0 -96 39t-37 100q0 99 79 168q79 68 285 142zM674 154q129 -189 358 -189q127 0 228 64q102 65 102 121q0 8 -7 15t-16 7q-5 0 -26 -21
q-99 -102 -215 -102q-144 0 -238 115t-94 297q0 22 6 77q0 4 0.5 12t1.5 11h561q45 0 56 8q10 7 10 31q0 131 -104 226q-103 96 -255 96q-180 0 -313 -121q-70 121 -297 121q-149 0 -241 -49q-93 -48 -93 -121q0 -33 21 -53.5t53 -20.5q38 0 55 17q18 17 29 85
q9 54 47.5 76.5t124.5 22.5t135 -39.5t49 -108.5v-180q-339 -125 -446 -207q-105 -80 -105 -186q0 -87 59.5 -140t158.5 -53q188 0 395 189zM549 1036h67l330 205q61 40 61 82q0 32 -20 52t-53 20q-21 0 -41.5 -12.5t-55.5 -47.5z" />
    <glyph glyph-name="Oslashacute" unicode="&#x1fe;" horiz-adv-x="1686" 
d="M1217 1176q129 -160 129 -512q0 -291 -140 -473q-139 -181 -360 -181q-196 0 -326 144zM467 225q-121 190 -121 465q0 309 140 491q141 183 378 183q177 0 293 -125zM178 -203h98l183 264q191 -98 383 -98q157 0 300 57t253 164q96 94 147 225.5t51 286.5
q0 184 -74.5 325.5t-230.5 254.5l187 278h-105l-158 -233q-164 86 -356 86q-336 0 -555 -231q-100 -105 -153.5 -232.5t-53.5 -261.5q0 -360 289 -576zM660 1515h67l330 205q61 40 61 82q0 32 -20 52t-53 20q-21 0 -41.5 -12.5t-55.5 -47.5z" />
    <glyph glyph-name="oslashacute" unicode="&#x1ff;" horiz-adv-x="1126" 
d="M393 74l381 702q84 -92 84 -323q0 -211 -78.5 -327t-220.5 -116q-102 0 -166 64zM342 133q-72 124 -72 311q0 210 78 325q78 116 217 116q86 0 160 -58zM223 -240l133 246q87 -39 197 -39q215 0 357 138q143 140 143 348q0 123 -59 227t-171 178l144 268h-84l-129 -237
q-90 35 -189 35q-210 0 -353 -137q-142 -136 -142 -336q0 -123 60 -234t163 -178l-154 -279h84zM379 1036h67l330 205q61 40 61 82q0 32 -20 52t-53 20q-21 0 -41.5 -12.5t-55.5 -47.5z" />
    <glyph glyph-name="uni0259" unicode="&#x259;" horiz-adv-x="1040" 
d="M512 -28v1q-178 17 -299 133q-139 134 -122 343q0 25 1 26q0 28 9 36.5t44 8.5h636q-11 155 -69 251q-78 116 -181 116q-169 0 -257 -168q-12 -22 -24 -56q-12 -36 -25 -36q-16 0 -17 22l7 230q0 22 16 22q6 0 22 -16q17 -15 29 -15q11 0 47 13q123 43 229 43
q163 0 288 -134q124 -133 124 -346q0 -209 -136 -342q-106 -106 -200 -124q-38 -9 -71 -9q-14 0 -40 2q-4 -1 -11 -1zM341 126q71 -98 181 -110q108 10 170 78q73 79 88 250l2 48q0 7 0.5 27.5t0.5 37.5v3h-468q-20 0 -29 -11q-6 -10 -7 -20q-14 -196 62 -303z" />
    <glyph glyph-name="circumflex" unicode="&#x2c6;" horiz-adv-x="1024" 
d="M213 1036h59l232 209l233 -209h58l-232 348h-117z" />
    </font>
</defs>
</svg>
