<?xml version="1.0" standalone="no"?>
<!DOCTYPE svg PUBLIC "-//W3C//DTD SVG 1.1//EN" "http://www.w3.org/Graphics/SVG/1.1/DTD/svg11.dtd" >
<svg xmlns="http://www.w3.org/2000/svg" xmlns:xlink="http://www.w3.org/1999/xlink" version="1.1">
<metadata>
Created by FontForge 20161003 at Wed Oct 25 09:28:38 2017
 By www-data
Digitized data copyright (c) 2010-2011, Google Corporation.
</metadata>
<defs>
<font id="OpenSansRegular" horiz-adv-x="556" >
  <font-face 
    font-family="OpenSansRegular"
    font-weight="400"
    font-stretch="normal"
    units-per-em="1000"
    panose-1="2 11 6 6 3 5 4 2 2 4"
    ascent="800"
    descent="-200"
    x-height="535"
    cap-height="714"
    bbox="-550 -271 1204 1048"
    underline-thickness="50"
    underline-position="-150"
    unicode-range="U+0020-FFFD"
  />
<missing-glyph horiz-adv-x="600" 
d="M94 0v714h411v-714h-411zM145 663v-612h309v612h-309z" />
    <glyph glyph-name="ff" unicode="ff" horiz-adv-x="678" 
d="M666 535v-63h-136v-472h-81v472h-96v37l96 29v30q0 197 172 197q41 0 100 -17l-21 -65q-47 15 -80 15q-46 0 -68 -31t-22 -97v-35h136zM327 535v-63h-136v-472h-81v472h-96v37l96 29v30q0 197 172 197q41 0 100 -17l-21 -65q-46 15 -80 15q-46 0 -68 -31t-22 -97v-35h136
z" />
    <glyph glyph-name="uniFB01" unicode="fi" horiz-adv-x="592" 
d="M327 535v-63h-136v-472h-81v472h-96v37l96 29v30q0 197 172 197q41 0 100 -17l-21 -65q-46 15 -80 15q-46 0 -68 -31t-22 -97v-35h136zM506 535v-535h-81v535h81zM418 680q0 54 48 54q20 0 34 -14t14 -40t-14 -40t-34 -14q-22 0 -35 14t-13 40z" />
    <glyph glyph-name="uniFB02" unicode="fl" horiz-adv-x="592" 
d="M327 535v-63h-136v-472h-81v472h-96v37l96 29v30q0 197 172 197q41 0 100 -17l-21 -65q-46 15 -80 15q-46 0 -68 -31t-22 -97v-35h136zM506 760v-760h-81v760h81z" />
    <glyph glyph-name="uniFB03" unicode="ffi" horiz-adv-x="932" 
d="M663 535v-63h-136v-472h-81v472h-96v37l96 29v30q0 197 172 197q41 0 100 -17l-21 -65q-46 15 -80 15q-46 0 -68 -31t-22 -97v-35h136zM327 535v-63h-136v-472h-81v472h-96v37l96 29v30q0 197 172 197q41 0 100 -17l-21 -65q-46 15 -80 15q-46 0 -68 -31t-22 -97v-35h136
zM845 535v-535h-81v535h81zM757 680q0 54 48 54q20 0 34 -14t14 -40t-14 -40t-34 -14q-22 0 -35 14t-13 40z" />
    <glyph glyph-name="uniFB04" unicode="ffl" horiz-adv-x="932" 
d="M663 535v-63h-136v-472h-81v472h-96v37l96 29v30q0 197 172 197q41 0 100 -17l-21 -65q-46 15 -80 15q-46 0 -68 -31t-22 -97v-35h136zM327 535v-63h-136v-472h-81v472h-96v37l96 29v30q0 197 172 197q41 0 100 -17l-21 -65q-46 15 -80 15q-46 0 -68 -31t-22 -97v-35h136
zM845 760v-760h-81v760h81z" />
    <glyph glyph-name=".notdef" horiz-adv-x="600" 
d="M94 0v714h411v-714h-411zM145 663v-612h309v612h-309z" />
    <glyph glyph-name=".null" horiz-adv-x="0" 
 />
    <glyph glyph-name="nonmarkingreturn" horiz-adv-x="510" 
 />
    <glyph glyph-name="space" unicode=" " horiz-adv-x="260" 
 />
    <glyph glyph-name="exclam" unicode="!" horiz-adv-x="267" 
d="M184 714l-25 -517h-51l-25 517h101zM74 52q0 66 59 66t59 -66q0 -31 -15.5 -48.5t-43.5 -17.5q-59 0 -59 66z" />
    <glyph glyph-name="quotedbl" unicode="&#x22;" horiz-adv-x="401" 
d="M65 714h91l-20 -258h-51zM245 714h91l-20 -258h-51z" />
    <glyph glyph-name="numbersign" unicode="#" horiz-adv-x="646" 
d="M620 439h-141l-32 -166h138v-63h-150l-41 -210h-67l41 210h-148l-40 -210h-66l39 210h-128v63h140l33 166h-135v62h146l40 213h68l-40 -213h149l41 213h65l-41 -213h129v-62zM264 439l-32 -166h148l32 166h-148z" />
    <glyph glyph-name="dollar" unicode="$" horiz-adv-x="572" 
d="M506 219q0 -66 -50 -109.5t-139 -54.5v-113h-63v109q-120 0 -190 32v76q91 -41 190 -41v215q-99 32 -140 73.5t-41 108.5q0 63 49 104.5t132 50.5v89h63v-88q91 -3 173 -36l-25 -64q-77 30 -148 34v-212q78 -25 115 -48q74 -45 74 -126zM423 213q0 36 -22.5 57.5
t-83.5 42.5v-190q106 15 106 90zM156 516q0 -37 22 -59.5t76 -42.5v189q-98 -17 -98 -87z" />
    <glyph glyph-name="percent" unicode="%" horiz-adv-x="823" 
d="M118 501q0 -85 18 -125.5t59 -40.5q80 0 80 166q0 165 -80 165q-41 0 -59 -40t-18 -125zM342 501q0 -225 -147 -225q-69 0 -106.5 58t-37.5 167q0 223 144 223q71 0 109 -58t38 -165zM548 215q0 -85 18 -125.5t59 -40.5q80 0 80 166q0 164 -80 164q-41 0 -59 -40
t-18 -124zM772 215q0 -225 -147 -225q-69 0 -106.5 58t-37.5 167q0 223 144 223q70 0 108.5 -58t38.5 -165zM574 714h72l-396 -714h-72z" />
    <glyph glyph-name="ampersand" unicode="&#x26;" horiz-adv-x="730" 
d="M202 572q0 -34 17.5 -64.5t60.5 -73.5q62 36 87 67.5t25 71.5q0 38 -25 61.5t-67 23.5q-44 0 -71 -23.5t-27 -62.5zM278 63q118 0 195 75l-213 207q-57 -35 -77 -55q-44 -42 -44 -103q0 -57 38 -90.5t101 -33.5zM55 185q0 65 34 112q35 50 122 99q-43 48 -57 70
q-32 54 -32 104q0 73 48 114t133 41q79 0 124.5 -41t45.5 -113q0 -53 -33.5 -97.5t-109.5 -88.5l199 -191q45 50 71 160h82q-33 -141 -100 -212l146 -142h-112l-90 87q-108 -97 -250 -97q-104 0 -162.5 52t-58.5 143z" />
    <glyph glyph-name="quotesingle" unicode="'" horiz-adv-x="221" 
d="M65 714h91l-20 -258h-51z" />
    <glyph glyph-name="parenleft" unicode="(" horiz-adv-x="296" 
d="M40 274q0 265 147 440h79q-141 -190 -141 -439q0 -244 140 -433h-78q-147 170 -147 432z" />
    <glyph glyph-name="parenright" unicode=")" horiz-adv-x="296" 
d="M256 274q0 -263 -147 -432h-78q140 189 140 433q0 249 -141 439h79q147 -176 147 -440z" />
    <glyph glyph-name="asterisk" unicode="*" horiz-adv-x="552" 
d="M226 760h95l-21 -193l194 54l13 -89l-186 -15l121 -159l-84 -46l-86 177l-78 -177l-86 46l118 159l-184 15l14 89l191 -54z" />
    <glyph glyph-name="plus" unicode="+" horiz-adv-x="572" 
d="M319 595v-209h201v-67h-201v-208h-68v208h-200v67h200v209h68z" />
    <glyph glyph-name="comma" unicode="," horiz-adv-x="245" 
d="M82 116h89l7 -11q-11 -47 -36 -113q-24 -64 -50 -121h-61q8 29 29 126q15 67 22 119z" />
    <glyph glyph-name="hyphen" unicode="-" horiz-adv-x="322" 
d="M281 231h-240v74h240v-74z" />
    <glyph glyph-name="period" unicode="." horiz-adv-x="266" 
d="M74 52q0 66 58 66q28 0 44 -17t16 -49t-16 -49t-44 -17q-58 0 -58 66z" />
    <glyph glyph-name="slash" unicode="/" horiz-adv-x="367" 
d="M276 714h81l-266 -714h-81z" />
    <glyph glyph-name="zero" unicode="0" horiz-adv-x="572" 
d="M522 358q0 -368 -237 -368q-115 0 -175 94t-60 274q0 186 58 276.5t177 90.5q116 0 176.5 -94t60.5 -273zM132 358q0 -156 36.5 -227t116.5 -71q81 0 117.5 71.5t36.5 226.5q0 154 -36.5 225.5t-117.5 71.5q-80 0 -116.5 -70.5t-36.5 -226.5z" />
    <glyph glyph-name="one" unicode="1" horiz-adv-x="572" 
d="M349 714v-714h-79v509q0 69 4 120l-23 -22l-116 -95l-43 56l189 146h68z" />
    <glyph glyph-name="two" unicode="2" horiz-adv-x="572" 
d="M518 75v-75h-469v70l188 189q89 90 113 124q55 75 55 148q0 57 -35 90.5t-96 33.5q-86 0 -173 -68l-43 55q98 82 215 82q101 0 158 -51t57 -139q0 -67 -38 -135q-38 -66 -143 -167l-156 -153v-4h367z" />
    <glyph glyph-name="three" unicode="3" horiz-adv-x="572" 
d="M491 546q0 -68 -38 -111.5t-109 -58.5v-4q169 -22 169 -170q0 -102 -70.5 -157t-201.5 -55q-116 0 -195 39v77q92 -47 198 -47q185 0 185 145q0 130 -204 130h-70v70h71q84 0 132.5 37t48.5 102q0 52 -36 82t-97 30q-88 0 -183 -60l-41 55q93 74 222 74q104 0 161.5 -47
t57.5 -131z" />
    <glyph glyph-name="four" unicode="4" horiz-adv-x="572" 
d="M552 238v-74h-106v-164h-78v164h-347v71l339 483h86v-480h106zM102 238h266v237q0 60 5 158h-4q-21 -44 -44 -78z" />
    <glyph glyph-name="five" unicode="5" horiz-adv-x="572" 
d="M272 436q113 0 177.5 -56t64.5 -153q0 -111 -70.5 -174t-194.5 -63q-121 0 -184 39v78q73 -47 185 -47q87 0 134 40.5t47 117.5q0 149 -183 149q-43 0 -124 -14l-42 27l27 334h355v-75h-286l-18 -214q58 11 112 11z" />
    <glyph glyph-name="six" unicode="6" horiz-adv-x="572" 
d="M57 305q0 419 324 419q55 0 87 -9v-70q-38 12 -86 12q-116 0 -176 -72t-66 -224h6q54 84 170 84q96 0 151.5 -58t55.5 -158q0 -111 -61 -175t-164 -64q-111 0 -176 83q-65 85 -65 232zM297 59q70 0 108 43.5t38 126.5q0 73 -36 112.5t-106 39.5q-66 0 -113.5 -40
t-47.5 -94q0 -78 44.5 -133t112.5 -55z" />
    <glyph glyph-name="seven" unicode="7" horiz-adv-x="572" 
d="M229 0h-90l296 639h-389v75h475v-65z" />
    <glyph glyph-name="eight" unicode="8" horiz-adv-x="572" 
d="M285 724q99 0 155.5 -45.5t56.5 -125.5q0 -107 -137 -175q86 -41 123 -86.5t37 -106.5q0 -90 -62 -142.5t-170 -52.5q-114 0 -175.5 50t-61.5 142q0 123 149 191q-126 72 -126 181q0 78 57.5 124t153.5 46zM131 180q0 -58 40.5 -91t114.5 -33q72 0 113 34t41 94
q0 48 -39 85t-132 71q-73 -31 -105.5 -69t-32.5 -91zM284 658q-60 0 -95 -29t-35 -78q0 -46 29.5 -78.5t105.5 -63.5q69 29 98.5 62.5t29.5 79.5q0 49 -35.5 78t-97.5 29z" />
    <glyph glyph-name="nine" unicode="9" horiz-adv-x="572" 
d="M518 409q0 -419 -324 -419q-59 0 -90 10v70q38 -13 89 -13q117 0 177 72.5t65 222.5h-6q-56 -83 -171 -83q-96 0 -151 57t-55 158q0 110 62 175t164 65q110 0 175 -84.5t65 -230.5zM278 655q-70 0 -108 -45t-38 -125q0 -71 36 -111t106 -40q67 0 114.5 39.5t47.5 93.5
q0 79 -44.5 133.5t-113.5 54.5z" />
    <glyph glyph-name="colon" unicode=":" horiz-adv-x="266" 
d="M74 52q0 66 58 66q28 0 44 -17t16 -49t-16 -49t-44 -17q-58 0 -58 66zM74 483q0 66 58 66q60 0 60 -66q0 -32 -16 -49t-44 -17q-58 0 -58 66z" />
    <glyph glyph-name="semicolon" unicode=";" horiz-adv-x="266" 
d="M82 116h89l7 -11q-11 -47 -36 -113q-24 -64 -50 -121h-61q8 29 29 126q15 67 22 119zM72 483q0 66 58 66q60 0 60 -66q0 -32 -16 -49t-44 -17q-58 0 -58 66z" />
    <glyph glyph-name="less" unicode="&#x3c;" horiz-adv-x="572" 
d="M520 192v-74l-469 206v48l469 234v-73l-382 -181z" />
    <glyph glyph-name="equal" unicode="=" horiz-adv-x="572" 
d="M512 419h-454v67h454v-67zM512 219h-454v67h454v-67z" />
    <glyph glyph-name="greater" unicode="&#x3e;" horiz-adv-x="572" 
d="M51 118v74l382 159l-382 182v73l469 -234v-48z" />
    <glyph glyph-name="question" unicode="?" horiz-adv-x="429" 
d="M204 197h-63v26q0 55 17 94q18 37 66 78q68 55 84 84q17 29 17 69q0 50 -32 77t-92 27q-76 0 -159 -42l-29 66q91 48 193 48q93 0 145 -46t52 -129q0 -37 -10 -63q-9 -28 -28 -51q-17 -23 -80 -78q-48 -41 -65 -70q-16 -28 -16 -74v-16zM117 52q0 66 59 66t59 -66
q0 -31 -15.5 -48.5t-43.5 -17.5q-59 0 -59 66z" />
    <glyph glyph-name="at" unicode="@" horiz-adv-x="899" 
d="M840 356q1 -106 -48 -178.5t-124 -69.5q-42 0 -71 25.5t-34 64.5h-4q-40 -90 -142 -90q-73 0 -114.5 50t-41.5 136q0 100 57 162q59 62 152 62q82 0 151 -23l-12 -229v-11q0 -87 65 -87q44 0 72 52.5t28 136.5q2 131 -80 213t-212 80q-162 2 -259.5 -100t-95.5 -268
q0 -149 78.5 -229t226.5 -80q104 0 213 42v-65q-96 -41 -213 -41q-178 0 -275 97q-98 98 -98 273q-3 190 116.5 313.5t306.5 120.5q157 2 258.5 -98.5t99.5 -258.5zM335 292q0 -124 95 -124q101 0 110 153l7 127q-33 10 -77 10q-63 0 -99 -44t-36 -122z" />
    <glyph glyph-name="A" unicode="A" horiz-adv-x="633" 
d="M633 0h-86l-89 227h-286l-88 -227h-84l282 717h70zM201 302h231l-83 221q-17 43 -33 103q-9 -41 -31 -103z" />
    <glyph glyph-name="B" unicode="B" horiz-adv-x="648" 
d="M98 0v714h202q141 0 205 -42t64 -135q0 -64 -35.5 -105t-103.5 -53v-5q163 -28 163 -171q0 -96 -65 -149.5t-181 -53.5h-249zM181 642v-234h137q88 0 126.5 27.5t38.5 93.5q0 60 -43 86.5t-137 26.5h-122zM323 338h-142v-267h149q174 0 174 138q0 66 -44.5 97.5
t-136.5 31.5z" />
    <glyph glyph-name="C" unicode="C" horiz-adv-x="631" 
d="M404 650q-118 0 -186 -78.5t-68 -214.5q0 -141 65.5 -217t187.5 -76q75 0 170 27v-73q-72 -28 -183 -28q-158 0 -243.5 96t-85.5 272q0 167 92.5 266.5t251.5 99.5q111 0 196 -41l-35 -71q-82 38 -162 38z" />
    <glyph glyph-name="D" unicode="D" horiz-adv-x="729" 
d="M668 364q0 -177 -96 -270.5t-276 -93.5h-198v714h219q167 0 258 -93q93 -91 93 -257zM580 361q0 139 -70 210t-208 71h-121v-570h101q298 0 298 289z" />
    <glyph glyph-name="E" unicode="E" 
d="M496 74v-74h-398v714h398v-74h-315v-230h296v-73h-296v-263h315z" />
    <glyph glyph-name="F" unicode="F" horiz-adv-x="516" 
d="M181 305v-305h-83v714h398v-74h-315v-261h296v-74h-296z" />
    <glyph glyph-name="G" unicode="G" horiz-adv-x="728" 
d="M412 300v74h243v-347q-117 -37 -251 -37q-162 0 -252.5 96.5t-90.5 270.5q-2 168 99.5 269t270.5 98q114 0 213 -42l-32 -73q-99 41 -186 41q-131 0 -204 -77.5t-73 -215.5q0 -145 70.5 -219.5t207.5 -74.5q72 0 145 17v220h-160z" />
    <glyph glyph-name="H" unicode="H" horiz-adv-x="738" 
d="M640 714v-714h-83v336h-376v-336h-83v714h83v-304h376v304h83z" />
    <glyph glyph-name="I" unicode="I" horiz-adv-x="279" 
d="M181 0h-83v714h83v-714z" />
    <glyph glyph-name="J" unicode="J" horiz-adv-x="267" 
d="M-6 -188q-47 0 -72 13v71q33 -10 72 -10q48 0 73.5 29.5t25.5 84.5v714h83v-707q0 -93 -47 -144t-135 -51z" />
    <glyph glyph-name="K" unicode="K" horiz-adv-x="614" 
d="M316 404l298 -404h-98l-260 346l-75 -66v-280h-83v714h83v-354l324 354h98z" />
    <glyph glyph-name="L" unicode="L" horiz-adv-x="519" 
d="M496 0h-398v714h83v-639h315v-75z" />
    <glyph glyph-name="M" unicode="M" horiz-adv-x="903" 
d="M481 0h-67l-242 633h-4q7 -70 7 -179v-454h-77v714h125l226 -589h4l228 589h124v-714h-83v460q0 85 7 172h-4z" />
    <glyph glyph-name="N" unicode="N" horiz-adv-x="754" 
d="M656 714v-714h-95l-390 599h-4q8 -112 8 -193v-406h-77v714h94l389 -597h4l-5 84q-3 77 -2 103v410h78z" />
    <glyph glyph-name="O" unicode="O" horiz-adv-x="779" 
d="M718 358q0 -171 -87 -270q-87 -98 -241 -98q-158 0 -243.5 96t-85.5 273q0 174 86 270t244 96q154 0 240 -98q87 -98 87 -269zM149 358q0 -145 61.5 -220t179.5 -75q240 0 240 295q0 144 -60.5 218.5t-178.5 74.5q-119 0 -180.5 -74.5t-61.5 -218.5z" />
    <glyph glyph-name="P" unicode="P" horiz-adv-x="602" 
d="M551 506q0 -109 -74 -167t-212 -58h-84v-281h-83v714h185q268 0 268 -208zM181 642v-290h75q110 0 159.5 35.5t49.5 114.5q0 71 -46.5 105.5t-144.5 34.5h-93z" />
    <glyph glyph-name="Q" unicode="Q" horiz-adv-x="779" 
d="M718 358q0 -136 -55.5 -227.5t-155.5 -123.5l170 -177h-121l-139 161l-27 -1q-158 0 -243.5 96t-85.5 273q0 174 86 270t244 96q154 0 240 -98q87 -98 87 -269zM149 358q0 -145 61.5 -220t179.5 -75q240 0 240 295q0 144 -60.5 218.5t-178.5 74.5q-119 0 -180.5 -74.5
t-61.5 -218.5z" />
    <glyph glyph-name="R" unicode="R" horiz-adv-x="618" 
d="M330 297h-149v-297h-83v714h196q257 0 257 -202q0 -141 -144 -191l194 -321h-98zM181 641v-273h114q170 0 170 140q0 71 -41.5 102t-134.5 31h-108z" />
    <glyph glyph-name="S" unicode="S" horiz-adv-x="549" 
d="M501 190q0 -93 -68.5 -146.5t-185.5 -53.5q-127 0 -195 33v80q94 -40 198 -40q82 0 124.5 31t42.5 88q-4 56 -35 83.5t-136 66.5q-100 36 -142.5 84.5t-42.5 127.5q0 81 62 131q61 49 164 49q107 0 196 -39l-26 -72q-87 37 -172 37q-66 0 -103 -28.5t-37 -78.5
q3 -58 31.5 -85t127.5 -63q115 -41 155 -86q42 -47 42 -119z" />
    <glyph glyph-name="T" unicode="T" horiz-adv-x="553" 
d="M318 640v-640h-83v640h-226v74h535v-74h-226z" />
    <glyph glyph-name="U" unicode="U" horiz-adv-x="728" 
d="M554 714h83v-462q0 -122 -73.5 -192t-202.5 -70q-128 0 -199 70t-71 194v460h83v-466q0 -90 48.5 -137.5t143.5 -47.5q91 0 139.5 48t48.5 138v465z" />
    <glyph glyph-name="V" unicode="V" horiz-adv-x="595" 
d="M343 255l163 459h89l-257 -714h-82l-256 714h88l164 -462q28 -79 45 -155q15 71 46 158z" />
    <glyph glyph-name="W" unicode="W" horiz-adv-x="926" 
d="M912 714l-191 -714h-82l-144 478q-3 10 -23 80q-13 46 -13 58q-9 -57 -34 -141l-140 -475h-82l-190 714h88l113 -441q25 -103 34 -168q14 91 39 175l128 434h88l134 -438q23 -73 40 -171q8 64 35 169l112 440h88z" />
    <glyph glyph-name="X" unicode="X" horiz-adv-x="577" 
d="M335 376l238 -376h-94l-192 314l-195 -314h-88l237 373l-221 341h92l177 -283l179 283h88z" />
    <glyph glyph-name="Y" unicode="Y" horiz-adv-x="560" 
d="M91 714l189 -357l190 357h90l-238 -437v-277h-84v273l-238 441h91z" />
    <glyph glyph-name="Z" unicode="Z" horiz-adv-x="571" 
d="M531 75v-75h-491v65l379 574h-367v75h468v-65l-379 -574h390z" />
    <glyph glyph-name="bracketleft" unicode="[" horiz-adv-x="329" 
d="M304 -89v-69h-223v872h223v-69h-141v-734h141z" />
    <glyph glyph-name="backslash" unicode="\" horiz-adv-x="367" 
d="M11 714h80l267 -714h-81z" />
    <glyph glyph-name="bracketright" unicode="]" horiz-adv-x="329" 
d="M25 -158v69h141v734h-141v69h223v-872h-223z" />
    <glyph glyph-name="asciicircum" unicode="^" horiz-adv-x="542" 
d="M98 269h-74l212 450h48l233 -450h-74l-182 364z" />
    <glyph glyph-name="underscore" unicode="_" horiz-adv-x="448" 
d="M450 -90v-64h-452v64h452z" />
    <glyph glyph-name="grave" unicode="`" horiz-adv-x="577" 
d="M384 618v-12h-54q-36 29 -76 72q-41 43 -62 78v10h99q18 -38 43 -78q34 -52 50 -70z" />
    <glyph glyph-name="a" unicode="a" 
d="M475 0h-60l-16 76h-4q-39 -49 -78.5 -67.5t-100.5 -18.5q-81 0 -125.5 41.5t-44.5 116.5q0 163 259 170l91 3v33q0 63 -27 93t-87 30q-66 0 -151 -41l-25 62q84 46 181 46t142.5 -43t45.5 -136v-365zM232 57q76 0 119 41.5t43 116.5v48l-81 -3q-97 -4 -139.5 -30.5
t-42.5 -82.5q0 -44 26.5 -67t74.5 -23z" />
    <glyph glyph-name="b" unicode="b" horiz-adv-x="613" 
d="M335 544q105 0 163.5 -72t58.5 -204t-58.5 -205t-163.5 -73q-110 0 -168 79h-6l-17 -69h-58v760h81v-185q0 -67 -4 -111h4q57 80 168 80zM323 476q-84 0 -120 -47.5t-36 -160.5t37 -161.5t121 -48.5q148 0 148 211q0 105 -36.5 156t-113.5 51z" />
    <glyph glyph-name="c" unicode="c" horiz-adv-x="476" 
d="M300 -10q-116 0 -180 71.5t-64 202.5q0 134 65 207.5t184 73.5q84 0 138 -28l-25 -69q-60 25 -115 25q-163 0 -163 -208q0 -99 40 -151.5t118 -52.5q65 0 137 29v-72q-53 -28 -135 -28z" />
    <glyph glyph-name="d" unicode="d" horiz-adv-x="613" 
d="M461 0l-11 72h-4q-55 -82 -168 -82q-105 0 -163.5 72t-58.5 204t58.5 205.5t163.5 73.5q109 0 167 -79h6l-3 38l-2 38v218h81v-760h-66zM288 58q83 0 120.5 45t37.5 146v17q0 113 -37.5 162t-121.5 49q-71 0 -109 -55t-38 -157q0 -207 148 -207z" />
    <glyph glyph-name="e" unicode="e" horiz-adv-x="561" 
d="M312 -10q-119 0 -187.5 72.5t-68.5 200.5q0 130 64 206t171 76q101 0 159 -66q59 -67 59 -175v-51h-369q3 -94 48 -143t127 -49q85 0 171 36v-72q-80 -35 -174 -35zM290 477q-64 0 -102.5 -41.5t-45.5 -116.5h280q0 77 -34 117.5t-98 40.5z" />
    <glyph glyph-name="f" unicode="f" horiz-adv-x="339" 
d="M327 535v-63h-136v-472h-81v472h-96v37l96 29v30q0 197 172 197q41 0 100 -17l-21 -65q-46 15 -80 15q-46 0 -68 -31t-22 -97v-35h136z" />
    <glyph glyph-name="g" unicode="g" horiz-adv-x="548" 
d="M339 535h185v-51l-99 -12q35 -47 35 -107q0 -79 -54 -125.5t-147 -46.5q-26 0 -45 4q-52 -28 -52 -69q0 -22 18.5 -32.5t61.5 -10.5h95q87 0 133.5 -36.5t46.5 -106.5q0 -89 -71 -135.5t-208 -46.5q-105 0 -162 39t-57 110q0 49 31.5 84.5t87.5 48.5q-21 9 -34.5 29
t-13.5 45q0 54 65 94q-43 17 -68.5 58t-25.5 94q0 88 53 135.5t149 47.5q43 0 76 -10zM97 -90q0 -88 142 -88q100 0 150 30t50 83q0 44 -27 60.5t-101 16.5h-97q-55 0 -86 -26.5t-31 -75.5zM141 364q0 -56 31.5 -85t88.5 -29q119 0 119 115q0 121 -120 121q-57 0 -88 -31
t-31 -91z" />
    <glyph glyph-name="h" unicode="h" horiz-adv-x="614" 
d="M533 0h-81v346q0 66 -30 98t-93 32q-85 0 -123.5 -46t-38.5 -150v-280h-81v760h81v-230q0 -45 -4 -69h5q51 83 169 83q99 0 147.5 -47t48.5 -148v-349z" />
    <glyph glyph-name="i" unicode="i" horiz-adv-x="253" 
d="M167 535v-535h-81v535h81zM79 680q0 54 48 54q20 0 34 -14t14 -40t-14 -40t-34 -14q-22 0 -35 14t-13 40z" />
    <glyph glyph-name="j" unicode="j" horiz-adv-x="253" 
d="M21 -240q-47 0 -75 12v66q31 -10 66 -10q74 0 74 84v623h81v-617q0 -158 -146 -158zM79 680q0 54 48 54q20 0 34 -14t14 -40t-14 -40t-34 -14q-22 0 -35 14t-13 40z" />
    <glyph glyph-name="k" unicode="k" horiz-adv-x="525" 
d="M162 274h4q23 32 64 78l173 183h96l-217 -228l232 -307h-98l-189 253l-61 -53v-200h-80v760h80v-403q0 -34 -4 -83z" />
    <glyph glyph-name="l" unicode="l" horiz-adv-x="253" 
d="M167 760v-760h-81v760h81z" />
    <glyph glyph-name="m" unicode="m" horiz-adv-x="930" 
d="M849 0h-81v348q0 128 -112 128q-76 0 -112 -43.5t-36 -133.5v-299h-81v348q0 128 -113 128q-76 0 -111.5 -46t-35.5 -149v-281h-81v535h66l13 -73h4q23 39 64.5 61t93.5 22q127 0 164 -91h4q24 42 70 66.5t103 24.5q92 0 136.5 -47t44.5 -149v-349z" />
    <glyph glyph-name="n" unicode="n" horiz-adv-x="614" 
d="M533 0h-81v346q0 66 -30 98t-93 32q-85 0 -123.5 -46t-38.5 -149v-281h-81v535h66l13 -73h4q25 39 70 61t100 22q98 0 146 -47t48 -149v-349z" />
    <glyph glyph-name="o" unicode="o" horiz-adv-x="604" 
d="M548 268q0 -131 -66 -204.5t-182 -73.5q-109 0 -176.5 76t-67.5 202q0 131 65.5 204t181.5 73q113 0 179 -75q66 -74 66 -202zM140 268q0 -103 41 -156.5t121 -53.5q79 0 120.5 53.5t41.5 156.5q0 102 -41.5 155t-121.5 53q-161 0 -161 -208z" />
    <glyph glyph-name="p" unicode="p" horiz-adv-x="613" 
d="M335 -10q-110 0 -168 79h-6q6 -46 6 -89v-220h-81v775h66l11 -73h4q58 83 168 83q106 0 164 -73t58 -204q0 -132 -58.5 -205t-163.5 -73zM323 476q-81 0 -118 -45.5t-38 -144.5v-18q0 -113 37 -161.5t121 -48.5q70 0 109 56t39 155q0 100 -39 153.5t-111 53.5z" />
    <glyph glyph-name="q" unicode="q" horiz-adv-x="613" 
d="M288 58q81 0 118 44t40 146v18q0 111 -38 161t-121 50q-71 0 -109 -55t-38 -157q0 -101 37.5 -154t110.5 -53zM276 -10q-104 0 -162 73t-58 203q0 131 58.5 205t163.5 74q110 0 169 -83h4l12 73h64v-775h-81v229q0 45 5 83h-6q-55 -82 -169 -82z" />
    <glyph glyph-name="r" unicode="r" horiz-adv-x="408" 
d="M330 545q36 0 64 -6l-11 -75q-31 7 -59 7q-64 0 -111 -53q-46 -52 -46 -131v-287h-81v535h67l9 -99h4q63 109 164 109z" />
    <glyph glyph-name="s" unicode="s" horiz-adv-x="477" 
d="M431 146q0 -75 -55.5 -115.5t-156.5 -40.5q-107 0 -166 34v75q87 -42 168 -42q132 0 132 82q0 31 -27 53q-29 24 -106 53q-76 30 -106 48q-62 42 -62 111q0 65 53 103t146 38q85 0 169 -35l-29 -66q-80 33 -146 33q-116 0 -116 -68q0 -20 11 -37q11 -15 35 -29
q27 -14 94 -39q96 -35 128 -70q34 -34 34 -88z" />
    <glyph glyph-name="t" unicode="t" horiz-adv-x="353" 
d="M259 57q41 0 73 10v-62q-32 -15 -85 -15q-155 0 -155 164v318h-77v39l77 34l34 114h47v-124h155v-63h-155v-315q0 -48 23 -74t63 -26z" />
    <glyph glyph-name="u" unicode="u" horiz-adv-x="614" 
d="M80 535h82v-347q0 -130 123 -130q85 0 123.5 46t38.5 150v281h81v-535h-67l-12 72h-4q-51 -82 -170 -82q-99 0 -147 47t-48 148v350z" />
    <glyph glyph-name="v" unicode="v" horiz-adv-x="501" 
d="M298 0h-95l-203 535h87l115 -317q38 -109 46 -145h4q5 27 33 107q26 74 129 355h87z" />
    <glyph glyph-name="w" unicode="w" horiz-adv-x="778" 
d="M619 0h-96l-98 314q-11 34 -35 131h-4q-21 -91 -34 -132l-101 -313h-94l-146 535h85l79 -307q26 -102 31 -142h4q4 24 17 72t21 70l98 307h88l96 -307q26 -80 37 -141h4q1 7 10 54l102 394h84z" />
    <glyph glyph-name="x" unicode="x" horiz-adv-x="524" 
d="M19 0l196 274l-186 261h92l141 -205l141 205h91l-186 -261l196 -274h-92l-150 217l-151 -217h-92z" />
    <glyph glyph-name="y" unicode="y" horiz-adv-x="504" 
d="M217 -3l-216 538h87l117 -305q39 -106 48 -151h4q4 18 26 85q23 68 133 371h87l-230 -609q-33 -89 -79 -127.5t-113 -38.5q-35 0 -73 8v65q27 -6 60 -6q83 0 119 94z" />
    <glyph glyph-name="z" unicode="z" horiz-adv-x="468" 
d="M428 63v-63h-388v55l292 417h-274v63h363v-63l-288 -409h295z" />
    <glyph glyph-name="braceleft" unicode="{" horiz-adv-x="379" 
d="M232 151v-145q0 -94 112 -96v-68q-93 1 -143.5 42.5t-50.5 116.5v148q0 94 -120 94v69q63 1 91.5 23.5t28.5 69.5v149q0 75 52 117.5t142 42.5v-68q-112 -3 -112 -97v-144q0 -105 -109 -124v-6q109 -19 109 -124z" />
    <glyph glyph-name="bar" unicode="|" horiz-adv-x="551" 
d="M241 -242v1002h69v-1002h-69z" />
    <glyph glyph-name="braceright" unicode="}" horiz-adv-x="379" 
d="M255 275v6q-109 19 -109 124v144q0 94 -111 97v68q90 0 141.5 -42.5t51.5 -117.5v-149q0 -48 29 -70t92 -23v-69q-61 0 -91 -22t-30 -72v-148q0 -75 -50 -116.5t-143 -42.5v68q111 2 111 96v145q0 55 26.5 84.5t82.5 39.5z" />
    <glyph glyph-name="asciitilde" unicode="~" horiz-adv-x="572" 
d="M165 348q-55 0 -114 -59v74q50 53 119 53q53 0 132 -32q61 -27 103 -27q59 0 115 59v-73q-50 -54 -119 -54q-60 0 -132 32q-66 27 -104 27z" />
    <glyph glyph-name="nonbreakingspace" unicode="&#xa0;" horiz-adv-x="260" 
 />
    <glyph glyph-name="exclamdown" unicode="&#xa1;" horiz-adv-x="267" 
d="M82 -182l25 516h51l25 -516h-101zM192 480q0 -66 -59 -66t-59 66q0 31 15.5 48.5t43.5 17.5q27 0 43 -16t16 -50z" />
    <glyph glyph-name="cent" unicode="&#xa2;" horiz-adv-x="572" 
d="M474 189v-72q-52 -26 -123 -29v-98h-65v101q-99 15 -146 81.5t-47 189.5q0 248 193 278v84h66v-80q71 -1 130 -29l-24 -68q-63 25 -118 25q-84 0 -123.5 -51.5t-39.5 -157.5q0 -104 38.5 -153.5t120.5 -49.5q68 0 138 29z" />
    <glyph glyph-name="sterling" unicode="&#xa3;" horiz-adv-x="572" 
d="M333 723q92 0 176 -41l-30 -65q-76 38 -145 38q-61 0 -91 -31t-30 -98v-144h206v-62h-206v-108q0 -96 -68 -137h388v-75h-502v69q100 22 100 142v109h-97v62h97v154q0 87 54.5 137t147.5 50z" />
    <glyph glyph-name="currency" unicode="&#xa4;" horiz-adv-x="572" 
d="M90 353q0 59 36 112l-66 68l46 45l66 -65q51 36 114 36q62 0 112 -36l67 65l46 -45l-65 -67q36 -56 36 -113q0 -65 -36 -114l64 -66l-45 -45l-67 65q-50 -35 -112 -35q-64 0 -114 36l-66 -65l-45 45l65 66q-36 52 -36 113zM153 353q0 -54 38 -94q37 -39 95 -39t95 39
q39 39 39 94q0 56 -39 95q-39 40 -95 40q-58 0 -95 -40q-38 -41 -38 -95z" />
    <glyph glyph-name="yen" unicode="&#xa5;" horiz-adv-x="572" 
d="M102 714l183 -355l185 355h85l-203 -376h128v-62h-155v-83h155v-62h-155v-131h-80v131h-154v62h154v83h-154v62h125l-201 376h87z" />
    <glyph glyph-name="brokenbar" unicode="&#xa6;" horiz-adv-x="551" 
d="M241 381v379h69v-379h-69zM241 -242v379h69v-379h-69z" />
    <glyph glyph-name="section" unicode="&#xa7;" horiz-adv-x="516" 
d="M68 395q0 89 80 127q-77 43 -77 115q0 60 51 93.5t146 33.5q88 0 171 -33l-26 -64q-82 32 -151 32q-113 0 -113 -60q0 -29 29 -49t106 -48q89 -33 126.5 -69.5t37.5 -89.5q0 -90 -76 -133q75 -40 75 -111q0 -68 -57 -105.5t-161 -37.5q-105 0 -169 32v72q85 -40 173 -40
q134 0 134 72q-3 34 -25.5 51t-106.5 49q-98 36 -130 69t-37 94zM139 405q0 -38 32 -63t114 -56l24 -9q67 39 67 93q0 41 -36 68t-126 55q-33 -9 -54 -33.5t-21 -54.5z" />
    <glyph glyph-name="dieresis" unicode="&#xa8;" horiz-adv-x="577" 
d="M151 680q0 48 44 48q45 0 45 -48q0 -23 -13 -35.5t-32 -12.5t-31.5 12.5t-12.5 35.5zM337 680q0 48 44 48q45 0 45 -48q0 -23 -13 -35.5t-32 -12.5t-31.5 12.5t-12.5 35.5z" />
    <glyph glyph-name="copyright" unicode="&#xa9;" horiz-adv-x="832" 
d="M436 517q-60 0 -93.5 -42.5t-33.5 -117.5q0 -161 126 -161q43 0 103 22v-61q-55 -23 -107 -23q-95 0 -145.5 58.5t-50.5 164.5q0 102 54 162t147 60q62 0 120 -29l-28 -58q-51 25 -92 25zM49 357q-2 72 27.5 140t79.5 118.5t118.5 80.5t141.5 28q147 4 259 -108t108 -259
q2 -94 -46.5 -179.5t-135 -137.5t-185.5 -50q-101 0 -187 50q-84 51 -132 135.5t-48 181.5zM100 357q-4 -127 93 -223.5t223 -92.5q127 -2 222.5 93t93.5 223q2 127 -93 222.5t-223 93.5q-127 2 -222.5 -93t-93.5 -223z" />
    <glyph glyph-name="ordfeminine" unicode="&#xaa;" horiz-adv-x="354" 
d="M305 391h-45l-12 41q-45 -47 -113 -47q-101 0 -101 98q0 50 37.5 75.5t118.5 28.5l57 2v19q0 65 -72 65q-50 0 -100 -25l-21 47q56 27 121 27t97.5 -26t32.5 -84v-221zM94 483q0 -49 55 -49q98 0 98 88v24l-48 -2q-55 -2 -80 -16.5t-25 -44.5z" />
    <glyph glyph-name="guillemotleft" unicode="&#xab;" horiz-adv-x="497" 
d="M40 256v13l167 199l58 -34l-141 -171l141 -171l-58 -35zM233 256v13l168 199l57 -34l-140 -171l140 -171l-57 -35z" />
    <glyph glyph-name="logicalnot" unicode="&#xac;" horiz-adv-x="572" 
d="M51 386h469v-257h-67v190h-402v67z" />
    <glyph glyph-name="uni00AD" unicode="&#xad;" horiz-adv-x="322" 
d="M281 231h-240v74h240v-74z" />
    <glyph glyph-name="registered" unicode="&#xae;" horiz-adv-x="832" 
d="M353 512v-140h53q38 0 62 20.5t24 51.5q0 36 -21 52t-66 16h-52zM565 446q0 -39 -21 -69t-58 -45l116 -193h-82l-101 173h-66v-173h-72v435h127q81 0 119 -31.5t38 -96.5zM49 357q-2 72 27.5 140t79.5 118.5t118.5 80.5t141.5 28q147 4 259 -108t108 -259
q2 -94 -46.5 -179.5t-135 -137.5t-185.5 -50q-101 0 -187 50q-84 51 -132 135.5t-48 181.5zM100 357q-4 -127 93 -223.5t223 -92.5q127 -2 222.5 93t93.5 223q2 127 -93 222.5t-223 93.5q-127 2 -222.5 -93t-93.5 -223z" />
    <glyph glyph-name="overscore" unicode="&#xaf;" horiz-adv-x="500" 
d="M503 822v-62h-506v62h506z" />
    <glyph glyph-name="degree" unicode="&#xb0;" horiz-adv-x="428" 
d="M62 572q0 63 44 107q44 45 108 45q63 0 107 -44q45 -44 45 -108q0 -62 -44.5 -107t-107.5 -45q-64 0 -108 44t-44 108zM118 572q0 -40 28.5 -68t68.5 -28q39 0 67 27.5t28 68.5t-27.5 68.5t-67.5 27.5q-41 0 -69 -28t-28 -68z" />
    <glyph glyph-name="plusminus" unicode="&#xb1;" horiz-adv-x="572" 
d="M319 595v-209h201v-67h-201v-208h-68v208h-200v67h200v209h68zM520 1h-469v67h469v-67z" />
    <glyph glyph-name="twosuperior" unicode="&#xb2;" horiz-adv-x="347" 
d="M319 344v-58h-295v51l115 112q66 65 82 89t18 64q0 32 -19 49.5t-51 17.5q-47 0 -107 -43l-32 43q64 54 138 54q64 0 100 -31.5t36 -86.5q0 -39 -22 -76q-20 -35 -93 -104l-85 -81h215z" />
    <glyph glyph-name="threesuperior" unicode="&#xb3;" horiz-adv-x="347" 
d="M306 613q0 -76 -73 -101q86 -23 86 -102q0 -62 -45 -97t-127 -35q-74 0 -131 27v60q72 -33 132 -33q103 0 103 79q0 71 -113 71h-57v52h58q99 0 99 72q0 30 -19.5 46.5t-52.5 16.5q-55 0 -114 -38l-34 44q68 48 145 48q66 0 104.5 -29t38.5 -81z" />
    <glyph glyph-name="acute" unicode="&#xb4;" horiz-adv-x="577" 
d="M192 606v12q27 36 50 73q27 41 43 75h99v-10q-29 -40 -65 -79q-40 -44 -73 -71h-54z" />
    <glyph glyph-name="mu" unicode="&#xb5;" horiz-adv-x="619" 
d="M167 535v-349q0 -128 124 -128q84 0 122.5 46t38.5 150v281h81v-535h-66l-13 72h-5q-54 -82 -166 -82q-73 0 -116 45h-5q5 -45 5 -119v-156h-81v775h81z" />
    <glyph glyph-name="paragraph" unicode="&#xb6;" horiz-adv-x="655" 
d="M547 760v-887h-56v836h-104v-836h-56v400q-30 -9 -71 -9q-105 0 -155 60.5t-50 184.5q0 127 53.5 189t166.5 62h272z" />
    <glyph glyph-name="periodcentered" unicode="&#xb7;" horiz-adv-x="266" 
d="M74 353q0 66 58 66q28 0 44 -17t16 -49t-16 -49t-44 -17q-58 0 -58 66z" />
    <glyph glyph-name="cedilla" unicode="&#xb8;" horiz-adv-x="227" 
d="M213 -141q0 -48 -38 -73.5t-110 -25.5q-27 0 -47 4v52q20 -4 51 -4q40 0 59 10.5t19 35.5q0 22 -20 34.5t-72 20.5l43 87h54l-27 -56q88 -19 88 -85z" />
    <glyph glyph-name="onesuperior" unicode="&#xb9;" horiz-adv-x="347" 
d="M37 625l128 89h70v-428h-65v283q0 45 3 88q-15 -15 -24 -22q-18 -14 -79 -57z" />
    <glyph glyph-name="ordmasculine" unicode="&#xba;" horiz-adv-x="375" 
d="M343 554q0 -80 -42 -124.5t-115 -44.5q-71 0 -112.5 45.5t-41.5 123.5q0 80 41 124t115 44t114.5 -44.5t40.5 -123.5zM92 554q0 -60 22.5 -89.5t72.5 -29.5t73 29.5t23 89.5q0 61 -23 89.5t-73 28.5t-72.5 -28.5t-22.5 -89.5z" />
    <glyph glyph-name="guillemotright" unicode="&#xbb;" horiz-adv-x="497" 
d="M457 269v-13l-168 -199l-57 35l140 171l-140 171l57 34zM264 269v-13l-168 -199l-57 35l140 171l-140 171l57 34z" />
    <glyph glyph-name="onequarter" unicode="&#xbc;" horiz-adv-x="780" 
d="M564 714h70l-441 -714h-70zM37 625l128 89h70v-428h-65v283q0 45 3 88q-15 -15 -24 -22q-18 -14 -79 -57zM727 156v-57h-61v-99h-71v99h-196v49l199 283h68v-275h61zM467 156h128v95q0 66 3 102q-7 -21 -49 -77z" />
    <glyph glyph-name="onehalf" unicode="&#xbd;" horiz-adv-x="780" 
d="M531 714h70l-441 -714h-70zM22 625l128 89h70v-428h-65v283q0 45 3 88q-15 -15 -24 -22q-18 -14 -79 -57zM732 58v-58h-295v51l115 112q66 65 82 89t18 64q0 32 -19 49.5t-51 17.5q-47 0 -107 -43l-32 43q65 54 138 54q64 0 100 -31.5t36 -86.5q0 -39 -22 -76
q-20 -35 -93 -104l-85 -81h215z" />
    <glyph glyph-name="threequarters" unicode="&#xbe;" horiz-adv-x="780" 
d="M303 613q0 -76 -73 -101q86 -23 86 -102q0 -62 -45 -97t-127 -35q-74 0 -131 27v60q72 -33 132 -33q103 0 103 79q0 71 -113 71h-57v52h58q99 0 99 72q0 30 -19.5 46.5t-52.5 16.5q-55 0 -114 -38l-34 44q68 48 145 48q66 0 104.5 -29t38.5 -81zM609 714h70l-441 -714
h-70zM766 156v-57h-61v-99h-71v99h-196v49l199 283h68v-275h61zM506 156h128v95q0 66 3 102q-7 -21 -49 -77z" />
    <glyph glyph-name="questiondown" unicode="&#xbf;" horiz-adv-x="429" 
d="M224 334h64v-25q0 -59 -19 -96q-18 -36 -65 -77q-62 -56 -74 -70q-27 -32 -27 -83q0 -49 32 -76.5t92 -27.5q76 0 160 42l29 -66q-97 -47 -193 -47q-93 0 -145.5 45.5t-52.5 128.5q0 33 7 58t27.5 50.5t33.5 38.5t50 45q49 43 65 71t16 74v15zM312 480q0 -66 -59 -66
t-59 66q0 31 16 48.5t43 17.5t43 -16t16 -50z" />
    <glyph glyph-name="Agrave" unicode="&#xc0;" horiz-adv-x="633" 
d="M633 0h-86l-89 227h-286l-88 -227h-84l282 717h70zM201 302h231l-83 221q-17 43 -33 103q-9 -41 -31 -103zM354 783v-12h-54q-36 29 -76 72q-41 43 -62 78v10h99q18 -38 43 -78q34 -52 50 -70z" />
    <glyph glyph-name="Aacute" unicode="&#xc1;" horiz-adv-x="633" 
d="M633 0h-86l-89 227h-286l-88 -227h-84l282 717h70zM201 302h231l-83 221q-17 43 -33 103q-9 -41 -31 -103zM257 771v12q27 36 50 73q27 41 43 75h99v-10q-29 -40 -65 -79q-40 -44 -73 -71h-54z" />
    <glyph glyph-name="Acircumflex" unicode="&#xc2;" horiz-adv-x="633" 
d="M633 0h-86l-89 227h-286l-88 -227h-84l282 717h70zM201 302h231l-83 221q-17 43 -33 103q-9 -41 -31 -103zM148 771v11q69 75 87 98q25 32 36 51h81q9 -17 37 -53q31 -37 88 -96v-11h-58q-45 28 -108 91q-64 -64 -107 -91h-56z" />
    <glyph glyph-name="Atilde" unicode="&#xc3;" horiz-adv-x="633" 
d="M633 0h-86l-89 227h-286l-88 -227h-84l282 717h70zM201 302h231l-83 221q-17 43 -33 103q-9 -41 -31 -103zM387 772q-29 0 -80 29t-72 29q-24 0 -36.5 -14t-19.5 -45h-48q6 59 34 92.5t73 33.5q32 0 83.5 -29t69.5 -29q23 0 35.5 14t19.5 45h48q-6 -60 -34 -93t-73 -33z
" />
    <glyph glyph-name="Adieresis" unicode="&#xc4;" horiz-adv-x="633" 
d="M633 0h-86l-89 227h-286l-88 -227h-84l282 717h70zM201 302h231l-83 221q-17 43 -33 103q-9 -41 -31 -103zM178 845q0 48 44 48q45 0 45 -48q0 -23 -13 -35.5t-32 -12.5t-31.5 12.5t-12.5 35.5zM364 845q0 48 44 48q45 0 45 -48q0 -23 -13 -35.5t-32 -12.5t-31.5 12.5
t-12.5 35.5z" />
    <glyph glyph-name="Aring" unicode="&#xc5;" horiz-adv-x="633" 
d="M633 0h-86l-89 227h-286l-88 -227h-84l282 717h70zM201 302h231l-83 221q-17 43 -33 103q-9 -41 -31 -103zM425 775q0 -48 -30 -77t-80 -29q-49 0 -78.5 28.5t-29.5 76.5t29.5 76t78.5 28t79.5 -29t30.5 -74zM372 774q0 26 -16 41.5t-41 15.5t-41 -15.5t-16 -41.5
q0 -57 57 -57q25 0 41 15.5t16 41.5z" />
    <glyph glyph-name="AE" unicode="&#xc6;" horiz-adv-x="873" 
d="M813 74v-74h-366v227h-251l-111 -227h-86l341 714h473v-74h-283v-230h264v-73h-264v-263h283zM389 640l-160 -338h218v338h-58z" />
    <glyph glyph-name="Ccedilla" unicode="&#xc7;" horiz-adv-x="631" 
d="M404 650q-118 0 -186 -78.5t-68 -214.5q0 -141 65.5 -217t187.5 -76q75 0 170 27v-73q-72 -28 -183 -28q-158 0 -243.5 96t-85.5 272q0 167 92.5 266.5t251.5 99.5q111 0 196 -41l-35 -71q-82 38 -162 38zM464 -141q0 -48 -38 -73.5t-110 -25.5q-27 0 -47 4v52
q20 -4 51 -4q40 0 59 10.5t19 35.5q0 22 -20 34.5t-72 20.5l43 87h54l-27 -56q88 -19 88 -85z" />
    <glyph glyph-name="Egrave" unicode="&#xc8;" 
d="M496 74v-74h-398v714h398v-74h-315v-230h296v-73h-296v-263h315zM348 783v-12h-54q-36 29 -76 72q-41 43 -62 78v10h99q18 -38 43 -78q34 -52 50 -70z" />
    <glyph glyph-name="Eacute" unicode="&#xc9;" 
d="M496 74v-74h-398v714h398v-74h-315v-230h296v-73h-296v-263h315zM223 771v12q27 36 50 73q27 41 43 75h99v-10q-29 -40 -65 -79q-40 -44 -73 -71h-54z" />
    <glyph glyph-name="Ecircumflex" unicode="&#xca;" 
d="M496 74v-74h-398v714h398v-74h-315v-230h296v-73h-296v-263h315zM129 771v11q69 75 87 98q26 32 36 51h81q9 -17 37 -53q31 -37 88 -96v-11h-58q-45 28 -108 91q-64 -64 -107 -91h-56z" />
    <glyph glyph-name="Edieresis" unicode="&#xcb;" 
d="M496 74v-74h-398v714h398v-74h-315v-230h296v-73h-296v-263h315zM160 845q0 48 44 48q45 0 45 -48q0 -23 -13 -35.5t-32 -12.5t-31.5 12.5t-12.5 35.5zM346 845q0 48 44 48q45 0 45 -48q0 -23 -13 -35.5t-32 -12.5t-31.5 12.5t-12.5 35.5z" />
    <glyph glyph-name="Igrave" unicode="&#xcc;" horiz-adv-x="279" 
d="M181 0h-83v714h83v-714zM195 783v-12h-54q-36 29 -76 72q-41 43 -62 78v10h99q18 -38 43 -78q34 -52 50 -70z" />
    <glyph glyph-name="Iacute" unicode="&#xcd;" horiz-adv-x="279" 
d="M181 0h-83v714h83v-714zM88 771v12q27 36 50 73q27 41 43 75h99v-10q-29 -40 -65 -79q-40 -44 -73 -71h-54z" />
    <glyph glyph-name="Icircumflex" unicode="&#xce;" horiz-adv-x="279" 
d="M181 0h-83v714h83v-714zM-28 771v11q69 75 87 98q25 32 36 51h81q9 -17 37 -53q31 -37 88 -96v-11h-58q-45 28 -108 91q-64 -64 -107 -91h-56z" />
    <glyph glyph-name="Idieresis" unicode="&#xcf;" horiz-adv-x="279" 
d="M181 0h-83v714h83v-714zM3 845q0 48 44 48q45 0 45 -48q0 -23 -13 -35.5t-32 -12.5t-31.5 12.5t-12.5 35.5zM189 845q0 48 44 48q45 0 45 -48q0 -23 -13 -35.5t-32 -12.5t-31.5 12.5t-12.5 35.5z" />
    <glyph glyph-name="Eth" unicode="&#xd0;" horiz-adv-x="722" 
d="M660 364q0 -177 -96 -270.5t-276 -93.5h-190v317h-75v73h75v324h212q166 0 258 -91.5t92 -258.5zM572 361q0 281 -278 281h-113v-252h185v-73h-185v-245h93q298 0 298 289z" />
    <glyph glyph-name="Ntilde" unicode="&#xd1;" horiz-adv-x="754" 
d="M656 714v-714h-95l-390 599h-4q8 -112 8 -193v-406h-77v714h94l389 -597h4l-5 84q-3 77 -2 103v410h78zM457 772q-29 0 -80 29t-72 29q-24 0 -36.5 -14t-19.5 -45h-48q6 59 34 92.5t73 33.5q32 0 83.5 -29t69.5 -29q23 0 35.5 14t19.5 45h48q-6 -60 -34 -93t-73 -33z" />
    <glyph glyph-name="Ograve" unicode="&#xd2;" horiz-adv-x="779" 
d="M718 358q0 -171 -87 -270q-87 -98 -241 -98q-158 0 -243.5 96t-85.5 273q0 174 86 270t244 96q154 0 240 -98q87 -98 87 -269zM149 358q0 -145 61.5 -220t179.5 -75q240 0 240 295q0 144 -60.5 218.5t-178.5 74.5q-119 0 -180.5 -74.5t-61.5 -218.5zM443 783v-12h-54
q-36 29 -76 72q-41 43 -62 78v10h99q18 -38 43 -78q34 -52 50 -70z" />
    <glyph glyph-name="Oacute" unicode="&#xd3;" horiz-adv-x="779" 
d="M718 358q0 -171 -87 -270q-87 -98 -241 -98q-158 0 -243.5 96t-85.5 273q0 174 86 270t244 96q154 0 240 -98q87 -98 87 -269zM149 358q0 -145 61.5 -220t179.5 -75q240 0 240 295q0 144 -60.5 218.5t-178.5 74.5q-119 0 -180.5 -74.5t-61.5 -218.5zM322 771v12
q27 36 50 73q27 41 43 75h99v-10q-29 -40 -65 -79q-40 -44 -73 -71h-54z" />
    <glyph glyph-name="Ocircumflex" unicode="&#xd4;" horiz-adv-x="779" 
d="M718 358q0 -171 -87 -270q-87 -98 -241 -98q-158 0 -243.5 96t-85.5 273q0 174 86 270t244 96q154 0 240 -98q87 -98 87 -269zM149 358q0 -145 61.5 -220t179.5 -75q240 0 240 295q0 144 -60.5 218.5t-178.5 74.5q-119 0 -180.5 -74.5t-61.5 -218.5zM219 771v11
q69 75 87 98q26 32 36 51h81q9 -17 37 -53q31 -37 88 -96v-11h-58q-45 28 -108 91q-64 -64 -107 -91h-56z" />
    <glyph glyph-name="Otilde" unicode="&#xd5;" horiz-adv-x="779" 
d="M718 358q0 -171 -87 -270q-87 -98 -241 -98q-158 0 -243.5 96t-85.5 273q0 174 86 270t244 96q154 0 240 -98q87 -98 87 -269zM149 358q0 -145 61.5 -220t179.5 -75q240 0 240 295q0 144 -60.5 218.5t-178.5 74.5q-119 0 -180.5 -74.5t-61.5 -218.5zM460 772
q-30 0 -81 29t-71 29q-24 0 -36.5 -14t-19.5 -45h-48q6 59 34 92.5t73 33.5q32 0 83.5 -29t69.5 -29q23 0 35.5 14t19.5 45h48q-6 -60 -34 -93t-73 -33z" />
    <glyph glyph-name="Odieresis" unicode="&#xd6;" horiz-adv-x="779" 
d="M718 358q0 -171 -87 -270q-87 -98 -241 -98q-158 0 -243.5 96t-85.5 273q0 174 86 270t244 96q154 0 240 -98q87 -98 87 -269zM149 358q0 -145 61.5 -220t179.5 -75q240 0 240 295q0 144 -60.5 218.5t-178.5 74.5q-119 0 -180.5 -74.5t-61.5 -218.5zM255 845q0 48 44 48
q45 0 45 -48q0 -23 -13 -35.5t-32 -12.5t-31.5 12.5t-12.5 35.5zM441 845q0 48 44 48q45 0 45 -48q0 -23 -13 -35.5t-32 -12.5t-31.5 12.5t-12.5 35.5z" />
    <glyph glyph-name="multiply" unicode="&#xd7;" horiz-adv-x="572" 
d="M286 401l173 173l47 -48l-172 -173l171 -172l-47 -48l-173 171l-170 -171l-49 48l171 172l-172 172l49 49z" />
    <glyph glyph-name="Oslash" unicode="&#xd8;" horiz-adv-x="779" 
d="M718 358q0 -171 -87 -270q-87 -98 -241 -98q-116 0 -187 49l-49 -69l-59 39l53 75q-87 97 -87 275q0 174 86 270t244 96q103 0 179 -46l47 66l59 -39l-52 -72q94 -98 94 -276zM630 358q0 133 -54 208l-328 -463q55 -40 142 -40q240 0 240 295zM149 358q0 -129 49 -203
l327 460q-53 36 -134 36q-119 0 -180.5 -74.5t-61.5 -218.5z" />
    <glyph glyph-name="Ugrave" unicode="&#xd9;" horiz-adv-x="728" 
d="M554 714h83v-462q0 -122 -73.5 -192t-202.5 -70q-128 0 -199 70t-71 194v460h83v-466q0 -90 48.5 -137.5t143.5 -47.5q91 0 139.5 48t48.5 138v465zM418 783v-12h-54q-36 29 -76 72q-41 43 -62 78v10h99q18 -38 43 -78q34 -52 50 -70z" />
    <glyph glyph-name="Uacute" unicode="&#xda;" horiz-adv-x="728" 
d="M554 714h83v-462q0 -122 -73.5 -192t-202.5 -70q-128 0 -199 70t-71 194v460h83v-466q0 -90 48.5 -137.5t143.5 -47.5q91 0 139.5 48t48.5 138v465zM293 771v12q27 36 50 73q27 41 43 75h99v-10q-29 -40 -65 -79q-40 -44 -73 -71h-54z" />
    <glyph glyph-name="Ucircumflex" unicode="&#xdb;" horiz-adv-x="728" 
d="M554 714h83v-462q0 -122 -73.5 -192t-202.5 -70q-128 0 -199 70t-71 194v460h83v-466q0 -90 48.5 -137.5t143.5 -47.5q91 0 139.5 48t48.5 138v465zM192 771v11q69 75 87 98q25 32 36 51h81q9 -17 37 -53q31 -37 88 -96v-11h-58q-45 28 -108 91q-64 -64 -107 -91h-56z
" />
    <glyph glyph-name="Udieresis" unicode="&#xdc;" horiz-adv-x="728" 
d="M554 714h83v-462q0 -122 -73.5 -192t-202.5 -70q-128 0 -199 70t-71 194v460h83v-466q0 -90 48.5 -137.5t143.5 -47.5q91 0 139.5 48t48.5 138v465zM225 845q0 48 44 48q45 0 45 -48q0 -23 -13 -35.5t-32 -12.5t-31.5 12.5t-12.5 35.5zM411 845q0 48 44 48q45 0 45 -48
q0 -23 -13 -35.5t-32 -12.5t-31.5 12.5t-12.5 35.5z" />
    <glyph glyph-name="Yacute" unicode="&#xdd;" horiz-adv-x="560" 
d="M91 714l189 -357l190 357h90l-238 -437v-277h-84v273l-238 441h91zM216 771v12q27 36 50 73q27 41 43 75h99v-10q-29 -40 -65 -79q-40 -44 -73 -71h-54z" />
    <glyph glyph-name="Thorn" unicode="&#xde;" horiz-adv-x="611" 
d="M559 383q0 -111 -74 -169t-214 -58h-90v-156h-83v714h83v-125h105q138 0 205.5 -50.5t67.5 -155.5zM181 517v-290h82q111 0 160 35t49 115q0 73 -46 106.5t-145 33.5h-100z" />
    <glyph glyph-name="germandbls" unicode="&#xdf;" horiz-adv-x="622" 
d="M512 618q0 -67 -70 -122q-42 -33 -56 -50t-14 -33q0 -22 14.5 -37t71.5 -52q67 -45 92.5 -83.5t25.5 -88.5q0 -78 -47.5 -120t-134.5 -42q-92 0 -144 34v75q69 -42 142 -42q105 0 105 89q0 37 -20 63t-74 60q-63 42 -86 70q-23 31 -23 71q0 56 68 109q37 27 52.5 49
t15.5 48q0 39 -33 60t-95 21q-135 0 -135 -109v-588h-81v587q0 178 216 178q100 0 155 -38.5t55 -108.5z" />
    <glyph glyph-name="agrave" unicode="&#xe0;" 
d="M475 0h-60l-16 76h-4q-39 -49 -78.5 -67.5t-100.5 -18.5q-81 0 -125.5 41.5t-44.5 116.5q0 163 259 170l91 3v33q0 63 -27 93t-87 30q-66 0 -151 -41l-25 62q84 46 181 46t142.5 -43t45.5 -136v-365zM232 57q76 0 119 41.5t43 116.5v48l-81 -3q-97 -4 -139.5 -30.5
t-42.5 -82.5q0 -44 26.5 -67t74.5 -23zM328 618v-12h-54q-36 29 -76 72q-41 43 -62 78v10h99q18 -38 43 -78q34 -52 50 -70z" />
    <glyph glyph-name="aacute" unicode="&#xe1;" 
d="M475 0h-60l-16 76h-4q-39 -49 -78.5 -67.5t-100.5 -18.5q-81 0 -125.5 41.5t-44.5 116.5q0 163 259 170l91 3v33q0 63 -27 93t-87 30q-66 0 -151 -41l-25 62q84 46 181 46t142.5 -43t45.5 -136v-365zM232 57q76 0 119 41.5t43 116.5v48l-81 -3q-97 -4 -139.5 -30.5
t-42.5 -82.5q0 -44 26.5 -67t74.5 -23zM213 606v12q27 36 50 73q27 41 43 75h99v-10q-29 -40 -65 -79q-40 -44 -73 -71h-54z" />
    <glyph glyph-name="acircumflex" unicode="&#xe2;" 
d="M475 0h-60l-16 76h-4q-39 -49 -78.5 -67.5t-100.5 -18.5q-81 0 -125.5 41.5t-44.5 116.5q0 163 259 170l91 3v33q0 63 -27 93t-87 30q-66 0 -151 -41l-25 62q84 46 181 46t142.5 -43t45.5 -136v-365zM232 57q76 0 119 41.5t43 116.5v48l-81 -3q-97 -4 -139.5 -30.5
t-42.5 -82.5q0 -44 26.5 -67t74.5 -23zM111 606v11q69 75 87 98q26 31 36 51h81q9 -17 37 -53q31 -37 88 -96v-11h-58q-45 28 -108 91q-64 -64 -107 -91h-56z" />
    <glyph glyph-name="atilde" unicode="&#xe3;" 
d="M475 0h-60l-16 76h-4q-39 -49 -78.5 -67.5t-100.5 -18.5q-81 0 -125.5 41.5t-44.5 116.5q0 163 259 170l91 3v33q0 63 -27 93t-87 30q-66 0 -151 -41l-25 62q84 46 181 46t142.5 -43t45.5 -136v-365zM232 57q76 0 119 41.5t43 116.5v48l-81 -3q-97 -4 -139.5 -30.5
t-42.5 -82.5q0 -44 26.5 -67t74.5 -23zM352 607q-30 0 -81 29t-71 29q-24 0 -36.5 -14t-19.5 -45h-48q6 59 34 92.5t73 33.5q32 0 83.5 -29t69.5 -29q23 0 35.5 14t19.5 45h48q-6 -60 -34 -93t-73 -33z" />
    <glyph glyph-name="adieresis" unicode="&#xe4;" 
d="M475 0h-60l-16 76h-4q-39 -49 -78.5 -67.5t-100.5 -18.5q-81 0 -125.5 41.5t-44.5 116.5q0 163 259 170l91 3v33q0 63 -27 93t-87 30q-66 0 -151 -41l-25 62q84 46 181 46t142.5 -43t45.5 -136v-365zM232 57q76 0 119 41.5t43 116.5v48l-81 -3q-97 -4 -139.5 -30.5
t-42.5 -82.5q0 -44 26.5 -67t74.5 -23zM136 680q0 48 44 48q45 0 45 -48q0 -23 -13 -35.5t-32 -12.5t-31.5 12.5t-12.5 35.5zM322 680q0 48 44 48q45 0 45 -48q0 -23 -13 -35.5t-32 -12.5t-31.5 12.5t-12.5 35.5z" />
    <glyph glyph-name="aring" unicode="&#xe5;" 
d="M475 0h-60l-16 76h-4q-39 -49 -78.5 -67.5t-100.5 -18.5q-81 0 -125.5 41.5t-44.5 116.5q0 163 259 170l91 3v33q0 63 -27 93t-87 30q-66 0 -151 -41l-25 62q84 46 181 46t142.5 -43t45.5 -136v-365zM232 57q76 0 119 41.5t43 116.5v48l-81 -3q-97 -4 -139.5 -30.5
t-42.5 -82.5q0 -44 26.5 -67t74.5 -23zM393 712q0 -48 -30 -77t-80 -29q-49 0 -78.5 28.5t-29.5 76.5t29.5 76t78.5 28t79.5 -29t30.5 -74zM340 711q0 26 -16 41.5t-41 15.5t-41 -15.5t-16 -41.5q0 -57 57 -57q25 0 41 15.5t16 41.5z" />
    <glyph glyph-name="ae" unicode="&#xe6;" horiz-adv-x="858" 
d="M46 148q0 163 245 170l90 3v33q0 123 -115 123q-70 0 -150 -41l-25 62q82 46 181 46q125 0 164 -89q55 90 163 90q94 0 150 -65q57 -64 57 -174v-52h-342q4 -193 157 -193q83 0 162 36v-72q-78 -35 -164 -35q-141 0 -202 114q-39 -61 -87 -87.5t-114 -26.5
q-80 0 -125 41.5t-45 116.5zM131 147q0 -45 25.5 -67.5t69.5 -22.5q72 0 112.5 41.5t40.5 116.5v48l-77 -3q-91 -4 -131 -30.5t-40 -82.5zM598 477q-121 0 -132 -158h253q0 76 -31 117t-90 41z" />
    <glyph glyph-name="ccedilla" unicode="&#xe7;" horiz-adv-x="476" 
d="M300 -10q-116 0 -180 71.5t-64 202.5q0 134 65 207.5t184 73.5q84 0 138 -28l-25 -69q-60 25 -115 25q-163 0 -163 -208q0 -99 40 -151.5t118 -52.5q65 0 137 29v-72q-53 -28 -135 -28zM372 -141q0 -48 -38 -73.5t-110 -25.5q-27 0 -47 4v52q20 -4 51 -4q40 0 59 10.5
t19 35.5q0 22 -20 34.5t-72 20.5l43 87h54l-27 -56q88 -19 88 -85z" />
    <glyph glyph-name="egrave" unicode="&#xe8;" horiz-adv-x="561" 
d="M312 -10q-119 0 -187.5 72.5t-68.5 200.5q0 130 64 206t171 76q101 0 159 -66q59 -67 59 -175v-51h-369q3 -94 48 -143t127 -49q85 0 171 36v-72q-80 -35 -174 -35zM290 477q-64 0 -102.5 -41.5t-45.5 -116.5h280q0 77 -34 117.5t-98 40.5zM347 618v-12h-54
q-36 29 -76 72q-41 43 -62 78v10h99q18 -38 43 -78q34 -52 50 -70z" />
    <glyph glyph-name="eacute" unicode="&#xe9;" horiz-adv-x="561" 
d="M312 -10q-119 0 -187.5 72.5t-68.5 200.5q0 130 64 206t171 76q101 0 159 -66q59 -67 59 -175v-51h-369q3 -94 48 -143t127 -49q85 0 171 36v-72q-80 -35 -174 -35zM290 477q-64 0 -102.5 -41.5t-45.5 -116.5h280q0 77 -34 117.5t-98 40.5zM230 606v12q27 36 50 73
q27 41 43 75h99v-10q-29 -40 -65 -79q-40 -44 -73 -71h-54z" />
    <glyph glyph-name="ecircumflex" unicode="&#xea;" horiz-adv-x="561" 
d="M312 -10q-119 0 -187.5 72.5t-68.5 200.5q0 130 64 206t171 76q101 0 159 -66q59 -67 59 -175v-51h-369q3 -94 48 -143t127 -49q85 0 171 36v-72q-80 -35 -174 -35zM290 477q-64 0 -102.5 -41.5t-45.5 -116.5h280q0 77 -34 117.5t-98 40.5zM127 606v11q69 75 87 98
q26 31 36 51h81q9 -17 37 -53q31 -37 88 -96v-11h-58q-45 28 -108 91q-64 -64 -107 -91h-56z" />
    <glyph glyph-name="edieresis" unicode="&#xeb;" horiz-adv-x="561" 
d="M312 -10q-119 0 -187.5 72.5t-68.5 200.5q0 130 64 206t171 76q101 0 159 -66q59 -67 59 -175v-51h-369q3 -94 48 -143t127 -49q85 0 171 36v-72q-80 -35 -174 -35zM290 477q-64 0 -102.5 -41.5t-45.5 -116.5h280q0 77 -34 117.5t-98 40.5zM156 680q0 48 44 48
q45 0 45 -48q0 -23 -13 -35.5t-32 -12.5t-31.5 12.5t-12.5 35.5zM342 680q0 48 44 48q45 0 45 -48q0 -23 -13 -35.5t-32 -12.5t-31.5 12.5t-12.5 35.5z" />
    <glyph glyph-name="igrave" unicode="&#xec;" horiz-adv-x="253" 
d="M167 535v-535h-81v535h81zM174 618v-12h-54q-36 29 -76 72q-41 43 -62 78v10h99q18 -38 43 -78q34 -52 50 -70z" />
    <glyph glyph-name="iacute" unicode="&#xed;" horiz-adv-x="253" 
d="M167 535v-535h-81v535h81zM83 606v12q27 36 50 73q27 41 43 75h99v-10q-29 -40 -65 -79q-40 -44 -73 -71h-54z" />
    <glyph glyph-name="icircumflex" unicode="&#xee;" horiz-adv-x="253" 
d="M167 535v-535h-81v535h81zM-37 606v11q69 75 87 98q26 31 36 51h81q9 -17 37 -53q31 -37 88 -96v-11h-58q-45 28 -108 91q-64 -64 -107 -91h-56z" />
    <glyph glyph-name="idieresis" unicode="&#xef;" horiz-adv-x="253" 
d="M167 535v-535h-81v535h81zM-10 680q0 48 44 48q45 0 45 -48q0 -23 -13 -35.5t-32 -12.5t-31.5 12.5t-12.5 35.5zM176 680q0 48 44 48q45 0 45 -48q0 -23 -13 -35.5t-32 -12.5t-31.5 12.5t-12.5 35.5z" />
    <glyph glyph-name="eth" unicode="&#xf0;" horiz-adv-x="596" 
d="M548 275q0 -137 -64 -211t-184 -74q-110 0 -177 66q-68 66 -68 176q0 112 64 176t172 64q109 0 159 -59l4 2q-29 106 -128 198l-132 -76l-36 53l114 65q-47 31 -91 54l34 57q77 -36 126 -72l116 67l37 -52l-101 -58q74 -70 114.5 -167.5t40.5 -208.5zM466 250
q0 72 -44 113.5t-120 41.5q-165 0 -165 -176q0 -82 43 -126.5t122 -44.5q164 0 164 192z" />
    <glyph glyph-name="ntilde" unicode="&#xf1;" horiz-adv-x="614" 
d="M533 0h-81v346q0 66 -30 98t-93 32q-85 0 -123.5 -46t-38.5 -149v-281h-81v535h66l13 -73h4q25 39 70 61t100 22q98 0 146 -47t48 -149v-349zM392 607q-30 0 -81 29t-71 29q-24 0 -36.5 -14t-19.5 -45h-48q6 59 34 92.5t73 33.5q32 0 83.5 -29t69.5 -29q23 0 35.5 14
t19.5 45h48q-6 -60 -34 -93t-73 -33z" />
    <glyph glyph-name="ograve" unicode="&#xf2;" horiz-adv-x="604" 
d="M548 268q0 -131 -66 -204.5t-182 -73.5q-109 0 -176.5 76t-67.5 202q0 131 65.5 204t181.5 73q113 0 179 -75q66 -74 66 -202zM140 268q0 -103 41 -156.5t121 -53.5q79 0 120.5 53.5t41.5 156.5q0 102 -41.5 155t-121.5 53q-161 0 -161 -208zM363 618v-12h-54
q-36 29 -76 72q-41 43 -62 78v10h99q18 -38 43 -78q34 -52 50 -70z" />
    <glyph glyph-name="oacute" unicode="&#xf3;" horiz-adv-x="604" 
d="M548 268q0 -131 -66 -204.5t-182 -73.5q-109 0 -176.5 76t-67.5 202q0 131 65.5 204t181.5 73q113 0 179 -75q66 -74 66 -202zM140 268q0 -103 41 -156.5t121 -53.5q79 0 120.5 53.5t41.5 156.5q0 102 -41.5 155t-121.5 53q-161 0 -161 -208zM234 606v12q27 36 50 73
q27 41 43 75h99v-10q-29 -40 -65 -79q-40 -44 -73 -71h-54z" />
    <glyph glyph-name="ocircumflex" unicode="&#xf4;" horiz-adv-x="604" 
d="M548 268q0 -131 -66 -204.5t-182 -73.5q-109 0 -176.5 76t-67.5 202q0 131 65.5 204t181.5 73q113 0 179 -75q66 -74 66 -202zM140 268q0 -103 41 -156.5t121 -53.5q79 0 120.5 53.5t41.5 156.5q0 102 -41.5 155t-121.5 53q-161 0 -161 -208zM138 606v11q69 75 87 98
q25 31 36 51h81q9 -17 37 -53q31 -37 88 -96v-11h-58q-45 28 -108 91q-64 -64 -107 -91h-56z" />
    <glyph glyph-name="otilde" unicode="&#xf5;" horiz-adv-x="604" 
d="M548 268q0 -131 -66 -204.5t-182 -73.5q-109 0 -176.5 76t-67.5 202q0 131 65.5 204t181.5 73q113 0 179 -75q66 -74 66 -202zM140 268q0 -103 41 -156.5t121 -53.5q79 0 120.5 53.5t41.5 156.5q0 102 -41.5 155t-121.5 53q-161 0 -161 -208zM378 607q-30 0 -81 29
t-71 29q-24 0 -36.5 -14t-19.5 -45h-48q6 59 34 92.5t73 33.5q32 0 83.5 -29t69.5 -29q23 0 35.5 14t19.5 45h48q-6 -60 -34 -93t-73 -33z" />
    <glyph glyph-name="odieresis" unicode="&#xf6;" horiz-adv-x="604" 
d="M548 268q0 -131 -66 -204.5t-182 -73.5q-109 0 -176.5 76t-67.5 202q0 131 65.5 204t181.5 73q113 0 179 -75q66 -74 66 -202zM140 268q0 -103 41 -156.5t121 -53.5q79 0 120.5 53.5t41.5 156.5q0 102 -41.5 155t-121.5 53q-161 0 -161 -208zM164 680q0 48 44 48
q45 0 45 -48q0 -23 -13 -35.5t-32 -12.5t-31.5 12.5t-12.5 35.5zM350 680q0 48 44 48q45 0 45 -48q0 -23 -13 -35.5t-32 -12.5t-31.5 12.5t-12.5 35.5z" />
    <glyph glyph-name="divide" unicode="&#xf7;" horiz-adv-x="572" 
d="M520 319h-469v67h469v-67zM230 182q0 59 55 59q54 0 54 -59q0 -28 -14.5 -43.5t-39.5 -15.5t-40 16t-15 43zM230 523q0 59 55 59q54 0 54 -59q0 -28 -14.5 -43.5t-39.5 -15.5t-40 16t-15 43z" />
    <glyph glyph-name="oslash" unicode="&#xf8;" horiz-adv-x="604" 
d="M548 268q0 -131 -66 -204.5t-182 -73.5q-75 0 -130 34l-41 -57l-56 38l46 64q-63 73 -63 199q0 131 65.5 204t181.5 73q76 0 132 -37l41 58l57 -37l-47 -65q62 -74 62 -196zM140 268q0 -83 26 -133l227 315q-38 26 -92 26q-161 0 -161 -208zM464 268q0 80 -25 129
l-227 -314q34 -25 90 -25q79 0 120.5 53.5t41.5 156.5z" />
    <glyph glyph-name="ugrave" unicode="&#xf9;" horiz-adv-x="614" 
d="M80 535h82v-347q0 -130 123 -130q85 0 123.5 46t38.5 150v281h81v-535h-67l-12 72h-4q-51 -82 -170 -82q-99 0 -147 47t-48 148v350zM355 618v-12h-54q-36 29 -76 72q-41 43 -62 78v10h99q18 -38 43 -78q34 -52 50 -70z" />
    <glyph glyph-name="uacute" unicode="&#xfa;" horiz-adv-x="614" 
d="M80 535h82v-347q0 -130 123 -130q85 0 123.5 46t38.5 150v281h81v-535h-67l-12 72h-4q-51 -82 -170 -82q-99 0 -147 47t-48 148v350zM247 606v12q27 36 50 73q27 41 43 75h99v-10q-29 -40 -65 -79q-40 -44 -73 -71h-54z" />
    <glyph glyph-name="ucircumflex" unicode="&#xfb;" horiz-adv-x="614" 
d="M80 535h82v-347q0 -130 123 -130q85 0 123.5 46t38.5 150v281h81v-535h-67l-12 72h-4q-51 -82 -170 -82q-99 0 -147 47t-48 148v350zM140 606v11q69 75 87 98q25 31 36 51h81q9 -17 37 -53q31 -37 88 -96v-11h-58q-45 28 -108 91q-64 -64 -107 -91h-56z" />
    <glyph glyph-name="udieresis" unicode="&#xfc;" horiz-adv-x="614" 
d="M80 535h82v-347q0 -130 123 -130q85 0 123.5 46t38.5 150v281h81v-535h-67l-12 72h-4q-51 -82 -170 -82q-99 0 -147 47t-48 148v350zM167 680q0 48 44 48q45 0 45 -48q0 -23 -13 -35.5t-32 -12.5t-31.5 12.5t-12.5 35.5zM353 680q0 48 44 48q45 0 45 -48q0 -23 -13 -35.5
t-32 -12.5t-31.5 12.5t-12.5 35.5z" />
    <glyph glyph-name="yacute" unicode="&#xfd;" horiz-adv-x="504" 
d="M217 -3l-216 538h87l117 -305q39 -106 48 -151h4q4 18 26 85q23 68 133 371h87l-230 -609q-33 -89 -79 -127.5t-113 -38.5q-35 0 -73 8v65q27 -6 60 -6q83 0 119 94zM201 606v12q27 36 50 73q27 41 43 75h99v-10q-29 -40 -65 -79q-40 -44 -73 -71h-54z" />
    <glyph glyph-name="thorn" unicode="&#xfe;" horiz-adv-x="613" 
d="M164 463h4q62 82 167 82t163.5 -73.5t58.5 -203.5q0 -131 -59 -204.5t-163 -73.5q-108 0 -168 79h-6l2 -17q4 -33 4 -68v-224h-81v1000h81v-228q0 -26 -3 -69zM324 476q-82 0 -119 -45t-38 -143v-20q0 -113 37 -161.5t121 -48.5q148 0 148 211q0 106 -36 156.5t-113 50.5
z" />
    <glyph glyph-name="ydieresis" unicode="&#xff;" horiz-adv-x="504" 
d="M217 -3l-216 538h87l117 -305q39 -106 48 -151h4q4 18 26 85q23 68 133 371h87l-230 -609q-33 -89 -79 -127.5t-113 -38.5q-35 0 -73 8v65q27 -6 60 -6q83 0 119 94zM114 680q0 48 44 48q45 0 45 -48q0 -23 -13 -35.5t-32 -12.5t-31.5 12.5t-12.5 35.5zM300 680
q0 48 44 48q45 0 45 -48q0 -23 -13 -35.5t-32 -12.5t-31.5 12.5t-12.5 35.5z" />
    <glyph glyph-name="Amacron" unicode="&#x100;" horiz-adv-x="633" 
d="M633 0h-86l-89 227h-286l-88 -227h-84l282 717h70zM201 302h231l-83 221q-17 43 -33 103q-9 -41 -31 -103zM178 771v67h293v-67h-293z" />
    <glyph glyph-name="amacron" unicode="&#x101;" 
d="M475 0h-60l-16 76h-4q-39 -49 -78.5 -67.5t-100.5 -18.5q-81 0 -125.5 41.5t-44.5 116.5q0 163 259 170l91 3v33q0 63 -27 93t-87 30q-66 0 -151 -41l-25 62q84 46 181 46t142.5 -43t45.5 -136v-365zM232 57q76 0 119 41.5t43 116.5v48l-81 -3q-97 -4 -139.5 -30.5
t-42.5 -82.5q0 -44 26.5 -67t74.5 -23zM142 606v67h293v-67h-293z" />
    <glyph glyph-name="Abreve" unicode="&#x102;" horiz-adv-x="633" 
d="M633 0h-86l-89 227h-286l-88 -227h-84l282 717h70zM201 302h231l-83 221q-17 43 -33 103q-9 -41 -31 -103zM313 771q-68 0 -106.5 33.5t-42.5 97.5h51q10 -39 26.5 -51t73.5 -13q48 0 72 15.5t29 48.5h51q-5 -62 -46 -96.5t-108 -34.5z" />
    <glyph glyph-name="abreve" unicode="&#x103;" 
d="M475 0h-60l-16 76h-4q-39 -49 -78.5 -67.5t-100.5 -18.5q-81 0 -125.5 41.5t-44.5 116.5q0 163 259 170l91 3v33q0 63 -27 93t-87 30q-66 0 -151 -41l-25 62q84 46 181 46t142.5 -43t45.5 -136v-365zM232 57q76 0 119 41.5t43 116.5v48l-81 -3q-97 -4 -139.5 -30.5
t-42.5 -82.5q0 -44 26.5 -67t74.5 -23zM278 606q-68 0 -106.5 33.5t-42.5 97.5h51q10 -39 26.5 -51t73.5 -13q48 0 72 15.5t29 48.5h51q-5 -62 -46 -96.5t-108 -34.5z" />
    <glyph glyph-name="Aogonek" unicode="&#x104;" horiz-adv-x="633" 
d="M633 0h-86l-89 227h-286l-88 -227h-84l282 717h70zM201 302h231l-83 221q-17 43 -33 103q-9 -41 -31 -103zM540 -116q0 -46 46 -46q20 0 47 6v-53q-31 -9 -61 -9q-101 0 -101 92q0 69 77 126h59q-67 -65 -67 -116z" />
    <glyph glyph-name="aogonek" unicode="&#x105;" 
d="M475 0h-60l-16 76h-4q-39 -49 -78.5 -67.5t-100.5 -18.5q-81 0 -125.5 41.5t-44.5 116.5q0 163 259 170l91 3v33q0 63 -27 93t-87 30q-66 0 -151 -41l-25 62q84 46 181 46t142.5 -43t45.5 -136v-365zM232 57q76 0 119 41.5t43 116.5v48l-81 -3q-97 -4 -139.5 -30.5
t-42.5 -82.5q0 -44 26.5 -67t74.5 -23zM407 -116q0 -46 46 -46q20 0 47 6v-53q-31 -9 -61 -9q-101 0 -101 92q0 69 77 126h59q-67 -65 -67 -116z" />
    <glyph glyph-name="Cacute" unicode="&#x106;" horiz-adv-x="631" 
d="M404 650q-118 0 -186 -78.5t-68 -214.5q0 -141 65.5 -217t187.5 -76q75 0 170 27v-73q-72 -28 -183 -28q-158 0 -243.5 96t-85.5 272q0 167 92.5 266.5t251.5 99.5q111 0 196 -41l-35 -71q-82 38 -162 38zM321 771v12q27 36 50 73q27 41 43 75h99v-10q-29 -40 -65 -79
q-40 -44 -73 -71h-54z" />
    <glyph glyph-name="cacute" unicode="&#x107;" horiz-adv-x="476" 
d="M300 -10q-116 0 -180 71.5t-64 202.5q0 134 65 207.5t184 73.5q84 0 138 -28l-25 -69q-60 25 -115 25q-163 0 -163 -208q0 -99 40 -151.5t118 -52.5q65 0 137 29v-72q-53 -28 -135 -28zM225 606v12q27 36 50 73q27 41 43 75h99v-10q-29 -40 -65 -79q-40 -44 -73 -71h-54z
" />
    <glyph glyph-name="Ccircumflex" unicode="&#x108;" horiz-adv-x="631" 
d="M404 650q-118 0 -186 -78.5t-68 -214.5q0 -141 65.5 -217t187.5 -76q75 0 170 27v-73q-72 -28 -183 -28q-158 0 -243.5 96t-85.5 272q0 167 92.5 266.5t251.5 99.5q111 0 196 -41l-35 -71q-82 38 -162 38zM215 771v11q69 75 87 98q26 32 36 51h81q9 -17 37 -53
q31 -37 88 -96v-11h-58q-45 28 -108 91q-64 -64 -107 -91h-56z" />
    <glyph glyph-name="ccircumflex" unicode="&#x109;" horiz-adv-x="476" 
d="M300 -10q-116 0 -180 71.5t-64 202.5q0 134 65 207.5t184 73.5q84 0 138 -28l-25 -69q-60 25 -115 25q-163 0 -163 -208q0 -99 40 -151.5t118 -52.5q65 0 137 29v-72q-53 -28 -135 -28zM110 606v11q69 75 87 98q25 31 36 51h81q9 -17 37 -53q31 -37 88 -96v-11h-58
q-45 28 -108 91q-64 -64 -107 -91h-56z" />
    <glyph glyph-name="Cdot" unicode="&#x10a;" horiz-adv-x="631" 
d="M404 650q-118 0 -186 -78.5t-68 -214.5q0 -141 65.5 -217t187.5 -76q75 0 170 27v-73q-72 -28 -183 -28q-158 0 -243.5 96t-85.5 272q0 167 92.5 266.5t251.5 99.5q111 0 196 -41l-35 -71q-82 38 -162 38zM342 845q0 54 48 54q20 0 34 -14t14 -40t-14 -40t-34 -14
q-22 0 -35 14t-13 40z" />
    <glyph glyph-name="cdot" unicode="&#x10b;" horiz-adv-x="476" 
d="M300 -10q-116 0 -180 71.5t-64 202.5q0 134 65 207.5t184 73.5q84 0 138 -28l-25 -69q-60 25 -115 25q-163 0 -163 -208q0 -99 40 -151.5t118 -52.5q65 0 137 29v-72q-53 -28 -135 -28zM243 680q0 54 48 54q20 0 34 -14t14 -40t-14 -40t-34 -14q-22 0 -35 14t-13 40z" />
    <glyph glyph-name="Ccaron" unicode="&#x10c;" horiz-adv-x="631" 
d="M404 650q-118 0 -186 -78.5t-68 -214.5q0 -141 65.5 -217t187.5 -76q75 0 170 27v-73q-72 -28 -183 -28q-158 0 -243.5 96t-85.5 272q0 167 92.5 266.5t251.5 99.5q111 0 196 -41l-35 -71q-82 38 -162 38zM225 919v12h56q56 -36 107 -92q64 64 108 92h58v-12l-32 -33
q-71 -74 -93 -115h-81q-11 21 -36 50q-18 23 -87 98z" />
    <glyph glyph-name="ccaron" unicode="&#x10d;" horiz-adv-x="476" 
d="M300 -10q-116 0 -180 71.5t-64 202.5q0 134 65 207.5t184 73.5q84 0 138 -28l-25 -69q-60 25 -115 25q-163 0 -163 -208q0 -99 40 -151.5t118 -52.5q65 0 137 29v-72q-53 -28 -135 -28zM125 754v12h56q56 -36 107 -92q64 64 108 92h58v-12l-32 -33q-71 -74 -93 -115h-81
q-11 21 -36 50q-18 23 -87 98z" />
    <glyph glyph-name="Dcaron" unicode="&#x10e;" horiz-adv-x="729" 
d="M668 364q0 -177 -96 -270.5t-276 -93.5h-198v714h219q167 0 258 -93q93 -91 93 -257zM580 361q0 139 -70 210t-208 71h-121v-570h101q298 0 298 289zM174 919v12h56q56 -36 107 -92q64 64 108 92h58v-12l-32 -33q-71 -74 -93 -115h-81q-11 21 -36 50q-18 23 -87 98z" />
    <glyph glyph-name="dcaron" unicode="&#x10f;" horiz-adv-x="613" 
d="M461 0l-11 72h-4q-55 -82 -168 -82q-105 0 -163.5 72t-58.5 204t58.5 205.5t163.5 73.5q109 0 167 -79h6l-3 38l-2 38v218h81v-760h-66zM288 58q83 0 120.5 45t37.5 146v17q0 113 -37.5 162t-121.5 49q-71 0 -109 -55t-38 -157q0 -207 148 -207zM573 600v12q22 67 33 148
h82v-9q-4 -24 -27 -71q-18 -41 -44 -80h-44z" />
    <glyph glyph-name="Dcroat" unicode="&#x110;" horiz-adv-x="722" 
d="M660 364q0 -177 -96 -270.5t-276 -93.5h-190v317h-75v73h75v324h212q166 0 258 -91.5t92 -258.5zM572 361q0 281 -278 281h-113v-252h185v-73h-185v-245h93q298 0 298 289z" />
    <glyph glyph-name="dcroat" unicode="&#x111;" horiz-adv-x="613" 
d="M461 0l-11 72h-4q-55 -82 -168 -82q-105 0 -163.5 72t-58.5 204t58.5 205.5t163.5 73.5q109 0 167 -79h6q-5 45 -5 76v65h-219v63h219v90h81v-90h76v-63h-76v-607h-66zM288 58q83 0 120.5 45t37.5 146v17q0 113 -37.5 162t-121.5 49q-71 0 -109 -55t-38 -157
q0 -207 148 -207z" />
    <glyph glyph-name="Emacron" unicode="&#x112;" 
d="M496 74v-74h-398v714h398v-74h-315v-230h296v-73h-296v-263h315zM156 771v67h293v-67h-293z" />
    <glyph glyph-name="emacron" unicode="&#x113;" horiz-adv-x="561" 
d="M312 -10q-119 0 -187.5 72.5t-68.5 200.5q0 130 64 206t171 76q101 0 159 -66q59 -67 59 -175v-51h-369q3 -94 48 -143t127 -49q85 0 171 36v-72q-80 -35 -174 -35zM290 477q-64 0 -102.5 -41.5t-45.5 -116.5h280q0 77 -34 117.5t-98 40.5zM152 606v67h293v-67h-293z" />
    <glyph glyph-name="Ebreve" unicode="&#x114;" 
d="M496 74v-74h-398v714h398v-74h-315v-230h296v-73h-296v-263h315zM300 771q-68 0 -106.5 33.5t-42.5 97.5h51q10 -39 26.5 -51t73.5 -13q48 0 72 15.5t29 48.5h51q-5 -62 -46 -96.5t-108 -34.5z" />
    <glyph glyph-name="ebreve" unicode="&#x115;" horiz-adv-x="561" 
d="M312 -10q-119 0 -187.5 72.5t-68.5 200.5q0 130 64 206t171 76q101 0 159 -66q59 -67 59 -175v-51h-369q3 -94 48 -143t127 -49q85 0 171 36v-72q-80 -35 -174 -35zM290 477q-64 0 -102.5 -41.5t-45.5 -116.5h280q0 77 -34 117.5t-98 40.5zM290 606q-68 0 -106.5 33.5
t-42.5 97.5h51q10 -39 26.5 -51t73.5 -13q48 0 72 15.5t29 48.5h51q-5 -62 -46 -96.5t-108 -34.5z" />
    <glyph glyph-name="Edotaccent" unicode="&#x116;" 
d="M496 74v-74h-398v714h398v-74h-315v-230h296v-73h-296v-263h315zM258 831q0 54 48 54q20 0 34 -14t14 -40t-14 -40t-34 -14q-22 0 -35 14t-13 40z" />
    <glyph glyph-name="edotaccent" unicode="&#x117;" horiz-adv-x="561" 
d="M312 -10q-119 0 -187.5 72.5t-68.5 200.5q0 130 64 206t171 76q101 0 159 -66q59 -67 59 -175v-51h-369q3 -94 48 -143t127 -49q85 0 171 36v-72q-80 -35 -174 -35zM290 477q-64 0 -102.5 -41.5t-45.5 -116.5h280q0 77 -34 117.5t-98 40.5zM245 680q0 54 48 54
q20 0 34 -14t14 -40t-14 -40t-34 -14q-22 0 -35 14t-13 40z" />
    <glyph glyph-name="Eogonek" unicode="&#x118;" 
d="M496 74v-74h-398v714h398v-74h-315v-230h296v-73h-296v-263h315zM393 -116q0 -46 46 -46q20 0 47 6v-53q-31 -9 -61 -9q-101 0 -101 92q0 69 77 126h59q-67 -65 -67 -116z" />
    <glyph glyph-name="eogonek" unicode="&#x119;" horiz-adv-x="561" 
d="M312 -10q-119 0 -187.5 72.5t-68.5 200.5q0 130 64 206t171 76q101 0 159 -66q59 -67 59 -175v-51h-369q3 -94 48 -143t127 -49q85 0 171 36v-72q-80 -35 -174 -35zM290 477q-64 0 -102.5 -41.5t-45.5 -116.5h280q0 77 -34 117.5t-98 40.5zM387 -101q0 -46 46 -46
q20 0 47 6v-53q-32 -9 -61 -9q-101 0 -101 92q0 69 77 126h59q-67 -65 -67 -116z" />
    <glyph glyph-name="Ecaron" unicode="&#x11a;" 
d="M496 74v-74h-398v714h398v-74h-315v-230h296v-73h-296v-263h315zM139 919v12h56q56 -36 107 -92q64 64 108 92h58v-12l-32 -33q-71 -74 -93 -115h-81q-11 21 -36 50q-18 23 -87 98z" />
    <glyph glyph-name="ecaron" unicode="&#x11b;" horiz-adv-x="561" 
d="M312 -10q-119 0 -187.5 72.5t-68.5 200.5q0 130 64 206t171 76q101 0 159 -66q59 -67 59 -175v-51h-369q3 -94 48 -143t127 -49q85 0 171 36v-72q-80 -35 -174 -35zM290 477q-64 0 -102.5 -41.5t-45.5 -116.5h280q0 77 -34 117.5t-98 40.5zM129 754v12h56q56 -36 107 -92
q64 64 108 92h58v-12l-32 -33q-71 -74 -93 -115h-81q-11 21 -36 50q-18 23 -87 98z" />
    <glyph glyph-name="Gcircumflex" unicode="&#x11c;" horiz-adv-x="728" 
d="M412 300v74h243v-347q-117 -37 -251 -37q-162 0 -252.5 96.5t-90.5 270.5q-2 168 99.5 269t270.5 98q114 0 213 -42l-32 -73q-99 41 -186 41q-131 0 -204 -77.5t-73 -215.5q0 -145 70.5 -219.5t207.5 -74.5q72 0 145 17v220h-160zM245 771v11q69 75 87 98q26 32 36 51h81
q9 -17 37 -53q31 -37 88 -96v-11h-58q-45 28 -108 91q-64 -64 -107 -91h-56z" />
    <glyph glyph-name="gcircumflex" unicode="&#x11d;" horiz-adv-x="548" 
d="M339 535h185v-51l-99 -12q35 -47 35 -107q0 -79 -54 -125.5t-147 -46.5q-26 0 -45 4q-52 -28 -52 -69q0 -22 18.5 -32.5t61.5 -10.5h95q87 0 133.5 -36.5t46.5 -106.5q0 -89 -71 -135.5t-208 -46.5q-105 0 -162 39t-57 110q0 49 31.5 84.5t87.5 48.5q-21 9 -34.5 29
t-13.5 45q0 54 65 94q-43 17 -68.5 58t-25.5 94q0 88 53 135.5t149 47.5q43 0 76 -10zM97 -90q0 -88 142 -88q100 0 150 30t50 83q0 44 -27 60.5t-101 16.5h-97q-55 0 -86 -26.5t-31 -75.5zM141 364q0 -56 31.5 -85t88.5 -29q119 0 119 115q0 121 -120 121q-57 0 -88 -31
t-31 -91zM105 606v11q69 75 87 98q26 31 36 51h81q9 -17 37 -53q31 -37 88 -96v-11h-58q-45 28 -108 91q-64 -64 -107 -91h-56z" />
    <glyph glyph-name="Gbreve" unicode="&#x11e;" horiz-adv-x="728" 
d="M412 300v74h243v-347q-117 -37 -251 -37q-162 0 -252.5 96.5t-90.5 270.5q-2 168 99.5 269t270.5 98q114 0 213 -42l-32 -73q-99 41 -186 41q-131 0 -204 -77.5t-73 -215.5q0 -145 70.5 -219.5t207.5 -74.5q72 0 145 17v220h-160zM417 771q-68 0 -106.5 33.5t-42.5 97.5
h51q10 -39 26.5 -51t73.5 -13q48 0 72 15.5t29 48.5h51q-5 -62 -46 -96.5t-108 -34.5z" />
    <glyph glyph-name="gbreve" unicode="&#x11f;" horiz-adv-x="548" 
d="M339 535h185v-51l-99 -12q35 -47 35 -107q0 -79 -54 -125.5t-147 -46.5q-26 0 -45 4q-52 -28 -52 -69q0 -22 18.5 -32.5t61.5 -10.5h95q87 0 133.5 -36.5t46.5 -106.5q0 -89 -71 -135.5t-208 -46.5q-105 0 -162 39t-57 110q0 49 31.5 84.5t87.5 48.5q-21 9 -34.5 29
t-13.5 45q0 54 65 94q-43 17 -68.5 58t-25.5 94q0 88 53 135.5t149 47.5q43 0 76 -10zM97 -90q0 -88 142 -88q100 0 150 30t50 83q0 44 -27 60.5t-101 16.5h-97q-55 0 -86 -26.5t-31 -75.5zM141 364q0 -56 31.5 -85t88.5 -29q119 0 119 115q0 121 -120 121q-57 0 -88 -31
t-31 -91zM268 606q-68 0 -106.5 33.5t-42.5 97.5h51q10 -39 26.5 -51t73.5 -13q48 0 72 15.5t29 48.5h51q-5 -62 -46 -96.5t-108 -34.5z" />
    <glyph glyph-name="Gdot" unicode="&#x120;" horiz-adv-x="728" 
d="M412 300v74h243v-347q-117 -37 -251 -37q-162 0 -252.5 96.5t-90.5 270.5q-2 168 99.5 269t270.5 98q114 0 213 -42l-32 -73q-99 41 -186 41q-131 0 -204 -77.5t-73 -215.5q0 -145 70.5 -219.5t207.5 -74.5q72 0 145 17v220h-160zM378 845q0 54 48 54q20 0 34 -14t14 -40
t-14 -40t-34 -14q-22 0 -35 14t-13 40z" />
    <glyph glyph-name="gdot" unicode="&#x121;" horiz-adv-x="548" 
d="M339 535h185v-51l-99 -12q35 -47 35 -107q0 -79 -54 -125.5t-147 -46.5q-26 0 -45 4q-52 -28 -52 -69q0 -22 18.5 -32.5t61.5 -10.5h95q87 0 133.5 -36.5t46.5 -106.5q0 -89 -71 -135.5t-208 -46.5q-105 0 -162 39t-57 110q0 49 31.5 84.5t87.5 48.5q-21 9 -34.5 29
t-13.5 45q0 54 65 94q-43 17 -68.5 58t-25.5 94q0 88 53 135.5t149 47.5q43 0 76 -10zM97 -90q0 -88 142 -88q100 0 150 30t50 83q0 44 -27 60.5t-101 16.5h-97q-55 0 -86 -26.5t-31 -75.5zM141 364q0 -56 31.5 -85t88.5 -29q119 0 119 115q0 121 -120 121q-57 0 -88 -31
t-31 -91zM219 680q0 54 48 54q20 0 34 -14t14 -40t-14 -40t-34 -14q-22 0 -35 14t-13 40z" />
    <glyph glyph-name="Gcommaaccent" unicode="&#x122;" horiz-adv-x="728" 
d="M412 300v74h243v-347q-117 -37 -251 -37q-162 0 -252.5 96.5t-90.5 270.5q-2 168 99.5 269t270.5 98q114 0 213 -42l-32 -73q-99 41 -186 41q-131 0 -204 -77.5t-73 -215.5q0 -145 70.5 -219.5t207.5 -74.5q72 0 145 17v220h-160zM324 -221v12q15 36 26 77q13 42 16 71
h82v-9q-4 -24 -29 -72q-25 -49 -51 -79h-44z" />
    <glyph glyph-name="gcommaaccent" unicode="&#x123;" horiz-adv-x="548" 
d="M339 535h185v-51l-99 -12q35 -47 35 -107q0 -79 -54 -125.5t-147 -46.5q-26 0 -45 4q-52 -28 -52 -69q0 -22 18.5 -32.5t61.5 -10.5h95q87 0 133.5 -36.5t46.5 -106.5q0 -89 -71 -135.5t-208 -46.5q-105 0 -162 39t-57 110q0 49 31.5 84.5t87.5 48.5q-21 9 -34.5 29
t-13.5 45q0 54 65 94q-43 17 -68.5 58t-25.5 94q0 88 53 135.5t149 47.5q43 0 76 -10zM97 -90q0 -88 142 -88q100 0 150 30t50 83q0 44 -27 60.5t-101 16.5h-97q-55 0 -86 -26.5t-31 -75.5zM141 364q0 -56 31.5 -85t88.5 -29q119 0 119 115q0 121 -120 121q-57 0 -88 -31
t-31 -91zM345 766v-12q-13 -29 -27 -77q-13 -43 -16 -71h-81v9q8 31 31 76q24 47 48 75h45z" />
    <glyph glyph-name="Hcircumflex" unicode="&#x124;" horiz-adv-x="738" 
d="M640 714v-714h-83v336h-376v-336h-83v714h83v-304h376v304h83zM204 771v11q69 75 87 98q25 32 36 51h81q9 -17 37 -53q31 -37 88 -96v-11h-58q-45 28 -108 91q-64 -64 -107 -91h-56z" />
    <glyph glyph-name="hcircumflex" unicode="&#x125;" horiz-adv-x="614" 
d="M533 0h-81v346q0 66 -30 98t-93 32q-85 0 -123.5 -46t-38.5 -150v-280h-81v760h81v-230q0 -45 -4 -69h5q51 83 169 83q99 0 147.5 -47t48.5 -148v-349zM146 798v11q69 75 87 98q25 31 36 51h81q9 -17 37 -53q31 -37 88 -96v-11h-58q-45 28 -108 91q-64 -64 -107 -91h-56z
" />
    <glyph glyph-name="Hbar" unicode="&#x126;" horiz-adv-x="738" 
d="M0 593h98v121h83v-121h376v121h83v-121h98v-69h-98v-524h-83v336h-376v-336h-83v524h-98v69zM181 410h376v114h-376v-114z" />
    <glyph glyph-name="hbar" unicode="&#x127;" horiz-adv-x="614" 
d="M533 0h-81v327q0 66 -30 98t-93 32q-85 0 -123.5 -45.5t-38.5 -149.5v-262h-81v607h-76v62h76v91h81v-91h219v-62h-219v-96q0 -44 -4 -68h5q24 39 68.5 61t100.5 22q99 0 147.5 -47t48.5 -149v-330z" />
    <glyph glyph-name="Itilde" unicode="&#x128;" horiz-adv-x="279" 
d="M181 0h-83v714h83v-714zM215 772q-29 0 -80 29t-72 29q-24 0 -36.5 -14t-19.5 -45h-48q6 59 34 92.5t73 33.5q32 0 83.5 -29t69.5 -29q23 0 35.5 14t19.5 45h48q-6 -60 -34 -93t-73 -33z" />
    <glyph glyph-name="itilde" unicode="&#x129;" horiz-adv-x="253" 
d="M167 535v-535h-81v535h81zM201 607q-29 0 -80 29t-72 29q-24 0 -36.5 -14t-19.5 -45h-48q6 59 34 92.5t73 33.5q32 0 83.5 -29t69.5 -29q23 0 35.5 14t19.5 45h48q-6 -60 -34 -93t-73 -33z" />
    <glyph glyph-name="Imacron" unicode="&#x12a;" horiz-adv-x="279" 
d="M181 0h-83v714h83v-714zM-6 771v67h293v-67h-293z" />
    <glyph glyph-name="imacron" unicode="&#x12b;" horiz-adv-x="253" 
d="M167 535v-535h-81v535h81zM-19 606v67h293v-67h-293z" />
    <glyph glyph-name="Ibreve" unicode="&#x12c;" horiz-adv-x="279" 
d="M181 0h-83v714h83v-714zM137 771q-68 0 -106.5 33.5t-42.5 97.5h51q10 -39 26.5 -51t73.5 -13q48 0 72 15.5t29 48.5h51q-5 -62 -46 -96.5t-108 -34.5z" />
    <glyph glyph-name="ibreve" unicode="&#x12d;" horiz-adv-x="253" 
d="M167 535v-535h-81v535h81zM124 606q-68 0 -106.5 33.5t-42.5 97.5h51q10 -39 26.5 -51t73.5 -13q48 0 72 15.5t29 48.5h51q-5 -62 -46 -96.5t-108 -34.5z" />
    <glyph glyph-name="Iogonek" unicode="&#x12e;" horiz-adv-x="279" 
d="M181 0h-83v714h83v-714zM111 -116q0 -46 46 -46q20 0 47 6v-53q-32 -9 -61 -9q-101 0 -101 92q0 69 77 126h59q-67 -65 -67 -116z" />
    <glyph glyph-name="iogonek" unicode="&#x12f;" horiz-adv-x="253" 
d="M167 535v-535h-81v535h81zM79 680q0 54 48 54q20 0 34 -14t14 -40t-14 -40t-34 -14q-22 0 -35 14t-13 40zM95 -116q0 -46 46 -46q20 0 47 6v-53q-31 -9 -61 -9q-101 0 -101 92q0 69 77 126h59q-67 -65 -67 -116z" />
    <glyph glyph-name="Idotaccent" unicode="&#x130;" horiz-adv-x="279" 
d="M181 0h-83v714h83v-714zM91 845q0 54 48 54q20 0 34 -14t14 -40t-14 -40t-34 -14q-22 0 -35 14t-13 40z" />
    <glyph glyph-name="dotlessi" unicode="&#x131;" horiz-adv-x="253" 
d="M167 535v-535h-81v535h81z" />
    <glyph glyph-name="IJ" unicode="&#x132;" horiz-adv-x="546" 
d="M181 0h-83v714h83v-714zM273 -188q-47 0 -72 13v71q33 -10 72 -10q48 0 73.5 29.5t25.5 84.5v714h83v-707q0 -93 -47 -144t-135 -51z" />
    <glyph glyph-name="ij" unicode="&#x133;" horiz-adv-x="506" 
d="M167 535v-535h-81v535h81zM79 680q0 54 48 54q20 0 34 -14t14 -40t-14 -40t-34 -14q-22 0 -35 14t-13 40zM274 -240q-46 0 -75 12v66q31 -10 66 -10q74 0 74 84v623h81v-617q0 -158 -146 -158zM332 680q0 54 48 54q20 0 34 -14t14 -40t-14 -40t-34 -14q-22 0 -35 14
t-13 40z" />
    <glyph glyph-name="Jcircumflex" unicode="&#x134;" horiz-adv-x="267" 
d="M-6 -188q-47 0 -72 13v71q33 -10 72 -10q48 0 73.5 29.5t25.5 84.5v714h83v-707q0 -93 -47 -144t-135 -51zM-30 771v11q69 75 87 98q25 32 36 51h81q9 -17 37 -53q31 -37 88 -96v-11h-58q-45 28 -108 91q-64 -64 -107 -91h-56z" />
    <glyph glyph-name="jcircumflex" unicode="&#x135;" horiz-adv-x="253" 
d="M21 -240q-47 0 -75 12v66q31 -10 66 -10q74 0 74 84v623h81v-617q0 -158 -146 -158zM-40 606v11q69 75 87 98q25 31 36 51h81q9 -17 37 -53q31 -37 88 -96v-11h-58q-45 28 -108 91q-64 -64 -107 -91h-56z" />
    <glyph glyph-name="Kcommaaccent" unicode="&#x136;" horiz-adv-x="614" 
d="M316 404l298 -404h-98l-260 346l-75 -66v-280h-83v714h83v-354l324 354h98zM247 -221v12q15 36 26 77q13 42 16 71h82v-9q-4 -24 -29 -72q-25 -49 -51 -79h-44z" />
    <glyph glyph-name="kcommaaccent" unicode="&#x137;" horiz-adv-x="525" 
d="M162 274h4q23 32 64 78l173 183h96l-217 -228l232 -307h-98l-189 253l-61 -53v-200h-80v760h80v-403q0 -34 -4 -83zM201 -221v12q15 36 26 77q13 42 16 71h82v-9q-4 -24 -29 -72q-25 -49 -51 -79h-44z" />
    <glyph glyph-name="kgreenlandic" unicode="&#x138;" horiz-adv-x="518" 
d="M167 260l231 274h101l-202 -235l216 -299h-98l-176 246l-66 -55v-191h-87v534h87v-138q0 -80 -6 -136z" />
    <glyph glyph-name="Lacute" unicode="&#x139;" horiz-adv-x="519" 
d="M496 0h-398v714h83v-639h315v-75zM115 771v12q27 36 50 73q27 41 43 75h99v-10q-29 -40 -65 -79q-40 -44 -73 -71h-54z" />
    <glyph glyph-name="lacute" unicode="&#x13a;" horiz-adv-x="253" 
d="M167 760v-760h-81v760h81zM80 799v12q27 36 50 73q27 41 43 75h99v-10q-29 -40 -65 -79q-40 -44 -73 -71h-54z" />
    <glyph glyph-name="Lcommaaccent" unicode="&#x13b;" horiz-adv-x="519" 
d="M496 0h-398v714h83v-639h315v-75zM204 -221v12q15 36 26 77q13 42 16 71h82v-9q-4 -24 -29 -72q-25 -49 -51 -79h-44z" />
    <glyph glyph-name="lcommaaccent" unicode="&#x13c;" horiz-adv-x="253" 
d="M167 760v-760h-81v760h81zM43 -221v12q15 36 26 77q13 42 16 71h82v-9q-4 -24 -29 -72q-25 -49 -51 -79h-44z" />
    <glyph glyph-name="Lcaron" unicode="&#x13d;" horiz-adv-x="519" 
d="M496 0h-398v714h83v-639h315v-75zM331 555v12q22 67 33 148h82v-9q-4 -24 -27 -71q-18 -41 -44 -80h-44z" />
    <glyph glyph-name="lcaron" unicode="&#x13e;" horiz-adv-x="253" 
d="M167 760v-760h-81v760h81zM213 600v12q22 67 33 148h82v-9q-4 -24 -27 -71q-18 -41 -44 -80h-44z" />
    <glyph glyph-name="Ldot" unicode="&#x13f;" horiz-adv-x="519" 
d="M496 0h-398v714h83v-639h315v-75zM331 355q0 54 48 54q20 0 34 -14t14 -40t-14 -40t-34 -14q-22 0 -35 14t-13 40z" />
    <glyph glyph-name="ldot" unicode="&#x140;" horiz-adv-x="314" 
d="M167 760v-760h-81v760h81zM236 332q0 54 48 54q20 0 34 -14t14 -40t-14 -40t-34 -14q-22 0 -35 14t-13 40z" />
    <glyph glyph-name="Lslash" unicode="&#x141;" horiz-adv-x="523" 
d="M496 0h-398v248l-51 -29l-33 56l84 49v390h83v-341l145 85l33 -59l-178 -103v-221h315v-75z" />
    <glyph glyph-name="lslash" unicode="&#x142;" horiz-adv-x="261" 
d="M167 760v-338l67 46l35 -55l-102 -69v-344h-81v291l-54 -35l-34 55l88 58v391h81z" />
    <glyph glyph-name="Nacute" unicode="&#x143;" horiz-adv-x="754" 
d="M656 714v-714h-95l-390 599h-4q8 -112 8 -193v-406h-77v714h94l389 -597h4l-5 84q-3 77 -2 103v410h78zM318 771v12q27 36 50 73q27 41 43 75h99v-10q-29 -40 -65 -79q-40 -44 -73 -71h-54z" />
    <glyph glyph-name="nacute" unicode="&#x144;" horiz-adv-x="614" 
d="M533 0h-81v346q0 66 -30 98t-93 32q-85 0 -123.5 -46t-38.5 -149v-281h-81v535h66l13 -73h4q25 39 70 61t100 22q98 0 146 -47t48 -149v-349zM251 606v12q27 36 50 73q27 41 43 75h99v-10q-29 -40 -65 -79q-40 -44 -73 -71h-54z" />
    <glyph glyph-name="Ncommaaccent" unicode="&#x145;" horiz-adv-x="754" 
d="M656 714v-714h-95l-390 599h-4q8 -112 8 -193v-406h-77v714h94l389 -597h4l-5 84q-3 77 -2 103v410h78zM280 -221v12q15 36 26 77q13 42 16 71h82v-9q-4 -24 -29 -72q-25 -49 -51 -79h-44z" />
    <glyph glyph-name="ncommaaccent" unicode="&#x146;" horiz-adv-x="614" 
d="M533 0h-81v346q0 66 -30 98t-93 32q-85 0 -123.5 -46t-38.5 -149v-281h-81v535h66l13 -73h4q25 39 70 61t100 22q98 0 146 -47t48 -149v-349zM222 -221v12q15 36 26 77q13 42 16 71h82v-9q-4 -24 -29 -72q-25 -49 -51 -79h-44z" />
    <glyph glyph-name="Ncaron" unicode="&#x147;" horiz-adv-x="754" 
d="M656 714v-714h-95l-390 599h-4q8 -112 8 -193v-406h-77v714h94l389 -597h4l-5 84q-3 77 -2 103v410h78zM212 919v12h56q56 -36 107 -92q64 64 108 92h58v-12l-32 -33q-71 -74 -93 -115h-81q-11 21 -36 50q-18 23 -87 98z" />
    <glyph glyph-name="ncaron" unicode="&#x148;" horiz-adv-x="614" 
d="M533 0h-81v346q0 66 -30 98t-93 32q-85 0 -123.5 -46t-38.5 -149v-281h-81v535h66l13 -73h4q25 39 70 61t100 22q98 0 146 -47t48 -149v-349zM146 754v12h56q56 -36 107 -92q64 64 108 92h58v-12l-32 -33q-71 -74 -93 -115h-81q-11 21 -36 50q-18 23 -87 98z" />
    <glyph glyph-name="napostrophe" unicode="&#x149;" horiz-adv-x="681" 
d="M599 0h-81v346q0 66 -30 98t-93 32q-85 0 -123.5 -46t-38.5 -149v-281h-81v535h66l13 -73h4q25 39 70 61t100 22q98 0 146 -47t48 -149v-349zM50 714h89l7 -11q-12 -49 -36 -114q-22 -59 -50 -120h-60q32 130 50 245z" />
    <glyph glyph-name="Eng" unicode="&#x14a;" horiz-adv-x="754" 
d="M473 -188q-49 0 -74 13v71q33 -10 75 -10q50 0 76.5 29.5t26.5 84.5l-406 599h-4q8 -138 8 -206v-393h-77v714h94l389 -587h4q-7 69 -7 182v405h78v-707q0 -95 -47 -145t-136 -50z" />
    <glyph glyph-name="eng" unicode="&#x14b;" horiz-adv-x="614" 
d="M393 -240q-42 0 -69 12v66q29 -10 60 -10q68 0 68 84v434q0 66 -30 98t-93 32q-85 0 -123.5 -46t-38.5 -149v-281h-81v535h66l13 -73h5q52 83 167 83q100 0 148 -47t48 -149v-431q0 -158 -140 -158z" />
    <glyph glyph-name="Omacron" unicode="&#x14c;" horiz-adv-x="779" 
d="M718 358q0 -171 -87 -270q-87 -98 -241 -98q-158 0 -243.5 96t-85.5 273q0 174 86 270t244 96q154 0 240 -98q87 -98 87 -269zM149 358q0 -145 61.5 -220t179.5 -75q240 0 240 295q0 144 -60.5 218.5t-178.5 74.5q-119 0 -180.5 -74.5t-61.5 -218.5zM244 771v67h293v-67
h-293z" />
    <glyph glyph-name="omacron" unicode="&#x14d;" horiz-adv-x="604" 
d="M548 268q0 -131 -66 -204.5t-182 -73.5q-109 0 -176.5 76t-67.5 202q0 131 65.5 204t181.5 73q113 0 179 -75q66 -74 66 -202zM140 268q0 -103 41 -156.5t121 -53.5q79 0 120.5 53.5t41.5 156.5q0 102 -41.5 155t-121.5 53q-161 0 -161 -208zM156 606v67h293v-67h-293z
" />
    <glyph glyph-name="Obreve" unicode="&#x14e;" horiz-adv-x="779" 
d="M718 358q0 -171 -87 -270q-87 -98 -241 -98q-158 0 -243.5 96t-85.5 273q0 174 86 270t244 96q154 0 240 -98q87 -98 87 -269zM149 358q0 -145 61.5 -220t179.5 -75q240 0 240 295q0 144 -60.5 218.5t-178.5 74.5q-119 0 -180.5 -74.5t-61.5 -218.5zM386 771
q-68 0 -106.5 33.5t-42.5 97.5h51q10 -39 26.5 -51t73.5 -13q48 0 72 15.5t29 48.5h51q-5 -62 -46 -96.5t-108 -34.5z" />
    <glyph glyph-name="obreve" unicode="&#x14f;" horiz-adv-x="604" 
d="M548 268q0 -131 -66 -204.5t-182 -73.5q-109 0 -176.5 76t-67.5 202q0 131 65.5 204t181.5 73q113 0 179 -75q66 -74 66 -202zM140 268q0 -103 41 -156.5t121 -53.5q79 0 120.5 53.5t41.5 156.5q0 102 -41.5 155t-121.5 53q-161 0 -161 -208zM299 606q-68 0 -106.5 33.5
t-42.5 97.5h51q10 -39 26.5 -51t73.5 -13q48 0 72 15.5t29 48.5h51q-5 -62 -46 -96.5t-108 -34.5z" />
    <glyph glyph-name="Ohungarumlaut" unicode="&#x150;" horiz-adv-x="779" 
d="M718 358q0 -171 -87 -270q-87 -98 -241 -98q-158 0 -243.5 96t-85.5 273q0 174 86 270t244 96q154 0 240 -98q87 -98 87 -269zM149 358q0 -145 61.5 -220t179.5 -75q240 0 240 295q0 144 -60.5 218.5t-178.5 74.5q-119 0 -180.5 -74.5t-61.5 -218.5zM248 771v12
q20 30 44 69q28 46 42 79h91v-10q-17 -30 -60 -79q-45 -51 -70 -71h-47zM422 771v12q25 35 48 76q20 35 38 72h91v-10q-17 -30 -60 -79q-45 -51 -70 -71h-47z" />
    <glyph glyph-name="ohungarumlaut" unicode="&#x151;" horiz-adv-x="604" 
d="M548 268q0 -131 -66 -204.5t-182 -73.5q-109 0 -176.5 76t-67.5 202q0 131 65.5 204t181.5 73q113 0 179 -75q66 -74 66 -202zM140 268q0 -103 41 -156.5t121 -53.5q79 0 120.5 53.5t41.5 156.5q0 102 -41.5 155t-121.5 53q-161 0 -161 -208zM157 606v12q20 30 44 69
q28 46 42 79h91v-10q-17 -30 -60 -79q-45 -51 -70 -71h-47zM331 606v12q25 35 48 76q20 35 38 72h91v-10q-17 -30 -60 -79q-45 -51 -70 -71h-47z" />
    <glyph glyph-name="OE" unicode="&#x152;" horiz-adv-x="923" 
d="M863 74v-74h-375q-47 -10 -95 -10q-160 0 -246 96t-86 273q0 176 85 271t241 95q48 0 94 -11h382v-74h-288v-230h269v-73h-269v-263h288zM396 651q-122 0 -184.5 -74.5t-62.5 -218.5q0 -145 62.5 -220t183.5 -75q56 0 97 16v557q-42 15 -96 15z" />
    <glyph glyph-name="oe" unicode="&#x153;" horiz-adv-x="942" 
d="M698 -10q-143 0 -204 115q-61 -115 -199 -115q-109 0 -175 74q-65 76 -65 204q0 129 64.5 202.5t178.5 73.5q133 0 194 -114q61 114 184 114q98 0 156 -64.5t58 -175.5v-51h-356q4 -192 165 -192q86 0 167 36v-72q-80 -35 -168 -35zM140 268q0 -210 156 -210
q154 0 154 206q0 109 -37.5 160.5t-118.5 51.5q-80 0 -117 -52t-37 -156zM675 476q-127 0 -139 -157h266q0 157 -127 157z" />
    <glyph glyph-name="Racute" unicode="&#x154;" horiz-adv-x="618" 
d="M330 297h-149v-297h-83v714h196q257 0 257 -202q0 -141 -144 -191l194 -321h-98zM181 641v-273h114q170 0 170 140q0 71 -41.5 102t-134.5 31h-108zM251 771v12q27 36 50 73q27 41 43 75h99v-10q-29 -40 -65 -79q-40 -44 -73 -71h-54z" />
    <glyph glyph-name="racute" unicode="&#x155;" horiz-adv-x="408" 
d="M330 545q36 0 64 -6l-11 -75q-31 7 -59 7q-64 0 -111 -53q-46 -52 -46 -131v-287h-81v535h67l9 -99h4q63 109 164 109zM174 606v12q27 36 50 73q27 41 43 75h99v-10q-29 -40 -65 -79q-40 -44 -73 -71h-54z" />
    <glyph glyph-name="Rcommaaccent" unicode="&#x156;" horiz-adv-x="618" 
d="M330 297h-149v-297h-83v714h196q257 0 257 -202q0 -141 -144 -191l194 -321h-98zM181 641v-273h114q170 0 170 140q0 71 -41.5 102t-134.5 31h-108zM241 -221v12q15 36 26 77q13 42 16 71h82v-9q-4 -24 -29 -72q-25 -49 -51 -79h-44z" />
    <glyph glyph-name="rcommaaccent" unicode="&#x157;" horiz-adv-x="408" 
d="M330 545q36 0 64 -6l-11 -75q-31 7 -59 7q-64 0 -111 -53q-46 -52 -46 -131v-287h-81v535h67l9 -99h4q63 109 164 109zM47 -221v12q15 36 26 77q13 42 16 71h82v-9q-4 -24 -29 -72q-25 -49 -51 -79h-44z" />
    <glyph glyph-name="Rcaron" unicode="&#x158;" horiz-adv-x="618" 
d="M330 297h-149v-297h-83v714h196q257 0 257 -202q0 -141 -144 -191l194 -321h-98zM181 641v-273h114q170 0 170 140q0 71 -41.5 102t-134.5 31h-108zM144 919v12h56q56 -36 107 -92q64 64 108 92h58v-12l-32 -33q-71 -74 -93 -115h-81q-11 21 -36 50q-18 23 -87 98z" />
    <glyph glyph-name="rcaron" unicode="&#x159;" horiz-adv-x="408" 
d="M330 545q36 0 64 -6l-11 -75q-31 7 -59 7q-64 0 -111 -53q-46 -52 -46 -131v-287h-81v535h67l9 -99h4q63 109 164 109zM64 754v12h56q56 -36 107 -92q64 64 108 92h58v-12l-32 -33q-71 -74 -93 -115h-81q-11 21 -36 50q-18 23 -87 98z" />
    <glyph glyph-name="Sacute" unicode="&#x15a;" horiz-adv-x="549" 
d="M501 190q0 -93 -68.5 -146.5t-185.5 -53.5q-127 0 -195 33v80q94 -40 198 -40q82 0 124.5 31t42.5 88q-4 56 -35 83.5t-136 66.5q-100 36 -142.5 84.5t-42.5 127.5q0 81 62 131q61 49 164 49q107 0 196 -39l-26 -72q-87 37 -172 37q-66 0 -103 -28.5t-37 -78.5
q3 -58 31.5 -85t127.5 -63q115 -41 155 -86q42 -47 42 -119zM231 771v12q27 36 50 73q27 41 43 75h99v-10q-29 -40 -65 -79q-40 -44 -73 -71h-54z" />
    <glyph glyph-name="sacute" unicode="&#x15b;" horiz-adv-x="477" 
d="M431 146q0 -75 -55.5 -115.5t-156.5 -40.5q-107 0 -166 34v75q87 -42 168 -42q132 0 132 82q0 31 -27 53q-29 24 -106 53q-76 30 -106 48q-62 42 -62 111q0 65 53 103t146 38q85 0 169 -35l-29 -66q-80 33 -146 33q-116 0 -116 -68q0 -20 11 -37q11 -15 35 -29
q27 -14 94 -39q96 -35 128 -70q34 -34 34 -88zM181 606v12q27 36 50 73q27 41 43 75h99v-10q-29 -40 -65 -79q-40 -44 -73 -71h-54z" />
    <glyph glyph-name="Scircumflex" unicode="&#x15c;" horiz-adv-x="549" 
d="M501 190q0 -93 -68.5 -146.5t-185.5 -53.5q-127 0 -195 33v80q94 -40 198 -40q82 0 124.5 31t42.5 88q-4 56 -35 83.5t-136 66.5q-100 36 -142.5 84.5t-42.5 127.5q0 81 62 131q61 49 164 49q107 0 196 -39l-26 -72q-87 37 -172 37q-66 0 -103 -28.5t-37 -78.5
q3 -58 31.5 -85t127.5 -63q115 -41 155 -86q42 -47 42 -119zM120 771v11q69 75 87 98q25 32 36 51h81q9 -17 37 -53q31 -37 88 -96v-11h-58q-45 28 -108 91q-64 -64 -107 -91h-56z" />
    <glyph glyph-name="scircumflex" unicode="&#x15d;" horiz-adv-x="477" 
d="M431 146q0 -75 -55.5 -115.5t-156.5 -40.5q-107 0 -166 34v75q87 -42 168 -42q132 0 132 82q0 31 -27 53q-29 24 -106 53q-76 30 -106 48q-62 42 -62 111q0 65 53 103t146 38q85 0 169 -35l-29 -66q-80 33 -146 33q-116 0 -116 -68q0 -20 11 -37q11 -15 35 -29
q27 -14 94 -39q96 -35 128 -70q34 -34 34 -88zM80 606v11q69 75 87 98q25 31 36 51h81q9 -17 37 -53q31 -37 88 -96v-11h-58q-45 28 -108 91q-64 -64 -107 -91h-56z" />
    <glyph glyph-name="Scedilla" unicode="&#x15e;" horiz-adv-x="549" 
d="M501 190q0 -93 -68.5 -146.5t-185.5 -53.5q-127 0 -195 33v80q94 -40 198 -40q82 0 124.5 31t42.5 88q-4 56 -35 83.5t-136 66.5q-100 36 -142.5 84.5t-42.5 127.5q0 81 62 131q61 49 164 49q107 0 196 -39l-26 -72q-87 37 -172 37q-66 0 -103 -28.5t-37 -78.5
q3 -58 31.5 -85t127.5 -63q115 -41 155 -86q42 -47 42 -119zM357 -141q0 -48 -38 -73.5t-110 -25.5q-27 0 -47 4v52q20 -4 51 -4q40 0 59 10.5t19 35.5q0 22 -20 34.5t-72 20.5l43 87h54l-27 -56q88 -19 88 -85z" />
    <glyph glyph-name="scedilla" unicode="&#x15f;" horiz-adv-x="477" 
d="M431 146q0 -75 -55.5 -115.5t-156.5 -40.5q-107 0 -166 34v75q87 -42 168 -42q132 0 132 82q0 31 -27 53q-29 24 -106 53q-76 30 -106 48q-62 42 -62 111q0 65 53 103t146 38q85 0 169 -35l-29 -66q-80 33 -146 33q-116 0 -116 -68q0 -20 11 -37q11 -15 35 -29
q27 -14 94 -39q96 -35 128 -70q34 -34 34 -88zM317 -141q0 -48 -38 -73.5t-110 -25.5q-27 0 -47 4v52q20 -4 51 -4q40 0 59 10.5t19 35.5q0 22 -20 34.5t-72 20.5l43 87h54l-27 -56q88 -19 88 -85z" />
    <glyph glyph-name="Scaron" unicode="&#x160;" horiz-adv-x="549" 
d="M501 190q0 -93 -68.5 -146.5t-185.5 -53.5q-127 0 -195 33v80q94 -40 198 -40q82 0 124.5 31t42.5 88q-4 56 -35 83.5t-136 66.5q-100 36 -142.5 84.5t-42.5 127.5q0 81 62 131q61 49 164 49q107 0 196 -39l-26 -72q-87 37 -172 37q-66 0 -103 -28.5t-37 -78.5
q3 -58 31.5 -85t127.5 -63q115 -41 155 -86q42 -47 42 -119zM117 919v12h56q56 -36 107 -92q64 64 108 92h58v-12l-32 -33q-71 -74 -93 -115h-81q-11 21 -36 50q-18 23 -87 98z" />
    <glyph glyph-name="scaron" unicode="&#x161;" horiz-adv-x="477" 
d="M431 146q0 -75 -55.5 -115.5t-156.5 -40.5q-107 0 -166 34v75q87 -42 168 -42q132 0 132 82q0 31 -27 53q-29 24 -106 53q-76 30 -106 48q-62 42 -62 111q0 65 53 103t146 38q85 0 169 -35l-29 -66q-80 33 -146 33q-116 0 -116 -68q0 -20 11 -37q11 -15 35 -29
q27 -14 94 -39q96 -35 128 -70q34 -34 34 -88zM81 754v12h56q56 -36 107 -92q64 64 108 92h58v-12l-32 -33q-71 -74 -93 -115h-81q-11 21 -36 50q-18 23 -87 98z" />
    <glyph glyph-name="Tcedilla" unicode="&#x162;" horiz-adv-x="553" 
d="M318 640v-640h-83v640h-226v74h535v-74h-226zM369 -141q0 -48 -38 -73.5t-110 -25.5q-27 0 -47 4v52q20 -4 51 -4q40 0 59 10.5t19 35.5q0 22 -20 34.5t-72 20.5l43 87h54l-27 -56q88 -19 88 -85z" />
    <glyph glyph-name="tcedilla" unicode="&#x163;" horiz-adv-x="353" 
d="M259 57q41 0 73 10v-62q-32 -15 -85 -15q-155 0 -155 164v318h-77v39l77 34l34 114h47v-124h155v-63h-155v-315q0 -48 23 -74t63 -26zM309 -141q0 -48 -38 -73.5t-110 -25.5q-27 0 -47 4v52q20 -4 51 -4q40 0 59 10.5t19 35.5q0 22 -20 34.5t-72 20.5l43 87h54l-27 -56
q88 -19 88 -85z" />
    <glyph glyph-name="Tcaron" unicode="&#x164;" horiz-adv-x="553" 
d="M318 640v-640h-83v640h-226v74h535v-74h-226zM113 919v12h56q56 -36 107 -92q64 64 108 92h58v-12l-32 -33q-71 -74 -93 -115h-81q-11 21 -36 50q-18 23 -87 98z" />
    <glyph glyph-name="tcaron" unicode="&#x165;" horiz-adv-x="353" 
d="M259 57q41 0 73 10v-62q-32 -15 -85 -15q-155 0 -155 164v318h-77v39l77 34l34 114h47v-124h155v-63h-155v-315q0 -48 23 -74t63 -26zM240 600v12q22 67 33 148h82v-9q-4 -24 -27 -71q-18 -41 -44 -80h-44z" />
    <glyph glyph-name="Tbar" unicode="&#x166;" horiz-adv-x="553" 
d="M82 398h153v242h-226v74h535v-74h-226v-242h151v-69h-151v-329h-83v329h-153v69z" />
    <glyph glyph-name="tbar" unicode="&#x167;" horiz-adv-x="353" 
d="M261 57q44 0 71 10v-62q-35 -15 -88 -15q-152 0 -152 170v124h-69v63h69v125h-77v39l77 34l34 114h47v-124h155v-63h-155v-125h147v-63h-147v-119q0 -108 88 -108z" />
    <glyph glyph-name="Utilde" unicode="&#x168;" horiz-adv-x="728" 
d="M554 714h83v-462q0 -122 -73.5 -192t-202.5 -70q-128 0 -199 70t-71 194v460h83v-466q0 -90 48.5 -137.5t143.5 -47.5q91 0 139.5 48t48.5 138v465zM439 772q-29 0 -80 29t-72 29q-24 0 -36.5 -14t-19.5 -45h-48q6 59 34 92.5t73 33.5q32 0 83.5 -29t69.5 -29
q23 0 35.5 14t19.5 45h48q-6 -60 -34 -93t-73 -33z" />
    <glyph glyph-name="utilde" unicode="&#x169;" horiz-adv-x="614" 
d="M80 535h82v-347q0 -130 123 -130q85 0 123.5 46t38.5 150v281h81v-535h-67l-12 72h-4q-51 -82 -170 -82q-99 0 -147 47t-48 148v350zM381 607q-29 0 -80 29t-72 29q-24 0 -36.5 -14t-19.5 -45h-48q6 59 34 92.5t73 33.5q32 0 83.5 -29t69.5 -29q23 0 35.5 14t19.5 45h48
q-6 -60 -34 -93t-73 -33z" />
    <glyph glyph-name="Umacron" unicode="&#x16a;" horiz-adv-x="728" 
d="M554 714h83v-462q0 -122 -73.5 -192t-202.5 -70q-128 0 -199 70t-71 194v460h83v-466q0 -90 48.5 -137.5t143.5 -47.5q91 0 139.5 48t48.5 138v465zM218 771v67h293v-67h-293z" />
    <glyph glyph-name="umacron" unicode="&#x16b;" horiz-adv-x="614" 
d="M80 535h82v-347q0 -130 123 -130q85 0 123.5 46t38.5 150v281h81v-535h-67l-12 72h-4q-51 -82 -170 -82q-99 0 -147 47t-48 148v350zM159 606v67h293v-67h-293z" />
    <glyph glyph-name="Ubreve" unicode="&#x16c;" horiz-adv-x="728" 
d="M554 714h83v-462q0 -122 -73.5 -192t-202.5 -70q-128 0 -199 70t-71 194v460h83v-466q0 -90 48.5 -137.5t143.5 -47.5q91 0 139.5 48t48.5 138v465zM360 771q-68 0 -106.5 33.5t-42.5 97.5h51q10 -39 26.5 -51t73.5 -13q48 0 72 15.5t29 48.5h51q-5 -62 -46 -96.5
t-108 -34.5z" />
    <glyph glyph-name="ubreve" unicode="&#x16d;" horiz-adv-x="614" 
d="M80 535h82v-347q0 -130 123 -130q85 0 123.5 46t38.5 150v281h81v-535h-67l-12 72h-4q-51 -82 -170 -82q-99 0 -147 47t-48 148v350zM301 606q-68 0 -106.5 33.5t-42.5 97.5h51q10 -39 26.5 -51t73.5 -13q48 0 72 15.5t29 48.5h51q-5 -62 -46 -96.5t-108 -34.5z" />
    <glyph glyph-name="Uring" unicode="&#x16e;" horiz-adv-x="728" 
d="M554 714h83v-462q0 -122 -73.5 -192t-202.5 -70q-128 0 -199 70t-71 194v460h83v-466q0 -90 48.5 -137.5t143.5 -47.5q91 0 139.5 48t48.5 138v465zM473 877q0 -48 -30 -77t-80 -29q-49 0 -78.5 28.5t-29.5 76.5t29.5 76t78.5 28t79.5 -29t30.5 -74zM420 876
q0 26 -16 41.5t-41 15.5t-41 -15.5t-16 -41.5q0 -57 57 -57q25 0 41 15.5t16 41.5z" />
    <glyph glyph-name="uring" unicode="&#x16f;" horiz-adv-x="614" 
d="M80 535h82v-347q0 -130 123 -130q85 0 123.5 46t38.5 150v281h81v-535h-67l-12 72h-4q-51 -82 -170 -82q-99 0 -147 47t-48 148v350zM414 712q0 -48 -30 -77t-80 -29q-49 0 -78.5 28.5t-29.5 76.5t29.5 76t78.5 28t79.5 -29t30.5 -74zM361 711q0 26 -16 41.5t-41 15.5
t-41 -15.5t-16 -41.5q0 -57 57 -57q25 0 41 15.5t16 41.5z" />
    <glyph glyph-name="Uhungarumlaut" unicode="&#x170;" horiz-adv-x="728" 
d="M554 714h83v-462q0 -122 -73.5 -192t-202.5 -70q-128 0 -199 70t-71 194v460h83v-466q0 -90 48.5 -137.5t143.5 -47.5q91 0 139.5 48t48.5 138v465zM223 771v12q20 30 44 69q28 46 42 79h91v-10q-17 -30 -60 -79q-45 -51 -70 -71h-47zM397 771v12q25 35 48 76
q20 35 38 72h91v-10q-17 -30 -60 -79q-45 -51 -70 -71h-47z" />
    <glyph glyph-name="uhungarumlaut" unicode="&#x171;" horiz-adv-x="614" 
d="M80 535h82v-347q0 -130 123 -130q85 0 123.5 46t38.5 150v281h81v-535h-67l-12 72h-4q-51 -82 -170 -82q-99 0 -147 47t-48 148v350zM164 606v12q20 30 44 69q28 46 42 79h91v-10q-17 -30 -60 -79q-45 -51 -70 -71h-47zM338 606v12q25 35 48 76q20 35 38 72h91v-10
q-17 -30 -60 -79q-45 -51 -70 -71h-47z" />
    <glyph glyph-name="Uogonek" unicode="&#x172;" horiz-adv-x="728" 
d="M554 714h83v-462q0 -122 -73.5 -192t-202.5 -70q-128 0 -199 70t-71 194v460h83v-466q0 -90 48.5 -137.5t143.5 -47.5q91 0 139.5 48t48.5 138v465zM353 -116q0 -46 46 -46q20 0 47 6v-53q-31 -9 -61 -9q-101 0 -101 92q0 69 77 126h59q-67 -65 -67 -116z" />
    <glyph glyph-name="uogonek" unicode="&#x173;" horiz-adv-x="614" 
d="M80 535h82v-347q0 -130 123 -130q85 0 123.5 46t38.5 150v281h81v-535h-67l-12 72h-4q-51 -82 -170 -82q-99 0 -147 47t-48 148v350zM456 -116q0 -46 46 -46q20 0 47 6v-53q-31 -9 -61 -9q-101 0 -101 92q0 69 77 126h59q-67 -65 -67 -116z" />
    <glyph glyph-name="Wcircumflex" unicode="&#x174;" horiz-adv-x="926" 
d="M912 714l-191 -714h-82l-144 478q-3 10 -23 80q-13 46 -13 58q-9 -57 -34 -141l-140 -475h-82l-190 714h88l113 -441q25 -103 34 -168q14 91 39 175l128 434h88l134 -438q23 -73 40 -171q8 64 35 169l112 440h88zM297 771v11q69 75 87 98q26 32 36 51h81q9 -17 37 -53
q31 -37 88 -96v-11h-58q-45 28 -108 91q-64 -64 -107 -91h-56z" />
    <glyph glyph-name="wcircumflex" unicode="&#x175;" horiz-adv-x="778" 
d="M619 0h-96l-98 314q-11 34 -35 131h-4q-21 -91 -34 -132l-101 -313h-94l-146 535h85l79 -307q26 -102 31 -142h4q4 24 17 72t21 70l98 307h88l96 -307q26 -80 37 -141h4q1 7 10 54l102 394h84zM225 606v11q69 75 87 98q26 31 36 51h81q9 -17 37 -53q31 -37 88 -96v-11
h-58q-45 28 -108 91q-64 -64 -107 -91h-56z" />
    <glyph glyph-name="Ycircumflex" unicode="&#x176;" horiz-adv-x="560" 
d="M91 714l189 -357l190 357h90l-238 -437v-277h-84v273l-238 441h91zM115 771v11q69 75 87 98q26 32 36 51h81q9 -17 37 -53q31 -37 88 -96v-11h-58q-45 28 -108 91q-64 -64 -107 -91h-56z" />
    <glyph glyph-name="ycircumflex" unicode="&#x177;" horiz-adv-x="504" 
d="M217 -3l-216 538h87l117 -305q39 -106 48 -151h4q4 18 26 85q23 68 133 371h87l-230 -609q-33 -89 -79 -127.5t-113 -38.5q-35 0 -73 8v65q27 -6 60 -6q83 0 119 94zM90 606v11q69 75 87 98q25 31 36 51h81q9 -17 37 -53q31 -37 88 -96v-11h-58q-45 28 -108 91
q-64 -64 -107 -91h-56z" />
    <glyph glyph-name="Ydieresis" unicode="&#x178;" horiz-adv-x="560" 
d="M91 714l189 -357l190 357h90l-238 -437v-277h-84v273l-238 441h91zM144 845q0 48 44 48q45 0 45 -48q0 -23 -13 -35.5t-32 -12.5t-31.5 12.5t-12.5 35.5zM330 845q0 48 44 48q45 0 45 -48q0 -23 -13 -35.5t-32 -12.5t-31.5 12.5t-12.5 35.5z" />
    <glyph glyph-name="Zacute" unicode="&#x179;" horiz-adv-x="571" 
d="M531 75v-75h-491v65l379 574h-367v75h468v-65l-379 -574h390zM224 771v12q27 36 50 73q27 41 43 75h99v-10q-29 -40 -65 -79q-40 -44 -73 -71h-54z" />
    <glyph glyph-name="zacute" unicode="&#x17a;" horiz-adv-x="468" 
d="M428 63v-63h-388v55l292 417h-274v63h363v-63l-288 -409h295zM180 606v12q27 36 50 73q27 41 43 75h99v-10q-29 -40 -65 -79q-40 -44 -73 -71h-54z" />
    <glyph glyph-name="Zdotaccent" unicode="&#x17b;" horiz-adv-x="571" 
d="M531 75v-75h-491v65l379 574h-367v75h468v-65l-379 -574h390zM237 845q0 54 48 54q20 0 34 -14t14 -40t-14 -40t-34 -14q-22 0 -35 14t-13 40z" />
    <glyph glyph-name="zdotaccent" unicode="&#x17c;" horiz-adv-x="468" 
d="M428 63v-63h-388v55l292 417h-274v63h363v-63l-288 -409h295zM188 680q0 54 48 54q20 0 34 -14t14 -40t-14 -40t-34 -14q-22 0 -35 14t-13 40z" />
    <glyph glyph-name="Zcaron" unicode="&#x17d;" horiz-adv-x="571" 
d="M531 75v-75h-491v65l379 574h-367v75h468v-65l-379 -574h390zM122 919v12h56q56 -36 107 -92q64 64 108 92h58v-12l-32 -33q-71 -74 -93 -115h-81q-11 21 -36 50q-18 23 -87 98z" />
    <glyph glyph-name="zcaron" unicode="&#x17e;" horiz-adv-x="468" 
d="M428 63v-63h-388v55l292 417h-274v63h363v-63l-288 -409h295zM71 754v12h56q56 -36 107 -92q64 64 108 92h58v-12l-32 -33q-71 -74 -93 -115h-81q-11 21 -36 50q-18 23 -87 98z" />
    <glyph glyph-name="longs" unicode="&#x17f;" horiz-adv-x="320" 
d="M167 577v-577h-81v576q0 189 175 189q47 0 96 -18l-21 -65q-44 15 -78 15q-91 0 -91 -120z" />
    <glyph glyph-name="uni018f" unicode="&#x18f;" horiz-adv-x="730" 
d="M324 651q-113 0 -221 -37v77q106 34 224 34q162 0 251.5 -97.5t89.5 -271.5q0 -172 -85 -269q-84 -97 -235 -97q-291 0 -291 365v34h523q-17 262 -256 262zM348 64q103 0 163.5 65.5t68.5 186.5h-434q0 -129 50 -190.5t152 -61.5z" />
    <glyph glyph-name="florin" unicode="&#x192;" horiz-adv-x="577" 
d="M160 -240q-34 0 -65 9v68q35 -9 64 -9q46 0 65 24.5t19 80.5v475h-108v37l108 29v68q0 96 39.5 139t128.5 43q41 0 100 -21l-11 -31l-10 -32q-48 16 -79 16q-48 0 -67.5 -26t-19.5 -86v-73h138v-63h-136v-473q0 -91 -39 -133t-127 -42z" />
    <glyph glyph-name="Ohorn" unicode="&#x1a0;" horiz-adv-x="780" 
d="M717 358q0 -174 -87 -271t-240 -97q-158 0 -243.5 96t-85.5 273q0 176 86 271t244 95q159 0 246 -105q26 6 39 22q27 33 27 118h89l7 -11q-14 -74 -45.5 -117t-83.5 -62q47 -86 47 -212zM149 358q0 -295 241 -295q239 0 239 295q0 144 -60 218.5t-178 74.5
q-119 0 -180.5 -74t-61.5 -219z" />
    <glyph glyph-name="ohorn" unicode="&#x1a1;" horiz-adv-x="609" 
d="M548 268q0 -131 -66 -204.5t-182 -73.5q-109 0 -176.5 76t-67.5 202q0 131 65.5 204t181.5 73q105 0 173 -69q27 8 39 23q15 16 21 41t6 77h88l7 -11q-15 -76 -44.5 -119t-79.5 -61q35 -68 35 -158zM140 268q0 -210 162 -210t162 210q0 208 -163 208q-83 0 -122 -52
t-39 -156z" />
    <glyph glyph-name="Uhorn" unicode="&#x1af;" horiz-adv-x="768" 
d="M554 714h83v-97q45 9 61 37.5t17 105.5h88l7 -11q-16 -88 -57.5 -133.5t-115.5 -57.5v-306q0 -126 -70 -194t-199 -68q-131 0 -204 70t-73 194v460h83v-466q0 -90 50 -137.5t146 -47.5q90 0 137 47t47 139v465z" />
    <glyph glyph-name="uhorn" unicode="&#x1b0;" horiz-adv-x="665" 
d="M80 534h82v-346q0 -130 123 -130q85 0 123.5 46t38.5 150v280h81v-59q41 5 58.5 37t17.5 106h87l7 -11q-29 -177 -170 -191v-416h-67l-12 72h-4q-54 -82 -168 -82q-100 0 -148.5 47t-48.5 148v349z" />
    <glyph glyph-name="uni01F0" unicode="&#x1f0;" horiz-adv-x="253" 
d="M21 -240q-47 0 -75 12v66q31 -10 66 -10q74 0 74 84v623h81v-617q0 -158 -146 -158zM-36 754v12h56q56 -36 107 -92q64 64 108 92h58v-12l-32 -33q-71 -74 -93 -115h-81q-11 21 -36 50q-18 23 -87 98z" />
    <glyph glyph-name="Aringacute" unicode="&#x1fa;" horiz-adv-x="635" 
d="M426 698q0 -65 -51 -92l260 -606h-85l-86 196h-298l-81 -196h-85l260 605q-52 25 -52 92q0 48 29.5 76.5t78.5 28.5t79.5 -28.5t30.5 -75.5zM196 271h243l-87 211q-14 33 -35 99q-15 -45 -19 -56q-5 -15 -16 -45zM270 827v9q19 22 49 65q25 36 36 57h99v-8
q-14 -19 -57 -62q-36 -34 -73 -61h-54zM373 697q0 27 -16 42t-41 15t-41 -15t-16 -42q0 -57 57 -57q26 0 41.5 15t15.5 42z" />
    <glyph glyph-name="aringacute" unicode="&#x1fb;" 
d="M289 856h-59v8q19 16 48 49q31 37 37 45h127v-6q-22 -28 -153 -96zM475 0h-60l-16 76h-4q-39 -49 -78.5 -67.5t-100.5 -18.5q-81 0 -125.5 41.5t-44.5 116.5q0 163 262 170l88 3v33q0 64 -29 93.5t-94 29.5q-71 0 -163 -41l-27 62q90 46 192 46q103 0 151.5 -43
t48.5 -136v-365zM232 57q76 0 119 41.5t43 116.5v48l-81 -3q-97 -4 -139.5 -30.5t-42.5 -82.5q0 -44 26.5 -67t74.5 -23zM392 712q0 -48 -30 -77t-80 -29q-49 0 -78.5 28.5t-29.5 76.5t29.5 76t78.5 28q50 0 80 -29t30 -74zM339 711q0 26 -16 41.5t-41 15.5t-41 -15.5
t-16 -41.5q0 -57 57 -57q26 0 41.5 15t15.5 42z" />
    <glyph glyph-name="AEacute" unicode="&#x1fc;" horiz-adv-x="873" 
d="M813 74v-74h-366v227h-251l-111 -227h-86l341 714h473v-74h-283v-230h264v-73h-264v-263h283zM389 640l-160 -338h218v338h-58zM479 771v12q27 36 50 73q27 41 43 75h99v-10q-29 -40 -65 -79q-40 -44 -73 -71h-54z" />
    <glyph glyph-name="aeacute" unicode="&#x1fd;" horiz-adv-x="858" 
d="M46 148q0 163 245 170l90 3v33q0 123 -115 123q-70 0 -150 -41l-25 62q82 46 181 46q125 0 164 -89q55 90 163 90q94 0 150 -65q57 -64 57 -174v-52h-342q4 -193 157 -193q83 0 162 36v-72q-78 -35 -164 -35q-141 0 -202 114q-39 -61 -87 -87.5t-114 -26.5
q-80 0 -125 41.5t-45 116.5zM131 147q0 -45 25.5 -67.5t69.5 -22.5q72 0 112.5 41.5t40.5 116.5v48l-77 -3q-91 -4 -131 -30.5t-40 -82.5zM598 477q-121 0 -132 -158h253q0 76 -31 117t-90 41zM382 606v12q27 36 50 73q27 41 43 75h99v-10q-29 -40 -65 -79q-40 -44 -73 -71
h-54z" />
    <glyph glyph-name="Oslashacute" unicode="&#x1fe;" horiz-adv-x="779" 
d="M718 358q0 -171 -87 -270q-87 -98 -241 -98q-116 0 -187 49l-49 -69l-59 39l53 75q-87 97 -87 275q0 174 86 270t244 96q103 0 179 -46l47 66l59 -39l-52 -72q94 -98 94 -276zM630 358q0 133 -54 208l-328 -463q55 -40 142 -40q240 0 240 295zM149 358q0 -129 49 -203
l327 460q-53 36 -134 36q-119 0 -180.5 -74.5t-61.5 -218.5zM329 771v12q27 36 50 73q27 41 43 75h99v-10q-29 -40 -65 -79q-40 -44 -73 -71h-54z" />
    <glyph glyph-name="oslashacute" unicode="&#x1ff;" horiz-adv-x="604" 
d="M548 268q0 -131 -66 -204.5t-182 -73.5q-75 0 -130 34l-41 -57l-56 38l46 64q-63 73 -63 199q0 131 65.5 204t181.5 73q76 0 132 -37l41 58l57 -37l-47 -65q62 -74 62 -196zM140 268q0 -83 26 -133l227 315q-38 26 -92 26q-161 0 -161 -208zM464 268q0 80 -25 129
l-227 -314q34 -25 90 -25q79 0 120.5 53.5t41.5 156.5zM234 606v12q27 36 50 73q27 41 43 75h99v-10q-29 -40 -65 -79q-40 -44 -73 -71h-54z" />
    <glyph glyph-name="Scommaaccent" unicode="&#x218;" horiz-adv-x="549" 
d="M501 190q0 -93 -68.5 -146.5t-185.5 -53.5q-127 0 -195 33v80q94 -40 198 -40q82 0 124.5 31t42.5 88q-4 56 -35 83.5t-136 66.5q-100 36 -142.5 84.5t-42.5 127.5q0 81 62 131q61 49 164 49q107 0 196 -39l-26 -72q-87 37 -172 37q-66 0 -103 -28.5t-37 -78.5
q3 -58 31.5 -85t127.5 -63q115 -41 155 -86q42 -47 42 -119zM183 -221v12q15 36 26 77q13 42 16 71h82v-9q-4 -24 -29 -72q-25 -49 -51 -79h-44z" />
    <glyph glyph-name="scommaaccent" unicode="&#x219;" horiz-adv-x="477" 
d="M431 146q0 -75 -55.5 -115.5t-156.5 -40.5q-107 0 -166 34v75q87 -42 168 -42q132 0 132 82q0 31 -27 53q-29 24 -106 53q-76 30 -106 48q-62 42 -62 111q0 65 53 103t146 38q85 0 169 -35l-29 -66q-80 33 -146 33q-116 0 -116 -68q0 -20 11 -37q11 -15 35 -29
q27 -14 94 -39q96 -35 128 -70q34 -34 34 -88zM145 -221v12q15 36 26 77q13 42 16 71h82v-9q-4 -24 -29 -72q-25 -49 -51 -79h-44z" />
    <glyph glyph-name="Tcommaaccent" unicode="&#x21a;" horiz-adv-x="553" 
d="M318 640v-640h-83v640h-226v74h535v-74h-226zM192 -221v12q15 36 26 77q13 42 16 71h82v-9q-4 -24 -29 -72q-25 -49 -51 -79h-44z" />
    <glyph glyph-name="tcommaaccent" unicode="&#x21b;" horiz-adv-x="353" 
d="M259 57q41 0 73 10v-62q-32 -15 -85 -15q-155 0 -155 164v318h-77v39l77 34l34 114h47v-124h155v-63h-155v-315q0 -48 23 -74t63 -26zM118 -221v12q15 36 26 77q13 42 16 71h82v-9q-4 -24 -29 -72q-25 -49 -51 -79h-44z" />
    <glyph glyph-name="dotlessj" unicode="&#x237;" horiz-adv-x="253" 
d="M21 -240q-47 0 -75 12v66q31 -10 66 -10q74 0 74 84v623h81v-617q0 -158 -146 -158z" />
    <glyph glyph-name="uni0259" unicode="&#x259;" horiz-adv-x="559" 
d="M247 545q120 0 188 -73.5t68 -200.5q0 -129 -64 -205q-63 -76 -169 -76q-102 0 -161 65q-59 67 -59 176v51h369q-4 191 -171 191q-91 0 -175 -36v72q85 36 174 36zM271 58q65 0 102.5 40.5t43.5 116.5h-280q0 -77 34.5 -117t99.5 -40z" />
    <glyph glyph-name="uni02BC" unicode="&#x2bc;" horiz-adv-x="170" 
d="M62 714h89l7 -11q-12 -49 -36 -114q-22 -59 -50 -120h-60q32 130 50 245z" />
    <glyph glyph-name="circumflex" unicode="&#x2c6;" horiz-adv-x="592" 
d="M131 606v11q69 75 87 98q26 31 36 51h81q9 -17 37 -53q31 -37 88 -96v-11h-58q-45 28 -108 91q-64 -64 -107 -91h-56z" />
    <glyph glyph-name="caron" unicode="&#x2c7;" horiz-adv-x="592" 
d="M131 754v12h56q56 -36 107 -92q64 64 108 92h58v-12l-32 -33q-71 -74 -93 -115h-81q-11 21 -36 50q-18 23 -87 98z" />
    <glyph glyph-name="macron" unicode="&#x2c9;" horiz-adv-x="587" 
d="M147 606v67h293v-67h-293z" />
    <glyph glyph-name="breve" unicode="&#x2d8;" horiz-adv-x="592" 
d="M292 606q-68 0 -106.5 33.5t-42.5 97.5h51q10 -39 26.5 -51t73.5 -13q48 0 72 15.5t29 48.5h51q-5 -62 -46 -96.5t-108 -34.5z" />
    <glyph glyph-name="dotaccent" unicode="&#x2d9;" horiz-adv-x="253" 
d="M79 680q0 54 48 54q20 0 34 -14t14 -40t-14 -40t-34 -14q-22 0 -35 14t-13 40z" />
    <glyph glyph-name="ring" unicode="&#x2da;" horiz-adv-x="577" 
d="M397 712q0 -48 -30 -77t-80 -29q-49 0 -78.5 28.5t-29.5 76.5t29.5 76t78.5 28t79.5 -29t30.5 -74zM344 711q0 26 -16 41.5t-41 15.5t-41 -15.5t-16 -41.5q0 -57 57 -57q25 0 41 15.5t16 41.5z" />
    <glyph glyph-name="ogonek" unicode="&#x2db;" horiz-adv-x="197" 
d="M87 -116q0 -46 46 -46q20 0 47 6v-53q-31 -9 -61 -9q-101 0 -101 92q0 69 77 126h59q-67 -65 -67 -116z" />
    <glyph glyph-name="tilde" unicode="&#x2dc;" horiz-adv-x="592" 
d="M385 607q-29 0 -80.5 29t-71.5 29q-24 0 -36.5 -14t-19.5 -45h-48q6 59 34 92.5t73 33.5q32 0 83.5 -29t69.5 -29q23 0 35.5 14t19.5 45h48q-6 -60 -34 -93t-73 -33z" />
    <glyph glyph-name="hungarumlaut" unicode="&#x2dd;" horiz-adv-x="577" 
d="M113 606v12q20 30 44 69q28 46 42 79h91v-10q-17 -30 -60 -79q-45 -51 -70 -71h-47zM287 606v12q25 35 48 76q20 35 38 72h91v-10q-17 -30 -60 -79q-45 -51 -70 -71h-47z" />
    <glyph glyph-name="uni02F3" unicode="&#x2f3;" horiz-adv-x="333" 
d="M276 -165q0 -47 -30.5 -76.5t-80.5 -29.5q-49 0 -78.5 28.5t-29.5 76.5t29.5 76.5t78.5 28.5t80 -29t31 -75zM222 -166q0 27 -16 42t-41 15t-41 -15t-16 -42q0 -57 57 -57q26 0 41.5 15t15.5 42z" />
    <glyph glyph-name="uni0300" unicode="&#x300;" horiz-adv-x="0" 
d="M-267 618v-12h-54q-31 26 -75 72t-63 78v10h99q19 -40 44 -78q30 -49 49 -70z" />
    <glyph glyph-name="uni0301" unicode="&#x301;" horiz-adv-x="0" 
d="M-369 606v12q25 33 51 73q27 43 42 75h99v-10q-28 -39 -64 -79q-43 -46 -74 -71h-54z" />
    <glyph glyph-name="uni0303" unicode="&#x303;" horiz-adv-x="0" 
d="M-232 607q-30 0 -81 29t-71 29q-24 0 -36.5 -14t-19.5 -45h-48q6 59 34 92.5t73 33.5q32 0 83.5 -29t69.5 -29q23 0 35.5 14t19.5 45h48q-6 -60 -34 -93t-73 -33z" />
    <glyph glyph-name="hook" unicode="&#x309;" horiz-adv-x="0" 
d="M-194 730q0 -68 -81 -85l-5 -55h-51l-6 86q42 7 61 19t19 33q0 41 -68 41q-29 0 -46 -3v49q20 5 52 5q125 0 125 -90z" />
    <glyph glyph-name="uni030F" unicode="&#x30f;" horiz-adv-x="0" 
d="M-162 618v-12h-47q-22 17 -68 69q-45 51 -62 81v10h91q41 -86 86 -148zM-336 618v-12h-47q-28 22 -69 70q-44 50 -61 80v10h91q41 -86 86 -148z" />
    <glyph glyph-name="dotbelow" unicode="&#x323;" horiz-adv-x="0" 
d="M-346 -118q0 26 14 40t35 14t34.5 -13.5t13.5 -40.5q0 -26 -13.5 -40t-34.5 -14t-35 14t-14 40z" />
    <glyph glyph-name="tonos" unicode="&#x384;" horiz-adv-x="577" 
d="M248 606v14q11 28 26 90q12 50 19 96h90v-11q-9 -35 -36 -94q-23 -53 -50 -95h-49z" />
    <glyph glyph-name="dieresistonos" unicode="&#x385;" horiz-adv-x="577" 
d="M250 678v12q33 86 47 148h92v-10q-19 -37 -46 -77q-27 -41 -54 -73h-39zM138 680q0 48 44 48t44 -48q0 -23 -13 -35.5t-31 -12.5q-19 0 -31.5 12.5t-12.5 35.5zM351 680q0 48 44 48t44 -48q0 -23 -13 -35.5t-31 -12.5q-20 0 -32 12.5t-12 35.5z" />
    <glyph glyph-name="Alphatonos" unicode="&#x386;" horiz-adv-x="633" 
d="M633 0h-86l-89 227h-286l-88 -227h-84l282 717h70zM201 302h231l-83 221q-17 43 -33 103q-9 -41 -31 -103zM14 555v14q11 28 26 90q12 50 19 96h90v-11q-9 -35 -36 -94q-23 -53 -50 -95h-49z" />
    <glyph glyph-name="anoteleia" unicode="&#x387;" horiz-adv-x="266" 
d="M74 353q0 66 58 66q28 0 44 -17t16 -49t-16 -49t-44 -17q-58 0 -58 66z" />
    <glyph glyph-name="Epsilontonos" unicode="&#x388;" horiz-adv-x="618" 
d="M557 74v-74h-398v714h398v-74h-315v-230h296v-73h-296v-263h315zM-22 555v14q11 28 26 90q12 50 19 96h90v-11q-9 -35 -36 -94q-23 -53 -50 -95h-49z" />
    <glyph glyph-name="Etatonos" unicode="&#x389;" horiz-adv-x="811" 
d="M713 714v-714h-83v336h-376v-336h-83v714h83v-304h376v304h83zM-22 555v14q11 28 26 90q12 50 19 96h90v-11q-9 -35 -36 -94q-23 -53 -50 -95h-49z" />
    <glyph glyph-name="Iotatonos" unicode="&#x38a;" horiz-adv-x="362" 
d="M264 0h-83v714h83v-714zM-14 555v14q11 28 26 90q12 50 19 96h90v-11q-9 -35 -36 -94q-23 -53 -50 -95h-49z" />
    <glyph glyph-name="Omicrontonos" unicode="&#x38c;" horiz-adv-x="813" 
d="M751 358q0 -171 -87 -270q-87 -98 -241 -98q-158 0 -243.5 96t-85.5 273q0 174 86 270t244 96q154 0 240 -98q87 -98 87 -269zM182 358q0 -145 61.5 -220t179.5 -75q240 0 240 295q0 144 -60.5 218.5t-178.5 74.5q-119 0 -180.5 -74.5t-61.5 -218.5zM-14 555v14
q11 28 26 90q12 50 19 96h90v-11q-9 -35 -36 -94q-23 -53 -50 -95h-49z" />
    <glyph glyph-name="Upsilontonos" unicode="&#x38e;" horiz-adv-x="690" 
d="M221 714l189 -357l190 357h90l-238 -437v-277h-84v273l-238 441h91zM-22 555v14q11 28 26 90q12 50 19 96h90v-11q-9 -35 -36 -94q-23 -53 -50 -95h-49z" />
    <glyph glyph-name="Omegatonos" unicode="&#x38f;" horiz-adv-x="813" 
d="M422 651q-117 0 -177.5 -63t-60.5 -186q0 -110 42 -191.5t130 -145.5v-65h-286v74h178q-74 57 -113 142.5t-39 185.5q0 151 86 237q88 86 240 86q154 0 240.5 -84.5t86.5 -237.5q0 -209 -151 -329h177v-74h-286v65q89 65 130.5 146.5t41.5 190.5q0 123 -61 186t-178 63z
M-14 555v14q11 28 26 90q12 50 19 96h90v-11q-9 -35 -36 -94q-23 -53 -50 -95h-49z" />
    <glyph glyph-name="iotadieresistonos" unicode="&#x390;" horiz-adv-x="339" 
d="M82 535h81v-378q0 -52 18.5 -76t59.5 -24q47 0 81 10v-62q-38 -15 -91 -15q-77 0 -113 40.5t-36 124.5v380zM101 678v12q33 86 47 148h92v-10q-19 -37 -46 -77q-27 -41 -54 -73h-39zM-11 680q0 48 44 48t44 -48q0 -23 -13 -35.5t-31 -12.5q-19 0 -31.5 12.5t-12.5 35.5z
M202 680q0 48 44 48t44 -48q0 -23 -13 -35.5t-31 -12.5q-20 0 -32 12.5t-12 35.5z" />
    <glyph glyph-name="Alpha" unicode="&#x391;" horiz-adv-x="633" 
d="M633 0h-86l-89 227h-286l-88 -227h-84l282 717h70zM201 302h231l-83 221q-17 43 -33 103q-9 -41 -31 -103z" />
    <glyph glyph-name="Beta" unicode="&#x392;" horiz-adv-x="648" 
d="M98 0v714h202q141 0 205 -42t64 -135q0 -64 -35.5 -105t-103.5 -53v-5q163 -28 163 -171q0 -96 -65 -149.5t-181 -53.5h-249zM181 642v-234h137q88 0 126.5 27.5t38.5 93.5q0 60 -43 86.5t-137 26.5h-122zM323 338h-142v-267h149q174 0 174 138q0 66 -44.5 97.5
t-136.5 31.5z" />
    <glyph glyph-name="Gamma" unicode="&#x393;" horiz-adv-x="520" 
d="M98 714h398v-75h-315v-639h-83v714z" />
    <glyph glyph-name="uni0394" unicode="&#x394;" horiz-adv-x="572" 
d="M19 0v51l226 663h81l227 -664v-50h-534zM285 619q-34 -124 -49 -169l-127 -376h352l-126 372q-34 101 -50 173z" />
    <glyph glyph-name="Epsilon" unicode="&#x395;" 
d="M496 74v-74h-398v714h398v-74h-315v-230h296v-73h-296v-263h315z" />
    <glyph glyph-name="Zeta" unicode="&#x396;" horiz-adv-x="571" 
d="M531 75v-75h-491v65l379 574h-367v75h468v-65l-379 -574h390z" />
    <glyph glyph-name="Eta" unicode="&#x397;" horiz-adv-x="738" 
d="M640 714v-714h-83v336h-376v-336h-83v714h83v-304h376v304h83z" />
    <glyph glyph-name="Theta" unicode="&#x398;" horiz-adv-x="779" 
d="M236 327v73h307v-73h-307zM718 358q0 -171 -87 -270q-87 -98 -241 -98q-158 0 -243.5 96t-85.5 273q0 174 86 270t244 96q154 0 240 -98q87 -98 87 -269zM149 358q0 -145 61 -220t180 -75q240 0 240 295q0 145 -60.5 219t-178.5 74q-120 0 -181 -74.5t-61 -218.5z" />
    <glyph glyph-name="Iota" unicode="&#x399;" horiz-adv-x="279" 
d="M181 0h-83v714h83v-714z" />
    <glyph glyph-name="Kappa" unicode="&#x39a;" horiz-adv-x="614" 
d="M316 404l298 -404h-98l-260 346l-75 -66v-280h-83v714h83v-354l324 354h98z" />
    <glyph glyph-name="Lambda" unicode="&#x39b;" horiz-adv-x="603" 
d="M344 714l259 -714h-89l-161 453q-43 127 -53 167q-17 -71 -51 -166l-160 -454h-89l258 714h86z" />
    <glyph glyph-name="Mu" unicode="&#x39c;" horiz-adv-x="903" 
d="M481 0h-67l-242 633h-4q7 -70 7 -179v-454h-77v714h125l226 -589h4l228 589h124v-714h-83v460q0 85 7 172h-4z" />
    <glyph glyph-name="Nu" unicode="&#x39d;" horiz-adv-x="754" 
d="M656 714v-714h-95l-390 599h-4q8 -112 8 -193v-406h-77v714h94l389 -597h4l-5 84q-3 77 -2 103v410h78z" />
    <glyph glyph-name="Xi" unicode="&#x39e;" horiz-adv-x="553" 
d="M95 337v73h363v-73h-363zM55 640v74h443v-74h-443zM35 74h483v-74h-483v74z" />
    <glyph glyph-name="Omicron" unicode="&#x39f;" horiz-adv-x="779" 
d="M718 358q0 -171 -87 -270q-87 -98 -241 -98q-158 0 -243.5 96t-85.5 273q0 174 86 270t244 96q154 0 240 -98q87 -98 87 -269zM149 358q0 -145 61.5 -220t179.5 -75q240 0 240 295q0 144 -60.5 218.5t-178.5 74.5q-119 0 -180.5 -74.5t-61.5 -218.5z" />
    <glyph glyph-name="Pi" unicode="&#x3a0;" horiz-adv-x="729" 
d="M631 714v-714h-83v640h-367v-640h-83v714h533z" />
    <glyph glyph-name="Rho" unicode="&#x3a1;" horiz-adv-x="602" 
d="M551 506q0 -109 -74 -167t-212 -58h-84v-281h-83v714h185q268 0 268 -208zM181 642v-290h75q110 0 159.5 35.5t49.5 114.5q0 71 -46.5 105.5t-144.5 34.5h-93z" />
    <glyph glyph-name="Sigma" unicode="&#x3a3;" horiz-adv-x="567" 
d="M545 0h-509v69l235 304l-229 271v70h474v-75h-330l-47 1l225 -266l-235 -300h416v-74z" />
    <glyph glyph-name="Tau" unicode="&#x3a4;" horiz-adv-x="553" 
d="M318 640v-640h-83v640h-226v74h535v-74h-226z" />
    <glyph glyph-name="Upsilon" unicode="&#x3a5;" horiz-adv-x="560" 
d="M91 714l189 -357l190 357h90l-238 -437v-277h-84v273l-238 441h91z" />
    <glyph glyph-name="Phi" unicode="&#x3a6;" horiz-adv-x="798" 
d="M357 636v88h84v-88h34q125 0 198 -72.5t73 -192.5q-1 -123 -80 -198.5t-205 -72.5h-20v-110h-84v110h-22q-126 -4 -204.5 73t-78.5 197q0 118 74 192t198 74h33zM441 565v-395h12q98 0 152.5 53.5t54.5 148.5q0 90 -50.5 141.5t-140.5 51.5h-28zM357 170v395h-28
q-89 0 -140 -52t-51 -141q0 -96 54.5 -149t152.5 -53h12z" />
    <glyph glyph-name="Chi" unicode="&#x3a7;" horiz-adv-x="577" 
d="M335 376l238 -376h-94l-192 314l-195 -314h-88l237 373l-221 341h92l177 -283l179 283h88z" />
    <glyph glyph-name="Psi" unicode="&#x3a8;" horiz-adv-x="796" 
d="M439 218v-218h-83v218h-22q-127 -3 -203.5 68t-77.5 192v236h85v-234q0 -190 205 -190h13v424h83v-424h14q102 0 153 48t51 140v236h86v-235q0 -123 -76.5 -192t-205.5 -69h-22z" />
    <glyph glyph-name="uni03A9" unicode="&#x3a9;" horiz-adv-x="782" 
d="M391 651q-117 0 -177.5 -63t-60.5 -186q0 -110 42 -191.5t130 -145.5v-65h-286v74h178q-74 57 -113 142.5t-39 185.5q0 151 86 237q88 86 240 86q154 0 240.5 -84.5t86.5 -237.5q0 -209 -151 -329h177v-74h-286v65q89 65 130.5 146.5t41.5 190.5q0 123 -61 186t-178 63z
" />
    <glyph glyph-name="Iotadieresis" unicode="&#x3aa;" horiz-adv-x="279" 
d="M181 0h-83v714h83v-714zM3 845q0 48 44 48q45 0 45 -48q0 -23 -13 -35.5t-32 -12.5t-31.5 12.5t-12.5 35.5zM189 845q0 48 44 48q45 0 45 -48q0 -23 -13 -35.5t-32 -12.5t-31.5 12.5t-12.5 35.5z" />
    <glyph glyph-name="Upsilondieresis" unicode="&#x3ab;" horiz-adv-x="560" 
d="M91 714l189 -357l190 357h90l-238 -437v-277h-84v273l-238 441h91zM143 845q0 48 44 48q45 0 45 -48q0 -23 -13 -35.5t-32 -12.5t-31.5 12.5t-12.5 35.5zM329 845q0 48 44 48q45 0 45 -48q0 -23 -13 -35.5t-32 -12.5t-31.5 12.5t-12.5 35.5z" />
    <glyph glyph-name="alphatonos" unicode="&#x3ac;" horiz-adv-x="611" 
d="M289 58q83 0 119.5 47.5t36.5 154.5v7q0 112 -37 160.5t-120 48.5q-148 0 -148 -211q0 -207 149 -207zM277 -10q-105 0 -163 72.5t-58 203.5q0 134 59.5 206.5t169.5 72.5q112 0 164 -82h6q12 44 32 72h63q-9 -26 -17 -92q-7 -56 -7 -117v-214q0 -56 41 -56q12 0 30 5
v-58q-22 -13 -54 -13q-39 0 -61 20t-31 62h-6q-57 -82 -168 -82zM262 606v14q11 28 26 90q12 50 19 96h90v-11q-9 -35 -36 -94q-23 -53 -50 -95h-49z" />
    <glyph glyph-name="epsilontonos" unicode="&#x3ad;" horiz-adv-x="475" 
d="M295 313h54v-69h-72q-152 0 -152 -95q0 -92 143 -92q83 0 171 42v-72q-67 -37 -175 -37q-102 0 -161 41.5t-59 113.5q0 49 27.5 80.5t89.5 51.5v5q-100 30 -100 121q0 65 54.5 103.5t148.5 38.5q92 0 177 -38l-31 -65q-77 34 -148 34q-122 0 -122 -79q0 -84 155 -84z
M221 606v14q11 28 26 90q12 50 19 96h90v-11q-9 -35 -36 -94q-23 -53 -50 -95h-49z" />
    <glyph glyph-name="etatonos" unicode="&#x3ae;" horiz-adv-x="614" 
d="M533 -240h-81v586q0 66 -30 98t-93 32q-85 0 -123.5 -46t-38.5 -149v-281h-81v535h66l13 -73h4q25 39 70 61t100 22q98 0 146 -47t48 -149v-589zM277 606v14q11 28 26 90q12 50 19 96h90v-11q-9 -35 -36 -94q-23 -53 -50 -95h-49z" />
    <glyph glyph-name="iotatonos" unicode="&#x3af;" horiz-adv-x="339" 
d="M82 535h81v-378q0 -52 18.5 -76t59.5 -24q47 0 81 10v-62q-38 -15 -91 -15q-77 0 -113 40.5t-36 124.5v380zM94 606v14q11 28 26 90q12 50 19 96h90v-11q-9 -35 -36 -94q-23 -53 -50 -95h-49z" />
    <glyph glyph-name="upsilondieresistonos" unicode="&#x3b0;" horiz-adv-x="609" 
d="M306 -10q-114 0 -170 61.5t-56 190.5v293h81v-289q0 -189 152 -189q82 0 121 58t39 181q0 113 -30 239h81q18 -71 24 -123q7 -49 7 -120q0 -302 -249 -302zM279 678v12q33 86 47 148h92v-10q-19 -37 -46 -77q-27 -41 -54 -73h-39zM167 680q0 48 44 48t44 -48
q0 -23 -13 -35.5t-31 -12.5q-19 0 -31.5 12.5t-12.5 35.5zM380 680q0 48 44 48t44 -48q0 -23 -13 -35.5t-31 -12.5q-20 0 -32 12.5t-12 35.5z" />
    <glyph glyph-name="alpha" unicode="&#x3b1;" horiz-adv-x="611" 
d="M289 58q83 0 119.5 47.5t36.5 154.5v7q0 112 -37 160.5t-120 48.5q-148 0 -148 -211q0 -207 149 -207zM277 -10q-105 0 -163 72.5t-58 203.5q0 134 59.5 206.5t169.5 72.5q112 0 164 -82h6q12 44 32 72h63q-9 -26 -17 -92q-7 -56 -7 -117v-214q0 -56 41 -56q12 0 30 5
v-58q-22 -13 -54 -13q-39 0 -61 20t-31 62h-6q-57 -82 -168 -82z" />
    <glyph glyph-name="beta" unicode="&#x3b2;" horiz-adv-x="628" 
d="M322 765q107 0 168 -50.5t61 -140.5q0 -142 -153 -168v-4q184 -21 184 -200q0 -102 -64 -157t-181 -55q-99 0 -170 34v-264h-81v775q0 110 61.5 170t174.5 60zM321 697q-154 0 -154 -165v-433q79 -42 166 -42q168 0 168 150q0 77 -46 117t-133 40h-55v69h45q75 0 115 36
t40 103q0 60 -38 92.5t-108 32.5z" />
    <glyph glyph-name="gamma" unicode="&#x3b3;" horiz-adv-x="512" 
d="M260 -240h-88q0 47 15 119q18 77 37 127l-219 529h84l117 -285q46 -113 55 -165h4q4 18 13 49q1 3 8.5 28.5t11.5 37.5q8 24 125 335h84l-198 -522q-22 -59 -36 -131q-13 -69 -13 -122z" />
    <glyph glyph-name="delta" unicode="&#x3b4;" horiz-adv-x="580" 
d="M266 457q-67 38 -96 76.5t-29 87.5q0 64 47.5 101t127.5 37q97 0 204 -53l-35 -66q-95 52 -172 52q-42 0 -65.5 -19t-23.5 -52q0 -34 26 -62t108 -71q102 -56 145.5 -115t43.5 -139q0 -114 -66.5 -179t-181.5 -65q-111 0 -178 60q-66 61 -66 164q0 86 55.5 150t155.5 93z
M463 234q0 63 -30.5 107.5t-98.5 80.5q-194 -50 -194 -210q0 -70 43.5 -112t115.5 -42q79 0 121.5 45.5t42.5 130.5z" />
    <glyph glyph-name="epsilon" unicode="&#x3b5;" horiz-adv-x="475" 
d="M295 313h54v-69h-72q-152 0 -152 -95q0 -92 143 -92q83 0 171 42v-72q-67 -37 -175 -37q-102 0 -161 41.5t-59 113.5q0 49 27.5 80.5t89.5 51.5v5q-100 30 -100 121q0 65 54.5 103.5t148.5 38.5q92 0 177 -38l-31 -65q-77 34 -148 34q-122 0 -122 -79q0 -84 155 -84z" />
    <glyph glyph-name="zeta" unicode="&#x3b6;" horiz-adv-x="483" 
d="M204 691h-118v69h367v-63q-167 -144 -240.5 -249t-72.5 -219q0 -47 14 -77q15 -28 45 -46q32 -18 115 -36q73 -15 106 -42t33 -71q0 -73 -62 -153h-81q61 79 61 131q0 27 -27 42t-97 28q-99 17 -145 70t-46 149q0 105 56 205q30 50 77 103q58 65 167 163q-17 -4 -152 -4z
" />
    <glyph glyph-name="eta" unicode="&#x3b7;" horiz-adv-x="614" 
d="M533 -240h-81v586q0 66 -30 98t-93 32q-85 0 -123.5 -46t-38.5 -149v-281h-81v535h66l13 -73h4q25 39 70 61t100 22q98 0 146 -47t48 -149v-589z" />
    <glyph glyph-name="theta" unicode="&#x3b8;" horiz-adv-x="592" 
d="M536 381q0 -198 -59.5 -294.5t-181.5 -96.5q-117 0 -178 98.5t-61 292.5q0 390 239 390q119 0 180 -99t61 -291zM295 58q79 0 117.5 73.5t41.5 225.5h-316q2 -152 39.5 -225.5t117.5 -73.5zM295 703q-77 0 -114.5 -68.5t-42.5 -208.5h315q-5 140 -43 208.5t-115 68.5z
" />
    <glyph glyph-name="iota" unicode="&#x3b9;" horiz-adv-x="339" 
d="M82 535h81v-378q0 -52 18.5 -76t59.5 -24q47 0 81 10v-62q-38 -15 -91 -15q-77 0 -113 40.5t-36 124.5v380z" />
    <glyph glyph-name="kappa" unicode="&#x3ba;" horiz-adv-x="518" 
d="M167 260l231 274h101l-202 -235l216 -299h-98l-176 246l-66 -55v-191h-87v534h87v-138q0 -80 -6 -136z" />
    <glyph glyph-name="lambda" unicode="&#x3bb;" horiz-adv-x="534" 
d="M77 0h-84l231 527l-28 79q-22 58 -39 73.5t-57 19.5q-28 0 -56 -6v65q35 8 64 8q44 0 73 -15q30 -14 51.5 -46.5t48.5 -105.5l177 -494q18 -49 47 -49q11 0 29 5v-59q-22 -12 -53 -12q-35 0 -56 18t-35 60l-76 213q-43 124 -52 164h-4q-14 -57 -57 -159z" />
    <glyph glyph-name="uni03BC" unicode="&#x3bc;" horiz-adv-x="619" 
d="M167 535v-349q0 -128 124 -128q84 0 122.5 46t38.5 150v281h81v-535h-66l-13 72h-5q-54 -82 -166 -82q-73 0 -116 45h-5q5 -45 5 -119v-156h-81v775h81z" />
    <glyph glyph-name="nu" unicode="&#x3bd;" horiz-adv-x="542" 
d="M199 0l-199 535h84l107 -288q14 -35 33 -91q24 -72 28 -88h4q87 87 125 194q39 110 39 273h81q0 -177 -51 -301q-49 -123 -160 -234h-91z" />
    <glyph glyph-name="xi" unicode="&#x3be;" horiz-adv-x="475" 
d="M417 431v-63h-87q-86 0 -138 -43.5t-52 -112.5q0 -26 4.5 -45t18 -33.5t24.5 -23t37.5 -17t42 -12.5t51.5 -12q70 -14 102.5 -41t32.5 -71q0 -66 -59 -153h-76q58 78 58 132q0 27 -28 42t-98 27q-195 31 -195 200q0 68 38.5 119.5t101.5 70.5v6q-106 31 -106 137
q0 58 35 96.5t114 62.5q-63 -6 -119 -6h-33v69h341v-64h-25q-98 1 -167.5 -43.5t-67.5 -112.5q0 -56 41 -82.5t126 -26.5h83z" />
    <glyph glyph-name="omicron" unicode="&#x3bf;" horiz-adv-x="604" 
d="M548 268q0 -131 -66 -204.5t-182 -73.5q-109 0 -176.5 76t-67.5 202q0 131 65.5 204t181.5 73q113 0 179 -75q66 -74 66 -202zM140 268q0 -103 41 -156.5t121 -53.5q79 0 120.5 53.5t41.5 156.5q0 102 -41.5 155t-121.5 53q-161 0 -161 -208z" />
    <glyph glyph-name="pi" unicode="&#x3c0;" horiz-adv-x="650" 
d="M561 57q19 0 42 9v-64q-21 -12 -62 -12q-107 0 -107 124v352h-233v-466h-81v466h-108v36l70 33h537v-69h-104v-346q0 -63 46 -63z" />
    <glyph glyph-name="rho" unicode="&#x3c1;" horiz-adv-x="604" 
d="M548 268q0 -132 -62.5 -205t-176.5 -73q-88 0 -146 46h-4q4 -27 4 -133v-143h-82v515q0 130 61.5 200t175.5 70q107 0 168.5 -74t61.5 -203zM314 476q-151 0 -151 -203v-165q61 -50 149 -50q78 0 115 51t37 159q0 107 -35.5 157.5t-114.5 50.5z" />
    <glyph glyph-name="sigma1" unicode="&#x3c2;" horiz-adv-x="482" 
d="M140 255q2 -53 7.5 -79.5t26.5 -48t50.5 -32.5t92.5 -26q72 -16 104 -42t32 -70q0 -69 -59 -153h-76q59 76 59 131q0 28 -27 42t-99 28q-195 35 -195 249q0 140 67.5 215.5t188.5 75.5q81 0 142 -28l-26 -69q-62 25 -119 25q-86 0 -127.5 -53t-41.5 -165z" />
    <glyph glyph-name="sigma" unicode="&#x3c3;" horiz-adv-x="613" 
d="M547 248q0 -117 -67 -187.5t-180 -70.5q-115 0 -179.5 70.5t-64.5 194.5q0 280 289 280h244v-69h-129q87 -82 87 -218zM140 255q0 -95 41.5 -146t120.5 -51q77 0 119 48t42 137q0 132 -85 223h-32q-108 0 -157 -51t-49 -160z" />
    <glyph glyph-name="tau" unicode="&#x3c4;" horiz-adv-x="473" 
d="M81 535h366v-69h-211v-302q0 -109 100 -109q42 0 84 10v-61q-41 -16 -95 -16q-171 0 -171 166v312h-145v36z" />
    <glyph glyph-name="upsilon" unicode="&#x3c5;" horiz-adv-x="609" 
d="M306 -10q-114 0 -170 61.5t-56 190.5v293h81v-289q0 -189 152 -189q82 0 121 58t39 181q0 113 -30 239h81q18 -71 24 -123q7 -49 7 -120q0 -302 -249 -302z" />
    <glyph glyph-name="phi" unicode="&#x3c6;" horiz-adv-x="718" 
d="M394 -240h-80v231q-127 6 -192.5 77t-65.5 203q0 144 101 268l64 -44q-83 -111 -83 -227q0 -193 176 -210v303q0 90 40 137t114 47q88 0 141 -72q53 -71 53 -193q0 -130 -72.5 -206.5t-195.5 -82.5v-231zM578 279q0 90 -30 143.5t-80 53.5q-74 0 -74 -114v-304
q87 8 135.5 65.5t48.5 155.5z" />
    <glyph glyph-name="chi" unicode="&#x3c7;" horiz-adv-x="546" 
d="M87 538q25 0 45 -11q20 -10 35.5 -33t35.5 -76l71 -180l155 297h88l-209 -377l93 -236q22 -59 43 -78q20 -18 51 -18q24 0 44 4v-63q-27 -7 -58 -7q-57 0 -91 29t-63 106l-73 189l-177 -324h-87l227 408l-84 217q-19 47 -36 67t-38 20q-16 0 -31 -5v63q26 8 59 8z" />
    <glyph glyph-name="psi" unicode="&#x3c8;" horiz-adv-x="753" 
d="M339 759h80v-699q92 7 141.5 63.5t49.5 156.5q0 114 -31 255h81q31 -131 31 -252q0 -135 -69.5 -209.5t-202.5 -82.5v-231h-80v231q-259 11 -259 279v265h81v-268q0 -196 178 -208v700z" />
    <glyph glyph-name="omega" unicode="&#x3c9;" horiz-adv-x="773" 
d="M244 -10q-89 0 -138.5 72t-49.5 197q0 79 13 138q13 61 47 138h84q-34 -79 -47 -139q-14 -64 -14 -138q0 -94 29.5 -147t81.5 -53q46 0 71.5 35t25.5 96v152h79v-152q0 -62 26 -96.5t71 -34.5q52 0 81.5 53t29.5 147q0 137 -61 277h84q60 -133 60 -276q0 -124 -50 -196.5
t-138 -72.5q-108 0 -141 89h-4q-32 -89 -140 -89z" />
    <glyph glyph-name="iotadieresis" unicode="&#x3ca;" horiz-adv-x="339" 
d="M82 535h81v-378q0 -52 18.5 -76t59.5 -24q47 0 81 10v-62q-38 -15 -91 -15q-77 0 -113 40.5t-36 124.5v380zM5 680q0 48 44 48q45 0 45 -48q0 -23 -13 -35.5t-32 -12.5t-31.5 12.5t-12.5 35.5zM191 680q0 48 44 48q45 0 45 -48q0 -23 -13 -35.5t-32 -12.5t-31.5 12.5
t-12.5 35.5z" />
    <glyph glyph-name="upsilondieresis" unicode="&#x3cb;" horiz-adv-x="609" 
d="M306 -10q-114 0 -170 61.5t-56 190.5v293h81v-289q0 -189 152 -189q82 0 121 58t39 181q0 113 -30 239h81q18 -71 24 -123q7 -49 7 -120q0 -302 -249 -302zM179 680q0 48 44 48q45 0 45 -48q0 -23 -13 -35.5t-32 -12.5t-31.5 12.5t-12.5 35.5zM365 680q0 48 44 48
q45 0 45 -48q0 -23 -13 -35.5t-32 -12.5t-31.5 12.5t-12.5 35.5z" />
    <glyph glyph-name="omicrontonos" unicode="&#x3cc;" horiz-adv-x="604" 
d="M548 268q0 -131 -66 -204.5t-182 -73.5q-109 0 -176.5 76t-67.5 202q0 131 65.5 204t181.5 73q113 0 179 -75q66 -74 66 -202zM140 268q0 -103 41 -156.5t121 -53.5q79 0 120.5 53.5t41.5 156.5q0 102 -41.5 155t-121.5 53q-161 0 -161 -208zM264 606v14q11 28 26 90
q12 50 19 96h90v-11q-9 -35 -36 -94q-23 -53 -50 -95h-49z" />
    <glyph glyph-name="upsilontonos" unicode="&#x3cd;" horiz-adv-x="609" 
d="M306 -10q-114 0 -170 61.5t-56 190.5v293h81v-289q0 -189 152 -189q82 0 121 58t39 181q0 113 -30 239h81q18 -71 24 -123q7 -49 7 -120q0 -302 -249 -302zM267 606v14q11 28 26 90q12 50 19 96h90v-11q-9 -35 -36 -94q-23 -53 -50 -95h-49z" />
    <glyph glyph-name="omegatonos" unicode="&#x3ce;" horiz-adv-x="773" 
d="M244 -10q-89 0 -138.5 72t-49.5 197q0 79 13 138q13 61 47 138h84q-34 -79 -47 -139q-14 -64 -14 -138q0 -94 29.5 -147t81.5 -53q46 0 71.5 35t25.5 96v152h79v-152q0 -62 26 -96.5t71 -34.5q52 0 81.5 53t29.5 147q0 137 -61 277h84q60 -133 60 -276q0 -124 -50 -196.5
t-138 -72.5q-108 0 -141 89h-4q-32 -89 -140 -89zM346 606v14q11 28 26 90q12 50 19 96h90v-11q-9 -35 -36 -94q-23 -53 -50 -95h-49z" />
    <glyph glyph-name="uni03D1" unicode="&#x3d1;" horiz-adv-x="622" 
d="M609 413h-67q2 -30 2 -54q0 -171 -71 -271q-71 -98 -196 -98q-192 0 -192 168q0 24 8 88q7 56 7 71q0 40 -33 40q-31 0 -46 -12l-16 58q39 19 87 19q88 0 88 -91q0 -21 -7 -81q-8 -69 -8 -93q0 -101 114 -101q183 0 183 305q0 24 -2 52q-163 1 -251 56.5t-88 151.5
q0 70 45 110t126 40q102 0 164.5 -75t82.5 -220h70v-63zM456 476q-14 103 -58.5 165.5t-104.5 62.5q-44 0 -68.5 -22.5t-24.5 -60.5q0 -69 67 -106.5t189 -38.5z" />
    <glyph glyph-name="uni03D2" unicode="&#x3d2;" horiz-adv-x="565" 
d="M91 714l187 -364q115 275 147 320q35 50 92 50q25 0 43 -7v-66q-13 3 -28 3q-19 0 -33.5 -14t-35.5 -53q-5 -10 -52 -101q-58 -118 -94 -218v-264h-84v273l-233 441h91z" />
    <glyph glyph-name="uni03D6" unicode="&#x3d6;" horiz-adv-x="840" 
d="M270 -10q-188 0 -188 230q0 117 66 246h-139v36l69 33h730v-69h-122q57 -123 57 -246q0 -230 -188 -230q-108 0 -141 89h-4q-33 -89 -140 -89zM606 466h-378q-63 -134 -63 -241q0 -85 26.5 -126t83.5 -41q45 0 71.5 35t26.5 96v92h79v-92q0 -60 26 -95.5t72 -35.5
q110 0 110 167q0 124 -54 241z" />
    <glyph glyph-name="uni0400" unicode="&#x400;" 
d="M496 74v-74h-398v714h398v-74h-315v-230h296v-73h-296v-263h315zM364 783v-12h-54q-36 29 -76 72q-41 43 -62 78v10h99q18 -38 43 -78q34 -52 50 -70z" />
    <glyph glyph-name="afii10023" unicode="&#x401;" 
d="M496 74v-74h-398v714h398v-74h-315v-230h296v-73h-296v-263h315zM170 845q0 48 44 48q45 0 45 -48q0 -23 -13 -35.5t-32 -12.5t-31.5 12.5t-12.5 35.5zM356 845q0 48 44 48q45 0 45 -48q0 -23 -13 -35.5t-32 -12.5t-31.5 12.5t-12.5 35.5z" />
    <glyph glyph-name="afii10051" unicode="&#x402;" horiz-adv-x="734" 
d="M476 -10q-46 0 -73 11v73q27 -9 71 -9q48 0 74 30t26 85v64q0 62 -31.5 90t-100.5 28h-186v-362h-83v640h-164v74h464v-74h-217v-204h193q100 0 154 -46.5t54 -133.5v-70q0 -93 -47.5 -144.5t-133.5 -51.5z" />
    <glyph glyph-name="afii10052" unicode="&#x403;" horiz-adv-x="520" 
d="M98 714h398v-75h-315v-639h-83v714zM236 771v12q27 36 50 73q27 41 43 75h99v-10q-29 -40 -65 -79q-40 -44 -73 -71h-54z" />
    <glyph glyph-name="afii10053" unicode="&#x404;" horiz-adv-x="639" 
d="M407 650q-110 0 -175.5 -61t-80.5 -179h353v-73h-355q5 -135 70 -204t187 -69q80 0 177 27v-73q-78 -28 -189 -28q-162 0 -247.5 95t-85.5 273q0 171 92 269t255 98q117 0 203 -43l-35 -72q-81 40 -169 40z" />
    <glyph glyph-name="afii10054" unicode="&#x405;" horiz-adv-x="549" 
d="M501 190q0 -93 -68.5 -146.5t-185.5 -53.5q-127 0 -195 33v80q94 -40 198 -40q82 0 124.5 31t42.5 88q-4 56 -35 83.5t-136 66.5q-100 36 -142.5 84.5t-42.5 127.5q0 81 62 131q61 49 164 49q107 0 196 -39l-26 -72q-87 37 -172 37q-66 0 -103 -28.5t-37 -78.5
q3 -58 31.5 -85t127.5 -63q115 -41 155 -86q42 -47 42 -119z" />
    <glyph glyph-name="afii10055" unicode="&#x406;" horiz-adv-x="279" 
d="M181 0h-83v714h83v-714z" />
    <glyph glyph-name="afii10056" unicode="&#x407;" horiz-adv-x="279" 
d="M181 0h-83v714h83v-714zM3 845q0 48 44 48q45 0 45 -48q0 -23 -13 -35.5t-32 -12.5t-31.5 12.5t-12.5 35.5zM189 845q0 48 44 48q45 0 45 -48q0 -23 -13 -35.5t-32 -12.5t-31.5 12.5t-12.5 35.5z" />
    <glyph glyph-name="afii10057" unicode="&#x408;" horiz-adv-x="267" 
d="M-6 -188q-47 0 -72 13v71q33 -10 72 -10q48 0 73.5 29.5t25.5 84.5v714h83v-707q0 -93 -47 -144t-135 -51z" />
    <glyph glyph-name="afii10058" unicode="&#x409;" horiz-adv-x="929" 
d="M892 208q0 -101 -67 -154.5t-194 -53.5h-160v640h-178q-55 -431 -89 -531q-37 -120 -139 -120q-33 0 -65 12v70q23 -13 55 -13q43 0 65 55q10 25 24 87q14 64 30 170q27 176 49 344h331v-305h60q278 0 278 -201zM554 336v-264h65q96 0 141 33.5t45 102.5q0 67 -47 97.5
t-154 30.5h-50z" />
    <glyph glyph-name="afii10059" unicode="&#x40a;" horiz-adv-x="953" 
d="M916 208q0 -101 -66.5 -154.5t-193.5 -53.5h-161v336h-314v-336h-83v714h83v-304h314v304h84v-305h59q278 0 278 -201zM579 336v-264h65q186 0 186 136q0 67 -47 97.5t-154 30.5h-50z" />
    <glyph glyph-name="afii10060" unicode="&#x40b;" horiz-adv-x="734" 
d="M256 640v-204h195q100 0 153 -46t53 -134v-256h-83v245q0 62 -30.5 89.5t-98.5 27.5h-189v-362h-83v640h-164v74h495v-74h-248z" />
    <glyph glyph-name="afii10061" unicode="&#x40c;" horiz-adv-x="612" 
d="M282 367l330 -367h-101l-330 362v-362h-83v714h83v-346l322 346h95zM271 771v12q27 36 50 73q27 41 43 75h99v-10q-29 -40 -65 -79q-40 -44 -73 -71h-54z" />
    <glyph glyph-name="uni040D" unicode="&#x40d;" horiz-adv-x="762" 
d="M99 0v714h78v-397q0 -116 -7 -199h4l400 596h91v-714h-78v393q0 91 8 206h-4l-401 -599h-91zM435 783v-12h-54q-36 29 -76 72q-41 43 -62 78v10h99q18 -38 43 -78q34 -52 50 -70z" />
    <glyph glyph-name="afii10062" unicode="&#x40e;" horiz-adv-x="621" 
d="M143 -10q-55 0 -95 15v81q45 -21 92 -21q54 0 86 24q34 26 65 93l-278 532h92l211 -406q10 -20 19 -47h4q11 35 19 52l175 401h88l-228 -511q-39 -89 -74 -133q-33 -42 -74.5 -61t-101.5 -19zM318 771q-90 0 -131.5 35t-46.5 115h76q4 -51 26.5 -71t77.5 -20
q50 0 74.5 21.5t29.5 69.5h77q-6 -78 -49.5 -114t-133.5 -36z" />
    <glyph glyph-name="afii10145" unicode="&#x40f;" horiz-adv-x="729" 
d="M631 714v-714h-227v-186h-86v186h-220v714h83v-639h367v639h83z" />
    <glyph glyph-name="afii10017" unicode="&#x410;" horiz-adv-x="633" 
d="M633 0h-86l-89 227h-286l-88 -227h-84l282 717h70zM201 302h231l-83 221q-17 43 -33 103q-9 -41 -31 -103z" />
    <glyph glyph-name="afii10018" unicode="&#x411;" horiz-adv-x="613" 
d="M561 208q0 -106 -63 -157t-191 -51h-209v714h421v-74h-338v-231h111q141 0 205 -47.5t64 -153.5zM181 336v-264h117q93 0 135 32t42 104q0 70 -43.5 99t-149.5 29h-101z" />
    <glyph glyph-name="afii10019" unicode="&#x412;" horiz-adv-x="648" 
d="M98 0v714h202q141 0 205 -42t64 -135q0 -64 -35.5 -105t-103.5 -53v-5q163 -28 163 -171q0 -96 -65 -149.5t-181 -53.5h-249zM181 642v-234h137q88 0 126.5 27.5t38.5 93.5q0 60 -43 86.5t-137 26.5h-122zM323 338h-142v-267h149q174 0 174 138q0 66 -44.5 97.5
t-136.5 31.5z" />
    <glyph glyph-name="afii10020" unicode="&#x413;" horiz-adv-x="520" 
d="M98 714h398v-75h-315v-639h-83v714z" />
    <glyph glyph-name="afii10021" unicode="&#x414;" horiz-adv-x="683" 
d="M661 75v-261h-79v186h-496v-186h-79v261h55q77 130 128 308q54 182 60 331h321v-639h90zM149 75h339v564h-163q-9 -115 -59 -284q-49 -165 -117 -280z" />
    <glyph glyph-name="afii10022" unicode="&#x415;" 
d="M496 74v-74h-398v714h398v-74h-315v-230h296v-73h-296v-263h315z" />
    <glyph glyph-name="afii10024" unicode="&#x416;" horiz-adv-x="844" 
d="M1 0l291 367l-281 347h93l278 -346v346h80v-346l278 346h93l-281 -346l290 -368h-96l-284 362v-362h-80v362l-284 -362h-97z" />
    <glyph glyph-name="afii10025" unicode="&#x417;" horiz-adv-x="581" 
d="M512 547q0 -69 -44.5 -113.5t-123.5 -56.5v-4q90 -12 136 -55.5t46 -115.5q0 -100 -75.5 -156t-210.5 -56q-124 0 -204 39v77q96 -47 206 -47q96 0 146 36.5t50 105.5q0 133 -219 133h-106v70h102q99 0 154.5 36t55.5 100q0 52 -39.5 83.5t-106.5 31.5q-56 0 -99 -13
t-99 -48l-41 56q98 74 238 74q109 0 171.5 -47.5t62.5 -129.5z" />
    <glyph glyph-name="afii10026" unicode="&#x418;" horiz-adv-x="762" 
d="M99 0v714h78v-397q0 -116 -7 -199h4l400 596h91v-714h-78v393q0 91 8 206h-4l-401 -599h-91z" />
    <glyph glyph-name="afii10027" unicode="&#x419;" horiz-adv-x="762" 
d="M99 0v714h78v-397q0 -116 -7 -199h4l400 596h91v-714h-78v393q0 91 8 206h-4l-401 -599h-91zM395 771q-90 0 -131.5 35t-46.5 115h76q4 -51 26.5 -71t77.5 -20q50 0 74.5 21.5t29.5 69.5h77q-6 -78 -49.5 -114t-133.5 -36z" />
    <glyph glyph-name="afii10028" unicode="&#x41a;" horiz-adv-x="612" 
d="M282 367l330 -367h-101l-330 362v-362h-83v714h83v-346l322 346h95z" />
    <glyph glyph-name="afii10029" unicode="&#x41b;" horiz-adv-x="704" 
d="M606 714v-714h-83v640h-232l-15 -117q-29 -228 -53 -342q-21 -106 -58.5 -149.5t-99.5 -42.5q-37 0 -65 12v70q25 -13 55 -13q53 0 79 95q32 113 88 561h384z" />
    <glyph glyph-name="afii10030" unicode="&#x41c;" horiz-adv-x="903" 
d="M481 0h-67l-242 633h-4q7 -70 7 -179v-454h-77v714h125l226 -589h4l228 589h124v-714h-83v460q0 85 7 172h-4z" />
    <glyph glyph-name="afii10031" unicode="&#x41d;" horiz-adv-x="738" 
d="M640 714v-714h-83v336h-376v-336h-83v714h83v-304h376v304h83z" />
    <glyph glyph-name="afii10032" unicode="&#x41e;" horiz-adv-x="779" 
d="M718 358q0 -171 -87 -270q-87 -98 -241 -98q-158 0 -243.5 96t-85.5 273q0 174 86 270t244 96q154 0 240 -98q87 -98 87 -269zM149 358q0 -145 61.5 -220t179.5 -75q240 0 240 295q0 144 -60.5 218.5t-178.5 74.5q-119 0 -180.5 -74.5t-61.5 -218.5z" />
    <glyph glyph-name="afii10033" unicode="&#x41f;" horiz-adv-x="729" 
d="M631 714v-714h-83v640h-367v-640h-83v714h533z" />
    <glyph glyph-name="afii10034" unicode="&#x420;" horiz-adv-x="602" 
d="M551 506q0 -109 -74 -167t-212 -58h-84v-281h-83v714h185q268 0 268 -208zM181 642v-290h75q110 0 159.5 35.5t49.5 114.5q0 71 -46.5 105.5t-144.5 34.5h-93z" />
    <glyph glyph-name="afii10035" unicode="&#x421;" horiz-adv-x="631" 
d="M404 650q-118 0 -186 -78.5t-68 -214.5q0 -141 65.5 -217t187.5 -76q75 0 170 27v-73q-72 -28 -183 -28q-158 0 -243.5 96t-85.5 272q0 167 92.5 266.5t251.5 99.5q111 0 196 -41l-35 -71q-82 38 -162 38z" />
    <glyph glyph-name="afii10036" unicode="&#x422;" horiz-adv-x="553" 
d="M318 640v-640h-83v640h-226v74h535v-74h-226z" />
    <glyph glyph-name="afii10037" unicode="&#x423;" horiz-adv-x="621" 
d="M143 -10q-55 0 -95 15v81q45 -21 92 -21q54 0 86 24q34 26 65 93l-278 532h92l211 -406q10 -20 19 -47h4q11 35 19 52l175 401h88l-228 -511q-39 -89 -74 -133q-33 -42 -74.5 -61t-101.5 -19z" />
    <glyph glyph-name="afii10038" unicode="&#x424;" horiz-adv-x="798" 
d="M357 636v88h84v-88h34q125 0 198 -72.5t73 -192.5q-1 -123 -80 -198.5t-205 -72.5h-20v-110h-84v110h-22q-126 -4 -204.5 73t-78.5 197q0 118 74 192t198 74h33zM441 565v-395h12q98 0 152.5 53.5t54.5 148.5q0 90 -50.5 141.5t-140.5 51.5h-28zM357 170v395h-28
q-89 0 -140 -52t-51 -141q0 -96 54.5 -149t152.5 -53h12z" />
    <glyph glyph-name="afii10039" unicode="&#x425;" horiz-adv-x="577" 
d="M335 376l238 -376h-94l-192 314l-195 -314h-88l237 373l-221 341h92l177 -283l179 283h88z" />
    <glyph glyph-name="afii10040" unicode="&#x426;" horiz-adv-x="737" 
d="M631 714v-639h84v-261h-79v186h-538v714h83v-639h367v639h83z" />
    <glyph glyph-name="afii10041" unicode="&#x427;" horiz-adv-x="695" 
d="M597 714v-714h-83v295q-74 -26 -121 -36q-48 -9 -100 -9q-101 0 -155.5 46.5t-54.5 133.5v284h83v-274q0 -60 31.5 -88t100.5 -28q49 0 90 7q47 8 126 34v349h83z" />
    <glyph glyph-name="afii10042" unicode="&#x428;" horiz-adv-x="1032" 
d="M934 714v-714h-836v714h83v-639h293v639h83v-639h293v639h84z" />
    <glyph glyph-name="afii10043" unicode="&#x429;" horiz-adv-x="1033" 
d="M923 0h-825v714h83v-639h285v639h84v-639h285v639h83v-639h84v-261h-79v186z" />
    <glyph glyph-name="afii10044" unicode="&#x42a;" horiz-adv-x="688" 
d="M636 208q0 -102 -63 -155t-185 -53h-215v640h-164v74h247v-305h119q261 0 261 -201zM256 336v-264h123q171 0 171 136q0 67 -43.5 97.5t-141.5 30.5h-109z" />
    <glyph glyph-name="afii10045" unicode="&#x42b;" horiz-adv-x="853" 
d="M311 0h-213v714h83v-305h117q261 0 261 -201q0 -102 -63 -155t-185 -53zM181 335v-264h121q171 0 171 137q0 67 -43.5 97t-141.5 30h-107zM755 714v-714h-83v714h83z" />
    <glyph glyph-name="afii10046" unicode="&#x42c;" horiz-adv-x="643" 
d="M591 208q0 -99 -66.5 -153.5t-188.5 -54.5h-238v714h83v-305h142q131 0 199.5 -51.5t68.5 -149.5zM181 336v-264h146q178 0 178 136q0 66 -45.5 97t-146.5 31h-132z" />
    <glyph glyph-name="afii10047" unicode="&#x42d;" horiz-adv-x="630" 
d="M228 650q-85 0 -163 -37l-35 70q85 41 199 41q159 0 248.5 -95t89.5 -258q0 -184 -89 -282.5t-256 -98.5q-112 0 -187 28v73q114 -27 173 -27q131 0 199 70t72 204h-351v74h350q-11 112 -77 175t-173 63z" />
    <glyph glyph-name="afii10048" unicode="&#x42e;" horiz-adv-x="1050" 
d="M988 358q0 -174 -84 -271q-82 -97 -231 -97q-147 0 -230.5 89.5t-88.5 256.5h-173v-336h-83v714h83v-304h174q11 152 93 233.5t223 81.5q150 0 233 -98q84 -97 84 -269zM441 358q0 -145 58 -220t171 -75q230 0 230 295q0 293 -228 293q-114 0 -172.5 -74.5t-58.5 -218.5z
" />
    <glyph glyph-name="afii10049" unicode="&#x42f;" horiz-adv-x="636" 
d="M455 298h-145l-187 -298h-98l200 312q-150 47 -150 203q0 97 67 148t200 51h196v-714h-83v298zM455 369v273h-111q-91 0 -136.5 -31.5t-45.5 -99.5q0 -142 185 -142h108z" />
    <glyph glyph-name="afii10065" unicode="&#x430;" 
d="M475 0h-60l-16 76h-4q-39 -49 -78.5 -67.5t-100.5 -18.5q-81 0 -125.5 41.5t-44.5 116.5q0 163 259 170l91 3v33q0 63 -27 93t-87 30q-66 0 -151 -41l-25 62q84 46 181 46t142.5 -43t45.5 -136v-365zM232 57q76 0 119 41.5t43 116.5v48l-81 -3q-97 -4 -139.5 -30.5
t-42.5 -82.5q0 -44 26.5 -67t74.5 -23z" />
    <glyph glyph-name="afii10066" unicode="&#x431;" horiz-adv-x="596" 
d="M58 321q0 177 52.5 274.5t163.5 122.5q140 30 246 48l15 -71q-166 -28 -242 -45q-139 -31 -145 -240h6q30 41 78 64.5t100 23.5q99 0 154 -64t55 -177q0 -126 -64 -196.5t-178 -70.5t-177.5 86.5t-63.5 244.5zM306 58q149 0 149 190q0 181 -135 181q-52 0 -102.5 -32.5
t-76.5 -75.5q0 -263 165 -263z" />
    <glyph glyph-name="afii10067" unicode="&#x432;" horiz-adv-x="569" 
d="M520 401q0 -97 -114 -116v-4q68 -10 99.5 -40.5t31.5 -84.5q0 -75 -55 -115.5t-160 -40.5h-236v535h235q199 0 199 -134zM456 161q0 44 -33 63.5t-109 19.5h-147v-176h149q140 0 140 93zM441 393q0 38 -29.5 55t-91.5 17h-153v-151h137q74 0 105.5 18.5t31.5 60.5z" />
    <glyph glyph-name="afii10068" unicode="&#x433;" horiz-adv-x="428" 
d="M408 535v-69h-241v-466h-81v535h322z" />
    <glyph glyph-name="afii10069" unicode="&#x434;" horiz-adv-x="572" 
d="M551 70v-255h-79v185h-374v-185h-78v255h42q66 91 103 210.5t38 254.5h271v-465h77zM146 70h250v401h-120q-6 -108 -42 -219q-34 -110 -88 -182z" />
    <glyph glyph-name="afii10070" unicode="&#x435;" horiz-adv-x="561" 
d="M312 -10q-119 0 -187.5 72.5t-68.5 200.5q0 130 64 206t171 76q101 0 159 -66q59 -67 59 -175v-51h-369q3 -94 48 -143t127 -49q85 0 171 36v-72q-80 -35 -174 -35zM290 477q-64 0 -102.5 -41.5t-45.5 -116.5h280q0 77 -34 117.5t-98 40.5z" />
    <glyph glyph-name="afii10072" unicode="&#x436;" horiz-adv-x="736" 
d="M330 275v259h75v-259l221 259h89l-224 -259l243 -275h-94l-235 271v-271h-75v271l-235 -271h-93l242 275l-223 259h89z" />
    <glyph glyph-name="afii10073" unicode="&#x437;" horiz-adv-x="483" 
d="M130 313h58q152 0 152 84q0 79 -123 79q-65 0 -149 -34l-29 66q81 37 181 37q92 0 145.5 -38t53.5 -103q0 -90 -100 -118v-4q118 -35 118 -135q0 -74 -60 -115.5t-165 -41.5q-115 0 -179 35v74q90 -42 181 -42q142 0 142 94q0 93 -152 93h-74v69z" />
    <glyph glyph-name="afii10074" unicode="&#x438;" horiz-adv-x="634" 
d="M86 535h76v-339l-3 -89l-2 -28l290 456h101v-535h-76v327l2 65l2 63l-289 -455h-101v535z" />
    <glyph glyph-name="afii10075" unicode="&#x439;" horiz-adv-x="634" 
d="M86 535h76v-339l-3 -89l-2 -28l290 456h101v-535h-76v327l2 65l2 63l-289 -455h-101v535zM315 606q-90 0 -131.5 35t-46.5 115h76q4 -51 26.5 -71t77.5 -20q50 0 74.5 21.5t29.5 69.5h77q-6 -78 -49.5 -114t-133.5 -36z" />
    <glyph glyph-name="afii10076" unicode="&#x43a;" horiz-adv-x="519" 
d="M167 275l231 260h89l-231 -258l250 -277h-95l-244 271v-271h-81v535h81v-260z" />
    <glyph glyph-name="afii10077" unicode="&#x43b;" horiz-adv-x="571" 
d="M485 535v-535h-82v466h-161q-20 -259 -63 -364t-129 -109q-27 0 -42 6v60q10 -3 24 -3q56 0 89.5 117t50.5 362h313z" />
    <glyph glyph-name="afii10078" unicode="&#x43c;" horiz-adv-x="735" 
d="M364 78l15 46l21 57l145 353h103v-534h-72v442l-10 -28l-28 -75l-138 -339h-68l-138 340q-26 64 -36 102v-442h-72v534h99l140 -339q21 -54 39 -117z" />
    <glyph glyph-name="afii10079" unicode="&#x43d;" horiz-adv-x="634" 
d="M86 535h81v-224h300v224h81v-535h-81v241h-300v-241h-81v535z" />
    <glyph glyph-name="afii10080" unicode="&#x43e;" horiz-adv-x="604" 
d="M548 268q0 -131 -66 -204.5t-182 -73.5q-109 0 -176.5 76t-67.5 202q0 131 65.5 204t181.5 73q113 0 179 -75q66 -74 66 -202zM140 268q0 -103 41 -156.5t121 -53.5q79 0 120.5 53.5t41.5 156.5q0 102 -41.5 155t-121.5 53q-161 0 -161 -208z" />
    <glyph glyph-name="afii10081" unicode="&#x43f;" horiz-adv-x="621" 
d="M167 465v-465h-81v535h449v-535h-82v465h-286z" />
    <glyph glyph-name="afii10082" unicode="&#x440;" horiz-adv-x="613" 
d="M335 -10q-110 0 -168 79h-6q6 -46 6 -89v-220h-81v775h66l11 -73h4q58 83 168 83q106 0 164 -73t58 -204q0 -132 -58.5 -205t-163.5 -73zM323 476q-81 0 -118 -45.5t-38 -144.5v-18q0 -113 37 -161.5t121 -48.5q70 0 109 56t39 155q0 100 -39 153.5t-111 53.5z" />
    <glyph glyph-name="afii10083" unicode="&#x441;" horiz-adv-x="476" 
d="M300 -10q-116 0 -180 71.5t-64 202.5q0 134 65 207.5t184 73.5q84 0 138 -28l-25 -69q-60 25 -115 25q-163 0 -163 -208q0 -99 40 -151.5t118 -52.5q65 0 137 29v-72q-53 -28 -135 -28z" />
    <glyph glyph-name="afii10084" unicode="&#x442;" horiz-adv-x="467" 
d="M447 535v-69h-174v-466h-81v466h-172v69h427z" />
    <glyph glyph-name="afii10085" unicode="&#x443;" horiz-adv-x="504" 
d="M217 -3l-216 538h87l117 -305q39 -106 48 -151h4q4 18 26 85q23 68 133 371h87l-230 -609q-33 -89 -79 -127.5t-113 -38.5q-35 0 -73 8v65q27 -6 60 -6q83 0 119 94z" />
    <glyph glyph-name="afii10086" unicode="&#x444;" horiz-adv-x="715" 
d="M659 268q0 -122 -69 -194t-193 -82v-232h-80v232q-121 9 -192 83q-70 73 -70 193q0 122 69.5 193.5t195.5 81.5v217h77v-217q123 -11 192.5 -84.5t69.5 -190.5zM140 268q0 -192 180 -209v416q-91 -8 -135.5 -58.5t-44.5 -148.5zM575 268q0 187 -178 206v-415
q178 17 178 209z" />
    <glyph glyph-name="afii10087" unicode="&#x445;" horiz-adv-x="524" 
d="M19 0l196 274l-186 261h92l141 -205l141 205h91l-186 -261l196 -274h-92l-150 217l-151 -217h-92z" />
    <glyph glyph-name="afii10088" unicode="&#x446;" horiz-adv-x="626" 
d="M608 70v-255h-81v185h-441v535h81v-465h284v465h81v-465h76z" />
    <glyph glyph-name="afii10089" unicode="&#x447;" horiz-adv-x="608" 
d="M76 535h81v-195q0 -94 107 -94q84 0 177 60v229h81v-535h-81v242q-51 -35 -95 -49.5t-99 -14.5q-80 0 -125.5 42t-45.5 114v201z" />
    <glyph glyph-name="afii10090" unicode="&#x448;" horiz-adv-x="890" 
d="M485 535v-465h237v465h82v-535h-718v535h81v-465h237v465h81z" />
    <glyph glyph-name="afii10091" unicode="&#x449;" horiz-adv-x="897" 
d="M485 534v-464h237v464h81v-464h77v-254h-82v184h-712v534h81v-464h237v464h81z" />
    <glyph glyph-name="afii10092" unicode="&#x44a;" horiz-adv-x="695" 
d="M272 535v-221h153q214 0 214 -151q0 -163 -216 -163h-232v466h-171v69h252zM559 158q0 46 -30.5 66t-106.5 20h-150v-176h153q134 0 134 90z" />
    <glyph glyph-name="afii10093" unicode="&#x44b;" horiz-adv-x="770" 
d="M167 535v-221h146q200 0 200 -151q0 -163 -205 -163h-222v535h81zM684 535v-535h-81v535h81zM302 244h-135v-176h137q129 0 129 90q0 46 -30 66t-101 20z" />
    <glyph glyph-name="afii10094" unicode="&#x44c;" horiz-adv-x="592" 
d="M167 535v-221h165q205 0 205 -151q0 -79 -54 -121t-156 -42h-241v535h81zM321 244h-154v-176h156q133 0 133 90q0 45 -31.5 65.5t-103.5 20.5z" />
    <glyph glyph-name="afii10095" unicode="&#x44d;" horiz-adv-x="492" 
d="M167 -10q-83 0 -139 28v72q75 -29 142 -29q171 0 182 181h-271v69h270q-8 84 -49 123t-120 39q-49 0 -124 -26l-23 68q64 30 146 30q125 0 190 -71.5t65 -206.5q0 -131 -70.5 -204t-198.5 -73z" />
    <glyph glyph-name="afii10096" unicode="&#x44e;" horiz-adv-x="831" 
d="M775 268q0 -131 -63 -204.5t-172 -73.5q-104 0 -165 65.5t-68 185.5h-140v-241h-81v535h81v-224h141q10 111 71.5 172.5t162.5 61.5q107 0 170 -75q63 -73 63 -202zM391 268q0 -210 150 -210q77 0 113.5 52t36.5 158q0 104 -36 156t-114 52t-114 -52t-36 -156z" />
    <glyph glyph-name="afii10097" unicode="&#x44f;" horiz-adv-x="555" 
d="M253 214l-140 -214h-95l154 226q-62 14 -95 53t-33 99q0 73 50 115t137 42h238v-535h-81v214h-135zM123 377q0 -93 135 -93h130v181h-147q-118 0 -118 -88z" />
    <glyph glyph-name="uni0450" unicode="&#x450;" horiz-adv-x="561" 
d="M312 -10q-119 0 -187.5 72.5t-68.5 200.5q0 130 64 206t171 76q101 0 159 -66q59 -67 59 -175v-51h-369q3 -94 48 -143t127 -49q85 0 171 36v-72q-80 -35 -174 -35zM290 477q-64 0 -102.5 -41.5t-45.5 -116.5h280q0 77 -34 117.5t-98 40.5zM348 618v-12h-54
q-36 29 -76 72q-41 43 -62 78v10h99q18 -38 43 -78q34 -52 50 -70z" />
    <glyph glyph-name="afii10071" unicode="&#x451;" horiz-adv-x="561" 
d="M312 -10q-119 0 -187.5 72.5t-68.5 200.5q0 130 64 206t171 76q101 0 159 -66q59 -67 59 -175v-51h-369q3 -94 48 -143t127 -49q85 0 171 36v-72q-80 -35 -174 -35zM290 477q-64 0 -102.5 -41.5t-45.5 -116.5h280q0 77 -34 117.5t-98 40.5zM155 680q0 48 44 48
q45 0 45 -48q0 -23 -13 -35.5t-32 -12.5t-31.5 12.5t-12.5 35.5zM341 680q0 48 44 48q45 0 45 -48q0 -23 -13 -35.5t-32 -12.5t-31.5 12.5t-12.5 35.5z" />
    <glyph glyph-name="afii10099" unicode="&#x452;" horiz-adv-x="614" 
d="M398 -240q-38 0 -64 12v67q27 -10 55 -10q63 0 63 83v415q0 66 -30 98t-93 32q-84 0 -122.5 -46.5t-38.5 -148.5v-262h-82v607h-76v62h76v91h81v-91h196v-62h-196v-96q0 -44 -4 -68h5q24 39 68.5 61t100.5 22q99 0 147.5 -47t48.5 -149v-411q0 -159 -135 -159z" />
    <glyph glyph-name="afii10100" unicode="&#x453;" horiz-adv-x="428" 
d="M408 535v-69h-241v-466h-81v535h322zM185 606v12q27 36 50 73q27 41 43 75h99v-10q-29 -40 -65 -79q-40 -44 -73 -71h-54z" />
    <glyph glyph-name="afii10101" unicode="&#x454;" horiz-adv-x="492" 
d="M309 -10q-121 0 -187 71.5t-66 203.5q0 134 67 207t190 73q80 0 145 -28l-24 -69q-69 25 -123 25q-80 0 -121.5 -39.5t-49.5 -122.5h270v-69h-271q5 -93 46.5 -137t122.5 -44q67 0 142 29v-72q-55 -28 -141 -28z" />
    <glyph glyph-name="afii10102" unicode="&#x455;" horiz-adv-x="477" 
d="M431 146q0 -75 -55.5 -115.5t-156.5 -40.5q-107 0 -166 34v75q87 -42 168 -42q132 0 132 82q0 31 -27 53q-29 24 -106 53q-76 30 -106 48q-62 42 -62 111q0 65 53 103t146 38q85 0 169 -35l-29 -66q-80 33 -146 33q-116 0 -116 -68q0 -20 11 -37q11 -15 35 -29
q27 -14 94 -39q96 -35 128 -70q34 -34 34 -88z" />
    <glyph glyph-name="afii10103" unicode="&#x456;" horiz-adv-x="253" 
d="M167 535v-535h-81v535h81zM79 680q0 54 48 54q20 0 34 -14t14 -40t-14 -40t-34 -14q-22 0 -35 14t-13 40z" />
    <glyph glyph-name="afii10104" unicode="&#x457;" horiz-adv-x="253" 
d="M167 535v-535h-81v535h81zM-10 680q0 48 44 48q45 0 45 -48q0 -23 -13 -35.5t-32 -12.5t-31.5 12.5t-12.5 35.5zM176 680q0 48 44 48q45 0 45 -48q0 -23 -13 -35.5t-32 -12.5t-31.5 12.5t-12.5 35.5z" />
    <glyph glyph-name="afii10105" unicode="&#x458;" horiz-adv-x="253" 
d="M21 -240q-47 0 -75 12v66q31 -10 66 -10q74 0 74 84v623h81v-617q0 -158 -146 -158zM79 680q0 54 48 54q20 0 34 -14t14 -40t-14 -40t-34 -14q-22 0 -35 14t-13 40z" />
    <glyph glyph-name="afii10106" unicode="&#x459;" horiz-adv-x="837" 
d="M461 535v-221h119q202 0 202 -151q0 -163 -213 -163h-201v466h-126q-20 -255 -64 -363q-44 -110 -127 -110q-28 0 -43 6v60q10 -3 24 -3q56 0 89.5 117t50.5 362h289zM701 158q0 46 -31 66t-107 20h-113v-176h116q135 0 135 90z" />
    <glyph glyph-name="afii10107" unicode="&#x45a;" horiz-adv-x="886" 
d="M417 534h83v-221h125q205 0 205 -150q0 -163 -212 -163h-203v241h-245v-241h-84v534h84v-223h247v223zM613 244h-115v-176h117q135 0 135 90q0 45 -31.5 65.5t-105.5 20.5z" />
    <glyph glyph-name="afii10108" unicode="&#x45b;" horiz-adv-x="614" 
d="M533 0h-81v327q0 66 -30 98t-93 32q-85 0 -123.5 -45.5t-38.5 -149.5v-262h-81v607h-76v62h76v91h81v-91h219v-62h-219v-96q0 -44 -4 -68h5q24 39 68.5 61t100.5 22q99 0 147.5 -47t48.5 -149v-330z" />
    <glyph glyph-name="afii10109" unicode="&#x45c;" horiz-adv-x="519" 
d="M167 275l231 260h89l-231 -258l250 -277h-95l-244 271v-271h-81v535h81v-260zM217 606v12q27 36 50 73q27 41 43 75h99v-10q-29 -40 -65 -79q-40 -44 -73 -71h-54z" />
    <glyph glyph-name="uni045D" unicode="&#x45d;" horiz-adv-x="634" 
d="M86 535h76v-339l-3 -89l-2 -28l290 456h101v-535h-76v327l2 65l2 63l-289 -455h-101v535zM366 618v-12h-54q-36 29 -76 72q-41 43 -62 78v10h99q18 -38 43 -78q34 -52 50 -70z" />
    <glyph glyph-name="afii10110" unicode="&#x45e;" horiz-adv-x="504" 
d="M217 -3l-216 538h87l117 -305q39 -106 48 -151h4q4 18 26 85q23 68 133 371h87l-230 -609q-33 -89 -79 -127.5t-113 -38.5q-35 0 -73 8v65q27 -6 60 -6q83 0 119 94zM249 606q-90 0 -131.5 35t-46.5 115h76q4 -51 26.5 -71t77.5 -20q50 0 74.5 21.5t29.5 69.5h77
q-6 -78 -49.5 -114t-133.5 -36z" />
    <glyph glyph-name="afii10193" unicode="&#x45f;" horiz-adv-x="621" 
d="M273 -184v184h-187v534h81v-464h286v464h81v-534h-180v-184h-81z" />
    <glyph glyph-name="uni0460" unicode="&#x460;" horiz-adv-x="1011" 
d="M705 648q-46 0 -97 -35l-34 71q62 39 135 39q111 0 174 -92t63 -257q0 -181 -69 -283q-69 -101 -194 -101q-102 0 -177 47h-4q-76 -47 -174 -47q-125 0 -194 100.5t-69 283.5q0 166 62 257.5t174 91.5q73 0 135 -39l-34 -71q-51 35 -97 35q-72 0 -112 -72.5t-40 -202.5
q0 -147 50.5 -228.5t141.5 -81.5q69 0 118 37v223h83v-223q49 -37 119 -37q91 0 141.5 81.5t50.5 228.5q0 130 -40.5 202.5t-111.5 72.5z" />
    <glyph glyph-name="uni0461" unicode="&#x461;" horiz-adv-x="819" 
d="M394 223q-2 -5 -5.5 -13.5t-4.5 -11.5q-2 -7 -92 -198h-104l-188 535h84l120 -339q13 -37 38 -138h4q9 26 27 66l88 182l-84 229h87q132 -385 140 -411q14 -44 16 -56h4q83 89 121 196q38 108 38 271h81q0 -177 -48 -300q-46 -120 -154 -235h-89l-61 169q-16 45 -18 54z
" />
    <glyph glyph-name="uni0462" unicode="&#x462;" horiz-adv-x="675" 
d="M11 550v72h156v138h84v-138h204v-72h-204v-141h98q274 0 274 -201q0 -208 -257 -208h-199v550h-156zM251 335v-264h104q93 0 137.5 33.5t44.5 103.5q0 67 -46 97t-151 30h-89z" />
    <glyph glyph-name="uni0463" unicode="&#x463;" horiz-adv-x="632" 
d="M207 644v-109h168v-68h-168v-154h156q213 0 213 -150q0 -163 -216 -163h-234v467h-115v68h115v109h81zM354 244h-147v-176h149q140 0 140 90q0 45 -33.5 65.5t-108.5 20.5z" />
    <glyph glyph-name="uni0464" unicode="&#x464;" horiz-adv-x="919" 
d="M695 650q-222 0 -253 -240h343v-73h-345q4 -133 68.5 -203t185.5 -70q76 0 170 27v-73q-72 -28 -183 -28q-155 0 -240 90t-89 256h-171v-336h-83v714h83v-304h174q15 150 105 231.5t238 82.5q104 0 193 -45l-35 -71q-88 42 -161 42z" />
    <glyph glyph-name="uni0465" unicode="&#x465;" horiz-adv-x="736" 
d="M558 -10q-115 0 -180.5 65t-70.5 186h-140v-241h-81v535h81v-225h141q12 114 77.5 174.5t174.5 60.5q80 0 141 -28l-24 -69q-66 25 -117 25q-80 0 -120.5 -39.5t-48.5 -123.5h262v-69h-263q5 -92 46 -136t121 -44q59 0 136 29v-72q-53 -28 -135 -28z" />
    <glyph glyph-name="uni0466" unicode="&#x466;" horiz-adv-x="678" 
d="M589 0l-140 333h-72v-333h-76v333h-73l-141 -333h-87l301 714h77l300 -714h-89zM296 498l-37 -92h162l-40 101q-28 74 -42 119q-13 -53 -43 -128z" />
    <glyph glyph-name="uni0467" unicode="&#x467;" horiz-adv-x="564" 
d="M232 535h100l227 -535h-84l-101 239h-55v-239h-74v239h-56l-100 -239h-84zM216 307h132l-35 86q-15 39 -30 86h-4q-13 -43 -63 -172z" />
    <glyph glyph-name="uni0468" unicode="&#x468;" horiz-adv-x="921" 
d="M829 0l-139 336h-70v-336h-75v336h-72l-139 -336h-91l142 336h-204v-336h-83v714h83v-304h235l128 304h77l300 -714h-92zM504 410h155l-64 172q-5 14 -13 44q-10 -35 -18 -59q-7 -24 -60 -157z" />
    <glyph glyph-name="uni0469" unicode="&#x469;" horiz-adv-x="766" 
d="M434 535h100l226 -535h-83l-102 241h-55v-241h-74v241h-54l-102 -241h-84l102 241h-141v-241h-81v535h81v-225h171zM548 310l-63 169h-4q-2 -6 -13 -40q-8 -23 -51 -129h131z" />
    <glyph glyph-name="uni046A" unicode="&#x46a;" horiz-adv-x="721" 
d="M77 714h568v-65l-206 -242q57 -3 95 -21q38 -17 62 -51q25 -33 49 -114l65 -221h-85l-67 223q-26 78 -50.5 97t-92.5 23h-13v-343h-83v343h-13q-69 -4 -92 -23t-48 -97l-66 -223h-90l66 221q22 76 47 112q47 68 155 74l-201 242v65zM360 417l185 222h-370z" />
    <glyph glyph-name="uni046B" unicode="&#x46b;" horiz-adv-x="642" 
d="M73 535h495v-51l-165 -172q79 -6 114 -47q18 -19 30 -45q10 -22 88 -220h-84l-65 164q-26 61 -45 74t-78 17h-5v-255h-75v255h-5q-39 0 -57 -7q-21 -7 -34 -22q-12 -13 -32 -61l-66 -165h-83l64 164q16 40 24.5 57.5t27.5 41t46.5 34.5t68.5 15l-164 172v51zM320 311
l144 156h-287z" />
    <glyph glyph-name="uni046C" unicode="&#x46c;" horiz-adv-x="974" 
d="M337 714h568v-65l-205 -243q58 -3 96 -21q36 -16 62 -53q24 -32 47 -111l66 -221h-82l-67 223q-24 75 -50.5 95.5t-96.5 23.5h-12v-342h-84v342h-12q-70 -4 -93.5 -23t-49.5 -96l-66 -223h-87l66 218q27 89 54 118h-210v-336h-83v714h83v-304h355l-199 239v65zM621 416
l185 223h-370z" />
    <glyph glyph-name="uni046D" unicode="&#x46d;" horiz-adv-x="846" 
d="M279 535h495v-51l-165 -173q76 -5 115 -46q19 -20 29 -45q6 -14 88 -220h-84l-65 164q-25 59 -45 72.5t-78 17.5h-5v-254h-75v254h-5q-38 0 -58 -7q-21 -6 -34.5 -22t-30.5 -60l-66 -165h-83l64 164q22 58 41 78h-150v-242h-81v535h81v-224h276l-164 173v51zM526 314
l144 153h-287z" />
    <glyph glyph-name="uni046E" unicode="&#x46e;" horiz-adv-x="582" 
d="M117 -67q0 -51 86 -51q47 0 106 3t93 3q76 0 110 -19v-81q-38 25 -117 25q-16 0 -84 -2q-53 -3 -103 -3q-177 0 -177 126q0 62 53 93.5t166 35.5q99 4 143.5 37.5t44.5 102.5q0 131 -219 131h-106v70h102q99 0 154.5 36t55.5 100q0 52 -39.5 83.5t-106.5 31.5
q-99 0 -197 -61l-42 56q83 56 175 69q-48 53 -85 92l-24 25v13h60q42 -27 109 -95q78 98 140 98q26 0 48 -7v-55q-13 5 -33 5q-22 0 -49 -20.5t-50 -54.5q86 -11 133.5 -57t47.5 -116q0 -68 -46.5 -113t-129.5 -58v-4q91 -12 140.5 -56t49.5 -113q0 -199 -276 -210
q-69 -2 -101 -16t-32 -44z" />
    <glyph glyph-name="uni046F" unicode="&#x46f;" horiz-adv-x="483" 
d="M371 663q26 0 47 -7v-55q-13 5 -32 5q-45 0 -95 -69q61 -15 94.5 -48.5t33.5 -84.5q0 -90 -103 -118v-4q121 -34 121 -133q0 -72 -59 -113t-169 -43q-69 -2 -95.5 -13t-26.5 -41q0 -24 18.5 -34.5t61.5 -10.5q22 0 102 2l85 3q61 0 80 -19v-70q-23 21 -78 21l-87 -2
q-65 -3 -109 -3q-70 0 -109 29.5t-39 83.5q0 57 46.5 87.5t134.5 31.5q163 1 163 95q0 91 -154 91h-72v69h58q152 0 152 84q0 79 -123 79q-65 0 -149 -34l-29 66q60 26 122 34q-43 55 -95 105v13h60q41 -28 105 -92q75 95 140 95z" />
    <glyph glyph-name="uni0470" unicode="&#x470;" horiz-adv-x="796" 
d="M439 218v-218h-83v218h-22q-127 -3 -203.5 68t-77.5 192v236h85v-234q0 -190 205 -190h13v424h83v-424h14q102 0 153 48t51 140v236h86v-235q0 -123 -76.5 -192t-205.5 -69h-22z" />
    <glyph glyph-name="uni0471" unicode="&#x471;" horiz-adv-x="753" 
d="M339 759h80v-699q92 7 141.5 63.5t49.5 156.5q0 114 -31 255h81q31 -131 31 -252q0 -135 -69.5 -209.5t-202.5 -82.5v-231h-80v231q-259 11 -259 279v265h81v-268q0 -196 178 -208v700z" />
    <glyph glyph-name="uni0472" unicode="&#x472;" horiz-adv-x="780" 
d="M718 358q0 -171 -87 -270q-87 -98 -241 -98q-158 0 -243.5 96t-85.5 273q0 174 86 270t244 96q154 0 240 -98q87 -98 87 -269zM390 63q227 0 239 264h-479q6 -130 67 -197t173 -67zM391 651q-109 0 -170.5 -63t-70.5 -188h478q-8 124 -68 187.5t-169 63.5z" />
    <glyph glyph-name="uni0473" unicode="&#x473;" horiz-adv-x="604" 
d="M548 268q0 -131 -66 -204.5t-182 -73.5q-109 0 -176.5 76t-67.5 202q0 131 65.5 204t181.5 73q113 0 179 -75q66 -74 66 -202zM302 58q152 0 162 183h-324q5 -92 44.5 -137.5t117.5 -45.5zM301 476q-148 0 -160 -166h322q-14 166 -162 166z" />
    <glyph glyph-name="uni0474" unicode="&#x474;" horiz-adv-x="626" 
d="M610 652q-29 0 -48 -25q-18 -23 -47 -114l-160 -513h-96l-259 714h88l165 -458q38 -108 52 -167q18 79 50 179l79 253q27 87 49 130q21 37 48 53t70 16q21 0 59 -9v-69q-26 10 -50 10z" />
    <glyph glyph-name="uni0475" unicode="&#x475;" horiz-adv-x="506" 
d="M311 0h-113l-198 535h85l110 -299q49 -128 58 -180h4q10 56 51 188l47 151q30 91 54 117t84 28q20 0 37 -5v-62q-12 4 -33 4q-22 0 -36 -19.5t-29 -66.5z" />
    <glyph glyph-name="uni0476" unicode="&#x476;" horiz-adv-x="626" 
d="M610 652q-29 0 -48 -25q-18 -23 -47 -114l-160 -513h-96l-259 714h88l165 -458q38 -108 52 -167q18 79 50 179l79 253q27 87 49 130q21 37 48 53t70 16q21 0 59 -9v-69q-26 10 -50 10zM443 783v-12h-47q-26 19 -69 69q-42 48 -61 81v10h91q41 -86 86 -148zM269 783v-12
h-47q-27 21 -70 70q-44 52 -60 80v10h91q41 -86 86 -148z" />
    <glyph glyph-name="uni0477" unicode="&#x477;" horiz-adv-x="506" 
d="M311 0h-113l-198 535h85l110 -299q49 -128 58 -180h4q10 56 51 188l47 151q30 91 54 117t84 28q20 0 37 -5v-62q-12 4 -33 4q-22 0 -36 -19.5t-29 -66.5zM387 618v-12h-47q-26 20 -69 69q-42 48 -61 81v10h91q41 -86 86 -148zM213 618v-12h-47q-27 21 -70 70
q-44 52 -60 80v10h91q41 -86 86 -148z" />
    <glyph glyph-name="uni0478" unicode="&#x478;" horiz-adv-x="1209" 
d="M666 358q0 -172 -80 -270t-222 -98q-145 0 -224 96.5t-79 272.5q0 175 79 270.5t225 95.5q141 0 221 -98t80 -269zM149 358q0 -145 54.5 -220t160.5 -75q214 0 214 295q0 293 -213 293q-106 0 -161 -74.5t-55 -218.5zM919 -3l-216 538h86l120 -307q37 -99 48 -151h4
q2 11 25 83l132 375h86l-229 -609q-33 -88 -79 -127t-113 -39q-35 0 -73 8v65q27 -6 59 -6q83 0 120 94z" />
    <glyph glyph-name="uni0479" unicode="&#x479;" horiz-adv-x="1061" 
d="M548 268q0 -131 -66 -204.5t-182 -73.5q-109 0 -176.5 76t-67.5 202q0 131 65.5 204t181.5 73q113 0 179 -75q66 -74 66 -202zM140 268q0 -103 41 -156.5t121 -53.5q79 0 120.5 53.5t41.5 156.5q0 102 -41.5 155t-121.5 53q-161 0 -161 -208zM774 -3l-216 538h87
l117 -305q39 -106 48 -151h4q4 18 26 85q23 68 133 371h87l-230 -609q-33 -89 -79 -127.5t-113 -38.5q-35 0 -73 8v65q27 -6 60 -6q83 0 119 94z" />
    <glyph glyph-name="uni047A" unicode="&#x47a;" horiz-adv-x="819" 
d="M758 358q0 -147 -74 -245q-73 -95 -203 -118q-13 -54 -71 -54q-60 0 -70 54q-131 20 -205 116q-74 98 -74 248t73 244.5t206 115.5q11 53 70 53t70 -53q131 -21 204 -118q74 -98 74 -243zM149 358q0 -119 49.5 -193.5t141.5 -94.5q15 42 70 42q54 0 69 -42
q92 20 141.5 94.5t49.5 193.5t-49.5 193t-141.5 93q-15 -43 -69 -43q-55 0 -70 42q-92 -19 -141.5 -92.5t-49.5 -192.5z" />
    <glyph glyph-name="uni047B" unicode="&#x47b;" horiz-adv-x="657" 
d="M601 268q0 -114 -54.5 -184.5t-154.5 -88.5q-7 -48 -63 -48q-29 0 -43.5 11t-18.5 37q-99 18 -155 90t-56 183q0 114 54.5 184t156.5 88q4 26 18.5 37t43.5 11q56 0 63 -49q99 -18 154 -89.5t55 -181.5zM140 268q0 -175 128 -204q11 37 61 37t62 -36q126 29 126 203
q0 172 -127 202q-11 -36 -61 -36q-27 0 -41 8t-20 29q-128 -29 -128 -203z" />
    <glyph glyph-name="uni047C" unicode="&#x47c;" horiz-adv-x="999" 
d="M698 972h6v-59h-8q-62 0 -140 28t-100 28q-24 0 -38 -13t-14 -37v-8h-61v14q0 104 111 104q34 0 112 -28.5t132 -28.5zM343 63q95 0 156 63q28 -28 69.5 -45.5t86.5 -17.5q92 0 143 81.5t51 228.5q0 130 -40 202.5t-112 72.5q-47 0 -97 -36l-34 71q58 40 134 40
q112 0 174.5 -92t62.5 -257q0 -182 -70.5 -283t-196.5 -101q-103 0 -171 43q-73 -43 -172 -43q-127 0 -196.5 101t-69.5 283q0 166 62.5 257.5t174.5 91.5q76 0 134 -40l-34 -71q-50 36 -96 36q-73 0 -113 -72t-40 -203q0 -148 51 -229t143 -81zM564 864q0 -79 -116 -109v35
q59 20 59 46q0 12 -24 23t-24 30q0 36 45 36q27 0 43.5 -16.5t16.5 -44.5z" />
    <glyph glyph-name="uni047D" unicode="&#x47d;" horiz-adv-x="808" 
d="M521 -10q-71 0 -118 32q-46 -32 -115 -32q-111 0 -171.5 71t-60.5 203q0 135 50.5 208t141.5 73q61 0 108 -28l-28 -68q-43 25 -78 25q-110 0 -110 -209q0 -204 149 -204q60 0 115 39q58 -39 117 -39q147 0 147 204q0 209 -110 209q-35 0 -78 -25l-28 68q47 28 108 28
q91 0 141.5 -73t50.5 -208q0 -130 -60.5 -202t-170.5 -72zM585 821h7v-59h-8q-62 0 -140 28t-100 28q-52 0 -52 -50v-8h-61v15q0 49 28.5 76t82.5 27q34 0 111.5 -28.5t131.5 -28.5zM452 713q0 -79 -116 -109v35q58 19 58 47q0 12 -23.5 22.5t-23.5 29.5q0 36 45 36
q27 0 43.5 -16.5t16.5 -44.5z" />
    <glyph glyph-name="uni047E" unicode="&#x47e;" horiz-adv-x="984" 
d="M289 877h404v-13l-39 -84h-16l-24 50h-91l-24 -50h-16l-24 50h-92l-23 -50h-16l-39 84v13zM697 648q-46 0 -97 -35l-34 71q60 39 135 39q111 0 173.5 -92t62.5 -257q0 -182 -70 -283t-196 -101q-104 0 -178 47h-4q-75 -47 -177 -47q-126 0 -196 101.5t-70 282.5
q0 167 62.5 258t174.5 91q73 0 135 -39l-34 -71q-51 35 -97 35q-72 0 -112 -72.5t-40 -202.5q0 -148 51 -229t144 -81q69 0 120 37v223h83v-223q49 -37 121 -37q93 0 144 80.5t51 229.5q0 130 -40 202.5t-112 72.5z" />
    <glyph glyph-name="uni047F" unicode="&#x47f;" horiz-adv-x="819" 
d="M185 705h404v-13l-40 -84h-15l-24 50h-92l-24 -50h-15l-24 50h-92l-24 -50h-15l-39 84v13zM394 223l-19 -46l-83 -177h-104l-188 535h84l120 -339q20 -54 39 -138h4l14 37q33 72 100 211l-84 229h87q132 -385 140 -411q14 -44 16 -56h4q83 89 121 196q38 108 38 271h81
q0 -177 -48 -300q-46 -120 -154 -235h-89l-61 169q-16 45 -18 54z" />
    <glyph glyph-name="uni0480" unicode="&#x480;" horiz-adv-x="639" 
d="M410 650q-120 0 -190 -78q-70 -77 -70 -215q0 -144 65 -217t191 -73q52 0 82 11v-318h-83v230h-10q-162 0 -248 95t-86 273q-3 164 95 266t256 100q115 0 199 -41l-35 -71q-84 38 -166 38z" />
    <glyph glyph-name="uni0481" unicode="&#x481;" horiz-adv-x="488" 
d="M319 -10h-12q-124 0 -187.5 70t-63.5 204q0 135 66.5 208t189.5 73q84 0 142 -28l-24 -69q-68 25 -120 25q-87 0 -128.5 -50.5t-41.5 -157.5q0 -106 41.5 -155.5t125.5 -49.5q47 0 93 21v-321h-81v230z" />
    <glyph glyph-name="uni0482" unicode="&#x482;" horiz-adv-x="609" 
d="M392 72l-141 81l-89 -155l-59 33l89 157l-140 81l32 56l141 -82l100 174l-141 81l33 57l141 -82l90 155l58 -33l-90 -156l141 -81l-33 -56l-140 81l-100 -173l140 -82z" />
    <glyph glyph-name="uni0483" unicode="&#x483;" horiz-adv-x="557" 
d="M411 617h-220q-6 -46 -47 -46q-24 0 -34.5 11.5t-10.5 38.5q0 26 10.5 36t36.5 10h219q6 46 47 46q47 0 47 -49q0 -27 -10.5 -37t-37.5 -10z" />
    <glyph glyph-name="uni0484" unicode="&#x484;" horiz-adv-x="577" 
d="M121 673h6q57 0 132 29q72 28 112 28q54 0 82.5 -27t28.5 -76v-15h-61v8q0 50 -52 50q-22 0 -100.5 -28t-139.5 -28h-8v59z" />
    <glyph glyph-name="uni0485" unicode="&#x485;" horiz-adv-x="577" 
d="M234 715q0 27 16.5 44t43.5 17q45 0 45 -37q0 -12 -7.5 -19.5t-16 -10t-16 -8t-7.5 -14.5q0 -27 58 -46v-36q-116 32 -116 110z" />
    <glyph glyph-name="uni0486" unicode="&#x486;" horiz-adv-x="577" 
d="M351 715q0 -78 -116 -110v36q58 19 58 46q0 11 -11.5 16.5t-23.5 13t-12 22.5q0 37 45 37q27 0 43.5 -17t16.5 -44z" />
    <glyph glyph-name="uni0488" unicode="&#x488;" horiz-adv-x="989" 
d="M593 601h-39q-4 43 -65 43q-37 0 -50 -9.5t-15 -33.5h-37q6 95 102 95q45 0 72.5 -25t31.5 -70zM593 -156h-39q-4 43 -65 43q-37 0 -50 -9.5t-15 -33.5h-37q6 95 102 95q45 0 73 -25t31 -70zM876 -20h-39q-6 43 -65 43q-37 0 -50 -9t-15 -34h-37q5 95 102 95q45 0 73 -25
t31 -70zM313 -20h-39q-6 43 -65 43q-37 0 -50 -9t-15 -34h-37q5 95 102 95q45 0 73 -25t31 -70zM876 462h-39q-6 43 -65 43q-37 0 -50 -9t-15 -34h-37q5 95 102 95q45 0 73 -25t31 -70zM313 462h-39q-6 43 -65 43q-37 0 -50 -9t-15 -34h-37q5 95 102 95q45 0 73 -25t31 -70z
M969 224h-39q-4 43 -65 43q-37 0 -50 -9t-15 -34h-37q6 95 102 95q45 0 73 -25.5t31 -69.5zM226 224h-39q-4 43 -65 43q-37 0 -49.5 -9t-15.5 -34h-37q5 95 102 95q45 0 73 -25t31 -70z" />
    <glyph glyph-name="uni0489" unicode="&#x489;" horiz-adv-x="956" 
d="M459 -17h68l5 -7q-20 -76 -60 -164h-47q28 117 34 171zM498 557h-68l-5 7q9 36 27 83q18 49 33 81h47q-24 -101 -34 -171zM765 250v68l7 5q36 -9 83 -27q49 -18 81 -33v-47q-117 28 -171 34zM191 289v-68l-7 -5q-76 20 -164 60v47q117 -28 171 -34zM695 449l-48 48l1 8
q31 18 79 40q44 21 79 34l34 -33q-88 -55 -145 -97zM261 70l48 -48l-1 -8q-73 -42 -158 -74l-34 33q88 55 145 97zM288 476l-48 -48l-8 1q-37 63 -74 158l33 34q60 -98 97 -145zM667 42l48 48l8 -1q15 -27 41 -82q21 -43 33 -76l-33 -34l-47 72q-35 54 -50 73z" />
    <glyph glyph-name="uni048A" unicode="&#x48a;" horiz-adv-x="770" 
d="M98 0v714h79v-398q0 -46 -5 -158l-2 -41h4l400 597h90v-640h90l-70 -260h-96l76 186h-78v393q0 86 9 206h-4l-402 -599h-91zM381 771q-91 0 -132 35t-46 115h76q5 -53 27.5 -72t76.5 -19q50 0 74.5 22t29.5 69h77q-6 -78 -50 -114t-133 -36z" />
    <glyph glyph-name="uni048B" unicode="&#x48b;" horiz-adv-x="643" 
d="M86 535h76v-323q0 -58 -5 -133l290 456h101v-465h86l-63 -254h-84l61 184h-76v328q0 83 4 128l-290 -456h-100v535zM326 606q-90 0 -131.5 35t-46.5 115h76q4 -51 26 -71t78 -20q50 0 74.5 21.5t29.5 69.5h77q-6 -78 -49.5 -114t-133.5 -36z" />
    <glyph glyph-name="uni048C" unicode="&#x48c;" horiz-adv-x="613" 
d="M23 550v73h75v91h83v-91h167v-73h-167v-141h94q286 0 286 -201q0 -208 -267 -208h-196v550h-75zM181 335v-264h108q185 0 185 137q0 64 -45.5 95.5t-142.5 31.5h-105z" />
    <glyph glyph-name="uni048D" unicode="&#x48d;" horiz-adv-x="592" 
d="M167 760v-120h144v-63h-144v-263h156q214 0 214 -151q0 -163 -217 -163h-234v577h-76v63h76v120h81zM314 244h-147v-176h149q140 0 140 90q0 46 -32.5 66t-109.5 20z" />
    <glyph glyph-name="uni048E" unicode="&#x48e;" horiz-adv-x="611" 
d="M559 506q0 -131 -109 -188l59 -77l-49 -41l-73 94q-48 -13 -116 -13h-90v-281h-83v714h192q269 0 269 -208zM181 642v-290h81q38 0 80 5l-53 69l53 40l68 -86q62 35 62 122q0 140 -193 140h-98z" />
    <glyph glyph-name="uni048F" unicode="&#x48f;" horiz-adv-x="613" 
d="M335 -10q-110 0 -168 79h-6q6 -72 6 -89v-220h-81v775h66l12 -73h4q58 83 167 83q106 0 164 -73t58 -204q0 -165 -89 -236l56 -76l-49 -39l-64 85q-35 -12 -76 -12zM323 476q-81 0 -118 -45.5t-38 -144.5v-18q0 -113 37 -161.5t121 -48.5q23 0 43 6l-59 77l52 39l63 -83
q49 49 49 172q0 105 -36.5 156t-113.5 51z" />
    <glyph glyph-name="afii10050" unicode="&#x490;" horiz-adv-x="527" 
d="M98 714h327v147h79v-222h-323v-639h-83v714z" />
    <glyph glyph-name="afii10098" unicode="&#x491;" horiz-adv-x="428" 
d="M408 692v-220h-241v-472h-81v535h241v157h81z" />
    <glyph glyph-name="uni0492" unicode="&#x492;" horiz-adv-x="527" 
d="M98 714h406v-75h-323v-249h207v-73h-207v-317h-83v317h-75v73h75v324z" />
    <glyph glyph-name="uni0493" unicode="&#x493;" horiz-adv-x="428" 
d="M407 535v-68h-240v-168h169v-62h-169v-237h-81v237h-77v62h77v236h321z" />
    <glyph glyph-name="uni0494" unicode="&#x494;" horiz-adv-x="642" 
d="M274 320q-50 0 -93 -6v-314h-83v714h411v-75h-328v-252q48 5 103 5q156 0 239.5 -82.5t83.5 -236.5t-70 -238.5t-196 -84.5q-79 0 -136 24v74q60 -24 127 -24q187 0 187 249q0 120 -62.5 183.5t-182.5 63.5z" />
    <glyph glyph-name="uni0495" unicode="&#x495;" horiz-adv-x="525" 
d="M284 -245q-70 0 -120 29v73q56 -31 117 -31q131 0 131 204q0 108 -43.5 159t-131.5 51q-32 0 -70 -8v-232h-81v535h325v-69h-244v-161q41 6 69 6q133 0 197 -69t64 -213q0 -131 -55.5 -202.5t-157.5 -71.5z" />
    <glyph glyph-name="uni0496" unicode="&#x496;" horiz-adv-x="890" 
d="M1 0l291 367l-281 347h93l278 -346v346h80v-346l278 346h93l-281 -346l231 -293h88v-261h-79v186h-46l-284 362v-362h-80v362l-284 -362h-97z" />
    <glyph glyph-name="uni0497" unicode="&#x497;" horiz-adv-x="780" 
d="M330 276v259h75v-259l221 259h89l-224 -259l180 -206h94v-254h-79v184h-46l-235 272v-272h-75v272l-235 -272h-93l242 276l-223 259h89z" />
    <glyph glyph-name="uni0498" unicode="&#x498;" horiz-adv-x="581" 
d="M512 547q0 -69 -44.5 -113.5t-123.5 -56.5v-4q90 -12 136 -55.5t46 -115.5q0 -100 -75.5 -156t-210.5 -56q-124 0 -204 39v77q96 -47 206 -47q96 0 146 36.5t50 105.5q0 133 -219 133h-106v70h102q99 0 154.5 36t55.5 100q0 52 -39.5 83.5t-106.5 31.5q-56 0 -99 -13
t-99 -48l-41 56q98 74 238 74q109 0 171.5 -47.5t62.5 -129.5zM277 -116q0 50 -68 116h60q77 -59 77 -123q0 -45 -25.5 -70t-72.5 -25q-30 0 -56 8v53q18 -5 42 -5q19 0 31 12t12 34z" />
    <glyph glyph-name="uni0499" unicode="&#x499;" horiz-adv-x="483" 
d="M130 313h58q152 0 152 84q0 79 -123 79q-65 0 -149 -34l-29 66q81 37 181 37q92 0 145.5 -38t53.5 -103q0 -90 -100 -118v-4q118 -35 118 -135q0 -74 -60 -115.5t-165 -41.5q-115 0 -179 35v74q90 -42 181 -42q142 0 142 94q0 93 -152 93h-74v69zM238 -116q0 50 -68 116
h60q77 -59 77 -123q0 -45 -25.5 -70t-72.5 -25q-30 0 -56 8v53q18 -5 42 -5q19 0 31 12t12 34z" />
    <glyph glyph-name="uni049A" unicode="&#x49a;" horiz-adv-x="661" 
d="M316 404l246 -329h84v-261h-79v186h-50l-261 346l-75 -66v-280h-83v714h83v-354l324 354h98z" />
    <glyph glyph-name="uni049B" unicode="&#x49b;" horiz-adv-x="545" 
d="M167 275l231 260h89l-231 -258l187 -207h87v-255h-78v185h-41l-244 271v-271h-81v535h81v-260z" />
    <glyph glyph-name="uni049C" unicode="&#x49c;" horiz-adv-x="614" 
d="M242 146v186l-61 -52v-280h-83v714h83v-357l61 68v170h61v-103l201 222h99l-287 -310l298 -404h-98l-213 295v-149h-61z" />
    <glyph glyph-name="uni049D" unicode="&#x49d;" horiz-adv-x="533" 
d="M225 46v166l-58 59v-271h-81v535h81v-260l58 59v161h64v-100l132 140h89l-221 -232v-52l240 -251h-95l-146 154v-108h-63z" />
    <glyph glyph-name="uni049E" unicode="&#x49e;" horiz-adv-x="614" 
d="M23 553v74h75v87h83v-87h108v-74h-108v-196l323 357h99l-287 -310l298 -404h-101l-257 346l-75 -65v-281h-83v553h-75z" />
    <glyph glyph-name="uni049F" unicode="&#x49f;" horiz-adv-x="517" 
d="M10 607v62h76v91h80v-91h186v-62h-186v-262l-1 -44l-2 -27h4l9 12q30 40 36 47l190 202h97l-217 -228l231 -307h-97l-189 252l-61 -52v-200h-80v607h-76z" />
    <glyph glyph-name="uni04A0" unicode="&#x4a0;" horiz-adv-x="689" 
d="M8 639v75h248v-357l323 357h99l-287 -310l298 -404h-98l-260 346l-75 -66v-280h-83v639h-165z" />
    <glyph glyph-name="uni04A1" unicode="&#x4a1;" horiz-adv-x="615" 
d="M20 467v68h251v-260l232 260h89l-231 -259l250 -276h-95l-245 271v-271h-80v467h-171z" />
    <glyph glyph-name="uni04A2" unicode="&#x4a2;" horiz-adv-x="746" 
d="M640 714v-639h79v-261h-79v186h-83v336h-376v-336h-83v714h83v-304h376v304h83z" />
    <glyph glyph-name="uni04A3" unicode="&#x4a3;" horiz-adv-x="648" 
d="M86 535h81v-224h300v224h81v-465h73v-254h-81v184h-73v241h-300v-241h-81v535z" />
    <glyph glyph-name="uni04A4" unicode="&#x4a4;" horiz-adv-x="813" 
d="M804 714v-75h-164v-639h-84v336h-375v-336h-83v714h83v-304h375v304h248z" />
    <glyph glyph-name="uni04A5" unicode="&#x4a5;" horiz-adv-x="736" 
d="M86 535h81v-224h300v224h252v-68h-171v-467h-81v241h-300v-241h-81v535z" />
    <glyph glyph-name="uni04A6" unicode="&#x4a6;" horiz-adv-x="1067" 
d="M606 313v-313h-83v639h-342v-639h-83v714h508v-328q33 6 94 6q150 0 232 -84t82 -236q0 -153 -69 -237.5t-195 -84.5q-76 0 -136 24v74q64 -24 127 -24q185 0 185 249q0 119 -57 182.5t-169 63.5q-9 0 -51 -2q-18 -1 -43 -4z" />
    <glyph glyph-name="uni04A7" unicode="&#x4a7;" horiz-adv-x="865" 
d="M636 -245q-64 0 -111 29v73q52 -31 106 -31q117 0 117 204q0 108 -40.5 159t-124.5 51q-35 0 -68 -10v-230h-82v465h-266v-465h-81v535h429v-231q35 7 69 7q120 0 184 -72.5t64 -209.5q0 -131 -51 -202.5t-145 -71.5z" />
    <glyph glyph-name="uni04A8" unicode="&#x4a8;" horiz-adv-x="779" 
d="M715 331q0 -87 -33.5 -163t-90.5 -118q31 -15 76 -15q37 0 68 11v-75q-27 -12 -72 -12q-88 0 -159 49q-50 -18 -120 -18q-152 0 -238 96q-85 95 -85 263q0 184 80.5 280t233.5 96q61 0 107 -17l-23 -71q-42 14 -85 14q-225 0 -225 -298q0 -141 62 -215.5t177 -74.5
q24 0 49 5q-87 104 -87 267q0 118 48.5 183.5t133.5 65.5q89 0 136 -65t47 -188zM629 328q0 87 -25 136.5t-71 49.5t-71 -48.5t-25 -135.5q0 -146 86 -234q50 33 78 95t28 137z" />
    <glyph glyph-name="uni04A9" unicode="&#x4a9;" horiz-adv-x="640" 
d="M366 243q0 -95 64 -150q74 47 74 152q0 115 -66 115q-72 0 -72 -117zM541 -28q-71 0 -135 38q-48 -20 -107 -20q-110 0 -176.5 75t-66.5 197q0 135 60.5 209t171.5 74q43 0 82 -11l-18 -67q-26 9 -65 9q-76 0 -111.5 -51t-35.5 -164q0 -100 41.5 -151.5t121.5 -51.5
q39 0 47 6q-68 73 -68 182q0 85 41 132t115 47q72 0 110.5 -46t38.5 -133q0 -61 -26 -112t-72 -82q25 -13 58 -13q34 0 56 7v-67q-18 -7 -62 -7z" />
    <glyph glyph-name="uni04AA" unicode="&#x4aa;" horiz-adv-x="631" 
d="M404 650q-118 0 -186 -78.5t-68 -214.5q0 -141 65.5 -217t187.5 -76q75 0 170 27v-73q-72 -28 -183 -28q-158 0 -243.5 96t-85.5 272q0 167 92.5 266.5t251.5 99.5q111 0 196 -41l-35 -71q-82 38 -162 38zM377 -116q0 50 -68 116h60q77 -59 77 -123q0 -45 -25.5 -70
t-72.5 -25q-30 0 -56 8v53q18 -5 42 -5q19 0 31 12t12 34z" />
    <glyph glyph-name="uni04AB" unicode="&#x4ab;" horiz-adv-x="476" 
d="M300 -10q-116 0 -180 71.5t-64 202.5q0 134 65 207.5t184 73.5q84 0 138 -28l-25 -69q-60 25 -115 25q-163 0 -163 -208q0 -99 40 -151.5t118 -52.5q65 0 137 29v-72q-53 -28 -135 -28zM298 -116q0 50 -68 116h60q77 -59 77 -123q0 -45 -25.5 -70t-72.5 -25q-30 0 -56 8
v53q18 -5 42 -5q19 0 31 12t12 34z" />
    <glyph glyph-name="uni04AC" unicode="&#x4ac;" horiz-adv-x="553" 
d="M234 0v639h-226v75h536v-75h-226v-564h79v-261h-79v186h-84z" />
    <glyph glyph-name="uni04AD" unicode="&#x4ad;" horiz-adv-x="467" 
d="M192 0v467h-172v68h426v-68h-173v-397h73v-254h-81v184h-73z" />
    <glyph glyph-name="uni04AE" unicode="&#x4ae;" horiz-adv-x="560" 
d="M91 714l189 -357l190 357h90l-238 -437v-277h-84v273l-238 441h91z" />
    <glyph glyph-name="uni04AF" unicode="&#x4af;" horiz-adv-x="501" 
d="M291 -2v-238h-81v238l-210 537h84l115 -299q42 -112 50 -156h4q18 74 50 156l114 299h84z" />
    <glyph glyph-name="uni04B0" unicode="&#x4b0;" horiz-adv-x="560" 
d="M91 714l189 -357l190 357h90l-238 -437v-29h146v-74h-146v-174h-84v174h-147v74h147v25l-238 441h91z" />
    <glyph glyph-name="uni04B1" unicode="&#x4b1;" horiz-adv-x="501" 
d="M426 -63h-135v-177h-81v177h-136v63h135l-209 535h84l115 -299q42 -112 50 -156h4q18 74 50 156l114 299h84l-209 -535h134v-63z" />
    <glyph glyph-name="uni04B2" unicode="&#x4b2;" horiz-adv-x="619" 
d="M335 376l190 -301h79v-261h-79v186h-46l-192 314l-195 -314h-88l237 373l-221 341h92l177 -283l179 283h88z" />
    <glyph glyph-name="uni04B3" unicode="&#x4b3;" horiz-adv-x="542" 
d="M19 0l196 274l-186 261h92l141 -205l141 205h91l-186 -261l146 -204h73v-255h-81v185h-34l-150 217l-151 -217h-92z" />
    <glyph glyph-name="uni04B4" unicode="&#x4b4;" horiz-adv-x="855" 
d="M749 714v-639h83v-261h-79v186h-537v639h-208v75h523v-75h-232v-564h367v639h83z" />
    <glyph glyph-name="uni04B5" unicode="&#x4b5;" horiz-adv-x="717" 
d="M434 534v-68h-176v-396h284v464h81v-464h76v-254h-81v184h-441v466h-157v68h414z" />
    <glyph glyph-name="uni04B6" unicode="&#x4b6;" horiz-adv-x="692" 
d="M597 714v-639h79v-261h-79v186h-83v295q-74 -26 -121 -36q-48 -9 -100 -9q-101 0 -155.5 46.5t-54.5 133.5v284h83v-274q0 -60 31.5 -88t100.5 -28q49 0 90 7q47 8 126 34v349h83z" />
    <glyph glyph-name="uni04B7" unicode="&#x4b7;" horiz-adv-x="609" 
d="M76 535h81v-195q0 -94 107 -94q84 0 177 60v229h81v-465h73v-255h-81v185h-73v242q-51 -35 -95 -49.5t-99 -14.5q-80 0 -125.5 42t-45.5 114v201z" />
    <glyph glyph-name="uni04B8" unicode="&#x4b8;" horiz-adv-x="695" 
d="M307 104v146q-224 0 -224 180v284h83v-274q0 -59 33.5 -87.5t107.5 -28.5v170h61v-167q65 6 145 36v351h84v-714h-84v293q-87 -33 -145 -40v-149h-61z" />
    <glyph glyph-name="uni04B9" unicode="&#x4b9;" horiz-adv-x="600" 
d="M76 535h81v-195q0 -91 98 -94v147h58v-142q57 12 120 55v229h81v-535h-81v242q-61 -44 -120 -57v-121h-58v114h-11q-78 0 -123 41.5t-45 114.5v201z" />
    <glyph glyph-name="uni04BA" unicode="&#x4ba;" horiz-adv-x="695" 
d="M98 0v714h83v-295q124 45 221 45q101 0 155.5 -46.5t54.5 -133.5v-284h-83v274q0 60 -31.5 88t-100.5 28q-48 0 -98 -8q-44 -7 -118 -33v-349h-83z" />
    <glyph glyph-name="uni04BB" unicode="&#x4bb;" horiz-adv-x="585" 
d="M532 0h-82v194q0 94 -106 94q-44 0 -81 -12t-96 -48v-228h-81v535h81v-243q87 64 193 64q80 0 126 -41t46 -115v-200z" />
    <glyph glyph-name="uni04BC" unicode="&#x4bc;" horiz-adv-x="838" 
d="M30 441q0 37 13 62h71q-10 -23 -10 -54q0 -50 55 -50h17l2 21q14 145 96 225t217 80q290 0 290 -365v-34h-518q14 -262 255 -262q99 0 217 36v-76q-102 -34 -227 -34q-153 0 -238.5 86.5t-94.5 249.5q-70 0 -107.5 29t-37.5 86zM490 651q-102 0 -160.5 -65t-66.5 -187
h429q0 129 -49.5 190.5t-152.5 61.5z" />
    <glyph glyph-name="uni04BD" unicode="&#x4bd;" horiz-adv-x="659" 
d="M411 -10q-119 0 -186 69.5t-70 193.5q-130 1 -130 110q0 33 12 58h69q-10 -21 -10 -52q0 -50 52 -50h10l3 17q17 98 77.5 153t150.5 55q101 0 160 -64.5t59 -175.5v-51h-369q6 -192 171 -192q90 0 175 36v-72q-80 -35 -174 -35zM387 476q-132 0 -146 -157h280
q0 157 -134 157z" />
    <glyph glyph-name="uni04BE" unicode="&#x4be;" horiz-adv-x="838" 
d="M453 -186v180q-127 14 -198 98.5t-80 233.5q-70 0 -107.5 29t-37.5 86q0 37 13 62h71q-10 -23 -10 -54q0 -50 55 -50h17l2 21q14 145 96 225t217 80q290 0 290 -365v-34h-518q14 -262 255 -262q99 0 217 36v-76q-85 -30 -201 -33v-177h-81zM490 651q-102 0 -160.5 -65
t-66.5 -187h429q0 129 -49.5 190.5t-152.5 61.5z" />
    <glyph glyph-name="uni04BF" unicode="&#x4bf;" horiz-adv-x="659" 
d="M354 -184v179q-93 15 -144.5 82t-54.5 176q-130 1 -130 110q0 33 12 58h69q-10 -21 -10 -52q0 -50 52 -50h10l3 17q17 98 77.5 153t150.5 55q101 0 160 -64.5t59 -175.5v-51h-369q6 -192 171 -192q90 0 175 36v-72q-71 -33 -150 -34v-175h-81zM387 476q-132 0 -146 -157
h280q0 157 -134 157z" />
    <glyph glyph-name="uni04C0" unicode="&#x4c0;" horiz-adv-x="279" 
d="M181 0h-83v714h83v-714z" />
    <glyph glyph-name="uni04C1" unicode="&#x4c1;" horiz-adv-x="844" 
d="M1 0l291 367l-281 347h93l278 -346v346h80v-346l278 346h93l-281 -346l290 -368h-96l-284 362v-362h-80v362l-284 -362h-97zM418 772q-90 0 -131.5 35t-46.5 115h76q4 -51 26.5 -71t77.5 -20q50 0 74.5 21.5t29.5 69.5h77q-6 -78 -49.5 -114t-133.5 -36z" />
    <glyph glyph-name="uni04C2" unicode="&#x4c2;" horiz-adv-x="736" 
d="M330 275v259h75v-259l221 259h89l-224 -259l243 -275h-94l-235 271v-271h-75v271l-235 -271h-93l242 275l-223 259h89zM365 606q-90 0 -131.5 35t-46.5 115h76q4 -51 26.5 -71t77.5 -20q50 0 74.5 21.5t29.5 69.5h77q-6 -78 -49.5 -114t-133.5 -36z" />
    <glyph glyph-name="uni04C3" unicode="&#x4c3;" horiz-adv-x="689" 
d="M296 310q-69 0 -115 -15v-295h-83v714h83v-346l317 346h100l-310 -334l13 1q163 0 249.5 -79.5t86.5 -228.5q0 -153 -72 -238t-202 -85q-78 0 -135 24v74q60 -24 134 -24q90 0 139.5 65.5t49.5 183.5q0 113 -67 175t-188 62z" />
    <glyph glyph-name="uni04C4" unicode="&#x4c4;" horiz-adv-x="549" 
d="M166 220v-220h-80v535h80v-253l236 253h89l-223 -235q124 -2 186 -71t62 -200q0 -129 -59 -201.5t-159 -72.5q-66 0 -113 29v71q60 -31 110 -31q66 0 103 53t37 151q0 204 -184 204q-40 0 -85 -12z" />
    <glyph glyph-name="uni04C5" unicode="&#x4c5;" horiz-adv-x="706" 
d="M606 714v-639h90l-70 -261h-96l76 186h-83v640h-232l-15 -117q-29 -228 -53 -342q-21 -106 -58.5 -149.5t-99.5 -42.5q-37 0 -65 12v70q25 -13 55 -13q53 0 79 95q32 113 88 561h384z" />
    <glyph glyph-name="uni04C6" unicode="&#x4c6;" horiz-adv-x="572" 
d="M484 534v-464h86l-63 -254h-84l61 184h-81v465h-162q-14 -177 -36 -277q-23 -100 -60.5 -147t-94.5 -47q-27 0 -42 5v62q10 -3 24 -3q55 0 88.5 115t50.5 361h313z" />
    <glyph glyph-name="uni04C7" unicode="&#x4c7;" horiz-adv-x="727" 
d="M640 714v-641q0 -155 -69 -239t-196 -84q-78 0 -137 24v73q60 -24 126 -24q193 0 193 246v267h-376v-336h-83v714h83v-304h376v304h83z" />
    <glyph glyph-name="uni04C8" unicode="&#x4c8;" horiz-adv-x="616" 
d="M353 -245q-64 0 -110 28v73q54 -30 104 -30q61 0 90 48.5t29 149.5v217h-299v-241h-81v535h81v-224h299v224h82v-510q0 -131 -50.5 -200.5t-144.5 -69.5z" />
    <glyph glyph-name="uni04C9" unicode="&#x4c9;" horiz-adv-x="745" 
d="M640 714v-639h90l-71 -261h-96l77 186h-83v336h-376v-336h-83v714h83v-304h376v304h83z" />
    <glyph glyph-name="uni04CA" unicode="&#x4ca;" horiz-adv-x="653" 
d="M86 534h81v-223h300v223h81v-464h86l-63 -254h-84l61 184h-81v241h-300v-241h-81v534z" />
    <glyph glyph-name="uni04CB" unicode="&#x4cb;" horiz-adv-x="695" 
d="M597 714v-714h-83v-186h-79v261h79v220q-74 -26 -121 -36q-48 -9 -100 -9q-101 0 -155.5 46.5t-54.5 133.5v284h83v-274q0 -60 31.5 -88t100.5 -28q49 0 90 7q47 8 126 34v349h83z" />
    <glyph glyph-name="uni04CC" unicode="&#x4cc;" horiz-adv-x="608" 
d="M76 535h81v-195q0 -94 107 -94q84 0 177 60v229h81v-535h-73v-185h-81v255h73v172q-51 -35 -95 -49.5t-99 -14.5q-80 0 -125.5 42t-45.5 114v201z" />
    <glyph glyph-name="uni04CD" unicode="&#x4cd;" horiz-adv-x="904" 
d="M481 0h-67l-242 633h-4l3 -62q4 -84 4 -117v-454h-77v714h125l227 -589h4l227 589h124v-639h90l-70 -261h-97l77 186h-83v460q0 71 7 172h-4z" />
    <glyph glyph-name="uni04CE" unicode="&#x4ce;" horiz-adv-x="736" 
d="M364 78l15 46l21 57l145 353h103v-464h86l-63 -254h-84l61 184h-72v442l-10 -28l-28 -75l-138 -339h-68l-138 340q-26 64 -36 102v-442h-72v534h99l145 -353q22 -52 34 -103z" />
    <glyph glyph-name="uni04CF" unicode="&#x4cf;" horiz-adv-x="279" 
d="M181 0h-83v714h83v-714z" />
    <glyph glyph-name="uni04D0" unicode="&#x4d0;" horiz-adv-x="633" 
d="M633 0h-86l-89 227h-286l-88 -227h-84l282 717h70zM201 302h231l-83 221q-17 43 -33 103q-9 -41 -31 -103zM313 771q-90 0 -131.5 35t-46.5 115h76q4 -51 26.5 -71t77.5 -20q50 0 74.5 21.5t29.5 69.5h77q-6 -78 -49.5 -114t-133.5 -36z" />
    <glyph glyph-name="uni04D1" unicode="&#x4d1;" 
d="M475 0h-60l-16 76h-4q-39 -49 -78.5 -67.5t-100.5 -18.5q-81 0 -125.5 41.5t-44.5 116.5q0 163 259 170l91 3v33q0 63 -27 93t-87 30q-66 0 -151 -41l-25 62q84 46 181 46t142.5 -43t45.5 -136v-365zM232 57q76 0 119 41.5t43 116.5v48l-81 -3q-97 -4 -139.5 -30.5
t-42.5 -82.5q0 -44 26.5 -67t74.5 -23zM273 606q-90 0 -131.5 35t-46.5 115h76q4 -51 26.5 -71t77.5 -20q50 0 74.5 21.5t29.5 69.5h77q-6 -78 -49.5 -114t-133.5 -36z" />
    <glyph glyph-name="uni04D2" unicode="&#x4d2;" horiz-adv-x="633" 
d="M633 0h-86l-89 227h-286l-88 -227h-84l282 717h70zM201 302h231l-83 221q-17 43 -33 103q-9 -41 -31 -103zM181 845q0 48 44 48q45 0 45 -48q0 -23 -13 -35.5t-32 -12.5t-31.5 12.5t-12.5 35.5zM367 845q0 48 44 48q45 0 45 -48q0 -23 -13 -35.5t-32 -12.5t-31.5 12.5
t-12.5 35.5z" />
    <glyph glyph-name="uni04D3" unicode="&#x4d3;" 
d="M475 0h-60l-16 76h-4q-39 -49 -78.5 -67.5t-100.5 -18.5q-81 0 -125.5 41.5t-44.5 116.5q0 163 259 170l91 3v33q0 63 -27 93t-87 30q-66 0 -151 -41l-25 62q84 46 181 46t142.5 -43t45.5 -136v-365zM232 57q76 0 119 41.5t43 116.5v48l-81 -3q-97 -4 -139.5 -30.5
t-42.5 -82.5q0 -44 26.5 -67t74.5 -23zM145 680q0 48 44 48q45 0 45 -48q0 -23 -13 -35.5t-32 -12.5t-31.5 12.5t-12.5 35.5zM331 680q0 48 44 48q45 0 45 -48q0 -23 -13 -35.5t-32 -12.5t-31.5 12.5t-12.5 35.5z" />
    <glyph glyph-name="uni04D4" unicode="&#x4d4;" horiz-adv-x="873" 
d="M813 74v-74h-366v227h-251l-111 -227h-86l341 714h473v-74h-283v-230h264v-73h-264v-263h283zM389 640l-160 -338h218v338h-58z" />
    <glyph glyph-name="uni04D5" unicode="&#x4d5;" horiz-adv-x="858" 
d="M46 148q0 163 245 170l90 3v33q0 123 -115 123q-70 0 -150 -41l-25 62q82 46 181 46q125 0 164 -89q55 90 163 90q94 0 150 -65q57 -64 57 -174v-52h-342q4 -193 157 -193q83 0 162 36v-72q-78 -35 -164 -35q-141 0 -202 114q-39 -61 -87 -87.5t-114 -26.5
q-80 0 -125 41.5t-45 116.5zM131 147q0 -45 25.5 -67.5t69.5 -22.5q72 0 112.5 41.5t40.5 116.5v48l-77 -3q-91 -4 -131 -30.5t-40 -82.5zM598 477q-121 0 -132 -158h253q0 76 -31 117t-90 41z" />
    <glyph glyph-name="uni04D6" unicode="&#x4d6;" 
d="M496 74v-74h-398v714h398v-74h-315v-230h296v-73h-296v-263h315zM293 771q-90 0 -131.5 35t-46.5 115h76q4 -51 26.5 -71t77.5 -20q50 0 74.5 21.5t29.5 69.5h77q-6 -78 -49.5 -114t-133.5 -36z" />
    <glyph glyph-name="uni04D7" unicode="&#x4d7;" horiz-adv-x="561" 
d="M312 -10q-119 0 -187.5 72.5t-68.5 200.5q0 130 64 206t171 76q101 0 159 -66q59 -67 59 -175v-51h-369q3 -94 48 -143t127 -49q85 0 171 36v-72q-80 -35 -174 -35zM290 477q-64 0 -102.5 -41.5t-45.5 -116.5h280q0 77 -34 117.5t-98 40.5zM291 606q-90 0 -131.5 35
t-46.5 115h76q4 -51 26.5 -71t77.5 -20q50 0 74.5 21.5t29.5 69.5h77q-6 -78 -49.5 -114t-133.5 -36z" />
    <glyph glyph-name="uni04D8" unicode="&#x4d8;" horiz-adv-x="730" 
d="M324 651q-113 0 -221 -37v77q106 34 224 34q162 0 251.5 -97.5t89.5 -271.5q0 -172 -85 -269q-84 -97 -235 -97q-291 0 -291 365v34h523q-17 262 -256 262zM348 64q103 0 163.5 65.5t68.5 186.5h-434q0 -129 50 -190.5t152 -61.5z" />
    <glyph glyph-name="uni04D9" unicode="&#x4d9;" horiz-adv-x="559" 
d="M247 545q120 0 188 -73.5t68 -200.5q0 -129 -64 -205q-63 -76 -169 -76q-102 0 -161 65q-59 67 -59 176v51h369q-4 191 -171 191q-91 0 -175 -36v72q85 36 174 36zM271 58q65 0 102.5 40.5t43.5 116.5h-280q0 -77 34.5 -117t99.5 -40z" />
    <glyph glyph-name="uni04DA" unicode="&#x4da;" horiz-adv-x="730" 
d="M324 651q-113 0 -221 -37v77q106 34 224 34q162 0 251.5 -97.5t89.5 -271.5q0 -172 -85 -269q-84 -97 -235 -97q-291 0 -291 365v34h523q-17 262 -256 262zM348 64q103 0 163.5 65.5t68.5 186.5h-434q0 -129 50 -190.5t152 -61.5zM223 845q0 48 44 48q45 0 45 -48
q0 -23 -13 -35.5t-32 -12.5t-31.5 12.5t-12.5 35.5zM409 845q0 48 44 48q45 0 45 -48q0 -23 -13 -35.5t-32 -12.5t-31.5 12.5t-12.5 35.5z" />
    <glyph glyph-name="uni04DB" unicode="&#x4db;" horiz-adv-x="559" 
d="M247 545q120 0 188 -73.5t68 -200.5q0 -129 -64 -205q-63 -76 -169 -76q-102 0 -161 65q-59 67 -59 176v51h369q-4 191 -171 191q-91 0 -175 -36v72q85 36 174 36zM271 58q65 0 102.5 40.5t43.5 116.5h-280q0 -77 34.5 -117t99.5 -40zM140 680q0 48 44 48q45 0 45 -48
q0 -23 -13 -35.5t-32 -12.5t-31.5 12.5t-12.5 35.5zM326 680q0 48 44 48q45 0 45 -48q0 -23 -13 -35.5t-32 -12.5t-31.5 12.5t-12.5 35.5z" />
    <glyph glyph-name="uni04DC" unicode="&#x4dc;" horiz-adv-x="844" 
d="M1 0l291 367l-281 347h93l278 -346v346h80v-346l278 346h93l-281 -346l290 -368h-96l-284 362v-362h-80v362l-284 -362h-97zM284 845q0 48 44 48q45 0 45 -48q0 -23 -13 -35.5t-32 -12.5t-31.5 12.5t-12.5 35.5zM470 845q0 48 44 48q45 0 45 -48q0 -23 -13 -35.5
t-32 -12.5t-31.5 12.5t-12.5 35.5z" />
    <glyph glyph-name="uni04DD" unicode="&#x4dd;" horiz-adv-x="736" 
d="M330 275v259h75v-259l221 259h89l-224 -259l243 -275h-94l-235 271v-271h-75v271l-235 -271h-93l242 275l-223 259h89zM230 680q0 48 44 48q45 0 45 -48q0 -23 -13 -35.5t-32 -12.5t-31.5 12.5t-12.5 35.5zM416 680q0 48 44 48q45 0 45 -48q0 -23 -13 -35.5t-32 -12.5
t-31.5 12.5t-12.5 35.5z" />
    <glyph glyph-name="uni04DE" unicode="&#x4de;" horiz-adv-x="581" 
d="M512 547q0 -69 -44.5 -113.5t-123.5 -56.5v-4q90 -12 136 -55.5t46 -115.5q0 -100 -75.5 -156t-210.5 -56q-124 0 -204 39v77q96 -47 206 -47q96 0 146 36.5t50 105.5q0 133 -219 133h-106v70h102q99 0 154.5 36t55.5 100q0 52 -39.5 83.5t-106.5 31.5q-56 0 -99 -13
t-99 -48l-41 56q98 74 238 74q109 0 171.5 -47.5t62.5 -129.5zM145 845q0 48 44 48q45 0 45 -48q0 -23 -13 -35.5t-32 -12.5t-31.5 12.5t-12.5 35.5zM331 845q0 48 44 48q45 0 45 -48q0 -23 -13 -35.5t-32 -12.5t-31.5 12.5t-12.5 35.5z" />
    <glyph glyph-name="uni04DF" unicode="&#x4df;" horiz-adv-x="483" 
d="M130 313h58q152 0 152 84q0 79 -123 79q-65 0 -149 -34l-29 66q81 37 181 37q92 0 145.5 -38t53.5 -103q0 -90 -100 -118v-4q118 -35 118 -135q0 -74 -60 -115.5t-165 -41.5q-115 0 -179 35v74q90 -42 181 -42q142 0 142 94q0 93 -152 93h-74v69zM98 680q0 48 44 48
q45 0 45 -48q0 -23 -13 -35.5t-32 -12.5t-31.5 12.5t-12.5 35.5zM284 680q0 48 44 48q45 0 45 -48q0 -23 -13 -35.5t-32 -12.5t-31.5 12.5t-12.5 35.5z" />
    <glyph glyph-name="uni04E0" unicode="&#x4e0;" horiz-adv-x="583" 
d="M497 646l-249 -240q136 -5 207.5 -56.5t71.5 -145.5q0 -100 -75.5 -157t-210.5 -57q-125 0 -205 39v77q96 -47 207 -47q96 0 146 37.5t50 107.5q0 133 -219 133h-68v69l241 233h-337v75h441v-68z" />
    <glyph glyph-name="uni04E1" unicode="&#x4e1;" horiz-adv-x="489" 
d="M428 475l-219 -249q111 -5 179 -65t68 -159q0 -108 -72 -175q-71 -67 -189 -67q-115 0 -182 34v75q90 -42 187 -42q79 0 127 46.5t48 124.5q0 80 -52 121.5t-151 41.5h-59v56l221 249h-308v69h402v-60z" />
    <glyph glyph-name="uni04E2" unicode="&#x4e2;" horiz-adv-x="762" 
d="M99 0v714h78v-397q0 -116 -7 -199h4l400 596h91v-714h-78v393q0 91 8 206h-4l-401 -599h-91zM235 771v67h293v-67h-293z" />
    <glyph glyph-name="uni04E3" unicode="&#x4e3;" horiz-adv-x="634" 
d="M86 535h76v-339l-3 -89l-2 -28l290 456h101v-535h-76v327l2 65l2 63l-289 -455h-101v535zM171 606v67h293v-67h-293z" />
    <glyph glyph-name="uni04E4" unicode="&#x4e4;" horiz-adv-x="762" 
d="M99 0v714h78v-397q0 -116 -7 -199h4l400 596h91v-714h-78v393q0 91 8 206h-4l-401 -599h-91zM244 845q0 48 44 48q45 0 45 -48q0 -23 -13 -35.5t-32 -12.5t-31.5 12.5t-12.5 35.5zM430 845q0 48 44 48q45 0 45 -48q0 -23 -13 -35.5t-32 -12.5t-31.5 12.5t-12.5 35.5z" />
    <glyph glyph-name="uni04E5" unicode="&#x4e5;" horiz-adv-x="634" 
d="M86 535h76v-339l-3 -89l-2 -28l290 456h101v-535h-76v327l2 65l2 63l-289 -455h-101v535zM181 680q0 48 44 48q45 0 45 -48q0 -23 -13 -35.5t-32 -12.5t-31.5 12.5t-12.5 35.5zM367 680q0 48 44 48q45 0 45 -48q0 -23 -13 -35.5t-32 -12.5t-31.5 12.5t-12.5 35.5z" />
    <glyph glyph-name="uni04E6" unicode="&#x4e6;" horiz-adv-x="779" 
d="M718 358q0 -171 -87 -270q-87 -98 -241 -98q-158 0 -243.5 96t-85.5 273q0 174 86 270t244 96q154 0 240 -98q87 -98 87 -269zM149 358q0 -145 61.5 -220t179.5 -75q240 0 240 295q0 144 -60.5 218.5t-178.5 74.5q-119 0 -180.5 -74.5t-61.5 -218.5zM253 845q0 48 44 48
q45 0 45 -48q0 -23 -13 -35.5t-32 -12.5t-31.5 12.5t-12.5 35.5zM439 845q0 48 44 48q45 0 45 -48q0 -23 -13 -35.5t-32 -12.5t-31.5 12.5t-12.5 35.5z" />
    <glyph glyph-name="uni04E7" unicode="&#x4e7;" horiz-adv-x="604" 
d="M548 268q0 -131 -66 -204.5t-182 -73.5q-109 0 -176.5 76t-67.5 202q0 131 65.5 204t181.5 73q113 0 179 -75q66 -74 66 -202zM140 268q0 -103 41 -156.5t121 -53.5q79 0 120.5 53.5t41.5 156.5q0 102 -41.5 155t-121.5 53q-161 0 -161 -208zM165 680q0 48 44 48
q45 0 45 -48q0 -23 -13 -35.5t-32 -12.5t-31.5 12.5t-12.5 35.5zM351 680q0 48 44 48q45 0 45 -48q0 -23 -13 -35.5t-32 -12.5t-31.5 12.5t-12.5 35.5z" />
    <glyph glyph-name="uni04E8" unicode="&#x4e8;" horiz-adv-x="780" 
d="M718 358q0 -171 -87 -270q-87 -98 -241 -98q-158 0 -243.5 96t-85.5 273q0 174 86 270t244 96q154 0 240 -98q87 -98 87 -269zM390 63q227 0 239 264h-479q6 -130 67 -197t173 -67zM391 651q-109 0 -170.5 -63t-70.5 -188h478q-8 124 -68 187.5t-169 63.5z" />
    <glyph glyph-name="uni04E9" unicode="&#x4e9;" horiz-adv-x="604" 
d="M548 268q0 -131 -66 -204.5t-182 -73.5q-109 0 -176.5 76t-67.5 202q0 131 65.5 204t181.5 73q113 0 179 -75q66 -74 66 -202zM302 58q152 0 162 183h-324q5 -92 44.5 -137.5t117.5 -45.5zM301 476q-148 0 -160 -166h322q-14 166 -162 166z" />
    <glyph glyph-name="uni04EA" unicode="&#x4ea;" horiz-adv-x="780" 
d="M718 358q0 -171 -87 -270q-87 -98 -241 -98q-158 0 -243.5 96t-85.5 273q0 174 86 270t244 96q154 0 240 -98q87 -98 87 -269zM390 63q227 0 239 264h-479q6 -130 67 -197t173 -67zM391 651q-109 0 -170.5 -63t-70.5 -188h478q-8 124 -68 187.5t-169 63.5zM253 845
q0 48 44 48q45 0 45 -48q0 -23 -13 -35.5t-32 -12.5t-31.5 12.5t-12.5 35.5zM439 845q0 48 44 48q45 0 45 -48q0 -23 -13 -35.5t-32 -12.5t-31.5 12.5t-12.5 35.5z" />
    <glyph glyph-name="uni04EB" unicode="&#x4eb;" horiz-adv-x="604" 
d="M548 268q0 -131 -66 -204.5t-182 -73.5q-109 0 -176.5 76t-67.5 202q0 131 65.5 204t181.5 73q113 0 179 -75q66 -74 66 -202zM302 58q152 0 162 183h-324q5 -92 44.5 -137.5t117.5 -45.5zM301 476q-148 0 -160 -166h322q-14 166 -162 166zM164 680q0 48 44 48
q45 0 45 -48q0 -23 -13 -35.5t-32 -12.5t-31.5 12.5t-12.5 35.5zM350 680q0 48 44 48q45 0 45 -48q0 -23 -13 -35.5t-32 -12.5t-31.5 12.5t-12.5 35.5z" />
    <glyph glyph-name="uni04EC" unicode="&#x4ec;" horiz-adv-x="630" 
d="M228 650q-85 0 -163 -37l-35 70q85 41 199 41q159 0 248.5 -95t89.5 -258q0 -184 -89 -282.5t-256 -98.5q-112 0 -187 28v73q114 -27 173 -27q131 0 199 70t72 204h-351v74h350q-11 112 -77 175t-173 63zM142 845q0 48 44 48q45 0 45 -48q0 -23 -13 -35.5t-32 -12.5
t-31.5 12.5t-12.5 35.5zM328 845q0 48 44 48q45 0 45 -48q0 -23 -13 -35.5t-32 -12.5t-31.5 12.5t-12.5 35.5z" />
    <glyph glyph-name="uni04ED" unicode="&#x4ed;" horiz-adv-x="492" 
d="M167 -10q-83 0 -139 28v72q75 -29 142 -29q171 0 182 181h-271v69h270q-8 84 -49 123t-120 39q-49 0 -124 -26l-23 68q64 30 146 30q125 0 190 -71.5t65 -206.5q0 -131 -70.5 -204t-198.5 -73zM95 680q0 48 44 48q45 0 45 -48q0 -23 -13 -35.5t-32 -12.5t-31.5 12.5
t-12.5 35.5zM281 680q0 48 44 48q45 0 45 -48q0 -23 -13 -35.5t-32 -12.5t-31.5 12.5t-12.5 35.5z" />
    <glyph glyph-name="uni04EE" unicode="&#x4ee;" horiz-adv-x="621" 
d="M143 -10q-55 0 -95 15v81q45 -21 92 -21q54 0 86 24q34 26 65 93l-278 532h92l211 -406q10 -20 19 -47h4q11 35 19 52l175 401h88l-228 -511q-39 -89 -74 -133q-33 -42 -74.5 -61t-101.5 -19zM170 771v67h293v-67h-293z" />
    <glyph glyph-name="uni04EF" unicode="&#x4ef;" horiz-adv-x="504" 
d="M217 -3l-216 538h87l117 -305q39 -106 48 -151h4q4 18 26 85q23 68 133 371h87l-230 -609q-33 -89 -79 -127.5t-113 -38.5q-35 0 -73 8v65q27 -6 60 -6q83 0 119 94zM106 606v67h293v-67h-293z" />
    <glyph glyph-name="uni04F0" unicode="&#x4f0;" horiz-adv-x="621" 
d="M143 -10q-55 0 -95 15v81q45 -21 92 -21q54 0 86 24q34 26 65 93l-278 532h92l211 -406q10 -20 19 -47h4q11 35 19 52l175 401h88l-228 -511q-39 -89 -74 -133q-33 -42 -74.5 -61t-101.5 -19zM180 845q0 48 44 48q45 0 45 -48q0 -23 -13 -35.5t-32 -12.5t-31.5 12.5
t-12.5 35.5zM366 845q0 48 44 48q45 0 45 -48q0 -23 -13 -35.5t-32 -12.5t-31.5 12.5t-12.5 35.5z" />
    <glyph glyph-name="uni04F1" unicode="&#x4f1;" horiz-adv-x="504" 
d="M217 -3l-216 538h87l117 -305q39 -106 48 -151h4q4 18 26 85q23 68 133 371h87l-230 -609q-33 -89 -79 -127.5t-113 -38.5q-35 0 -73 8v65q27 -6 60 -6q83 0 119 94zM115 680q0 48 44 48q45 0 45 -48q0 -23 -13 -35.5t-32 -12.5t-31.5 12.5t-12.5 35.5zM301 680
q0 48 44 48q45 0 45 -48q0 -23 -13 -35.5t-32 -12.5t-31.5 12.5t-12.5 35.5z" />
    <glyph glyph-name="uni04F2" unicode="&#x4f2;" horiz-adv-x="621" 
d="M143 -10q-55 0 -95 15v81q45 -21 92 -21q54 0 86 24q34 26 65 93l-278 532h92l211 -406q10 -20 19 -47h4q11 35 19 52l175 401h88l-228 -511q-39 -89 -74 -133q-33 -42 -74.5 -61t-101.5 -19zM182 771v12q20 30 44 69q28 46 42 79h91v-10q-17 -30 -60 -79
q-45 -51 -70 -71h-47zM356 771v12q25 35 48 76q20 35 38 72h91v-10q-17 -30 -60 -79q-45 -51 -70 -71h-47z" />
    <glyph glyph-name="uni04F3" unicode="&#x4f3;" horiz-adv-x="504" 
d="M217 -3l-216 538h87l117 -305q39 -106 48 -151h4q4 18 26 85q23 68 133 371h87l-230 -609q-33 -89 -79 -127.5t-113 -38.5q-35 0 -73 8v65q27 -6 60 -6q83 0 119 94zM115 606v12q20 30 44 69q28 46 42 79h91v-10q-17 -30 -60 -79q-45 -51 -70 -71h-47zM289 606v12
q25 35 48 76q20 35 38 72h91v-10q-17 -30 -60 -79q-45 -51 -70 -71h-47z" />
    <glyph glyph-name="uni04F4" unicode="&#x4f4;" horiz-adv-x="695" 
d="M597 714v-714h-83v295q-74 -26 -121 -36q-48 -9 -100 -9q-101 0 -155.5 46.5t-54.5 133.5v284h83v-274q0 -60 31.5 -88t100.5 -28q49 0 90 7q47 8 126 34v349h83zM203 845q0 48 44 48q45 0 45 -48q0 -23 -13 -35.5t-32 -12.5t-31.5 12.5t-12.5 35.5zM389 845q0 48 44 48
q45 0 45 -48q0 -23 -13 -35.5t-32 -12.5t-31.5 12.5t-12.5 35.5z" />
    <glyph glyph-name="uni04F5" unicode="&#x4f5;" horiz-adv-x="608" 
d="M76 535h81v-195q0 -94 107 -94q84 0 177 60v229h81v-535h-81v242q-51 -35 -95 -49.5t-99 -14.5q-80 0 -125.5 42t-45.5 114v201zM162 680q0 48 44 48q45 0 45 -48q0 -23 -13 -35.5t-32 -12.5t-31.5 12.5t-12.5 35.5zM348 680q0 48 44 48q45 0 45 -48q0 -23 -13 -35.5
t-32 -12.5t-31.5 12.5t-12.5 35.5z" />
    <glyph glyph-name="uni04F6" unicode="&#x4f6;" horiz-adv-x="527" 
d="M98 0v714h406v-75h-323v-564h79v-261h-79v186h-83z" />
    <glyph glyph-name="uni04F7" unicode="&#x4f7;" horiz-adv-x="428" 
d="M86 0v534h321v-68h-240v-396h73v-254h-81v184h-73z" />
    <glyph glyph-name="uni04F8" unicode="&#x4f8;" horiz-adv-x="853" 
d="M311 0h-213v714h83v-305h117q261 0 261 -201q0 -102 -63 -155t-185 -53zM181 335v-264h121q171 0 171 137q0 67 -43.5 97t-141.5 30h-107zM755 714v-714h-83v714h83zM289 845q0 48 44 48q45 0 45 -48q0 -23 -13 -35.5t-32 -12.5t-31.5 12.5t-12.5 35.5zM475 845
q0 48 44 48q45 0 45 -48q0 -23 -13 -35.5t-32 -12.5t-31.5 12.5t-12.5 35.5z" />
    <glyph glyph-name="uni04F9" unicode="&#x4f9;" horiz-adv-x="770" 
d="M167 535v-221h146q200 0 200 -151q0 -163 -205 -163h-222v535h81zM684 535v-535h-81v535h81zM302 244h-135v-176h137q129 0 129 90q0 46 -30 66t-101 20zM247 680q0 48 44 48q45 0 45 -48q0 -23 -13 -35.5t-32 -12.5t-31.5 12.5t-12.5 35.5zM433 680q0 48 44 48
q45 0 45 -48q0 -23 -13 -35.5t-32 -12.5t-31.5 12.5t-12.5 35.5z" />
    <glyph glyph-name="uni04FA" unicode="&#x4fa;" horiz-adv-x="527" 
d="M98 714h406v-75h-323v-249h207v-73h-207v-317h-83v317h-75v73h75v324zM180 75h72v-141q0 -127 -111 -127q-27 0 -57 12v68q20 -9 50 -9q46 0 46 49v148z" />
    <glyph glyph-name="uni04FB" unicode="&#x4fb;" horiz-adv-x="428" 
d="M407 535v-68h-240v-168h169v-62h-169v-237h-81v237h-77v62h77v236h321zM165 70h72v-136q0 -127 -111 -127q-27 0 -57 12v68q19 -9 50 -9q46 0 46 49v143z" />
    <glyph glyph-name="uni04FC" unicode="&#x4fc;" horiz-adv-x="621" 
d="M335 376l238 -376h-94l-192 314l-195 -314h-88l237 373l-221 341h92l177 -283l179 283h88zM526 75h72v-141q0 -127 -111 -127q-27 0 -57 12v68q20 -9 50 -9q46 0 46 49v148z" />
    <glyph glyph-name="uni04FD" unicode="&#x4fd;" horiz-adv-x="540" 
d="M19 0l196 274l-186 261h92l141 -205l141 205h91l-186 -261l196 -274h-92l-150 217l-151 -217h-92zM453 70h72v-136q0 -127 -111 -127q-27 0 -57 12v68q19 -9 50 -9q46 0 46 49v143z" />
    <glyph glyph-name="uni04FE" unicode="&#x4fe;" horiz-adv-x="577" 
d="M62 342v74h150l-192 298h92l177 -284l178 284h89l-195 -298h154v-74h-159l217 -342h-94l-192 314l-195 -314h-89l218 342h-159z" />
    <glyph glyph-name="uni04FF" unicode="&#x4ff;" horiz-adv-x="524" 
d="M57 245v63h134l-162 227h92l141 -205l141 205h91l-163 -227h137v-63h-140l176 -245h-92l-150 217l-151 -217h-92l175 245h-137z" />
    <glyph glyph-name="uni0500" unicode="&#x500;" horiz-adv-x="613" 
d="M64 205q0 204 283 204h97v305h83v-714h-202q-261 0 -261 205zM444 72v264h-91q-108 0 -155.5 -30.5t-47.5 -99.5q0 -70 44.5 -102t143.5 -32h106z" />
    <glyph glyph-name="uni0501" unicode="&#x501;" horiz-adv-x="613" 
d="M461 0l-11 72h-4q-55 -82 -168 -82q-105 0 -163.5 72t-58.5 204t58.5 205.5t163.5 73.5q109 0 167 -79h6l-3 38l-2 38v218h81v-760h-66zM288 58q83 0 120.5 45t37.5 146v17q0 113 -37.5 162t-121.5 49q-71 0 -109 -55t-38 -157q0 -207 148 -207z" />
    <glyph glyph-name="uni0502" unicode="&#x502;" horiz-adv-x="899" 
d="M288 -9q-224 0 -224 204q0 106 72.5 160t214.5 54h71v305h83v-536q0 -115 112 -115q49 0 78.5 30.5t29.5 83.5v237h83v-238q0 -85 -51 -135.5t-140 -50.5q-113 0 -160 84q-56 -83 -169 -83zM422 176v159h-74q-103 0 -150.5 -34t-47.5 -107q0 -131 141 -131q63 0 97 29.5
t34 83.5z" />
    <glyph glyph-name="uni0503" unicode="&#x503;" horiz-adv-x="896" 
d="M624 58q57 0 83.5 32t26.5 99v153h82v-158q0 -194 -190 -194q-64 0 -102 23t-59 77h-4q-36 -54 -81 -77t-109 -23q-102 0 -158.5 72.5t-56.5 203.5t56.5 205t157.5 74t160 -79h6q-1 7 -3 35q-2 38 -2 41v218h81v-557q0 -78 26 -111.5t86 -33.5zM281 58q79 0 114.5 45
t35.5 146v17q0 112 -36 161.5t-115 49.5q-140 0 -140 -212q0 -105 34.5 -156t106.5 -51z" />
    <glyph glyph-name="uni0504" unicode="&#x504;" horiz-adv-x="904" 
d="M210 334h-98v70h94q94 0 146 36t52 100q0 53 -37.5 84t-100.5 31q-96 0 -187 -61l-41 56q94 74 229 74q104 0 164 -48t60 -129q0 -68 -43.5 -113t-119.5 -58v-4q173 -26 176 -173q1 -73 27.5 -104t86.5 -31q58 0 85.5 30t27.5 95v225h82v-230q0 -96 -51 -145t-144 -49
q-98 0 -149 51t-52 149q-1 144 -207 144z" />
    <glyph glyph-name="uni0505" unicode="&#x505;" horiz-adv-x="802" 
d="M532 58q108 0 108 131v153h81v-158q0 -99 -45.5 -146.5t-141.5 -47.5q-185 0 -192 163q-3 48 -37 69.5t-107 21.5h-68v69h54q141 0 141 84q0 79 -118 79q-61 0 -140 -34l-28 66q83 37 172 37q90 0 141.5 -38t51.5 -103q0 -90 -94 -118v-4q105 -21 111 -121
q4 -103 111 -103z" />
    <glyph glyph-name="uni0506" unicode="&#x506;" horiz-adv-x="625" 
d="M439 0v201q0 133 -222 133h-106v70h102q99 0 154.5 36t55.5 100q0 52 -40 83.5t-106 31.5q-102 0 -198 -61l-41 56q97 74 236 74q107 0 169 -48t62 -129q0 -68 -45.5 -113t-126.5 -57v-4q90 -12 137.5 -56t47.5 -116v-126h84v-261h-79v186h-84z" />
    <glyph glyph-name="uni0507" unicode="&#x507;" horiz-adv-x="523" 
d="M354 0v147q0 97 -151 97h-73v69h57q153 0 153 84q0 79 -123 79q-76 0 -148 -34l-30 66q79 36 178 36q93 0 145 -37.5t52 -103.5q0 -89 -99 -117v-5q116 -34 116 -135v-76h77v-254h-81v184h-73z" />
    <glyph glyph-name="uni0508" unicode="&#x508;" horiz-adv-x="981" 
d="M506 186v454h-215l-15 -117q-44 -349 -79 -433q-40 -101 -132 -101q-33 0 -65 12v70q23 -13 55 -13q41 0 66 55q10 25 24 89q15 70 32 182q18 120 45 330h367v-524q0 -66 26.5 -96t83.5 -30q56 0 83 30t27 95v225h82v-230q0 -94 -50 -144t-142 -50q-95 0 -144 50t-49 146
z" />
    <glyph glyph-name="uni0509" unicode="&#x509;" horiz-adv-x="851" 
d="M476 534v-345q0 -67 26 -99t83 -32q104 0 104 130v154h81v-158q0 -99 -45.5 -146.5t-138.5 -47.5q-191 0 -191 195v280h-154q-14 -177 -36 -277q-23 -100 -60.5 -147t-94.5 -47q-27 0 -42 5v62q10 -3 24 -3q55 0 88.5 115t50.5 361h305z" />
    <glyph glyph-name="uni050A" unicode="&#x50a;" horiz-adv-x="1012" 
d="M620 714v-524q0 -66 26.5 -96t83.5 -30q56 0 83 30t27 95v225h81v-230q0 -93 -49 -143.5t-142 -50.5q-193 0 -193 196v150h-356v-336h-83v714h83v-304h356v304h83z" />
    <glyph glyph-name="uni050B" unicode="&#x50b;" horiz-adv-x="913" 
d="M86 535h81v-224h289v224h81v-345q0 -67 26.5 -99.5t83.5 -32.5q104 0 104 131v153h81v-158q0 -99 -45.5 -146.5t-139.5 -47.5q-92 0 -141.5 49t-49.5 146v56h-289v-241h-81v535z" />
    <glyph glyph-name="uni050C" unicode="&#x50c;" horiz-adv-x="756" 
d="M425 293v74h275v-42q0 -170 -74.5 -252.5t-227.5 -82.5q-159 0 -248 98t-89 270q0 170 98 268t270 98q124 0 215 -43l-32 -72q-101 41 -191 41q-130 0 -201 -77t-71 -216t65.5 -216.5t185.5 -77.5q213 0 213 230h-188z" />
    <glyph glyph-name="uni050D" unicode="&#x50d;" horiz-adv-x="640" 
d="M337 212v69h249v-33q0 -258 -251 -258q-134 0 -206.5 72t-72.5 205q0 132 79 205t220 73q103 0 189 -39l-29 -64q-82 36 -163 36q-101 0 -156.5 -54.5t-55.5 -156.5t50 -156t146 -54q168 0 168 155h-167z" />
    <glyph glyph-name="uni050E" unicode="&#x50e;" horiz-adv-x="710" 
d="M227 639h-219v75h529v-75h-227v-449q0 -127 114 -127q113 0 113 125v226h82v-230q0 -93 -51 -143.5t-144 -50.5q-96 0 -146.5 50t-50.5 146v453z" />
    <glyph glyph-name="uni050F" unicode="&#x50f;" horiz-adv-x="647" 
d="M438 534v-68h-169v-277q0 -67 27 -99t84 -32q105 0 105 127v157h81v-158q0 -99 -46 -146.5t-140 -47.5t-143 49.5t-49 145.5v281h-168v68h418z" />
    <glyph glyph-name="uni0510" unicode="&#x510;" horiz-adv-x="583" 
d="M76 545q0 82 64.5 130.5t174.5 48.5q127 0 228 -70l-46 -59q-91 59 -189 59q-69 0 -107.5 -30t-38.5 -86q0 -63 51.5 -98.5t148.5 -35.5h106v-69h-104q-222 0 -222 -137q0 -68 49 -103t139 -35q114 0 211 45v-77q-87 -38 -213 -38q-131 0 -202.5 54t-71.5 150
q0 74 50.5 120.5t142.5 57.5v4q-83 12 -127 55.5t-44 113.5z" />
    <glyph glyph-name="uni0511" unicode="&#x511;" horiz-adv-x="475" 
d="M295 313h54v-69h-72q-152 0 -152 -95q0 -92 143 -92q83 0 171 42v-72q-67 -37 -175 -37q-102 0 -161 41.5t-59 113.5q0 49 27.5 80.5t89.5 51.5v5q-100 30 -100 121q0 65 54.5 103.5t148.5 38.5q92 0 177 -38l-31 -65q-77 34 -148 34q-122 0 -122 -79q0 -84 155 -84z" />
    <glyph glyph-name="uni0512" unicode="&#x512;" horiz-adv-x="700" 
d="M606 714v-714h-83v640h-232l-15 -117q-29 -228 -53 -342q-21 -106 -58.5 -149.5t-99.5 -42.5q-37 0 -65 12v70q25 -13 55 -13q53 0 79 95q32 113 88 561h384zM605 75h72v-141q0 -127 -111 -127q-27 0 -57 12v68q19 -9 50 -9q46 0 46 49v148z" />
    <glyph glyph-name="uni0513" unicode="&#x513;" horiz-adv-x="571" 
d="M485 535v-535h-82v466h-161q-20 -259 -63 -364t-129 -109q-27 0 -42 6v60q10 -3 24 -3q56 0 89.5 117t50.5 362h313zM484 70h72v-136q0 -127 -111 -127q-27 0 -57 12v68q20 -9 50 -9q46 0 46 49v143z" />
    <glyph glyph-name="uni1E00" unicode="&#x1e00;" horiz-adv-x="633" 
d="M633 0h-86l-89 227h-286l-88 -227h-84l282 717h70zM201 302h231l-83 221q-17 43 -33 103q-9 -41 -31 -103zM427 -165q0 -47 -30.5 -76.5t-80.5 -29.5q-49 0 -78.5 28.5t-29.5 76.5t29.5 76.5t78.5 28.5t80 -29t31 -75zM373 -166q0 27 -16 42t-41 15t-41 -15t-16 -42
q0 -57 57 -57q26 0 41.5 15t15.5 42z" />
    <glyph glyph-name="uni1E01" unicode="&#x1e01;" 
d="M475 0h-60l-16 76h-4q-39 -49 -78.5 -67.5t-100.5 -18.5q-81 0 -125.5 41.5t-44.5 116.5q0 163 259 170l91 3v33q0 63 -27 93t-87 30q-66 0 -151 -41l-25 62q84 46 181 46t142.5 -43t45.5 -136v-365zM232 57q76 0 119 41.5t43 116.5v48l-81 -3q-97 -4 -139.5 -30.5
t-42.5 -82.5q0 -44 26.5 -67t74.5 -23zM373 -165q0 -47 -30.5 -76.5t-80.5 -29.5q-49 0 -78.5 28.5t-29.5 76.5t29.5 76.5t78.5 28.5t80 -29t31 -75zM319 -166q0 27 -16 42t-41 15t-41 -15t-16 -42q0 -57 57 -57q26 0 41.5 15t15.5 42z" />
    <glyph glyph-name="uni1E3E" unicode="&#x1e3e;" horiz-adv-x="903" 
d="M481 0h-67l-242 633h-4q7 -70 7 -179v-454h-77v714h125l226 -589h4l228 589h124v-714h-83v460q0 85 7 172h-4zM393 772v12q27 36 50 73q27 41 43 75h99v-10q-29 -40 -65 -79q-40 -44 -73 -71h-54z" />
    <glyph glyph-name="uni1E3F" unicode="&#x1e3f;" horiz-adv-x="930" 
d="M849 0h-81v348q0 128 -112 128q-76 0 -112 -43.5t-36 -133.5v-299h-81v348q0 128 -113 128q-76 0 -111.5 -46t-35.5 -149v-281h-81v535h66l13 -73h4q23 39 64.5 61t93.5 22q127 0 164 -91h4q24 42 70 66.5t103 24.5q92 0 136.5 -47t44.5 -149v-349zM417 606v12
q27 36 50 73q27 41 43 75h99v-10q-29 -40 -65 -79q-40 -44 -73 -71h-54z" />
    <glyph glyph-name="Wgrave" unicode="&#x1e80;" horiz-adv-x="926" 
d="M912 714l-191 -714h-82l-144 478q-3 10 -23 80q-13 46 -13 58q-9 -57 -34 -141l-140 -475h-82l-190 714h88l113 -441q25 -103 34 -168q14 91 39 175l128 434h88l134 -438q23 -73 40 -171q8 64 35 169l112 440h88zM520 783v-12h-54q-36 29 -76 72q-41 43 -62 78v10h99
q18 -38 43 -78q34 -52 50 -70z" />
    <glyph glyph-name="wgrave" unicode="&#x1e81;" horiz-adv-x="778" 
d="M619 0h-96l-98 314q-11 34 -35 131h-4q-21 -91 -34 -132l-101 -313h-94l-146 535h85l79 -307q26 -102 31 -142h4q4 24 17 72t21 70l98 307h88l96 -307q26 -80 37 -141h4q1 7 10 54l102 394h84zM440 618v-12h-54q-36 29 -76 72q-41 43 -62 78v10h99q18 -38 43 -78
q34 -52 50 -70z" />
    <glyph glyph-name="Wacute" unicode="&#x1e82;" horiz-adv-x="926" 
d="M912 714l-191 -714h-82l-144 478q-3 10 -23 80q-13 46 -13 58q-9 -57 -34 -141l-140 -475h-82l-190 714h88l113 -441q25 -103 34 -168q14 91 39 175l128 434h88l134 -438q23 -73 40 -171q8 64 35 169l112 440h88zM403 771v12q27 36 50 73q27 41 43 75h99v-10
q-29 -40 -65 -79q-40 -44 -73 -71h-54z" />
    </font>
</defs>
</svg>
