<?xml version="1.0" encoding="utf-8"?>
<!-- Generator: Adobe Illustrator 19.0.0, SVG Export Plug-In . SVG Version: 6.00 Build 0)  -->
<svg version="1.1" id="Шар_1" xmlns="http://www.w3.org/2000/svg" xmlns:xlink="http://www.w3.org/1999/xlink" x="0px" y="0px"
	 viewBox="0 0 40 40" style="enable-background:new 0 0 40 40;" xml:space="preserve">
<style type="text/css">
	.st0{fill:#25A2D6;}
</style>
<g id="XMLID_6_">
	<g id="XMLID_7_">
		<g id="XMLID_8_">
			<path id="XMLID_4_" class="st0" d="M19,26.1c0,0.3-0.2,0.5-0.5,0.5h-3c-0.3,0-0.5-0.2-0.5-0.5V13.9c0-0.3,0.2-0.5,0.5-0.5h3
				c0.3,0,0.5,0.2,0.5,0.5V26.1L19,26.1z"/>
			<path id="XMLID_2_" class="st0" d="M25.1,26.1c0,0.3-0.2,0.5-0.5,0.5h-3c-0.3,0-0.5-0.2-0.5-0.5V13.9c0-0.3,0.2-0.5,0.5-0.5h3
				c0.3,0,0.5,0.2,0.5,0.5V26.1z"/>
		</g>
	</g>
</g>
</svg>
