<svg xmlns="http://www.w3.org/2000/svg" xmlns:xlink="http://www.w3.org/1999/xlink" width="114" height="146" viewBox="0 0 114 146">
  <metadata><?xpacket begin="﻿" id="W5M0MpCehiHzreSzNTczkc9d"?>
<x:xmpmeta xmlns:x="adobe:ns:meta/" x:xmptk="Adobe XMP Core 5.6-c138 79.159824, 2016/09/14-01:09:01        ">
   <rdf:RDF xmlns:rdf="http://www.w3.org/1999/02/22-rdf-syntax-ns#">
      <rdf:Description rdf:about=""/>
   </rdf:RDF>
</x:xmpmeta>
                                                                                                    
                                                                                                    
                                                                                                    
                                                                                                    
                                                                                                    
                                                                                                    
                                                                                                    
                                                                                                    
                                                                                                    
                                                                                                    
                                                                                                    
                                                                                                    
                                                                                                    
                                                                                                    
                                                                                                    
                                                                                                    
                                                                                                    
                                                                                                    
                                                                                                    
                                                                                                    
                           
<?xpacket end="w"?></metadata>
<defs>
    <style>
      .cls-1 {
        fill-rule: evenodd;
        fill: url(#linear-gradient);
      }
    </style>
    <linearGradient id="linear-gradient" x1="912.805" y1="274" x2="987.195" y2="128" gradientUnits="userSpaceOnUse">
      <stop offset="0" stop-color="#d62595"/>
      <stop offset="0.495" stop-color="#ae00ff"/>
      <stop offset="1" stop-color="#92d1eb"/>
    </linearGradient>
  </defs>
  <path id="Calculator_logo" data-name="Calculator logo" class="cls-1" d="M999.932,128H900.068A7.088,7.088,0,0,0,893,135.09V266.909A7.088,7.088,0,0,0,900.068,274h99.864a7.088,7.088,0,0,0,7.068-7.091V135.09A7.088,7.088,0,0,0,999.932,128Zm2.218,138.909a2.227,2.227,0,0,1-2.218,2.224H900.068a2.224,2.224,0,0,1-2.217-2.224V135.09a2.223,2.223,0,0,1,2.217-2.223h99.864a2.226,2.226,0,0,1,2.218,2.223V266.909Zm-97.022-5.076h26.681V235.066H905.128v26.767Zm4.851-21.9h16.978v17.033H909.979V239.933Zm26.681,21.9h26.68V235.066H936.66v26.767Zm4.851-21.9h16.978v17.033H941.511V239.933Zm26.68,21.9h26.681v-58.4H968.191v58.4Zm4.852-53.533h16.978v48.666H973.043V208.3Zm-67.915,21.9h26.681V203.433H905.128V230.2Zm4.851-21.9h16.978v17.033H909.979V208.3Zm26.681,21.9h26.68V203.433H936.66V230.2Zm4.851-21.9h16.978v17.033H941.511V208.3Zm-36.383-9.734h26.681V171.8H905.128v26.766Zm4.851-21.9h16.978V193.7H909.979V176.667Zm26.681,21.9h26.68V171.8H936.66v26.766Zm4.851-21.9h16.978V193.7H941.511V176.667Zm26.68,21.9h26.681V171.8H968.191v26.766Zm4.852-21.9h16.978V193.7H973.043V176.667ZM905.128,164.5h89.744V140.166H905.128V164.5Zm4.851-19.467h80.042v14.6H909.979v-14.6Z" transform="translate(-893 -128)"/>
</svg>
