<svg xmlns="http://www.w3.org/2000/svg" width="24" height="26.53" viewBox="0 0 24 26.53">
  <defs>
    <style>
      .cls-1 {
        fill: #25a2d6;
        fill-rule: evenodd;
      }
    </style>
  </defs>
  <path class="cls-1" d="M354,3201.04v-5.1a0.732,0.732,0,0,0-.307-0.6,0.775,0.775,0,0,0-.674-0.12l-15.214,4.83a0.755,0.755,0,0,0-.524.72v14.86a5.314,5.314,0,0,0-5.915.1,3.035,3.035,0,0,0,0,5.07,5.3,5.3,0,0,0,6.054,0,3.174,3.174,0,0,0,1.366-2.54v-11.84l13.709-4.35v8.71a5.314,5.314,0,0,0-5.915.1,3.035,3.035,0,0,0,0,5.07,5.3,5.3,0,0,0,6.054,0,3.156,3.156,0,0,0,1.366-2.53v-12.38Zm-19.607,19.21c-1.567,0-2.888-.91-2.888-1.99s1.321-1.98,2.888-1.98,2.888,0.91,2.888,1.98S335.96,3220.25,334.393,3220.25Zm4.393-15.41v-3.53l13.709-4.34v3.52Zm10.826,10.56c-1.566,0-2.887-.91-2.887-1.98s1.321-1.98,2.887-1.98,2.888,0.9,2.888,1.98S351.173,3215.4,349.612,3215.4Z" transform="translate(-330 -3195.22)"/>
</svg>
