<svg xmlns="http://www.w3.org/2000/svg" width="28" height="28" viewBox="0 0 28 28">
  <defs>
    <style>
      .cls-1 {
        fill: #25a2d6;
        fill-rule: evenodd;
      }
    </style>
  </defs>
  <path id="Forma_1" data-name="Forma 1" class="cls-1" d="M348.08,3113.96H334.091a4.08,4.08,0,0,1,0-8.16h1.749v-15.74a4.085,4.085,0,0,1,4.08-4.08h13.988a0.9,0.9,0,0,1,.168.02c0.136-.01.275-0.02,0.415-0.02,2.06,0,3.5,1.68,3.5,4.08a0.581,0.581,0,0,1-.582.58H352.16v19.24A4.085,4.085,0,0,1,348.08,3113.96Zm0-7a2.915,2.915,0,1,0,2.914,2.92v-20.41a3.49,3.49,0,0,1,.893-2.33H339.92a2.92,2.92,0,0,0-2.914,2.92v15.74H348.08A0.58,0.58,0,1,1,348.08,3106.96Zm-13.989,0a2.915,2.915,0,0,0,0,5.83h11.136a4.076,4.076,0,0,1,0-5.83H334.091Zm18.069-17.49h4.625a2.373,2.373,0,0,0-2.294-2.33A2.336,2.336,0,0,0,352.16,3089.47Zm-5.246,13.99H340.5a0.58,0.58,0,1,1,0-1.16h6.411A0.58,0.58,0,1,1,346.914,3103.46Zm0-3.49H340.5a0.585,0.585,0,0,1,0-1.17h6.411A0.585,0.585,0,0,1,346.914,3099.97Zm0-3.5H340.5a0.585,0.585,0,0,1,0-1.17h6.411A0.585,0.585,0,0,1,346.914,3096.47Zm0-3.5H340.5a0.58,0.58,0,1,1,0-1.16h6.411A0.58,0.58,0,1,1,346.914,3092.97Z" transform="translate(-330 -3085.97)"/>
</svg>
