<?xml version="1.0" encoding="utf-8"?>
<!-- Generator: Adobe Illustrator 19.0.0, SVG Export Plug-In . SVG Version: 6.00 Build 0)  -->
<svg version="1.1" id="Шар_1" xmlns="http://www.w3.org/2000/svg" xmlns:xlink="http://www.w3.org/1999/xlink" x="0px" y="0px"
	 viewBox="0 0 233 204" style="enable-background:new 0 0 233 204;" xml:space="preserve">
<style type="text/css">
	.st0{fill:url(#Shape_8_copy_4_1_);}
	.st1{opacity:0.5;fill:#FFFFFF;enable-background:new    ;}
</style>
<linearGradient id="Shape_8_copy_4_1_" gradientUnits="userSpaceOnUse" x1="456.6479" y1="-1321" x2="456.6479" y2="-1508.0016" gradientTransform="matrix(1 0 0 -1 -329 -1321)">
	<stop  offset="0" style="stop-color:#AE00FF"/>
	<stop  offset="1" style="stop-color:#41117D"/>
</linearGradient>
<path id="Shape_8_copy_4" class="st0" d="M86.5,35c10.9-0.9,25.1-5.5,41.2-14.5S164,2.1,198.4,0.2S233,8.8,233,14.3s-9,11.7-9,21.5
	s5.7,44.6-24.2,69.6s-85.8,77.2-99.6,80.8s-45.8-4.1-59.3-23.4S13.5,113,29.4,77.7S75.6,36,86.5,35z"/>
<path id="Shape_1_copy" class="st1" d="M216.6,19.7c-3.3-5.5-12.7-8.1-27.7-7.8c-19.1,0.4-41,5.5-41.3,5.5l0.1,0.4
	c0.2-0.1,22.1-5.1,41.2-5.5c14.9-0.3,24.1,2.2,27.3,7.5c2.2,3.6,1.6,8.6-1.8,14.9c-9,16.4-6.6,27.9-4.6,37.2
	c2,9.4,3.6,16.9-6.6,25.9c0.6-0.9,1.1-1.8,1.6-2.7c3.1-6.5,1.9-12.9,0.6-20.3c-0.2-1.2-0.5-2.5-0.7-3.8c-1.5-9-2.5-19.8,4.8-33.8
	c3.3-6.3,3.8-11.3,1.5-15c-3.2-5.3-12.2-7.9-26.5-7.7c-10.1,0.1-23,1.6-36.6,4.2v-0.2c-10.9,0.6-21.5,4-30.7,9.9
	c-0.5,0.3-1,0.6-1.6,0.9c-1.4,0.7-2.7,1.4-4,2.2c-0.9,0.4-1.8,0.9-2.6,1.4c-1.2,0.6-2.4,1.2-3.7,1.9c-1,0.5-2.1,1-3.1,1.6
	c-1,0.5-2.1,1-3.1,1.6c-1,0.5-2,1-3,1.5c-0.8,0.4-1.6,0.7-2.3,1.1c-0.3,0.1-0.5,0.2-0.8,0.4c-1,0.4-1.9,0.8-2.9,1.2
	c-0.3,0.1-0.6,0.2-0.9,0.3c-1.4,0.5-2.9,1-4.4,1.6c-0.6,0.2-1.2,0.4-1.9,0.6c-0.2,0-0.3,0.1-0.5,0.1c-1.1,0.3-2.2,0.5-3.2,0.8
	c-0.6,0.1-1.3,0.3-2,0.5c-0.4,0.1-0.7,0.2-1.1,0.2c-1.4,0.2-2.7,0.4-4.1,0.7c-0.9,0.1-1.8,0.3-2.7,0.4c-0.9,0.1-1.9,0.3-2.8,0.4
	c-17.1,1.9-33,9.9-44.8,22.5c-29.1,31.1-29.1,79.5,0,110.6c13.7,14.6,32.8,22.9,52.8,22.9c4.6-0.1,9-2,12.2-5.3c2.1-1,4-2.3,5.6-3.9
	c2.1-1,3.9-2.3,5.6-3.9c2.2-1.1,4.3-2.5,6.1-4.3c2.2-1.1,4.2-2.6,5.9-4.3c2.2-1.2,4.2-2.7,5.9-4.4c2.2-1.3,4.2-2.8,6-4.7
	c2.2-1.3,4.2-2.9,6-4.7c2.3-1.4,4.4-3.1,6.2-5.1c2.1-1.4,4-3,5.7-4.8c2.3-1.5,4.3-3.2,6.1-5.2c2.2-1.5,4.2-3.3,6-5.2
	c2.3-1.6,4.3-3.5,6.1-5.6c2.2-1.6,4.2-3.5,5.9-5.6c2-1.5,3.8-3.3,5.4-5.2c2-1.6,3.9-3.4,5.5-5.4c2-1.6,3.8-3.4,5.4-5.3
	c2.1-1.6,4-3.5,5.6-5.5c2-1.6,3.8-3.4,5.4-5.3c2-1.6,3.8-3.4,5.4-5.4c1.9-1.6,3.7-3.3,5.3-5.3c12-9.7,10.3-17.7,8.2-27.6
	c-2.1-9.7-4.4-20.7,4.5-36.9C218.3,28.6,218.9,23.4,216.6,19.7z M145.8,19.1c-0.2,0-0.4,0.1-0.6,0.1c-0.5,0.1-0.7,0.2-0.8,0.2v0.4
	c0,0,0.1,0,0.8-0.2c14.5-3,28.4-4.6,39.1-4.7h1.1c13.5,0,21.9,2.5,25,7.5c2.2,3.6,1.7,8.5-1.5,14.6c-7.4,14.2-6.3,25-4.8,34.1
	c0.2,1.3,0.5,2.6,0.7,3.8c1.6,8.9,3,16.4-3,24.1c-0.9,0.7-1.8,1.4-2.8,2.1c3.9-7.4,2.8-15,1.4-23.5c-0.2-1.1-0.3-2.2-0.5-3.3
	c-1.5-10.2-2.5-21.2,4.1-34.8c3-6.2,3.4-11.1,1.1-14.7c-3.2-5.2-11.5-7.7-25.4-7.7h-0.4c-9.6,0-21.3,1.2-34.9,3.7v-0.3
	c-7.1,0.4-14.2,2-20.8,4.8C130.8,22,138.2,19.9,145.8,19.1L145.8,19.1z M143,154.8c0.5-0.8,1-1.6,1.5-2.4c1.1-0.5,2.1-1,3.1-1.5
	c-0.5,0.7-1.1,1.3-1.7,2C145,153.6,144,154.2,143,154.8z M137.1,159.8c0.6-0.8,1.1-1.6,1.6-2.4c1-0.4,1.9-0.8,2.7-1.3
	c-0.6,0.8-1.3,1.6-2,2.3C138.7,158.9,137.9,159.4,137.1,159.8z M131.2,164.7c0.6-0.8,1.1-1.6,1.6-2.4c1-0.4,2-0.8,2.9-1.3
	c-0.6,0.7-1.2,1.4-1.8,2.1C133,163.7,132.1,164.2,131.2,164.7z M125.1,169.6c0.6-0.8,1.2-1.6,1.7-2.5c1-0.4,1.9-0.7,2.9-1.2
	c-0.6,0.8-1.3,1.5-2,2.2C126.8,168.7,126,169.2,125.1,169.6L125.1,169.6z M119.1,174.3c0.6-0.8,1.1-1.6,1.7-2.4
	c1-0.3,1.9-0.7,2.8-1.1c-0.6,0.8-1.3,1.5-1.9,2.2C120.9,173.4,120,173.9,119.1,174.3L119.1,174.3z M113.2,178.9
	c0.6-0.8,1.2-1.6,1.7-2.4c1-0.3,1.9-0.6,2.8-1c-0.6,0.8-1.3,1.5-2,2.2C114.9,178.1,114,178.5,113.2,178.9L113.2,178.9z M109.7,182
	c-0.8,0.4-1.7,0.9-2.5,1.2c0.6-0.8,1.2-1.6,1.8-2.5c0.9-0.2,1.8-0.5,2.7-0.8C111.1,180.6,110.4,181.3,109.7,182L109.7,182z
	 M104.1,186.2c-0.9,0.5-1.8,0.9-2.8,1.3c0.6-0.8,1.2-1.6,1.8-2.5c1-0.2,2-0.5,2.9-0.8C105.4,184.9,104.7,185.6,104.1,186.2
	L104.1,186.2z M97.8,190.6c-0.8,0.4-1.5,0.7-2.3,0.9c0.6-0.8,1.2-1.7,1.8-2.6c0.9-0.2,1.8-0.4,2.7-0.6
	C99.3,189.1,98.5,189.9,97.8,190.6L97.8,190.6z M92.3,194.4c-0.8,0.4-1.6,0.7-2.4,0.9c0.6-0.8,1.2-1.7,1.8-2.5
	c0.9-0.1,1.8-0.3,2.6-0.5C93.6,193.1,92.9,193.8,92.3,194.4L92.3,194.4z M86.4,198.4c-2,0.9-4.2,1.4-6.5,1.5
	c-20.4,0.7-39.4-6.3-53.5-19.8c-14.3-13.7-22.2-33-22.1-54.3c0-1.3,0-2.6,0.1-3.8c0.8-19.1,8.4-37.4,21.4-51.4
	C35.7,60,48.4,52.6,62.4,49.3c-12.7,3.8-24.1,10.9-33,20.7C16.4,84.3,8.9,102.6,8.1,121.9C8,123.2,8,124.5,8,125.7
	c-0.1,22.3,7.7,40.9,22.6,54c12.9,11.2,30,17.2,48.8,17.2c2,0,4-0.1,6-0.2c1.1-0.1,2.1-0.2,3.1-0.5C87.9,197,87.2,197.7,86.4,198.4
	L86.4,198.4z M140,23.4c5.3-0.9,21.2-3.6,35.4-3.3c13,0.2,20.8,2.7,23.8,7.5c2.2,3.4,1.9,8.1-0.8,14c-6.5,14.3-4.9,26.3-3.6,36
	c0.1,0.9,0.2,1.8,0.4,2.7c1.2,8.8,2.3,16.6-0.9,23.9c-1.1,0.7-2.3,1.4-3.6,2.1c2.1-7.3,1.2-15.2,0.1-23.9l-0.3-2.6
	c-1.3-10.5-2.7-22.4,3-35.9c2.5-5.9,2.7-10.7,0.4-14.2c-3.1-4.8-10.6-7.3-23.1-7.7c-12.6-0.4-26.5,1.6-32.8,2.5v-0.4
	c-6.5,0.3-12.9,1.6-18.9,3.9c6.8-3,14-4.8,21.4-5.3c-0.3,0-0.5,0.1-0.7,0.1c-1,0.2-1.8,0.3-1.9,0.3v0.4
	C138.2,23.7,138.7,23.6,140,23.4L140,23.4z M104,40.8c9.7,0,18,0.9,24.5,2.8c11.3,3.1,16,8.9,15,18.7c-0.9,9,0.2,18.9,1.2,28.5
	c0.6,5.7,1.3,11.6,1.5,17.3c0.4,7.8,0.2,15.7-0.5,23.5c-1.6,1-3.2,1.9-4.8,2.8c0.8-7.9,1-15.8,0.7-23.8c-0.2-6.6-1-13.4-1.7-19.9
	c-1.1-9.4-2.1-18.4-1.6-26.8c0.6-9.6-3.9-15.4-14.5-18.8c-8.1-2.7-17.2-3.2-21.4-3.4c0.1-0.2,0.2-0.3,0.4-0.4c0.4,0,0.9,0,1.3,0
	L104,40.8L104,40.8z M176,116.5c-1.4,0.7-2.8,1.4-4.2,2.1c0.1-0.6,0.2-1.2,0.2-1.8c1.4-0.8,2.9-1.6,4.4-2.3
	C176.2,115.1,176.1,115.8,176,116.5z M176.8,114.2c1.4-0.8,2.9-1.5,4.3-2.2c-0.1,0.8-0.3,1.5-0.5,2.3c-0.7,0.3-1.4,0.7-2.1,1
	c-0.7,0.3-1.3,0.6-2,1C176.6,115.6,176.7,114.9,176.8,114.2L176.8,114.2z M100.7,40.9c-0.3,0-0.7,0-1,0.1c0.2-0.2,0.4-0.4,0.6-0.6
	c0.4-0.1,0.7-0.1,1-0.1C101.1,40.5,100.9,40.7,100.7,40.9z M139.4,90.7c0.7,6.5,1.5,13.3,1.7,19.9c0.3,8,0.1,16.1-0.7,24
	c-1.6,1-3.2,1.9-4.8,2.8c0.8-8.1,1.1-16.2,0.9-24.4c-0.2-7.7-1.1-15.5-2-23.1c-1-8.7-2-17-1.9-24.7c0.1-9-4.2-14.9-13.6-18.5
	c-5.7-2.1-11.6-3.3-17.6-3.8c0.3-0.3,0.5-0.6,0.8-0.9c4,0.1,13.3,0.7,21.6,3.4c10.3,3.4,14.7,9,14.2,18.4
	C137.3,72.3,138.3,81.2,139.4,90.7z M161,126.3c-1.6,0.8-3.2,1.6-4.7,2.4c0.1-0.5,0.1-1,0.2-1.5c1.6-0.9,3.2-1.8,4.8-2.6
	C161.2,125.2,161.1,125.8,161,126.3L161,126.3z M161.8,124.4c1.5-0.8,3.1-1.7,4.6-2.5c-0.1,0.7-0.2,1.3-0.3,1.9
	c-1.5,0.8-3,1.5-4.5,2.3C161.6,125.5,161.7,124.9,161.8,124.4L161.8,124.4z M52.7,174.5c-16.5-8-24.7-24.9-24.3-50.3
	c0-1.4,0.1-2.7,0.1-3.9c1-20.2,7.9-38.4,19.9-52.8C55.6,59,64.8,52.3,75.1,48h0.1c-9,4.4-17,10.7-23.4,18.4
	C39.9,80.9,33.1,99.3,32,119.7c-0.1,1.2-0.1,2.5-0.1,3.9c-0.5,26.5,7.7,42.9,25,50c6.7,2.7,14.7,4.1,24.2,4.1
	c5.8,0,11.7-0.5,17.4-1.3c-0.3,0.9-0.6,1.8-0.9,2.7C79,181.4,63.9,179.9,52.7,174.5L52.7,174.5z M104.6,36.2c-0.1,0-0.1,0.1-0.2,0.1
	s-0.2,0.1-0.2,0.1c0.1,0,0.1-0.1,0.2-0.1L104.6,36.2z M145.8,134.8l4.7-2.5c-0.1,0.5-0.2,1.1-0.2,1.6c-1.6,0.8-3.1,1.5-4.6,2.3
	C145.7,135.7,145.8,135.2,145.8,134.8L145.8,134.8z M145.1,136.4c-0.6,0.3-1.1,0.6-1.7,0.8c-1,0.5-2.1,1-3.1,1.5
	c0.1-0.4,0.1-0.8,0.2-1.2c1.6-0.8,3.2-1.7,4.8-2.5C145.3,135.5,145.2,135.9,145.1,136.4L145.1,136.4z M129.1,145.8
	c-1.6,0.7-3.2,1.4-4.8,2.1c0.1-0.3,0.1-0.7,0.2-1c1.6-0.7,3.2-1.5,4.8-2.2C129.3,145,129.2,145.4,129.1,145.8L129.1,145.8z
	 M129.8,144.4c1.6-0.7,3.2-1.5,4.8-2.3c-0.1,0.4-0.1,0.9-0.2,1.3c-1.6,0.7-3.2,1.4-4.7,2.2C129.7,145.2,129.7,144.8,129.8,144.4
	L129.8,144.4z M83.3,50.6c0.3,0.2,0.5,0.3,0.8,0.5c-1.4,1.6-2.8,3.3-4.1,5.1c-10.6,14.6-16.6,33.2-17.8,55.1
	c-0.1,1.3-0.1,2.6-0.2,3.9c-0.6,19.5,2.5,32.2,9.4,38.9c4,3.9,9.3,5.8,16.1,5.8c0.8,0,1.7,0,2.6-0.1c4.3-0.3,8.5-1.1,12.7-2.3
	c-0.1,0.4-0.1,0.8-0.2,1.2c-5.4,1.5-10.9,2.4-16.5,2.6c-7.8,0.1-13.6-2-18-6.4c-6.8-6.9-9.8-19.5-9.3-38.4c0-1.4,0.1-2.7,0.2-3.9
	c1.2-21.7,7.2-40.1,18-54.7C78.9,55.3,81,52.9,83.3,50.6L83.3,50.6z M85.5,46.1h0.2V46c0,0,0,0,0,0c0.1,0,0.3,0,0.5,0
	c-0.3,0.2-0.5,0.4-0.8,0.6c-0.2,0-0.3-0.1-0.5-0.1C85.1,46.4,85.3,46.3,85.5,46.1L85.5,46.1z M84.3,46.4c-0.1,0-0.2,0-0.3,0
	c0.1-0.1,0.2-0.2,0.4-0.2c0.1,0,0.2,0,0.3,0C84.6,46.2,84.4,46.3,84.3,46.4L84.3,46.4z M89.1,44.7c-0.1,0.1-0.2,0.2-0.3,0.3h-0.5
	c0.1-0.1,0.2-0.2,0.3-0.2L89.1,44.7z M89.3,44.2c0.1-0.1,0.2-0.1,0.3-0.2c0.2,0,0.3,0,0.5-0.1c-0.1,0.1-0.2,0.1-0.3,0.2
	C89.6,44.2,89.4,44.2,89.3,44.2L89.3,44.2z M89.4,45.4v-0.2c0.2,0,0.4,0,0.6,0c-0.2,0.2-0.5,0.4-0.7,0.7c-0.2,0-0.5-0.1-0.7-0.1
	c0.1-0.1,0.3-0.2,0.4-0.3L89.4,45.4L89.4,45.4z M87.7,49.9c0.3,0.2,0.7,0.4,1,0.6c-0.6,0.8-1.2,1.6-1.8,2.4
	c-0.3-0.3-0.6-0.6-0.9-0.9C86.5,51.3,87.1,50.6,87.7,49.9L87.7,49.9z M85.6,51.7c-0.3-0.2-0.6-0.5-0.8-0.7c0.5-0.6,1.1-1.2,1.6-1.8
	c0.3,0.1,0.6,0.3,0.9,0.4C86.7,50.4,86.1,51,85.6,51.7L85.6,51.7z M85.7,149.8c3.2,2.4,7.1,3.7,11.1,3.6c2.3,0,4.5-0.3,6.7-0.8
	c0,0.2-0.1,0.4-0.1,0.6c-0.5,0.1-1.1,0.3-1.6,0.4c-8.5,1.8-14.8,0.8-19.4-3c-7-5.9-10.1-18.7-9.4-39.2c0-1.3,0.1-2.6,0.2-3.9
	c1.2-20.9,6.2-38.6,15-52.6c0.4,0.4,0.7,0.9,1.1,1.3c-7.5,13.5-11.9,30.2-13,49.8c-0.1,1.3-0.1,2.7-0.2,4
	C75.4,131.1,78.5,144.1,85.7,149.8L85.7,149.8z M86,149.5c-7.1-5.7-10.1-18.5-9.4-39.3c0-1.3,0.1-2.6,0.2-3.9
	c1.1-19.5,5.4-36.1,12.9-49.5c0.4,0.5,0.8,1.1,1.2,1.7c-6.2,12.8-9.9,28.4-11,46.4c-1.4,23.5,1.7,37.8,9.2,43.8
	c3,2.2,6.6,3.4,10.3,3.3c1.4,0,2.8-0.1,4.2-0.3c0,0.2-0.1,0.4-0.1,0.7C96,153.8,90.2,152.9,86,149.5L86,149.5z M91.2,58.9
	c2.6,4.2,4.8,8.6,6.3,13.3c5,14.1,7.7,33.1,7.7,53.6c0,8.5-0.5,16.9-1.5,25.3c-6,0.9-10.7,0-14.3-2.8c-7.4-5.8-10.4-20-9.1-43.4
	C81.5,85.3,85.6,70.4,91.2,58.9L91.2,58.9z M104.1,151.4c1.6-0.3,3.1-0.6,4.7-1.1c0,0.1,0,0.3-0.1,0.4c-1,0.3-2,0.6-3,0.9
	c-0.6,0.2-1.2,0.3-1.7,0.4C104.1,151.9,104.1,151.7,104.1,151.4L104.1,151.4z M104.2,151c1-8.4,1.5-16.8,1.5-25.2
	c0-20.5-2.7-39.5-7.7-53.7c-1.6-4.8-3.8-9.4-6.5-13.6c0.7-1.4,1.4-2.8,2.2-4.2l0.3,0.3c4.6,4.6,7.8,10.4,9.4,16.7
	c4.6,17.2,6.9,34.8,7.1,52.6c0.1,8.7-0.5,17.4-1.5,26.1C107.3,150.3,105.7,150.7,104.2,151L104.2,151z M92.6,55
	c-0.5,1-1,1.9-1.5,2.9c-0.4-0.6-0.8-1.1-1.2-1.6c0.7-1.2,1.4-2.4,2.1-3.5c0.4,0.3,0.8,0.7,1.2,1.1C93,54.3,92.8,54.6,92.6,55
	L92.6,55z M89.6,55.9c-0.4-0.5-0.7-0.9-1.1-1.3c0.6-0.9,1.2-1.8,1.8-2.7c0.1-0.1,0.1-0.2,0.2-0.3c0.4,0.3,0.8,0.6,1.2,0.9
	C90.9,53.7,90.3,54.8,89.6,55.9L89.6,55.9z M89.9,51.7c-0.6,0.8-1.2,1.7-1.7,2.6c-0.3-0.4-0.7-0.7-1-1.1c0.6-0.8,1.2-1.7,1.9-2.5
	c0.4,0.2,0.7,0.5,1.1,0.7C90.1,51.5,90,51.6,89.9,51.7L89.9,51.7z M86.6,53.2c-10.3,14.5-16.1,33.2-17.3,55.6
	c-0.1,1.3-0.1,2.7-0.2,3.9c-0.7,20.2,2.4,33.1,9.5,39.3c3.4,3,7.8,4.5,13.3,4.5c2,0,4.1-0.2,6.1-0.5c1.7-0.3,3.4-0.7,5.2-1.1
	c0,0.3-0.1,0.5-0.1,0.8c-3,0.8-6,1.5-9.1,1.8c-8.1,0.9-14.2-0.6-18.7-4.7c-7-6.4-10-19.1-9.3-38.8c0-1.3,0.1-2.6,0.2-3.9
	C67.4,88,73.3,69.5,83.7,55c0.6-0.9,1.3-1.8,2-2.6C86,52.6,86.3,52.9,86.6,53.2L86.6,53.2z M97.9,155.6c-8.3,1.3-14.5,0.1-19-3.9
	c-7-6.2-10.1-18.9-9.4-39c0-1.3,0.1-2.6,0.2-3.9c1.2-22.3,7-40.8,17.2-55.3c0.4,0.3,0.7,0.7,1,1.1c-8.9,14.1-14,31.8-15.1,52.9
	c-0.1,1.3-0.1,2.7-0.2,3.9C71.9,132.1,75,145,82.2,151c3.2,2.7,7.2,4,12.1,4c2.6,0,5.1-0.3,7.6-0.9c0.5-0.1,1-0.2,1.4-0.3
	c0,0.2-0.1,0.5-0.1,0.7C101.4,155,99.6,155.4,97.9,155.6L97.9,155.6z M103.8,153.6c1.5-0.4,3.1-0.8,4.7-1.4c0,0.2-0.1,0.4-0.1,0.6
	c-1.6,0.5-3.2,1-4.7,1.4C103.8,154.1,103.8,153.9,103.8,153.6L103.8,153.6z M103.9,153.2c0-0.2,0.1-0.4,0.1-0.7
	c0.6-0.1,1.2-0.3,1.9-0.4c0.9-0.2,1.8-0.5,2.8-0.8c0,0.2,0,0.3-0.1,0.5C107,152.3,105.4,152.8,103.9,153.2L103.9,153.2z
	 M109.1,151.1c1.5-0.5,3.1-1.1,4.7-1.7c0,0.2,0,0.3-0.1,0.5c-1.6,0.6-3.2,1.2-4.7,1.8C109.1,151.5,109.1,151.3,109.1,151.1
	L109.1,151.1z M109.2,150.7c0-0.1,0-0.3,0.1-0.4c0.2-0.1,0.4-0.1,0.6-0.2c1.3-0.4,2.7-0.9,4.2-1.4c0,0.1,0,0.2,0,0.3
	C112.3,149.6,110.7,150.2,109.2,150.7L109.2,150.7z M109.7,149.7c-0.1,0-0.3,0.1-0.4,0.1c1.1-8.6,1.6-17.3,1.5-25.9
	c-0.1-17.8-2.5-35.5-7.1-52.7c-1.6-6.4-4.9-12.2-9.5-16.9c-0.1-0.1-0.2-0.2-0.4-0.3c0.6-1,1.2-2,1.7-2.9c1.1,0.7,2.2,1.4,3.3,2.3
	c5.3,4.2,9,10.3,10.2,17c2.9,14.2,6.3,32.9,6.5,51.6c0.1,8.8-0.4,17.6-1.5,26.3C112.5,148.7,111.1,149.2,109.7,149.7L109.7,149.7z
	 M93.4,53.5c-0.4-0.4-0.8-0.7-1.2-1.1c0.4-0.7,0.9-1.4,1.4-2.1c0.1-0.1,0.2-0.3,0.3-0.4c0.4,0.2,0.8,0.5,1.3,0.7
	C94.5,51.6,94,52.5,93.4,53.5L93.4,53.5z M93.2,50.1c-0.5,0.7-0.9,1.4-1.3,2.1c-0.4-0.3-0.8-0.6-1.1-0.9c0.5-0.7,1-1.4,1.5-2.1
	c0.4,0.2,0.8,0.4,1.2,0.6C93.4,49.9,93.3,50,93.2,50.1L93.2,50.1z M90.4,51.1c-0.3-0.2-0.7-0.5-1.1-0.7c0.5-0.6,1-1.2,1.5-1.8
	c0.4,0.1,0.7,0.3,1.1,0.5C91.4,49.7,90.9,50.4,90.4,51.1L90.4,51.1z M88.9,50.1c-0.3-0.2-0.6-0.4-1-0.6c0.5-0.5,0.9-1,1.4-1.5
	c0.3,0.1,0.7,0.2,1,0.4C89.9,49,89.4,49.5,88.9,50.1L88.9,50.1z M87.6,49.4c-0.3-0.2-0.6-0.3-0.9-0.4c0.4-0.4,0.9-0.9,1.3-1.3
	c0.3,0.1,0.6,0.2,0.9,0.3C88.5,48.4,88,48.8,87.6,49.4L87.6,49.4z M86.3,48.7c-0.3-0.1-0.5-0.2-0.8-0.3c0.4-0.4,0.8-0.8,1.2-1.1
	c0.3,0.1,0.5,0.1,0.8,0.2C87.1,47.9,86.7,48.3,86.3,48.7L86.3,48.7z M87.9,47.1c-0.2-0.1-0.5-0.1-0.7-0.2c0.3-0.3,0.6-0.5,0.9-0.8
	c0.2,0,0.5,0.1,0.8,0.1C88.5,46.5,88.2,46.8,87.9,47.1L87.9,47.1z M87.5,46.1c-0.3,0.3-0.6,0.5-0.9,0.7c-0.2,0-0.4-0.1-0.6-0.1
	c0.3-0.2,0.6-0.4,0.9-0.7C87.1,46,87.3,46,87.5,46.1L87.5,46.1z M87.4,45.6c0.1-0.1,0.2-0.1,0.3-0.2c0.2,0,0.4,0,0.6,0
	c-0.1,0.1-0.2,0.2-0.3,0.3L87.4,45.6z M87.5,45c-0.1,0-0.2,0-0.3,0c0.1-0.1,0.2-0.1,0.3-0.2l0.3,0C87.6,44.9,87.6,44.9,87.5,45
	L87.5,45z M86.9,45.4c-0.1,0-0.1,0.1-0.2,0.1c-0.1,0-0.3,0-0.4,0c0,0,0.1-0.1,0.1-0.1C86.6,45.5,86.7,45.5,86.9,45.4L86.9,45.4z
	 M85,46.9c-0.4,0.3-0.7,0.6-1.1,0.9c-0.2-0.1-0.3-0.1-0.5-0.2c0.4-0.3,0.7-0.5,1.1-0.8C84.6,46.9,84.8,46.9,85,46.9L85,46.9z
	 M85.6,47l0.7,0.1c-0.4,0.3-0.8,0.7-1.2,1.1c-0.2-0.1-0.4-0.2-0.6-0.2C84.8,47.7,85.2,47.3,85.6,47L85.6,47z M84.7,48.6
	c-0.5,0.5-1,1-1.5,1.5c-0.2-0.1-0.5-0.3-0.7-0.4c0.5-0.4,1-0.9,1.5-1.3C84.2,48.4,84.5,48.5,84.7,48.6L84.7,48.6z M85.2,48.7
	c0.3,0.1,0.5,0.2,0.8,0.3c-0.5,0.6-1.1,1.2-1.6,1.7c-0.3-0.2-0.5-0.4-0.8-0.5C84.1,49.8,84.6,49.2,85.2,48.7L85.2,48.7z M90.1,159.5
	c-7.9,0.5-13.9-1.3-18.4-5.6c-6.9-6.7-9.9-19.3-9.3-38.6c0-1.3,0.1-2.6,0.2-3.9c1.2-21.9,7.2-40.4,17.8-54.9
	c1.3-1.8,2.7-3.5,4.1-5.1c0.3,0.2,0.6,0.4,0.9,0.7c-0.7,0.9-1.3,1.8-2,2.7C72.9,69.3,67,87.9,65.7,110.1c-0.1,1.3-0.1,2.7-0.2,3.9
	c-0.7,19.9,2.4,32.7,9.5,39.2c3.7,3.4,8.5,5.1,14.6,5.1c1.5,0,3-0.1,4.4-0.3c3-0.4,6-1,9-1.8c0,0.3-0.1,0.7-0.1,1
	C98.7,158.4,94.4,159.2,90.1,159.5L90.1,159.5z M103.5,156.1c1.5-0.4,3.1-0.9,4.7-1.4c0,0.3-0.1,0.7-0.2,1c-1.6,0.5-3.1,1-4.7,1.4
	C103.4,156.7,103.4,156.4,103.5,156.1L103.5,156.1z M103.6,155.6c0-0.3,0.1-0.5,0.1-0.8c1.5-0.4,3.1-0.9,4.7-1.4
	c0,0.3-0.1,0.5-0.1,0.8C106.6,154.7,105.1,155.2,103.6,155.6L103.6,155.6z M108.8,153.2c1.5-0.5,3.1-1.1,4.7-1.7
	c0,0.3-0.1,0.6-0.1,0.8c-1.6,0.6-3.2,1.2-4.7,1.7C108.7,153.8,108.8,153.5,108.8,153.2L108.8,153.2z M108.9,152.7
	c0-0.2,0.1-0.4,0.1-0.6c1.5-0.5,3.1-1.1,4.7-1.7c0,0.2-0.1,0.4-0.1,0.6C112,151.6,110.4,152.2,108.9,152.7L108.9,152.7z
	 M114.2,150.2c1.5-0.6,3.1-1.3,4.7-2c0,0.2-0.1,0.4-0.1,0.7c-1.6,0.7-3.2,1.3-4.7,1.9C114.1,150.6,114.2,150.4,114.2,150.2
	L114.2,150.2z M114.3,149.7c0-0.2,0-0.3,0.1-0.5c1.5-0.6,3.1-1.3,4.7-2c0,0.2,0,0.3-0.1,0.5C117.4,148.4,115.8,149.1,114.3,149.7
	L114.3,149.7z M114.4,148.8c0-0.1,0-0.2,0-0.3c1.5-0.6,3.1-1.3,4.7-2c0,0.1,0,0.2,0,0.3C117.5,147.5,115.9,148.1,114.4,148.8
	L114.4,148.8z M114.5,148c1.1-8.7,1.5-17.4,1.5-26.1c-0.2-18.8-3.5-37.5-6.5-51.7c-1.2-6.8-4.9-12.9-10.3-17.2
	c-1.1-0.8-2.2-1.6-3.3-2.3c0.5-0.7,0.9-1.4,1.4-2.1c2.3,0.9,4.5,2.1,6.6,3.4c6.1,3.8,10.2,10.1,11,17.3c0.4,3.1,0.9,6.2,1.5,9.6
	c2,12.6,4.2,26.9,4.4,41.1c0.1,8.7-0.4,17.5-1.4,26.2C117.6,146.7,116,147.4,114.5,148L114.5,148z M95.4,50.3
	c-0.4-0.3-0.8-0.5-1.2-0.7c0.4-0.6,0.9-1.2,1.3-1.8c0.4,0.2,0.9,0.3,1.3,0.5C96.2,49,95.8,49.6,95.4,50.3L95.4,50.3z M93.7,49.4
	c-0.4-0.2-0.8-0.4-1.2-0.6c0.4-0.5,0.8-1.1,1.2-1.6c0.4,0.1,0.8,0.2,1.2,0.4C94.6,48.2,94.1,48.8,93.7,49.4L93.7,49.4z M92.2,48.7
	c-0.4-0.2-0.7-0.3-1.1-0.5c0.4-0.4,0.8-0.9,1.2-1.3c0.4,0.1,0.7,0.2,1.1,0.3C92.9,47.7,92.5,48.2,92.2,48.7L92.2,48.7z M90.7,48
	c-0.3-0.1-0.7-0.2-1-0.4c0.4-0.4,0.7-0.8,1.1-1.1c0.3,0.1,0.6,0.1,1,0.2C91.4,47.2,91,47.6,90.7,48L90.7,48z M89.2,47.5
	c-0.3-0.1-0.6-0.2-0.9-0.3c0.3-0.3,0.7-0.6,1-0.9c0.3,0,0.6,0.1,0.9,0.2C89.9,46.8,89.6,47.1,89.2,47.5L89.2,47.5z M89.8,45.9
	c0.3-0.2,0.5-0.5,0.8-0.7l0.9,0.1c-0.3,0.3-0.5,0.5-0.8,0.8L89.8,45.9z M91.1,44.8c0.1-0.1,0.2-0.1,0.3-0.2c0.3,0,0.6,0,0.9,0
	c-0.1,0.1-0.2,0.2-0.3,0.3C91.6,44.8,91.3,44.8,91.1,44.8L91.1,44.8z M90.4,44.8c-0.2,0-0.4,0-0.7,0c0,0,0.1-0.1,0.1-0.1l0.7,0
	C90.6,44.6,90.5,44.7,90.4,44.8L90.4,44.8z M90.5,44.2l0.4-0.3l0.7-0.1c-0.1,0.1-0.2,0.2-0.4,0.3C90.9,44.1,90.7,44.1,90.5,44.2
	L90.5,44.2z M91.5,43.4c0.1-0.1,0.2-0.1,0.3-0.2c0.2,0,0.4-0.1,0.6-0.1l-0.3,0.2C91.9,43.3,91.7,43.4,91.5,43.4L91.5,43.4z
	 M90.7,43.5c-0.1,0-0.2,0-0.4,0c0,0,0.1-0.1,0.2-0.1l0.4-0.1C90.8,43.4,90.7,43.4,90.7,43.5L90.7,43.5z M89.4,43.6
	C89.4,43.6,89.3,43.6,89.4,43.6C89.3,43.6,89.4,43.6,89.4,43.6C89.4,43.6,89.4,43.6,89.4,43.6C89.4,43.6,89.4,43.6,89.4,43.6
	L89.4,43.6z M88.4,44.3c-0.1,0-0.1,0-0.2,0C88.3,44.3,88.3,44.2,88.4,44.3l0.2-0.1L88.4,44.3z M86.4,44.9c0,0-0.1,0.1-0.1,0.1
	c0,0,0,0-0.1,0C86.3,45,86.4,45,86.4,44.9C86.4,44.9,86.4,44.9,86.4,44.9L86.4,44.9z M85.6,45.5l-0.3,0.2c-0.1,0-0.1,0-0.2,0
	c0.1-0.1,0.2-0.1,0.3-0.2C85.5,45.5,85.5,45.5,85.6,45.5L85.6,45.5z M84.3,45.7H84c0,0,0.1-0.1,0.2-0.1c0.1,0,0.2,0,0.4,0
	C84.4,45.6,84.4,45.7,84.3,45.7L84.3,45.7z M83.6,46.2c-0.1,0-0.1,0.1-0.2,0.1l-0.4,0l0.2-0.1C83.3,46.2,83.4,46.2,83.6,46.2
	L83.6,46.2z M82.1,46.3c-0.1,0-0.1,0-0.2,0v0.1c0,0,0,0,0,0c-0.1,0-0.1,0-0.2,0c0.1,0,0.2-0.1,0.2-0.1
	C82.1,46.2,82.1,46.2,82.1,46.3C82.2,46.2,82.2,46.3,82.1,46.3L82.1,46.3z M82.3,46.7c0.2,0,0.3,0,0.5,0c-0.3,0.2-0.6,0.4-0.9,0.6
	c-0.2,0-0.3-0.1-0.5-0.1C81.7,47,82,46.9,82.3,46.7L82.3,46.7z M83.5,46.8l0.3,0c-0.3,0.2-0.6,0.5-1,0.7c-0.1,0-0.2-0.1-0.4-0.1
	C82.8,47.2,83.2,47,83.5,46.8L83.5,46.8z M82.4,47.9c-0.4,0.3-0.9,0.7-1.3,1.1c-0.1-0.1-0.3-0.1-0.4-0.2c0.4-0.3,0.9-0.7,1.4-1
	L82.4,47.9z M83,48l0.6,0.2c-0.5,0.4-0.9,0.8-1.4,1.3c-0.2-0.1-0.4-0.2-0.6-0.3C82,48.7,82.5,48.4,83,48L83,48z M81.8,49.7
	c-3.1,2.9-5.9,6-8.4,9.4c-11,14.7-17.2,33.1-18.3,54.7c-0.1,1.2-0.1,2.5-0.2,3.9c-0.8,30.5,7.9,45.1,27.3,46c0.6,0,1.3,0.1,1.9,0.1
	c6.1-0.1,12.2-1,18.1-2.6c-0.1,0.5-0.2,1.1-0.3,1.6c-8.7,2-16.7,3-23.6,2.3c-18.9-1.9-27.3-16.6-26.5-46.2c0-1.4,0.1-2.7,0.1-3.9
	c1.2-21.4,7.4-39.6,18.5-54.2c3.2-4.2,6.8-7.9,10.8-11.3C81.4,49.5,81.6,49.6,81.8,49.7L81.8,49.7z M82.2,163.2
	c-19.2-0.8-27.7-15.3-26.9-45.5c0-1.4,0.1-2.7,0.2-3.9c1.2-21.5,7.3-39.9,18.2-54.4c2.5-3.4,5.4-6.5,8.5-9.4
	c0.2,0.1,0.5,0.3,0.7,0.4c-2.2,2.3-4.3,4.7-6.2,7.3c-10.8,14.6-16.9,33.1-18.1,54.9c-0.1,1.2-0.1,2.5-0.2,3.9
	c-0.6,19.1,2.5,31.8,9.4,38.8c4.4,4.4,10.2,6.6,17.8,6.6c0.2,0,0.3,0,0.5,0c5.5-0.2,11-1,16.4-2.5c-0.1,0.4-0.2,0.9-0.2,1.4
	C95,162.5,88.2,163.5,82.2,163.2L82.2,163.2z M103,159.2c1.5-0.4,3.1-0.8,4.6-1.3c-0.1,0.5-0.2,1-0.3,1.4c-1.6,0.4-3.1,0.9-4.6,1.3
	C102.8,160.1,102.9,159.6,103,159.2L103,159.2z M103.1,158.7c0.1-0.4,0.1-0.8,0.2-1.2c1.5-0.4,3.1-0.9,4.7-1.4
	c-0.1,0.4-0.1,0.8-0.2,1.2C106.1,157.8,104.6,158.3,103.1,158.7L103.1,158.7z M108.4,156c1.5-0.5,3.1-1,4.7-1.6
	c-0.1,0.4-0.1,0.9-0.2,1.3c-1.6,0.5-3.2,1-4.7,1.5C108.2,156.8,108.3,156.4,108.4,156L108.4,156z M108.5,155.5c0-0.3,0.1-0.7,0.2-1
	c1.6-0.5,3.1-1.1,4.7-1.7c-0.1,0.4-0.1,0.7-0.2,1.1C111.6,154.5,110,155,108.5,155.5L108.5,155.5z M113.8,152.7
	c1.5-0.6,3.1-1.2,4.7-1.8l-0.2,1.2c-1.6,0.6-3.1,1.2-4.7,1.8C113.7,153.4,113.8,153,113.8,152.7L113.8,152.7z M113.9,152.2
	c0-0.3,0.1-0.6,0.1-0.8c1.6-0.6,3.1-1.3,4.7-1.9c0,0.3-0.1,0.6-0.1,0.9C117,151,115.4,151.6,113.9,152.2L113.9,152.2z M119.3,149.2
	c1.5-0.7,3.1-1.4,4.7-2.1c-0.1,0.3-0.1,0.7-0.2,1c-1.6,0.7-3.1,1.3-4.7,2C119.2,149.8,119.2,149.5,119.3,149.2L119.3,149.2z
	 M119.4,148.7c0-0.2,0.1-0.4,0.1-0.7c1.5-0.7,3.1-1.4,4.7-2.2c0,0.3-0.1,0.5-0.1,0.8C122.5,147.3,120.9,148,119.4,148.7L119.4,148.7
	z M119.5,147.5c0-0.2,0-0.3,0.1-0.5c1.6-0.7,3.1-1.4,4.7-2.2c0,0.2,0,0.3-0.1,0.5C122.7,146.1,121.1,146.8,119.5,147.5L119.5,147.5z
	 M119.7,146.5c0-0.1,0-0.2,0-0.3c1.5-0.7,3.1-1.5,4.7-2.3c0,0.1,0,0.2,0,0.3C122.8,145,121.2,145.8,119.7,146.5L119.7,146.5z
	 M119.8,145.7c1-8.6,1.5-17.3,1.3-25.9c-0.2-14.2-2.4-28.5-4.4-41.1c-0.5-3.3-1-6.5-1.5-9.6c-0.8-7.3-5-13.7-11.2-17.6
	c-2.1-1.3-4.3-2.5-6.6-3.4c0.4-0.6,0.8-1.1,1.1-1.6c3.6,0.9,7,2.2,10.2,3.9c7.2,3.9,11.1,9.6,11.8,17.5c0.5,5.4,1.3,11.2,2.1,17.4
	c1.4,10.5,2.9,21.3,3.1,32.3c0.2,8.6-0.3,17.2-1.3,25.8C122.9,144.2,121.3,145,119.8,145.7L119.8,145.7z M97,47.9
	c-0.4-0.2-0.8-0.3-1.3-0.5c0.4-0.5,0.7-0.9,1.1-1.4c0.4,0.1,0.8,0.2,1.3,0.3C97.7,46.9,97.3,47.4,97,47.9L97,47.9z M95.3,47.3
	c-0.4-0.1-0.8-0.3-1.2-0.4c0.3-0.4,0.7-0.8,1-1.2c0.4,0.1,0.8,0.2,1.2,0.2C96,46.4,95.6,46.8,95.3,47.3L95.3,47.3z M93.7,46.8
	c-0.4-0.1-0.7-0.2-1.1-0.3c0.3-0.3,0.6-0.7,0.9-1c0.4,0.1,0.7,0.1,1.1,0.2C94.3,46,94,46.4,93.7,46.8L93.7,46.8z M92.1,46.4
	c-0.3-0.1-0.6-0.2-1-0.2c0.3-0.3,0.6-0.6,0.9-0.9c0.3,0,0.6,0.1,1,0.1C92.7,45.7,92.4,46.1,92.1,46.4L92.1,46.4z M92.4,44.9
	c0.1-0.1,0.3-0.2,0.4-0.4H93v-0.2c0,0,0.1-0.1,0.1-0.1c0.3,0,0.6,0,1,0c-0.2,0.3-0.5,0.5-0.7,0.7C93,45,92.7,44.9,92.4,44.9
	L92.4,44.9z M93.6,43.8c0.1-0.1,0.1-0.1,0.2-0.2c0.3,0,0.6,0,1,0c-0.1,0.1-0.2,0.2-0.2,0.3C94.2,43.8,93.9,43.8,93.6,43.8L93.6,43.8
	z M92.7,44.1c-0.3,0-0.5,0-0.8,0c0.1-0.1,0.3-0.2,0.4-0.4c0.3,0,0.5,0,0.8-0.1C92.9,43.8,92.8,44,92.7,44.1L92.7,44.1z M92.9,43.3
	c0.1-0.1,0.3-0.2,0.4-0.3c0.3,0,0.5-0.1,0.8-0.1c-0.1,0.1-0.3,0.2-0.4,0.3C93.4,43.2,93.1,43.3,92.9,43.3L92.9,43.3z M93.9,42.5
	c0.1-0.1,0.2-0.2,0.4-0.3L95,42c-0.1,0.1-0.3,0.2-0.4,0.3L93.9,42.5z M95.1,41.6c0.1-0.1,0.3-0.2,0.4-0.3l0.6-0.1
	c-0.1,0.1-0.3,0.2-0.4,0.3C95.4,41.5,95.2,41.5,95.1,41.6L95.1,41.6z M96.3,40.7C96.3,40.7,96.3,40.7,96.3,40.7
	c0.2-0.1,0.4-0.1,0.5-0.2c0,0,0,0-0.1,0.1C96.6,40.6,96.5,40.6,96.3,40.7L96.3,40.7z M94.1,41.7l-0.3,0.1c0.1-0.1,0.2-0.1,0.3-0.2
	c0.1,0,0.2,0,0.3-0.1C94.3,41.6,94.2,41.7,94.1,41.7L94.1,41.7z M93.4,42.3c-0.1,0.1-0.2,0.1-0.3,0.2c-0.2,0-0.3,0.1-0.5,0.1
	c0.1-0.1,0.2-0.1,0.3-0.2L93.4,42.3z M91.6,42.8c-0.1,0-0.2,0-0.2,0C91.5,42.8,91.5,42.7,91.6,42.8c0-0.1,0.1-0.1,0.2-0.1
	C91.7,42.7,91.7,42.7,91.6,42.8L91.6,42.8z M85.3,45.1c-0.1,0-0.1,0-0.2,0c0,0,0,0,0,0H85.3L85.3,45.1z M83,45.7
	C83,45.7,83,45.8,83,45.7C83,45.8,83,45.8,83,45.7C83,45.8,83,45.8,83,45.7C83,45.7,83,45.7,83,45.7L83,45.7z M80.8,46.4h-0.2
	C80.6,46.4,80.7,46.4,80.8,46.4c0-0.1,0-0.1,0.1-0.1C80.9,46.3,80.8,46.4,80.8,46.4L80.8,46.4z M79.6,46.9c0.1,0,0.2,0,0.3,0
	c-0.1,0-0.2,0.1-0.2,0.1l-0.3,0C79.5,46.9,79.5,46.9,79.6,46.9L79.6,46.9z M80.9,46.8h0.3c-0.2,0.1-0.3,0.2-0.5,0.3
	c-0.1,0-0.2,0-0.3-0.1C80.6,47,80.7,46.9,80.9,46.8L80.9,46.8z M80.2,47.5c-0.4,0.2-0.7,0.5-1.1,0.7c-0.1,0-0.3-0.1-0.4-0.1
	c0.4-0.2,0.7-0.4,1.1-0.6L80.2,47.5z M80.9,47.6c0.2,0,0.4,0.1,0.6,0.1c-0.4,0.3-0.8,0.6-1.2,0.9c-0.2-0.1-0.4-0.1-0.5-0.2
	C80,48.1,80.4,47.8,80.9,47.6L80.9,47.6z M79.8,48.8c-4.9,3.7-9.3,8.1-13.1,12.9C55.3,76.5,49,94.7,47.9,116
	c-0.1,1.2-0.1,2.5-0.1,3.9c-0.4,15.4,1.8,26.7,6.7,34.6c4.4,7.1,10.9,11.3,19.9,12.7c2.5,0.4,5.1,0.6,7.7,0.6
	c6.5-0.1,13.1-0.9,19.4-2.3c-0.1,0.7-0.3,1.3-0.4,1.9c-11.4,2.2-22.1,3-30.9,1.1c-8.7-1.9-15-6.3-19.3-13.5c-4.7-8-6.9-19.1-6.5-34
	c0-1.4,0.1-2.7,0.1-3.9c1.1-21,7.5-39.1,19-53.8c4.5-5.7,9.8-10.6,15.8-14.7C79.4,48.7,79.6,48.8,79.8,48.8L79.8,48.8z M74.3,166.8
	c-18.6-2.9-26.9-17.8-26.2-46.9c0-1.4,0.1-2.7,0.1-3.9c1.1-21.2,7.4-39.4,18.7-54c3.8-4.9,8.2-9.3,13.2-13c0.2,0.1,0.3,0.1,0.5,0.2
	c-4,3.3-7.6,7.1-10.7,11.2c-11.2,14.7-17.4,33-18.6,54.5c-0.1,1.2-0.1,2.5-0.1,3.9c-0.8,29.9,7.8,44.8,26.9,46.7
	c1.5,0.2,3.1,0.2,4.6,0.2c6.4-0.1,12.8-1,19-2.5c-0.1,0.6-0.2,1.2-0.4,1.8C91.5,167.1,82.2,168,74.3,166.8L74.3,166.8z M102.3,163.1
	c1.5-0.3,3-0.7,4.6-1.2c-0.1,0.6-0.3,1.3-0.4,1.9c-1.5,0.4-3,0.7-4.5,1C102,164.3,102.2,163.7,102.3,163.1L102.3,163.1z
	 M102.4,162.6c0.1-0.5,0.2-1.1,0.3-1.6c1.5-0.4,3.1-0.8,4.6-1.3c-0.1,0.6-0.2,1.1-0.3,1.7C105.4,161.8,103.9,162.2,102.4,162.6
	L102.4,162.6z M107.7,159.6c1.5-0.4,3.1-0.9,4.7-1.4c-0.1,0.6-0.2,1.2-0.4,1.8c-1.5,0.5-3.1,0.9-4.6,1.3
	C107.5,160.8,107.6,160.2,107.7,159.6L107.7,159.6z M107.8,159.2c0.1-0.5,0.2-1,0.3-1.4c1.5-0.5,3.1-1,4.7-1.5
	c-0.1,0.5-0.2,1-0.3,1.6C110.9,158.2,109.4,158.7,107.8,159.2L107.8,159.2z M113.3,156c1.5-0.5,3.1-1.1,4.6-1.6
	c-0.1,0.6-0.2,1.1-0.3,1.7c-1.6,0.5-3.1,1-4.6,1.5C113.1,157.1,113.2,156.6,113.3,156L113.3,156z M113.4,155.5
	c0.1-0.4,0.1-0.9,0.2-1.3c1.5-0.6,3.1-1.2,4.7-1.8c-0.1,0.5-0.2,0.9-0.2,1.4C116.4,154.5,114.9,155,113.4,155.5L113.4,155.5z
	 M118.8,152.3c1.5-0.6,3.1-1.2,4.7-1.8c-0.1,0.5-0.2,1-0.3,1.5c-1.5,0.6-3.1,1.2-4.6,1.7C118.6,153.2,118.7,152.8,118.8,152.3
	L118.8,152.3z M118.9,151.8c0.1-0.4,0.1-0.8,0.2-1.2c1.5-0.6,3.1-1.3,4.7-2c-0.1,0.4-0.1,0.8-0.2,1.3
	C122,150.6,120.4,151.2,118.9,151.8L118.9,151.8z M124.3,148.4c1.6-0.7,3.2-1.4,4.8-2.1c-0.1,0.5-0.2,0.9-0.2,1.4
	c-1.6,0.7-3.2,1.3-4.7,2C124.1,149.3,124.2,148.8,124.3,148.4L124.3,148.4z M124.6,146.3c0-0.3,0.1-0.5,0.1-0.8
	c1.6-0.8,3.2-1.5,4.8-2.4c0,0.3-0.1,0.6-0.1,0.9C127.8,144.9,126.2,145.6,124.6,146.3L124.6,146.3z M124.8,145c0-0.2,0-0.3,0.1-0.5
	c1.6-0.8,3.2-1.6,4.8-2.4c0,0.2-0.1,0.4-0.1,0.6C128,143.5,126.4,144.3,124.8,145L124.8,145z M124.9,144c0-0.1,0-0.2,0-0.3
	c1.6-0.8,3.2-1.7,4.8-2.5c0,0.1,0,0.2,0,0.3C128.1,142.4,126.5,143.2,124.9,144L124.9,144z M125,143.2c1-8.5,1.4-17,1.2-25.5
	c-0.2-11-1.7-21.8-3.1-32.3c-0.8-6.1-1.6-11.9-2.1-17.3c-0.7-8.1-4.6-13.9-12-17.9c-3.2-1.7-6.6-3-10.2-3.9c0.3-0.4,0.6-0.8,0.9-1.2
	c4.8,0.7,9.5,2.1,14,4c8.3,3.8,12.3,9.4,12.6,17.8c0.2,6.8,1.2,14.1,2.1,21.8c1.3,8.9,2.1,17.9,2.5,26.9c0.2,8.4-0.1,16.8-1,25.2
	C128.2,141.5,126.6,142.4,125,143.2L125,143.2z M98.3,46l-1.2-0.3c0.3-0.4,0.6-0.7,0.9-1.1c0.4,0.1,0.8,0.1,1.3,0.2
	C98.9,45.2,98.6,45.6,98.3,46L98.3,46z M96.6,45.6c-0.4-0.1-0.8-0.2-1.1-0.2c0.3-0.3,0.5-0.6,0.8-0.9c0.4,0,0.8,0.1,1.2,0.1
	C97.2,44.9,96.9,45.2,96.6,45.6L96.6,45.6z M94.9,45.3c-0.3-0.1-0.7-0.1-1-0.2c0.3-0.3,0.5-0.5,0.8-0.8c0.3,0,0.7,0,1.1,0.1
	C95.5,44.7,95.2,45,94.9,45.3L94.9,45.3z M95.1,43.9c0.1-0.1,0.2-0.2,0.3-0.3c0.4,0,0.7,0,1.1,0c-0.1,0.1-0.2,0.3-0.4,0.4
	C95.7,44,95.4,43.9,95.1,43.9L95.1,43.9z M96.7,42.8v0.3c-0.3,0-0.5,0-0.8,0c0.2-0.2,0.4-0.3,0.5-0.5c0.4,0,0.7-0.1,1-0.1
	c-0.1,0.1-0.2,0.2-0.2,0.2C97,42.8,96.8,42.8,96.7,42.8L96.7,42.8z M96.8,43.2C96.8,43.3,96.7,43.3,96.8,43.2L96.8,43.2L96.8,43.2
	L96.8,43.2z M95.2,43.2c-0.3,0-0.6,0-0.9,0c0.2-0.1,0.3-0.3,0.5-0.4l0.9-0.1C95.5,42.9,95.4,43,95.2,43.2L95.2,43.2z M95.4,42.3
	c0.2-0.1,0.3-0.3,0.4-0.4c0.3,0,0.6-0.1,0.9-0.1c-0.2,0.2-0.3,0.3-0.5,0.4C95.9,42.2,95.6,42.3,95.4,42.3L95.4,42.3z M96.5,41.4
	c0.2-0.1,0.3-0.3,0.5-0.4l0.8-0.2c-0.2,0.1-0.3,0.3-0.5,0.4C97,41.3,96.7,41.3,96.5,41.4L96.5,41.4z M97.7,40.4
	c0.1-0.1,0.1-0.1,0.2-0.2c0.3-0.1,0.5-0.1,0.7-0.2c-0.1,0.1-0.2,0.2-0.2,0.2L97.7,40.4z M98.8,39.6l0.2-0.2c0.2-0.1,0.4-0.1,0.6-0.2
	l-0.3,0.2C99.2,39.5,99,39.5,98.8,39.6L98.8,39.6z M100,38.7c0.2-0.1,0.3-0.1,0.5-0.2c0,0,0,0,0,0.1L100,38.7z M97.8,39.8
	C97.7,39.8,97.7,39.8,97.8,39.8c-0.2,0.1-0.3,0.1-0.3,0.1c0,0,0,0,0,0C97.5,39.9,97.6,39.8,97.8,39.8L97.8,39.8z M92.8,41.9
	c0,0-0.1,0.1-0.1,0.1c0,0,0,0,0,0C92.7,42,92.7,42,92.8,41.9C92.8,42,92.8,41.9,92.8,41.9L92.8,41.9z M77.4,47.4L77.4,47.4
	c-0.1,0.1-0.3,0.2-0.5,0.3c0,0-0.1,0-0.1,0C77,47.6,77.2,47.5,77.4,47.4L77.4,47.4z M78.6,47.4c0.1,0,0.3,0,0.4,0
	c-0.3,0.2-0.6,0.3-0.9,0.5c-0.1,0-0.3-0.1-0.4-0.1C78,47.7,78.3,47.5,78.6,47.4L78.6,47.4z M77.5,48.2c-7,4.2-13.1,9.6-18.2,16
	C47.7,78.7,41,97.3,40,118c-0.1,1.2-0.1,2.5-0.1,3.9c-0.6,27.7,7.8,43.6,25.8,48.7c4.9,1.3,9.9,1.9,15,1.8
	c6.6-0.1,13.1-0.7,19.6-1.9c-0.2,0.8-0.4,1.6-0.6,2.4c-16.2,2.5-28.6,2.1-38.1-1.2c-17.4-6-25.6-22-25.1-48.9c0-1.4,0.1-2.7,0.1-3.9
	c1.1-20.4,7.8-38.9,19.5-53.3c5.8-7.2,13-13.1,21.1-17.5C77.2,48.2,77.4,48.2,77.5,48.2L77.5,48.2z M65.7,170.1
	c-17.7-5-26-20.7-25.4-48.2c0-1.4,0.1-2.7,0.1-3.9c1.1-20.6,7.7-39.1,19.2-53.5c5.1-6.5,11.4-11.9,18.5-16.1l0.5,0.1
	c-5.9,4-11.2,8.9-15.6,14.5C51.4,77.7,45,95.9,43.9,117c-0.1,1.2-0.1,2.5-0.1,3.9c-0.6,28.3,7.9,44,26.2,48
	c3.7,0.8,7.4,1.1,11.1,1.1c6.6-0.1,13.3-0.8,19.8-2.2c-0.2,0.7-0.4,1.5-0.5,2.2C87.7,172.2,75.5,172.9,65.7,170.1L65.7,170.1z
	 M101.3,167.8c1.5-0.3,3-0.6,4.5-0.9c-0.2,0.8-0.4,1.5-0.6,2.3c-1.5,0.3-2.9,0.6-4.4,0.8C100.9,169.2,101.1,168.5,101.3,167.8
	L101.3,167.8z M101.4,167.3c0.1-0.6,0.3-1.3,0.4-1.9c1.5-0.3,3-0.7,4.5-1c-0.2,0.7-0.3,1.4-0.5,2C104.4,166.7,102.9,167,101.4,167.3
	L101.4,167.3z M106.8,164.2c1.5-0.4,3-0.8,4.5-1.2c-0.2,0.7-0.4,1.5-0.5,2.2c-1.5,0.4-3,0.7-4.5,1.1
	C106.5,165.6,106.6,164.9,106.8,164.2L106.8,164.2z M106.9,163.7c0.1-0.6,0.3-1.3,0.4-1.9c1.5-0.4,3.1-0.8,4.6-1.3
	c-0.1,0.7-0.3,1.4-0.5,2C109.9,163,108.4,163.3,106.9,163.7L106.9,163.7z M112.4,160.4c1.5-0.4,3-0.9,4.6-1.4
	c-0.2,0.7-0.3,1.5-0.5,2.2c-1.5,0.4-3,0.9-4.5,1.3C112.1,161.7,112.3,161.1,112.4,160.4L112.4,160.4z M112.5,159.9
	c0.1-0.6,0.2-1.2,0.4-1.8c1.5-0.5,3.1-1,4.6-1.5c-0.1,0.6-0.3,1.3-0.4,1.9C115.5,159,114,159.4,112.5,159.9L112.5,159.9z M118,156.4
	c1.5-0.5,3-1,4.5-1.6c-0.2,0.7-0.3,1.4-0.5,2.1c-1.5,0.5-3,1-4.5,1.4C117.7,157.7,117.9,157,118,156.4L118,156.4z M118.1,155.9
	c0.1-0.6,0.2-1.1,0.3-1.7c1.5-0.6,3.1-1.1,4.6-1.7c-0.1,0.6-0.2,1.2-0.4,1.8C121.2,154.8,119.6,155.4,118.1,155.9L118.1,155.9z
	 M123.6,152.3c1.5-0.6,3.1-1.2,4.7-1.8c-0.1,0.7-0.3,1.3-0.4,2c-1.6,0.6-3.1,1.1-4.6,1.7C123.4,153.5,123.5,152.9,123.6,152.3
	L123.6,152.3z M123.7,151.8c0.1-0.5,0.2-1,0.3-1.6c1.6-0.6,3.1-1.3,4.7-2c-0.1,0.6-0.2,1.1-0.3,1.7
	C126.8,150.6,125.3,151.2,123.7,151.8L123.7,151.8z M129.2,148c1.6-0.7,3.1-1.3,4.7-2c-0.1,0.6-0.3,1.3-0.4,1.9
	c-1.5,0.6-3.1,1.2-4.6,1.8C129,149.2,129.1,148.6,129.2,148L129.2,148z M129.3,147.5c0.1-0.5,0.2-1,0.2-1.4c1.6-0.7,3.1-1.4,4.7-2.1
	c-0.1,0.5-0.2,1.1-0.3,1.6C132.4,146.2,130.8,146.9,129.3,147.5L129.3,147.5z M134.8,143.7c1.6-0.7,3.1-1.4,4.7-2.2
	c-0.1,0.6-0.2,1.2-0.3,1.8c-1.6,0.7-3.1,1.4-4.7,2C134.6,144.8,134.7,144.3,134.8,143.7L134.8,143.7z M134.8,143.2
	c0.1-0.4,0.1-0.9,0.2-1.3c1.6-0.8,3.2-1.6,4.8-2.3c-0.1,0.5-0.2,1-0.2,1.5C138,141.7,136.4,142.5,134.8,143.2L134.8,143.2z
	 M140.3,139.3c1.1-0.6,2.3-1.1,3.4-1.7c0.5-0.2,0.9-0.4,1.4-0.7c-0.1,0.6-0.2,1.1-0.3,1.7c-1.1,0.5-2.1,1-3.2,1.5l-1.6,0.7
	C140.1,140.3,140.2,139.8,140.3,139.3L140.3,139.3z M139.9,139c-1.6,0.8-3.2,1.6-4.8,2.3c0-0.3,0.1-0.7,0.1-1
	c1.6-0.8,3.2-1.7,4.8-2.5C140,138.2,139.9,138.6,139.9,139L139.9,139z M134.6,141.6c-1.6,0.8-3.2,1.5-4.7,2.3c0-0.3,0.1-0.6,0.1-0.9
	c1.6-0.8,3.2-1.6,4.8-2.4C134.7,140.9,134.7,141.2,134.6,141.6L134.6,141.6z M130.1,142.5c0-0.2,0.1-0.4,0.1-0.7
	c1.6-0.8,3.2-1.7,4.8-2.6c0,0.2-0.1,0.5-0.1,0.8C133.2,140.8,131.6,141.7,130.1,142.5L130.1,142.5z M130.2,141.3c0-0.1,0-0.3,0-0.4
	c1.6-0.9,3.2-1.8,4.8-2.7c0,0.2,0,0.3-0.1,0.5C133.4,139.6,131.8,140.4,130.2,141.3L130.2,141.3z M130.3,140.4
	c0.9-8.3,1.2-16.6,1-25c-0.4-9-1.2-18-2.5-26.9c-1-7.7-1.9-15-2.1-21.8c-0.3-8.6-4.4-14.4-12.8-18.2c-4.4-1.9-9.1-3.3-13.8-4
	c0.3-0.4,0.6-0.7,0.8-1.1c6.1,0.5,12,1.7,17.8,3.8c9.2,3.6,13.5,9.3,13.4,18.1c-0.1,7.7,0.9,16,1.9,24.7c0.9,7.6,1.8,15.3,2,23
	c0.3,8.2,0,16.5-0.9,24.6C133.5,138.6,131.9,139.5,130.3,140.4L130.3,140.4z M99.5,44.4c-0.4-0.1-0.8-0.1-1.2-0.2
	c0.3-0.3,0.5-0.6,0.8-0.9c0.4,0,0.8,0.1,1.2,0.1C100.1,43.7,99.8,44.1,99.5,44.4L99.5,44.4z M97.8,44.2c-0.4,0-0.8-0.1-1.1-0.1
	c0.2-0.3,0.5-0.5,0.7-0.8c0.4,0,0.7,0,1.1,0C98.3,43.6,98,43.9,97.8,44.2L97.8,44.2z M97.8,42.8c0.1-0.1,0.2-0.2,0.3-0.3
	c0.4,0,0.8,0,1.1-0.1c-0.1,0.1-0.2,0.3-0.3,0.4C98.5,42.8,98.2,42.8,97.8,42.8L97.8,42.8z M97.9,42.1c-0.3,0-0.7,0-1,0.1
	c0.2-0.2,0.4-0.3,0.5-0.5c0.3,0,0.7-0.1,1-0.1C98.2,41.7,98.1,41.9,97.9,42.1L97.9,42.1z M98,41.2c0.2-0.2,0.4-0.3,0.5-0.5l0.9-0.2
	c-0.2,0.2-0.4,0.3-0.6,0.5L98,41.2z M99.2,40.1c0.1-0.1,0.2-0.2,0.4-0.3c0.3-0.1,0.6-0.1,0.9-0.2c-0.1,0.1-0.3,0.2-0.4,0.3
	C99.8,40.1,99.5,40.1,99.2,40.1L99.2,40.1z M100.3,39.2c0.1-0.1,0.2-0.2,0.4-0.3l0.8-0.2c-0.1,0.1-0.3,0.2-0.4,0.3L100.3,39.2z
	 M101.6,38.3c0.1-0.1,0.1-0.1,0.2-0.2c0.2-0.1,0.4-0.1,0.6-0.2c-0.1,0.1-0.2,0.1-0.3,0.2L101.6,38.3z M102.8,37.3
	c0,0,0.1-0.1,0.1-0.1c0.2-0.1,0.4-0.1,0.5-0.2c0,0-0.1,0.1-0.2,0.1L102.8,37.3z M75.1,47.5C75.1,47.5,75.1,47.5,75.1,47.5
	C75.1,47.5,75.1,47.5,75.1,47.5c-0.1,0.1-0.1,0-0.1,0C75,47.5,75,47.5,75.1,47.5L75.1,47.5z M57,173.2c-17.1-7-25.2-23.3-24.7-49.6
	c0-1.4,0.1-2.7,0.1-3.9c1-20.3,7.8-38.7,19.7-53.1c6.5-7.9,14.7-14.2,23.9-18.6c0.1,0,0.1,0,0.2,0c-8,4.4-15,10.2-20.7,17.3
	c-11.7,14.5-18.5,33-19.6,53.5c-0.1,1.2-0.1,2.5-0.1,3.9c-0.5,27.1,7.8,43.3,25.4,49.3c6.2,2,12.8,3,19.3,2.8
	c6.3-0.1,12.6-0.6,18.8-1.6c-0.3,0.9-0.5,1.8-0.8,2.6C81.1,178.4,67.4,177.5,57,173.2L57,173.2z M99.9,173.3
	c1.4-0.2,2.8-0.5,4.3-0.7c-0.3,0.9-0.6,1.8-0.9,2.7c-1.4,0.2-2.8,0.4-4.1,0.6C99.4,175,99.7,174.1,99.9,173.3L99.9,173.3z
	 M100,172.8c0.2-0.8,0.4-1.6,0.6-2.4c1.5-0.3,2.9-0.5,4.4-0.8c-0.2,0.8-0.5,1.7-0.7,2.5C102.9,172.3,101.4,172.6,100,172.8
	L100,172.8z M105.5,169.5c1.5-0.3,2.9-0.6,4.4-0.9c-0.3,0.9-0.5,1.8-0.8,2.6c-1.5,0.3-2.9,0.6-4.3,0.8
	C105,171.2,105.3,170.3,105.5,169.5L105.5,169.5z M105.6,169c0.2-0.8,0.4-1.5,0.6-2.3c1.5-0.3,3-0.7,4.5-1.1
	c-0.2,0.8-0.4,1.6-0.7,2.4C108.5,168.4,107.1,168.7,105.6,169L105.6,169z M111.2,165.6c1.5-0.4,2.9-0.7,4.4-1.1
	c-0.2,0.8-0.5,1.7-0.8,2.5c-1.4,0.3-2.9,0.7-4.3,1C110.7,167.2,111,166.4,111.2,165.6L111.2,165.6z M111.3,165.1
	c0.2-0.7,0.4-1.4,0.5-2.2c1.5-0.4,3-0.8,4.5-1.2c-0.2,0.8-0.4,1.5-0.6,2.3C114.2,164.3,112.8,164.7,111.3,165.1L111.3,165.1z
	 M116.8,161.5c1.5-0.4,2.9-0.8,4.4-1.3c-0.2,0.8-0.5,1.6-0.7,2.4c-1.4,0.4-2.9,0.8-4.3,1.2C116.4,163,116.6,162.3,116.8,161.5
	L116.8,161.5z M117,161c0.2-0.7,0.4-1.4,0.5-2.2c1.5-0.5,3-0.9,4.5-1.4c-0.2,0.8-0.4,1.6-0.6,2.3C119.9,160.1,118.4,160.6,117,161
	L117,161z M122.5,157.2c1.5-0.5,3-1,4.5-1.5c-0.2,0.8-0.5,1.7-0.7,2.5c-1.5,0.5-2.9,0.9-4.4,1.4C122.2,158.8,122.3,158,122.5,157.2
	L122.5,157.2z M122.7,156.7c0.2-0.7,0.3-1.4,0.5-2.1c1.5-0.5,3.1-1.1,4.6-1.7c-0.2,0.8-0.4,1.5-0.5,2.2
	C125.7,155.7,124.2,156.2,122.7,156.7L122.7,156.7z M128.2,152.8c1.5-0.5,3-1.1,4.5-1.7c-0.2,0.8-0.4,1.6-0.6,2.4
	c-1.5,0.5-3,1-4.4,1.5C127.9,154.3,128.1,153.5,128.2,152.8L128.2,152.8z M128.4,152.3c0.1-0.7,0.3-1.3,0.4-2
	c1.5-0.6,3.1-1.2,4.6-1.8c-0.2,0.7-0.3,1.4-0.5,2.1C131.4,151.1,129.9,151.7,128.4,152.3L128.4,152.3z M133.9,148.2
	c1.5-0.6,3.1-1.2,4.6-1.8c-0.2,0.8-0.4,1.6-0.6,2.3c-1.5,0.6-3,1.1-4.5,1.7C133.6,149.7,133.7,149,133.9,148.2L133.9,148.2z
	 M134,147.7c0.1-0.6,0.3-1.2,0.4-1.9c1.5-0.7,3.1-1.3,4.7-2c-0.1,0.7-0.3,1.4-0.4,2.1C137.1,146.5,135.5,147.1,134,147.7L134,147.7z
	 M139.5,143.6c0.3-0.1,0.5-0.2,0.8-0.3c1.3-0.6,2.6-1.1,3.9-1.7c-0.2,0.8-0.3,1.5-0.5,2.2c-1.5,0.6-3,1.2-4.5,1.8
	C139.2,145,139.4,144.3,139.5,143.6L139.5,143.6z M140.1,142.9l-0.5,0.2c0.1-0.6,0.2-1.2,0.3-1.8c0.6-0.3,1.2-0.6,1.8-0.8
	c1-0.4,1.9-0.9,2.9-1.3c-0.1,0.7-0.2,1.3-0.4,2C142.9,141.7,141.5,142.3,140.1,142.9L140.1,142.9z M145.2,138.9
	c1.5-0.7,3-1.4,4.5-2.1c-0.1,0.7-0.3,1.4-0.5,2.2c-1.5,0.6-3,1.3-4.5,1.9C144.9,140.2,145.1,139.5,145.2,138.9L145.2,138.9z
	 M145.3,138.4c0.1-0.6,0.2-1.1,0.3-1.7c1.5-0.8,3.1-1.5,4.6-2.3c-0.1,0.6-0.2,1.3-0.3,1.9C148.3,137,146.8,137.7,145.3,138.4
	L145.3,138.4z M150.7,134.1c1.5-0.8,3.1-1.5,4.7-2.3c-0.1,0.7-0.3,1.4-0.4,2.1c-1.5,0.7-3.1,1.4-4.6,2.1
	C150.5,135.4,150.6,134.8,150.7,134.1L150.7,134.1z M150.8,133.6c0.1-0.5,0.2-1.1,0.2-1.6c1.6-0.8,3.1-1.7,4.7-2.5
	c-0.1,0.6-0.2,1.2-0.3,1.8C153.9,132.1,152.3,132.8,150.8,133.6L150.8,133.6z M156.2,129.3c1.6-0.8,3.1-1.6,4.7-2.4
	c-0.1,0.7-0.2,1.3-0.4,2c-1.6,0.7-3.1,1.4-4.6,2.2C156,130.5,156.1,129.9,156.2,129.3L156.2,129.3z M155.8,129
	c-1.6,0.8-3.2,1.7-4.7,2.5c0.1-0.4,0.1-0.9,0.2-1.3c1.6-0.9,3.2-1.8,4.7-2.6C155.9,128,155.9,128.5,155.8,129L155.8,129z
	 M150.6,131.7c-1.6,0.8-3.1,1.7-4.7,2.5c0-0.4,0.1-0.7,0.1-1.1c0.6-0.3,1.2-0.7,1.9-1.1c0.9-0.5,1.9-1.1,2.8-1.6
	C150.7,130.9,150.6,131.3,150.6,131.7L150.6,131.7z M145.4,134.5c-1.6,0.9-3.2,1.7-4.8,2.6c0-0.3,0.1-0.6,0.1-0.9
	c1.6-0.9,3.2-1.8,4.8-2.7C145.5,133.7,145.5,134.1,145.4,134.5L145.4,134.5z M140.1,137.3c-1.6,0.8-3.2,1.7-4.8,2.5
	c0-0.3,0.1-0.5,0.1-0.8c1.6-0.9,3.2-1.7,4.8-2.7C140.2,136.6,140.2,137,140.1,137.3L140.1,137.3z M135.5,138.5c0-0.2,0-0.3,0.1-0.5
	c1.6-0.9,3.2-1.8,4.8-2.8c0,0.2,0,0.4-0.1,0.6C138.7,136.7,137.1,137.6,135.5,138.5L135.5,138.5z M100.7,43c-0.4,0-0.8-0.1-1.2-0.1
	c0.1-0.1,0.3-0.3,0.4-0.4h0.5v-0.4c0.2,0,0.6,0,1,0C101.1,42.4,100.9,42.7,100.7,43z M100.3,42L100.3,42C100.3,42,100.3,42,100.3,42
	L100.3,42L100.3,42z M99.7,42.1c-0.4,0-0.7,0-1.1,0c0.2-0.2,0.4-0.4,0.6-0.6c0.4,0,0.7-0.1,1.1-0.1L99.7,42.1z M100.9,39.9
	c0.2-0.2,0.3-0.3,0.5-0.4c0.3-0.1,0.7-0.1,1-0.2c-0.2,0.2-0.3,0.3-0.5,0.5L100.9,39.9z M102,38.9c0.2-0.1,0.3-0.3,0.5-0.4
	c0.3-0.1,0.6-0.1,0.9-0.2c-0.2,0.1-0.3,0.3-0.5,0.4C102.6,38.8,102.3,38.9,102,38.9L102,38.9z M103.3,37.9c0.1-0.1,0.3-0.2,0.4-0.3
	c0.3-0.1,0.5-0.2,0.8-0.2c-0.1,0.1-0.3,0.2-0.4,0.3L103.3,37.9z M104.5,36.9c0.1-0.1,0.2-0.2,0.3-0.2l0.7-0.2
	c-0.1,0.1-0.2,0.2-0.3,0.3C105,36.8,104.7,36.8,104.5,36.9L104.5,36.9z M105.8,35.9c0.1-0.1,0.2-0.2,0.4-0.3
	c0.2-0.1,0.3-0.1,0.5-0.2c-0.1,0.1-0.3,0.2-0.4,0.3C106.2,35.8,106,35.8,105.8,35.9L105.8,35.9z M107.4,34.7
	c0.1-0.1,0.2-0.1,0.3-0.2c0.1,0,0.1-0.1,0.2-0.1c-0.1,0.1-0.2,0.1-0.3,0.2C107.6,34.7,107.5,34.7,107.4,34.7L107.4,34.7z
	 M48.1,176.1c9,5,20.6,7.5,34.1,7.5c4.7,0,9.3-0.3,13.9-0.8c-0.4,0.9-0.8,1.9-1.2,2.8c-20.6,2.2-38.2-0.8-51-8.8
	c-15.9-10-23.9-27.4-23.6-51.6c0-1.4,0.1-2.6,0.1-3.8c1-20,8-38.1,20.4-52.3c8.3-9.5,19-16.7,31-20.8c-10.7,4.3-20.1,11.1-27.6,19.8
	c-12.3,14.4-19.3,32.7-20.3,52.8c-0.1,1.2-0.1,2.5-0.1,3.9C23.6,149.8,31.7,167,48.1,176.1L48.1,176.1z M48.4,175.7
	c-16.2-9-24.3-26.1-24-50.9c0-1.4,0.1-2.7,0.1-3.9c1-20.1,8-38.3,20.2-52.6c7.8-9.1,17.8-16.1,29-20.3c0.1,0,0.2,0,0.3,0
	c-10,4.4-18.9,11-25.9,19.3c-12.1,14.4-19,32.8-20,53.1c-0.1,1.2-0.1,2.5-0.1,3.9c-0.4,25.6,7.9,42.6,24.6,50.7
	c7.9,3.8,17.6,5.7,29.2,5.7c5.3,0,10.5-0.4,15.8-1.1c-0.3,0.9-0.7,1.8-1,2.8C76.8,184.6,60.3,182.3,48.4,175.7L48.4,175.7z
	 M98,179.5c1.3-0.2,2.6-0.3,4-0.6c-0.4,1-0.8,1.9-1.2,2.8c-1.3,0.2-2.5,0.3-3.8,0.5C97.3,181.4,97.6,180.4,98,179.5L98,179.5z
	 M98.1,179c0.3-0.9,0.6-1.8,0.9-2.7c1.4-0.2,2.7-0.4,4.1-0.6c-0.3,0.9-0.7,1.9-1,2.8C100.8,178.7,99.4,178.9,98.1,179L98.1,179z
	 M103.6,175.6c1.3-0.2,2.7-0.5,4.1-0.7c-0.4,1-0.8,1.9-1.2,2.8c-1.3,0.2-2.6,0.5-3.9,0.7C102.9,177.5,103.3,176.5,103.6,175.6
	L103.6,175.6z M103.8,175.1c0.3-0.9,0.6-1.8,0.9-2.7c1.4-0.3,2.8-0.5,4.3-0.8c-0.1,0.2-0.1,0.5-0.2,0.7c-0.3,0.7-0.5,1.4-0.8,2.1
	C106.5,174.7,105.1,174.9,103.8,175.1L103.8,175.1z M109.1,172.5c0.1-0.3,0.2-0.6,0.3-0.9c1.4-0.3,2.7-0.6,4.2-0.9
	c-0.4,1-0.8,1.9-1.2,2.9c-1.4,0.3-2.7,0.6-4,0.8C108.6,173.7,108.8,173.1,109.1,172.5L109.1,172.5z M109.5,171
	c0.3-0.8,0.5-1.7,0.8-2.6c1.4-0.3,2.9-0.7,4.3-1c-0.3,0.9-0.6,1.8-0.9,2.7C112.3,170.4,110.9,170.7,109.5,171L109.5,171z
	 M114.6,168.9c0.2-0.5,0.3-1,0.5-1.6c1.4-0.3,2.8-0.7,4.1-1c-0.4,1-0.7,1.9-1.1,2.8c-1.3,0.3-2.7,0.6-4,0.9
	C114.3,169.6,114.5,169.3,114.6,168.9L114.6,168.9z M115.3,166.8c0.3-0.8,0.5-1.7,0.8-2.5c1.4-0.4,2.9-0.8,4.3-1.2
	c-0.3,0.9-0.6,1.8-0.9,2.6C118.1,166.1,116.7,166.5,115.3,166.8L115.3,166.8z M120.2,165.2c0.3-0.7,0.5-1.5,0.7-2.2
	c1.4-0.4,2.8-0.8,4.2-1.2c-0.3,0.9-0.7,1.9-1.1,2.8c-1.3,0.4-2.7,0.7-4,1.1C120.1,165.5,120.2,165.3,120.2,165.2L120.2,165.2z
	 M121.1,162.5c0.2-0.8,0.5-1.6,0.7-2.4c1.5-0.4,2.9-0.9,4.4-1.3c-0.3,0.9-0.5,1.7-0.8,2.6C123.9,161.7,122.5,162.1,121.1,162.5
	L121.1,162.5z M126.7,158.5l4.3-1.3c-0.3,0.9-0.7,1.8-1,2.7c-1.3,0.4-2.7,0.8-4.1,1.2C126.2,160.2,126.4,159.4,126.7,158.5
	L126.7,158.5z M126.9,158c0.2-0.8,0.5-1.6,0.7-2.5c1.5-0.5,2.9-1,4.4-1.5c-0.3,0.9-0.5,1.8-0.8,2.6
	C129.7,157.1,128.3,157.6,126.9,158L126.9,158z M132.5,153.8c1.4-0.5,2.9-1,4.3-1.5c-0.1,0.3-0.2,0.7-0.3,1
	c-0.2,0.6-0.4,1.2-0.7,1.8c-1.4,0.4-2.7,0.9-4.1,1.3C132,155.6,132.2,154.7,132.5,153.8L132.5,153.8z M132.6,153.3
	c0.2-0.8,0.4-1.6,0.6-2.4c1.5-0.6,3-1.1,4.5-1.7c-0.2,0.9-0.5,1.7-0.8,2.6C135.5,152.3,134.1,152.8,132.6,153.3L132.6,153.3z
	 M138.3,149c0.2-0.1,0.3-0.1,0.5-0.2l3.9-1.5c-0.3,0.9-0.6,1.9-1,2.8c-0.9,0.3-1.9,0.6-2.8,1l-1.4,0.5
	C137.8,150.8,138,149.9,138.3,149L138.3,149z M138.6,148.5c-0.1,0-0.1,0.1-0.2,0.1c0.2-0.8,0.4-1.5,0.6-2.3c0.1,0,0.2-0.1,0.2-0.1
	c1.4-0.6,2.8-1.1,4.3-1.7c-0.2,0.8-0.5,1.7-0.7,2.5C141.4,147.4,140,147.9,138.6,148.5L138.6,148.5z M144,144.2
	c1.4-0.6,2.8-1.1,4.3-1.7c-0.3,0.9-0.6,1.8-0.9,2.7c-1.4,0.5-2.7,1-4.1,1.5C143.6,145.9,143.8,145,144,144.2L144,144.2z
	 M144.2,143.6c0.2-0.7,0.4-1.5,0.5-2.3c1.5-0.6,3-1.3,4.4-1.9c-0.2,0.8-0.4,1.6-0.7,2.4C147,142.5,145.6,143.1,144.2,143.6
	L144.2,143.6z M149.6,139.3c1.5-0.6,3-1.3,4.4-1.9c-0.3,0.9-0.5,1.8-0.8,2.7c-1.4,0.5-2.9,1.1-4.3,1.7
	C149.2,140.9,149.4,140.1,149.6,139.3L149.6,139.3z M149.8,138.7c0.2-0.7,0.3-1.4,0.5-2.2c1.5-0.7,3-1.4,4.6-2.1
	c-0.2,0.8-0.4,1.6-0.6,2.4C152.7,137.5,151.2,138.1,149.8,138.7L149.8,138.7z M155.3,134.3c1.5-0.7,3-1.3,4.5-2
	c-0.2,0.9-0.5,1.8-0.8,2.6c-0.1,0-0.2,0.1-0.3,0.1c-1.3,0.5-2.7,1.1-4,1.6C154.9,135.9,155.1,135.1,155.3,134.3L155.3,134.3z
	 M155.5,133.7c0.1-0.7,0.3-1.4,0.4-2.1c1.5-0.7,3.1-1.5,4.6-2.2c-0.2,0.8-0.3,1.6-0.5,2.3C158.4,132.4,156.9,133,155.5,133.7
	L155.5,133.7z M161,129.2c1.5-0.7,2.9-1.4,4.4-2c-0.2,0.8-0.4,1.7-0.7,2.5c-0.3,0.2-0.7,0.3-1,0.4c-1.1,0.4-2.1,0.9-3.2,1.4
	C160.6,130.7,160.8,130,161,129.2L161,129.2z M161.1,128.6c0.1-0.7,0.3-1.3,0.4-2c1.5-0.8,3-1.5,4.5-2.3c-0.1,0.8-0.3,1.5-0.5,2.3
	C164,127.3,162.5,128,161.1,128.6L161.1,128.6z M166.5,124.1c1.4-0.7,2.8-1.4,4.2-2c-0.2,0.8-0.4,1.7-0.6,2.5
	c-0.5,0.2-0.9,0.4-1.4,0.7c-0.9,0.4-1.7,0.8-2.6,1.2C166.2,125.6,166.3,124.9,166.5,124.1L166.5,124.1z M166.6,123.6
	c0.1-0.7,0.2-1.3,0.3-2c1.4-0.8,2.9-1.5,4.3-2.2c-0.1,0.7-0.2,1.4-0.4,2.2C169.4,122.2,168,122.9,166.6,123.6L166.6,123.6z
	 M171.7,119.1c1.4-0.7,2.8-1.4,4.2-2.1c-0.2,0.8-0.4,1.6-0.6,2.4c-0.6,0.3-1.2,0.6-1.8,0.8c-0.7,0.3-1.5,0.7-2.2,1
	C171.4,120.6,171.5,119.9,171.7,119.1L171.7,119.1z M171.3,118.9c-1.4,0.7-2.9,1.5-4.3,2.2c0.1-0.5,0.1-1.1,0.2-1.6
	c1.5-0.8,2.9-1.6,4.4-2.4C171.4,117.7,171.3,118.3,171.3,118.9L171.3,118.9z M166.5,121.3c-1.6,0.8-3.1,1.7-4.6,2.5
	c0.1-0.4,0.1-0.9,0.2-1.4c1.6-0.9,3.1-1.8,4.7-2.7C166.6,120.3,166.5,120.8,166.5,121.3L166.5,121.3z M161.4,124.1
	c-1.6,0.9-3.2,1.7-4.8,2.6c0-0.4,0.1-0.8,0.1-1.1c1.6-1,3.2-1.9,4.8-2.8C161.5,123.2,161.4,123.6,161.4,124.1L161.4,124.1z
	 M156.1,127c-1.6,0.9-3.2,1.8-4.8,2.6c0-0.3,0.1-0.6,0.1-0.9c1.6-0.9,3.2-1.9,4.8-2.8C156.1,126.2,156.1,126.6,156.1,127L156.1,127z
	 M150.8,129.9c-1,0.6-2.1,1.2-3.1,1.8c-0.5,0.3-1.1,0.6-1.6,0.9c0-0.3,0.1-0.5,0.1-0.8c1.5-0.9,3-1.8,4.5-2.7c0.1,0,0.1-0.1,0.2-0.1
	C150.9,129.3,150.9,129.6,150.8,129.9L150.8,129.9z M145.6,132.8c-1.6,0.9-3.2,1.8-4.8,2.7c0-0.2,0-0.4,0.1-0.6
	c1.6-0.9,3.2-1.9,4.8-2.8C145.7,132.3,145.6,132.6,145.6,132.8L145.6,132.8z M101.8,41.7c-0.5,0-0.8,0-1.1,0
	c0.1-0.1,0.2-0.2,0.3-0.3c0.4,0,0.8-0.1,1.2-0.1C102,41.4,101.9,41.5,101.8,41.7L101.8,41.7z M101.4,40.9c0.2-0.2,0.5-0.4,0.7-0.7
	c0.4,0,0.8-0.1,1.1-0.1c-0.2,0.2-0.4,0.5-0.7,0.7C102.1,40.8,101.8,40.9,101.4,40.9L101.4,40.9z M102.6,39.7
	c0.2-0.2,0.4-0.4,0.6-0.6c0.4-0.1,0.7-0.1,1.1-0.2c-0.2,0.2-0.4,0.4-0.6,0.6C103.3,39.6,102.9,39.7,102.6,39.7L102.6,39.7z
	 M103.7,38.6c0.2-0.2,0.4-0.3,0.6-0.5c0.3-0.1,0.7-0.1,1-0.2c-0.2,0.2-0.4,0.4-0.6,0.6C104.4,38.5,104,38.6,103.7,38.6L103.7,38.6z
	 M104.9,37.5c0.2-0.1,0.3-0.3,0.5-0.4c0.3-0.1,0.6-0.2,0.9-0.2c-0.2,0.2-0.3,0.3-0.5,0.5C105.5,37.4,105.2,37.5,104.9,37.5
	L104.9,37.5z M106.2,36.5c0.1-0.1,0.3-0.2,0.4-0.3c0.3-0.1,0.5-0.2,0.8-0.2c-0.1,0.1-0.3,0.3-0.4,0.4
	C106.7,36.3,106.4,36.4,106.2,36.5L106.2,36.5z M107.4,35.4c0.2-0.1,0.3-0.3,0.5-0.4c0.2-0.1,0.5-0.2,0.7-0.2
	c-0.2,0.1-0.3,0.3-0.5,0.4L107.4,35.4z M108.9,34.3c0.1-0.1,0.3-0.2,0.4-0.3c0.2-0.1,0.3-0.1,0.5-0.2c-0.1,0.1-0.3,0.2-0.4,0.3
	C109.2,34.2,109.1,34.2,108.9,34.3L108.9,34.3z M110.6,33.1c0.1-0.1,0.2-0.1,0.3-0.2c0.1,0,0.1,0,0.2-0.1c-0.1,0.1-0.2,0.1-0.3,0.2
	C110.7,33,110.6,33.1,110.6,33.1L110.6,33.1z M39.4,178.1c11.1,7.9,26,12,42.8,12c3.7,0,7.3-0.2,10.9-0.6c-0.6,1-1.1,2-1.8,3
	c-0.2,0-0.4,0.1-0.6,0.1c-21.7,2.1-41.4-2.8-55.5-13.9c-15.2-11.9-23.1-30.2-22.9-53c0-1.3,0-2.6,0.1-3.8c1-19.8,8.2-37.7,20.9-51.9
	c9.5-10.6,22-18.1,35.8-21.7c-12.5,3.9-23.7,11.2-32.4,20.9c-12.6,14.3-19.8,32.4-20.8,52.4c-0.1,1.2-0.1,2.5-0.1,3.9
	C15.8,148.9,23.8,167.1,39.4,178.1z M39.6,177.7c-15.4-10.9-23.4-28.9-23.2-52.3c0-1.4,0-2.6,0.1-3.8c1-19.9,8.1-37.9,20.7-52.1
	c8.7-9.8,20-17.1,32.6-21c-11.3,4.2-21.3,11.1-29.2,20.2c-12.4,14.4-19.5,32.6-20.5,52.6c-0.1,1.2-0.1,2.5-0.1,3.9
	c-0.3,24.4,7.7,41.9,23.8,52c10.2,6.4,23.3,9.7,38.5,9.7c4.2,0,8.3-0.3,12.5-0.7c-0.5,1-0.9,2-1.4,2.9
	C72.1,191.2,53.1,187.2,39.6,177.7L39.6,177.7z M95.3,186c1.1-0.1,2.3-0.3,3.5-0.4c-0.6,1-1.1,2-1.8,2.9c-0.3,0.1-0.6,0.1-0.9,0.2
	c-0.7,0.1-1.5,0.2-2.2,0.2C94.4,188,94.9,187,95.3,186L95.3,186z M95.5,185.6c0.4-0.9,0.8-1.9,1.2-2.8c1.2-0.2,2.5-0.3,3.7-0.5
	c-0.5,1-0.9,2-1.4,2.9C97.9,185.3,96.7,185.4,95.5,185.6L95.5,185.6z M101,182.2c1.2-0.2,2.4-0.4,3.6-0.6c-0.6,1-1.1,2-1.7,2.9
	c-0.4,0.1-0.9,0.2-1.3,0.3c-0.6,0.1-1.3,0.2-1.9,0.3C100,184.1,100.5,183.2,101,182.2L101,182.2z M101.2,181.7
	c0.4-0.9,0.8-1.9,1.2-2.8c1.3-0.2,2.6-0.4,3.9-0.6c-0.5,1-0.9,2-1.4,2.9C103.6,181.3,102.4,181.5,101.2,181.7L101.2,181.7z
	 M106.8,178.1c1.2-0.2,2.4-0.4,3.7-0.7c-0.5,1-1.1,2-1.7,2.9c-0.6,0.2-1.3,0.3-1.9,0.4c-0.5,0.1-1,0.2-1.5,0.3
	C105.9,180.1,106.3,179.1,106.8,178.1L106.8,178.1z M107,177.6c0.4-0.9,0.8-1.9,1.2-2.9c1.3-0.3,2.6-0.5,4-0.8c-0.4,1-0.9,2-1.4,2.9
	C109.5,177.2,108.2,177.4,107,177.6L107,177.6z M112.7,173.9c1.2-0.3,2.4-0.5,3.6-0.8c-0.5,1-1.1,2-1.7,3c-0.8,0.2-1.5,0.4-2.3,0.6
	c-0.3,0.1-0.6,0.1-1,0.2C111.7,175.9,112.2,174.9,112.7,173.9L112.7,173.9z M112.9,173.4c0.4-0.9,0.8-1.9,1.2-2.9
	c1.3-0.3,2.6-0.6,3.9-0.9c-0.4,1-0.9,2-1.4,3C115.3,172.8,114.1,173.1,112.9,173.4L112.9,173.4z M118.5,169.5
	c1.2-0.3,2.5-0.6,3.7-0.9c-0.5,1-1.1,2-1.7,3c-0.9,0.3-1.9,0.6-2.9,0.8c-0.1,0-0.3,0.1-0.4,0.1C117.6,171.5,118.1,170.5,118.5,169.5
	L118.5,169.5z M118.7,168.9c0.4-0.9,0.8-1.8,1.1-2.8c1.3-0.3,2.7-0.7,4-1.1c-0.4,1-0.9,2-1.4,2.9C121.2,168.3,120,168.6,118.7,168.9
	L118.7,168.9z M124.4,164.9c1.2-0.3,2.5-0.7,3.7-1c-0.5,1-1,2-1.6,2.9c-1.1,0.4-2.3,0.8-3.5,1.1C123.5,166.9,124,165.9,124.4,164.9
	L124.4,164.9z M128.3,163.4c-1.2,0.3-2.4,0.7-3.6,1c0.4-0.9,0.7-1.8,1.1-2.8c1.3-0.4,2.7-0.8,4-1.2c-0.4,1-0.9,2-1.3,2.9
	C128.3,163.4,128.3,163.4,128.3,163.4L128.3,163.4z M130.3,160.2c1.1-0.3,2.3-0.7,3.4-1c0.1,0,0.2-0.1,0.3-0.1c-0.5,1-1,2-1.6,2.9
	c-1.1,0.4-2.3,0.8-3.5,1.2C129.4,162.2,129.9,161.3,130.3,160.2L130.3,160.2z M133.6,158.8c-1,0.3-2.1,0.6-3.1,0.9
	c0.4-0.9,0.7-1.8,1-2.7c1.4-0.4,2.7-0.9,4.1-1.3c-0.4,1-0.8,1.9-1.3,2.9C134.1,158.6,133.8,158.7,133.6,158.8L133.6,158.8z
	 M136.1,155.5c1-0.3,1.9-0.6,2.9-0.9c0.3-0.1,0.6-0.2,0.9-0.3c-0.5,1-1,1.9-1.5,2.8c-1.1,0.5-2.3,0.9-3.5,1.3
	C135.3,157.4,135.7,156.5,136.1,155.5L136.1,155.5z M138.9,154.1c-0.9,0.3-1.7,0.6-2.6,0.8c0.2-0.5,0.4-1,0.6-1.5
	c0.2-0.4,0.3-0.9,0.5-1.3c0.6-0.2,1.1-0.4,1.7-0.6c0.8-0.3,1.6-0.6,2.4-0.8c-0.4,1-0.8,2-1.3,3C139.8,153.8,139.3,154,138.9,154.1
	L138.9,154.1z M142,150.5l2-0.7c0.6-0.2,1.1-0.4,1.7-0.6c-0.5,1-1,2-1.5,2.9c-1.1,0.5-2.2,0.9-3.4,1.4
	C141.2,152.5,141.6,151.5,142,150.5L142,150.5z M143.9,149.4l-1.6,0.6c0.3-0.9,0.6-1.8,0.9-2.8c1.3-0.5,2.7-1,4-1.5
	c-0.4,1-0.8,2-1.2,2.9C145.3,148.9,144.6,149.2,143.9,149.4L143.9,149.4z M147.7,145.5c0.4-0.2,0.8-0.3,1.2-0.5
	c0.9-0.3,1.9-0.7,2.7-1.1c-0.4,0.9-0.9,1.9-1.4,2.8c-1.2,0.6-2.4,1.1-3.7,1.6C147,147.5,147.4,146.5,147.7,145.5L147.7,145.5z
	 M148.8,144.7c-0.3,0.1-0.6,0.2-0.9,0.3c0.3-0.9,0.6-1.8,0.9-2.7c1.4-0.6,2.8-1.1,4.2-1.7c-0.3,1-0.7,1.9-1.1,2.8
	C151,143.8,149.9,144.3,148.8,144.7L148.8,144.7z M153.5,140.6c0-0.1,0-0.2,0.1-0.2c0.1,0,0.2-0.1,0.3-0.1c1.2-0.5,2.4-1,3.6-1.5
	c-0.4,0.9-0.8,1.8-1.3,2.7c-1.2,0.6-2.4,1.2-3.7,1.7C152.9,142.3,153.2,141.5,153.5,140.6L153.5,140.6z M153.8,139.8L153.8,139.8
	c0.3-0.9,0.6-1.8,0.8-2.7c1.4-0.6,2.8-1.2,4.3-1.8c-0.3,0.9-0.7,1.8-1.1,2.7C156.5,138.7,155.2,139.3,153.8,139.8L153.8,139.8z
	 M159.4,135.2c1.3-0.6,2.6-1.1,3.9-1.7c-0.4,0.9-0.8,1.8-1.2,2.6c-1.1,0.6-2.4,1.2-3.6,1.8C158.7,137,159.1,136.1,159.4,135.2
	L159.4,135.2z M159.6,134.6c0.3-0.9,0.5-1.7,0.8-2.6c1.2-0.5,2.3-1,3.5-1.5c0.2-0.1,0.4-0.2,0.6-0.3c-0.3,0.9-0.6,1.8-1,2.7
	C162.3,133.5,160.9,134.1,159.6,134.6L159.6,134.6z M165,130c1.3-0.6,2.5-1.1,3.7-1.7c-0.3,0.8-0.7,1.7-1.1,2.5
	c-1.1,0.6-2.3,1.2-3.5,1.8C164.4,131.8,164.7,130.9,165,130L165,130z M165.2,129.4c0.2-0.8,0.5-1.7,0.7-2.5c1-0.4,1.9-0.9,2.9-1.3
	c0.4-0.2,0.7-0.3,1.1-0.5c-0.3,0.9-0.6,1.7-0.9,2.6C167.8,128.3,166.5,128.9,165.2,129.4L165.2,129.4z M170.4,124.9
	c1.3-0.6,2.5-1.2,3.6-1.7c-0.3,0.8-0.7,1.7-1.1,2.5c-1.1,0.6-2.1,1.2-3.3,1.8C169.9,126.6,170.2,125.7,170.4,124.9L170.4,124.9z
	 M170.6,124.3c0.2-0.8,0.4-1.6,0.6-2.4c0.8-0.4,1.7-0.8,2.5-1.2c0.5-0.2,0.9-0.4,1.4-0.7c-0.3,0.8-0.5,1.7-0.8,2.5
	C173.1,123.1,171.8,123.7,170.6,124.3L170.6,124.3z M175.7,119.8c1.3-0.6,2.6-1.3,3.8-1.9c-0.3,0.8-0.6,1.6-1,2.4
	c-1.1,0.7-2.3,1.3-3.6,1.9C175.2,121.4,175.4,120.6,175.7,119.8L175.7,119.8z M175.8,119.2c0.2-0.8,0.4-1.6,0.6-2.4
	c0.8-0.4,1.5-0.7,2.3-1.1c0.6-0.3,1.2-0.6,1.8-0.9c-0.2,0.8-0.5,1.6-0.7,2.4C178.4,117.9,177.2,118.6,175.8,119.2L175.8,119.2z
	 M180.9,114.6c1.4-0.7,2.6-1.3,3.9-2c-0.3,0.8-0.6,1.6-0.9,2.3c-1.1,0.7-2.4,1.4-3.6,2.1C180.4,116.2,180.7,115.4,180.9,114.6
	L180.9,114.6z M181,114.1c0.2-0.8,0.3-1.5,0.5-2.3c0.7-0.3,1.4-0.7,2-1c0.7-0.3,1.4-0.7,2.1-1.1c-0.2,0.8-0.4,1.6-0.7,2.3
	C183.7,112.7,182.4,113.4,181,114.1L181,114.1z M186.1,109.5c1.4-0.7,2.7-1.4,3.9-2.1c-0.3,0.8-0.5,1.5-0.9,2.2
	c-1.1,0.7-2.3,1.4-3.6,2.1C185.7,111,185.9,110.2,186.1,109.5L186.1,109.5z M186.2,108.9c1.6-7.4,0.7-15.7-0.2-24.3l-0.1-0.6
	c-0.1-0.8-0.2-1.6-0.3-2.4c-1.2-10.6-2.5-22.5,2.5-35.4c2.3-5.8,2.3-10.4,0.1-13.8c-3-4.7-10-7.1-21.9-7.7
	c-12.6-0.6-26.4,1.2-32.3,2c-1.3,0.2-2.3,0.3-2.6,0.3v0.4c0.3,0,1.2-0.1,2.6-0.3c5.9-0.8,19.6-2.7,32.2-2c11.8,0.6,18.6,3,21.6,7.5
	c2.1,3.3,2.1,7.8-0.1,13.4c-5.1,13-3.8,25-2.6,35.6c0.1,0.8,0.2,1.6,0.3,2.4l0.1,0.6c1,8.9,1.8,17.1,0.2,24.4
	c-0.8,0.4-1.6,0.8-2.4,1.2c-0.6,0.3-1.2,0.6-1.8,0.9c1.2-7.6,0.4-15.9-0.3-24c-0.1-1.3-0.3-2.7-0.4-4c-1.1-10.5-2.4-22.5,2.1-34.8
	c2-5.6,1.9-10.2-0.2-13.5c-2.9-4.5-9.5-6.9-20.8-7.7c-11.9-0.8-25.1,0.7-30.8,1.4c-1.4,0.2-2.5,0.3-2.8,0.3v0.4
	c0.3,0,1.3-0.1,2.8-0.3c5.6-0.7,18.9-2.2,30.7-1.4c11.1,0.8,17.6,3.2,20.4,7.5c2.1,3.2,2.2,7.6,0.2,13.1c-4.5,12.4-3.2,24.4-2.1,35
	c0.1,1.3,0.3,2.7,0.4,4c0.8,8.6,1.6,16.7,0.4,24.2c-1.4,0.7-2.9,1.5-4.3,2.2c0.9-7.1,0.4-14.9-0.3-23.3c-0.2-1.8-0.3-3.7-0.5-5.6
	c-1.1-11-2.3-22.3,1.6-34.1c1.8-5.5,1.6-9.9-0.6-13.2c-2.9-4.3-9.1-6.8-19.6-7.7c-11.3-1-24,0.3-29.5,0.8c-1.4,0.1-2.5,0.3-2.9,0.3
	v0.4c0.4,0,1.4-0.1,2.9-0.3c5.4-0.6,18.1-1.8,29.4-0.8c10.4,0.9,16.5,3.3,19.3,7.5c2.1,3.2,2.3,7.4,0.5,12.8
	c-3.9,11.9-2.7,23.8-1.6,34.3c0.2,1.9,0.4,3.8,0.5,5.6c0.7,7.9,1.4,15.9,0.3,23.5c-1.5,0.8-2.9,1.6-4.4,2.4c0.7-7,0.4-14.6-0.2-22.8
	c-0.2-2.4-0.4-4.8-0.7-7.4c-1.1-10.9-2.2-22.1,1.1-33.4c1.6-5.4,1.3-9.7-0.9-12.9c-2.8-4.2-8.7-6.6-18.5-7.7
	c-10.8-1.2-22.5-0.2-28.2,0.2c-1.4,0.1-2.4,0.2-2.8,0.2v0.4c0.4,0,1.4-0.1,2.9-0.2c5.7-0.5,17.4-1.4,28.1-0.2
	c9.7,1.1,15.4,3.5,18.2,7.5c2.1,3.1,2.4,7.3,0.8,12.6c-3.3,11.4-2.2,22.7-1.1,33.6c0.3,2.5,0.5,4.9,0.7,7.3c0.6,8.3,1,16,0.2,23
	c-1.5,0.8-2.9,1.6-4.4,2.4c0.6-7.5,0.5-15-0.1-22.5c-0.2-3-0.5-6-0.8-9.2c-1.1-10.7-2.2-21.8,0.6-32.6c1.3-5.3,0.9-9.4-1.2-12.6
	c-2.7-4-8.2-6.5-17.3-7.7C138,33,126.7,33.7,121.2,34c-1.3,0.1-2.2,0.1-2.7,0.1v0.4c0.5,0,1.4-0.1,2.7-0.1c5.4-0.3,16.7-1.1,27,0.3
	c9,1.2,14.4,3.6,17,7.6c2.1,3.1,2.5,7.1,1.1,12.3c-2.8,10.9-1.7,22-0.6,32.8c0.3,3.2,0.6,6.2,0.8,9.1c0.7,7.6,0.7,15.1,0.1,22.7
	c-1.6,0.9-3.1,1.8-4.7,2.7c0.6-7.5,0.6-15,0-22.4c-0.2-3.6-0.6-7.4-1-11c-1.1-10.5-2.1-21.3,0.1-31.7c1.1-5.1,0.6-9.1-1.5-12.3
	c-2.6-3.9-7.8-6.4-16.2-7.8c-10-1.7-20.9-1.2-26.1-0.9c-1.1,0.1-1.9,0.1-2.4,0.1v0.4c0.5,0,1.3,0,2.4-0.1c5.2-0.2,16.1-0.7,26,0.9
	c8.3,1.4,13.4,3.8,15.9,7.6c2.1,3,2.5,6.9,1.4,11.9c-2.3,10.4-1.2,21.3-0.1,31.8c0.4,3.7,0.7,7.4,1,11c0.6,7.6,0.6,15.1,0,22.7
	c-1.6,0.9-3.2,1.9-4.8,2.8c0.6-7.5,0.7-15.1,0.2-22.6c-0.2-4.2-0.7-8.6-1.1-12.8c-1.1-10.3-2.1-20.9-0.4-30.9
	c2.5-14-7.7-17.9-16.9-19.7c-9.7-1.9-20.7-1.6-25.4-1.5c-0.8,0-1.5,0-1.9,0v0.4c0.4,0,1.1,0,1.9,0c4.7-0.1,15.6-0.4,25.3,1.5
	c9.6,1.9,19,5.7,16.6,19.2c-1.8,10-0.7,20.7,0.3,31c0.4,4.2,0.9,8.6,1.1,12.8c0.5,7.6,0.4,15.3-0.3,22.9c-1.6,0.9-3.2,1.9-4.8,2.8
	c0.7-7.6,0.8-15.3,0.4-22.9c-0.2-4.9-0.8-10.1-1.3-15c-1-10-2.1-20.3-0.8-29.7c1.9-13.4-7.6-17.4-16.1-19.4
	c-9.7-2.3-20.7-2.2-24.9-2.1c-0.4,0-0.8,0-1.1,0v0.4c0.3,0,0.7,0,1.1,0c4.1,0,15.1-0.1,24.8,2.1c8.3,1.9,17.6,5.9,15.8,18.9
	c-1.3,9.5-0.3,19.9,0.8,29.8c0.5,4.9,1.1,10.1,1.3,15c0.4,7.7,0.3,15.5-0.4,23.2c-0.2,0.1-0.3,0.2-0.5,0.3c-1.4,0.8-2.8,1.7-4.2,2.5
	c0.7-7.7,0.8-15.5,0.5-23.3c-0.2-5.7-0.9-11.6-1.5-17.3c-1-9.6-2.1-19.4-1.2-28.4c1.3-12.8-7.5-17-15.3-19.1
	c-6.6-1.8-15-2.8-24.7-2.8v0.4h0c-0.3,0-0.6,0-0.9,0c0.2-0.3,0.5-0.5,0.7-0.8c1.3-0.1,2.6-0.2,3.8-0.2v-0.4c-1.1,0-2.2,0.1-3.4,0.1
	c0.2-0.2,0.4-0.5,0.7-0.7c2.1-0.3,4.2-0.4,6.4-0.5V38c-2,0-3.9,0.1-5.9,0.4c0.2-0.2,0.4-0.4,0.6-0.6c2.9-0.5,5.9-0.8,8.9-0.9v-0.4
	c-2.8,0-5.6,0.3-8.3,0.8c0.2-0.2,0.4-0.4,0.6-0.6c3.7-0.9,7.6-1.3,11.4-1.4v-0.4c-3.6,0-7.2,0.5-10.8,1.2c0.2-0.2,0.3-0.3,0.5-0.4
	c4.4-1.2,9-1.9,13.5-2v-0.4c-4.3,0.1-8.6,0.7-12.8,1.8c0.2-0.2,0.4-0.3,0.6-0.5c5-1.5,10.3-2.4,15.5-2.6v-0.4
	c-5,0.2-9.9,0.9-14.7,2.3c0.2-0.1,0.4-0.3,0.5-0.4c5.6-1.9,11.5-3,17.4-3.2v-0.4c-5.6,0.2-11.1,1.2-16.5,2.9
	c0.1-0.1,0.3-0.2,0.4-0.3c6.2-2.3,12.7-3.6,19.3-3.9V28c-6.2,0.2-12.3,1.4-18.1,3.4c0.1-0.1,0.2-0.2,0.3-0.2
	c6.7-2.8,13.8-4.3,21-4.6v-0.4c-6.4,0.2-12.7,1.5-18.7,3.7c0.8-0.3,1.6-0.7,2.5-1c6.2-2.4,12.7-3.8,19.4-4.1c-0.4,0.1-0.7,0.1-1,0.2
	c-1.2,0.2-2.1,0.3-2.3,0.3v0.4c0.2,0,0.9-0.1,2.3-0.3c5.6-0.8,20.5-3.1,33.8-2.7c12.3,0.4,19.7,2.9,22.7,7.5c2.1,3.3,2,8-0.5,13.7
	c-5.8,13.6-4.3,25.6-3,36.1l0.3,2.6c1.1,8.8,2.1,16.8-0.2,24.1C188.9,107.5,187.6,108.2,186.2,108.9L186.2,108.9z M85.4,196.2
	c-21,1.4-40.3-4.6-54.5-16.9c-14.8-12.9-22.6-31.5-22.5-53.6c0-1.3,0-2.6,0.1-3.8c0.8-19.2,8.3-37.4,21.2-51.7
	C39.1,60,51.2,52.7,64.6,49.1c-12.1,4-23,11-31.5,20.5c-12.8,14.3-20.1,32.3-21,52.2c-0.1,1.3-0.1,2.6-0.1,3.9
	c-0.2,22.9,7.8,41.3,23,53.3c12,9.5,28.1,14.5,46,14.5c3.2,0,6.4-0.2,9.7-0.5l0.2,0c-0.6,0.9-1.3,1.9-2,2.7
	C87.8,196,86.6,196.2,85.4,196.2L85.4,196.2z M92,192.4c0.6-0.9,1.2-1.9,1.7-2.9c0.8-0.1,1.7-0.2,2.5-0.3c0.2,0,0.4-0.1,0.6-0.1
	c-0.6,1-1.3,1.9-2,2.7C93.8,192,92.9,192.2,92,192.4L92,192.4z M97.6,188.5c0.6-0.9,1.2-1.9,1.7-2.9c0.7-0.1,1.5-0.2,2.2-0.3
	c0.3-0.1,0.6-0.1,0.9-0.2c-0.6,0.9-1.3,1.8-2,2.7C99.5,188,98.6,188.3,97.6,188.5L97.6,188.5z M103.4,184.4c0.6-0.9,1.1-1.9,1.7-2.9
	c0.6-0.1,1.2-0.2,1.8-0.3c0.5-0.1,1-0.2,1.5-0.3c-0.6,0.9-1.2,1.8-1.9,2.6C105.5,183.9,104.5,184.2,103.4,184.4L103.4,184.4z
	 M109.3,180.2c0.6-0.9,1.1-1.9,1.7-2.9c0.4-0.1,0.9-0.2,1.3-0.3c0.6-0.1,1.3-0.3,1.9-0.5c-0.6,0.9-1.2,1.8-1.9,2.7
	C111.3,179.6,110.3,179.9,109.3,180.2L109.3,180.2z M115.2,175.8c0.6-0.9,1.1-1.9,1.7-2.9c0.3-0.1,0.5-0.1,0.8-0.2
	c0.8-0.2,1.7-0.4,2.5-0.7c-0.6,0.9-1.2,1.8-1.9,2.6C117.3,175.1,116.3,175.5,115.2,175.8L115.2,175.8z M121.2,171.3
	c0.6-0.9,1.1-1.9,1.6-2.9c0.1,0,0.1,0,0.2-0.1c1.1-0.3,2.1-0.6,3.1-0.9c-0.6,0.9-1.2,1.8-1.9,2.7
	C123.3,170.5,122.2,170.9,121.2,171.3L121.2,171.3z M127.1,166.5c0.5-0.9,1.1-1.8,1.5-2.8c1.2-0.3,2.3-0.7,3.4-1.1
	c-0.6,0.9-1.2,1.8-1.8,2.6C129.3,165.7,128.2,166.1,127.1,166.5L127.1,166.5z M133.1,161.7c0.5-0.9,1-1.8,1.5-2.8
	c1.2-0.4,2.3-0.8,3.4-1.2c-0.6,0.9-1.2,1.8-1.8,2.6C135.2,160.8,134.2,161.3,133.1,161.7L133.1,161.7z M139.1,156.7
	c0.5-0.9,1-1.8,1.4-2.7c1.1-0.4,2.2-0.8,3.3-1.3c-0.5,0.9-1.1,1.7-1.7,2.5C141.1,155.8,140.1,156.3,139.1,156.7L139.1,156.7z
	 M144.9,151.8c0.5-0.9,1-1.8,1.4-2.8c1.3-0.5,2.5-1,3.6-1.6c-0.5,0.9-1.1,1.8-1.7,2.7C147.2,150.7,146,151.2,144.9,151.8
	L144.9,151.8z M150.6,147.2c1-0.5,2-1,3-1.5c-0.6,0.8-1.2,1.5-1.8,2.2c-0.8,0.6-1.7,1.2-2.7,1.7C149.5,148.8,150.1,148,150.6,147.2
	L150.6,147.2z M150.9,146.5c0.5-0.9,0.9-1.8,1.3-2.7c1.2-0.5,2.4-1.1,3.6-1.6c-0.5,0.9-1,1.7-1.6,2.6
	C153.1,145.3,152.1,145.9,150.9,146.5L150.9,146.5z M156.5,141.8c1.1-0.5,2.1-1.1,3-1.7c-0.5,0.8-1.1,1.5-1.7,2.2
	c-0.9,0.6-1.7,1.3-2.7,1.8C155.6,143.4,156.1,142.6,156.5,141.8L156.5,141.8z M156.9,141.1c0.4-0.8,0.8-1.7,1.2-2.6
	c1.2-0.6,2.4-1.1,3.5-1.7c-0.4,0.8-0.9,1.6-1.4,2.3C159.2,139.8,158.1,140.4,156.9,141.1L156.9,141.1z M162.4,136.4
	c1-0.5,1.9-1.1,2.9-1.6c-0.4,0.6-0.9,1.2-1.3,1.7c-0.9,0.7-1.8,1.4-2.8,2C161.6,137.8,162,137.1,162.4,136.4L162.4,136.4z
	 M162.7,135.7c0.4-0.8,0.8-1.6,1.1-2.5c1.2-0.6,2.3-1.1,3.4-1.7c-0.4,0.8-0.9,1.6-1.4,2.3C164.9,134.5,163.8,135.1,162.7,135.7
	L162.7,135.7z M168,131.1c0.9-0.5,1.7-1,2.5-1.5c-0.5,0.7-1.1,1.4-1.6,2.1c-0.7,0.5-1.3,1-2.1,1.5
	C167.2,132.5,167.6,131.8,168,131.1L168,131.1z M168.3,130.4c0.4-0.8,0.7-1.6,1-2.4c1.1-0.6,2.2-1.1,3.2-1.7
	c-0.4,0.8-0.9,1.6-1.4,2.4C170.2,129.3,169.3,129.9,168.3,130.4L168.3,130.4z M173.3,125.9c1-0.6,1.9-1.1,2.8-1.7
	c-0.5,0.7-1,1.4-1.5,2c-0.8,0.6-1.6,1.2-2.4,1.8C172.6,127.3,173,126.6,173.3,125.9L173.3,125.9z M173.7,125.2
	c0.4-0.8,0.7-1.6,1-2.4c1.2-0.6,2.3-1.2,3.4-1.9c-0.4,0.8-0.8,1.5-1.3,2.3C175.8,123.9,174.8,124.5,173.7,125.2L173.7,125.2z
	 M178.7,120.6c1-0.6,2-1.2,3-1.8c-0.4,0.6-0.9,1.2-1.4,1.8c-0.8,0.7-1.7,1.4-2.7,2C178,122,178.4,121.3,178.7,120.6L178.7,120.6z
	 M179,119.9c0.3-0.7,0.7-1.5,0.9-2.3c0,0,0,0,0,0c1.2-0.7,2.4-1.3,3.5-1.9c-0.4,0.7-0.8,1.5-1.2,2.2
	C181.3,118.5,180.2,119.2,179,119.9L179,119.9z M184.1,115.3c1-0.6,2-1.2,2.9-1.8c-0.4,0.6-0.9,1.3-1.4,1.9c-0.8,0.7-1.7,1.3-2.6,2
	C183.4,116.6,183.8,116,184.1,115.3L184.1,115.3z M184.4,114.6c0.2-0.5,0.4-1,0.6-1.5c0.1-0.3,0.2-0.5,0.3-0.8
	c1.2-0.7,2.4-1.3,3.5-2c-0.4,0.8-0.8,1.5-1.2,2.2C186.6,113.2,185.5,113.9,184.4,114.6L184.4,114.6z M189.5,109.9
	c1-0.6,2-1.2,2.8-1.8c-0.4,0.7-0.9,1.3-1.4,2c-0.8,0.6-1.6,1.2-2.4,1.8C188.9,111.2,189.2,110.6,189.5,109.9L189.5,109.9z
	 M189.8,109.2c0.3-0.7,0.6-1.4,0.8-2.1c1.2-0.7,2.4-1.3,3.5-2c-0.3,0.7-0.7,1.4-1.1,2.1C192,107.9,190.9,108.5,189.8,109.2
	L189.8,109.2z M194.8,104.6c1.1-0.7,2.1-1.3,3-1.9c-0.4,0.6-0.9,1.2-1.3,1.9c-0.8,0.7-1.7,1.3-2.6,2
	C194.2,105.9,194.5,105.3,194.8,104.6L194.8,104.6z M195.1,103.9c2.9-7.3,1.8-15,0.7-23.6c-0.1-0.9-0.2-1.8-0.4-2.7
	c-1.3-9.6-3-21.6,3.5-35.8c2.8-6,3-10.9,0.8-14.4c-3.1-5-11-7.5-24.2-7.7c-13.1-0.2-27.7,2-34,3.1v-0.3c-6.5,0.3-13,1.6-19,4
	c6.6-2.9,13.7-4.8,20.9-5.4c-0.2,0-0.4,0.1-0.6,0.1c-0.7,0.1-1.3,0.3-1.4,0.3v0.4c0.1,0,0.4-0.1,1.5-0.3c14.6-2.7,27.1-4,37.2-4
	c13.7,0.1,21.9,2.5,25,7.5c2.2,3.5,1.8,8.3-1.1,14.3c-6.7,13.7-5.7,24.8-4.2,35.1c0.2,1.1,0.3,2.2,0.5,3.3
	c1.3,8.1,2.4,15.1-0.7,21.9c-0.3,0.7-0.7,1.4-1.1,2.1C197.3,102.5,196.2,103.2,195.1,103.9L195.1,103.9z M74.6,203.5
	c-19.9,0-38.9-8.3-52.4-22.8c-29-30.9-29-79.1,0-110c10-10.6,23-18,37.2-21.1c-12.9,3.7-24.6,10.8-33.8,20.6
	C12.5,84.4,4.9,102.7,4.1,121.9C4,123.2,4,124.5,4,125.8c-0.1,21.4,7.8,40.8,22.2,54.6c13.5,12.9,31.6,20,51,20c0.9,0,1.8,0,2.8-0.1
	c1.9-0.1,3.7-0.4,5.5-1.1C82.5,202,78.6,203.5,74.6,203.5z M87.8,197.7c0.5-0.5,1-1.1,1.5-1.7c0.6-0.2,1.3-0.4,1.9-0.7
	C90.2,196.2,89,197,87.8,197.7L87.8,197.7z M93.5,193.7c0.5-0.5,1-1.1,1.4-1.6c0.6-0.2,1.2-0.4,1.8-0.6
	C95.8,192.3,94.7,193.1,93.5,193.7z M99.1,189.9c0.5-0.6,1.1-1.2,1.6-1.8c0.7-0.3,1.5-0.5,2.2-0.8
	C101.7,188.3,100.5,189.1,99.1,189.9z M105.3,185.5c0.5-0.5,1-1.1,1.4-1.6c0.6-0.2,1.3-0.5,1.9-0.8
	C107.5,184,106.4,184.8,105.3,185.5z M111.2,181.2c0.5-0.5,0.9-1,1.4-1.6c0.6-0.3,1.3-0.5,1.9-0.8
	C113.4,179.6,112.3,180.5,111.2,181.2z M117.1,176.7c0.5-0.5,0.9-1.1,1.4-1.6c0.6-0.3,1.3-0.6,1.9-0.9
	C119.4,175.1,118.3,176,117.1,176.7z M123.3,171.9c0.4-0.5,0.9-1,1.3-1.5c0.6-0.3,1.2-0.6,1.8-0.9
	C125.4,170.4,124.3,171.2,123.3,171.9z M129.2,167.2c0.5-0.5,0.9-1.1,1.3-1.6c0.7-0.3,1.3-0.7,1.9-1
	C131.5,165.5,130.4,166.4,129.2,167.2z M135.5,162c0.4-0.4,0.7-0.9,1.1-1.4c0.6-0.3,1.1-0.6,1.6-0.9
	C137.3,160.5,136.4,161.3,135.5,162L135.5,162z M141,157.4c0.5-0.6,0.9-1.2,1.4-1.8c0.8-0.4,1.5-0.8,2.2-1.3
	C143.5,155.5,142.3,156.5,141,157.4L141,157.4z M147.3,151.9c0.4-0.5,0.8-0.9,1.1-1.4c0.6-0.3,1.2-0.7,1.8-1.1
	C149.3,150.3,148.3,151.1,147.3,151.9L147.3,151.9z M153.3,146.6c0.4-0.5,0.8-1,1.2-1.6c0.6-0.4,1.3-0.8,1.9-1.2
	C155.4,144.8,154.4,145.8,153.3,146.6L153.3,146.6z M159.4,141c0.4-0.5,0.7-1,1.1-1.5c0.6-0.4,1.2-0.8,1.8-1.2
	C161.4,139.3,160.4,140.2,159.4,141L159.4,141z M165.5,135.1c0.2-0.3,0.5-0.7,0.7-1c0.4-0.2,0.8-0.5,1.1-0.8
	C166.8,134,166.2,134.6,165.5,135.1L165.5,135.1z M170.7,130.2c0.3-0.4,0.6-0.9,0.9-1.3c0.6-0.4,1.1-0.8,1.7-1.2
	C172.5,128.6,171.6,129.4,170.7,130.2z M176.1,125c0.3-0.4,0.6-0.9,0.9-1.4c0.6-0.4,1.2-0.8,1.8-1.2C178,123.3,177,124.2,176.1,125
	L176.1,125z M181.6,119.5c0.3-0.4,0.6-0.9,0.9-1.3c0.6-0.4,1.2-0.8,1.7-1.2C183.4,117.9,182.5,118.7,181.6,119.5L181.6,119.5z
	 M187.2,114c0.3-0.4,0.5-0.8,0.8-1.2c0.5-0.4,1.1-0.8,1.6-1.1C188.8,112.4,188.1,113.2,187.2,114L187.2,114z M192.5,108.7
	c0.3-0.4,0.6-0.9,0.8-1.3c0.6-0.4,1.2-0.9,1.8-1.3C194.4,107,193.5,107.8,192.5,108.7L192.5,108.7z M197.8,103.4
	c0.3-0.4,0.6-0.8,0.8-1.3c0.7-0.5,1.3-0.9,1.9-1.3C199.7,101.7,198.8,102.6,197.8,103.4L197.8,103.4z"/>
</svg>
